<?xml version="1.0" encoding="UTF-8" standalone="no"?><svg xmlns="http://www.w3.org/2000/svg" xmlns:xlink="http://www.w3.org/1999/xlink" contentScriptType="text/ecmascript" fill="none" width="25" zoomAndPan="magnify" contentStyleType="text/css" viewBox="0 0 25 25" height="25" preserveAspectRatio="xMidYMid meet" version="1.0">
<g clip-path="url(#clip0_15235_119417)">
<circle fill="#BD3D44" r="6.85714" cx="17.7237" cy="12.6402"/>
<path fill="white" clip-rule="evenodd" d="M14.0292 6.86005C13.5747 7.15085 13.1568 7.49378 12.7838 7.88042H22.6559C22.283 7.49378 21.865 7.15085 21.4105 6.86005H14.0292ZM11.3574 10.0782C11.5125 9.69334 11.7015 9.32583 11.9207 8.97932H23.519C23.7382 9.32583 23.9272 9.69334 24.0823 10.0782H11.3574ZM11.0192 11.1771C10.9525 11.4839 10.9063 11.7983 10.8822 12.119H24.5575C24.5334 11.7983 24.4872 11.4839 24.4205 11.1771H11.0192ZM11.0317 14.1598C10.9578 13.8331 10.9072 13.4976 10.8817 13.1551H24.558C24.5325 13.4976 24.482 13.8331 24.4081 14.1598H11.0317ZM11.3804 15.2587C11.5397 15.6439 11.7331 16.0115 11.9568 16.3577H23.4829C23.7066 16.0115 23.9 15.6439 24.0593 15.2587H11.3804ZM13.9946 18.3983C13.5756 18.1266 13.1882 17.8105 12.8389 17.4566H22.6008C22.2515 17.8105 21.8641 18.1266 21.4451 18.3983H13.9946ZM17.6596 19.4972C17.6796 19.4973 17.6997 19.4974 17.7199 19.4974C17.74 19.4974 17.7601 19.4973 17.7801 19.4972H17.6596Z" fill-rule="evenodd"/>
<path fill="#00418E" clip-rule="evenodd" d="M10.886 13.1614C10.8731 12.9893 10.8665 12.8155 10.8665 12.6402C10.8665 8.85307 13.9366 5.78302 17.7237 5.78302C18.0064 5.78302 18.2851 5.80013 18.5588 5.83337V13.1614H10.886Z" fill-rule="evenodd"/>
<path fill="white" clip-rule="evenodd" d="M14.3775 6.66414C14.3379 6.68646 14.2986 6.70915 14.2596 6.73223L14.4445 6.86446L14.3775 6.66414ZM13.6609 7.12964C13.5223 7.23245 13.3878 7.34036 13.2575 7.4531L13.3022 7.4216L13.5542 7.60107L13.4583 7.3091L13.7131 7.12964H13.6609ZM12.59 8.11546C12.5591 8.15065 12.5285 8.18616 12.4983 8.22198L12.6639 8.34035L12.59 8.11546ZM11.3787 10.0814C11.3592 10.1301 11.3401 10.179 11.3217 10.2281L11.3681 10.2609L11.2695 10.5555L11.5243 10.3734L11.7791 10.5555L11.6804 10.2636L11.9352 10.0841H11.6229L11.5243 9.79214L11.4284 10.0814H11.3787ZM15.9649 6.09839L16.0636 6.39035H16.3759L16.1238 6.56982L16.2197 6.86446L15.9649 6.68232L15.7129 6.86178L15.8088 6.56982L15.5568 6.39035H15.8691L15.9649 6.09839ZM17.7428 6.09839L17.8387 6.39035H18.1538L17.899 6.56982L17.9976 6.86446L17.7428 6.68232L17.4881 6.86178L17.5867 6.56982L17.3319 6.39035H17.647L17.7428 6.09839ZM15.0774 6.83767L15.176 7.12964H15.4883L15.2335 7.3091L15.3321 7.60107L15.0774 7.4216L14.8253 7.60107L14.9212 7.3091L14.6664 7.12964H14.9842L15.0774 6.83767ZM16.8553 6.83767L16.9511 7.12964H17.2662L17.0114 7.3091L17.1073 7.60107L16.8553 7.4216L16.6005 7.60107L16.6964 7.3091L16.4443 7.12964H16.7566L16.8553 6.83767ZM14.1898 7.57428L14.2857 7.86892H14.6007L14.3459 8.04839L14.4445 8.34035L14.1898 8.15821L13.935 8.34035L14.0336 8.04571L13.7789 7.86624H14.0912L14.1898 7.57428ZM15.9649 7.57428L16.0636 7.86892H16.3759L16.1238 8.04839L16.2197 8.34035L15.9649 8.15821L15.7129 8.34035L15.8088 8.04571L15.5568 7.86624H15.8691L15.9649 7.57428ZM17.7428 7.57428L17.8387 7.86892H18.1538L17.899 8.04839L17.9976 8.34035L17.7428 8.15821L17.4881 8.34035L17.5867 8.04571L17.3319 7.86624H17.647L17.7428 7.57428ZM13.3022 8.31357L13.3981 8.60553H13.7131L13.4583 8.78499L13.5542 9.07964L13.3022 8.89749L13.0474 9.07696L13.1433 8.78499L12.8913 8.60553H13.2036L13.3022 8.31357ZM15.0774 8.31357L15.176 8.60553H15.4883L15.2362 8.78499L15.3321 9.07964L15.0774 8.89749L14.8253 9.07696L14.9212 8.78499L14.6664 8.60553H14.9842L15.0774 8.31357ZM16.8553 8.31357L16.9511 8.60553H17.2662L17.0114 8.78499L17.1073 9.07964L16.8553 8.89749L16.6005 9.07696L16.6964 8.78499L16.4443 8.60553H16.7566L16.8553 8.31357ZM12.4119 9.05285L12.5105 9.34482H12.82L12.568 9.52428L12.6639 9.81892L12.4091 9.63678L12.1571 9.81624L12.253 9.52428L11.9982 9.34482H12.3133L12.4119 9.05285ZM14.1898 9.05285L14.2857 9.34482H14.6007L14.3459 9.52428L14.4445 9.81892L14.1898 9.63678L13.935 9.81624L14.0336 9.52428L13.7789 9.34482H14.0912L14.1898 9.05285ZM15.9649 9.05285L16.0636 9.34482H16.3759L16.1238 9.52428L16.2197 9.81892L15.9649 9.63678L15.7129 9.81624L15.8088 9.52428L15.5568 9.34482H15.8691L15.9649 9.05285ZM17.7428 9.05285L17.8387 9.34482H18.1538L17.899 9.52428L17.9976 9.81892L17.7428 9.63678L17.4881 9.81624L17.5867 9.52428L17.3319 9.34482H17.647L17.7428 9.05285ZM13.3022 9.79214L13.3981 10.0841H13.7131L13.4583 10.2636L13.5542 10.5555L13.3022 10.3734L13.0474 10.5555L13.1433 10.2609L12.8913 10.0814H13.2036L13.3022 9.79214ZM15.0774 9.79214L15.176 10.0841H15.4883L15.2362 10.2636L15.3321 10.5555L15.0774 10.3734L14.8253 10.5555L14.9212 10.2609L14.6664 10.0814H14.9842L15.0774 9.79214ZM16.8553 9.79214L16.9511 10.0841H17.2662L17.0114 10.2636L17.1073 10.5555L16.8553 10.3734L16.6005 10.5555L16.6964 10.2609L16.4443 10.0814H16.7566L16.8553 9.79214ZM12.4119 10.5287L12.5105 10.8234H12.82L12.568 11.0029L12.6639 11.2921L12.4091 11.1127L12.1571 11.2921L12.253 11.0002L11.9982 10.8207H12.3133L12.4119 10.5287ZM14.1898 10.5287L14.2857 10.8234H14.6007L14.3459 11.0029L14.4445 11.2921L14.1898 11.1127L13.935 11.2921L14.0336 11.0002L13.7789 10.8207H14.0912L14.1898 10.5287ZM15.9649 10.5287L16.0636 10.8234H16.3759L16.1238 11.0029L16.2197 11.2921L15.9649 11.1127L15.7129 11.2921L15.8088 11.0002L15.5568 10.8207H15.8691L15.9649 10.5287ZM17.7428 10.5287L17.8387 10.8234H18.1538L17.899 11.0029L17.9976 11.2921L17.7428 11.1127L17.4881 11.2921L17.5867 11.0002L17.3319 10.8207H17.647L17.7428 10.5287ZM11.5243 11.268L11.6229 11.56H11.9352L11.6804 11.7395L11.7791 12.0341L11.5243 11.852L11.2695 12.0314L11.3681 11.7395L11.1134 11.56H11.4284L11.5243 11.268ZM13.3022 11.268L13.3981 11.56H13.7131L13.4583 11.7395L13.5542 12.0341L13.3022 11.852L13.0474 12.0314L13.1433 11.7395L12.8913 11.56H13.2036L13.3022 11.268ZM15.0774 11.268L15.176 11.56H15.4883L15.2362 11.7395L15.3321 12.0341L15.0774 11.852L14.8253 12.0314L14.9212 11.7395L14.6664 11.56H14.9842L15.0774 11.268ZM16.8553 11.268L16.9511 11.56H17.2662L17.0114 11.7395L17.1073 12.0341L16.8553 11.852L16.6005 12.0314L16.6964 11.7395L16.4443 11.56H16.7566L16.8553 11.268ZM12.4119 12.0073L12.5105 12.2993H12.82L12.5735 12.4787L12.6694 12.7707L12.4146 12.5912L12.1626 12.7707L12.2585 12.4761L12.0037 12.2966H12.3187L12.4119 12.0073ZM14.1898 12.0073L14.2857 12.2993H14.6007L14.3459 12.4787L14.4445 12.7707L14.1898 12.5912L13.935 12.7707L14.0336 12.4761L13.7789 12.2966H14.0912L14.1898 12.0073ZM15.9649 12.0073L16.0636 12.2993H16.3759L16.1238 12.4787L16.2197 12.7707L15.9649 12.5912L15.7129 12.7707L15.8088 12.4761L15.5568 12.2966H15.8691L15.9649 12.0073ZM17.7428 12.0073L17.8387 12.2993H18.1538L17.899 12.4787L17.9976 12.7707L17.7428 12.5912L17.4881 12.7707L17.5867 12.4761L17.3319 12.2966H17.647L17.7428 12.0073Z" fill-rule="evenodd"/>
<g clip-path="url(#clip1_15235_119417)">
<path fill="black" d="M14.0842 14.3534C13.1686 18.0258 9.44914 20.2607 5.77635 19.3449C2.1051 18.4294 -0.129829 14.7096 0.786108 11.0376C1.70124 7.36483 5.42074 5.12974 9.0924 6.04527C12.7649 6.96081 14.9997 10.6809 14.0841 14.3535L14.0841 14.3534H14.0842Z"/>
<g clip-path="url(#clip2_15235_119417)">
<path fill="white" d="M5.06369 16.0997L6.11 14.2878L7.1563 12.4823L8.19623 10.6704L8.36848 10.3833L8.44504 10.6704L8.76404 11.8634L8.40676 12.4823L7.36046 14.2878L6.32053 16.0997H7.571L8.6173 14.2878L9.15959 13.3499L9.41479 14.2878L9.89966 16.0997H11.0225L10.5377 14.2878L10.0528 12.4823L9.92518 12.0165L10.7035 10.6704H9.56791L9.52963 10.5364L9.13407 9.05627L9.08303 8.86487H7.99207L7.96655 8.90315L6.94577 10.6704L5.89946 12.4823L4.85954 14.2878L3.81323 16.0997H5.06369Z"/>
</g>
</g>
</g>
<defs>
<clipPath id="clip0_15235_119417">
<rect fill="white" width="24" height="24" transform="translate(0.580811 0.640137)"/>
</clipPath>
<clipPath id="clip1_15235_119417">
<rect fill="white" width="13.7085" height="13.71" transform="translate(0.580811 5.84015)"/>
</clipPath>
<clipPath id="clip2_15235_119417">
<rect fill="white" width="7.20929" height="7.23481" transform="translate(3.81323 8.86487)"/>
</clipPath>
</defs>
<metadata symbolName="ALGOUSD" fileName="algousd.svg" id="grimlock-metadata-id" lastUpdate="2025-02-10T09:58:22.589179135" symbolId="1407"/></svg>