<?xml version="1.0" encoding="UTF-8" standalone="no"?><svg xmlns="http://www.w3.org/2000/svg" xmlns:xlink="http://www.w3.org/1999/xlink" contentScriptType="text/ecmascript" fill="none" width="25" zoomAndPan="magnify" contentStyleType="text/css" viewBox="0 0 25 25" height="25" preserveAspectRatio="xMidYMid meet" version="1.0">
<g clip-path="url(#clip0_15236_119540)">
<circle fill="#BD3D44" r="6.85714" cx="17.7237" cy="12.8672"/>
<path fill="white" clip-rule="evenodd" d="M14.0292 7.0871C13.5747 7.3779 13.1568 7.72083 12.7838 8.10747H22.6559C22.283 7.72083 21.865 7.3779 21.4105 7.0871H14.0292ZM11.3574 10.3052C11.5125 9.92039 11.7015 9.55288 11.9207 9.20637H23.519C23.7382 9.55288 23.9272 9.92039 24.0823 10.3052H11.3574ZM11.0192 11.4041C10.9525 11.7109 10.9063 12.0254 10.8822 12.346H24.5575C24.5334 12.0254 24.4872 11.7109 24.4205 11.4041H11.0192ZM11.0317 14.3868C10.9578 14.0602 10.9072 13.7246 10.8817 13.3821H24.558C24.5325 13.7246 24.482 14.0602 24.4081 14.3868H11.0317ZM11.3804 15.4857C11.5397 15.871 11.7331 16.2386 11.9568 16.5847H23.4829C23.7066 16.2386 23.9 15.871 24.0593 15.4857H11.3804ZM13.9946 18.6253C13.5756 18.3537 13.1882 18.0375 12.8389 17.6836H22.6008C22.2515 18.0375 21.8641 18.3537 21.4451 18.6253H13.9946ZM17.6596 19.7242C17.6796 19.7244 17.6997 19.7245 17.7199 19.7245C17.74 19.7245 17.7601 19.7244 17.7801 19.7242H17.6596Z" fill-rule="evenodd"/>
<path fill="#00418E" clip-rule="evenodd" d="M10.886 13.3884C10.8731 13.2164 10.8665 13.0426 10.8665 12.8672C10.8665 9.08012 13.9366 6.01007 17.7237 6.01007C18.0064 6.01007 18.2851 6.02718 18.5588 6.06042V13.3884H10.886Z" fill-rule="evenodd"/>
<path fill="white" clip-rule="evenodd" d="M14.3775 6.89119C14.3379 6.91351 14.2986 6.93621 14.2596 6.95928L14.4445 7.09151L14.3775 6.89119ZM13.6609 7.35669C13.5223 7.4595 13.3878 7.56741 13.2575 7.68015L13.3022 7.64865L13.5542 7.82812L13.4583 7.53615L13.7131 7.35669H13.6609ZM12.59 8.34251C12.5591 8.3777 12.5285 8.41321 12.4983 8.44903L12.6639 8.5674L12.59 8.34251ZM11.3787 10.3085C11.3592 10.3571 11.3401 10.406 11.3217 10.4552L11.3681 10.4879L11.2695 10.7826L11.5243 10.6004L11.7791 10.7826L11.6804 10.4906L11.9352 10.3112H11.6229L11.5243 10.0192L11.4284 10.3085H11.3787ZM15.9649 6.32544L16.0636 6.6174H16.3759L16.1238 6.79687L16.2197 7.09151L15.9649 6.90937L15.7129 7.08883L15.8088 6.79687L15.5568 6.6174H15.8691L15.9649 6.32544ZM17.7428 6.32544L17.8387 6.6174H18.1538L17.899 6.79687L17.9976 7.09151L17.7428 6.90937L17.4881 7.08883L17.5867 6.79687L17.3319 6.6174H17.647L17.7428 6.32544ZM15.0774 7.06472L15.176 7.35669H15.4883L15.2335 7.53615L15.3321 7.82812L15.0774 7.64865L14.8253 7.82812L14.9212 7.53615L14.6664 7.35669H14.9842L15.0774 7.06472ZM16.8553 7.06472L16.9511 7.35669H17.2662L17.0114 7.53615L17.1073 7.82812L16.8553 7.64865L16.6005 7.82812L16.6964 7.53615L16.4443 7.35669H16.7566L16.8553 7.06472ZM14.1898 7.80133L14.2857 8.09597H14.6007L14.3459 8.27544L14.4445 8.5674L14.1898 8.38526L13.935 8.5674L14.0336 8.27276L13.7789 8.0933H14.0912L14.1898 7.80133ZM15.9649 7.80133L16.0636 8.09597H16.3759L16.1238 8.27544L16.2197 8.5674L15.9649 8.38526L15.7129 8.5674L15.8088 8.27276L15.5568 8.0933H15.8691L15.9649 7.80133ZM17.7428 7.80133L17.8387 8.09597H18.1538L17.899 8.27544L17.9976 8.5674L17.7428 8.38526L17.4881 8.5674L17.5867 8.27276L17.3319 8.0933H17.647L17.7428 7.80133ZM13.3022 8.54062L13.3981 8.83258H13.7131L13.4583 9.01204L13.5542 9.30669L13.3022 9.12455L13.0474 9.30401L13.1433 9.01204L12.8913 8.83258H13.2036L13.3022 8.54062ZM15.0774 8.54062L15.176 8.83258H15.4883L15.2362 9.01204L15.3321 9.30669L15.0774 9.12455L14.8253 9.30401L14.9212 9.01204L14.6664 8.83258H14.9842L15.0774 8.54062ZM16.8553 8.54062L16.9511 8.83258H17.2662L17.0114 9.01204L17.1073 9.30669L16.8553 9.12455L16.6005 9.30401L16.6964 9.01204L16.4443 8.83258H16.7566L16.8553 8.54062ZM12.4119 9.2799L12.5105 9.57187H12.82L12.568 9.75133L12.6639 10.046L12.4091 9.86383L12.1571 10.0433L12.253 9.75133L11.9982 9.57187H12.3133L12.4119 9.2799ZM14.1898 9.2799L14.2857 9.57187H14.6007L14.3459 9.75133L14.4445 10.046L14.1898 9.86383L13.935 10.0433L14.0336 9.75133L13.7789 9.57187H14.0912L14.1898 9.2799ZM15.9649 9.2799L16.0636 9.57187H16.3759L16.1238 9.75133L16.2197 10.046L15.9649 9.86383L15.7129 10.0433L15.8088 9.75133L15.5568 9.57187H15.8691L15.9649 9.2799ZM17.7428 9.2799L17.8387 9.57187H18.1538L17.899 9.75133L17.9976 10.046L17.7428 9.86383L17.4881 10.0433L17.5867 9.75133L17.3319 9.57187H17.647L17.7428 9.2799ZM13.3022 10.0192L13.3981 10.3112H13.7131L13.4583 10.4906L13.5542 10.7826L13.3022 10.6004L13.0474 10.7826L13.1433 10.4879L12.8913 10.3085H13.2036L13.3022 10.0192ZM15.0774 10.0192L15.176 10.3112H15.4883L15.2362 10.4906L15.3321 10.7826L15.0774 10.6004L14.8253 10.7826L14.9212 10.4879L14.6664 10.3085H14.9842L15.0774 10.0192ZM16.8553 10.0192L16.9511 10.3112H17.2662L17.0114 10.4906L17.1073 10.7826L16.8553 10.6004L16.6005 10.7826L16.6964 10.4879L16.4443 10.3085H16.7566L16.8553 10.0192ZM12.4119 10.7558L12.5105 11.0504H12.82L12.568 11.2299L12.6639 11.5192L12.4091 11.3397L12.1571 11.5192L12.253 11.2272L11.9982 11.0478H12.3133L12.4119 10.7558ZM14.1898 10.7558L14.2857 11.0504H14.6007L14.3459 11.2299L14.4445 11.5192L14.1898 11.3397L13.935 11.5192L14.0336 11.2272L13.7789 11.0478H14.0912L14.1898 10.7558ZM15.9649 10.7558L16.0636 11.0504H16.3759L16.1238 11.2299L16.2197 11.5192L15.9649 11.3397L15.7129 11.5192L15.8088 11.2272L15.5568 11.0478H15.8691L15.9649 10.7558ZM17.7428 10.7558L17.8387 11.0504H18.1538L17.899 11.2299L17.9976 11.5192L17.7428 11.3397L17.4881 11.5192L17.5867 11.2272L17.3319 11.0478H17.647L17.7428 10.7558ZM11.5243 11.4951L11.6229 11.787H11.9352L11.6804 11.9665L11.7791 12.2612L11.5243 12.079L11.2695 12.2585L11.3681 11.9665L11.1134 11.787H11.4284L11.5243 11.4951ZM13.3022 11.4951L13.3981 11.787H13.7131L13.4583 11.9665L13.5542 12.2612L13.3022 12.079L13.0474 12.2585L13.1433 11.9665L12.8913 11.787H13.2036L13.3022 11.4951ZM15.0774 11.4951L15.176 11.787H15.4883L15.2362 11.9665L15.3321 12.2612L15.0774 12.079L14.8253 12.2585L14.9212 11.9665L14.6664 11.787H14.9842L15.0774 11.4951ZM16.8553 11.4951L16.9511 11.787H17.2662L17.0114 11.9665L17.1073 12.2612L16.8553 12.079L16.6005 12.2585L16.6964 11.9665L16.4443 11.787H16.7566L16.8553 11.4951ZM12.4119 12.2344L12.5105 12.5263H12.82L12.5735 12.7058L12.6694 12.9978L12.4146 12.8183L12.1626 12.9978L12.2585 12.7031L12.0037 12.5237H12.3187L12.4119 12.2344ZM14.1898 12.2344L14.2857 12.5263H14.6007L14.3459 12.7058L14.4445 12.9978L14.1898 12.8183L13.935 12.9978L14.0336 12.7031L13.7789 12.5237H14.0912L14.1898 12.2344ZM15.9649 12.2344L16.0636 12.5263H16.3759L16.1238 12.7058L16.2197 12.9978L15.9649 12.8183L15.7129 12.9978L15.8088 12.7031L15.5568 12.5237H15.8691L15.9649 12.2344ZM17.7428 12.2344L17.8387 12.5263H18.1538L17.899 12.7058L17.9976 12.9978L17.7428 12.8183L17.4881 12.9978L17.5867 12.7031L17.3319 12.5237H17.647L17.7428 12.2344Z" fill-rule="evenodd"/>
<g clip-path="url(#clip1_15236_119540)">
<path fill="url(#paint0_radial_15236_119540)" d="M14.2893 12.9222C14.2893 9.13274 11.2167 6.0672 7.43504 6.0672C3.64601 6.0672 0.580811 9.13274 0.580811 12.9222C0.580811 16.7043 3.64601 19.7772 7.43504 19.7772C11.2167 19.7772 14.2893 16.7043 14.2893 12.9222Z"/>
<path fill="white" d="M12.0956 10.78C12.0661 10.9499 12.0365 11.0312 11.9922 11.1198C11.9479 11.2232 11.9036 11.334 11.8592 11.5704C11.8445 11.659 11.8297 11.7329 11.8223 11.792V11.7994C11.8075 11.8954 11.8002 11.9619 11.7632 12.0727C11.7337 12.1687 11.682 12.3239 11.5564 12.4864C11.453 12.6193 11.2831 12.8483 11.0542 12.8779C11.032 12.8779 10.9951 12.8779 10.9729 12.8705C10.323 12.5381 9.769 12.2943 9.57696 12.2426C9.35538 12.1761 9.38493 11.6886 9.40709 11.2601C9.42186 11.0681 9.42924 10.8834 9.42186 10.7283C9.39231 10.1817 9.2963 9.59072 8.82359 9.30263C8.54292 9.13273 8.17362 9.08103 7.82648 9.08103C7.89295 9.05148 7.95943 9.00716 8.04067 8.96284C8.24748 8.84465 8.49861 8.69691 8.75712 8.66736C8.83836 8.65998 8.91961 8.65259 9.00085 8.63781C9.51049 8.57872 9.95365 8.52701 10.419 8.68952C10.6332 8.76339 11.0616 8.99977 11.1723 9.22876C11.2536 9.38389 11.3865 9.50946 11.6451 9.75323C11.7854 9.87881 11.874 9.95267 11.9405 10.0118C12.0365 10.0856 12.0513 10.1078 12.0808 10.1595C12.1695 10.3368 12.1399 10.5215 12.0956 10.78Z"/>
<path fill="white" d="M9.73946 13.0182C9.76901 13.0256 9.78378 13.0625 9.76162 13.0921C9.69515 13.1955 9.6139 13.3432 9.51788 13.5131C9.47357 13.5944 9.42925 13.6756 9.39232 13.7347C9.26676 13.949 9.25937 14.1336 9.25199 14.274C9.2446 14.4291 9.23721 14.4956 9.1412 14.5547C9.06734 14.6064 8.98609 14.6212 8.4543 14.7024C8.35828 14.7172 8.32135 14.732 8.28442 14.7541C8.27703 14.7615 8.26226 14.7615 8.25487 14.7689C8.22533 14.7837 8.19578 14.7541 8.19578 14.7246C8.20317 14.6507 8.20317 14.5547 8.20317 14.4291V14.4069C8.20317 14.3035 8.20317 14.2149 8.19578 14.1484C8.1884 14.0154 8.1884 13.9563 8.22533 13.8972C8.26964 13.8234 8.30658 13.8012 8.35828 13.7643C8.43952 13.7126 8.55031 13.6461 8.70542 13.4245C8.79405 13.3063 8.80882 13.2398 8.8236 13.1881C8.83098 13.1659 8.83098 13.1586 8.89746 13.1069C8.96393 13.0551 9.17813 12.8926 9.45141 12.937C9.54004 12.9517 9.63606 12.9813 9.73946 13.0182Z"/>
<path fill="white" d="M7.61968 15.4707C7.60491 15.4854 7.59753 15.4928 7.57537 15.4928C7.51628 15.4928 7.47935 15.478 7.45719 15.4485C7.40549 15.382 7.41288 15.2491 7.42026 15.1678L7.64923 15.1087C7.664 15.2343 7.67139 15.4042 7.61968 15.4707Z"/>
<path fill="white" d="M7.63445 14.6581C7.62707 14.6876 7.62707 14.7246 7.62707 14.7689C7.62707 14.7837 7.62707 14.7984 7.62707 14.8132C7.62707 14.8501 7.62707 14.9092 7.62707 14.9388C7.55321 14.961 7.49412 14.961 7.42026 14.961C7.42026 14.9388 7.42026 14.9019 7.42026 14.8797C7.42026 14.8649 7.42026 14.8428 7.42026 14.828C7.42026 14.8058 7.42026 14.7911 7.42026 14.7689C7.42026 14.7246 7.42026 14.6581 7.42764 14.6359C7.4498 14.6359 7.47196 14.6285 7.49412 14.6212C7.53843 14.6138 7.60491 14.599 7.64184 14.6064C7.64184 14.6212 7.64184 14.6433 7.63445 14.6581Z"/>
<path fill="white" d="M7.22083 15.4042C7.21344 15.5224 7.17651 15.6627 7.06572 15.6849C7.01402 15.6922 6.99186 15.6775 6.97709 15.6627C6.90323 15.5962 6.89584 15.3894 6.90323 15.2416C6.95493 15.2416 7.01402 15.2343 7.08788 15.2195C7.13219 15.2121 7.17651 15.1973 7.21344 15.1899C7.22083 15.249 7.22821 15.3229 7.22083 15.4042Z"/>
<path fill="white" d="M7.16912 14.9905L6.92538 15.0791C6.94016 14.9831 6.95493 14.8501 6.96231 14.7615C6.9697 14.7024 6.98447 14.6802 6.99186 14.6729C6.99186 14.6729 6.99924 14.6655 7.00663 14.6655C7.00663 14.6655 7.00663 14.6655 7.01402 14.6655H7.0214L7.17651 14.6581C7.16912 14.7319 7.16912 14.8945 7.16912 14.9905Z"/>
<path fill="white" d="M6.7703 14.9166C6.75553 14.9536 6.74076 15.057 6.73337 15.1308L6.43054 15.1235C6.44531 15.0274 6.47486 14.9314 6.49702 14.8575C6.52656 14.7837 6.54872 14.7246 6.57826 14.7098C6.60781 14.695 6.67428 14.6876 6.7186 14.7246C6.78507 14.7689 6.79984 14.8354 6.7703 14.9166Z"/>
<path fill="white" d="M6.65949 15.8548C6.63733 15.8843 6.60779 15.9065 6.57824 15.9065C6.54131 15.9139 6.51916 15.8991 6.497 15.8843C6.40098 15.7957 6.40837 15.5076 6.41575 15.3673C6.54131 15.3377 6.68165 15.3156 6.74812 15.3082C6.74812 15.419 6.75551 15.7218 6.65949 15.8548Z"/>
<path fill="white" d="M6.26065 15.1087C6.24588 15.1457 6.23111 15.1826 6.22372 15.2195C6.18679 15.2343 6.076 15.2195 5.96521 15.1974L6.03907 14.7172C6.16463 14.6803 6.31235 14.6729 6.3419 14.7098C6.3936 14.7615 6.29758 15.0053 6.26065 15.1087Z"/>
<path fill="white" d="M6.12032 15.9212C6.06123 15.9951 5.9726 16.0321 5.84704 16.0247C5.7584 16.0247 5.72886 15.9877 5.71409 15.9656C5.64761 15.8548 5.71409 15.5962 5.78056 15.4337L6.19418 15.4559C6.20157 15.4854 6.20157 15.5224 6.20157 15.5593C6.20895 15.6849 6.19418 15.8326 6.12032 15.9212Z"/>
<path fill="white" d="M9.54743 12.4272C9.17074 12.3238 9.20767 11.7772 9.23721 11.2454C9.2446 11.0607 9.25937 10.8834 9.25199 10.7357C9.22244 10.2407 9.1412 9.7015 8.74235 9.45773C8.31396 9.19919 7.61229 9.25829 7.1839 9.31C7.02879 9.35432 6.88107 9.39125 6.7629 9.38387C6.51177 9.36909 6.31235 9.26568 6.13508 9.16965C6.00214 9.09578 5.88396 9.0293 5.76578 9.0293C5.7584 9.0293 5.75101 9.0293 5.75101 9.0293C5.41864 9.05146 5.26353 9.13271 5.1232 9.25829C5.08627 9.28784 5.04195 9.37648 4.90162 9.78276C4.82776 9.98959 4.82037 10.1004 4.8056 10.2038C4.79083 10.2998 4.78344 10.4033 4.73174 10.5584C4.69481 10.6618 4.66527 10.7504 4.64311 10.8391C4.57663 11.0681 4.51755 11.2527 4.35505 11.4743C4.3329 11.4965 4.31074 11.5408 4.28119 11.5778C4.24426 11.6369 4.19995 11.7107 4.13347 11.792C4.08916 11.8511 3.99314 12.0727 4.00052 12.1392C4.00791 12.25 4.04484 12.3164 4.08177 12.3903C4.1187 12.4642 4.1704 12.5528 4.17779 12.6784V12.7006C4.19256 12.8926 4.16302 12.9887 3.8011 13.3137C3.57213 13.5205 3.40226 13.7199 3.29147 13.8677C3.28408 13.8825 3.29147 13.8972 3.31362 13.8972C3.32101 13.8972 3.32101 13.8972 3.32101 13.8972C3.3284 13.8972 3.33578 13.8972 3.34317 13.8972C3.35055 13.8972 3.35794 13.8972 3.36533 13.8972C3.37271 13.8972 3.3801 13.8972 3.38748 13.8972C3.47612 13.9046 3.56475 13.9416 3.62384 14.008C3.63122 14.0228 3.65338 14.0228 3.66815 14.0154C3.72724 13.9933 3.79372 13.9933 3.8528 14.0006C3.92666 14.008 4.00791 14.0302 4.05961 14.0819C4.07438 14.0967 4.09654 14.1041 4.1187 14.0967C4.17779 14.0819 4.24426 14.0819 4.30335 14.1041C4.34767 14.1188 4.39198 14.1484 4.42153 14.1853C4.44369 14.2075 4.48062 14.2149 4.51016 14.2001C4.52493 14.1927 4.54709 14.1779 4.56925 14.1705C4.65049 14.141 4.73913 14.1558 4.81299 14.1853C4.84992 14.2001 4.88685 14.2075 4.92378 14.237C4.98287 14.2813 5.02718 14.3404 5.04934 14.4069C5.06411 14.4439 5.11581 14.4586 5.14536 14.4291C5.20445 14.3848 5.24876 14.3774 5.29308 14.3922C5.31524 14.3995 5.33001 14.4143 5.34478 14.4365C5.36694 14.466 5.40387 14.4956 5.43341 14.4808C5.55898 14.4439 5.7067 14.466 5.81749 14.5251C5.85442 14.5473 5.89873 14.5768 5.92089 14.6211V14.599C5.92089 14.5916 5.92828 14.5842 5.93566 14.5768L5.95782 14.5694C6.01691 14.5473 6.32712 14.4586 6.4453 14.5842C6.45268 14.5916 6.46007 14.5916 6.46746 14.5842C6.48223 14.5694 6.497 14.5547 6.50439 14.5547C6.58563 14.5103 6.71858 14.503 6.80721 14.5842C6.82199 14.599 6.85153 14.5916 6.8663 14.5768C6.87369 14.5621 6.88107 14.5547 6.89585 14.5473C6.92539 14.5177 6.96971 14.5103 7.01402 14.5103L7.1839 14.503C7.22822 14.503 7.36117 14.4882 7.3981 14.4808H7.40548C7.42025 14.4808 7.44241 14.4734 7.46457 14.466C7.54582 14.4512 7.64183 14.4291 7.71569 14.466C7.78955 14.503 7.78217 14.5842 7.77478 14.6581C7.77478 14.6876 7.7674 14.7172 7.7674 14.7467C7.7674 14.7615 7.7674 14.7763 7.7674 14.791C7.7674 14.8575 7.7674 14.9166 7.76001 14.9609L7.7674 14.9979C7.7674 14.9979 7.7674 14.9979 7.7674 15.0053C7.77478 15.0348 7.81171 15.057 7.83387 15.0348C7.89296 14.9979 7.95205 14.9536 7.9742 14.924V14.9166C7.9742 14.9092 7.98159 14.8945 7.98898 14.8649C7.99636 14.7984 8.01113 14.6729 8.01113 14.4143C8.01113 14.3995 8.01113 14.3922 8.01113 14.3848C8.01113 14.2887 8.01113 14.2075 8.00375 14.141C7.99636 14.0006 7.98898 13.8898 8.06284 13.779C8.12931 13.6682 8.19579 13.6313 8.26226 13.587C8.33612 13.5427 8.41737 13.491 8.5577 13.2989C8.62418 13.2029 8.63156 13.1659 8.63895 13.1364C8.65372 13.0625 8.67588 13.0182 8.78667 12.9443C8.8753 12.8778 9.13381 12.6784 9.48834 12.7375C9.60652 12.7597 9.79117 12.8188 9.9832 12.8926C9.99059 12.8926 9.99798 12.9 10.0054 12.9H10.0127C10.1826 12.9665 10.3377 13.0404 10.4485 13.0995C10.4707 13.1142 10.5002 13.1068 10.5224 13.0847C10.5593 13.0404 10.5962 13.0182 10.6332 12.9887C10.6479 12.9813 10.6627 12.9739 10.6701 12.9665C10.6775 12.9665 10.6775 12.9591 10.6775 12.9591C10.707 12.9369 10.707 12.8778 10.6701 12.8631C10.1752 12.6193 9.70253 12.4716 9.54743 12.4272ZM5.98736 12.5381C5.86919 13.0404 5.08627 13.6018 4.73174 13.6018H4.72435C4.71697 13.6018 4.70958 13.6018 4.70958 13.6018C4.7022 13.6018 4.69481 13.6018 4.68742 13.5944C4.68004 13.5944 4.68004 13.5944 4.67265 13.5944C4.60618 13.5722 4.51755 13.5279 4.45107 13.4614C4.40676 13.4171 4.36983 13.358 4.35505 13.3063C4.35505 13.2989 4.34767 13.2841 4.34767 13.2767C4.32551 13.1881 4.30335 13.0847 4.37721 12.9074C4.3846 12.8852 4.39937 12.8631 4.40676 12.8409C4.40676 12.8335 4.41414 12.8261 4.41414 12.8188C4.42153 12.7966 4.42891 12.7818 4.4363 12.767C4.44369 12.7375 4.45846 12.7153 4.46584 12.7006C4.46584 12.6932 4.47323 12.6858 4.47323 12.6784C4.49539 12.6193 4.49539 12.5971 4.50277 12.575C4.50277 12.5602 4.51016 12.5307 4.51755 12.5011C4.5397 12.4051 4.55448 12.3238 4.56186 12.2574C4.57663 12.1318 4.59879 12.021 4.66527 11.9176C4.68004 11.9028 4.68742 11.888 4.7022 11.8732C4.70958 11.8658 4.70958 11.8658 4.71697 11.8585C4.72435 11.8511 4.72435 11.8511 4.73174 11.8437C4.74651 11.8289 4.76867 11.8215 4.78344 11.8141C4.79083 11.8141 4.79821 11.8068 4.8056 11.8068C4.82037 11.7994 4.83514 11.7994 4.84992 11.792C4.91639 11.7772 4.99025 11.7772 5.07888 11.7846C5.1749 11.792 5.26353 11.8068 5.33739 11.8289C5.40387 11.8437 5.46296 11.8658 5.50727 11.888C5.51466 11.888 5.51466 11.8954 5.52205 11.8954C5.52943 11.9028 5.53682 11.9028 5.55159 11.9102C5.56636 11.9176 5.57375 11.9176 5.58852 11.9249C5.60329 11.9323 5.61806 11.9397 5.63284 11.9471L5.64761 11.9545C5.69931 11.9767 5.75101 12.0062 5.78794 12.0357C5.8101 12.0505 5.82487 12.0653 5.83964 12.0801C5.84703 12.0875 5.85442 12.0875 5.85442 12.0948C5.8618 12.1022 5.8618 12.1022 5.86919 12.1096C6.02429 12.2426 6.01691 12.4272 5.98736 12.5381ZM6.35667 10.6249L6.34189 10.7135C6.30496 10.9203 6.22372 11.201 5.92828 11.2749C5.64022 11.3414 5.57375 11.3562 5.37432 11.3709C5.36694 11.3709 5.36694 11.3709 5.35955 11.3709C5.21183 11.3709 4.92378 11.2749 4.87207 11.0459C4.84253 10.8982 4.90901 10.7874 5.01241 10.6101C5.02718 10.5805 5.04934 10.551 5.0715 10.5141C5.21922 10.2703 5.27092 10.093 5.31524 9.95265C5.35955 9.8123 5.39648 9.7015 5.4925 9.60547C5.51466 9.58331 5.53682 9.56115 5.56636 9.54638C5.58113 9.5316 5.60329 9.52422 5.62545 9.50944C5.65499 9.49467 5.68454 9.48728 5.71408 9.47251C5.78056 9.45035 5.85442 9.44296 5.92089 9.44296C6.06122 9.44296 6.20156 9.47989 6.29758 9.56115C6.34189 9.59808 6.40837 9.66457 6.4453 9.87879C6.46007 9.98959 6.43053 10.189 6.35667 10.6249ZM8.47645 11.2158C8.37305 11.3931 8.32135 11.4891 8.23272 11.563C8.05545 11.7107 7.85603 11.7403 7.68615 11.7403C7.56797 11.7403 7.46457 11.7181 7.3981 11.7107C7.22083 11.6812 6.90323 11.6221 6.79244 11.3635C6.77028 11.3118 6.77028 11.2823 6.77028 11.238C6.77028 11.201 6.77028 11.1272 6.74812 10.972V10.9647C6.74074 10.8908 6.73335 10.8095 6.74812 10.7061V10.6913C6.80721 10.3811 6.82937 10.3368 6.83676 10.3072C6.8663 10.2481 6.94016 10.2186 7.00664 10.2555C7.06572 10.2851 7.08788 10.3589 7.06572 10.418C7.05834 10.4328 7.04357 10.4993 6.99186 10.743V10.7578C6.97709 10.8243 6.98448 10.876 6.99186 10.9425V10.9499C7.01402 11.1272 7.01402 11.201 7.01402 11.2454C7.01402 11.2527 7.01402 11.2601 7.01402 11.2675V11.2749C7.03618 11.3266 7.0805 11.3562 7.1322 11.3857C7.16913 11.4005 7.20606 11.3709 7.19867 11.334C7.14697 11.0607 7.14697 10.743 7.25037 10.5436C7.2873 10.4771 7.34639 10.3737 7.40548 10.2703C7.41287 10.2629 7.42025 10.2481 7.42025 10.2407C7.42764 10.2334 7.42764 10.226 7.43503 10.2186C7.46457 10.1743 7.48673 10.1373 7.50889 10.1004C7.50889 10.093 7.51627 10.093 7.51627 10.0856L7.52366 10.0782C7.53104 10.0708 7.53104 10.0635 7.53843 10.0561C7.53843 10.0561 7.53843 10.0487 7.54582 10.0487L7.5532 10.0413C7.5532 10.0339 7.56059 10.0339 7.56059 10.0265C7.58275 9.99697 7.6049 9.96743 7.61968 9.93788C7.64922 9.90095 7.61229 9.85662 7.57536 9.8714C7.47195 9.91572 7.40548 9.96743 7.39071 9.97481C7.33901 10.0191 7.25776 10.0117 7.21344 9.95265C7.16913 9.90095 7.17651 9.81969 7.2356 9.77537C7.30208 9.72366 7.64183 9.4799 8.04807 9.5907C8.34351 9.67195 8.49123 9.90095 8.55032 9.9822C8.59463 10.0487 8.74235 10.2555 8.73497 10.551C8.73497 10.7652 8.64633 10.9277 8.47645 11.2158Z"/>
<path fill="white" d="M5.83225 9.70154C5.81009 9.75325 5.78793 9.81234 5.75839 9.87882C5.6993 10.0339 5.62544 10.2112 5.58851 10.2777C5.52942 10.3885 5.4851 10.4624 5.44817 10.5141C5.40386 10.5806 5.37431 10.6323 5.34477 10.7061C5.30045 10.8317 5.29307 10.9721 5.32261 11.1272C5.24137 11.1198 5.1158 11.0681 5.10103 10.9942C5.09365 10.9425 5.12319 10.8908 5.21182 10.7357C5.22659 10.7061 5.24875 10.6692 5.27091 10.6397C5.42602 10.3737 5.49249 10.1743 5.53681 10.0266C5.58851 9.87144 5.61067 9.80495 5.69191 9.74586C5.74362 9.7237 5.78793 9.70892 5.83225 9.70154Z"/>
<path fill="white" d="M5.67715 15.286C5.58852 15.4633 5.48512 15.6258 5.41864 15.707C5.35956 15.5593 5.26354 15.2121 5.29308 14.9388C5.29308 14.9314 5.29308 14.924 5.29308 14.9166C5.30047 14.828 5.32263 14.7541 5.36694 14.6876C5.39649 14.6433 5.47035 14.6212 5.55159 14.6212C5.61068 14.6212 5.67715 14.6359 5.73624 14.6655C5.76579 14.6802 5.8101 14.7172 5.8101 14.8132C5.82488 14.9462 5.7584 15.1235 5.67715 15.286Z"/>
<path fill="white" d="M10.4042 13.3137C10.4116 13.3211 10.4116 13.3285 10.4116 13.3359C10.3894 13.3876 10.3525 13.4245 10.3156 13.4688C10.2713 13.5205 10.2195 13.5796 10.1752 13.6756C10.1088 13.8086 10.0866 13.9268 10.0792 14.237C10.0644 14.599 10.0792 14.7984 10.094 14.9462C10.1014 15.0865 10.1088 15.1752 10.0866 15.3155C10.0349 15.5962 9.91672 15.7809 9.76161 16.0173C9.56958 16.3128 9.37754 16.6156 9.05256 16.7116C9.02301 16.719 9.02301 16.719 8.93438 16.719C8.86052 16.719 8.73496 16.719 8.50599 16.7264C8.0776 16.7412 7.86341 16.7486 7.68614 16.7855C7.4941 16.8224 7.39809 16.8668 7.29468 16.9037C7.20605 16.9406 7.1248 16.9702 6.9697 17.0071C6.87368 17.0293 6.73335 17.0441 6.25325 17.0514C5.751 17.0514 5.44818 17.0514 5.05672 17.0071C4.51015 16.948 4.23687 16.9111 4.05222 16.8151C3.62383 16.5861 3.43918 16.1724 3.14374 15.4928C3.14374 15.4854 3.15112 15.478 3.15851 15.478C3.17328 15.4854 3.18805 15.4928 3.20283 15.5002C3.2176 15.5076 3.23237 15.5076 3.23976 15.5076C3.2693 15.515 3.29884 15.515 3.32839 15.5076C3.33577 15.5076 3.33577 15.5076 3.34316 15.5002C3.35055 15.5002 3.35793 15.5002 3.35793 15.5076C3.38009 15.5593 3.40963 15.6036 3.46134 15.6332C3.51304 15.6627 3.57213 15.6627 3.62383 15.6627C3.68292 15.6627 3.74201 15.6553 3.80109 15.6479C3.83064 15.6479 3.86018 15.6627 3.87495 15.6849C3.92666 15.8178 3.99313 15.9065 4.09653 15.9213C4.10392 15.9213 4.11131 15.9213 4.11869 15.9213C4.14085 15.9213 4.17778 15.9139 4.2221 15.8843C4.25903 15.8548 4.31812 15.8769 4.34766 15.9139C4.36982 15.9508 4.39936 15.973 4.42891 15.9951C4.53231 16.0985 4.78343 16.1502 4.99024 16.1502C5.10103 16.1502 5.20444 16.1355 5.26353 16.1059C5.35216 16.0616 5.35216 16.0025 5.34477 15.973C5.33739 15.9286 5.33 15.8769 5.32261 15.8326C5.32261 15.8252 5.33 15.8252 5.33 15.8326C5.34477 15.8622 5.35954 15.8917 5.39647 15.8991C5.40386 15.8991 5.40386 15.8991 5.41125 15.8991C5.47034 15.8991 5.55897 15.9213 5.57374 15.973C5.58113 16.0025 5.5959 16.0247 5.61067 16.0542C5.6476 16.1059 5.71407 16.1724 5.85441 16.1798H5.86179C6.02429 16.1798 6.14985 16.1281 6.2311 16.0247C6.23848 16.0173 6.23848 16.0099 6.24587 16.0025C6.27541 15.9582 6.36404 15.9582 6.40097 15.9951C6.44529 16.0321 6.49699 16.0542 6.55608 16.0542C6.56347 16.0542 6.57824 16.0542 6.58562 16.0542C6.65948 16.0468 6.71857 16.0099 6.77028 15.9434C6.79982 15.8991 6.82198 15.8474 6.83675 15.7883C6.84413 15.7735 6.86629 15.7661 6.88107 15.7809C6.91061 15.8104 6.96231 15.84 7.03617 15.84C7.05094 15.84 7.0731 15.84 7.09526 15.8326C7.23559 15.8031 7.30945 15.6849 7.339 15.5593C7.339 15.5519 7.34638 15.5519 7.34638 15.5593C7.38331 15.6036 7.44979 15.6553 7.56058 15.6553C7.56797 15.6553 7.57535 15.6553 7.57535 15.6553C7.63444 15.6553 7.68614 15.6258 7.72307 15.5815C7.76739 15.5224 7.78216 15.4337 7.78955 15.3525C7.78955 15.3303 7.80432 15.3081 7.83386 15.2934C7.95204 15.2417 8.09976 15.1309 8.14408 15.057C8.14408 15.057 8.14408 15.0496 8.15146 15.0496C8.15885 15.0274 8.181 15.0127 8.19578 15.0127C8.2918 14.9979 8.32873 14.9757 8.36566 14.961C8.3952 14.9462 8.41736 14.9388 8.49122 14.924C9.0304 14.8428 9.1338 14.8206 9.25198 14.7467C9.42924 14.6286 9.43663 14.466 9.44402 14.3109C9.4514 14.178 9.45879 14.0302 9.56219 13.8529C9.59912 13.7865 9.64344 13.7126 9.68775 13.6239C9.769 13.4762 9.87979 13.2694 9.96104 13.1586C9.97581 13.1364 10.0054 13.129 10.0275 13.1438C10.2122 13.2103 10.3747 13.2841 10.4042 13.3137Z"/>
<path fill="white" d="M5.16014 14.924C5.13798 15.1087 5.12321 15.3599 5.15276 15.6849C5.16014 15.7735 5.17491 15.8696 5.18969 15.9656C5.16753 15.9804 5.08628 16.0025 4.95333 15.9951C4.7613 15.9877 4.56926 15.9434 4.51017 15.8769L4.50279 15.8696C4.45847 15.8326 4.42154 15.8031 4.42154 15.7366C4.42154 15.7144 4.42893 15.6923 4.45108 15.6553C4.46586 15.6406 4.48063 15.6184 4.4954 15.5889C4.52494 15.5445 4.56926 15.4928 4.61358 15.419C4.73914 15.2121 4.78345 15.1456 4.84254 15.0644C4.84993 15.057 4.84993 15.0496 4.85731 15.0422C4.89425 14.9979 4.93117 14.9388 4.99765 14.8428C5.04197 14.7763 5.0789 14.7172 5.11583 14.6729C5.16753 14.599 5.20446 14.5621 5.22662 14.5399C5.22662 14.5695 5.21923 14.6138 5.21184 14.6581C5.1823 14.7467 5.16753 14.828 5.16014 14.924Z"/>
<path fill="white" d="M5.06412 12.0136C5.06412 12.021 5.06412 12.021 5.06412 12.0136C5.03458 12.0505 5.00504 12.0949 4.96811 12.1687C4.87209 12.3756 4.87209 12.4938 4.87209 12.5898C4.87209 12.6415 4.87209 12.6784 4.85732 12.7228C4.84993 12.7523 4.83516 12.7892 4.813 12.8262C4.7613 12.9517 4.68744 13.1143 4.71698 13.3359C4.67267 13.3137 4.60619 13.262 4.59142 13.2398C4.59142 13.2251 4.58403 13.2177 4.58403 13.2029C4.56926 13.1364 4.56187 13.0921 4.5988 12.9887C4.71698 12.7228 4.73175 12.6563 4.73914 12.5824C4.73914 12.5676 4.74653 12.5529 4.74653 12.5307C4.76868 12.4273 4.78346 12.3386 4.79084 12.2648C4.80561 12.154 4.82039 12.0801 4.85732 12.0284C4.87209 12.0062 4.90902 11.9988 4.96072 11.9988C4.98288 11.9988 5.00504 11.9988 5.03458 12.0062H5.04197C5.06412 12.0136 5.06412 12.0136 5.06412 12.0136Z"/>
<path fill="white" d="M4.91639 14.6507C4.90901 14.5842 4.90162 14.5251 4.87207 14.4586C4.87207 14.4586 4.86469 14.4439 4.86469 14.4365C4.8573 14.4291 4.8573 14.4217 4.84992 14.4143L4.84253 14.4069C4.83514 14.3995 4.83514 14.3995 4.82776 14.3995L4.82037 14.3922C4.81299 14.3922 4.81299 14.3848 4.8056 14.3848H4.79821C4.76128 14.37 4.72435 14.3552 4.68004 14.3478C4.67265 14.3478 4.66527 14.3478 4.66527 14.3478C4.65788 14.3478 4.65788 14.3478 4.65049 14.3478H4.64311C4.63572 14.3478 4.62834 14.3552 4.61356 14.3552C4.60618 14.3552 4.60618 14.3626 4.59879 14.3626L4.59141 14.37C4.58402 14.3774 4.58402 14.3774 4.57663 14.3848L4.56925 14.3922V14.3995C4.55448 14.4217 4.5397 14.4439 4.52493 14.466C4.488 14.5177 4.45107 14.5768 4.41414 14.6285C4.37721 14.6802 4.34767 14.7246 4.31074 14.7763C4.28858 14.8058 4.27381 14.828 4.25165 14.8575C4.25165 14.8649 4.24426 14.8649 4.24426 14.8723C4.26642 14.8797 4.28858 14.8797 4.31074 14.8871C4.36244 14.8945 4.41414 14.9019 4.45846 14.9092C4.56186 14.924 4.67265 14.9314 4.77606 14.924C4.78344 14.924 4.78344 14.924 4.79083 14.924C4.81299 14.8871 4.84992 14.8428 4.88685 14.7837C4.909 14.7541 4.93116 14.7246 4.94594 14.695C4.92378 14.6876 4.91639 14.6655 4.91639 14.6507Z"/>
<path fill="white" d="M4.53969 15.0866C4.5323 15.1678 4.44367 15.3747 4.30334 15.5741C4.18516 15.7366 4.1113 15.7809 4.09653 15.7809C4.03744 15.7735 3.98574 15.6332 3.94142 15.4928C3.92665 15.4338 3.90449 15.382 3.89711 15.3303C3.86756 15.2269 3.86018 15.0792 3.86756 14.9905C3.98574 15.057 4.19255 15.0718 4.48799 15.0718C4.50276 15.0792 4.52492 15.0792 4.53969 15.0866Z"/>
<path fill="white" d="M4.33288 14.4217C4.28118 14.503 4.22948 14.5768 4.17778 14.6507C4.14823 14.6877 4.12607 14.7246 4.09653 14.7615C4.08176 14.7837 4.0596 14.8058 4.04483 14.828C4.00051 14.8206 3.96358 14.8058 3.91927 14.7985C3.88234 14.7911 3.85279 14.7763 3.81586 14.7615C3.80848 14.7615 3.80109 14.7541 3.7937 14.7541C3.78632 14.7467 3.77893 14.732 3.77155 14.7246C3.78632 14.7024 3.7937 14.6729 3.80848 14.6507C3.83063 14.6064 3.85279 14.5621 3.88234 14.5178C3.92665 14.4439 3.97835 14.3626 4.0596 14.3109C4.06699 14.3109 4.06699 14.3035 4.07437 14.3035C4.10392 14.2888 4.13346 14.274 4.17039 14.2666C4.17778 14.2666 4.19993 14.2666 4.21471 14.2666H4.22209C4.22209 14.2666 4.22209 14.2666 4.22948 14.2666C4.23686 14.2666 4.24425 14.274 4.25902 14.274C4.25902 14.274 4.26641 14.274 4.26641 14.2814C4.27379 14.2888 4.28118 14.2888 4.28857 14.2961C4.27379 14.2888 4.30334 14.3183 4.30334 14.3109C4.31811 14.3552 4.3255 14.3774 4.33288 14.4217Z"/>
<path fill="white" d="M3.93404 14.2075C3.83803 14.2814 3.77155 14.3848 3.71985 14.4956C3.69031 14.5547 3.66076 14.6138 3.63122 14.6729C3.63122 14.6803 3.62383 14.6876 3.62383 14.6876C3.59429 14.6803 3.56474 14.6729 3.54258 14.6655C3.51304 14.6581 3.4835 14.6433 3.45395 14.6359C3.43918 14.6285 3.43179 14.6212 3.41702 14.6138C3.44657 14.5621 3.47611 14.5104 3.51304 14.4586C3.55736 14.3922 3.60906 14.3183 3.66076 14.2592C3.68292 14.237 3.70508 14.2075 3.72724 14.1927C3.75678 14.1779 3.78632 14.1779 3.82325 14.1853C3.86018 14.1853 3.89711 14.1853 3.92666 14.2001C3.91927 14.2001 3.92666 14.2075 3.93404 14.2075Z"/>
<path fill="white" d="M3.78632 15.4633C3.77893 15.4706 3.77893 15.4706 3.77155 15.478H3.76416C3.742 15.478 3.71984 15.4854 3.69769 15.4854C3.65337 15.4854 3.60905 15.4928 3.56474 15.4854C3.54258 15.4854 3.52042 15.478 3.50565 15.4633C3.49088 15.4411 3.48349 15.3968 3.4761 15.3672C3.44656 15.2047 3.44656 15.0422 3.46133 14.8797C3.54258 14.9092 3.63121 14.9314 3.71984 14.9462C3.69769 15.0939 3.73462 15.3081 3.74939 15.3672C3.77155 15.3968 3.77893 15.4337 3.78632 15.4633Z"/>
<path fill="white" d="M3.52043 14.1558C3.44657 14.2444 3.3801 14.3404 3.32101 14.4439C3.29885 14.4808 3.26931 14.5251 3.24715 14.5694C3.21761 14.562 3.18806 14.5473 3.1659 14.5325C3.14375 14.5177 3.12159 14.5029 3.10682 14.4882C3.09943 14.4808 3.08466 14.4734 3.07727 14.466C3.07727 14.466 3.06989 14.466 3.06989 14.4586C3.07727 14.4365 3.09204 14.4217 3.09204 14.4069C3.10682 14.37 3.12159 14.3404 3.14375 14.3109C3.18068 14.2518 3.21761 14.1927 3.26192 14.1336C3.27669 14.1114 3.29147 14.0893 3.32101 14.0819C3.34317 14.0745 3.37271 14.0819 3.39487 14.0819C3.43919 14.0893 3.4835 14.1188 3.52043 14.1558Z"/>
<path fill="white" d="M2.95171 14.5473C2.9591 14.5399 2.95171 14.5399 2.95171 14.5473C2.98125 14.5768 3.00341 14.599 3.03296 14.6212C3.04773 14.6285 3.05511 14.6433 3.06989 14.6507C3.06989 14.6507 3.06989 14.6507 3.06989 14.6581C3.04034 14.7837 3.01818 14.9166 3.01818 15.0496C3.01818 15.057 3.0108 15.057 3.0108 15.0496C2.97387 14.8945 2.92955 14.6433 2.95171 14.5473Z"/>
<path fill="white" d="M3.31362 14.8206C3.29884 14.9314 3.29146 15.0422 3.29884 15.153C3.29884 15.2121 3.30623 15.2712 3.31362 15.3377C3.29884 15.3377 3.28407 15.3377 3.2693 15.3377H3.26191H3.25453C3.23975 15.3303 3.23975 15.3303 3.22498 15.3229C3.21021 15.3156 3.19544 15.2934 3.18067 15.2712C3.15112 15.2195 3.14374 15.1604 3.14374 15.1013C3.13635 14.9905 3.15112 14.8723 3.17328 14.7615C3.18805 14.7689 3.21021 14.7763 3.23237 14.7837C3.26191 14.7985 3.28407 14.8132 3.31362 14.8206Z"/>
</g>
</g>
<defs>
<radialGradient gradientTransform="translate(7.4353 13.6384) rotate(90) scale(7.70046 7.69959)" gradientUnits="userSpaceOnUse" xlink:type="simple" r="1" xlink:actuate="onLoad" cx="0" cy="0" id="paint0_radial_15236_119540" xlink:show="other">
<stop stop-color="#6A1FE5" offset="0.1667"/>
<stop stop-color="#0054F9" offset="1"/>
</radialGradient>
<clipPath id="clip0_15236_119540">
<rect fill="white" width="24" height="24" transform="translate(0.580811 0.867188)"/>
</clipPath>
<clipPath id="clip1_15236_119540">
<rect fill="white" width="13.7085" height="13.71" transform="translate(0.580811 6.0672)"/>
</clipPath>
</defs>
<metadata symbolName="APEUSD" fileName="apeusd.svg" id="grimlock-metadata-id" lastUpdate="2025-02-10T09:58:22.589199446" symbolId="1408"/></svg>