<svg width="119" height="34" viewBox="0 0 119 34" fill="none" xmlns="http://www.w3.org/2000/svg">
<rect x="0.425" y="0.425" width="118.15" height="33.15" rx="5.575" stroke="#667085" stroke-width="0.85"/>
<path d="M28.2309 16.3273C28.2475 14.8045 29.0192 13.4024 30.2739 12.6037C29.48 11.4314 28.1976 10.7131 26.8152 10.6672C25.3606 10.512 23.9505 11.5693 23.2121 11.5693C22.457 11.5693 21.3134 10.6844 20.0864 10.7131C18.4709 10.7648 16.9996 11.6957 16.2113 13.1611C14.5347 16.1606 15.7838 20.5738 17.3883 22.9987C18.1933 24.1882 19.1315 25.5156 20.3585 25.4639C21.5576 25.4122 22.0073 24.6709 23.4564 24.6709C24.8943 24.6709 25.3162 25.4639 26.5653 25.4352C27.8534 25.4122 28.6639 24.2399 29.4412 23.0447C30.0185 22.2 30.4627 21.2634 30.7569 20.275C29.2246 19.6027 28.2309 18.0512 28.2309 16.3273Z" fill="#667085"/>
<path d="M25.8601 9.08172C26.5652 8.20829 26.9094 7.08197 26.8261 5.94995C25.7546 6.06488 24.7609 6.59929 24.0503 7.43828C23.3452 8.26575 22.9899 9.3518 23.062 10.4493C24.1502 10.4608 25.1828 9.95516 25.8601 9.08172Z" fill="#667085"/>
<path d="M47.6348 22.5795H43.693L42.7437 25.4699H41.0781L44.8145 14.7703H46.5466L50.2829 25.4756H48.5841L47.6348 22.5795ZM44.1038 21.2464H47.2295L45.6861 16.5516H45.6417L44.1038 21.2464Z" fill="#667085"/>
<path d="M58.3435 21.5679C58.3435 23.9928 57.0888 25.5501 55.1957 25.5501C54.2185 25.6018 53.297 25.0731 52.8251 24.1825H52.7917V28.0497H51.2428V17.6661H52.7418V18.9648H52.7695C53.2636 18.0799 54.1852 17.5512 55.1679 17.5857C57.0833 17.5857 58.3435 19.1544 58.3435 21.5679ZM56.7501 21.5679C56.7501 19.9877 55.9618 18.9476 54.7571 18.9476C53.5745 18.9476 52.7806 20.0106 52.7806 21.5679C52.7806 23.1424 53.5745 24.194 54.7571 24.194C55.9618 24.194 56.7501 23.1654 56.7501 21.5679Z" fill="#667085"/>
<path d="M66.6436 21.5679C66.6436 23.9928 65.3889 25.5501 63.4957 25.5501C62.5186 25.6018 61.597 25.0731 61.1251 24.1825H61.0918V28.0497H59.5428V17.6661H61.0418V18.9648H61.0696C61.5637 18.0799 62.4853 17.5512 63.4679 17.5857C65.3777 17.5857 66.6436 19.1544 66.6436 21.5679ZM65.0502 21.5679C65.0502 19.9877 64.2618 18.9476 63.0571 18.9476C61.8746 18.9476 61.0807 20.0106 61.0807 21.5679C61.0807 23.1424 61.8746 24.194 63.0571 24.194C64.2618 24.194 65.0502 23.1654 65.0502 21.5679Z" fill="#667085"/>
<path d="M72.1237 22.4874C72.2403 23.5504 73.2341 24.2457 74.5942 24.2457C75.8989 24.2457 76.8371 23.5504 76.8371 22.5908C76.8371 21.7576 76.2709 21.2634 74.9329 20.9244L73.5949 20.5911C71.6962 20.1141 70.8135 19.1947 70.8135 17.7064C70.8135 15.8619 72.368 14.5919 74.5776 14.5919C76.765 14.5919 78.264 15.8619 78.3139 17.7064H76.7539C76.6595 16.6376 75.8045 15.994 74.5609 15.994C73.3173 15.994 72.4624 16.6491 72.4624 17.5972C72.4624 18.3558 73.0064 18.7982 74.3389 19.1373L75.477 19.4246C77.5977 19.9417 78.4805 20.8267 78.4805 22.3897C78.4805 24.3894 76.9426 25.6478 74.4888 25.6478C72.1959 25.6478 70.6469 24.4239 70.547 22.4874H72.1237Z" fill="#667085"/>
<path d="M81.8173 15.8215V17.6661H83.2494V18.936H81.8173V23.2401C81.8173 23.9067 82.1059 24.2226 82.7335 24.2226C82.9055 24.2169 83.072 24.2055 83.244 24.1882V25.4466C82.961 25.5041 82.6718 25.5271 82.3835 25.5213C80.8568 25.5213 80.2628 24.9295 80.2628 23.4125V18.936H79.1691V17.6661H80.2628V15.8215H81.8173Z" fill="#667085"/>
<path d="M84.0817 21.5679C84.0817 19.1142 85.4812 17.5685 87.6572 17.5685C89.8447 17.5685 91.2326 19.1085 91.2326 21.5679C91.2326 24.0273 89.8501 25.5674 87.6572 25.5674C85.4642 25.5674 84.0817 24.0331 84.0817 21.5679ZM89.6558 21.5679C89.6558 19.8842 88.9117 18.8901 87.6572 18.8901C86.4026 18.8901 85.6585 19.89 85.6585 21.5679C85.6585 23.2573 86.4026 24.2457 87.6572 24.2457C88.9117 24.2457 89.6558 23.2631 89.6558 21.5679Z" fill="#667085"/>
<path d="M92.5098 17.666H93.9864V18.9934H94.0195C94.2246 18.1372 94.9803 17.5511 95.8347 17.5856C96.0128 17.5856 96.1901 17.6028 96.3682 17.643V19.1428C96.14 19.0738 95.9071 19.0394 95.6743 19.0451C95.2186 19.0279 94.7798 19.2118 94.4691 19.5565C94.1583 19.9013 94.0087 20.3725 94.0643 20.838V25.4695H92.5152L92.5098 17.666Z" fill="#667085"/>
<path d="M103.497 23.1821C103.285 24.6014 101.953 25.5725 100.249 25.5725C98.0559 25.5725 96.6957 24.0498 96.6957 21.6133C96.6957 19.1654 98.0667 17.5793 100.188 17.5793C102.275 17.5793 103.585 19.062 103.585 21.4295V21.9811H98.261V22.0788C98.2108 22.6592 98.4052 23.2338 98.7938 23.659C99.1824 24.0843 99.7268 24.3141 100.287 24.2911C101.037 24.3658 101.748 23.9176 102.031 23.1936L103.497 23.1821ZM98.2664 20.8491H102.036C102.064 20.3262 101.881 19.8147 101.531 19.4412C101.181 19.0677 100.693 18.8551 100.188 18.8666C99.6767 18.8609 99.1886 19.0735 98.8277 19.4412C98.4668 19.8205 98.2664 20.3262 98.2664 20.8491Z" fill="#667085"/>
<path d="M43.9089 6.71439C44.564 6.66268 45.2081 6.92126 45.6633 7.41541C46.1185 7.90959 46.3295 8.58766 46.2462 9.26572C46.2462 10.9092 45.3857 11.8516 43.9089 11.8516H42.1157V6.71439H43.9089ZM42.8874 11.1275H43.8257C44.292 11.1563 44.7473 10.9666 45.0693 10.6046C45.3913 10.2426 45.5301 9.75991 45.4634 9.27722C45.5245 8.80027 45.3802 8.31184 45.0637 7.95557C44.7473 7.59929 44.292 7.40967 43.8257 7.4384H42.8874V11.1275Z" fill="#667085"/>
<path d="M47.1175 9.91465C47.0509 9.21935 47.3729 8.54703 47.9503 8.17927C48.5277 7.8115 49.2494 7.8115 49.8212 8.17927C50.3931 8.54703 50.7151 9.21935 50.654 9.91465C50.7206 10.61 50.3986 11.288 49.8212 11.6558C49.2439 12.0235 48.5221 12.0235 47.9447 11.6558C47.3674 11.288 47.0509 10.61 47.1175 9.91465ZM49.8934 9.91465C49.8934 9.07569 49.527 8.58151 48.8885 8.58151C48.2445 8.58151 47.8837 9.07569 47.8837 9.91465C47.8837 10.7651 48.2445 11.2535 48.8885 11.2535C49.527 11.2478 49.8934 10.7594 49.8934 9.91465Z" fill="#667085"/>
<path d="M55.3561 11.8568H54.59L53.8128 8.99513H53.7572L52.9855 11.8568H52.2249L51.1868 7.97229H51.9418L52.6136 10.9374H52.6691L53.4352 7.97229H54.1459L54.9176 10.9374H54.9786L55.6448 7.97229H56.3832L55.3561 11.8568Z" fill="#667085"/>
<path d="M57.2556 7.97189H57.9662V8.58674H58.0218C58.2161 8.13279 58.6658 7.85696 59.1432 7.89719C59.5152 7.86845 59.876 8.01786 60.1259 8.29368C60.3757 8.56951 60.4923 8.96025 60.4368 9.33951V11.8506H59.6984V9.53489C59.6984 8.90854 59.4375 8.59824 58.8878 8.59824C58.638 8.58674 58.3937 8.69018 58.2216 8.87981C58.0495 9.06943 57.9662 9.32802 57.994 9.5866V11.8564H57.2556V7.97189Z" fill="#667085"/>
<path d="M61.6188 6.46118H62.3572V11.857H61.6188V6.46118Z" fill="#667085"/>
<path d="M63.3898 9.91465C63.3231 9.21935 63.6451 8.54703 64.2225 8.17927C64.7999 7.8115 65.5216 7.8115 66.0935 8.17927C66.6653 8.54703 66.9873 9.21935 66.9262 9.91465C66.9928 10.61 66.6708 11.288 66.0935 11.6558C65.5161 12.0235 64.7943 12.0235 64.217 11.6558C63.6396 11.288 63.3231 10.61 63.3898 9.91465ZM66.1656 9.91465C66.1656 9.07569 65.7992 8.58151 65.1608 8.58151C64.5168 8.58151 64.1559 9.07569 64.1559 9.91465C64.1559 10.7651 64.5168 11.2535 65.1608 11.2535C65.7992 11.2478 66.1656 10.7594 66.1656 9.91465Z" fill="#667085"/>
<path d="M67.7037 10.7595C67.7037 10.0584 68.2089 9.6562 69.0973 9.59874L70.1133 9.53553V9.20224C70.1133 8.79425 69.8523 8.55865 69.3471 8.55865C68.9363 8.55865 68.6476 8.7138 68.5643 8.98963H67.8481C67.9258 8.32305 68.5309 7.89783 69.3804 7.89783C70.3187 7.89783 70.8517 8.38052 70.8517 9.20224V11.8513H70.141V11.3111H70.08C69.8357 11.7076 69.4082 11.9432 68.953 11.9202C68.6364 11.9547 68.3144 11.8455 68.0813 11.6272C67.8481 11.4088 67.7037 11.087 67.7037 10.7595ZM70.1133 10.4262V10.0987L69.1972 10.1619C68.6809 10.1964 68.4477 10.3802 68.4477 10.7193C68.4477 11.0698 68.7419 11.2709 69.1417 11.2709C69.3804 11.2939 69.6192 11.2192 69.8024 11.0583C69.9856 10.9031 70.0966 10.6733 70.1133 10.4262Z" fill="#667085"/>
<path d="M71.8234 9.91471C71.8234 8.69075 72.4341 7.90925 73.3779 7.90925C73.8553 7.88627 74.305 8.1506 74.5271 8.58732H74.5826V6.46118H75.321V11.857H74.6104V11.2421H74.5493C74.3106 11.6788 73.8553 11.9374 73.3723 11.9202C72.4285 11.9202 71.8234 11.1444 71.8234 9.91471ZM72.5895 9.91471C72.5895 10.7364 72.967 11.2306 73.5888 11.2306C74.2106 11.2306 74.5992 10.7307 74.5992 9.91471C74.5992 9.10448 74.2106 8.59881 73.5888 8.59881C72.967 8.59881 72.5895 9.09874 72.5895 9.91471Z" fill="#667085"/>
<path d="M78.3912 9.91465C78.3246 9.21935 78.6466 8.54703 79.224 8.17927C79.7958 7.8115 80.5231 7.8115 81.0949 8.17927C81.6668 8.54703 81.9888 9.21935 81.9277 9.91465C81.9943 10.61 81.6723 11.288 81.0949 11.6558C80.5231 12.0235 79.7958 12.0235 79.2184 11.6558C78.641 11.288 78.3246 10.61 78.3912 9.91465ZM81.1615 9.91465C81.1615 9.07569 80.7951 8.58151 80.1567 8.58151C79.5127 8.58151 79.1518 9.07569 79.1518 9.91465C79.1518 10.7651 79.5127 11.2535 80.1567 11.2535C80.8007 11.2478 81.1615 10.7594 81.1615 9.91465Z" fill="#667085"/>
<path d="M82.9154 7.97189H83.6256V8.58674H83.6811C83.8754 8.13279 84.3249 7.85696 84.803 7.89719C85.1747 7.86845 85.5355 8.01786 85.7854 8.29368C86.0352 8.57525 86.1516 8.96025 86.0961 9.33951V11.8506H85.3582V9.53489C85.3582 8.90854 85.0968 8.59824 84.547 8.59824C84.2972 8.58674 84.0535 8.69018 83.8808 8.87981C83.7088 9.06943 83.6256 9.32802 83.6533 9.5866V11.8564H82.9154V7.97189Z" fill="#667085"/>
<path d="M90.283 7.0072V7.98979H91.0942V8.63338H90.283V10.6273C90.283 11.0353 90.4441 11.2135 90.8166 11.2135C90.9106 11.2135 91.0047 11.2077 91.0996 11.1962V11.8341C90.9662 11.8571 90.8328 11.8743 90.694 11.8743C89.8728 11.8743 89.5451 11.5755 89.5451 10.8285V8.63912H88.9506V7.98979H89.5451V7.0072H90.283Z" fill="#667085"/>
<path d="M92.1093 6.46118H92.8418V8.59881H92.9035C93.1032 8.1391 93.5635 7.86328 94.047 7.90351C94.4132 7.88052 94.7741 8.02992 95.0239 8.31149C95.2738 8.59306 95.3902 8.97232 95.3401 9.35158V11.857H94.6022V9.53546C94.6022 8.91486 94.3246 8.59881 93.8025 8.59881C93.5473 8.57582 93.2921 8.67351 93.1086 8.86314C92.9251 9.05277 92.8364 9.3171 92.8587 9.58143V11.8455H92.12L92.1093 6.46118Z" fill="#667085"/>
<path d="M99.6481 10.8062C99.443 11.536 98.7544 12.0129 98.0219 11.9267C97.5223 11.9382 97.0388 11.7256 96.7057 11.3406C96.3726 10.9556 96.2176 10.4384 96.2893 9.92126C96.223 9.40984 96.3726 8.88692 96.7057 8.49617C97.0388 8.10542 97.5169 7.88706 98.0165 7.89281C99.0598 7.89281 99.6874 8.62834 99.6874 9.84656V10.1166H97.0388V10.1569C97.0172 10.4442 97.1113 10.7315 97.3002 10.9441C97.4891 11.1567 97.7551 11.2774 98.0381 11.2716C98.399 11.3176 98.7544 11.128 98.9326 10.8004L99.6481 10.8062ZM97.045 9.55924H98.938C98.9542 9.29491 98.8655 9.03633 98.6935 8.8467C98.5162 8.65707 98.2718 8.54789 98.0165 8.55364C97.7551 8.54789 97.5107 8.65707 97.3279 8.8467C97.1444 9.03058 97.045 9.28916 97.045 9.55924Z" fill="#667085"/>
</svg>
