<svg width="24" height="24" viewBox="0 0 24 24" fill="none" xmlns="http://www.w3.org/2000/svg">
<path d="M16.5003 4H7.49867C6.57066 4.00028 5.68077 4.36913 5.02467 5.02543C4.36857 5.68172 4 6.57173 4 7.49973V16.5003C4 17.4285 4.36872 18.3186 5.02505 18.975C5.68138 19.6313 6.57155 20 7.49973 20H16.5003C17.4285 20 18.3186 19.6313 18.975 18.975C19.6313 18.3186 20 17.4285 20 16.5003V7.49867C19.9997 6.57066 19.6309 5.68077 18.9746 5.02467C18.3183 4.36857 17.4283 4 16.5003 4Z" fill="#F1F1F1"/>
<path fill-rule="evenodd" clip-rule="evenodd" d="M13.5424 8.59999C13.9031 8.16666 14.0835 7.69999 14.0835 7.2C14.0835 7.13333 14.0802 7.06667 14.0728 7C13.794 7.02137 13.5222 7.09929 13.2734 7.22917C12.9906 7.37083 12.7569 7.54666 12.5741 7.75999C12.2068 8.17999 12.0002 8.69332 12.0002 9.17332C12.0002 9.23998 12.0043 9.30332 12.0116 9.36332C12.5815 9.40998 13.1078 9.11415 13.5424 8.59999ZM15.4609 15.7599C15.7644 15.3213 16.0023 14.8394 16.1668 14.3299C15.9132 14.222 15.6812 14.0678 15.4822 13.875C15.0313 13.4533 14.8025 12.9225 14.796 12.285C14.7886 11.465 15.1567 10.8266 15.9012 10.3708C15.4855 9.77331 14.8599 9.44165 14.0277 9.37415C13.7211 9.34748 13.3456 9.41415 12.9012 9.57581C12.4314 9.75081 12.1551 9.83748 12.0731 9.83748C11.9633 9.83748 11.714 9.76248 11.3254 9.61581C10.9359 9.46832 10.6219 9.39415 10.3825 9.39415C9.95365 9.39894 9.53363 9.51882 9.16499 9.74165C8.79141 9.96459 8.48077 10.2818 8.26312 10.6625C7.97616 11.1466 7.8335 11.725 7.8335 12.3958C7.8335 12.98 7.94008 13.585 8.15161 14.2083C8.35002 14.7866 8.60255 15.2933 8.91001 15.7299C9.19615 16.1391 9.43474 16.4283 9.62659 16.5966C9.92585 16.8783 10.2251 17.0124 10.5268 16.9991C10.7244 16.9924 10.9835 16.9241 11.3057 16.7924C11.5907 16.6693 11.8963 16.6028 12.206 16.5966C12.4724 16.5966 12.7635 16.6616 13.0816 16.7924C13.3973 16.9241 13.6695 16.9891 13.8949 16.9891C14.2089 16.9808 14.5016 16.8508 14.7755 16.5974C14.9518 16.4416 15.1805 16.1633 15.4609 15.7599Z" fill="black"/>
</svg>
