<?xml version="1.0" encoding="UTF-8" standalone="no"?><svg xmlns="http://www.w3.org/2000/svg" xmlns:xlink="http://www.w3.org/1999/xlink" contentScriptType="text/ecmascript" fill="none" width="25" zoomAndPan="magnify" contentStyleType="text/css" viewBox="0 0 25 25" height="25" preserveAspectRatio="xMidYMid meet" version="1.0">
<g clip-path="url(#clip0_15237_119807)">
<circle fill="#BD3D44" r="6.85714" cx="17.7237" cy="12.3745"/>
<path fill="white" clip-rule="evenodd" d="M14.0292 6.59442C13.5747 6.88522 13.1568 7.22816 12.7838 7.61479H22.6559C22.283 7.22816 21.865 6.88522 21.4105 6.59442H14.0292ZM11.3574 9.81253C11.5125 9.42772 11.7015 9.0602 11.9207 8.7137H23.519C23.7382 9.0602 23.9272 9.42772 24.0823 9.81253H11.3574ZM11.0192 10.9114C10.9525 11.2182 10.9063 11.5327 10.8822 11.8533H24.5575C24.5334 11.5327 24.4872 11.2182 24.4205 10.9114H11.0192ZM11.0317 13.8942C10.9578 13.5675 10.9072 13.232 10.8817 12.8894H24.558C24.5325 13.232 24.482 13.5675 24.4081 13.8942H11.0317ZM11.3804 14.9931C11.5397 15.3783 11.7331 15.7459 11.9568 16.092H23.4829C23.7066 15.7459 23.9 15.3783 24.0593 14.9931H11.3804ZM13.9946 18.1326C13.5756 17.861 13.1882 17.5449 12.8389 17.1909H22.6008C22.2515 17.5449 21.8641 17.861 21.4451 18.1326H13.9946ZM17.6596 19.2315C17.6796 19.2317 17.6997 19.2318 17.7199 19.2318C17.74 19.2318 17.7601 19.2317 17.7801 19.2315H17.6596Z" fill-rule="evenodd"/>
<path fill="#00418E" clip-rule="evenodd" d="M10.886 12.8957C10.8731 12.7237 10.8665 12.5499 10.8665 12.3745C10.8665 8.58744 13.9366 5.5174 17.7237 5.5174C18.0064 5.5174 18.2851 5.5345 18.5588 5.56774V12.8957H10.886Z" fill-rule="evenodd"/>
<path fill="white" clip-rule="evenodd" d="M14.3775 6.39852C14.3379 6.42083 14.2986 6.44353 14.2596 6.4666L14.4445 6.59883L14.3775 6.39852ZM13.6609 6.86401C13.5223 6.96682 13.3878 7.07473 13.2575 7.18747L13.3022 7.15598L13.5542 7.33544L13.4583 7.04348L13.7131 6.86401H13.6609ZM12.59 7.84983C12.5591 7.88502 12.5285 7.92053 12.4983 7.95636L12.6639 8.07473L12.59 7.84983ZM11.3787 9.8158C11.3592 9.86443 11.3401 9.91334 11.3217 9.96251L11.3681 9.99526L11.2695 10.2899L11.5243 10.1078L11.7791 10.2899L11.6804 9.99794L11.9352 9.81848H11.6229L11.5243 9.52651L11.4284 9.8158H11.3787ZM15.9649 5.83276L16.0636 6.12473H16.3759L16.1238 6.30419L16.2197 6.59883L15.9649 6.41669L15.7129 6.59616L15.8088 6.30419L15.5568 6.12473H15.8691L15.9649 5.83276ZM17.7428 5.83276L17.8387 6.12473H18.1538L17.899 6.30419L17.9976 6.59883L17.7428 6.41669L17.4881 6.59616L17.5867 6.30419L17.3319 6.12473H17.647L17.7428 5.83276ZM15.0774 6.57205L15.176 6.86401H15.4883L15.2335 7.04348L15.3321 7.33544L15.0774 7.15598L14.8253 7.33544L14.9212 7.04348L14.6664 6.86401H14.9842L15.0774 6.57205ZM16.8553 6.57205L16.9511 6.86401H17.2662L17.0114 7.04348L17.1073 7.33544L16.8553 7.15598L16.6005 7.33544L16.6964 7.04348L16.4443 6.86401H16.7566L16.8553 6.57205ZM14.1898 7.30866L14.2857 7.6033H14.6007L14.3459 7.78276L14.4445 8.07473L14.1898 7.89258L13.935 8.07473L14.0336 7.78008L13.7789 7.60062H14.0912L14.1898 7.30866ZM15.9649 7.30866L16.0636 7.6033H16.3759L16.1238 7.78276L16.2197 8.07473L15.9649 7.89258L15.7129 8.07473L15.8088 7.78008L15.5568 7.60062H15.8691L15.9649 7.30866ZM17.7428 7.30866L17.8387 7.6033H18.1538L17.899 7.78276L17.9976 8.07473L17.7428 7.89258L17.4881 8.07473L17.5867 7.78008L17.3319 7.60062H17.647L17.7428 7.30866ZM13.3022 8.04794L13.3981 8.33991H13.7131L13.4583 8.51937L13.5542 8.81401L13.3022 8.63187L13.0474 8.81133L13.1433 8.51937L12.8913 8.33991H13.2036L13.3022 8.04794ZM15.0774 8.04794L15.176 8.33991H15.4883L15.2362 8.51937L15.3321 8.81401L15.0774 8.63187L14.8253 8.81133L14.9212 8.51937L14.6664 8.33991H14.9842L15.0774 8.04794ZM16.8553 8.04794L16.9511 8.33991H17.2662L17.0114 8.51937L17.1073 8.81401L16.8553 8.63187L16.6005 8.81133L16.6964 8.51937L16.4443 8.33991H16.7566L16.8553 8.04794ZM12.4119 8.78723L12.5105 9.07919H12.82L12.568 9.25865L12.6639 9.5533L12.4091 9.37115L12.1571 9.55062L12.253 9.25865L11.9982 9.07919H12.3133L12.4119 8.78723ZM14.1898 8.78723L14.2857 9.07919H14.6007L14.3459 9.25865L14.4445 9.5533L14.1898 9.37115L13.935 9.55062L14.0336 9.25865L13.7789 9.07919H14.0912L14.1898 8.78723ZM15.9649 8.78723L16.0636 9.07919H16.3759L16.1238 9.25865L16.2197 9.5533L15.9649 9.37115L15.7129 9.55062L15.8088 9.25865L15.5568 9.07919H15.8691L15.9649 8.78723ZM17.7428 8.78723L17.8387 9.07919H18.1538L17.899 9.25865L17.9976 9.5533L17.7428 9.37115L17.4881 9.55062L17.5867 9.25865L17.3319 9.07919H17.647L17.7428 8.78723ZM13.3022 9.52651L13.3981 9.81848H13.7131L13.4583 9.99794L13.5542 10.2899L13.3022 10.1078L13.0474 10.2899L13.1433 9.99526L12.8913 9.8158H13.2036L13.3022 9.52651ZM15.0774 9.52651L15.176 9.81848H15.4883L15.2362 9.99794L15.3321 10.2899L15.0774 10.1078L14.8253 10.2899L14.9212 9.99526L14.6664 9.8158H14.9842L15.0774 9.52651ZM16.8553 9.52651L16.9511 9.81848H17.2662L17.0114 9.99794L17.1073 10.2899L16.8553 10.1078L16.6005 10.2899L16.6964 9.99526L16.4443 9.8158H16.7566L16.8553 9.52651ZM12.4119 10.2631L12.5105 10.5578H12.82L12.568 10.7372L12.6639 11.0265L12.4091 10.847L12.1571 11.0265L12.253 10.7345L11.9982 10.5551H12.3133L12.4119 10.2631ZM14.1898 10.2631L14.2857 10.5578H14.6007L14.3459 10.7372L14.4445 11.0265L14.1898 10.847L13.935 11.0265L14.0336 10.7345L13.7789 10.5551H14.0912L14.1898 10.2631ZM15.9649 10.2631L16.0636 10.5578H16.3759L16.1238 10.7372L16.2197 11.0265L15.9649 10.847L15.7129 11.0265L15.8088 10.7345L15.5568 10.5551H15.8691L15.9649 10.2631ZM17.7428 10.2631L17.8387 10.5578H18.1538L17.899 10.7372L17.9976 11.0265L17.7428 10.847L17.4881 11.0265L17.5867 10.7345L17.3319 10.5551H17.647L17.7428 10.2631ZM11.5243 11.0024L11.6229 11.2944H11.9352L11.6804 11.4738L11.7791 11.7685L11.5243 11.5863L11.2695 11.7658L11.3681 11.4738L11.1134 11.2944H11.4284L11.5243 11.0024ZM13.3022 11.0024L13.3981 11.2944H13.7131L13.4583 11.4738L13.5542 11.7685L13.3022 11.5863L13.0474 11.7658L13.1433 11.4738L12.8913 11.2944H13.2036L13.3022 11.0024ZM15.0774 11.0024L15.176 11.2944H15.4883L15.2362 11.4738L15.3321 11.7685L15.0774 11.5863L14.8253 11.7658L14.9212 11.4738L14.6664 11.2944H14.9842L15.0774 11.0024ZM16.8553 11.0024L16.9511 11.2944H17.2662L17.0114 11.4738L17.1073 11.7685L16.8553 11.5863L16.6005 11.7658L16.6964 11.4738L16.4443 11.2944H16.7566L16.8553 11.0024ZM12.4119 11.7417L12.5105 12.0337H12.82L12.5735 12.2131L12.6694 12.5051L12.4146 12.3256L12.1626 12.5051L12.2585 12.2104L12.0037 12.031H12.3187L12.4119 11.7417ZM14.1898 11.7417L14.2857 12.0337H14.6007L14.3459 12.2131L14.4445 12.5051L14.1898 12.3256L13.935 12.5051L14.0336 12.2104L13.7789 12.031H14.0912L14.1898 11.7417ZM15.9649 11.7417L16.0636 12.0337H16.3759L16.1238 12.2131L16.2197 12.5051L15.9649 12.3256L15.7129 12.5051L15.8088 12.2104L15.5568 12.031H15.8691L15.9649 11.7417ZM17.7428 11.7417L17.8387 12.0337H18.1538L17.899 12.2131L17.9976 12.5051L17.7428 12.3256L17.4881 12.5051L17.5867 12.2104L17.3319 12.031H17.647L17.7428 11.7417Z" fill-rule="evenodd"/>
<g clip-path="url(#clip1_15237_119807)">
<path fill="#2E3148" d="M7.43504 19.2845C11.2205 19.2845 14.2893 16.2154 14.2893 12.4295C14.2893 8.64361 11.2205 5.57452 7.43504 5.57452C3.64955 5.57452 0.580811 8.64361 0.580811 12.4295C0.580811 16.2154 3.64955 19.2845 7.43504 19.2845Z"/>
<path fill="#1B1E36" d="M7.43504 16.4071C9.63156 16.4071 11.4122 14.6263 11.4122 12.4295C11.4122 10.2327 9.63156 8.4519 7.43504 8.4519C5.23852 8.4519 3.45789 10.2327 3.45789 12.4295C3.45789 14.6263 5.23852 16.4071 7.43504 16.4071Z"/>
<path fill="#6F7390" d="M7.44912 6.44904C6.70925 6.44904 6.10931 9.1329 6.10931 12.4437C6.10931 15.7544 6.70925 18.4383 7.44912 18.4383C8.189 18.4383 8.78893 15.7544 8.78893 12.4437C8.78893 9.1329 8.189 6.44904 7.44912 6.44904ZM7.54163 18.1C7.45702 18.2128 7.37241 18.1281 7.37241 18.1281C7.03167 17.7333 6.86131 16.9998 6.86131 16.9998C6.26532 15.0815 6.40717 10.9629 6.40717 10.9629C6.68726 7.69308 7.19678 6.92066 7.37016 6.74917C7.38787 6.73167 7.41118 6.72098 7.43599 6.71897C7.46081 6.71697 7.48554 6.72378 7.50582 6.73821C7.7574 6.91649 7.9684 7.6621 7.9684 7.6621C8.59148 9.9753 8.53505 12.1475 8.53505 12.1475C8.59148 14.0375 8.22283 16.1532 8.22283 16.1532C7.93906 17.7612 7.54163 18.1 7.54163 18.1Z"/>
<path fill="#6F7390" d="M12.6482 9.46046C12.2798 8.81839 9.65377 9.63364 6.78097 11.2811C3.90817 12.9286 1.88174 14.7848 2.24984 15.4266C2.61793 16.0684 5.24426 15.2534 8.11706 13.6059C10.9899 11.9584 13.0163 10.1022 12.6482 9.46046ZM2.5897 15.3385C2.44866 15.3208 2.48052 15.2048 2.48052 15.2048C2.65352 14.7129 3.20405 14.2 3.20405 14.2C4.57177 12.7283 8.21471 10.8018 8.21471 10.8018C11.1897 9.41757 12.1137 9.47598 12.3481 9.54052C12.3722 9.54724 12.3931 9.56226 12.4072 9.58291C12.4212 9.60357 12.4275 9.62853 12.4249 9.65338C12.3967 9.96049 11.8537 10.5144 11.8537 10.5144C10.1587 12.2067 8.24657 13.2389 8.24657 13.2389C6.63539 14.2287 4.61696 14.9613 4.61696 14.9613C3.08112 15.5148 2.58975 15.3385 2.58975 15.3385H2.5897Z"/>
<path fill="#6F7390" d="M12.6352 15.448C13.0064 14.8076 10.9851 12.9429 8.12239 11.283C5.25968 9.62314 2.63396 8.7978 2.26306 9.43926C1.89217 10.0807 3.91318 11.9443 6.77753 13.6042C9.64189 15.2641 12.2643 16.0895 12.6352 15.448ZM2.50905 9.6867C2.45421 9.55667 2.56997 9.52536 2.56997 9.52536C3.08244 9.42857 3.8023 9.64913 3.8023 9.64913C5.76069 10.0951 9.25279 12.2828 9.25279 12.2828C11.9415 14.1644 12.3538 14.9932 12.4156 15.2285C12.4219 15.2526 12.4194 15.2782 12.4087 15.3007C12.398 15.3232 12.3796 15.3412 12.3569 15.3515C12.0766 15.4799 11.3257 15.2886 11.3257 15.2886C9.0113 14.668 7.16038 13.5309 7.16038 13.5309C5.49733 12.6338 3.85286 11.2535 3.85286 11.2535C2.60331 10.2013 2.50943 9.68813 2.50943 9.68813L2.50905 9.6867Z"/>
<path fill="#B7B9C8" d="M7.43505 13.1348C7.8245 13.1348 8.14021 12.819 8.14021 12.4295C8.14021 12.0401 7.8245 11.7243 7.43505 11.7243C7.0456 11.7243 6.72989 12.0401 6.72989 12.4295C6.72989 12.819 7.0456 13.1348 7.43505 13.1348Z"/>
<path fill="#B7B9C8" d="M10.3262 10.1445C10.5521 10.1445 10.7352 9.95506 10.7352 9.72136C10.7352 9.48767 10.5521 9.29822 10.3262 9.29822C10.1003 9.29822 9.91721 9.48767 9.91721 9.72136C9.91721 9.95506 10.1003 10.1445 10.3262 10.1445Z"/>
<path fill="#B7B9C8" d="M3.61302 11.5832C3.8389 11.5832 4.02202 11.3938 4.02202 11.1601C4.02202 10.9264 3.8389 10.7369 3.61302 10.7369C3.38713 10.7369 3.20401 10.9264 3.20401 11.1601C3.20401 11.3938 3.38713 11.5832 3.61302 11.5832Z"/>
<path fill="#B7B9C8" d="M6.60294 16.7738C6.82883 16.7738 7.01195 16.5844 7.01195 16.3507C7.01195 16.117 6.82883 15.9276 6.60294 15.9276C6.37706 15.9276 6.19394 16.117 6.19394 16.3507C6.19394 16.5844 6.37706 16.7738 6.60294 16.7738Z"/>
</g>
</g>
<defs>
<clipPath id="clip0_15237_119807">
<rect fill="white" width="24" height="24" transform="translate(0.580811 0.374512)"/>
</clipPath>
<clipPath id="clip1_15237_119807">
<rect fill="white" width="13.7085" height="13.71" transform="translate(0.580811 5.57452)"/>
</clipPath>
</defs>
<metadata symbolName="ATOMUSD" fileName="atomusd.svg" id="grimlock-metadata-id" lastUpdate="2025-02-10T09:58:22.589230528" symbolId="1411"/></svg>