<?xml version="1.0" encoding="UTF-8" standalone="no"?><svg xmlns="http://www.w3.org/2000/svg" xmlns:xlink="http://www.w3.org/1999/xlink" contentScriptType="text/ecmascript" fill="none" width="24" zoomAndPan="magnify" contentStyleType="text/css" viewBox="0 0 24 24" height="24" preserveAspectRatio="xMidYMid meet" version="1.0">
<mask x="10" y="5" width="14" maskUnits="userSpaceOnUse" style="mask-type:alpha" height="14" id="mask0_15235_116674">
<path fill="white" stroke-width="1.5" d="M23.2498 12C23.2498 15.3661 20.4928 18.1071 17.0767 18.1071C13.6607 18.1071 10.9037 15.3661 10.9037 12C10.9037 8.63383 13.6607 5.89282 17.0767 5.89282C20.4928 5.89282 23.2498 8.63383 23.2498 12Z" stroke="#D3D3D3"/>
</mask>
<g mask="url(#mask0_15235_116674)">
<rect fill="url(#paint0_linear_15235_116674)" x="10.6537" width="12.8462" height="12.7143" y="5.64282" stroke="#EEEEEE"/>
<path fill="#D80027" d="M7.38443 5.14282H12.282V18.8571H7.38443V5.14282ZM22.0797 5.14282H26.9773V18.8571H22.0824L22.0797 5.14282ZM13.7504 11.7696L13.3664 11.8982L15.1377 13.4384C15.273 13.8321 15.0918 13.9473 14.9755 14.1562L16.8955 13.9151L16.8496 15.8303L17.2498 15.8196L17.1606 13.9178L19.0861 14.1455C18.9671 13.8964 18.8616 13.7651 18.9698 13.3687L20.7384 11.9089L20.4301 11.7964C20.1759 11.6035 20.5383 10.8669 20.5924 10.4009C20.5924 10.4009 19.562 10.7518 19.4944 10.5669L19.2294 10.066L18.291 11.0893C18.1882 11.1134 18.1449 11.0732 18.1206 10.9875L18.5533 8.84996L17.8664 9.233C17.8096 9.25979 17.7528 9.23836 17.715 9.17139L17.0524 7.85889L16.3709 9.22229C16.3195 9.2705 16.2681 9.27586 16.2249 9.24372L15.5704 8.87943L15.9653 10.9982C15.9328 11.0839 15.8571 11.1053 15.7705 11.0598L14.87 10.05C14.7537 10.2375 14.6753 10.5401 14.5184 10.6098C14.3643 10.6741 13.8424 10.4812 13.4935 10.4062C13.6125 10.8321 13.9857 11.5393 13.7504 11.7723V11.7696Z"/>
</g>
<path d="M23.4998 12C23.4998 15.5064 20.6286 18.3571 17.0767 18.3571C13.5248 18.3571 10.6537 15.5064 10.6537 12C10.6537 8.49351 13.5248 5.64282 17.0767 5.64282C20.6286 5.64282 23.4998 8.49351 23.4998 12Z" stroke="#EEEEEE"/>
<path fill="#0052B4" d="M13.8462 12C13.8462 15.7868 10.7463 18.8571 6.92308 18.8571C3.0995 18.8571 0 15.7871 0 12C0 12.0016 6.92308 5.14349 6.92308 5.14282C10.7467 5.14282 13.8462 8.2128 13.8462 12Z"/>
<path fill="white" d="M6.90359 12H6.92201V11.9816C6.91598 11.9876 6.90962 11.994 6.90359 12Z"/>
<path fill="white" d="M6.92308 8.72039V5.14282H6.92172C3.09882 5.14349 0 8.21313 0 12H3.61197V9.98534L5.64596 12H6.90448C6.91057 11.9939 6.91665 11.9876 6.92308 11.9815V10.735L4.88908 8.72039H6.92308V8.72039Z"/>
<path fill="#D80027" d="M3.5017 6.03723C2.41895 6.64795 1.51875 7.53958 0.902161 8.61201V12.0001H2.70831V7.82618H6.92233V6.03723H3.5017Z"/>
<path fill="#D80027" d="M6.92354 11.1565L4.46395 8.72034H3.61243L6.92354 11.9999V11.1565Z"/>
<path fill="white" d="M4.1746 13.1926L4.55456 13.9795L5.41251 13.7829L5.02816 14.5677L5.7181 15.1095L4.85914 15.3013L4.8615 16.1735L4.1746 15.6278L3.4877 16.1735L3.49007 15.3013L2.63077 15.1095L3.32071 14.5677L2.93636 13.7829L3.79431 13.9795L4.1746 13.1926Z"/>
<path fill="white" d="M10.3653 14.6831L10.5553 15.0765L10.9842 14.9784L10.7922 15.3708L11.1374 15.6417L10.7077 15.7375L10.7091 16.1737L10.3656 15.9009L10.0222 16.1737L10.0235 15.7375L9.59387 15.6417L9.93901 15.3708L9.747 14.9784L10.176 15.0765L10.3653 14.6831Z"/>
<path fill="white" d="M8.59752 10.5094L8.7875 10.9028L9.21648 10.8047L9.02447 11.1971L9.36961 11.468L8.93996 11.5638L8.94131 12L8.59786 11.7271L8.25441 12L8.25542 11.5638L7.82578 11.468L8.17091 11.1971L7.97891 10.8047L8.40788 10.9028L8.59752 10.5094Z"/>
<path fill="white" d="M10.3653 8.12402L10.5553 8.51744L10.9842 8.41934L10.7922 8.81175L11.1374 9.08262L10.7077 9.17838L10.7091 9.61465L10.3656 9.34177L10.0222 9.61465L10.0235 9.17838L9.59387 9.08262L9.93901 8.81175L9.747 8.41934L10.176 8.51744L10.3653 8.12402Z"/>
<path fill="white" d="M11.9078 9.91296L12.0978 10.3064L12.5268 10.2083L12.3348 10.6007L12.6799 10.8716L12.2503 10.9673L12.2516 11.4036L11.9082 11.1307L11.5647 11.4036L11.5661 10.9673L11.1364 10.8716L11.4816 10.6007L11.2895 10.2083L11.7185 10.3064L11.9078 9.91296Z"/>
<path fill="white" d="M10.8059 12L10.9554 12.4554H11.4391L11.048 12.7369L11.1974 13.1926L10.8063 12.911L10.4148 13.1926L10.5642 12.7369L10.1731 12.4554H10.6565L10.8059 12Z"/>
<defs>
<linearGradient x1="17.0767" gradientUnits="userSpaceOnUse" x2="17.0767" y1="5.14282" y2="18.8571" xlink:type="simple" xlink:actuate="onLoad" id="paint0_linear_15235_116674" xlink:show="other">
<stop stop-color="white" offset="0.567708"/>
<stop stop-color="#D1D1D1" offset="1"/>
</linearGradient>
</defs>
<metadata symbolName="AUDCAD" fileName="audcad.svg" id="grimlock-metadata-id" lastUpdate="2025-02-10T09:58:22.589247149" symbolId="5"/></svg>