<?xml version="1.0" encoding="UTF-8" standalone="no"?><svg xmlns="http://www.w3.org/2000/svg" xmlns:xlink="http://www.w3.org/1999/xlink" contentScriptType="text/ecmascript" fill="none" width="24" zoomAndPan="magnify" contentStyleType="text/css" viewBox="0 0 24 24" height="24" preserveAspectRatio="xMidYMid meet" version="1.0">
<path fill="url(#paint0_linear_15235_116677)" d="M23.7717 12C23.7717 15.7868 20.7013 18.8571 16.9145 18.8571C13.1274 18.8571 10.0574 15.7871 10.0574 12C10.0574 12.0016 16.9145 5.14349 16.9145 5.14282C20.7017 5.14282 23.7717 8.2128 23.7717 12Z"/>
<path fill="white" d="M16.8962 12H16.9146V11.9816C16.9086 11.9876 16.9022 11.994 16.8962 12Z"/>
<path fill="white" d="M16.9145 8.72039V5.14282H16.9132C13.1267 5.14349 10.0574 8.21313 10.0574 12H13.6349V9.98534L15.6496 12H16.8961C16.9021 11.9939 16.9082 11.9876 16.9145 11.9815V10.735L14.8999 8.72039H16.9145V8.72039Z"/>
<path fill="#D80027" d="M13.5263 6.03711C12.4539 6.64782 11.5623 7.53945 10.9516 8.61189V11.9999H12.7405V7.82606H16.9144V6.03711H13.5263Z"/>
<path fill="#D80027" d="M16.9146 11.1565L14.4785 8.72034H13.635L16.9146 11.9999V11.1565Z"/>
<path fill="#D80027" d="M21.9324 10.2311L22.0803 10.6864H22.5591L22.1718 10.968L22.3197 11.4237L21.9324 11.1421L21.545 11.4237L21.693 10.968L21.3056 10.6864H21.7844L21.9324 10.2311Z"/>
<path fill="#D80027" d="M20.2202 13.5104L20.4422 14.1937H21.1607L20.5795 14.616L20.8015 15.2993L20.2202 14.8771L19.639 15.2993L19.8609 14.616L19.2797 14.1937H19.9982L20.2202 13.5104Z"/>
<path fill="#D80027" d="M20.2846 8.14417L20.4698 8.7137H21.0684L20.5839 9.06559L20.7691 9.63512L20.2849 9.28323L19.8005 9.63479L19.9853 9.06526L19.5011 8.71336H20.0998L20.2846 8.14417Z"/>
<path fill="#D80027" d="M18.6376 10.2113L18.8596 10.8947H19.5781L18.9969 11.3169L19.2189 12.0003L18.6376 11.578L18.0564 11.9999L18.2784 11.3165L17.6971 10.8943H18.4156L18.6376 10.2113Z"/>
<path fill="#0052B4" d="M13.7143 12C13.7143 15.7868 10.644 18.8571 6.85714 18.8571C3.06998 18.8571 0 15.7871 0 12C0 12.0016 6.85714 5.14349 6.85714 5.14282C10.6443 5.14282 13.7143 8.2128 13.7143 12Z"/>
<path fill="white" d="M6.83884 12H6.85725V11.9816C6.85123 11.9876 6.84486 11.994 6.83884 12Z"/>
<path fill="white" d="M6.85714 8.72039V5.14282H6.8558C3.06931 5.14349 0 8.21313 0 12H3.57757V9.98534L5.59219 12H6.83873C6.84475 11.9939 6.85078 11.9876 6.85714 11.9815V10.735L4.84252 8.72039H6.85714V8.72039Z"/>
<path fill="#D80027" d="M3.46897 6.03711C2.39654 6.64782 1.50491 7.53945 0.894196 8.61189V11.9999H2.68315V7.82606H6.85703V6.03711H3.46897Z"/>
<path fill="#D80027" d="M6.85724 11.1565L4.42108 8.72034H3.57767L6.85724 11.9999V11.1565Z"/>
<path fill="white" d="M4.13582 13.1926L4.51216 13.9795L5.36194 13.7829L4.98125 14.5677L5.66462 15.1095L4.81383 15.3013L4.81618 16.1735L4.13582 15.6278L3.45546 16.1735L3.45781 15.3013L2.60669 15.1095L3.29006 14.5677L2.90937 13.7829L3.75915 13.9795L4.13582 13.1926Z"/>
<path fill="white" d="M10.2667 14.6832L10.4549 15.0766L10.8798 14.9785L10.6896 15.371L11.0315 15.6418L10.6059 15.7376L10.6073 16.1739L10.2671 15.901L9.9269 16.1739L9.92824 15.7376L9.50269 15.6418L9.84454 15.371L9.65436 14.9785L10.0792 15.0766L10.2667 14.6832Z"/>
<path fill="white" d="M8.5162 10.5094L8.70437 10.9028L9.12926 10.8047L8.93908 11.1971L9.28093 11.468L8.85537 11.5638L8.85671 12L8.51653 11.7271L8.17635 12L8.17736 11.5638L7.7518 11.468L8.09365 11.1971L7.90347 10.8047L8.32836 10.9028L8.5162 10.5094Z"/>
<path fill="white" d="M10.2667 8.12402L10.4549 8.51744L10.8798 8.41934L10.6896 8.81175L11.0315 9.08262L10.6059 9.17838L10.6073 9.61465L10.2671 9.34177L9.9269 9.61465L9.92824 9.17838L9.50269 9.08262L9.84454 8.81175L9.65436 8.41934L10.0792 8.51744L10.2667 8.12402Z"/>
<path fill="white" d="M11.7953 9.91296L11.9835 10.3064L12.4084 10.2083L12.2182 10.6007L12.56 10.8716L12.1345 10.9673L12.1358 11.4036L11.7956 11.1307L11.4555 11.4036L11.4568 10.9673L11.0312 10.8716L11.3731 10.6007L11.1829 10.2083L11.6078 10.3064L11.7953 9.91296Z"/>
<path fill="white" d="M10.7022 12L10.8502 12.4554H11.3293L10.942 12.7369L11.0899 13.1926L10.7026 12.911L10.3148 13.1926L10.4628 12.7369L10.0754 12.4554H10.5542L10.7022 12Z"/>
<defs>
<linearGradient x1="10.7431" gradientUnits="userSpaceOnUse" x2="23.7717" y1="11.3143" y2="11.3143" xlink:type="simple" xlink:actuate="onLoad" id="paint0_linear_15235_116677" xlink:show="other">
<stop stop-color="#00418E" offset="0.328947"/>
<stop stop-color="#0052B4" offset="1"/>
</linearGradient>
</defs>
<metadata symbolName="AUDNZD" fileName="audnzd.svg" id="grimlock-metadata-id" lastUpdate="2025-02-10T09:58:22.589270790" symbolId="8"/></svg>