<svg width="38" height="50" viewBox="0 0 38 50" fill="none" xmlns="http://www.w3.org/2000/svg">
<g clip-path="url(#clip0_22630_27723)">
<path fill-rule="evenodd" clip-rule="evenodd" d="M19.0193 2.0206C10.0022 2.0206 2.69112 9.33545 2.69112 18.3605C2.69112 27.3854 10.0022 34.7003 19.0193 34.7003C21.422 34.7003 23.7035 34.1809 25.7579 33.2483C25.8143 33.2119 25.8746 33.1798 25.9384 33.1526C25.9765 33.1364 26.015 33.1224 26.0537 33.1104C31.5502 30.4806 35.3475 24.8646 35.3475 18.3605C35.3475 9.33545 28.0363 2.0206 19.0193 2.0206ZM25.7801 35.8216L27.9119 40.8327C28.1693 41.4377 28.8684 41.7195 29.4734 41.4621C30.0784 41.2047 30.3602 40.5056 30.1028 39.9006L27.9413 34.8196C28.96 34.2655 29.9215 33.6195 30.8147 32.8927L35.2356 43.1742L30.6365 42.6688C30.2202 42.6231 29.8105 42.7994 29.5576 43.1332L26.7627 46.8213L22.4408 36.7689C23.5945 36.5556 24.7111 36.2363 25.7801 35.8216ZM19.9731 37.0573C19.6572 37.0732 19.3392 37.0813 19.0193 37.0813C18.6865 37.0813 18.3558 37.0726 18.0273 37.0554L12.6175 49.64C12.4502 50.0294 12.0885 50.3004 11.6678 50.3516C11.2472 50.4029 10.831 50.2266 10.575 49.8889L6.95301 45.1093L0.994354 45.7641C0.573301 45.8104 0.159375 45.6294 -0.0926089 45.2889C-0.344593 44.9484 -0.396677 44.4997 -0.229379 44.1106L5.34692 31.1395C2.22247 27.7938 0.310169 23.3004 0.310169 18.3605C0.310169 8.02199 8.68578 -0.360352 19.0193 -0.360352C29.3528 -0.360352 37.7284 8.02199 37.7284 18.3605C37.7284 23.3145 35.8052 27.8194 32.6649 31.1681L38.2299 44.1105C38.3972 44.4996 38.3451 44.9484 38.0931 45.2889C37.8412 45.6294 37.4272 45.8104 37.0062 45.7641L31.0475 45.1093L27.4255 49.8889C27.1695 50.2266 26.7534 50.4029 26.3327 50.3516C25.9121 50.3004 25.5504 50.0294 25.383 49.6401L19.9731 37.0573ZM7.19499 32.8691L2.76479 43.1742L7.36403 42.6688C7.78028 42.6231 8.18996 42.7994 8.44288 43.1332L11.2377 46.8212L15.5617 36.7622C14.4194 36.5487 13.3137 36.2312 12.2547 35.8201L10.0849 40.839C9.82401 41.4425 9.12327 41.7203 8.51977 41.4594C7.91627 41.1985 7.63854 40.4977 7.89944 39.8942L10.0941 34.8178C9.06558 34.2581 8.0954 33.6048 7.19499 32.8691ZM22.3795 7.59404C22.6412 6.99088 23.3423 6.71405 23.9455 6.97573C28.3384 8.88156 31.4149 13.2599 31.4149 18.3605C31.4149 25.2099 25.8661 30.7635 19.0193 30.7635C12.1724 30.7635 6.62371 25.2099 6.62371 18.3605C6.62371 13.461 9.46286 9.22701 13.5812 7.21236C14.1718 6.92344 14.8848 7.168 15.1737 7.75861C15.4626 8.34921 15.218 9.0622 14.6274 9.35111C11.2952 10.9812 9.00466 14.4039 9.00466 18.3605C9.00466 23.8965 13.4889 28.3826 19.0193 28.3826C24.5497 28.3826 29.0339 23.8965 29.0339 18.3605C29.0339 14.2417 26.5513 10.7016 22.9978 9.15998C22.3947 8.8983 22.1178 8.19721 22.3795 7.59404Z" fill="white"/>
<path d="M19.0192 8.91813C19.7959 8.91813 20.4255 8.28806 20.4255 7.51083C20.4255 6.73359 19.7959 6.10352 19.0192 6.10352C18.2424 6.10352 17.6128 6.73359 17.6128 7.51083C17.6128 8.28806 18.2424 8.91813 19.0192 8.91813Z" fill="white"/>
</g>
<defs>
<clipPath id="clip0_22630_27723">
<rect width="37.931" height="50" fill="white" transform="translate(0.034668)"/>
</clipPath>
</defs>
</svg>
