<?xml version="1.0" encoding="UTF-8" standalone="no"?><svg xmlns="http://www.w3.org/2000/svg" xmlns:xlink="http://www.w3.org/1999/xlink" contentScriptType="text/ecmascript" fill="none" width="25" zoomAndPan="magnify" contentStyleType="text/css" viewBox="0 0 25 25" height="25" preserveAspectRatio="xMidYMid meet" version="1.0">
<g clip-path="url(#clip0_15237_119942)">
<circle fill="#BD3D44" r="6.85714" cx="17.7237" cy="12.6548"/>
<path fill="white" clip-rule="evenodd" d="M14.0292 6.87463C13.5747 7.16543 13.1568 7.50837 12.7838 7.89501H22.6559C22.283 7.50837 21.865 7.16543 21.4105 6.87463H14.0292ZM11.3574 10.0927C11.5125 9.70793 11.7015 9.34042 11.9207 8.99391H23.519C23.7382 9.34042 23.9272 9.70793 24.0823 10.0927H11.3574ZM11.0192 11.1916C10.9525 11.4985 10.9063 11.8129 10.8822 12.1336H24.5575C24.5334 11.8129 24.4872 11.4985 24.4205 11.1916H11.0192ZM11.0317 14.1744C10.9578 13.8477 10.9072 13.5122 10.8817 13.1697H24.558C24.5325 13.5122 24.482 13.8477 24.4081 14.1744H11.0317ZM11.3804 15.2733C11.5397 15.6585 11.7331 16.0261 11.9568 16.3722H23.4829C23.7066 16.0261 23.9 15.6585 24.0593 15.2733H11.3804ZM13.9946 18.4128C13.5756 18.1412 13.1882 17.8251 12.8389 17.4711H22.6008C22.2515 17.8251 21.8641 18.1412 21.4451 18.4128H13.9946ZM17.6596 19.5117C17.6796 19.5119 17.6997 19.512 17.7199 19.512C17.74 19.512 17.7601 19.5119 17.7801 19.5117H17.6596Z" fill-rule="evenodd"/>
<path fill="#00418E" clip-rule="evenodd" d="M10.886 13.1759C10.8731 13.0039 10.8665 12.8301 10.8665 12.6548C10.8665 8.86765 13.9366 5.79761 17.7237 5.79761C18.0064 5.79761 18.2851 5.81472 18.5588 5.84795V13.1759H10.886Z" fill-rule="evenodd"/>
<path fill="white" clip-rule="evenodd" d="M14.3775 6.67867C14.3379 6.70098 14.2986 6.72368 14.2596 6.74675L14.4445 6.87899L14.3775 6.67867ZM13.6609 7.14416C13.5223 7.24697 13.3878 7.35489 13.2575 7.46762L13.3022 7.43613L13.5542 7.61559L13.4583 7.32363L13.7131 7.14416H13.6609ZM12.59 8.12998C12.5591 8.16517 12.5285 8.20068 12.4983 8.23651L12.6639 8.35488L12.59 8.12998ZM11.3787 10.0959C11.3592 10.1446 11.3401 10.1935 11.3217 10.2427L11.3681 10.2754L11.2695 10.5701L11.5243 10.3879L11.7791 10.5701L11.6804 10.2781L11.9352 10.0986H11.6229L11.5243 9.80666L11.4284 10.0959H11.3787ZM15.9649 6.11292L16.0636 6.40488H16.3759L16.1238 6.58434L16.2197 6.87899L15.9649 6.69684L15.7129 6.87631L15.8088 6.58434L15.5568 6.40488H15.8691L15.9649 6.11292ZM17.7428 6.11292L17.8387 6.40488H18.1538L17.899 6.58434L17.9976 6.87899L17.7428 6.69684L17.4881 6.87631L17.5867 6.58434L17.3319 6.40488H17.647L17.7428 6.11292ZM15.0774 6.8522L15.176 7.14416H15.4883L15.2335 7.32363L15.3321 7.61559L15.0774 7.43613L14.8253 7.61559L14.9212 7.32363L14.6664 7.14416H14.9842L15.0774 6.8522ZM16.8553 6.8522L16.9511 7.14416H17.2662L17.0114 7.32363L17.1073 7.61559L16.8553 7.43613L16.6005 7.61559L16.6964 7.32363L16.4443 7.14416H16.7566L16.8553 6.8522ZM14.1898 7.58881L14.2857 7.88345H14.6007L14.3459 8.06291L14.4445 8.35488L14.1898 8.17274L13.935 8.35488L14.0336 8.06024L13.7789 7.88077H14.0912L14.1898 7.58881ZM15.9649 7.58881L16.0636 7.88345H16.3759L16.1238 8.06291L16.2197 8.35488L15.9649 8.17274L15.7129 8.35488L15.8088 8.06024L15.5568 7.88077H15.8691L15.9649 7.58881ZM17.7428 7.58881L17.8387 7.88345H18.1538L17.899 8.06291L17.9976 8.35488L17.7428 8.17274L17.4881 8.35488L17.5867 8.06024L17.3319 7.88077H17.647L17.7428 7.58881ZM13.3022 8.32809L13.3981 8.62006H13.7131L13.4583 8.79952L13.5542 9.09416L13.3022 8.91202L13.0474 9.09148L13.1433 8.79952L12.8913 8.62006H13.2036L13.3022 8.32809ZM15.0774 8.32809L15.176 8.62006H15.4883L15.2362 8.79952L15.3321 9.09416L15.0774 8.91202L14.8253 9.09148L14.9212 8.79952L14.6664 8.62006H14.9842L15.0774 8.32809ZM16.8553 8.32809L16.9511 8.62006H17.2662L17.0114 8.79952L17.1073 9.09416L16.8553 8.91202L16.6005 9.09148L16.6964 8.79952L16.4443 8.62006H16.7566L16.8553 8.32809ZM12.4119 9.06738L12.5105 9.35934H12.82L12.568 9.53881L12.6639 9.83345L12.4091 9.65131L12.1571 9.83077L12.253 9.53881L11.9982 9.35934H12.3133L12.4119 9.06738ZM14.1898 9.06738L14.2857 9.35934H14.6007L14.3459 9.53881L14.4445 9.83345L14.1898 9.65131L13.935 9.83077L14.0336 9.53881L13.7789 9.35934H14.0912L14.1898 9.06738ZM15.9649 9.06738L16.0636 9.35934H16.3759L16.1238 9.53881L16.2197 9.83345L15.9649 9.65131L15.7129 9.83077L15.8088 9.53881L15.5568 9.35934H15.8691L15.9649 9.06738ZM17.7428 9.06738L17.8387 9.35934H18.1538L17.899 9.53881L17.9976 9.83345L17.7428 9.65131L17.4881 9.83077L17.5867 9.53881L17.3319 9.35934H17.647L17.7428 9.06738ZM13.3022 9.80666L13.3981 10.0986H13.7131L13.4583 10.2781L13.5542 10.5701L13.3022 10.3879L13.0474 10.5701L13.1433 10.2754L12.8913 10.0959H13.2036L13.3022 9.80666ZM15.0774 9.80666L15.176 10.0986H15.4883L15.2362 10.2781L15.3321 10.5701L15.0774 10.3879L14.8253 10.5701L14.9212 10.2754L14.6664 10.0959H14.9842L15.0774 9.80666ZM16.8553 9.80666L16.9511 10.0986H17.2662L17.0114 10.2781L17.1073 10.5701L16.8553 10.3879L16.6005 10.5701L16.6964 10.2754L16.4443 10.0959H16.7566L16.8553 9.80666ZM12.4119 10.5433L12.5105 10.8379H12.82L12.568 11.0174L12.6639 11.3067L12.4091 11.1272L12.1571 11.3067L12.253 11.0147L11.9982 10.8352H12.3133L12.4119 10.5433ZM14.1898 10.5433L14.2857 10.8379H14.6007L14.3459 11.0174L14.4445 11.3067L14.1898 11.1272L13.935 11.3067L14.0336 11.0147L13.7789 10.8352H14.0912L14.1898 10.5433ZM15.9649 10.5433L16.0636 10.8379H16.3759L16.1238 11.0174L16.2197 11.3067L15.9649 11.1272L15.7129 11.3067L15.8088 11.0147L15.5568 10.8352H15.8691L15.9649 10.5433ZM17.7428 10.5433L17.8387 10.8379H18.1538L17.899 11.0174L17.9976 11.3067L17.7428 11.1272L17.4881 11.3067L17.5867 11.0147L17.3319 10.8352H17.647L17.7428 10.5433ZM11.5243 11.2826L11.6229 11.5745H11.9352L11.6804 11.754L11.7791 12.0486L11.5243 11.8665L11.2695 12.0459L11.3681 11.754L11.1134 11.5745H11.4284L11.5243 11.2826ZM13.3022 11.2826L13.3981 11.5745H13.7131L13.4583 11.754L13.5542 12.0486L13.3022 11.8665L13.0474 12.0459L13.1433 11.754L12.8913 11.5745H13.2036L13.3022 11.2826ZM15.0774 11.2826L15.176 11.5745H15.4883L15.2362 11.754L15.3321 12.0486L15.0774 11.8665L14.8253 12.0459L14.9212 11.754L14.6664 11.5745H14.9842L15.0774 11.2826ZM16.8553 11.2826L16.9511 11.5745H17.2662L17.0114 11.754L17.1073 12.0486L16.8553 11.8665L16.6005 12.0459L16.6964 11.754L16.4443 11.5745H16.7566L16.8553 11.2826ZM12.4119 12.0218L12.5105 12.3138H12.82L12.5735 12.4933L12.6694 12.7852L12.4146 12.6058L12.1626 12.7852L12.2585 12.4906L12.0037 12.3111H12.3187L12.4119 12.0218ZM14.1898 12.0218L14.2857 12.3138H14.6007L14.3459 12.4933L14.4445 12.7852L14.1898 12.6058L13.935 12.7852L14.0336 12.4906L13.7789 12.3111H14.0912L14.1898 12.0218ZM15.9649 12.0218L16.0636 12.3138H16.3759L16.1238 12.4933L16.2197 12.7852L15.9649 12.6058L15.7129 12.7852L15.8088 12.4906L15.5568 12.3111H15.8691L15.9649 12.0218ZM17.7428 12.0218L17.8387 12.3138H18.1538L17.899 12.4933L17.9976 12.7852L17.7428 12.6058L17.4881 12.7852L17.5867 12.4906L17.3319 12.3111H17.647L17.7428 12.0218Z" fill-rule="evenodd"/>
<g clip-path="url(#clip1_15237_119942)">
<path fill="#0055D5" clip-rule="evenodd" d="M7.43504 5.85474C11.2199 5.85474 14.2893 8.92441 14.2893 12.7097C14.2893 16.4951 11.2199 19.5647 7.43504 19.5647C3.65013 19.5647 0.580811 16.4951 0.580811 12.7097C0.580811 8.92441 3.65013 5.85474 7.43504 5.85474Z" fill-rule="evenodd"/>
<path fill="white" clip-rule="evenodd" d="M4.30952 10.39C4.30952 10.39 3.57201 9.80049 3.52129 11.2565C3.47057 12.3848 3.47194 14.5757 3.99423 15.6108C4.21494 16.0001 4.50967 15.8809 5.05801 15.4929C5.53506 15.1405 7.26096 13.5502 7.99162 12.8523C8.72228 12.1545 10.2042 10.1528 10.5126 11.5129C10.6346 12.0846 10.7854 12.5699 10.6703 13.8381C10.6346 14.2288 10.4674 14.525 9.70517 13.9957C9.12942 13.6256 8.58245 13.228 8.58245 13.228C8.58245 13.228 8.4769 13.0388 8.2274 13.3459C8.03137 13.5913 7.93267 13.6516 8.24659 13.8381C8.56189 14.0245 10.1562 15.1241 10.7676 15.2955C11.2721 15.4422 11.5599 15.4394 11.575 14.4482C11.5723 13.6612 11.527 11.4087 11.2405 10.449C11.0239 9.85121 10.7059 9.57976 10.0191 10.2515C9.3323 10.9233 7.16637 13.0237 5.98196 13.9752C5.19646 14.5647 4.86061 15.0967 4.5645 14.1137C4.35613 13.3692 4.08608 11.0522 4.93874 11.4937C5.472 11.7487 5.73795 11.7473 5.52958 11.9077C5.32121 12.0667 4.72215 12.6165 4.72215 12.6165C4.72215 12.6165 4.53709 12.766 4.62345 13.0895C4.70981 13.3157 4.70981 13.4282 5.17453 12.9908C5.63925 12.5535 5.98196 12.223 5.98196 12.223C5.98196 12.223 6.05598 12.1065 6.27669 12.3218C6.49739 12.537 6.53304 12.5973 6.53304 12.5973C6.53304 12.5973 6.59198 12.7577 6.82777 12.4794C7.06493 12.2011 7.21709 12.0311 6.76882 11.7706C6.32193 11.5074 4.30952 10.39 4.30952 10.39Z" fill-rule="evenodd"/>
</g>
</g>
<defs>
<clipPath id="clip0_15237_119942">
<rect fill="white" width="24" height="24" transform="translate(0.580811 0.654785)"/>
</clipPath>
<clipPath id="clip1_15237_119942">
<rect fill="white" width="13.7085" height="13.71" transform="translate(0.580811 5.85474)"/>
</clipPath>
</defs>
<metadata symbolName="AXSUSD" fileName="axsusd.svg" id="grimlock-metadata-id" lastUpdate="2025-02-10T09:58:22.589298832" symbolId="1413"/></svg>