<?xml version="1.0" encoding="UTF-8" standalone="no"?><svg xmlns="http://www.w3.org/2000/svg" xmlns:xlink="http://www.w3.org/1999/xlink" contentScriptType="text/ecmascript" fill="none" width="25" zoomAndPan="magnify" contentStyleType="text/css" viewBox="0 0 25 25" height="25" preserveAspectRatio="xMidYMid meet" version="1.0">
<g clip-path="url(#clip0_15237_120118)">
<circle fill="#BD3D44" r="6.85714" cx="17.7237" cy="12.935"/>
<path fill="white" clip-rule="evenodd" d="M14.0292 7.15491C13.5747 7.44571 13.1568 7.78864 12.7838 8.17528H22.6559C22.283 7.78864 21.865 7.44571 21.4105 7.15491H14.0292ZM11.3574 10.373C11.5125 9.9882 11.7015 9.62069 11.9207 9.27418H23.519C23.7382 9.62069 23.9272 9.9882 24.0823 10.373H11.3574ZM11.0192 11.4719C10.9525 11.7787 10.9063 12.0932 10.8822 12.4138H24.5575C24.5334 12.0932 24.4872 11.7787 24.4205 11.4719H11.0192ZM11.0317 14.4546C10.9578 14.128 10.9072 13.7925 10.8817 13.4499H24.558C24.5325 13.7925 24.482 14.128 24.4081 14.4546H11.0317ZM11.3804 15.5535C11.5397 15.9388 11.7331 16.3064 11.9568 16.6525H23.4829C23.7066 16.3064 23.9 15.9388 24.0593 15.5535H11.3804ZM13.9946 18.6931C13.5756 18.4215 13.1882 18.1054 12.8389 17.7514H22.6008C22.2515 18.1054 21.8641 18.4215 21.4451 18.6931H13.9946ZM17.6596 19.792C17.6796 19.7922 17.6997 19.7923 17.7199 19.7923C17.74 19.7923 17.7601 19.7922 17.7801 19.792H17.6596Z" fill-rule="evenodd"/>
<path fill="#00418E" clip-rule="evenodd" d="M10.886 13.4562C10.8731 13.2842 10.8665 13.1104 10.8665 12.935C10.8665 9.14793 13.9366 6.07788 17.7237 6.07788C18.0064 6.07788 18.2851 6.09499 18.5588 6.12823V13.4562H10.886Z" fill-rule="evenodd"/>
<path fill="white" clip-rule="evenodd" d="M14.3775 6.95894C14.3379 6.98126 14.2986 7.00395 14.2596 7.02703L14.4445 7.15926L14.3775 6.95894ZM13.6609 7.42444C13.5223 7.52725 13.3878 7.63516 13.2575 7.7479L13.3022 7.7164L13.5542 7.89587L13.4583 7.6039L13.7131 7.42444H13.6609ZM12.59 8.41026C12.5591 8.44545 12.5285 8.48096 12.4983 8.51678L12.6639 8.63515L12.59 8.41026ZM11.3787 10.3762C11.3592 10.4249 11.3401 10.4738 11.3217 10.5229L11.3681 10.5557L11.2695 10.8503L11.5243 10.6682L11.7791 10.8503L11.6804 10.5584L11.9352 10.3789H11.6229L11.5243 10.0869L11.4284 10.3762H11.3787ZM15.9649 6.39319L16.0636 6.68515H16.3759L16.1238 6.86462L16.2197 7.15926L15.9649 6.97712L15.7129 7.15658L15.8088 6.86462L15.5568 6.68515H15.8691L15.9649 6.39319ZM17.7428 6.39319L17.8387 6.68515H18.1538L17.899 6.86462L17.9976 7.15926L17.7428 6.97712L17.4881 7.15658L17.5867 6.86462L17.3319 6.68515H17.647L17.7428 6.39319ZM15.0774 7.13247L15.176 7.42444H15.4883L15.2335 7.6039L15.3321 7.89587L15.0774 7.7164L14.8253 7.89587L14.9212 7.6039L14.6664 7.42444H14.9842L15.0774 7.13247ZM16.8553 7.13247L16.9511 7.42444H17.2662L17.0114 7.6039L17.1073 7.89587L16.8553 7.7164L16.6005 7.89587L16.6964 7.6039L16.4443 7.42444H16.7566L16.8553 7.13247ZM14.1898 7.86908L14.2857 8.16372H14.6007L14.3459 8.34319L14.4445 8.63515L14.1898 8.45301L13.935 8.63515L14.0336 8.34051L13.7789 8.16104H14.0912L14.1898 7.86908ZM15.9649 7.86908L16.0636 8.16372H16.3759L16.1238 8.34319L16.2197 8.63515L15.9649 8.45301L15.7129 8.63515L15.8088 8.34051L15.5568 8.16104H15.8691L15.9649 7.86908ZM17.7428 7.86908L17.8387 8.16372H18.1538L17.899 8.34319L17.9976 8.63515L17.7428 8.45301L17.4881 8.63515L17.5867 8.34051L17.3319 8.16104H17.647L17.7428 7.86908ZM13.3022 8.60837L13.3981 8.90033H13.7131L13.4583 9.07979L13.5542 9.37444L13.3022 9.19229L13.0474 9.37176L13.1433 9.07979L12.8913 8.90033H13.2036L13.3022 8.60837ZM15.0774 8.60837L15.176 8.90033H15.4883L15.2362 9.07979L15.3321 9.37444L15.0774 9.19229L14.8253 9.37176L14.9212 9.07979L14.6664 8.90033H14.9842L15.0774 8.60837ZM16.8553 8.60837L16.9511 8.90033H17.2662L17.0114 9.07979L17.1073 9.37444L16.8553 9.19229L16.6005 9.37176L16.6964 9.07979L16.4443 8.90033H16.7566L16.8553 8.60837ZM12.4119 9.34765L12.5105 9.63962H12.82L12.568 9.81908L12.6639 10.1137L12.4091 9.93158L12.1571 10.111L12.253 9.81908L11.9982 9.63962H12.3133L12.4119 9.34765ZM14.1898 9.34765L14.2857 9.63962H14.6007L14.3459 9.81908L14.4445 10.1137L14.1898 9.93158L13.935 10.111L14.0336 9.81908L13.7789 9.63962H14.0912L14.1898 9.34765ZM15.9649 9.34765L16.0636 9.63962H16.3759L16.1238 9.81908L16.2197 10.1137L15.9649 9.93158L15.7129 10.111L15.8088 9.81908L15.5568 9.63962H15.8691L15.9649 9.34765ZM17.7428 9.34765L17.8387 9.63962H18.1538L17.899 9.81908L17.9976 10.1137L17.7428 9.93158L17.4881 10.111L17.5867 9.81908L17.3319 9.63962H17.647L17.7428 9.34765ZM13.3022 10.0869L13.3981 10.3789H13.7131L13.4583 10.5584L13.5542 10.8503L13.3022 10.6682L13.0474 10.8503L13.1433 10.5557L12.8913 10.3762H13.2036L13.3022 10.0869ZM15.0774 10.0869L15.176 10.3789H15.4883L15.2362 10.5584L15.3321 10.8503L15.0774 10.6682L14.8253 10.8503L14.9212 10.5557L14.6664 10.3762H14.9842L15.0774 10.0869ZM16.8553 10.0869L16.9511 10.3789H17.2662L17.0114 10.5584L17.1073 10.8503L16.8553 10.6682L16.6005 10.8503L16.6964 10.5557L16.4443 10.3762H16.7566L16.8553 10.0869ZM12.4119 10.8235L12.5105 11.1182H12.82L12.568 11.2976L12.6639 11.5869L12.4091 11.4075L12.1571 11.5869L12.253 11.295L11.9982 11.1155H12.3133L12.4119 10.8235ZM14.1898 10.8235L14.2857 11.1182H14.6007L14.3459 11.2976L14.4445 11.5869L14.1898 11.4075L13.935 11.5869L14.0336 11.295L13.7789 11.1155H14.0912L14.1898 10.8235ZM15.9649 10.8235L16.0636 11.1182H16.3759L16.1238 11.2976L16.2197 11.5869L15.9649 11.4075L15.7129 11.5869L15.8088 11.295L15.5568 11.1155H15.8691L15.9649 10.8235ZM17.7428 10.8235L17.8387 11.1182H18.1538L17.899 11.2976L17.9976 11.5869L17.7428 11.4075L17.4881 11.5869L17.5867 11.295L17.3319 11.1155H17.647L17.7428 10.8235ZM11.5243 11.5628L11.6229 11.8548H11.9352L11.6804 12.0343L11.7791 12.3289L11.5243 12.1468L11.2695 12.3262L11.3681 12.0343L11.1134 11.8548H11.4284L11.5243 11.5628ZM13.3022 11.5628L13.3981 11.8548H13.7131L13.4583 12.0343L13.5542 12.3289L13.3022 12.1468L13.0474 12.3262L13.1433 12.0343L12.8913 11.8548H13.2036L13.3022 11.5628ZM15.0774 11.5628L15.176 11.8548H15.4883L15.2362 12.0343L15.3321 12.3289L15.0774 12.1468L14.8253 12.3262L14.9212 12.0343L14.6664 11.8548H14.9842L15.0774 11.5628ZM16.8553 11.5628L16.9511 11.8548H17.2662L17.0114 12.0343L17.1073 12.3289L16.8553 12.1468L16.6005 12.3262L16.6964 12.0343L16.4443 11.8548H16.7566L16.8553 11.5628ZM12.4119 12.3021L12.5105 12.5941H12.82L12.5735 12.7735L12.6694 13.0655L12.4146 12.886L12.1626 13.0655L12.2585 12.7709L12.0037 12.5914H12.3187L12.4119 12.3021ZM14.1898 12.3021L14.2857 12.5941H14.6007L14.3459 12.7735L14.4445 13.0655L14.1898 12.886L13.935 13.0655L14.0336 12.7709L13.7789 12.5914H14.0912L14.1898 12.3021ZM15.9649 12.3021L16.0636 12.5941H16.3759L16.1238 12.7735L16.2197 13.0655L15.9649 12.886L15.7129 13.0655L15.8088 12.7709L15.5568 12.5914H15.8691L15.9649 12.3021ZM17.7428 12.3021L17.8387 12.5941H18.1538L17.899 12.7735L17.9976 13.0655L17.7428 12.886L17.4881 13.0655L17.5867 12.7709L17.3319 12.5914H17.647L17.7428 12.3021Z" fill-rule="evenodd"/>
<g clip-path="url(#clip1_15237_120118)">
<path fill="#82CB60" d="M14.0842 14.6483C13.1686 18.3206 9.44914 20.5555 5.77635 19.6398C2.1051 18.7242 -0.129829 15.0045 0.786108 11.3325C1.70124 7.65969 5.42074 5.4246 9.0924 6.34013C12.7649 7.25567 14.9997 10.9758 14.0841 14.6483L14.0841 14.6483H14.0842Z"/>
<path fill="white" d="M9.48334 10.3762C9.05442 9.55963 8.20435 9.57436 7.24486 9.87157L6.76331 8.69257L6.04568 8.98579L6.5146 10.1337C6.32591 10.2108 6.13461 10.2933 5.94454 10.3753L5.47269 9.21973L4.75543 9.51268L5.23661 10.6915C5.08257 10.7581 4.93114 10.8233 4.7824 10.8842L4.78081 10.8805L3.79085 11.2844L4.10411 12.0508C4.10411 12.0508 4.62995 11.8243 4.62511 11.8376C4.91579 11.719 5.07937 11.8491 5.16642 11.9835L5.71506 13.3266C5.73513 13.3185 5.76163 13.3086 5.79298 13.3006C5.76905 13.3104 5.74349 13.3207 5.71721 13.3318L6.48554 15.2135C6.51019 15.3101 6.51601 15.478 6.31303 15.5613C6.32557 15.5656 5.79133 15.7742 5.79133 15.7742L5.99877 16.6896L6.93271 16.3081C7.10662 16.2373 7.27882 16.1704 7.44716 16.1029L7.93452 17.2952L8.65144 17.0025L8.16949 15.8226C8.36802 15.7463 8.55909 15.6701 8.74505 15.594L9.2244 16.7685L9.94205 16.4752L9.45605 15.2848C10.6343 14.7228 11.3547 14.074 10.9967 12.8981C10.7087 11.9512 10.1133 11.7194 9.36128 11.8346C9.69085 11.4528 9.79853 10.9732 9.48361 10.3762L9.48332 10.3762L9.48334 10.3762ZM9.52068 13.336C9.88503 14.227 8.31782 14.7489 7.83163 14.948L7.18651 13.368C7.67308 13.1694 9.14111 12.4065 9.5207 13.336L9.52068 13.336ZM8.27644 11.2433C8.60736 12.0541 7.29623 12.4793 6.89111 12.6447L6.30592 11.2118C6.71105 11.0464 7.93103 10.3978 8.27649 11.2433L8.27644 11.2433Z"/>
</g>
</g>
<defs>
<clipPath id="clip0_15237_120118">
<rect fill="white" width="24" height="24" transform="translate(0.580811 0.935059)"/>
</clipPath>
<clipPath id="clip1_15237_120118">
<rect fill="white" width="13.7085" height="13.71" transform="translate(0.580811 6.13501)"/>
</clipPath>
</defs>
<metadata symbolName="BCHUSD" fileName="bchusd.svg" id="grimlock-metadata-id" lastUpdate="2025-02-10T09:58:22.589310423" symbolId="1415"/></svg>