<svg xmlns="http://www.w3.org/2000/svg" width="80" height="80" fill="none"><path fill="#98A2B3" d="M6 60.995h2.01v-4.83h4.647V54.59H8.01V51.2h5.325v-1.596H6v11.39Zm15.015-7.67c-.72-.737-1.66-1.103-2.82-1.103-.782 0-1.475.176-2.08.535a3.623 3.623 0 0 0-1.406 1.535c-.336.663-.501 1.414-.501 2.239v.095c0 1.325.364 2.38 1.09 3.179.728.798 1.696 1.19 2.91 1.19.797 0 1.497-.182 2.1-.541a3.608 3.608 0 0 0 1.4-1.522c.323-.656.488-1.4.488-2.239v-.446c-.069-1.218-.453-2.192-1.18-2.922Zm-1.283 5.404c-.364.5-.871.751-1.517.751-.645 0-1.16-.243-1.523-.737-.364-.494-.549-1.177-.549-2.043 0-.98.185-1.718.556-2.212.37-.494.871-.737 1.503-.737.631 0 1.146.25 1.516.75.371.501.563 1.178.563 2.037 0 .967-.178 1.697-.542 2.198l-.007-.007Zm6.142-9.124h-1.928v11.383h1.928V49.605Zm4.152 0h-1.929v11.383h1.929V49.605Zm8.544 3.72c-.72-.737-1.66-1.103-2.82-1.103-.783 0-1.476.176-2.08.535a3.622 3.622 0 0 0-1.407 1.535c-.336.663-.5 1.414-.5 2.239v.095c0 1.325.363 2.38 1.09 3.179.728.798 1.695 1.19 2.91 1.19.796 0 1.496-.182 2.1-.541a3.608 3.608 0 0 0 1.4-1.522c.322-.656.487-1.4.487-2.239v-.446c-.068-1.218-.453-2.192-1.18-2.922Zm-1.29 5.404c-.364.5-.872.751-1.517.751-.645 0-1.16-.243-1.523-.737-.364-.494-.55-1.177-.55-2.043 0-.98.186-1.718.557-2.212.37-.494.871-.737 1.502-.737.632 0 1.146.25 1.517.75.37.501.563 1.178.563 2.037 0 .967-.179 1.697-.542 2.198l-.007-.007Zm11.639-.352-1.88-6.155h-1.263l-1.853 6.088-1.469-6.088h-1.887l2.43 8.773h1.591l1.805-5.81 1.846 5.81h1.585l2.423-8.773h-1.894l-1.434 6.155Zm13.869-6.155c-1.133 0-2.011.433-2.635 1.299-.426-.866-1.208-1.299-2.354-1.299-1.05 0-1.819.352-2.423 1.049v-1.049h-1.928v8.773h1.928v-6.29c.323-.623.872-.934 1.64-.934 1.002 0 1.524.5 1.544 1.495v5.722h1.929V55.03c.103-.372.295-.676.576-.913.275-.23.638-.345 1.078-.345.549 0 .947.129 1.18.372.24.25.357.643.357 1.184v5.661h1.928v-5.715c-.014-1.008-.247-1.766-.707-2.286-.46-.514-1.166-.771-2.113-.771v.006Zm12.03 4.221c0-1.346-.316-2.388-.954-3.118-.638-.738-1.544-1.103-2.71-1.103a3.697 3.697 0 0 0-3.39 2.11c-.33.663-.495 1.421-.495 2.267v.236c0 1.265.377 2.273 1.14 3.03.761.758 1.75 1.137 2.97 1.137.714 0 1.36-.142 1.936-.42a3.464 3.464 0 0 0 1.38-1.176l-1.037-.981c-.556.703-1.276 1.055-2.155 1.055-.631 0-1.153-.203-1.564-.609-.419-.406-.652-.96-.707-1.657h5.607v-.764l-.021-.007Zm-1.908-.63H69.24c.089-.648.295-1.156.624-1.52.323-.366.755-.549 1.283-.549.529 0 .954.162 1.256.487.302.325.474.805.515 1.44v.143h-.007Zm-22.633-28.4a15.128 15.128 0 0 0-.247-2.362c-.192-1.028-.514-2.008-1.105-2.894a6.173 6.173 0 0 0-2.305-2.063c-1.126-.589-2.347-.846-3.603-.954a35.15 35.15 0 0 0-2.23-.122c-1.64-.04-3.274-.027-4.9.19-.886.121-1.75.324-2.567.683-1.627.717-2.752 1.9-3.39 3.53-.419 1.07-.584 2.185-.666 3.315a39.01 39.01 0 0 0-.075 3.585c.02.94.048 1.88.178 2.813.124.893.316 1.773.68 2.605.59 1.325 1.523 2.34 2.82 3.016.79.413 1.62.656 2.484.805l1.428-7.988h-2.89l.412-2.3h2.89l.494-2.753c.425-2.293 2.436-3.93 4.81-3.93h2.786l-.542 2.909h-1.29a1.87 1.87 0 0 0-1.853 1.515l-.405 2.26h3.301l-.411 2.299H40.78l-2.018 11.289 3.431-3.084a18.296 18.296 0 0 0 1.483-.142c1.173-.163 2.305-.46 3.328-1.076 1.132-.683 1.949-1.643 2.477-2.84.419-.948.632-1.956.72-2.977.076-.893.124-1.792.138-2.699.014-.879-.02-1.758-.048-2.63h-.014Z"/></svg>