<svg width="80" height="80" viewBox="0 0 80 80" fill="none" xmlns="http://www.w3.org/2000/svg">
<path d="M22.2407 43.9215V38.0131H24.4543C25.5886 38.0131 26.2347 38.8099 26.2347 39.7408C26.2347 40.6717 25.579 41.4686 24.4543 41.4686H22.7457V43.9239H22.2407V43.9215ZM25.7035 39.7408C25.7035 38.9966 25.189 38.4749 24.4016 38.4749H22.7457V41.0092H24.4016C25.189 41.0092 25.7035 40.4779 25.7035 39.7432" fill="#98A2B3"/>
<path d="M30.877 43.9215L30.2931 42.4689H27.1654L26.5815 43.9215H25.9976L28.4169 38.0131H29.0463L31.4657 43.9215H30.8818H30.877ZM28.7328 38.5539L27.3329 42.0095H30.1232L28.7328 38.5539Z" fill="#98A2B3"/>
<path d="M36.5557 43.9215L32.8345 38.8458V43.9215H32.3296V38.0131H32.8441L36.5485 43.0193V38.0131H37.0535V43.9215H36.5557Z" fill="#98A2B3"/>
<path d="M22.0898 51.139V45.2281H26.2705V46.3361H23.3486V47.5757H26.2083V48.6837H23.3486V51.139H22.0898Z" fill="#98A2B3"/>
<path d="M28.4072 45.2281H27.1484V51.1366H28.4072V45.2281Z" fill="#98A2B3"/>
<path d="M33.6506 51.139L30.8339 47.2838V51.139H29.5752V45.2281H30.8698L33.6075 48.9422V45.2281H34.8638V51.139H33.6506Z" fill="#98A2B3"/>
<path d="M40.1188 51.139L39.7479 50.1387H37.2137L36.8428 51.139H35.4165L37.6923 45.2306H39.2693L41.5451 51.139H40.1188ZM38.4796 46.4869L37.5583 49.0284H39.4009L38.4796 46.4869Z" fill="#98A2B3"/>
<path d="M46.1686 51.139L43.352 47.2838V51.139H42.0933V45.2281H43.3879L46.1255 48.9422V45.2281H47.3819V51.139H46.1686Z" fill="#98A2B3"/>
<path d="M48.2676 48.1884C48.2676 46.3625 49.6412 45.1324 51.4216 45.1324C52.7139 45.1324 53.4677 45.8312 53.8841 46.5755L52.8024 47.1067C52.5535 46.6281 52.0223 46.2476 51.4192 46.2476C50.3376 46.2476 49.5598 47.0708 49.5598 48.1884C49.5598 49.3059 50.34 50.1291 51.4192 50.1291C52.0223 50.1291 52.5535 49.7486 52.8024 49.27L53.8841 49.7917C53.4677 50.5264 52.7139 51.2443 51.4216 51.2443C49.6412 51.2443 48.2676 50.0047 48.2676 48.1884Z" fill="#98A2B3"/>
<path d="M54.6377 51.139V45.2281H58.8207V46.3361H55.8964V47.5757H58.7585V48.6837H55.8964V50.031H58.8207V51.139H54.6377Z" fill="#98A2B3"/>
<path d="M26.1749 59.3113L25.8016 58.311H23.2673L22.894 59.3113H21.4678L23.7436 53.4028H25.3206L27.5964 59.3113H26.1701H26.1749ZM24.5357 54.6592L23.6143 57.2006H25.457L24.5357 54.6592Z" fill="#98A2B3"/>
<path d="M32.277 59.3113L31.2408 55.2527L30.2142 59.3113H28.8765L27.1846 53.4028H28.5917L29.6279 57.672L30.755 53.4028H31.7361L32.8537 57.672L33.8899 53.4028H35.2994L33.6147 59.3113H32.277Z" fill="#98A2B3"/>
<path d="M39.5881 59.3113L39.2172 58.311H36.6829L36.312 59.3113H34.8857L37.1615 53.4028H38.7386L41.0143 59.3113H39.5881ZM37.9488 54.6592L37.0275 57.2006H38.8702L37.9488 54.6592Z" fill="#98A2B3"/>
<path d="M44.9027 59.3113L43.7421 57.2126H42.8208V59.3113H41.562V53.4028H44.326C45.5584 53.4028 46.3194 54.2093 46.3194 55.3077C46.3194 56.3439 45.6541 56.911 45.0176 57.0618L46.3553 59.3113H44.9027ZM45.0271 55.2981C45.0271 54.8099 44.6467 54.5108 44.1513 54.5108H42.8231V56.1046H44.1513C44.6467 56.1046 45.0271 55.8031 45.0271 55.2981Z" fill="#98A2B3"/>
<path d="M47.2573 59.3113V53.4028H49.5882C51.4404 53.4028 52.723 54.5802 52.723 56.3535C52.723 58.1267 51.438 59.3113 49.5953 59.3113H47.2573ZM51.4404 56.3535C51.4404 55.3173 50.8038 54.5108 49.5977 54.5108H48.5161V58.2057H49.5882C50.7584 58.2057 51.4404 57.3633 51.4404 56.3535Z" fill="#98A2B3"/>
<path d="M26.6075 66.7656L25.5713 62.7094L24.5423 66.7656H23.2046L21.5127 60.8572H22.9222L23.9584 65.1288L25.0831 60.8572H26.0667L27.1842 65.1288L28.2204 60.8572H29.6275L27.9452 66.7656H26.6075Z" fill="#98A2B3"/>
<path d="M31.4804 60.8572H30.2217V66.7656H31.4804V60.8572Z" fill="#98A2B3"/>
<path d="M36.7253 66.7656L33.9063 62.9128V66.7656H32.6499V60.8572H33.9421L36.6798 64.5688V60.8572H37.9385V66.7656H36.7253Z" fill="#98A2B3"/>
<path d="M43.1823 66.7656L40.3657 62.9128V66.7656H39.1069V60.8572H40.4016L43.1392 64.5688V60.8572H44.398V66.7656H43.1823Z" fill="#98A2B3"/>
<path d="M45.5654 66.7656V60.8572H49.7485V61.9652H46.8242V63.2048H49.6863V64.3127H46.8242V65.66H49.7485V66.7656H45.5654Z" fill="#98A2B3"/>
<path d="M54.0707 66.7679L52.91 64.6692H51.9887V66.7679H50.73V60.8595H53.494C54.7264 60.8595 55.4874 61.666 55.4874 62.7644C55.4874 63.8006 54.8221 64.3677 54.1855 64.5185L55.5233 66.7679H54.0707ZM54.1951 62.7524C54.1951 62.2642 53.8146 61.9651 53.3193 61.9651H51.9911V63.5589H53.3193C53.8146 63.5589 54.1951 63.2573 54.1951 62.7524Z" fill="#98A2B3"/>
<path d="M29.5318 7.10205H17.3345C16.0135 7.10205 14.9414 8.17414 14.9414 9.4951V72.607C14.9414 73.9279 16.0135 75 17.3345 75H62.9531C64.2741 75 65.3462 73.9279 65.3462 72.607V9.4951C65.3462 8.17414 64.2741 7.10205 62.9531 7.10205H50.7558" stroke="#98A2B3" stroke-width="0.7" stroke-miterlimit="10"/>
<path d="M31.9163 9.05724V9.10724H31.9663H31.9687H34.9169H34.9669V9.05724V8.70785V8.65785H34.9169H32.7056C33.3079 8.16866 33.8518 7.70847 34.2521 7.25392C34.6762 6.77225 34.9454 6.28985 34.9454 5.77876C34.9454 5.32047 34.7433 4.99135 34.4587 4.77823C34.1758 4.56637 33.813 4.47002 33.4883 4.47002C32.8429 4.47002 32.2862 4.73667 31.9596 5.17954L31.933 5.21551L31.9658 5.24589L32.2267 5.48759L32.2688 5.52658L32.3016 5.47957C32.5308 5.15182 32.9457 4.91701 33.4859 4.91701C33.723 4.91701 33.9664 4.98192 34.1493 5.12126C34.3304 5.25926 34.4553 5.47249 34.4553 5.77876C34.4553 6.19216 34.2124 6.61441 33.7699 7.09145C33.3283 7.56752 32.6965 8.08933 31.935 8.70241L31.9163 8.71742V8.74136V9.05724Z" fill="#98A2B3" stroke="#98A2B3" stroke-width="0.1"/>
<path d="M39.7693 6.82452C39.7693 6.28612 39.654 5.70038 39.3848 5.24739C39.1145 4.79235 38.6874 4.47002 38.0705 4.47002C37.4466 4.47002 37.0177 4.79407 36.7473 5.25012C36.4781 5.70405 36.3646 6.2898 36.3646 6.82452C36.3646 7.35946 36.4811 7.94694 36.7518 8.40255C37.0235 8.86011 37.4523 9.18621 38.0705 9.18621C38.6887 9.18621 39.1158 8.86197 39.3858 8.40515C39.6546 7.95038 39.7693 7.36288 39.7693 6.82452ZM36.8666 6.82692C36.8666 6.3681 36.9432 5.88774 37.1334 5.52404C37.3223 5.16278 37.6208 4.9194 38.0705 4.9194C38.5163 4.9194 38.8113 5.16466 38.9976 5.52732C39.1852 5.89232 39.2601 6.37281 39.2601 6.82692C39.2601 7.28118 39.187 7.76288 39.0003 8.12906C38.8148 8.49278 38.5198 8.73922 38.0705 8.73922C37.6209 8.73922 37.3224 8.49477 37.1334 8.13225C36.9432 7.76732 36.8666 7.28573 36.8666 6.82692Z" fill="#98A2B3" stroke="#98A2B3" stroke-width="0.1"/>
<path d="M40.9617 9.05724V9.10724H41.0117H41.0141H43.9623H44.0123V9.05724V8.70785V8.65785H43.9623H41.7511C42.3533 8.16866 42.8973 7.70847 43.2975 7.25392C43.7216 6.77225 43.9908 6.28985 43.9908 5.77876C43.9908 5.32047 43.7887 4.99135 43.5041 4.77823C43.2212 4.56637 42.8584 4.47002 42.5337 4.47002C41.8883 4.47002 41.3316 4.73667 41.005 5.17954L40.9785 5.21551L41.0112 5.24589L41.2721 5.48759L41.3142 5.52658L41.347 5.47957C41.5762 5.15182 41.9911 4.91701 42.5313 4.91701C42.7684 4.91701 43.0118 4.98192 43.1947 5.12126C43.3758 5.25926 43.5007 5.47249 43.5007 5.77876C43.5007 6.19216 43.2578 6.61441 42.8153 7.09145C42.3737 7.56752 41.7419 8.08933 40.9804 8.70241L40.9617 8.71742V8.74136V9.05724Z" fill="#98A2B3" stroke="#98A2B3" stroke-width="0.1"/>
<path d="M47.375 9.05725V9.10725H47.425H47.8079H47.8579V9.05725V7.8868H48.4636H48.5136V7.8368V7.48741V7.43741H48.4636H47.8579V4.58704V4.53704H47.8079H47.291H47.2645L47.2497 4.55886L45.2658 7.46641L45.2571 7.47916V7.49459V7.8368V7.8868H45.3071H47.375V9.05725ZM47.375 7.4398H45.7967L47.375 5.13163V7.4398Z" fill="#98A2B3" stroke="#98A2B3" stroke-width="0.1"/>
<path d="M43.8642 20.314L41.2144 22.9639L43.8642 25.6138L46.5141 22.9639L43.8642 20.314Z" fill="#98A2B3"/>
<path d="M56.119 20.3214L53.4699 22.9705L50.8208 25.6196L53.4699 28.2687L56.119 25.6196L58.7681 22.9705L56.119 20.3214Z" fill="#98A2B3"/>
<path d="M48.1753 17.6648L45.5254 20.3147L48.1753 22.9646L50.8252 20.3147L48.1753 17.6648Z" fill="#98A2B3"/>
<path d="M53.4696 17.6723L50.8205 15.0232L48.1714 17.6723L50.8205 20.3214L53.4696 22.9705L56.1187 20.3214L53.4696 17.6723Z" fill="#98A2B3"/>
<path d="M50.8256 25.6122L48.1764 22.9631L45.5273 25.6122L48.1764 28.2613L50.8256 30.9104L53.4747 28.2613L50.8256 25.6122Z" fill="#98A2B3"/>
</svg>
