<svg width="79" height="80" fill="none" xmlns="http://www.w3.org/2000/svg"><path d="M0 21.177h8.887v3.01H3.725v2.267H8.28v3.101H3.724v5.555H0V21.178Zm32.92 13.934-2.193-3.697H28.42v3.696h-3.727V21.178h5.976c2.875-.006 5.211 2.279 5.217 5.103a5.074 5.074 0 0 1-1.681 3.776l2.997 5.054H32.92Zm-4.499-6.855h2.307c1.122.038 2.063-.826 2.1-1.93.038-1.102-.842-2.026-1.964-2.063a2.4 2.4 0 0 0-.137 0H28.42v3.993Zm-12.278 3.818h-.853a1.047 1.047 0 0 1-1.056-1.038v-5.782c0-.574.473-1.038 1.056-1.038h.853v-3.028c-3.91.219-6.9 3.51-6.677 7.351.205 3.536 3.078 6.358 6.677 6.56v-3.025Zm.422-10.883v3.025h.853c.583 0 1.056.464 1.056 1.038v5.782c0 .573-.473 1.038-1.056 1.038h-.853v3.025c3.91-.219 6.9-3.51 6.677-7.351-.205-3.536-3.078-6.358-6.677-6.56m21.816-.01h8.813v3.028h-5.086v2.266h4.5v3.083h-4.5v2.564h5.086v2.991H38.38V21.178Zm20.324 5.957 4.504-6.35h-4.433l-2.29 3.236 2.219 3.114Z" fill="#98A2B3"/><path d="m54.475 32.879 3.76-5.207-.01-.016h.001L49.98 16.02l.003-.002-.014-.018h-4.43l8.237 11.656-8.777 12.227h4.433l5.046-7.002-.002-.002Z" fill="#98A2B3"/><path d="m51.773 29.416 1.268-1.755-.003-.005-2.779-3.92v-.003l-.005-.005H48.76l2.778 3.928-2.958 4.12h1.494l1.7-2.36Zm7.82 0-.003.002-.874-1.227-2.228 3.085 2.747 3.832h4.434l-4.077-5.692Zm-32.167 7.782h8.672v2.98h-5.005v2.231h4.43v3.036h-4.43v2.522h5.005v2.943h-8.672V37.198Zm23.944 0-4.652 6.564 5.12 7.148h-4.469l-2.884-4.022-2.905 4.022h-4.468l5.12-7.148-4.653-6.564h4.468l2.438 3.418 2.418-3.418h4.467Zm1.684 0h5.882c2.832.034 5.1 2.318 5.065 5.1-.035 2.705-2.237 4.9-4.99 4.973h-2.287v3.639h-3.66l-.01-13.712Zm3.66 6.966h2.272c1.105.037 2.03-.813 2.068-1.898.037-1.086-.828-1.996-1.933-2.032a2.354 2.354 0 0 0-.135 0h-2.272v3.93Zm15.288-6.966c3.855-.01 6.988 3.051 6.998 6.838.01 3.786-3.107 6.864-6.961 6.874-3.855.01-6.988-3.052-6.998-6.838 0-3.783 3.11-6.855 6.961-6.874Zm0 3.584c-1.84-.001-3.334 1.464-3.335 3.272 0 1.809 1.49 3.276 3.331 3.276 1.841.002 3.335-1.463 3.335-3.272v-.002c.006-1.803-1.479-3.27-3.314-3.274h-.017Zm-8.924 17.96h1.304l-.655-2.067-.65 2.067ZM36.31 56.114h-.492v3.745h.508c.42 0 .742-.147.967-.44.225-.293.337-.73.337-1.308v-.257c0-.576-.112-1.01-.337-1.302-.225-.292-.552-.438-.983-.438Zm18.967 1.203c.136-.112.204-.278.204-.496 0-.252-.074-.433-.221-.545-.147-.11-.385-.166-.713-.166h-.716v1.38h.762c.32-.004.547-.061.684-.173Zm-.421 1.114h-1.025v1.429h.958c.264 0 .467-.06.609-.178.141-.119.212-.286.212-.502 0-.496-.251-.746-.754-.749Z" fill="#98A2B3"/><path d="M27.426 52.856V63H79V52.856H27.426Zm11.697 5.255c0 .546-.117 1.035-.351 1.467-.235.432-.566.77-.992 1.015a2.856 2.856 0 0 1-1.426.37h-1.996v-5.958h1.955c.535 0 1.017.119 1.445.358.428.239.761.576 1.002 1.01.24.436.362.924.365 1.464v.274h-.002Zm8.921.795c0 .442-.096.825-.288 1.148a1.85 1.85 0 0 1-.824.738c-.359.17-.782.254-1.271.254-.739 0-1.321-.188-1.746-.565-.425-.377-.641-.892-.65-1.547v-3.929h1.471v3.958c.017.652.325.978.925.978.302 0 .531-.082.687-.246.156-.163.233-.43.233-.798v-3.892h1.462l.001 3.9Zm8.46 1.61c-.376.294-.933.443-1.672.448H52.37v-5.959h2.178c.78 0 1.374.14 1.781.422.407.281.61.69.61 1.224a1.4 1.4 0 0 1-.215.79 1.26 1.26 0 0 1-.638.483c.317.082.56.234.73.458.168.224.253.497.253.818 0 .584-.188 1.023-.564 1.316Zm8.582.448-.355-1.113h-2.004l-.35 1.113h-1.562l2.225-5.959h1.375l2.24 5.96h-1.57Zm6.983 0h-1.458v-5.959h1.458v5.96Z" fill="#98A2B3"/></svg>