<svg xmlns="http://www.w3.org/2000/svg" width="80" height="80" fill="none"><path fill="#98A2B3" d="M25.835 45.491c-.291 0-.458.017-.542.042v1.476h.476c.6 0 .959-.309.959-.776 0-.492-.334-.742-.893-.742Zm26.094 8.764h.475c.6 0 .96-.308.96-.775 0-.492-.335-.742-.893-.742-.292 0-.459.017-.542.042v1.475Zm6.213 8.106h-.009c-.058.242-.125.55-.183.784l-.242.867h.9l-.25-.867c-.066-.242-.141-.55-.208-.784h-.008ZM39.428 38.253c-.825 0-1.3.775-1.3 1.818 0 1.042.492 1.792 1.3 1.792s1.285-.775 1.285-1.817c0-.968-.46-1.793-1.293-1.793h.008Zm6.388 8.497h.392c.642 0 .976-.267.976-.667s-.309-.625-.86-.625c-.266 0-.416.016-.516.041v1.251h.008Zm-4.42-1.217h-.016c-.075.317-.158.725-.242 1.034l-.317 1.134h1.185l-.334-1.142c-.092-.317-.184-.718-.267-1.035l-.008.009Zm4.837 2.085h-.417v1.509c.117.017.259.025.467.025.55 0 1.034-.217 1.034-.776 0-.558-.483-.75-1.084-.75v-.008Zm-8.08 14.71c-.226 0-.35.017-.418.033v1.126h.359c.459 0 .734-.234.734-.592 0-.375-.259-.567-.676-.567Zm14.902-39.953c.442 0 .692-.56.692-1.668s-.233-1.651-.692-1.651c-.417 0-.7.525-.7 1.66 0 1.125.266 1.65.708 1.65l-.008.009Zm1.159 41.57h-.317v1.152c.092.016.2.016.35.016.417 0 .784-.158.784-.592 0-.434-.367-.575-.825-.575h.008Zm4.878-32.814c.91.075 1.66-.384 1.96-1.21a2.28 2.28 0 0 0 .108-1.159c-.125-.758-.517-1.309-1.259-1.542-.776-.234-1.468-.067-2.01.559-.333.383-.458.842-.467 1.417.009.084.025.25.05.417.15.826.81 1.434 1.618 1.501v.017ZM54.94 62.778c0-.308-.233-.475-.65-.475-.2 0-.317.017-.392.025v.95h.3c.492 0 .742-.2.742-.508v.008Zm-4.528-.442c-.625 0-.992.592-.992 1.384 0 .793.375 1.36.992 1.36s.984-.592.984-1.384c0-.734-.35-1.368-.984-1.368v.008ZM38.22 56.357c.818 0 1.285-.776 1.285-1.818 0-.967-.459-1.793-1.293-1.793s-1.3.776-1.3 1.818.491 1.793 1.3 1.793h.008Zm-10.633-2.36h.392c.642 0 .976-.267.976-.667s-.309-.625-.859-.625c-.267 0-.417.016-.517.041v1.251h.009Z"/><path fill="#98A2B3" d="M61.928 11H19.072C14.62 11 11 14.62 11 19.072V61.92a8.074 8.074 0 0 0 8.072 8.073H61.92a8.074 8.074 0 0 0 8.073-8.073V19.072A8.074 8.074 0 0 0 61.919 11h.009Zm-.7 7.272h.941v4.878h-1.1v-3.86h-.017l-.926.441-.191-.859 1.292-.6Zm1.709 10.85c.041 1.65-1.218 3.635-3.67 3.643-2.076.009-3.594-1.75-3.594-3.644 0-2.16 1.851-3.66 3.603-3.644 1.926.025 3.686 1.543 3.66 3.644Zm-7.489-6.656.626-.567c1.067-.959 1.584-1.5 1.592-2.076 0-.4-.233-.709-.8-.709-.417 0-.784.208-1.043.4l-.317-.817c.367-.275.934-.5 1.593-.5 1.11 0 1.71.642 1.71 1.526 0 .817-.584 1.476-1.301 2.101l-.45.376v.016H58.9v.943h-3.46v-.693h.008Zm-2.385-4.278c1.301 0 1.818 1.168 1.818 2.502 0 1.501-.609 2.544-1.851 2.544-1.243 0-1.818-1.134-1.827-2.51 0-1.418.592-2.536 1.86-2.536Zm.784 7.74c.442.224.817.533 1.126.925.05.058.091.125.158.225-.5.275-.967.534-1.443.792-.091-.083-.183-.15-.266-.233-.8-.75-2.344-.667-3.044.05-.626.634-.76 1.392-.484 2.193.275.809.917 1.2 1.751 1.268.743.058 1.418-.125 1.943-.693.025-.025.05-.041.1-.083.45.309.893.609 1.351.934-.058.083-.108.15-.158.209-.634.725-1.443 1.109-2.393 1.217a4.954 4.954 0 0 1-2.01-.158c-1.318-.4-2.302-1.618-2.452-2.986-.217-1.943 1.068-3.702 3.136-4.036.925-.15 1.826-.067 2.677.375h.008Zm-6.73-3.462.626-.567c1.067-.959 1.584-1.5 1.592-2.076 0-.4-.233-.709-.8-.709-.417 0-.784.209-1.043.4l-.317-.817c.368-.275.935-.5 1.593-.5 1.11 0 1.71.642 1.71 1.526 0 .817-.584 1.476-1.301 2.101l-.45.376v.016h1.843v.943h-3.461v-.693h.008Zm-.792 8.298c.567.017.992.45.992 1.009 0 .55-.458 1.017-1 1a1.01 1.01 0 0 1-1.01-1.033c.017-.55.468-1.001 1.018-.984v.008Zm-3.986-1.193c0 .192.017.392.05.584.067.334.275.517.609.534.3.025.608.008.909.017h.3v1.968h-7.98c-.017-.642 0-1.276 0-1.943.09-.009.166-.025.241-.025h.934c.525-.017.734-.2.809-.726a2.444 2.444 0 0 0 .025-.342v-5.112c0-.15-.017-.3-.042-.45-.067-.417-.292-.625-.725-.642-.309-.017-.626 0-.934 0h-.3V21.49c.2-.059 5.487-.084 6.07-.025 0 .1.017.2.017.3v7.814l.017-.009Zm-2.135-13.35c1.218.008 2.135.942 2.127 2.168 0 1.2-.934 2.118-2.152 2.11-1.218 0-2.135-.935-2.135-2.169 0-1.2.95-2.126 2.16-2.118v.008ZM29.138 28.378c.016-2.468 0-4.937 0-7.405 0-.65.033-1.301.175-1.943l.075-.309c.417-1.51 1.401-2.402 2.935-2.693 1.11-.209 2.219-.192 3.311.116.442.125.859.3 1.234.576.7.5 1.026 1.184.976 2.051-.05.767-.609 1.501-1.318 1.685-1.059.267-2.26-.5-2.076-1.802.067-.45.308-.767.759-.909.041-.016.083-.025.125-.041 0 0 .016-.009.041-.034-.408-.108-.808-.166-1.217-.091a.953.953 0 0 0-.742.658 2.96 2.96 0 0 0-.159.81c-.025.767-.016 1.534-.016 2.301 0 .025.008.05.025.117h1.951v1.96c-.058 0-.133.025-.2.025h-.934c-.567.008-.842.275-.842.842v5.379c0 .175.016.358.058.525.075.317.267.492.6.517.326.025.66.017.993.017h.333v1.96H27.47s-.033-.05-.05-.067c.042-.017.092-.025.125-.05.834-.7 1.284-1.61 1.468-2.66.091-.501.133-1.01.141-1.51l-.016-.025Zm-11.617-3.32c.476-1.817 1.61-3.093 3.37-3.777 1.675-.65 3.377-.633 5.061 0 .6.225 1.134.559 1.576 1.034.86.934 1.151 2.043.843 3.27-.276 1.133-1.226 1.759-2.394 1.617a3.388 3.388 0 0 1-.825-.183c-.634-.242-.976-.726-1.018-1.401-.008-.2-.008-.417.025-.61.142-.758.726-1.267 1.518-1.358.083-.009.167-.017.3-.034-.075-.083-.125-.15-.183-.2-.626-.5-1.334-.709-2.127-.567-.5.092-.875.384-1.176.776-.341.45-.55.959-.658 1.5a9.098 9.098 0 0 0 .075 4.079c.075.291.208.575.358.833.309.526.784.81 1.393.893.292.041.584.041.876-.034.542-.141.917-.5 1.167-.984.183-.358.284-.75.342-1.142.192-.058 1.96-.075 2.418-.025 0 .033.025.075.025.117-.05.984-.308 1.893-.95 2.668-.526.626-1.201 1.034-1.985 1.251-1.651.467-3.294.425-4.904-.175-1.492-.567-2.485-1.635-2.977-3.152a7.674 7.674 0 0 1-.133-4.378l-.017-.017Zm4.437 40.688h-1.001l-.35-1.76a15.994 15.994 0 0 1-.2-1.259h-.009c-.066.459-.133.85-.233 1.26l-.392 1.75h-1.01l-.966-4.086h.992l.308 1.685c.084.484.175 1.017.234 1.426h.017c.066-.442.166-.934.266-1.443l.35-1.668h.985l.325 1.727c.083.475.158.909.217 1.367h.016c.067-.458.15-.925.242-1.417l.334-1.668h.934l-1.05 4.086h-.01Zm2.46 0h-.926v-4.086h.926v4.086Zm4.186 0h-.967l-.876-1.576a16.537 16.537 0 0 1-.709-1.443h-.016c.025.542.041 1.118.041 1.785v1.226h-.85v-4.087h1.075l.851 1.501c.242.426.484.943.667 1.401h.017a15.833 15.833 0 0 1-.075-1.71v-1.192h.85v4.087l-.008.008Zm4.178 0h-.967l-.876-1.576a16.537 16.537 0 0 1-.709-1.443h-.016c.025.542.041 1.118.041 1.785v1.226h-.85v-4.087h1.075l.851 1.501c.242.426.484.943.667 1.401h.017a15.86 15.86 0 0 1-.075-1.71v-1.192h.85v4.087l-.008.008Zm3.402 0h-2.601v-4.086H36.1v.759h-1.593v.85h1.501v.75h-1.5v.968h1.676v.759Zm2.77 0c-.068-.117-.168-.45-.285-.95-.116-.51-.283-.651-.667-.651h-.275v1.601h-.917v-4.028c.3-.05.734-.092 1.226-.092.609 0 1.026.092 1.317.326.242.191.376.483.376.859 0 .517-.367.875-.718 1v.017c.284.117.442.384.543.759.125.459.25.992.325 1.15h-.943l.017.009Zm6.095-.183c-.283.1-.826.233-1.36.233-.741 0-1.284-.183-1.659-.55-.375-.35-.584-.884-.575-1.485 0-1.359.992-2.126 2.335-2.126.525 0 .934.1 1.134.192l-.192.742c-.225-.1-.5-.175-.95-.175-.768 0-1.351.433-1.351 1.317 0 .884.533 1.335 1.284 1.335.208 0 .375-.025.45-.059v-.859h-.634v-.717h1.526v2.152h-.008Zm3.269.183h-2.543v-4.086h.925v3.31h1.626v.776h-.008Zm2.051.067c-1.209 0-1.926-.918-1.926-2.085s.784-2.135 1.985-2.135c1.2 0 1.934.934 1.934 2.068 0 1.343-.808 2.152-2 2.152h.007Zm5.212-.392c-.3.242-.792.375-1.6.375a8.315 8.315 0 0 1-1.001-.058v-4.012c.241-.05.725-.091 1.192-.091.559 0 .91.058 1.21.225.283.15.483.434.483.8s-.209.701-.667.868v.016c.467.125.809.476.809 1.001 0 .375-.175.667-.426.867v.009Zm3.47.325-.317-1.05h-1.176l-.292 1.05h-.95l1.242-4.086h1.21l1.267 4.086h-.993.009Zm4.086 0h-2.544v-4.086h.926v3.31h1.626v.776h-.008Zm-23.05-5.854-22.232-.55 22.232-.55 23.066.55-23.066.55ZM27.703 48.477c.167.608.326 1.309.434 1.509h-1.242c-.084-.159-.217-.584-.367-1.251-.15-.667-.376-.85-.876-.859h-.359v2.102h-1.2V44.69c.391-.066.967-.116 1.609-.116.792 0 1.351.125 1.735.425.316.25.5.634.5 1.126 0 .675-.484 1.15-.95 1.317v.025c.375.15.583.51.716 1.001v.008Zm16.445-7.99c-.892-.316-1.476-.8-1.476-1.584 0-.917.768-1.61 2.027-1.61.609 0 1.05.126 1.367.267l-.266.976c-.217-.1-.6-.258-1.118-.258-.517 0-.784.241-.784.517 0 .342.3.492.993.75.95.359 1.392.85 1.392 1.61 0 .892-.684 1.66-2.16 1.66-.608 0-1.217-.168-1.517-.334l.241-1.001c.317.175.826.333 1.343.333.559 0 .85-.233.85-.583 0-.326-.258-.526-.9-.75l.008.008Zm12.534 6.247v.984h-1.976v1.276h2.21v.992h-3.42v-5.362H56.8v.992h-2.093v1.118h1.976Zm-2.61 5.52c.317.25.5.634.5 1.126 0 .675-.483 1.15-.95 1.317v.025c.375.15.584.51.717 1.001.167.609.325 1.31.434 1.51H53.53c-.083-.159-.217-.584-.367-1.251-.15-.667-.375-.85-.875-.86h-.36v2.102h-1.2v-5.287a10.14 10.14 0 0 1 1.61-.117c.792 0 1.35.126 1.734.426v.008Zm-1.3-2.268h-3.345v-5.362h1.21v4.344h2.134v1.018Zm-3.111 4.003v.984h-1.977v1.276h2.21v.992h-3.419v-5.362h3.302v.992h-2.093v1.118h1.977Zm1.159-15.595h-1.468v4.345h-1.21v-4.345H46.7v-1.017h4.128v1.017h-.008Zm-3.052 6.488c.375.2.642.567.642 1.06 0 .491-.275.917-.884 1.142v.016c.609.159 1.067.626 1.067 1.318 0 .492-.225.876-.559 1.143-.391.316-1.042.492-2.11.492-.6 0-1.042-.042-1.309-.076v-5.262a10.13 10.13 0 0 1 1.568-.116c.742 0 1.193.075 1.585.3v-.017Zm-4.954 9.365a9.959 9.959 0 0 1 .367-.584L44.4 51.88h1.492l-1.776 2.285 1.868 3.077h-1.41l-1.317-2.31-.459.559v1.751h-1.2v-5.362h1.2v2.368h.017Zm1.084-4.261H42.59l-.409-1.376h-1.542l-.376 1.376h-1.25l1.634-5.362h1.584l1.668 5.362ZM39.37 42.83c-1.593 0-2.527-1.201-2.527-2.735 0-1.535 1.034-2.802 2.61-2.802 1.576 0 2.544 1.234 2.544 2.718 0 1.76-1.06 2.819-2.627 2.819Zm-1.034 1.793v5.362h-1.21v-5.362h1.21Zm-.092 7.163c1.643 0 2.544 1.234 2.544 2.719 0 1.76-1.06 2.818-2.627 2.818-1.568 0-2.527-1.2-2.527-2.735s1.034-2.802 2.61-2.802Zm-1.843-1.801h-3.344v-5.362h1.21v4.345H36.4v1.017Zm-1.593 5.737c.167.609.326 1.31.434 1.51H34c-.084-.159-.217-.584-.367-1.251-.15-.667-.376-.85-.876-.86h-.359v2.102h-1.2v-5.287a10.14 10.14 0 0 1 1.61-.116c.791 0 1.35.125 1.734.425.316.25.5.634.5 1.126 0 .675-.484 1.15-.95 1.317v.025c.375.15.583.509.716 1v.01Zm.176-12.984-.084-2.051c-.025-.65-.05-1.426-.05-2.21h-.025c-.167.684-.4 1.45-.6 2.085l-.66 2.093h-.941l-.576-2.068a26.974 26.974 0 0 1-.483-2.102h-.017c-.025.726-.058 1.56-.092 2.227l-.1 2.034H30.23l.342-5.362h1.618l.525 1.793c.167.617.334 1.293.45 1.918h.026c.15-.617.325-1.326.508-1.926l.567-1.785h1.585l.283 5.362H34.96l.025-.008Zm-2.87 1.885v.992h-2.092v1.118h1.976v.984h-1.976v1.276h2.21v.992h-3.42v-5.362h3.303Zm-2.576 7.513c.375.2.642.567.642 1.06 0 .492-.275.917-.884 1.142v.017c.609.158 1.068.625 1.068 1.317 0 .492-.225.876-.56 1.143-.391.317-1.041.492-2.109.492-.6 0-1.042-.042-1.31-.075V51.97c.318-.059.96-.117 1.569-.117.742 0 1.192.075 1.584.3v-.017Zm10.55-16.545-22.233-.55 22.232-.55 23.067.55-23.067.55Z"/><path fill="#98A2B3" d="M28.004 54.864h-.417v1.51c.117.016.258.025.467.025.55 0 1.034-.217 1.034-.776s-.484-.75-1.084-.75v-.009Zm4.936-2.126c-.291 0-.458.017-.542.042v1.475h.476c.6 0 .959-.308.959-.775 0-.492-.334-.742-.892-.742Z"/></svg>