<svg width="80" height="80" viewBox="0 0 80 80" fill="none" xmlns="http://www.w3.org/2000/svg">
<path d="M39.0668 54.4198C31.572 54.4198 25.2083 55.0815 20.2027 55.8433C20.4335 54.9815 20.9029 52.6191 20.9029 47.7252C20.9029 31.8659 7.97545 22.6974 7.97545 22.6974V21.3277L7.77923 20.9353L7.80232 19L7.47528 19.5656V58.4981C3.32002 59.6254 1 60.5449 1 60.5449H4.38962C4.38962 60.5449 18.9484 55.1123 39.1976 55.1123C59.4468 55.1123 71.1354 58.4134 80 60.6757C80 60.6757 61.663 54.4198 39.0668 54.4198ZM18.9407 47.3558H9.61832V46.7056H18.9253C18.933 46.921 18.9369 47.1404 18.9407 47.3558ZM18.8984 46.1208H9.61832V45.4706H18.8561C18.8715 45.686 18.8869 45.9053 18.8984 46.1208ZM18.8099 44.9781H9.67988V44.3279H18.7368C18.7637 44.5433 18.7868 44.7626 18.8061 44.9781H18.8099ZM18.6714 43.7738H9.68373V43.1236H18.5752C18.6098 43.3391 18.6445 43.5584 18.6753 43.7738H18.6714ZM18.4752 42.5657H9.67988V41.9155H18.3482C18.3944 42.131 18.4367 42.3503 18.4752 42.5657ZM18.2213 41.3268H9.68373V40.6766H18.0674C18.1212 40.8921 18.1751 41.1075 18.2251 41.3268H18.2213ZM17.9442 40.2188H9.67988V39.5685H17.7596C17.825 39.784 17.8827 39.9995 17.9442 40.2188ZM17.5595 38.9183H9.67988V38.2681H17.3402C17.4133 38.4836 17.4864 38.699 17.5595 38.9183ZM17.1247 37.6564H9.68373V37.0061H16.8746C16.9593 37.2216 17.0439 37.437 17.1247 37.6564ZM16.6438 36.4406H9.68373V35.7903H16.3629C16.4591 36.0058 16.5515 36.2213 16.6438 36.4406ZM9.38747 25.6792C11.0804 27.4029 13.1464 29.846 14.924 32.9548H9.54137L9.38747 25.6792ZM18.5098 54.5506H9.61832V53.9003H18.606C18.5752 54.1389 18.5406 54.3544 18.5098 54.5506ZM18.6676 53.3771H9.61447V52.7269H18.733C18.7099 52.9577 18.6868 53.1732 18.6637 53.3771H18.6676ZM18.783 52.2036H9.61832V51.5534H18.8292C18.8138 51.7804 18.7984 51.9959 18.783 52.2036ZM18.8599 51.0071H9.61447V50.3568H18.8907C18.883 50.58 18.8715 50.7993 18.8599 51.0071ZM18.9138 49.7682H9.61832V49.118H18.9292C18.9253 49.3411 18.9176 49.5604 18.9138 49.7682ZM18.9369 48.5293H9.61447V47.8791H18.9407C18.9407 48.1022 18.9407 48.3177 18.9369 48.5293Z" fill="#98A2B3"/>
<path d="M23.2847 27.9645H26.5088V29.1726H24.512V30.3538H26.5088V31.5426H24.512V34.4667H23.2847V27.9683V27.9645Z" fill="#98A2B3"/>
<path d="M29.7368 29.5304C30.1908 29.5304 30.6179 29.642 31.0142 29.869C31.4143 30.096 31.726 30.4038 31.9491 30.7924C32.1723 31.181 32.2838 31.6003 32.2838 32.0505C32.2838 32.5006 32.1723 32.9277 31.9453 33.324C31.7183 33.7203 31.4143 34.0281 31.0257 34.2512C30.6371 34.4744 30.21 34.586 29.7407 34.586C29.052 34.586 28.4633 34.3397 27.9747 33.8511C27.486 33.3625 27.2437 32.7661 27.2437 32.062C27.2437 31.3579 27.5207 30.6846 28.0709 30.1845C28.5556 29.7497 29.1097 29.5304 29.7368 29.5304ZM29.756 30.6692C29.3828 30.6692 29.0674 30.8001 28.8211 31.0617C28.571 31.3233 28.4479 31.6542 28.4479 32.062C28.4479 32.4699 28.571 32.82 28.8173 33.0778C29.0635 33.3355 29.3751 33.4664 29.7522 33.4664C30.1293 33.4664 30.4447 33.3355 30.6948 33.0739C30.9449 32.8123 31.0719 32.4737 31.0719 32.062C31.0719 31.6503 30.9488 31.3156 30.7025 31.0578C30.4563 30.8001 30.1408 30.6731 29.756 30.6731V30.6692Z" fill="#98A2B3"/>
<path d="M32.9877 29.6573H34.0227V30.2614C34.1343 30.0228 34.2843 29.842 34.469 29.7189C34.6537 29.5957 34.8576 29.5342 35.0769 29.5342C35.2962 29.5342 35.3962 29.5765 35.5655 29.6573L35.1885 30.6961C35.0461 30.6269 34.9307 30.5884 34.8384 30.5884C34.6537 30.5884 34.4959 30.7038 34.369 30.9347C34.242 31.1655 34.1766 31.6157 34.1766 32.2851V32.5198C34.1804 32.5198 34.1804 34.4628 34.1804 34.4628H32.9839V29.6535L32.9877 29.6573Z" fill="#98A2B3"/>
<path d="M40.983 32.4083H37.1087C37.1664 32.7507 37.3126 33.02 37.5588 33.224C37.8012 33.424 38.1128 33.5279 38.4899 33.5279C38.8669 33.5279 39.3286 33.3702 39.6518 33.0547L40.6676 33.5318C40.4136 33.8896 40.1097 34.1589 39.7557 34.3282C39.4017 34.5013 38.9824 34.586 38.4976 34.586C37.7435 34.586 37.1279 34.3474 36.6547 33.8742C36.1814 33.3971 35.9429 32.8007 35.9429 32.0851C35.9429 31.3695 36.1776 30.7423 36.6508 30.2576C37.124 29.7728 37.7166 29.5304 38.4283 29.5304C39.1401 29.5304 39.8019 29.7728 40.2751 30.2576C40.7484 30.7423 40.9869 31.381 40.9869 32.1775V32.4083H40.983ZM39.7749 31.458C39.6941 31.1887 39.5364 30.9732 39.3017 30.8039C39.067 30.6346 38.7938 30.5538 38.486 30.5538C38.1782 30.5538 37.8551 30.65 37.6011 30.8385C37.4434 30.9578 37.2933 31.1656 37.1587 31.4618H39.7749V31.458Z" fill="#98A2B3"/>
<path d="M41.5252 29.6573H42.9257L43.876 30.9693L44.8225 29.6573H46.1999L44.5686 31.9197L46.4154 34.4667H45.0149L43.8722 32.8892L42.7333 34.4667H41.356L43.1797 31.9389L41.5291 29.6612L41.5252 29.6573Z" fill="#98A2B3"/>
<path d="M49.0513 27.9645H52.6448V29.1841H51.4598V34.4628H50.2055V29.1841H49.0513V27.9645Z" fill="#98A2B3"/>
<path d="M53.0756 29.6573H54.1106V30.2614C54.2222 30.0228 54.3722 29.842 54.5569 29.7189C54.7416 29.5957 54.9455 29.5342 55.1648 29.5342C55.3841 29.5342 55.4841 29.5765 55.6534 29.6573L55.2764 30.6961C55.134 30.6269 55.0186 30.5884 54.9263 30.5884C54.7416 30.5884 54.5838 30.7038 54.4569 30.9347C54.3299 31.1655 54.2645 31.6157 54.2645 32.2851V32.5198C54.2683 32.5198 54.2683 34.4628 54.2683 34.4628H53.0718V29.6535L53.0756 29.6573Z" fill="#98A2B3"/>
<path d="M59.8008 29.6573H61.0089V34.4666H59.8008V33.9588C59.5661 34.1819 59.3275 34.3435 59.0929 34.4435C58.8543 34.5436 58.6004 34.5897 58.3234 34.5897C57.7039 34.5897 57.1653 34.3474 56.7113 33.8664C56.2573 33.3855 56.0303 32.7853 56.0303 32.0697C56.0303 31.354 56.2496 30.7192 56.6882 30.246C57.1268 29.7727 57.6578 29.5342 58.2849 29.5342C58.912 29.5342 58.8428 29.588 59.0967 29.6958C59.3506 29.8035 59.5853 29.9689 59.7969 30.1844V29.6535L59.8008 29.6573ZM58.5311 30.6461C58.1579 30.6461 57.8501 30.7769 57.6 31.0424C57.3538 31.3079 57.2307 31.6426 57.2307 32.0581C57.2307 32.4736 57.3576 32.8161 57.6077 33.0815C57.8578 33.3509 58.1695 33.4855 58.535 33.4855C58.9005 33.4855 59.2275 33.3547 59.4776 33.0892C59.7277 32.8238 59.8508 32.4813 59.8508 32.0543C59.8508 31.6272 59.7277 31.2963 59.4776 31.0385C59.2275 30.7808 58.912 30.6499 58.5311 30.6499V30.6461Z" fill="#98A2B3"/>
<path d="M65.7759 27.799H66.984V34.4628H65.7759V33.955C65.5412 34.1781 65.3026 34.3397 65.068 34.4397C64.8294 34.5398 64.5755 34.5859 64.2985 34.5859C63.679 34.5859 63.1404 34.3436 62.6864 33.8626C62.2324 33.3817 62.0054 32.7815 62.0054 32.0659C62.0054 31.3502 62.2247 30.7154 62.6633 30.2422C63.1019 29.7689 63.6328 29.5304 64.26 29.5304C64.8871 29.5304 64.8179 29.5842 65.0718 29.692C65.3257 29.7997 65.5604 29.9651 65.772 30.1806V27.7952L65.7759 27.799ZM64.5062 30.6461C64.133 30.6461 63.8252 30.777 63.5751 31.0424C63.3289 31.3079 63.2058 31.6426 63.2058 32.0582C63.2058 32.4737 63.3327 32.8161 63.5828 33.0816C63.8329 33.3509 64.1446 33.4856 64.5101 33.4856C64.8756 33.4856 65.2026 33.3548 65.4527 33.0893C65.7028 32.8238 65.8259 32.4814 65.8259 32.0543C65.8259 31.6272 65.7028 31.2964 65.4527 31.0386C65.2026 30.7808 64.8871 30.65 64.5062 30.65V30.6461Z" fill="#98A2B3"/>
<path d="M73.0167 32.4083H69.1423C69.2001 32.7507 69.3463 33.02 69.5925 33.224C69.8349 33.424 70.1465 33.5279 70.5236 33.5279C70.9006 33.5279 71.3623 33.3702 71.6855 33.0547L72.7012 33.5318C72.4473 33.8896 72.1434 34.1589 71.7894 34.3282C71.4354 34.5013 71.0161 34.586 70.5313 34.586C69.7772 34.586 69.1616 34.3474 68.6883 33.8742C68.2151 33.3971 67.9766 32.8007 67.9766 32.0851C67.9766 31.3695 68.2113 30.7423 68.6845 30.2576C69.1577 29.7728 69.7502 29.5304 70.462 29.5304C71.1738 29.5304 71.8356 29.7728 72.3088 30.2576C72.782 30.7423 73.0206 31.381 73.0206 32.1775V32.4083H73.0167ZM71.8125 31.458C71.7317 31.1887 71.5739 30.9732 71.3392 30.8039C71.1045 30.6346 70.8314 30.5538 70.5236 30.5538C70.2158 30.5538 69.8926 30.65 69.6387 30.8385C69.4809 30.9578 69.3309 31.1656 69.1962 31.4618H71.8125V31.458Z" fill="#98A2B3"/>
<path d="M73.7094 29.6573H74.7444V30.2614C74.856 30.0228 75.006 29.842 75.1907 29.7189C75.3754 29.5957 75.5793 29.5342 75.7986 29.5342C76.0179 29.5342 76.1179 29.5765 76.2872 29.6573L75.9102 30.6961C75.7678 30.6269 75.6524 30.5884 75.56 30.5884C75.3754 30.5884 75.2176 30.7038 75.0907 30.9347C74.9637 31.1655 74.8983 31.6157 74.8983 32.2851V32.5198C74.9021 32.5198 74.9021 34.4628 74.9021 34.4628H73.7056V29.6535L73.7094 29.6573Z" fill="#98A2B3"/>
<path d="M79.8306 30.3268L79.0842 31.0732C78.7803 30.7731 78.5071 30.623 78.257 30.623C78.0069 30.623 78.0146 30.6499 77.9377 30.7077C77.8607 30.7654 77.8222 30.8385 77.8222 30.9231C77.8222 31.0078 77.8453 31.0462 77.8953 31.1039C77.9454 31.1578 78.0646 31.2348 78.257 31.3271L78.6995 31.5464C79.165 31.7773 79.4843 32.0119 79.6575 32.2505C79.8306 32.489 79.9191 32.7699 79.9191 33.0892C79.9191 33.4086 79.7614 33.8741 79.4497 34.1588C79.1342 34.4435 78.7149 34.5859 78.1877 34.5859C77.6606 34.5859 76.9258 34.3127 76.5103 33.7625L77.2528 32.9546C77.3952 33.12 77.5606 33.2547 77.7491 33.3547C77.9377 33.4547 78.107 33.5086 78.257 33.5086C78.4071 33.5086 78.5456 33.4701 78.6418 33.3932C78.7379 33.3162 78.788 33.2277 78.788 33.1277C78.788 32.943 78.611 32.7622 78.2609 32.5852L77.853 32.3813C77.0758 31.9889 76.6872 31.5002 76.6872 30.9116C76.6872 30.3229 76.8334 30.2075 77.1258 29.9382C77.4183 29.6688 77.7953 29.5342 78.2493 29.5342C78.7033 29.5342 78.8572 29.6034 79.1304 29.7381C79.4074 29.8766 79.6382 30.0728 79.8306 30.3268Z" fill="#98A2B3"/>
<path d="M23.4077 42.1962L23.9617 41.8654C24.3503 42.581 24.8005 42.9388 25.3084 42.9388C25.8162 42.9388 25.7316 42.8888 25.924 42.7849C26.1163 42.6849 26.2625 42.5464 26.3626 42.3771C26.4626 42.2078 26.5126 42.027 26.5126 41.8346C26.5126 41.6422 26.4395 41.4037 26.2933 41.1921C26.0894 40.9035 25.72 40.5572 25.1814 40.1494C24.6389 39.7416 24.3003 39.4453 24.1695 39.2606C23.9387 38.9528 23.8232 38.6219 23.8232 38.268C23.8232 37.914 23.8925 37.7293 24.0272 37.4946C24.1618 37.2638 24.3542 37.0791 24.6004 36.9445C24.8467 36.8098 25.1121 36.7444 25.4007 36.7444C25.6893 36.7444 25.9932 36.8213 26.2587 36.9714C26.5242 37.1214 26.8089 37.4023 27.1051 37.8101L26.5742 38.2141C26.3279 37.8909 26.1202 37.6755 25.947 37.5716C25.7739 37.4677 25.5854 37.4177 25.3853 37.4177C25.1852 37.4177 24.9082 37.4985 24.7428 37.6562C24.5773 37.814 24.4927 38.0102 24.4927 38.2449C24.4927 38.4796 24.5235 38.5219 24.5812 38.6566C24.6389 38.7874 24.7466 38.9336 24.9044 39.0913C24.989 39.1721 25.2699 39.3914 25.7431 39.7416C26.3049 40.1571 26.6934 40.5264 26.9012 40.8496C27.109 41.1728 27.2167 41.4999 27.2167 41.8269C27.2167 42.3001 27.0359 42.708 26.6781 43.0542C26.3202 43.4005 25.8855 43.5775 25.3738 43.5775C24.8621 43.5775 24.6197 43.4736 24.3003 43.262C23.981 43.0504 23.6847 42.7003 23.4116 42.2039L23.4077 42.1962Z" fill="#98A2B3"/>
<path d="M28.4058 38.5989H29.0252V40.842C29.0252 41.3883 29.056 41.7653 29.1137 41.9731C29.2022 42.2694 29.3715 42.5002 29.6216 42.6695C29.8716 42.8388 30.1679 42.9273 30.5142 42.9273C30.8604 42.9273 31.1529 42.8426 31.3914 42.6772C31.6299 42.5118 31.7992 42.2924 31.8877 42.0193C31.9493 41.8346 31.9801 41.4422 31.9801 40.8381V38.595H32.611V40.9535C32.611 41.6153 32.5341 42.1155 32.3802 42.4502C32.2263 42.7849 31.9916 43.0504 31.6838 43.2389C31.3722 43.4275 30.9836 43.5236 30.5142 43.5236C30.0448 43.5236 29.6562 43.4275 29.3407 43.2389C29.0252 43.0504 28.7944 42.7849 28.6366 42.4425C28.4789 42.1001 28.4058 41.5922 28.4058 40.9074V38.5912V38.5989Z" fill="#98A2B3"/>
<path d="M33.9804 38.5989H34.5998V39.4299C34.8153 39.1221 35.0346 38.899 35.2616 38.7566C35.5732 38.5681 35.9041 38.4719 36.2465 38.4719C36.5889 38.4719 36.7005 38.5181 36.9083 38.6104C37.116 38.7028 37.2892 38.822 37.42 38.9759C37.5508 39.126 37.6662 39.3453 37.7663 39.6262C37.9702 39.2491 38.228 38.9644 38.5357 38.7682C38.8435 38.572 39.1783 38.4758 39.5322 38.4758C39.8862 38.4758 40.1594 38.5604 40.4133 38.7259C40.6672 38.8951 40.8558 39.1298 40.9789 39.4299C41.102 39.73 41.1636 40.1802 41.1636 40.7804V43.4044H40.5326V40.7804C40.5326 40.2648 40.4941 39.9109 40.421 39.7185C40.3479 39.5261 40.2209 39.3684 40.044 39.253C39.867 39.1337 39.6554 39.076 39.4091 39.076C39.1629 39.076 38.8359 39.1645 38.5896 39.3414C38.3434 39.5184 38.1587 39.7531 38.0471 40.0494C37.9317 40.3456 37.874 40.8343 37.874 41.5268V43.4082H37.2545V40.9458C37.2545 40.3649 37.2199 39.9724 37.1468 39.7647C37.0737 39.5569 36.9467 39.3915 36.7698 39.2645C36.5889 39.1375 36.3773 39.076 36.1272 39.076C35.8772 39.076 35.5732 39.1606 35.327 39.3338C35.0769 39.5069 34.8922 39.7377 34.7729 40.0301C34.6537 40.3226 34.5921 40.7689 34.5921 41.3691V43.4044H33.9727V38.595L33.9804 38.5989Z" fill="#98A2B3"/>
<path d="M42.4682 38.5989H43.0876V39.4299C43.3031 39.1221 43.5224 38.899 43.7494 38.7566C44.0611 38.5681 44.3919 38.4719 44.7344 38.4719C45.0768 38.4719 45.1884 38.5181 45.3961 38.6104C45.6039 38.7028 45.777 38.822 45.9078 38.9759C46.0387 39.126 46.1541 39.3453 46.2541 39.6262C46.458 39.2491 46.7158 38.9644 47.0275 38.7682C47.3352 38.572 47.67 38.4758 48.0239 38.4758C48.3779 38.4758 48.6511 38.5604 48.905 38.7259C49.1589 38.8913 49.3475 39.1298 49.4706 39.4299C49.5937 39.73 49.6553 40.1802 49.6553 40.7804V43.4044H49.0243V40.7804C49.0243 40.2648 48.9858 39.9109 48.9127 39.7185C48.8396 39.5261 48.7126 39.3684 48.5357 39.253C48.3587 39.1337 48.1471 39.076 47.9008 39.076C47.6546 39.076 47.3276 39.1645 47.0813 39.3414C46.8351 39.5184 46.6504 39.7531 46.5388 40.0494C46.4234 40.3456 46.3657 40.8343 46.3657 41.5268V43.4082H45.7462V40.9458C45.7462 40.3649 45.7116 39.9724 45.6385 39.7647C45.5654 39.5569 45.4423 39.3915 45.2615 39.2645C45.0806 39.1375 44.869 39.076 44.6189 39.076C44.3689 39.076 44.0649 39.1606 43.8187 39.3338C43.5686 39.5069 43.3839 39.7377 43.2646 40.0301C43.1454 40.3226 43.0838 40.7689 43.0838 41.3691V43.4044H42.4644V38.595L42.4682 38.5989Z" fill="#98A2B3"/>
<path d="M51.1749 36.6174C51.3172 36.6174 51.4365 36.6674 51.5365 36.7675C51.6366 36.8675 51.6866 36.9868 51.6866 37.1291C51.6866 37.2715 51.6366 37.3869 51.5365 37.487C51.4365 37.587 51.3172 37.637 51.1749 37.637C51.0325 37.637 50.9171 37.587 50.817 37.487C50.717 37.3869 50.667 37.2677 50.667 37.1291C50.667 36.9906 50.717 36.8675 50.817 36.7675C50.9171 36.6674 51.0363 36.6174 51.1749 36.6174ZM50.8671 38.5989H51.4865V43.4082H50.8671V38.5989Z" fill="#98A2B3"/>
<path d="M53.3143 36.8136H53.9337V38.5988H54.9148V39.1336H53.9337V43.4082H53.3143V39.1336H52.4717V38.5988H53.3143V36.8136Z" fill="#98A2B3"/>
<path d="M23.6157 52.4843V45.986H24.9623C25.9357 45.986 26.6398 46.0629 27.0784 46.2207C27.7094 46.44 28.2018 46.8247 28.5558 47.371C28.9098 47.9174 29.0868 48.5638 29.0868 49.3179C29.0868 50.072 28.9444 50.5414 28.6635 51.0377C28.3827 51.534 28.0172 51.8995 27.567 52.1342C27.1169 52.3689 26.4897 52.4882 25.6779 52.4882H23.6118L23.6157 52.4843ZM24.239 51.8726H24.9892C25.8895 51.8726 26.509 51.8149 26.8591 51.7033C27.3477 51.5456 27.7325 51.257 28.0133 50.8453C28.2942 50.4336 28.4327 49.9258 28.4327 49.3294C28.4327 48.7331 28.2826 48.1675 27.9787 47.7212C27.6747 47.2749 27.2515 46.9709 26.709 46.8055C26.3012 46.6824 25.6317 46.6208 24.6968 46.6208H24.239V51.8687V51.8726Z" fill="#98A2B3"/>
<path d="M30.168 47.6788H30.7874V49.9219C30.7874 50.4682 30.8182 50.8453 30.8759 51.0531C30.9644 51.3493 31.1337 51.5802 31.3838 51.7495C31.6339 51.9187 31.9301 52.0072 32.2764 52.0072C32.6227 52.0072 32.9151 51.9226 33.1536 51.7572C33.3921 51.5917 33.5614 51.3724 33.6499 51.0992C33.7115 50.9146 33.7423 50.5221 33.7423 49.9181V47.675H34.3732V50.0335C34.3732 50.6953 34.2963 51.1954 34.1424 51.5302C33.9885 51.8649 33.7538 52.1304 33.446 52.3189C33.1344 52.5074 32.7458 52.6036 32.2764 52.6036C31.807 52.6036 31.4184 52.5074 31.1029 52.3189C30.7874 52.1304 30.5566 51.8649 30.3988 51.5225C30.2449 51.1839 30.168 50.6722 30.168 49.9873V47.6711V47.6788Z" fill="#98A2B3"/>
<path d="M35.7891 52.4844V45.8206H36.4085V48.5022C36.6663 48.1829 36.9587 47.9444 37.278 47.7905C37.5974 47.6327 37.9513 47.5558 38.3322 47.5558C39.0132 47.5558 39.5942 47.802 40.0751 48.2945C40.5561 48.787 40.7985 49.3872 40.7985 50.0912C40.7985 50.7953 40.5561 51.3801 40.0713 51.8726C39.5865 52.3651 39.0017 52.6113 38.3207 52.6113C37.6397 52.6113 37.5743 52.5267 37.2588 52.3612C36.9395 52.192 36.6586 51.9419 36.4162 51.6071V52.4921H35.7968L35.7891 52.4844ZM38.263 52.0111C38.6054 52.0111 38.9247 51.9265 39.2133 51.7572C39.5057 51.5879 39.7366 51.3494 39.9058 51.0454C40.079 50.7376 40.1636 50.4144 40.1636 50.072C40.1636 49.7296 40.0751 49.4064 39.902 49.0947C39.7289 48.787 39.4942 48.5446 39.2018 48.3714C38.9094 48.1983 38.5977 48.1136 38.2668 48.1136C37.9359 48.1136 37.6089 48.1983 37.305 48.3714C37.001 48.5446 36.7663 48.7754 36.6047 49.0678C36.4431 49.3602 36.3585 49.6873 36.3585 50.0528C36.3585 50.6107 36.5432 51.0762 36.9087 51.4494C37.2742 51.8226 37.7243 52.0111 38.2591 52.0111H38.263Z" fill="#98A2B3"/>
<path d="M46.7121 47.6789V52.4882H46.1042V51.661C45.8464 51.9765 45.554 52.2151 45.2308 52.3728C44.9076 52.5306 44.5537 52.6114 44.1728 52.6114C43.4918 52.6114 42.9108 52.3651 42.4299 51.8726C41.9489 51.3802 41.7065 50.78 41.7065 50.072C41.7065 49.3641 41.9489 48.787 42.4337 48.2945C42.9185 47.802 43.5033 47.5558 44.1882 47.5558C44.873 47.5558 44.9384 47.6404 45.2616 47.8059C45.5809 47.9752 45.8618 48.2252 46.1042 48.56V47.6751H46.7121V47.6789ZM44.242 48.1521C43.8996 48.1521 43.5803 48.2368 43.2879 48.4061C42.9954 48.5754 42.7646 48.8139 42.5915 49.1179C42.4183 49.4218 42.3337 49.7488 42.3337 50.0874C42.3337 50.426 42.4222 50.7492 42.5953 51.057C42.7684 51.3648 43.0031 51.6072 43.2955 51.7803C43.588 51.9534 43.9034 52.0381 44.2382 52.0381C44.5729 52.0381 44.8961 51.9534 45.2 51.7803C45.504 51.611 45.7348 51.3802 45.9003 51.0878C46.0619 50.7954 46.1465 50.4683 46.1465 50.1028C46.1465 49.5449 45.9618 49.0832 45.5963 48.7062C45.2308 48.333 44.7807 48.1445 44.242 48.1445V48.1521Z" fill="#98A2B3"/>
<path d="M48.3199 45.6974C48.4622 45.6974 48.5815 45.7474 48.6815 45.8474C48.7816 45.9475 48.8316 46.0667 48.8316 46.2091C48.8316 46.3515 48.7816 46.4669 48.6815 46.5669C48.5815 46.667 48.4622 46.717 48.3199 46.717C48.1775 46.717 48.0621 46.667 47.9621 46.5669C47.862 46.4669 47.812 46.3476 47.812 46.2091C47.812 46.0706 47.862 45.9475 47.9621 45.8474C48.0621 45.7474 48.1814 45.6974 48.3199 45.6974ZM48.0121 47.6788H48.6315V52.4882H48.0121V47.6788Z" fill="#98A2B3"/>
<path d="M51.2366 49.2755H50.7826C50.7941 48.8099 50.9519 48.4252 51.252 48.1251C51.5521 47.825 51.9214 47.6749 52.3601 47.6749C52.7987 47.6749 53.1488 47.8173 53.4181 48.0981C53.6874 48.379 53.8221 48.7099 53.8221 49.0946C53.8221 49.4794 53.7567 49.614 53.6297 49.8487C53.5028 50.0834 53.2527 50.4028 52.8833 50.8029L51.706 52.0726H53.8913V52.5304H50.6787L52.487 50.5759C52.8525 50.1835 53.0911 49.8911 53.2027 49.7025C53.3142 49.514 53.3681 49.3139 53.3681 49.1023C53.3681 48.8907 53.2681 48.606 53.0718 48.4136C52.8718 48.2213 52.6294 48.1251 52.3447 48.1251C52.06 48.1251 51.7906 48.2251 51.5906 48.429C51.3905 48.6291 51.2751 48.9138 51.2481 49.2793L51.2366 49.2755Z" fill="#98A2B3"/>
<path d="M54.334 50.164C54.334 49.5407 54.3994 49.0559 54.5341 48.7173C54.6687 48.3749 54.8572 48.1171 55.1035 47.9402C55.3497 47.7632 55.6229 47.6747 55.923 47.6747C56.2231 47.6747 56.5078 47.7632 56.7579 47.9402C57.008 48.1171 57.2042 48.3826 57.3466 48.7366C57.4889 49.0905 57.562 49.5638 57.562 50.1601C57.562 50.7565 57.4889 51.2259 57.3466 51.5799C57.2042 51.93 57.008 52.1955 56.7579 52.3763C56.5078 52.5571 56.2269 52.6456 55.923 52.6456C55.619 52.6456 55.3497 52.5571 55.1073 52.384C54.8649 52.2108 54.6764 51.9531 54.5379 51.6068C54.4032 51.2644 54.334 50.7796 54.334 50.1601V50.164ZM54.7841 50.1717C54.7841 50.7065 54.8303 51.1105 54.9265 51.3836C55.0227 51.6568 55.1612 51.8646 55.3497 52.0069C55.5382 52.1493 55.7345 52.2185 55.9422 52.2185C56.15 52.2185 56.3501 52.1493 56.5309 52.0108C56.7117 51.8723 56.8502 51.6645 56.9464 51.3875C57.0657 51.0489 57.1234 50.6449 57.1234 50.1717C57.1234 49.6984 57.0695 49.306 56.9657 49.0021C56.8618 48.6981 56.7156 48.475 56.5309 48.3364C56.3462 48.1941 56.15 48.1248 55.9422 48.1248C55.7345 48.1248 55.5344 48.1941 55.3497 48.3364C55.165 48.4788 55.0265 48.6827 54.9265 48.9597C54.8303 49.2329 54.7803 49.6369 54.7803 50.1755L54.7841 50.1717Z" fill="#98A2B3"/>
<path d="M58.5388 49.2752H58.0848C58.0964 48.8097 58.2541 48.4249 58.5542 48.1248C58.8543 47.8247 59.2237 47.6747 59.6623 47.6747C60.1009 47.6747 60.451 47.817 60.7204 48.0979C60.9897 48.3788 61.1243 48.7096 61.1243 49.0944C61.1243 49.4791 61.0589 49.6138 60.932 49.8485C60.805 50.0832 60.5549 50.4025 60.1856 50.8027L59.0082 52.0723H61.1936V52.5302H57.981L59.7893 50.5757C60.1548 50.1832 60.3933 49.8908 60.5049 49.7023C60.6165 49.5138 60.6703 49.3137 60.6703 49.1021C60.6703 48.8905 60.5703 48.6058 60.3741 48.4134C60.174 48.221 59.9316 48.1248 59.6469 48.1248C59.3622 48.1248 59.0929 48.2249 58.8928 48.4288C58.6927 48.6289 58.5773 48.9136 58.5504 49.2791L58.5388 49.2752Z" fill="#98A2B3"/>
<path d="M64.237 47.6786H64.3332V50.9797H64.9065V51.4299H64.3332V52.5302H63.8638V51.4299H61.5977L64.237 47.6786ZM63.86 50.9797V48.9906L62.4595 50.9797H63.86Z" fill="#98A2B3"/>
</svg>
