<svg width="80" height="80" viewBox="0 0 80 80" fill="none" xmlns="http://www.w3.org/2000/svg">
<path d="M78.9999 43.9128H3.12598V44.2554H78.9999V43.9128Z" fill="#98A2B3"/>
<path d="M50.2229 31.5799L49.0325 32.3336V32.5391L47.4223 33.4384L47.7135 33.8581L49.1609 32.9074L49.5035 32.9245L46.7286 41.078L46.583 41.0609L43.4569 32.3421H41.9238L45.8293 42.2428H46.9941L50.6512 32.3079C50.6512 32.3079 50.4285 32.0852 50.3428 31.9139C50.2572 31.7426 50.2315 31.5627 50.2315 31.5627L50.2229 31.5799Z" fill="#98A2B3"/>
<path d="M53.2375 35.5796H51.8672V42.2686H53.2375V35.5796Z" fill="#98A2B3"/>
<path d="M52.5535 32.2228L51.6875 33.0889L52.5535 33.9549L53.4195 33.0889L52.5535 32.2228Z" fill="#98A2B3"/>
<path d="M62.8059 35.5263L61.4355 35.5359L61.4822 42.2247L62.8525 42.2151L62.8059 35.5263Z" fill="#98A2B3"/>
<path d="M62.0611 32.1933L61.2012 33.0653L62.0732 33.9253L62.9332 33.0532L62.0611 32.1933Z" fill="#98A2B3"/>
<path d="M51.9356 31.0061C51.7815 30.7663 51.79 30.4152 51.79 30.4152L50.4111 31.2459C50.4111 31.2459 50.5053 31.5371 50.6681 31.7941C50.8222 32.051 50.9935 32.1795 50.9935 32.1795L52.2953 31.383C52.2953 31.383 52.0898 31.2459 51.9356 31.0061Z" fill="#98A2B3"/>
<path d="M53.6486 29.062C53.5972 29.1733 53.5629 29.2332 53.4944 29.2761C53.4259 29.3275 52.0298 30.1668 52.0298 30.1668C52.0298 30.1668 52.0213 30.5522 52.2097 30.8177C52.4067 31.0832 52.6122 31.1945 52.6122 31.1945C52.6122 31.1945 54.1025 30.3381 54.1967 30.261C54.2909 30.1925 54.3509 30.201 54.4536 30.1925C54.5478 30.1839 54.5393 29.7471 54.3166 29.4217C54.1025 29.0962 53.7342 28.8907 53.6486 29.062ZM54.3252 30.064C54.2309 30.124 54.034 29.9698 53.8884 29.7214C53.7428 29.4731 53.7085 29.2247 53.8027 29.1733C53.8969 29.1133 54.0939 29.2675 54.2395 29.5159C54.3851 29.7642 54.4194 30.0126 54.3252 30.064Z" fill="#98A2B3"/>
<path d="M58.1024 38.2175C56.2353 37.558 56.1326 37.224 56.1326 36.9841C56.1326 36.7443 56.2439 36.2647 57.2374 36.2647C58.2309 36.2647 59.0617 36.4531 59.0617 36.4531L59.2244 35.511C59.2244 35.511 58.3165 35.3312 57.6485 35.3312C56.2439 35.3312 55.1819 36.239 55.1819 37.2325C55.1819 38.226 55.8585 38.8512 57.0318 39.1938C58.1966 39.5364 58.7448 39.742 58.7448 40.4443C58.7448 41.1465 58.4536 41.5148 57.3916 41.5148C56.3295 41.5148 55.3874 40.744 55.3874 40.744L54.9678 41.5748C54.9678 41.5748 55.7814 42.2771 57.2031 42.2771C59.5327 42.2771 59.6783 40.2901 59.6783 40.0674C59.6783 39.8447 59.7982 38.8084 58.1196 38.2175H58.1024Z" fill="#98A2B3"/>
<path d="M67.9429 35.3569C66.0501 35.3569 64.7397 36.5817 64.7397 38.2775V38.5601C64.7397 38.8342 64.7397 38.9284 64.7397 38.9284V39.0055C64.7397 40.3501 65.4249 42.2943 67.883 42.2943C70.341 42.2943 71.1375 40.804 71.1375 38.8427V38.2261C71.1375 36.89 70.1954 35.3569 67.9343 35.3569H67.9429ZM69.7586 38.483V39.3052C69.7586 40.8554 69.3047 41.5491 67.9172 41.5491C66.5297 41.5491 66.1443 40.5043 66.1443 39.4337V37.9178C66.1443 36.5817 66.9494 36.0678 67.9515 36.0678C68.9535 36.0678 69.7586 37.1127 69.7586 38.1661V38.4916V38.483Z" fill="#98A2B3"/>
<path d="M79.0001 42.2514C79.0001 42.2514 78.983 38.1062 78.983 37.2411C78.983 36.3761 78.2892 35.4683 77.0645 35.4683C75.8398 35.4683 74.5465 36.3675 74.5465 36.3675H74.3838L74.1782 35.5796L73.1162 35.5967V42.2857H74.418V36.9842C74.418 36.9842 75.4972 36.3419 76.4992 36.3419C77.5013 36.3419 77.664 36.9242 77.664 37.3268V42.26H79.0001V42.2514Z" fill="#98A2B3"/>
<path d="M24.5292 39.1597C24.5292 39.4252 24.3922 40.3074 25.4028 40.3074C26.4134 40.3074 26.953 39.8963 26.953 39.8963V38.0121H26.4048C24.9146 38.0121 24.5292 38.4318 24.5292 39.1597Z" fill="#98A2B3"/>
<path d="M40.7676 32.3849H9.4639L9.7294 31.3315L9.79792 31.0574L9.52385 31.0146C9.48103 31.0146 8.45327 30.8348 7.43409 30.7662C7.37413 30.7662 7.32275 30.7662 7.25423 30.7662C6.51767 30.7662 5.39571 31.0317 4.65059 31.794C4.47073 31.9738 4.32513 32.1708 4.20523 32.3849H0L3.16891 42.7567H44.8101L40.7676 32.3849ZM7.25423 31.0317C7.30562 31.0317 7.36557 31.0317 7.41696 31.0317C8.42758 31.1003 9.48103 31.2715 9.48103 31.2715L9.15557 32.5477C9.12132 32.5477 7.93083 32.0595 7.03155 31.9995C6.98016 31.9995 6.92877 31.9995 6.87739 31.9995C6.05518 31.9995 5.3015 32.4278 5.3015 33.2757C5.3015 34.1236 5.8325 34.6803 7.15145 35.177C8.4704 35.6738 9.89213 36.0763 9.89213 38.1147C9.89213 40.1531 8.21346 41.2408 6.56906 41.2408C4.92465 41.2408 3.81125 40.4528 3.81125 40.4528L4.308 39.288C4.69341 39.6306 6.11513 40.2216 6.90308 40.2216C7.69102 40.2216 8.75304 40.076 8.75304 38.5429C8.75304 37.0098 6.78317 36.6929 6.15796 36.3504C5.53274 36.0078 4.1624 35.7251 4.14527 33.6868C4.12814 31.6741 6.15796 31.0232 7.24566 31.0232L7.25423 31.0317ZM21.4544 41.0952H20.084V36.1277C20.084 35.9221 20.0498 35.2284 19.1505 35.2284C18.2512 35.2284 17.2491 35.905 17.2491 35.905V41.0952H15.8959V36.1791C15.8959 36.1791 16.0073 35.2455 14.9453 35.2455C13.8832 35.2455 13.0096 35.9393 13.0096 35.9393V41.0952H11.7164L11.6993 34.4661H12.7441L12.9668 35.1941L13.0953 35.177C13.0953 35.177 14.3971 34.3205 15.579 34.3205C16.761 34.3205 17.0607 35.3055 17.0607 35.3055H17.1721C17.9172 34.7916 18.8678 34.3034 19.7329 34.3034C20.5979 34.3034 21.4458 34.9286 21.4458 35.9992V41.0952H21.4544ZM29.5051 40.7098C29.5051 40.7098 29.0255 41.1722 28.1519 41.1722C27.2783 41.1722 27.1241 40.3757 27.1241 40.3757C27.1241 40.3757 26.3619 41.1722 25.0943 41.1722C23.8268 41.1722 23.2529 40.4871 23.2529 39.819C23.2529 39.151 23.2615 39.1681 23.2615 38.9626C23.2615 38.2089 23.9381 37.4038 25.3684 37.4038H26.9614V36.0763C26.9614 35.4939 26.6873 35.1684 26.0022 35.1684C25.317 35.1684 24.1265 35.6738 24.1265 35.6738L23.7754 35.0914C23.7754 35.0914 25.0686 34.3291 26.6616 34.3291C28.2547 34.3291 28.3061 35.4083 28.3061 35.708V39.6135C28.3061 40.1102 28.6058 40.4014 28.9141 40.4014C29.2225 40.4014 29.4965 40.2473 29.4965 40.2473V40.7183L29.5051 40.7098ZM34.1129 35.511C33.0166 35.0742 32.0916 35.6052 32.0916 36.1791V41.1037H30.7984V34.5175L31.8004 34.4918L31.9974 35.4511C31.9974 35.4511 32.083 35.4425 32.1516 35.4425C32.6826 34.5261 33.0851 34.3291 34.3184 34.3291L34.1129 35.5282V35.511ZM36.9306 41.2408C36.0827 41.2408 35.7658 40.6327 35.7658 40.016V35.1428H34.995V34.6717L36.6309 33.2842H37.1276V34.4062H38.8405V35.0742L37.042 35.2541V39.5792C37.042 39.9818 37.0762 40.2044 37.5987 40.2044H38.9262V40.7269C38.9347 40.7269 37.7785 41.2322 36.9306 41.2322V41.2408Z" fill="#98A2B3"/>
<path d="M4.85637 49.5396C5.02767 49.5396 5.17327 49.5224 5.27604 49.4796C5.48159 49.4025 5.58437 49.2741 5.58437 49.0771C5.58437 48.8801 5.53298 48.8715 5.4302 48.8116C5.32743 48.7516 5.17327 48.6917 4.95059 48.6488L4.58231 48.5632C4.21403 48.4775 3.96566 48.3919 3.82862 48.2977C3.58881 48.135 3.47747 47.8866 3.47747 47.544C3.47747 47.2014 3.58881 46.9702 3.82006 46.7646C4.0513 46.5591 4.38532 46.4563 4.82212 46.4563C5.25891 46.4563 5.50729 46.5505 5.76422 46.7475C6.02116 46.9445 6.1582 47.2271 6.17533 47.5954H5.47303C5.46446 47.3813 5.37025 47.2357 5.19896 47.15C5.08762 47.0901 4.94202 47.0644 4.77073 47.0644C4.59944 47.0644 4.42814 47.0986 4.3168 47.1757C4.20546 47.2528 4.14551 47.3556 4.14551 47.4926C4.14551 47.6297 4.1969 47.7153 4.30824 47.7752C4.37676 47.8181 4.53092 47.8609 4.76216 47.9208L5.36169 48.0664C5.62719 48.1264 5.82418 48.212 5.96121 48.3234C6.16676 48.4861 6.2781 48.7259 6.2781 49.0428C6.2781 49.3597 6.1582 49.6252 5.90982 49.8393C5.66145 50.0534 5.31886 50.1562 4.8735 50.1562C4.42814 50.1562 4.05987 50.0534 3.79436 49.8479C3.52886 49.6423 3.40039 49.3511 3.40039 48.9914H4.10269C4.12838 49.1542 4.17121 49.2741 4.23116 49.3511C4.35106 49.4967 4.55661 49.5653 4.83925 49.5653L4.85637 49.5396Z" fill="#98A2B3"/>
<path d="M9.82395 49.6852C9.82395 49.6852 9.79825 49.7195 9.77256 49.7537C9.74687 49.7965 9.72117 49.8308 9.67835 49.8565C9.57557 49.9507 9.4728 50.0192 9.37002 50.0535C9.26725 50.0877 9.15591 50.1049 9.01887 50.1049C8.63347 50.1049 8.37653 49.9678 8.24806 49.6938C8.17098 49.5396 8.13672 49.3169 8.13672 49.0172V47.4584H8.83045V49.0172C8.83045 49.1628 8.84758 49.2741 8.88184 49.3512C8.94179 49.4796 9.0617 49.5482 9.24155 49.5482C9.42141 49.5482 9.62696 49.4539 9.71261 49.2655C9.75543 49.1628 9.78112 49.0343 9.78112 48.863V47.4498H10.4663V50.0363H9.80682V49.6681L9.82395 49.6852Z" fill="#98A2B3"/>
<path d="M14.0463 48.1693C13.9864 48.0408 13.875 47.9809 13.7123 47.9809C13.5496 47.9809 13.3868 48.0408 13.3269 48.1693C13.2926 48.2378 13.2755 48.3491 13.2755 48.4862V50.0449H12.5903V47.4584H13.2498V47.8353C13.3355 47.6982 13.4125 47.604 13.4896 47.5441C13.6181 47.4413 13.7894 47.3899 14.0035 47.3899C14.2176 47.3899 14.3632 47.4327 14.4831 47.5184C14.5773 47.5954 14.6544 47.7068 14.7058 47.8267C14.7914 47.6725 14.9028 47.5612 15.0398 47.4927C15.1768 47.4242 15.331 47.3899 15.5023 47.3899C15.6736 47.3899 15.725 47.4156 15.8363 47.4584C15.9477 47.5012 16.0504 47.5783 16.1361 47.6897C16.2132 47.7839 16.256 47.8866 16.2817 48.0237C16.2988 48.1093 16.3074 48.2378 16.3074 48.4091V50.0449H15.6051V48.392C15.6051 48.2977 15.5879 48.2121 15.5537 48.1521C15.4937 48.0322 15.3824 47.9723 15.2197 47.9723C15.0569 47.9723 14.9028 48.0494 14.8343 48.2035C14.8 48.2892 14.7829 48.3834 14.7829 48.5033V50.0449H14.0977V48.5033C14.0977 48.3491 14.0806 48.2378 14.0463 48.1693Z" fill="#98A2B3"/>
<path d="M19.9643 48.1693C19.9043 48.0408 19.793 47.9809 19.6303 47.9809C19.4675 47.9809 19.3048 48.0408 19.2449 48.1693C19.2106 48.2378 19.1935 48.3491 19.1935 48.4862V50.0449H18.5083V47.4584H19.1678V47.8353C19.2534 47.6982 19.3305 47.604 19.4076 47.5441C19.5361 47.4413 19.7073 47.3899 19.9215 47.3899C20.1356 47.3899 20.2812 47.4327 20.4011 47.5184C20.4953 47.5954 20.5724 47.7068 20.6238 47.8267C20.7094 47.6725 20.8207 47.5612 20.9578 47.4927C21.0948 47.4242 21.249 47.3899 21.4203 47.3899C21.5916 47.3899 21.6429 47.4156 21.7543 47.4584C21.8656 47.5012 21.9684 47.5783 22.0541 47.6897C22.1311 47.7839 22.174 47.8866 22.1996 48.0237C22.2168 48.1093 22.2253 48.2378 22.2253 48.4091V50.0449H21.523V48.392C21.523 48.2977 21.5059 48.2121 21.4717 48.1521C21.4117 48.0322 21.3004 47.9723 21.1376 47.9723C20.9749 47.9723 20.8207 48.0494 20.7522 48.2035C20.718 48.2892 20.7008 48.3834 20.7008 48.5033V50.0449H20.0157V48.5033C20.0157 48.3491 19.9985 48.2378 19.9643 48.1693Z" fill="#98A2B3"/>
<path d="M25.0943 46.3021V46.8074H24.4092V46.3021H25.0943ZM25.0943 47.4583V50.0449H24.4092V47.4583H25.0943Z" fill="#98A2B3"/>
<path d="M28.6747 49.5652V50.0705H28.2721C27.9552 50.0962 27.7326 50.0363 27.6127 49.9164C27.5356 49.8393 27.5013 49.7194 27.5013 49.5566V48.0493H27.1416V47.484H27.5013V46.8502H28.1694V47.484H28.589V48.0493H28.1694V49.334C28.1694 49.4367 28.1865 49.5053 28.2122 49.5309C28.2379 49.5566 28.3235 49.5738 28.4606 49.5738C28.5976 49.5738 28.5034 49.5738 28.5291 49.5738C28.5548 49.5738 28.6575 49.5738 28.6832 49.5738L28.6747 49.5652Z" fill="#98A2B3"/>
<path d="M33.6592 48.2805H35.021V48.8543H33.6592V48.2805Z" fill="#98A2B3"/>
<path d="M41.5899 50.1477C41.1445 50.1477 40.8019 50.0107 40.5707 49.7366C40.2538 49.4026 40.0996 48.923 40.0996 48.2892C40.0996 47.6554 40.2538 47.1672 40.5707 46.8418C40.8019 46.5677 41.1445 46.4307 41.5899 46.4307C42.0352 46.4307 42.3778 46.5677 42.609 46.8418C42.9259 47.1672 43.0801 47.6468 43.0801 48.2892C43.0801 48.9315 42.9259 49.4026 42.609 49.7366C42.3778 50.0107 42.0352 50.1477 41.5899 50.1477ZM42.2065 49.2056C42.3607 48.9915 42.4292 48.6917 42.4292 48.2892C42.4292 47.8866 42.3521 47.5955 42.1979 47.3813C42.0438 47.1672 41.8382 47.0559 41.5813 47.0559C41.3243 47.0559 41.1188 47.1587 40.9646 47.3728C40.8105 47.5869 40.7334 47.8866 40.7334 48.2892C40.7334 48.6917 40.8105 48.9915 40.9646 49.2056C41.1188 49.4197 41.3243 49.5225 41.5813 49.5225C41.8382 49.5225 42.0438 49.4197 42.1979 49.2056H42.2065Z" fill="#98A2B3"/>
<path d="M46.6088 48.1693C46.5489 48.0408 46.4375 47.9809 46.2748 47.9809C46.1121 47.9809 45.9493 48.0408 45.8894 48.1693C45.8551 48.2378 45.838 48.3491 45.838 48.4862V50.0449H45.1528V47.4584H45.8123V47.8353C45.898 47.6982 45.975 47.604 46.0521 47.5441C46.1806 47.4413 46.3519 47.3899 46.566 47.3899C46.7801 47.3899 46.9257 47.4327 47.0456 47.5184C47.1398 47.5954 47.2169 47.7068 47.2683 47.8267C47.3539 47.6725 47.4653 47.5612 47.6023 47.4927C47.7393 47.4242 47.8935 47.3899 48.0648 47.3899C48.2361 47.3899 48.2875 47.4156 48.3988 47.4584C48.5102 47.5012 48.6129 47.5783 48.6986 47.6897C48.7671 47.7839 48.8185 47.8866 48.8442 48.0237C48.8613 48.1093 48.8699 48.2378 48.8699 48.4091V50.0449H48.1676V48.392C48.1676 48.2977 48.1504 48.2121 48.1162 48.1521C48.0562 48.0322 47.9449 47.9723 47.7822 47.9723C47.6194 47.9723 47.4653 48.0494 47.3968 48.2035C47.3625 48.2892 47.3454 48.3834 47.3454 48.5033V50.0449H46.6602V48.5033C46.6602 48.3491 46.6431 48.2378 46.6088 48.1693Z" fill="#98A2B3"/>
<path d="M51.131 47.741C51.3109 47.5098 51.6192 47.3984 52.056 47.3984C52.4928 47.3984 52.5955 47.4584 52.8097 47.5697C53.0323 47.6811 53.1437 47.8952 53.1437 48.2035V49.394C53.1437 49.4796 53.1437 49.5738 53.1437 49.6938C53.1437 49.7794 53.1608 49.8394 53.1865 49.8736C53.2122 49.9079 53.2379 49.9336 53.2893 49.9507V50.0535H52.5527C52.5356 50.0021 52.5185 49.9507 52.5099 49.9079C52.5099 49.865 52.4928 49.8137 52.4928 49.7537C52.3986 49.8565 52.2958 49.9421 52.1673 50.0106C52.0217 50.0963 51.859 50.1391 51.6706 50.1391C51.4822 50.1391 51.2423 50.0706 51.0882 49.9421C50.934 49.8051 50.8569 49.6167 50.8569 49.3769C50.8569 49.1371 50.9768 48.8287 51.2252 48.6831C51.3622 48.606 51.5592 48.5461 51.8162 48.5204L52.0474 48.4947C52.1759 48.4776 52.2615 48.4604 52.3129 48.4348C52.4071 48.3919 52.4585 48.332 52.4585 48.2463C52.4585 48.1607 52.4243 48.0665 52.3472 48.0237C52.2701 47.9808 52.1673 47.9637 52.0217 47.9637C51.8761 47.9637 51.7477 48.0065 51.6791 48.0836C51.6278 48.1436 51.6021 48.2206 51.5849 48.3234H50.934C50.9511 48.1007 51.0111 47.9123 51.1224 47.7667L51.131 47.741ZM51.6363 49.5567C51.6963 49.6081 51.7733 49.6338 51.8676 49.6338C52.0132 49.6338 52.1502 49.591 52.2701 49.5053C52.39 49.4197 52.4585 49.2655 52.4585 49.0343V48.7859C52.4157 48.8116 52.3729 48.8373 52.33 48.8544C52.2872 48.8716 52.2273 48.8887 52.1502 48.8972L51.996 48.9229C51.8504 48.9486 51.7477 48.9829 51.6877 49.0171C51.5849 49.0771 51.5335 49.1713 51.5335 49.3083C51.5335 49.4454 51.5678 49.5053 51.6277 49.5567H51.6363Z" fill="#98A2B3"/>
<path d="M56.4584 47.9552C56.2271 47.9552 56.073 48.0494 55.9873 48.2464C55.9445 48.3491 55.9188 48.4776 55.9188 48.6403V50.0449H55.2422V47.4584H55.8931V47.8353C55.9787 47.6982 56.0644 47.604 56.1415 47.5441C56.2785 47.4413 56.4584 47.3899 56.6725 47.3899C56.8866 47.3899 57.1607 47.4584 57.332 47.604C57.5032 47.741 57.5889 47.9809 57.5889 48.2977V50.0449H56.8952V48.469C56.8952 48.332 56.878 48.2292 56.8438 48.1521C56.7753 48.0151 56.6468 47.9552 56.4669 47.9552H56.4584Z" fill="#98A2B3"/>
<path d="M64.9455 50.0878H62.4618V49.5996L63.6352 48.3492C63.7979 48.1693 63.9178 48.0237 63.9949 47.8867C64.072 47.7582 64.1148 47.6297 64.1148 47.5098C64.1148 47.3899 64.072 47.2186 63.9949 47.133C63.9178 47.0473 63.7979 46.9959 63.6437 46.9959C63.4896 46.9959 63.3525 47.0559 63.2583 47.1672C63.1641 47.2786 63.1213 47.4242 63.1213 47.6126H62.4019C62.4019 47.3899 62.4532 47.1929 62.556 47.0045C62.6588 46.8247 62.813 46.6791 63.0014 46.5763C63.1898 46.4735 63.4125 46.4221 63.6523 46.4221C64.0291 46.4221 64.3118 46.5078 64.5173 46.6876C64.7229 46.8675 64.8256 47.1159 64.8256 47.4499C64.8256 47.7839 64.7828 47.8096 64.6886 47.998C64.5944 48.1864 64.4402 48.4005 64.209 48.6489L63.3868 49.5139H64.9455V50.0963V50.0878Z" fill="#98A2B3"/>
<path d="M69.3818 48.5889C69.3818 49.0856 69.2791 49.471 69.0735 49.7365C68.868 50.002 68.5596 50.1305 68.1657 50.1305C67.7717 50.1305 67.4719 50.002 67.2578 49.7365C67.0523 49.4796 66.9409 49.1028 66.9409 48.6146V47.9465C66.9409 47.4412 67.0437 47.0558 67.2578 46.7989C67.4719 46.5419 67.7717 46.4049 68.1657 46.4049C68.5596 46.4049 68.8594 46.5334 69.0735 46.7903C69.2791 47.0473 69.3904 47.4241 69.3904 47.9123V48.5803L69.3818 48.5889ZM68.6624 47.8523C68.6624 47.5526 68.6196 47.3299 68.5425 47.1929C68.4654 47.0558 68.3284 46.9873 68.1571 46.9873C67.9858 46.9873 67.8659 47.0558 67.7803 47.1843C67.7032 47.3128 67.6603 47.5183 67.6518 47.7924V48.6745C67.6518 48.9657 67.6946 49.1884 67.7717 49.334C67.8488 49.4796 67.9772 49.5481 68.1571 49.5481C68.337 49.5481 68.4569 49.4796 68.5339 49.3426C68.611 49.2055 68.6538 48.9914 68.6538 48.7088V47.8438L68.6624 47.8523Z" fill="#98A2B3"/>
<path d="M73.9211 50.0878H71.4374V49.5996L72.6107 48.3492C72.7735 48.1693 72.8934 48.0237 72.9705 47.8867C73.0475 47.7582 73.0904 47.6297 73.0904 47.5098C73.0904 47.3899 73.0475 47.2186 72.9705 47.133C72.8934 47.0473 72.7735 46.9959 72.6193 46.9959C72.4651 46.9959 72.3281 47.0559 72.2339 47.1672C72.1397 47.2786 72.0969 47.4242 72.0969 47.6126H71.3774C71.3774 47.3899 71.4288 47.1929 71.5316 47.0045C71.6344 46.8247 71.7885 46.6791 71.977 46.5763C72.1654 46.4735 72.3881 46.4221 72.6279 46.4221C73.0047 46.4221 73.2873 46.5078 73.4929 46.6876C73.6984 46.8675 73.8012 47.1159 73.8012 47.4499C73.8012 47.7839 73.7584 47.8096 73.6642 47.998C73.57 48.1864 73.4158 48.4005 73.1846 48.6489L72.3624 49.5139H73.9211V50.0963V50.0878Z" fill="#98A2B3"/>
<path d="M77.9981 48.7173H78.4092V49.2997H77.9981V50.0791H77.2786V49.2997H75.797L75.7627 48.8458L77.2701 46.4648H77.9981V48.7259V48.7173ZM76.4821 48.7173H77.2786V47.4412L77.2272 47.5269L76.4736 48.7259L76.4821 48.7173Z" fill="#98A2B3"/>
</svg>
