<svg width="80" height="80" viewBox="0 0 80 80" fill="none" xmlns="http://www.w3.org/2000/svg">
<path d="M79 37.7617L76.7044 44.7237L74.6226 44.7039L73.1977 40.4016L71.8362 44.6841C71.8006 44.7356 71.7491 44.7356 71.6977 44.7435C71.1356 44.8187 70.4113 44.6841 69.8335 44.7435L69.7345 44.7237C68.935 42.3529 68.2147 39.9465 67.4112 37.5757L67.4033 37.4095H69.5208L70.8665 42.064L72.2913 37.449C72.323 37.4095 72.3665 37.4134 72.4101 37.4095C72.5882 37.3897 74.0645 37.3818 74.1357 37.4292L74.1793 37.5044L75.5408 42.064L75.6397 41.965L76.8627 37.4649L77.0013 37.4055H79V37.7617Z" fill="#98A2B3"/>
<path d="M4.69013 34.0135C6.53452 34.1798 8.16518 35.8936 7.40922 37.7894C7.10842 38.5414 6.66513 38.7274 6.04374 39.1113C5.42234 39.4953 5.96062 39.147 5.97645 39.2182C7.60711 39.5863 8.30371 41.1932 7.67836 42.7091C7.22715 43.8015 6.18622 44.4981 5.04239 44.696C3.36819 44.791 1.67816 44.7158 0 44.7395V34.0135H4.69013ZM2.01854 35.8263V38.3316C2.01854 38.3356 2.07395 38.391 2.07791 38.391H4.21518C5.24028 38.391 5.93687 37.2115 5.30361 36.3606C4.67034 35.5096 4.702 35.8263 4.41308 35.8263H2.01854ZM2.07791 40.1285C2.06603 40.1483 2.01854 40.176 2.01854 40.1879V42.8318C2.01854 42.8357 2.07395 42.8912 2.07791 42.8912H4.53181C5.75085 42.8912 6.32475 41.3436 5.44213 40.5243C5.26403 40.3581 4.76929 40.1325 4.53181 40.1325H2.07791V40.1285Z" fill="#98A2B3"/>
<path d="M24.2622 39.3369L24.4007 39.3013L26.4192 37.4055H29.0908L25.2477 41.0191C25.2319 41.1141 25.3466 41.1932 25.41 41.2526C26.5736 42.3925 27.8085 43.4651 28.9958 44.5812L29.0512 44.7395H26.4588C26.2649 44.5812 26.067 44.415 25.8849 44.2487C25.41 43.8133 24.8836 43.2117 24.3809 42.8278C23.8782 42.4439 24.3294 42.7526 24.2622 42.7685V44.6406C24.2622 44.6524 24.2107 44.6999 24.2226 44.7395H22.2832V34.0135H24.2028C24.2068 34.0135 24.2622 34.069 24.2622 34.0729V39.3369Z" fill="#98A2B3"/>
<path d="M67.4428 42.1392C67.328 42.5983 67.0787 43.105 66.7858 43.477C64.3873 46.5088 59.7328 44.5338 60.0019 40.7381C60.2473 37.2789 64.7197 35.8818 66.8016 38.6919C67.1459 39.1589 67.6011 40.0772 67.6011 40.659V41.4664H61.9611C61.7473 41.4664 62.0838 42.159 62.1313 42.2421C62.9664 43.6749 64.7554 43.5403 65.5232 42.1353H67.4428V42.1392ZM65.543 40.1286C65.5192 39.7724 65.167 39.3608 64.8899 39.1431C63.8332 38.3238 62.3648 38.8977 62.0204 40.1286H65.543Z" fill="#98A2B3"/>
<path d="M34.3545 37.841C34.3664 37.8449 34.3822 37.837 34.3941 37.841L34.8493 38.2763C34.873 38.308 34.9324 38.3041 34.9482 38.312C35.0036 38.3951 35.0313 38.5415 35.1857 38.5494C35.1896 38.5613 35.1817 38.5772 35.1857 38.589C35.3282 38.8819 35.53 39.1392 35.6606 39.436C35.7912 39.7329 35.8189 39.9347 35.9377 40.1682C35.9377 40.1959 35.9377 40.2197 35.9377 40.2474C35.9812 40.659 36.0525 41.0508 36.0168 41.4704H30.3372C30.2027 41.4704 30.3966 41.9335 30.4283 42.0087C30.5153 42.2105 30.6499 42.4717 30.832 42.5746C30.8993 42.6855 30.8993 42.6419 30.9111 42.6538C30.9586 42.7092 30.9626 42.7053 30.9903 42.733C31.018 42.7607 30.9982 42.8675 31.109 42.8517C31.1209 42.8636 31.1644 42.8794 31.1882 42.8913C31.1803 42.9744 31.1842 42.9784 31.2673 42.9704C31.2673 42.9744 31.2951 42.9665 31.3069 42.9704C31.2871 43.0654 31.3544 43.0536 31.4098 43.0813C31.9204 43.3464 32.5062 43.3346 33.0167 43.0773C33.1276 43.0219 33.3136 42.9467 33.3255 42.8121C33.4759 42.7171 33.5748 42.6855 33.6421 42.4955C33.7173 42.5074 33.7331 42.4915 33.7213 42.4163C33.7727 42.3649 33.7767 42.3134 33.8004 42.258C33.8914 42.2778 33.8914 42.2066 33.9191 42.1393C34.5485 42.1828 35.2213 42.1116 35.8585 42.1393C35.7992 42.3688 35.7042 42.6301 35.5973 42.8438C35.4904 43.0575 35.2213 43.481 35.0274 43.7145C34.9284 43.8372 34.8374 43.9322 34.7107 44.0312C34.5841 44.1301 34.5445 44.0509 34.5524 44.1895C34.5405 44.1934 34.5247 44.1855 34.5128 44.1895C34.3822 44.2528 34.125 44.3636 34.0775 44.5061C34.0656 44.5101 34.0418 44.4982 34.0379 44.5061C33.9429 44.5061 33.8994 44.4784 33.9191 44.5853C33.9073 44.5853 33.8914 44.5853 33.8796 44.5853C33.6896 44.6248 33.5431 44.7238 33.373 44.7713C33.1474 44.8386 32.9138 44.8663 32.6922 44.9415C32.6684 44.9375 32.6407 44.9415 32.613 44.9415C32.3558 44.9217 32.0787 44.9613 31.8215 44.9415C31.5642 44.9217 31.77 44.9415 31.7423 44.9415C31.2515 44.8861 30.7251 44.6248 30.2779 44.4269C30.266 44.423 30.2502 44.4309 30.2383 44.4269C30.2383 44.3122 30.0206 44.2409 29.9217 44.1895C29.8227 44.138 29.8939 44.1934 29.8821 44.1895C29.8939 44.0391 29.6802 43.9916 29.6446 43.952C29.609 43.9124 29.6169 43.9243 29.605 43.9124C29.4784 43.7818 29.4507 43.7343 29.2884 43.5958C29.1261 43.4573 29.328 43.485 29.2092 43.5166C29.2092 43.5048 29.2092 43.4889 29.2092 43.477C29.1776 43.3781 29.0747 43.1565 28.9718 43.1604C28.9678 43.1485 28.9757 43.1327 28.9718 43.1208C28.7778 42.6776 28.5799 42.2501 28.4572 41.7791C28.4572 41.7277 28.4572 41.6722 28.4572 41.6208C28.4374 41.1933 28.4374 40.9004 28.4572 40.4769C28.477 40.0535 28.4572 40.3978 28.4572 40.3582C28.568 40.002 28.6828 39.6418 28.8134 39.2935C28.944 38.9452 28.8095 39.2658 28.8134 39.254C28.9124 39.2737 28.8926 39.2025 28.9243 39.151C29.0192 38.9848 29.1261 38.8344 29.2092 38.6642C29.2923 38.494 29.2053 38.6365 29.2092 38.6246C29.3478 38.6326 29.3319 38.5138 29.3675 38.4663C29.4032 38.4188 29.4546 38.3436 29.4863 38.308C29.5179 38.2724 29.5615 38.2328 29.5654 38.2289C31.0338 36.9227 32.6882 36.9504 34.3545 37.8331V37.841ZM33.9983 40.1287C33.7885 39.4044 33.0444 38.783 32.2766 38.7473C31.4692 38.7078 30.6222 39.3529 30.4362 40.1287H33.9983Z" fill="#98A2B3"/>
<path d="M18.2856 37.2471C18.3133 37.2471 18.3371 37.2471 18.3648 37.2471C18.6181 37.354 18.8951 37.4015 19.1524 37.5083C19.5363 37.6706 19.8727 37.9358 20.225 38.1535C20.5773 38.3712 20.2369 38.197 20.3437 38.2326C20.316 38.3553 20.4031 38.296 20.4229 38.3118C20.4427 38.3276 20.6247 38.6007 20.6762 38.672C21.6024 39.9068 21.7488 41.5217 21.0522 42.903C20.9295 43.1484 20.7277 43.3463 20.6208 43.5996C20.601 43.6114 20.5931 43.6312 20.5812 43.6392C20.5693 43.6471 20.51 43.655 20.4625 43.6946C20.3714 43.7658 20.221 43.9162 20.1854 44.031C20.1458 44.0587 20.1063 44.0864 20.0667 44.1101C19.9836 44.1576 19.8292 44.1695 19.8292 44.308C19.8173 44.312 19.8015 44.3041 19.7896 44.308C19.7144 44.3357 19.6076 44.316 19.6313 44.4268C19.6194 44.4307 19.5957 44.4189 19.5917 44.4268C19.5086 44.4189 19.5047 44.4228 19.5126 44.5059C19.5007 44.5059 19.4849 44.5059 19.473 44.5059C19.2118 44.5693 18.9743 44.7157 18.7131 44.7949C17.498 45.1471 16.56 44.8899 15.4755 44.3516C15.4636 44.3476 15.4478 44.3555 15.4359 44.3516C15.428 44.2012 15.2657 44.1695 15.1589 44.1141C15.052 44.0587 15.1312 44.1181 15.1193 44.1141C15.0639 43.9756 14.8818 43.7935 14.7631 43.6985C14.6443 43.6035 14.6562 43.651 14.6443 43.6431C14.6325 43.6352 14.6245 43.6154 14.6048 43.6035C14.5771 43.5046 14.5216 43.37 14.4069 43.3661C14.3792 43.3106 14.3554 43.2632 14.3277 43.2077C14.2921 43.1286 14.3079 43.0098 14.1694 43.0098C14.1456 42.9465 14.1179 42.8476 14.0902 42.7724C14.0625 42.6972 14.0704 42.5745 13.9715 42.5349C13.9675 42.5111 13.9715 42.4795 13.9715 42.4557C13.9636 42.3964 13.9557 42.3568 13.8923 42.337C13.8923 42.3093 13.8923 42.2855 13.8923 42.2578C13.8884 42.1787 13.8844 42.1074 13.8132 42.0599C13.8132 42.0322 13.8132 42.0085 13.8132 41.9808C13.8053 41.8779 13.8053 41.7512 13.734 41.6642C13.734 41.6127 13.734 41.5573 13.734 41.5058C13.734 41.2129 13.7024 40.9121 13.6944 40.6391C13.6865 40.366 13.6944 40.5322 13.6944 40.4807C13.7815 40.5243 13.8092 40.3303 13.8132 40.2551C13.8171 40.1799 13.7736 40.1681 13.7736 40.1641C13.7736 40.1364 13.7736 40.1126 13.7736 40.0849C13.9477 40.1008 13.8528 39.9108 13.8528 39.887C13.8528 39.8633 13.8528 39.8356 13.8528 39.8079C13.9675 39.8158 13.9477 39.7446 13.9754 39.6733C14.0704 39.4438 14.1694 39.2379 14.2881 39.0163C14.4069 38.7947 14.3554 38.8659 14.4069 38.7788C14.5216 38.7788 14.5771 38.6403 14.6048 38.5414C14.6839 38.4622 14.6879 38.478 14.7235 38.383C14.8264 38.4107 14.7908 38.3158 14.8027 38.3039C14.8145 38.292 14.8779 38.2287 14.8818 38.2247C14.8937 38.2128 14.9887 38.2485 14.961 38.1456C14.9847 38.1337 15.0124 38.1218 15.0401 38.106C15.3132 37.9477 15.5586 37.7656 15.8317 37.6112L16.8212 37.2392C16.8489 37.2392 16.8726 37.2392 16.9003 37.2392C17.403 37.2075 17.779 37.2075 18.2856 37.2392V37.2471ZM17.2882 38.9926C16.6668 39.0757 16.0336 39.6773 15.8159 40.2472C15.0005 42.3647 17.5732 44.2803 19.0614 42.4557C20.2052 41.0507 19.188 38.7393 17.2882 38.9965V38.9926Z" fill="#98A2B3"/>
<path d="M48.2469 39.5349H46.4461C46.4184 39.5349 46.3392 39.3528 46.3075 39.3172C45.8801 38.8224 45.2033 38.6087 44.5621 38.7631C43.9209 38.9174 43.6201 39.5349 44.384 39.8911C45.3497 40.3383 46.7033 40.271 47.5503 41.0349C48.243 41.6563 48.4527 42.7012 47.9817 43.5165C46.5727 45.9704 41.7916 45.1234 41.7124 42.1392H43.5133C43.7982 43.0653 45.041 43.564 45.9038 43.1405C46.5965 42.8001 46.3867 42.2144 45.7693 41.9413C44.9421 41.5772 43.9882 41.6246 43.1491 41.1576C41.5937 40.2908 41.6649 38.3989 43.2283 37.5955C44.9618 36.705 48.0055 37.2551 48.243 39.5349H48.2469Z" fill="#98A2B3"/>
<path d="M56.7169 37.4056L56.6536 37.56C54.7775 39.9229 52.9252 42.3016 51.0848 44.6882L50.9977 44.7397H49.1375C49.1335 44.7397 49.0781 44.6842 49.0781 44.6803V39.5746H51.0175V41.5852C51.0887 41.5971 51.1165 41.5496 51.156 41.506C51.5597 41.0905 51.9437 40.473 52.3038 40.0099C52.9885 39.1313 53.6851 38.2566 54.3976 37.4056H56.7129H56.7169Z" fill="#98A2B3"/>
<path d="M13.4965 39.1828C13.2709 39.159 13.0651 39.0522 12.8395 39.0284C12.0915 38.9532 11.3988 39.2936 11.0545 39.9625C10.7102 40.6314 10.8052 40.5918 10.8052 40.663V44.6843C10.8052 44.6882 10.7497 44.7436 10.7458 44.7436H8.84599C8.84203 44.7436 8.78662 44.6882 8.78662 44.6843V37.465C8.78662 37.4452 8.89349 37.3819 8.92911 37.378H10.6627C10.7023 37.378 10.8052 37.4452 10.8052 37.465V38.2724C10.916 38.2962 10.8962 38.1695 10.9635 38.0943C11.4147 37.5759 12.2181 37.1326 12.9187 37.1326C13.6192 37.1326 13.4965 37.2038 13.4965 37.2671V39.1788V39.1828Z" fill="#98A2B3"/>
<path d="M41.4394 37.2078V39.1788C40.4737 38.8226 39.4644 39.0244 38.9894 39.9941C38.4828 41.0192 38.8469 43.295 38.748 44.526C38.6491 45.7569 38.7243 44.6684 38.7084 44.7397H36.769V37.4057H38.7084C38.7876 37.6708 38.744 37.9519 38.7163 38.2249C38.6886 38.498 38.6728 38.3279 38.7638 38.312C39.3892 37.465 40.3707 36.998 41.4354 37.2078H41.4394Z" fill="#98A2B3"/>
<path d="M59.1708 37.4056V44.6842C59.1708 44.6882 59.1154 44.7436 59.1115 44.7436H57.2314V37.4056H59.1708Z" fill="#98A2B3"/>
<path d="M57.9716 34.0216C59.5587 33.7485 59.9466 36.147 58.4267 36.3687C56.7288 36.6141 56.5269 34.271 57.9716 34.0216Z" fill="#98A2B3"/>
</svg>
