<svg width="80" height="80" viewBox="0 0 80 80" fill="none" xmlns="http://www.w3.org/2000/svg">
<path d="M64.7276 14.58C64.0955 13.0513 63.0372 10.376 62.1185 9.07517C62.0523 8.97963 61.9935 8.95758 62.0156 9.11192C62.7579 14.7857 63.4487 20.4596 63.706 26.1849C63.9044 30.6901 64.0293 36.1582 62.2949 40.3915C61.0601 43.4121 59.4506 44.544 56.1213 44.4117C52.0055 44.25 47.1107 42.5449 43.4654 40.6708C40.4594 39.1274 37.4461 36.9593 34.9326 34.7103C34.1388 33.9974 32.9776 32.9758 32.3235 32.1747C31.8237 31.5721 31.5224 30.6681 31.1402 29.9772C30.0378 27.9781 28.8398 26.0379 27.4214 24.2446C27.3258 24.2887 27.4214 24.4357 27.4361 24.5092C28.4062 28.6543 30.0011 32.6598 30.6993 36.9372C31.1182 39.5169 31.7282 44.7865 28.9354 46.2123C26.8187 47.3 22.4972 46.1388 20.3291 45.3304C14.4201 43.1329 10.0177 38.5835 6.43115 33.5564C7.62177 38.7819 10.9364 43.662 15.2506 46.815C20.5643 50.6955 32.103 54.1204 34.4843 45.2789C34.6974 44.4778 34.9914 42.736 34.8591 41.9496C34.9252 41.9937 34.9987 41.9937 35.0722 42.0231C35.7557 42.6625 36.5201 43.2431 37.2697 43.8164C40.4741 46.2637 43.2302 48.1232 47.052 49.5563C54.0193 52.1728 62.4492 53.0253 66.8883 45.8375C72.0624 37.459 68.2627 23.1275 64.7349 14.5947L64.7276 14.58Z" fill="#98A2B3"/>
<path d="M74.2238 57.5968L75.0323 61.7566L76.0245 57.5894C76.1935 57.6262 76.9726 57.5453 77.0314 57.5968C77.1931 57.7364 77.781 61.1981 77.9574 61.6831L78.0603 61.617L78.8026 57.5968H80.0006L78.7291 63.5205H77.465L76.5096 59.6473L75.5174 63.5279H74.2973C74.2973 63.5205 73.0259 57.5968 73.0259 57.5968H74.2238Z" fill="#98A2B3"/>
<path d="M44.1341 57.5968L46.5668 61.4039V57.5968H47.7648V63.5205H46.4933L44.1635 59.7135V63.5205H43.0023C42.995 63.5205 42.8994 63.425 42.8994 63.4176V57.707C42.8994 57.6997 42.995 57.6041 43.0023 57.6041H44.1341V57.5968Z" fill="#98A2B3"/>
<path d="M28.7218 63.5205H27.3842L26.3626 61.4039C26.1862 61.2422 25.5983 61.3745 25.341 61.3377V63.5205H24.1431V57.5968H26.7889C26.855 57.5968 27.4063 57.7511 27.5091 57.7952C28.935 58.3611 28.8027 60.4705 27.4724 61.0878L28.7365 63.5205H28.7218ZM25.3337 60.3455H26.6419C26.9579 60.3455 27.296 59.7723 27.296 59.4636C27.296 59.1549 26.9432 58.5816 26.5684 58.5816H25.3337V60.3455Z" fill="#98A2B3"/>
<path d="M7.70285 57.5968V59.9927H10.0988V57.6997C10.0988 57.6923 10.1943 57.5968 10.2017 57.5968H11.26C11.3409 57.5968 11.3629 57.7658 11.3703 57.8393C11.5687 59.515 11.2159 61.5655 11.3703 63.278C11.385 63.3515 11.3188 63.5205 11.26 63.5205H10.2017C10.1943 63.5205 10.0988 63.425 10.0988 63.4176V60.9849H7.70285V63.5205H6.50488V57.5968H7.70285Z" fill="#98A2B3"/>
<path d="M62.9338 57.5968V59.9927H65.3298V57.5968H66.5277V63.5205H65.3298V60.9776H62.9338V63.5205H61.7358V57.5968H62.9338Z" fill="#98A2B3"/>
<path d="M35.0723 63.5205V57.5968H37.2918C37.4094 57.5968 38.0121 57.8026 38.1517 57.8687C40.092 58.7801 40.1067 62.2931 38.1958 63.2265C38.0415 63.3074 37.4315 63.5205 37.2918 63.5205H35.0723ZM36.3878 58.589C36.3511 58.6037 36.3217 58.611 36.2996 58.6478L36.2776 62.4181C36.3805 62.7268 37.5123 62.4622 37.7842 62.249C38.4604 61.7272 38.4824 59.9339 38.1076 59.2504C37.8136 58.7139 36.9464 58.4052 36.3878 58.5963V58.589Z" fill="#98A2B3"/>
<path d="M69.5491 57.5454C71.9671 57.2147 72.6873 59.3534 72.4522 61.3598C72.1288 64.1306 68.285 64.4172 67.5794 61.7346C67.1532 60.1177 67.6015 57.81 69.5491 57.5454ZM69.8284 58.5302C68.5422 58.6699 68.5275 60.8159 68.8509 61.7273C69.1743 62.6386 70.4972 62.9546 70.997 61.9625C71.4967 60.9703 71.4379 58.3538 69.8284 58.5302Z" fill="#98A2B3"/>
<path d="M53.483 59.5004H52.3512C52.2409 58.3318 50.6828 58.1333 50.1463 59.0961C49.6906 59.9266 49.7053 62.3814 50.918 62.5872C51.1311 62.6239 52.2777 62.6166 52.2777 62.3593V61.3377H51.2193V60.419H53.4756V62.7782C53.4756 62.9032 52.895 63.256 52.748 63.3221C51.653 63.7851 50.0067 63.741 49.2423 62.7121C48.4265 61.617 48.4339 59.1696 49.4261 58.1701C50.4182 57.1706 53.5344 57.4645 53.4756 59.5004H53.483Z" fill="#98A2B3"/>
<path d="M60.8913 59.3608H59.6933C59.6566 59.3608 59.6933 58.8831 59.3773 58.6552C59.0613 58.4274 57.8486 58.42 57.7825 59.0447C57.6943 59.8899 58.7452 59.934 59.3406 60.1766C60.2519 60.5587 61.0383 61.0879 60.884 62.2124C60.6047 64.307 56.2023 63.9689 56.3787 61.6906H57.5767C57.6134 61.6906 57.5546 62.1168 57.7898 62.3594C58.1352 62.7269 59.4214 62.7636 59.6419 62.2344C60.0535 61.2349 58.2822 61.0144 57.6722 60.7131C55.8054 59.7797 56.3566 57.7439 58.3263 57.5381C60.296 57.3323 60.8619 57.9423 60.8913 59.3608Z" fill="#98A2B3"/>
<path d="M29.0015 63.5204L31.1255 57.6041L32.2132 57.5894L34.4989 63.5204H33.2642L32.7938 62.3298C32.4999 62.3445 30.6845 62.2563 30.611 62.3592L30.2656 63.5131H28.9941L29.0015 63.5204ZM32.4631 61.3303L31.7208 59.1401L30.9785 61.3303H32.4631Z" fill="#98A2B3"/>
<path d="M16.3754 57.5968V58.5816H13.6267V59.9927H15.9565V60.9776H13.6267V62.5283H16.3754V63.5205H12.4287V57.5968H16.3754Z" fill="#98A2B3"/>
<path d="M23.4309 57.5968V58.5816H21.5935V63.5205H20.3955V58.5816H18.6684C18.492 58.5816 18.5802 57.7438 18.5655 57.5968H23.4309Z" fill="#98A2B3"/>
<path d="M5.79924 57.5968V58.5816H3.96186V63.5205H2.76389V58.5816H1V57.5968H5.79924Z" fill="#98A2B3"/>
<path d="M41.7673 57.5968H40.5693V63.5205H41.7673V57.5968Z" fill="#98A2B3"/>
<path d="M5.72644 66.7616C5.21932 66.7984 5.43981 66.7469 5.35896 66.4603C5.10908 65.5931 3.36724 65.6372 3.38929 66.5853C3.41869 67.6142 5.32221 67.2467 5.70439 68.2315C6.39524 70.0028 2.80868 70.2233 2.90422 68.4594C3.41869 68.4079 3.1835 68.5035 3.2864 68.8122C3.59508 69.7308 5.84403 69.5324 5.36631 68.3565C4.88859 67.1806 2.94832 67.9229 3.04386 66.5118C3.13941 65.0933 5.89548 65.277 5.72644 66.7616Z" fill="#98A2B3"/>
<path d="M11.51 69.3707V70.6789C11.51 70.7745 11.2528 70.8112 11.1572 70.7818V66.622C11.1572 66.6073 11.3924 66.6293 11.4365 66.622V66.9747C11.6349 66.9747 11.7084 66.7543 11.8775 66.6734C14.1632 65.6371 14.1779 71.0317 11.5027 69.3707H11.51ZM11.679 69.1355C12.098 69.5544 12.8623 69.4148 13.0828 68.8562C13.3033 68.2977 13.2518 66.8425 12.2597 66.9013C11.2675 66.96 11.6276 67.1217 11.5468 67.3937C11.4659 67.6656 11.4586 68.9077 11.679 69.1355Z" fill="#98A2B3"/>
<path d="M76.406 67.0483C76.7808 66.6 77.5599 66.3428 78.0229 66.8058C78.0964 66.8719 78.3095 67.2982 78.3095 67.3644V69.6574H77.9567V67.4378C77.9567 67.4158 77.8098 67.0851 77.7804 67.0483C77.626 66.8646 77.2438 66.8793 77.0234 66.9234C75.9577 67.1439 76.6118 68.871 76.3987 69.5398C76.1855 70.2086 76.1855 69.6574 76.0532 69.6574V65.3579C76.1488 65.3359 76.406 65.3726 76.406 65.4608V67.0483Z" fill="#98A2B3"/>
<path d="M30.1333 65.3506V67.041C30.5523 66.6294 31.1329 66.3795 31.6841 66.7249C32.2353 67.0704 32.0369 67.0924 32.0369 67.2174V69.65C32.0369 69.6647 31.7576 69.6647 31.7576 69.65V67.5701C31.7576 66.7911 30.7801 66.6661 30.3465 67.2174C29.9129 67.7686 30.1333 67.5481 30.1333 67.5701V69.65C29.9643 69.6647 29.7953 69.6721 29.7806 69.4737C29.8908 68.2536 29.6336 66.7837 29.7806 65.5931C29.9276 64.4025 29.8761 65.3359 30.1333 65.3506Z" fill="#98A2B3"/>
<path d="M55.5112 66.5633C57.3192 66.4237 57.4074 69.4296 55.9081 69.6428C53.8061 69.9441 53.762 66.6956 55.5112 66.5633ZM55.3642 66.9234C54.3353 67.1292 54.3353 69.5546 55.7611 69.3708C56.9591 69.2165 56.8782 66.6148 55.3642 66.9234Z" fill="#98A2B3"/>
<path d="M23.0635 66.5633C24.8715 66.4237 24.9596 69.4296 23.4603 69.6428C21.3584 69.9441 21.3143 66.6956 23.0635 66.5633ZM22.9165 66.9234C21.8728 67.1366 21.9022 69.584 23.3207 69.3708C24.5187 69.1944 24.4231 66.6148 22.9165 66.9234Z" fill="#98A2B3"/>
<path d="M35.2122 68.1728H33.0955C33.0294 68.9592 33.5879 69.5177 34.3817 69.3561C34.5948 69.312 34.9917 68.8563 35.0652 69.1282C35.1387 69.4001 34.6904 69.5839 34.5066 69.628C33.6467 69.8264 32.8456 69.4075 32.7354 68.4962C32.4635 66.1223 35.2636 65.8503 35.2048 68.1801L35.2122 68.1728ZM34.8594 67.8935C34.8594 66.5191 33.1249 66.5632 33.0955 67.8935H34.8594Z" fill="#98A2B3"/>
<path d="M70.3427 68.1728C70.4456 68.9519 70.8204 69.5398 71.7023 69.3561C71.9008 69.312 72.4593 68.7608 72.3565 69.2385C72.2536 69.7162 71.0629 69.7309 70.6661 69.5031C69.3211 68.7167 70.2545 65.7695 71.9375 66.747C72.3712 66.9969 72.7166 68.1728 72.4152 68.1728H70.3353H70.3427ZM70.4088 67.8935H72.0698C72.3271 67.8935 72.0404 66.9454 71.4378 66.9013C70.8351 66.8573 70.4382 67.2615 70.4088 67.8935Z" fill="#98A2B3"/>
<path d="M10.525 68.173H8.40837C8.31282 69.0329 9.15067 69.709 9.95177 69.2607C10.7529 68.8124 10.3045 68.8124 10.4515 69.1946C9.56224 70.1206 8.15848 69.6649 8.04824 68.3494C7.8645 66.1151 10.6573 65.9093 10.5177 68.173H10.525ZM10.1723 67.8937C10.2163 66.5046 8.48186 66.5781 8.40837 67.8937H10.1723Z" fill="#98A2B3"/>
<path d="M52.4253 68.173H50.3086C50.3454 68.9667 50.8231 69.5326 51.6683 69.3563C51.8961 69.3122 52.1313 69.0329 52.1828 69.0182C52.5282 68.9373 52.2489 69.3489 52.0725 69.4738C51.7565 69.6943 51.3743 69.7017 50.9995 69.6355C49.7868 69.4297 49.6766 67.3131 50.6835 66.7472C51.7271 66.1592 52.6311 67.0999 52.4253 68.173ZM50.3821 67.8937H52.0431C52.3004 67.8937 51.977 67.0926 51.6389 66.9603C50.9701 66.6884 50.3527 67.2102 50.3895 67.8937H50.3821Z" fill="#98A2B3"/>
<path d="M39.7983 65.6372C39.8277 65.7181 39.7689 65.9165 39.6954 65.9165H37.6155V67.4673H39.519C39.5337 67.4673 39.5337 67.7465 39.519 67.7465H37.6155V69.6501C37.5199 69.6721 37.2627 69.6354 37.2627 69.5472V65.6299H39.8056L39.7983 65.6372Z" fill="#98A2B3"/>
<path d="M19.4106 69.6574C19.2783 69.6574 19.1166 69.6868 19.0652 69.5398C18.9476 69.1796 19.1019 68.0552 19.0652 67.5701C19.0284 67.085 18.7271 66.7984 18.1244 66.916C17.0661 67.1291 17.7129 68.8783 17.4997 69.5324C17.2866 70.1865 17.2866 69.65 17.1543 69.65V66.6147C17.5071 66.5632 17.5365 66.7249 17.5071 67.0409C17.9039 66.6367 18.3596 66.4162 18.9182 66.6514C19.4767 66.8866 19.4106 67.1071 19.4106 67.357V69.65V69.6574Z" fill="#98A2B3"/>
<path d="M47.1325 66.622H47.4853V69.6574C47.1839 69.6941 47.1031 69.5986 47.1325 69.3046C46.7944 69.7309 45.8537 69.8117 45.4789 69.4369C45.104 69.0621 45.229 69.0327 45.229 68.9812V66.622C45.3613 66.622 45.523 66.5926 45.5744 66.7396C45.8316 67.526 44.957 69.7382 46.5739 69.3414C48.1908 68.9445 47.1325 68.9959 47.1325 68.8416V66.622Z" fill="#98A2B3"/>
<path d="M63.427 65.6372C63.4343 65.6445 63.4417 65.9164 63.427 65.9164H61.3103V67.4672H63.1477C63.1624 67.4672 63.1624 67.7465 63.1477 67.7465H61.3103V69.5471C61.3103 69.6426 61.0531 69.6794 60.9575 69.65V65.6298C61.2662 65.696 63.3388 65.5416 63.427 65.6298V65.6372Z" fill="#98A2B3"/>
<path d="M40.6433 66.6221V68.8417C40.6433 69.4884 42.0985 69.6428 42.1941 68.7755C42.2896 67.9083 42.0765 67.1292 42.2014 66.7397C42.3263 66.3502 42.4145 66.6221 42.5468 66.6221V69.6575C42.2675 69.7016 42.2235 69.6428 42.1941 69.3782C41.7237 69.7236 40.8197 69.8632 40.4669 69.3047C40.4228 69.2385 40.2905 68.9005 40.2905 68.849V66.6295H40.6433V66.6221Z" fill="#98A2B3"/>
<path d="M65.3306 66.622H65.6098C65.5731 67.4452 65.7348 66.8499 66.1243 66.6808C66.6094 66.4677 67.2855 66.5706 67.4766 67.1145C67.6677 67.6583 67.6383 68.9445 67.5869 69.4075C67.5354 69.8705 67.4913 69.6647 67.2341 69.65V67.4305C67.2341 66.8793 66.3448 66.7249 65.9259 67.1071C65.8524 67.1732 65.6098 67.5113 65.6098 67.5701V69.65C65.6098 69.6647 65.3306 69.6647 65.3306 69.65V66.6147V66.622Z" fill="#98A2B3"/>
<path d="M75.3476 67.6804C74.9508 67.7613 75.1051 67.5187 74.9508 67.2615C74.7597 66.9234 74.3996 66.8573 74.0394 66.9014C73.0546 67.019 73.0472 69.1283 73.9292 69.3414C74.3187 69.437 74.6788 69.3929 74.9214 69.0548C75.1639 68.7167 74.9655 68.5918 75.3403 68.6653C75.3917 69.6133 74.1423 69.9367 73.4735 69.437C72.8047 68.9372 72.7606 67.3056 73.5103 66.7985C74.2599 66.2914 75.4285 66.6735 75.3403 67.6731L75.3476 67.6804Z" fill="#98A2B3"/>
<path d="M29.2148 65.6372C29.2075 65.6887 29.2295 65.9165 29.2148 65.9165H27.8772V69.5472C27.8772 69.6794 27.5244 69.6794 27.5244 69.5472V65.9165H26.1868C26.1721 65.9165 26.1721 65.6372 26.1868 65.6372H29.2222H29.2148Z" fill="#98A2B3"/>
<path d="M57.8556 66.9014C57.7674 66.8132 57.2162 67.1145 57.3632 66.6221C58.0834 66.6735 57.7821 66.5927 57.8629 66.1003C57.9438 65.6078 58.4068 65.2845 59.0535 65.3506C59.127 65.7989 58.9066 65.5784 58.5979 65.6372C58.1863 65.7107 58.1716 66.2987 58.2084 66.6221H58.9139C59.1491 67.0924 58.2084 66.8426 58.2084 66.9014V69.5472C58.2084 69.6795 57.8556 69.6795 57.8556 69.5472C57.8556 69.1944 57.9511 66.9969 57.8556 66.9014Z" fill="#98A2B3"/>
<path d="M6.57091 66.9014C6.54886 66.8793 6.17404 66.916 6.07849 66.9014C5.9315 66.4089 6.48272 66.7103 6.57091 66.6221C6.6591 66.5339 6.35777 65.8504 6.81344 65.843C6.98248 65.843 6.90899 65.8871 6.91634 66.0194C6.92369 66.1517 6.89429 66.6 6.91634 66.6221C7.01923 66.725 7.72478 66.3942 7.5484 66.9014C7.519 66.9307 6.91634 66.872 6.91634 66.9014V69.0548C6.91634 69.3193 7.39406 69.4369 7.62189 69.3708C7.60719 69.4369 7.63659 69.6354 7.62189 69.6501C7.58514 69.6868 6.91634 69.6574 6.79874 69.5619C6.68115 69.4663 6.56356 69.1136 6.56356 69.0548C6.56356 68.7681 6.63705 66.9822 6.56356 66.9014H6.57091Z" fill="#98A2B3"/>
<path d="M43.6044 66.9014C43.5824 66.8793 43.1414 66.9234 43.0385 66.9014C42.8768 66.3942 43.5089 66.7176 43.6044 66.6221C43.7 66.5265 43.5971 66.137 43.6044 66.0194C43.6118 65.9018 43.5456 65.843 43.7073 65.843C44.1704 65.843 43.8543 66.5265 43.9499 66.6221C44.0454 66.7176 44.6775 66.4016 44.5158 66.9014C44.4864 66.9307 43.9499 66.872 43.9499 66.9014V69.1944C43.9499 69.3708 44.4423 69.4002 44.5819 69.3708C44.5672 69.4369 44.5966 69.6354 44.5819 69.6501C44.479 69.753 43.5971 69.6354 43.5971 69.2605C43.5971 68.8857 43.6779 66.9822 43.5971 66.9014H43.6044Z" fill="#98A2B3"/>
<path d="M68.5791 66.9014C68.557 66.8793 68.1602 66.916 68.0499 66.9014C67.8441 66.4898 68.535 66.6662 68.5791 66.6221C68.6452 66.5559 68.4321 65.843 68.7555 65.843C69.0788 65.843 68.8657 66.5559 68.9319 66.6221C68.998 66.6882 69.7476 66.4751 69.5345 66.9014H68.9319V69.1209C68.9319 69.3855 69.3728 69.4002 69.5639 69.3708V69.6501C69.3434 69.6354 69.0788 69.6942 68.8731 69.5986C68.6673 69.5031 68.5717 69.2458 68.5717 69.1944C68.5717 68.8857 68.6526 66.9822 68.5717 66.9014H68.5791Z" fill="#98A2B3"/>
<path d="M20.3956 66.9013C20.3736 66.8793 19.9987 66.916 19.9032 66.9013C19.7562 66.4089 20.3074 66.7102 20.3956 66.622C20.4838 66.5338 20.1825 65.8503 20.6382 65.843C21.0938 65.8356 20.7337 65.8871 20.741 66.0194C20.7484 66.1517 20.719 66.6 20.741 66.622C20.8439 66.7249 21.5495 66.3942 21.3731 66.9013C21.3437 66.9307 20.741 66.8719 20.741 66.9013V69.0547C20.741 69.3193 21.2188 69.4369 21.4466 69.3707C21.4319 69.4369 21.4613 69.6353 21.4466 69.65C21.4319 69.6647 20.8807 69.6574 20.7925 69.6353C20.5573 69.5692 20.3883 69.1209 20.3883 68.9077C20.3883 68.6946 20.4618 66.9674 20.3883 66.9013H20.3956Z" fill="#98A2B3"/>
<path d="M48.3311 66.6222C48.6324 66.5855 48.7133 66.681 48.6839 66.975C48.897 66.6884 49.8965 66.2474 49.6981 66.9088C48.0444 66.7765 48.9411 68.7095 48.6692 69.54C48.3972 70.3705 48.456 69.6576 48.3237 69.6576V66.6222H48.3311Z" fill="#98A2B3"/>
<path d="M16.1692 65.6372V69.5545C16.1692 69.65 15.912 69.6868 15.8164 69.6574V65.6372H16.1692Z" fill="#98A2B3"/>
<path d="M64.4123 66.6221V69.6574C64.3168 69.6795 64.0596 69.6427 64.0596 69.5545V66.6294H64.4123V66.6221Z" fill="#98A2B3"/>
<path d="M64.0738 65.9753C63.8239 65.8209 64.2208 65.2918 64.456 65.6225C64.6912 65.9532 64.2722 66.0929 64.0738 65.9753Z" fill="#98A2B3"/>
</svg>
