<?xml version="1.0" encoding="UTF-8" standalone="no"?><svg xmlns="http://www.w3.org/2000/svg" xmlns:xlink="http://www.w3.org/1999/xlink" contentScriptType="text/ecmascript" fill="none" width="25" zoomAndPan="magnify" contentStyleType="text/css" viewBox="0 0 25 25" height="25" preserveAspectRatio="xMidYMid meet" version="1.0">
<g clip-path="url(#clip0_16536_39324)">
<circle fill="url(#paint0_linear_16536_39324)" r="6.35714" cx="17.9028" cy="12.8432" stroke="#EEEEEE"/>
<path fill="#D80027" d="M18.0022 16.436C19.9861 16.436 21.5945 14.8277 21.5945 12.8437C21.5945 10.8598 19.9861 9.25146 18.0022 9.25146C16.0182 9.25146 14.4099 10.8598 14.4099 12.8437C14.4099 14.8277 16.0182 16.436 18.0022 16.436Z"/>
<g clip-path="url(#clip1_16536_39324)">
<path fill="#F7931A" d="M14.383 14.2723C13.4674 17.9446 9.74794 20.1796 6.07515 19.2638C2.40389 18.3483 0.168969 14.6285 1.08491 10.9565C2.00004 7.28372 5.71954 5.04862 9.39119 5.96416C13.0637 6.87969 15.2985 10.5998 14.3829 14.2724L14.3829 14.2723H14.383Z"/>
<path fill="white" d="M10.7566 11.6374C10.893 10.7251 10.1985 10.2347 9.24879 9.90762L9.55688 8.6719L8.80466 8.48446L8.50474 9.68765C8.30698 9.63833 8.1039 9.59185 7.90205 9.54578L8.20415 8.33465L7.4524 8.14722L7.14414 9.38254C6.98049 9.34528 6.81976 9.30846 6.66382 9.26965L6.66469 9.26577L5.62736 9.00673L5.42726 9.81015C5.42726 9.81015 5.98534 9.93808 5.97358 9.94595C6.27819 10.022 6.33328 10.2236 6.32413 10.3834L5.97318 11.7912C5.99415 11.7966 6.02136 11.8043 6.05138 11.8163C6.02629 11.8101 5.99958 11.8033 5.97187 11.7967L5.47996 13.7688C5.44274 13.8613 5.34825 14.0002 5.13528 13.9474C5.14282 13.9584 4.58855 13.811 4.58855 13.811L4.21509 14.6721L5.19398 14.9161C5.37609 14.9618 5.55455 15.0095 5.73029 15.0545L5.41901 16.3044L6.17037 16.4918L6.47863 15.2552C6.68389 15.3109 6.88309 15.3623 7.07809 15.4107L6.77087 16.6415L7.52313 16.829L7.83437 15.5814C9.11707 15.8242 10.0816 15.7263 10.4875 14.5661C10.8146 13.632 10.4712 13.0932 9.79642 12.7419C10.2879 12.6285 10.6581 12.3053 10.7569 11.6375L10.7566 11.6373L10.7566 11.6374ZM9.03793 14.0474C8.80546 14.9815 7.23273 14.4765 6.72282 14.3499L7.13589 12.694C7.64576 12.8213 9.28089 13.0732 9.03796 14.0474H9.03793ZM9.27056 11.6238C9.0585 12.4735 7.7495 12.0418 7.32487 11.936L7.69937 10.4342C8.124 10.54 9.49147 10.7376 9.27063 11.6238H9.27056Z"/>
</g>
</g>
<defs>
<linearGradient x1="17.9028" gradientUnits="userSpaceOnUse" x2="17.9028" y1="5.98608" y2="19.7004" xlink:type="simple" xlink:actuate="onLoad" id="paint0_linear_16536_39324" xlink:show="other">
<stop stop-color="white" offset="0.567708"/>
<stop stop-color="#D1D1D1" offset="1"/>
</linearGradient>
<clipPath id="clip0_16536_39324">
<rect fill="white" width="24" height="24" transform="translate(0.988464 0.843262)"/>
</clipPath>
<clipPath id="clip1_16536_39324">
<rect fill="white" width="13.7085" height="13.71" transform="translate(0.879608 5.75903)"/>
</clipPath>
</defs>
<metadata symbolName="BTCJPY" fileName="btcjpy.svg" id="grimlock-metadata-id" lastUpdate="2025-02-10T09:58:22.589348905" symbolId="1476"/></svg>