<?xml version="1.0" encoding="UTF-8" standalone="no"?><svg xmlns="http://www.w3.org/2000/svg" xmlns:xlink="http://www.w3.org/1999/xlink" contentScriptType="text/ecmascript" fill="none" width="25" zoomAndPan="magnify" contentStyleType="text/css" viewBox="0 0 25 25" height="25" preserveAspectRatio="xMidYMid meet" version="1.0">
<g clip-path="url(#clip0_15237_120397)">
<circle fill="#BD3D44" r="6.85714" cx="17.7237" cy="12.6162"/>
<path fill="white" clip-rule="evenodd" d="M14.0292 6.83606C13.5747 7.12686 13.1568 7.4698 12.7838 7.85643H22.6559C22.283 7.4698 21.865 7.12686 21.4105 6.83606H14.0292ZM11.3574 10.0542C11.5125 9.66936 11.7015 9.30184 11.9207 8.95533H23.519C23.7382 9.30184 23.9272 9.66936 24.0823 10.0542H11.3574ZM11.0192 11.1531C10.9525 11.4599 10.9063 11.7744 10.8822 12.095H24.5575C24.5334 11.7744 24.4872 11.4599 24.4205 11.1531H11.0192ZM11.0317 14.1358C10.9578 13.8091 10.9072 13.4736 10.8817 13.1311H24.558C24.5325 13.4736 24.482 13.8091 24.4081 14.1358H11.0317ZM11.3804 15.2347C11.5397 15.62 11.7331 15.9875 11.9568 16.3337H23.4829C23.7066 15.9875 23.9 15.62 24.0593 15.2347H11.3804ZM13.9946 18.3743C13.5756 18.1026 13.1882 17.7865 12.8389 17.4326H22.6008C22.2515 17.7865 21.8641 18.1026 21.4451 18.3743H13.9946ZM17.6596 19.4732C17.6796 19.4733 17.6997 19.4734 17.7199 19.4734C17.74 19.4734 17.7601 19.4733 17.7801 19.4732H17.6596Z" fill-rule="evenodd"/>
<path fill="#00418E" clip-rule="evenodd" d="M10.886 13.1374C10.8731 12.9653 10.8665 12.7915 10.8665 12.6162C10.8665 8.82908 13.9366 5.75903 17.7237 5.75903C18.0064 5.75903 18.2851 5.77614 18.5588 5.80938V13.1374H10.886Z" fill-rule="evenodd"/>
<path fill="white" clip-rule="evenodd" d="M14.3775 6.64009C14.3379 6.66241 14.2986 6.68511 14.2596 6.70818L14.4445 6.84041L14.3775 6.64009ZM13.6609 7.10559C13.5223 7.2084 13.3878 7.31631 13.2575 7.42905L13.3022 7.39755L13.5542 7.57702L13.4583 7.28505L13.7131 7.10559H13.6609ZM12.59 8.09141C12.5591 8.1266 12.5285 8.16211 12.4983 8.19793L12.6639 8.3163L12.59 8.09141ZM11.3787 10.0574C11.3592 10.106 11.3401 10.1549 11.3217 10.2041L11.3681 10.2368L11.2695 10.5315L11.5243 10.3493L11.7791 10.5315L11.6804 10.2395L11.9352 10.0601H11.6229L11.5243 9.76809L11.4284 10.0574H11.3787ZM15.9649 6.07434L16.0636 6.36631H16.3759L16.1238 6.54577L16.2197 6.84041L15.9649 6.65827L15.7129 6.83773L15.8088 6.54577L15.5568 6.36631H15.8691L15.9649 6.07434ZM17.7428 6.07434L17.8387 6.36631H18.1538L17.899 6.54577L17.9976 6.84041L17.7428 6.65827L17.4881 6.83773L17.5867 6.54577L17.3319 6.36631H17.647L17.7428 6.07434ZM15.0774 6.81363L15.176 7.10559H15.4883L15.2335 7.28505L15.3321 7.57702L15.0774 7.39755L14.8253 7.57702L14.9212 7.28505L14.6664 7.10559H14.9842L15.0774 6.81363ZM16.8553 6.81363L16.9511 7.10559H17.2662L17.0114 7.28505L17.1073 7.57702L16.8553 7.39755L16.6005 7.57702L16.6964 7.28505L16.4443 7.10559H16.7566L16.8553 6.81363ZM14.1898 7.55023L14.2857 7.84488H14.6007L14.3459 8.02434L14.4445 8.3163L14.1898 8.13416L13.935 8.3163L14.0336 8.02166L13.7789 7.8422H14.0912L14.1898 7.55023ZM15.9649 7.55023L16.0636 7.84488H16.3759L16.1238 8.02434L16.2197 8.3163L15.9649 8.13416L15.7129 8.3163L15.8088 8.02166L15.5568 7.8422H15.8691L15.9649 7.55023ZM17.7428 7.55023L17.8387 7.84488H18.1538L17.899 8.02434L17.9976 8.3163L17.7428 8.13416L17.4881 8.3163L17.5867 8.02166L17.3319 7.8422H17.647L17.7428 7.55023ZM13.3022 8.28952L13.3981 8.58148H13.7131L13.4583 8.76095L13.5542 9.05559L13.3022 8.87345L13.0474 9.05291L13.1433 8.76095L12.8913 8.58148H13.2036L13.3022 8.28952ZM15.0774 8.28952L15.176 8.58148H15.4883L15.2362 8.76095L15.3321 9.05559L15.0774 8.87345L14.8253 9.05291L14.9212 8.76095L14.6664 8.58148H14.9842L15.0774 8.28952ZM16.8553 8.28952L16.9511 8.58148H17.2662L17.0114 8.76095L17.1073 9.05559L16.8553 8.87345L16.6005 9.05291L16.6964 8.76095L16.4443 8.58148H16.7566L16.8553 8.28952ZM12.4119 9.0288L12.5105 9.32077H12.82L12.568 9.50023L12.6639 9.79487L12.4091 9.61273L12.1571 9.7922L12.253 9.50023L11.9982 9.32077H12.3133L12.4119 9.0288ZM14.1898 9.0288L14.2857 9.32077H14.6007L14.3459 9.50023L14.4445 9.79487L14.1898 9.61273L13.935 9.7922L14.0336 9.50023L13.7789 9.32077H14.0912L14.1898 9.0288ZM15.9649 9.0288L16.0636 9.32077H16.3759L16.1238 9.50023L16.2197 9.79487L15.9649 9.61273L15.7129 9.7922L15.8088 9.50023L15.5568 9.32077H15.8691L15.9649 9.0288ZM17.7428 9.0288L17.8387 9.32077H18.1538L17.899 9.50023L17.9976 9.79487L17.7428 9.61273L17.4881 9.7922L17.5867 9.50023L17.3319 9.32077H17.647L17.7428 9.0288ZM13.3022 9.76809L13.3981 10.0601H13.7131L13.4583 10.2395L13.5542 10.5315L13.3022 10.3493L13.0474 10.5315L13.1433 10.2368L12.8913 10.0574H13.2036L13.3022 9.76809ZM15.0774 9.76809L15.176 10.0601H15.4883L15.2362 10.2395L15.3321 10.5315L15.0774 10.3493L14.8253 10.5315L14.9212 10.2368L14.6664 10.0574H14.9842L15.0774 9.76809ZM16.8553 9.76809L16.9511 10.0601H17.2662L17.0114 10.2395L17.1073 10.5315L16.8553 10.3493L16.6005 10.5315L16.6964 10.2368L16.4443 10.0574H16.7566L16.8553 9.76809ZM12.4119 10.5047L12.5105 10.7993H12.82L12.568 10.9788L12.6639 11.2681L12.4091 11.0886L12.1571 11.2681L12.253 10.9761L11.9982 10.7967H12.3133L12.4119 10.5047ZM14.1898 10.5047L14.2857 10.7993H14.6007L14.3459 10.9788L14.4445 11.2681L14.1898 11.0886L13.935 11.2681L14.0336 10.9761L13.7789 10.7967H14.0912L14.1898 10.5047ZM15.9649 10.5047L16.0636 10.7993H16.3759L16.1238 10.9788L16.2197 11.2681L15.9649 11.0886L15.7129 11.2681L15.8088 10.9761L15.5568 10.7967H15.8691L15.9649 10.5047ZM17.7428 10.5047L17.8387 10.7993H18.1538L17.899 10.9788L17.9976 11.2681L17.7428 11.0886L17.4881 11.2681L17.5867 10.9761L17.3319 10.7967H17.647L17.7428 10.5047ZM11.5243 11.244L11.6229 11.5359H11.9352L11.6804 11.7154L11.7791 12.0101L11.5243 11.8279L11.2695 12.0074L11.3681 11.7154L11.1134 11.5359H11.4284L11.5243 11.244ZM13.3022 11.244L13.3981 11.5359H13.7131L13.4583 11.7154L13.5542 12.0101L13.3022 11.8279L13.0474 12.0074L13.1433 11.7154L12.8913 11.5359H13.2036L13.3022 11.244ZM15.0774 11.244L15.176 11.5359H15.4883L15.2362 11.7154L15.3321 12.0101L15.0774 11.8279L14.8253 12.0074L14.9212 11.7154L14.6664 11.5359H14.9842L15.0774 11.244ZM16.8553 11.244L16.9511 11.5359H17.2662L17.0114 11.7154L17.1073 12.0101L16.8553 11.8279L16.6005 12.0074L16.6964 11.7154L16.4443 11.5359H16.7566L16.8553 11.244ZM12.4119 11.9833L12.5105 12.2752H12.82L12.5735 12.4547L12.6694 12.7467L12.4146 12.5672L12.1626 12.7467L12.2585 12.452L12.0037 12.2726H12.3187L12.4119 11.9833ZM14.1898 11.9833L14.2857 12.2752H14.6007L14.3459 12.4547L14.4445 12.7467L14.1898 12.5672L13.935 12.7467L14.0336 12.452L13.7789 12.2726H14.0912L14.1898 11.9833ZM15.9649 11.9833L16.0636 12.2752H16.3759L16.1238 12.4547L16.2197 12.7467L15.9649 12.5672L15.7129 12.7467L15.8088 12.452L15.5568 12.2726H15.8691L15.9649 11.9833ZM17.7428 11.9833L17.8387 12.2752H18.1538L17.899 12.4547L17.9976 12.7467L17.7428 12.5672L17.4881 12.7467L17.5867 12.452L17.3319 12.2726H17.647L17.7428 11.9833Z" fill-rule="evenodd"/>
<g clip-path="url(#clip1_15237_120397)">
<path fill="#F7931A" d="M14.0842 14.3294C13.1686 18.0018 9.44914 20.2367 5.77635 19.3209C2.1051 18.4054 -0.129829 14.6857 0.786108 11.0136C1.70124 7.34084 5.42074 5.10575 9.0924 6.02129C12.7649 6.93682 14.9997 10.657 14.0841 14.3295L14.0841 14.3294H14.0842Z"/>
<path fill="white" d="M10.4578 11.6945C10.5942 10.7822 9.8997 10.2919 8.94999 9.96475L9.25808 8.72903L8.50586 8.54159L8.20594 9.74478C8.00818 9.69546 7.8051 9.64898 7.60326 9.60291L7.90535 8.39178L7.1536 8.20435L6.84534 9.43967C6.68169 9.40241 6.52096 9.36558 6.36502 9.32678L6.36589 9.3229L5.32856 9.06386L5.12846 9.86728C5.12846 9.86728 5.68655 9.99521 5.67478 10.0031C5.97939 10.0791 6.03448 10.2808 6.02533 10.4406L5.67438 11.8484C5.69536 11.8537 5.72256 11.8614 5.75259 11.8735C5.72749 11.8672 5.70079 11.8604 5.67308 11.8538L5.18116 13.8259C5.14394 13.9184 5.04945 14.0573 4.83648 14.0046C4.84402 14.0155 4.28976 13.8681 4.28976 13.8681L3.91629 14.7292L4.89519 14.9732C5.07729 15.0189 5.25575 15.0667 5.43149 15.1116L5.12022 16.3615L5.87157 16.5489L6.17983 15.3123C6.38509 15.368 6.58429 15.4194 6.7793 15.4679L6.47207 16.6987L7.22433 16.8861L7.53557 15.6386C8.81827 15.8813 9.78276 15.7834 10.1887 14.6232C10.5159 13.6891 10.1724 13.1504 9.49762 12.799C9.98913 12.6857 10.3593 12.3624 10.4581 11.6946L10.4578 11.6944L10.4578 11.6945ZM8.73913 14.1045C8.50666 15.0386 6.93393 14.5336 6.42403 14.407L6.83709 12.7511C7.34697 12.8784 8.98209 13.1303 8.73916 14.1045H8.73913ZM8.97177 11.681C8.7597 12.5306 7.4507 12.099 7.02607 11.9931L7.40058 10.4913C7.8252 10.5972 9.19268 10.7947 8.97183 11.681H8.97177Z"/>
</g>
</g>
<defs>
<clipPath id="clip0_15237_120397">
<rect fill="white" width="24" height="24" transform="translate(0.580811 0.616211)"/>
</clipPath>
<clipPath id="clip1_15237_120397">
<rect fill="white" width="13.7085" height="13.71" transform="translate(0.580811 5.81616)"/>
</clipPath>
</defs>
<metadata symbolName="BTCUSD" fileName="btcusd.svg" id="grimlock-metadata-id" lastUpdate="2025-02-10T09:58:22.589354775" symbolId="1418"/></svg>