<?xml version="1.0" encoding="UTF-8" standalone="no"?><svg xmlns="http://www.w3.org/2000/svg" xmlns:xlink="http://www.w3.org/1999/xlink" contentScriptType="text/ecmascript" fill="none" width="24" zoomAndPan="magnify" contentStyleType="text/css" viewBox="0 0 24 24" height="24" preserveAspectRatio="xMidYMid meet" version="1.0">
<circle fill="url(#paint0_linear_15235_116680)" r="6.35714" cx="16.9141" cy="12" stroke="#EEEEEE"/>
<g style="mix-blend-mode:multiply">
<path fill="#D80027" d="M17.0141 15.5928C18.9981 15.5928 20.6064 13.9844 20.6064 12.0005C20.6064 10.0165 18.9981 8.4082 17.0141 8.4082C15.0302 8.4082 13.4218 10.0165 13.4218 12.0005C13.4218 13.9844 15.0302 15.5928 17.0141 15.5928Z"/>
</g>
<mask x="0" y="5" width="14" maskUnits="userSpaceOnUse" style="mask-type:alpha" height="14" id="mask0_15235_116680">
<circle fill="white" stroke-width="1.5" r="6.10714" cx="6.85714" cy="12" stroke="#D3D3D3"/>
</mask>
<g mask="url(#mask0_15235_116680)">
<rect fill="url(#paint1_linear_15235_116680)" x="0.5" width="12.7143" height="12.7143" y="5.64282" stroke="#EEEEEE"/>
<path fill="#D80027" d="M-2.74231 5.14282H2.10858V18.8571H-2.74231V5.14282ZM11.813 5.14282H16.6639V18.8571H11.8157L11.813 5.14282ZM3.56305 11.7696L3.18269 11.8982L4.93715 13.4384C5.07108 13.8321 4.89162 13.9473 4.77644 14.1562L6.67822 13.9151L6.63269 15.8303L7.02912 15.8196L6.94072 13.9178L8.84787 14.1455C8.73001 13.8964 8.62554 13.7651 8.73269 13.3687L10.4845 11.9089L10.1791 11.7964C9.92733 11.6035 10.2863 10.8669 10.3398 10.4009C10.3398 10.4009 9.31929 10.7518 9.25233 10.5669L8.98983 10.066L8.06037 11.0893C7.95858 11.1134 7.91572 11.0732 7.89162 10.9875L8.32019 8.84996L7.63983 9.233C7.58358 9.25979 7.52733 9.23836 7.48983 9.17139L6.83358 7.85889L6.15858 9.22229C6.10769 9.2705 6.0568 9.27586 6.01394 9.24372L5.36572 8.87943L5.7568 10.9982C5.72465 11.0839 5.64965 11.1053 5.56394 11.0598L4.67197 10.05C4.5568 10.2375 4.47912 10.5401 4.32376 10.6098C4.17108 10.6741 3.65412 10.4812 3.30858 10.4062C3.42644 10.8321 3.79608 11.5393 3.56305 11.7723V11.7696Z"/>
<circle stroke-width="1.3" r="6.20714" cx="6.85714" cy="12" stroke="#EEEEEE"/>
</g>
<defs>
<linearGradient x1="16.9141" gradientUnits="userSpaceOnUse" x2="16.9141" y1="5.14282" y2="18.8571" xlink:type="simple" xlink:actuate="onLoad" id="paint0_linear_15235_116680" xlink:show="other">
<stop stop-color="white" offset="0.567708"/>
<stop stop-color="#D1D1D1" offset="1"/>
</linearGradient>
<linearGradient x1="6.85714" gradientUnits="userSpaceOnUse" x2="6.85714" y1="5.14282" y2="18.8571" xlink:type="simple" xlink:actuate="onLoad" id="paint1_linear_15235_116680" xlink:show="other">
<stop stop-color="white" offset="0.567708"/>
<stop stop-color="#D1D1D1" offset="1"/>
</linearGradient>
</defs>
<metadata symbolName="CADJPY" fileName="cadjpy.svg" id="grimlock-metadata-id" lastUpdate="2025-02-10T09:58:22.589373817" symbolId="9"/></svg>