<?xml version="1.0" encoding="UTF-8"?>
<!DOCTYPE svg PUBLIC "-//W3C//DTD SVG 1.0//EN" "http://www.w3.org/TR/2001/REC-SVG-20010904/DTD/svg10.dtd">
<!-- Creator: CorelDRAW X8 -->
<svg xmlns="http://www.w3.org/2000/svg" xml:space="preserve" width="11.6929in" height="8.26772in" version="1.0" shape-rendering="geometricPrecision" text-rendering="geometricPrecision" image-rendering="optimizeQuality" fill-rule="evenodd" clip-rule="evenodd"
viewBox="0 0 11693 8268"
 xmlns:xlink="http://www.w3.org/1999/xlink">
 <g id="Layer_x0020_1">
  <metadata id="CorelCorpID_0Corel-Layer"/>
  <path fill="#93A0B3" fill-rule="nonzero" d="M4662 1768l3477 0c252,0 480,102 645,267 8,8 16,17 23,26 151,163 244,381 244,619l0 3563c0,251 -102,479 -267,644 -165,166 -393,268 -645,268l-3477 0c-250,0 -478,-103 -644,-268l0 0c-165,-165 -268,-393 -268,-644l0 -3563c0,-250 103,-477 268,-643l2 -3c166,-164 393,-266 642,-266zm-204 2888l1570 -1100 930 888 1386 -1104 0 -660c0,-51 -19,-98 -49,-133l-12 -11c-37,-37 -88,-60 -144,-60l-3477 0c-57,0 -108,22 -144,58l-1 2c-37,36 -59,87 -59,144l0 1976zm3886 -412l-1427 1136 -959 -915 -1500 1052 0 726c0,56 23,107 60,144l-1 1 1 0c36,37 87,59 144,59l3477 0c56,0 107,-23 144,-60 37,-37 61,-88 61,-144l0 -1999z"/>
 </g>
</svg>
