<?xml version="1.0" encoding="UTF-8" standalone="no"?><svg xmlns="http://www.w3.org/2000/svg" xmlns:xlink="http://www.w3.org/1999/xlink" contentScriptType="text/ecmascript" fill="none" width="24" zoomAndPan="magnify" contentStyleType="text/css" viewBox="0 0 24 24" height="24" preserveAspectRatio="xMidYMid meet" version="1.0">
<circle fill="url(#paint0_linear_15235_116681)" r="6.35714" cx="16.9141" cy="12" stroke="#EEEEEE"/>
<g style="mix-blend-mode:multiply">
<path fill="#D80027" d="M17.0141 15.5928C18.9981 15.5928 20.6064 13.9844 20.6064 12.0005C20.6064 10.0165 18.9981 8.4082 17.0141 8.4082C15.0302 8.4082 13.4218 10.0165 13.4218 12.0005C13.4218 13.9844 15.0302 15.5928 17.0141 15.5928Z"/>
</g>
<path fill="#D80027" d="M13.7143 12C13.7143 15.7868 10.644 18.8571 6.85714 18.8571C3.06998 18.8571 0 15.7871 0 12C0 8.2128 3.06998 5.14282 6.85714 5.14282C10.6443 5.14282 13.7143 8.2128 13.7143 12Z"/>
<path fill="white" d="M10.4342 10.8073H8.04931V8.42236H5.66438V10.8073H3.27911V13.1922H5.66438V15.5772H8.04931V13.1922H10.4342V10.8073V10.8073Z"/>
<defs>
<linearGradient x1="16.9141" gradientUnits="userSpaceOnUse" x2="16.9141" y1="5.14282" y2="18.8571" xlink:type="simple" xlink:actuate="onLoad" id="paint0_linear_15235_116681" xlink:show="other">
<stop stop-color="white" offset="0.567708"/>
<stop stop-color="#D1D1D1" offset="1"/>
</linearGradient>
</defs>
<metadata symbolName="CHFJPY" fileName="chfjpy.svg" id="grimlock-metadata-id" lastUpdate="2025-02-10T09:58:22.589385537" symbolId="11"/></svg>