<?xml version="1.0" encoding="UTF-8" standalone="no"?><svg xmlns="http://www.w3.org/2000/svg" xmlns:xlink="http://www.w3.org/1999/xlink" contentScriptType="text/ecmascript" fill="none" width="25" zoomAndPan="magnify" contentStyleType="text/css" viewBox="0 0 25 25" height="25" preserveAspectRatio="xMidYMid meet" version="1.0">
<g clip-path="url(#clip0_15237_120581)">
<circle fill="#BD3D44" r="6.85714" cx="17.2817" cy="12.409"/>
<path fill="white" clip-rule="evenodd" d="M13.5872 6.62885C13.1328 6.91965 12.7148 7.26258 12.3419 7.64922H22.214C21.841 7.26258 21.4231 6.91965 20.9686 6.62885H13.5872ZM10.9155 9.84696C11.0706 9.46214 11.2596 9.09463 11.4788 8.74812H23.0771C23.2963 9.09463 23.4853 9.46214 23.6404 9.84696H10.9155ZM10.5772 10.9459C10.5106 11.2527 10.4644 11.5671 10.4403 11.8878H24.1156C24.0915 11.5671 24.0453 11.2527 23.9786 10.9459H10.5772ZM10.5897 13.9286C10.5158 13.6019 10.4652 13.2664 10.4398 12.9239H24.116C24.0906 13.2664 24.04 13.6019 23.9661 13.9286H10.5897ZM10.9384 15.0275C11.0978 15.4127 11.2911 15.7803 11.5149 16.1265H23.041C23.2647 15.7803 23.4581 15.4127 23.6174 15.0275H10.9384ZM13.5527 18.1671C13.1337 17.8954 12.7462 17.5793 12.397 17.2254H22.1589C21.8096 17.5793 21.4221 17.8954 21.0031 18.1671H13.5527ZM17.2177 19.266C17.2377 19.2661 17.2578 19.2662 17.2779 19.2662C17.298 19.2662 17.3181 19.2661 17.3382 19.266H17.2177Z" fill-rule="evenodd"/>
<path fill="#00418E" clip-rule="evenodd" d="M10.4441 12.9302C10.4311 12.7581 10.4246 12.5843 10.4246 12.409C10.4246 8.62187 13.4946 5.55182 17.2817 5.55182C17.5644 5.55182 17.8431 5.56893 18.1169 5.60217V12.9302H10.4441Z" fill-rule="evenodd"/>
<path fill="white" clip-rule="evenodd" d="M13.9355 6.43294C13.896 6.45526 13.8567 6.47795 13.8176 6.50103L14.0026 6.63326L13.9355 6.43294ZM13.2189 6.89844C13.0803 7.00125 12.9458 7.10916 12.8155 7.2219L12.8602 7.1904L13.1122 7.36987L13.0164 7.0779L13.2711 6.89844H13.2189ZM12.1481 7.88425C12.1171 7.91945 12.0866 7.95496 12.0563 7.99078L12.2219 8.10915L12.1481 7.88425ZM10.9368 9.85022C10.9172 9.89885 10.8981 9.94776 10.8797 9.99694L10.9262 10.0297L10.8275 10.3243L11.0823 10.1422L11.3371 10.3243L11.2385 10.0324L11.4932 9.8529H11.1809L11.0823 9.56094L10.9864 9.85022H10.9368ZM15.523 5.86719L15.6216 6.15915H15.9339L15.6818 6.33862L15.7777 6.63326L15.523 6.45112L15.2709 6.63058L15.3668 6.33862L15.1148 6.15915H15.4271L15.523 5.86719ZM17.3009 5.86719L17.3967 6.15915H17.7118L17.457 6.33862L17.5556 6.63326L17.3009 6.45112L17.0461 6.63058L17.1447 6.33862L16.8899 6.15915H17.205L17.3009 5.86719ZM14.6354 6.60647L14.734 6.89844H15.0463L14.7915 7.0779L14.8901 7.36987L14.6354 7.1904L14.3833 7.36987L14.4792 7.0779L14.2245 6.89844H14.5422L14.6354 6.60647ZM16.4133 6.60647L16.5092 6.89844H16.8242L16.5694 7.0779L16.6653 7.36987L16.4133 7.1904L16.1585 7.36987L16.2544 7.0779L16.0024 6.89844H16.3147L16.4133 6.60647ZM13.7478 7.34308L13.8437 7.63772H14.1587L13.9039 7.81719L14.0026 8.10915L13.7478 7.92701L13.493 8.10915L13.5916 7.81451L13.3369 7.63504H13.6492L13.7478 7.34308ZM15.523 7.34308L15.6216 7.63772H15.9339L15.6818 7.81719L15.7777 8.10915L15.523 7.92701L15.2709 8.10915L15.3668 7.81451L15.1148 7.63504H15.4271L15.523 7.34308ZM17.3009 7.34308L17.3967 7.63772H17.7118L17.457 7.81719L17.5556 8.10915L17.3009 7.92701L17.0461 8.10915L17.1447 7.81451L16.8899 7.63504H17.205L17.3009 7.34308ZM12.8602 8.08237L12.9561 8.37433H13.2711L13.0164 8.55379L13.1122 8.84844L12.8602 8.66629L12.6054 8.84576L12.7013 8.55379L12.4493 8.37433H12.7616L12.8602 8.08237ZM14.6354 8.08237L14.734 8.37433H15.0463L14.7943 8.55379L14.8901 8.84844L14.6354 8.66629L14.3833 8.84576L14.4792 8.55379L14.2245 8.37433H14.5422L14.6354 8.08237ZM16.4133 8.08237L16.5092 8.37433H16.8242L16.5694 8.55379L16.6653 8.84844L16.4133 8.66629L16.1585 8.84576L16.2544 8.55379L16.0024 8.37433H16.3147L16.4133 8.08237ZM11.9699 8.82165L12.0685 9.11361H12.3781L12.126 9.29308L12.2219 9.58772L11.9671 9.40558L11.7151 9.58504L11.811 9.29308L11.5562 9.11361H11.8713L11.9699 8.82165ZM13.7478 8.82165L13.8437 9.11361H14.1587L13.9039 9.29308L14.0026 9.58772L13.7478 9.40558L13.493 9.58504L13.5916 9.29308L13.3369 9.11361H13.6492L13.7478 8.82165ZM15.523 8.82165L15.6216 9.11361H15.9339L15.6818 9.29308L15.7777 9.58772L15.523 9.40558L15.2709 9.58504L15.3668 9.29308L15.1148 9.11361H15.4271L15.523 8.82165ZM17.3009 8.82165L17.3967 9.11361H17.7118L17.457 9.29308L17.5556 9.58772L17.3009 9.40558L17.0461 9.58504L17.1447 9.29308L16.8899 9.11361H17.205L17.3009 8.82165ZM12.8602 9.56094L12.9561 9.8529H13.2711L13.0164 10.0324L13.1122 10.3243L12.8602 10.1422L12.6054 10.3243L12.7013 10.0297L12.4493 9.85022H12.7616L12.8602 9.56094ZM14.6354 9.56094L14.734 9.8529H15.0463L14.7943 10.0324L14.8901 10.3243L14.6354 10.1422L14.3833 10.3243L14.4792 10.0297L14.2245 9.85022H14.5422L14.6354 9.56094ZM16.4133 9.56094L16.5092 9.8529H16.8242L16.5694 10.0324L16.6653 10.3243L16.4133 10.1422L16.1585 10.3243L16.2544 10.0297L16.0024 9.85022H16.3147L16.4133 9.56094ZM11.9699 10.2975L12.0685 10.5922H12.3781L12.126 10.7716L12.2219 11.0609L11.9671 10.8815L11.7151 11.0609L11.811 10.769L11.5562 10.5895H11.8713L11.9699 10.2975ZM13.7478 10.2975L13.8437 10.5922H14.1587L13.9039 10.7716L14.0026 11.0609L13.7478 10.8815L13.493 11.0609L13.5916 10.769L13.3369 10.5895H13.6492L13.7478 10.2975ZM15.523 10.2975L15.6216 10.5922H15.9339L15.6818 10.7716L15.7777 11.0609L15.523 10.8815L15.2709 11.0609L15.3668 10.769L15.1148 10.5895H15.4271L15.523 10.2975ZM17.3009 10.2975L17.3967 10.5922H17.7118L17.457 10.7716L17.5556 11.0609L17.3009 10.8815L17.0461 11.0609L17.1447 10.769L16.8899 10.5895H17.205L17.3009 10.2975ZM11.0823 11.0368L11.1809 11.3288H11.4932L11.2385 11.5083L11.3371 11.8029L11.0823 11.6208L10.8275 11.8002L10.9262 11.5083L10.6714 11.3288H10.9864L11.0823 11.0368ZM12.8602 11.0368L12.9561 11.3288H13.2711L13.0164 11.5083L13.1122 11.8029L12.8602 11.6208L12.6054 11.8002L12.7013 11.5083L12.4493 11.3288H12.7616L12.8602 11.0368ZM14.6354 11.0368L14.734 11.3288H15.0463L14.7943 11.5083L14.8901 11.8029L14.6354 11.6208L14.3833 11.8002L14.4792 11.5083L14.2245 11.3288H14.5422L14.6354 11.0368ZM16.4133 11.0368L16.5092 11.3288H16.8242L16.5694 11.5083L16.6653 11.8029L16.4133 11.6208L16.1585 11.8002L16.2544 11.5083L16.0024 11.3288H16.3147L16.4133 11.0368ZM11.9699 11.7761L12.0685 12.0681H12.3781L12.1315 12.2475L12.2274 12.5395L11.9726 12.36L11.7206 12.5395L11.8165 12.2449L11.5617 12.0654H11.8767L11.9699 11.7761ZM13.7478 11.7761L13.8437 12.0681H14.1587L13.9039 12.2475L14.0026 12.5395L13.7478 12.36L13.493 12.5395L13.5916 12.2449L13.3369 12.0654H13.6492L13.7478 11.7761ZM15.523 11.7761L15.6216 12.0681H15.9339L15.6818 12.2475L15.7777 12.5395L15.523 12.36L15.2709 12.5395L15.3668 12.2449L15.1148 12.0654H15.4271L15.523 11.7761ZM17.3009 11.7761L17.3967 12.0681H17.7118L17.457 12.2475L17.5556 12.5395L17.3009 12.36L17.0461 12.5395L17.1447 12.2449L16.8899 12.0654H17.205L17.3009 11.7761Z" fill-rule="evenodd"/>
<g clip-path="url(#clip1_15237_120581)">
<path fill="#CD0124" d="M8.27252 13.0421C8.27252 12.9507 8.27252 12.905 8.18113 12.8593C7.86127 12.6308 7.49571 12.4023 7.17584 12.1738C7.14203 12.1512 7.10227 12.1392 7.06161 12.1392C7.02094 12.1392 6.98118 12.1512 6.94737 12.1738L5.94208 12.905C5.90011 12.9264 5.86501 12.9592 5.84077 12.9996C5.81653 13.04 5.80414 13.0864 5.805 13.1335C5.80286 13.232 5.771 13.3276 5.71361 13.4077C5.69101 13.4415 5.67896 13.4813 5.67896 13.522C5.67896 13.5626 5.69101 13.6024 5.71361 13.6362C6.07917 14.3674 6.39903 15.0986 6.76459 15.8298C6.90167 16.0583 6.99306 16.3325 7.13015 16.6067C7.17584 16.561 7.17584 16.5153 7.22154 16.4696C7.63279 15.5556 7.99835 14.6416 8.4096 13.7276C8.4553 13.6362 8.4553 13.5905 8.36391 13.5448C8.31254 13.473 8.2777 13.3906 8.2619 13.3037C8.2461 13.2168 8.24973 13.1275 8.27252 13.0421Z"/>
<path fill="#CD0124" d="M6.71893 11.8539C5.80503 11.2141 4.89113 10.5743 4.02293 9.98016L3.97723 10.0259C4.02293 10.1173 4.02293 10.163 4.06862 10.2544L5.02822 12.3109C5.11961 12.4937 5.1653 12.6765 5.43947 12.7222C5.51844 12.7293 5.59778 12.7134 5.66794 12.6765C5.94211 12.448 6.26198 12.2652 6.53615 12.0367L6.71893 11.8539Z"/>
<path fill="#CD0124" d="M6.99309 5.86719C5.63745 5.86719 4.31225 6.26923 3.18508 7.02246C2.05791 7.7757 1.17939 8.8463 0.660605 10.0989C0.141825 11.3515 0.00608821 12.7298 0.27056 14.0595C0.535032 15.3893 1.18783 16.6107 2.14642 17.5694C3.105 18.5281 4.3263 19.181 5.65589 19.4455C6.98548 19.71 8.36364 19.5742 9.61609 19.0554C10.8685 18.5365 11.939 17.6579 12.6922 16.5306C13.4453 15.4033 13.8473 14.078 13.8473 12.7222C13.8473 10.9041 13.1252 9.16053 11.8398 7.87497C10.5543 6.58941 8.81094 5.86719 6.99309 5.86719ZM10.6944 9.84309C10.603 9.84309 10.5573 9.88879 10.5116 9.98019C10.146 10.8942 9.73478 11.8082 9.36922 12.7222V12.905C9.40572 12.9822 9.42513 13.0665 9.42612 13.1519C9.42711 13.2374 9.40966 13.322 9.37496 13.4001C9.34026 13.4782 9.28913 13.5478 9.22505 13.6044C9.16097 13.6609 9.08546 13.7029 9.00366 13.7276C8.95797 13.7276 8.91227 13.7733 8.86658 13.8647C8.45532 14.7787 8.04407 15.7384 7.67851 16.6524C7.65592 16.6862 7.64386 16.726 7.64386 16.7666C7.64386 16.8073 7.65592 16.8471 7.67851 16.8809C7.7639 16.9981 7.80192 17.1432 7.78497 17.2872C7.76803 17.4313 7.69737 17.5636 7.58712 17.6578C7.49132 17.7524 7.36451 17.8092 7.23012 17.8176C7.09573 17.826 6.96284 17.7855 6.856 17.7035C6.79894 17.6645 6.75013 17.6147 6.71235 17.5568C6.67457 17.499 6.64857 17.4342 6.63584 17.3663C6.62311 17.2984 6.62389 17.2286 6.63815 17.161C6.6524 17.0934 6.67985 17.0293 6.71892 16.9723C6.74132 16.9301 6.75304 16.883 6.75304 16.8352C6.75304 16.7874 6.74132 16.7403 6.71892 16.6981C6.26197 15.7841 5.85072 14.8701 5.39377 13.9561C5.37297 13.9096 5.34139 13.8688 5.30165 13.837C5.26192 13.8052 5.21517 13.7834 5.16529 13.7733C5.07218 13.7578 4.9842 13.72 4.90887 13.6631C4.83354 13.6062 4.77308 13.532 4.73268 13.4467C4.69227 13.3614 4.67311 13.2675 4.67683 13.1732C4.68055 13.0789 4.70704 12.9869 4.75404 12.905C4.77663 12.8712 4.78869 12.8314 4.78869 12.7907C4.78869 12.7501 4.77663 12.7103 4.75404 12.6765C4.34279 11.7625 3.93153 10.8942 3.47458 9.98019C3.47458 9.93449 3.42889 9.88879 3.2918 9.88879C3.15742 9.86989 3.03378 9.80485 2.94208 9.7048C2.85038 9.60475 2.79632 9.47592 2.78916 9.34039C2.79761 9.21343 2.84031 9.09114 2.91273 8.98652C2.98515 8.88191 3.08457 8.79889 3.20041 8.74629C3.3234 8.69864 3.45914 8.6954 3.58426 8.73711C3.70938 8.77882 3.81603 8.86287 3.88584 8.97479C3.93153 9.06619 3.97723 9.06619 4.11431 9.06619H9.91756C10.0089 9.06619 10.1003 9.06619 10.146 8.92909C10.2084 8.82144 10.3069 8.7394 10.424 8.69756C10.5412 8.65572 10.6693 8.65679 10.7858 8.70059C10.8993 8.74357 10.9982 8.81795 11.071 8.91506C11.1438 9.01216 11.1875 9.12798 11.197 9.24899C11.1987 9.39193 11.1488 9.53068 11.0565 9.63981C10.9642 9.74893 10.8356 9.82111 10.6944 9.84309Z"/>
<path fill="#CD0124" d="M6.9931 11.534C7.02691 11.5566 7.06666 11.5686 7.10733 11.5686C7.148 11.5686 7.18775 11.5566 7.22157 11.534C8.08977 10.8942 8.95797 10.3001 9.78048 9.66029C9.82618 9.61459 9.87187 9.61459 9.87187 9.56889V9.52319H4.11432C4.1666 9.54238 4.21359 9.57371 4.2514 9.61459L6.9931 11.534Z"/>
<path fill="#CD0124" d="M7.45001 11.8539C7.81557 12.1281 8.18113 12.3566 8.54669 12.5851C8.63808 12.6308 8.77516 12.5851 8.91225 12.5851C8.95794 12.5851 9.00364 12.4937 9.00364 12.448C9.3235 11.7168 9.64337 10.9399 9.96323 10.2087C9.96323 10.163 10.0089 10.1173 10.0089 10.0716H9.96323C9.18642 10.62 8.31821 11.2141 7.45001 11.8539Z"/>
</g>
</g>
<defs>
<clipPath id="clip0_15237_120581">
<rect fill="white" width="24" height="24" transform="translate(0.138855 0.408936)"/>
</clipPath>
<clipPath id="clip1_15237_120581">
<rect fill="white" width="13.7085" height="13.71" transform="translate(0.138855 5.86719)"/>
</clipPath>
</defs>
<metadata symbolName="CHZUSD" fileName="chzusd.svg" id="grimlock-metadata-id" lastUpdate="2025-02-10T09:58:22.589417449" symbolId="1420"/></svg>