<svg width="24" height="24" viewBox="0 0 24 24" fill="none" xmlns="http://www.w3.org/2000/svg">
<path d="M16.5003 4H7.49867C6.57066 4.00028 5.68077 4.36913 5.02467 5.02543C4.36857 5.68172 4 6.57173 4 7.49973V16.5003C4 17.4285 4.36872 18.3186 5.02505 18.975C5.68138 19.6313 6.57155 20 7.49973 20H16.5003C17.4285 20 18.3186 19.6313 18.975 18.975C19.6313 18.3186 20 17.4285 20 16.5003V7.49867C19.9997 6.57066 19.6309 5.68077 18.9746 5.02467C18.3183 4.36857 17.4283 4 16.5003 4Z" fill="#2F0E13"/>
<path d="M11.2748 7.01272C11.4998 6.95807 11.72 7.08519 11.8001 7.28537L12.1549 8.16263C12.3954 8.75257 12.4706 9.38763 12.3737 10.0106C12.2769 10.6335 12.011 11.2248 11.6001 11.731C11.0896 12.3579 10.7587 13.0905 10.6374 13.8627C10.516 14.6348 10.6079 15.4223 10.9049 16.1541C11.045 16.4995 10.7049 16.8222 10.36 16.627C8.96978 15.8359 8 14.0583 8 11.9993C8 9.51271 9.40984 7.44434 11.2748 7.01272ZM13.64 7.37186C13.2899 7.17607 12.9553 7.49898 13.0903 7.84439C13.3905 8.57546 13.4846 9.36321 13.364 10.1358C13.2434 10.9084 12.9119 11.6413 12.3999 12.2675C11.989 12.7737 11.7232 13.3649 11.6264 13.9878C11.5295 14.6107 11.6047 15.2457 11.8451 15.8356L12.1999 16.7178C12.2803 16.9133 12.5002 17.0361 12.7252 16.9905C14.5902 16.5495 16 14.4858 16 11.9993C16 9.93995 15.0302 8.16263 13.64 7.37186Z" fill="white"/>
</svg>
