<?xml version="1.0" encoding="UTF-8"?>
<!DOCTYPE svg PUBLIC "-//W3C//DTD SVG 1.0//EN" "http://www.w3.org/TR/2001/REC-SVG-20010904/DTD/svg10.dtd">
<!-- Creator: CorelDRAW X8 -->
<svg xmlns="http://www.w3.org/2000/svg" xml:space="preserve" width="11.6929in" height="8.26772in" version="1.0" shape-rendering="geometricPrecision" text-rendering="geometricPrecision" image-rendering="optimizeQuality" fill-rule="evenodd" clip-rule="evenodd"
viewBox="0 0 11693 8268"
 xmlns:xlink="http://www.w3.org/1999/xlink">
 <g id="Layer_x0020_1">
  <metadata id="CorelCorpID_0Corel-Layer"/>
  <path fill="#93A0B3" fill-rule="nonzero" d="M6287 3586l0 393c0,133 -49,254 -129,341 -63,69 -145,117 -236,135l0 143 205 0c42,0 76,38 76,84 0,46 -34,83 -76,83l-562 0c-42,0 -76,-37 -76,-83 0,-46 34,-84 76,-84l205 0 0 -143c-91,-18 -173,-66 -236,-135 -80,-87 -129,-208 -129,-341l0 -393c0,-46 34,-83 76,-83l730 0c42,0 76,37 76,83zm32 202c0,-46 34,-83 76,-83 42,0 76,37 76,83l0 294c0,46 -34,84 -76,84 -42,0 -76,-38 -76,-84l0 -294zm-1098 0c0,-46 35,-83 76,-83 42,0 77,37 77,83l0 294c0,46 -35,84 -77,84 -41,0 -76,-38 -76,-84l0 -294zm914 191l0 -310 -578 0 0 310c0,87 32,166 85,223 52,58 124,94 204,94 79,0 152,-36 204,-94 53,-57 85,-136 85,-223z"/>
 </g>
</svg>
