<?xml version="1.0" encoding="UTF-8"?>
<!DOCTYPE svg PUBLIC "-//W3C//DTD SVG 1.0//EN" "http://www.w3.org/TR/2001/REC-SVG-20010904/DTD/svg10.dtd">
<!-- Creator: CorelDRAW X8 -->
<svg xmlns="http://www.w3.org/2000/svg" xml:space="preserve" width="11.6929in" height="8.26772in" version="1.0" shape-rendering="geometricPrecision" text-rendering="geometricPrecision" image-rendering="optimizeQuality" fill-rule="evenodd" clip-rule="evenodd"
viewBox="0 0 11693 8268"
 xmlns:xlink="http://www.w3.org/1999/xlink">
 <g id="Layer_x0020_1">
  <metadata id="CorelCorpID_0Corel-Layer"/>
  <path fill="#93A0B3" fill-rule="nonzero" d="M7897 2371l-1958 775 1183 1182 775 -1957zm-4369 3854l1334 -3372 1 -2 0 -1 3 -6 1 -3 3 -7 1 -2 3 -7 1 -1c18,-38 42,-72 70,-101l1 -1 2 -1 5 -6 2 -1 1 -1c29,-28 62,-52 100,-70l1 -1 7 -3 3 -1 6 -3 3 -1 6 -3 1 0 2 -1 1686 -667 1686 -667c91,-36 194,-39 292,0 204,80 304,311 223,515l-1329 3360 -1 2 -1 3 -1 1 0 1 -1 3 -1 2 -1 3 0 0 -1 2 -2 5 -1 2 0 1 -4 8 -1 1 -3 8 -4 8 -1 0 0 1 -1 3 -2 2 -1 2 0 1 -1 2 -2 2 -1 2 -1 2 0 1 -2 2 -2 5 -1 1 -1 1 -1 2 -3 5 0 0 -2 2 -1 2 -2 3 -2 2 -1 2 -3 5 -1 0 -1 2 -2 2 -1 2 -2 2 0 1 -1 0 -4 6 -1 1 -3 3 -1 2 -2 3 -1 0 -1 2 -2 2 -2 2 -1 2 -1 0 -2 2 -3 4 -1 1 -1 1 -2 2 -2 2 -2 2 -2 2 -2 2 -2 2 -2 2 0 0 -5 4 -2 2 0 0 -2 2 -2 2 -2 2 -2 1 0 0 -2 2 -2 2 -4 3 -1 1 -5 4 -1 1 0 0 -2 1 -3 2 -2 2 -1 1 -1 0 -4 4 -3 1 -2 2 -2 1 -3 2 -2 1 0 0 -4 3 -3 2 -1 1 -1 0 -5 3 -2 1 0 1 -2 1 -3 1 -2 2 -2 1 0 0 -3 1 -2 1 -3 2 0 0 -1 0 -8 5 -7 3 -2 1 -8 4 -1 0 -2 1 -5 2 -2 1 0 0 -3 1 -2 1 -3 1 -1 0 -1 1 -3 1 -2 0 -3360 1330c-204,80 -435,-20 -515,-224 -39,-97 -36,-201 0,-291zm1405 -1394l-330 833 1958 -774 -1183 -1183 -445 1124z"/>
 </g>
</svg>
