<?xml version="1.0" encoding="UTF-8"?>
<!DOCTYPE svg PUBLIC "-//W3C//DTD SVG 1.0//EN" "http://www.w3.org/TR/2001/REC-SVG-20010904/DTD/svg10.dtd">
<!-- Creator: CorelDRAW X8 -->
<svg xmlns="http://www.w3.org/2000/svg" xml:space="preserve" width="11.6929in" height="8.26772in" version="1.0" shape-rendering="geometricPrecision" text-rendering="geometricPrecision" image-rendering="optimizeQuality" fill-rule="evenodd" clip-rule="evenodd"
viewBox="0 0 11693 8268"
 xmlns:xlink="http://www.w3.org/1999/xlink">
 <g id="Layer_x0020_1">
  <metadata id="CorelCorpID_0Corel-Layer"/>
  <path fill="#93A0B3" fill-rule="nonzero" d="M5401 3814l124 0 0 -134c0,-49 19,-93 51,-125l0 0c32,-31 75,-51 123,-51l593 0c48,0 92,20 123,51l0 1c32,32 52,76 52,124l0 598c0,48 -20,92 -52,124l0 0c-31,32 -75,52 -123,52l-124 0 0 134c0,48 -19,92 -51,124l0 0c-32,32 -75,52 -123,52l-593 0c-48,0 -92,-20 -124,-52 -31,-32 -51,-76 -51,-124l0 -598c0,-49 20,-93 51,-125l1 0c31,-31 75,-51 123,-51zm280 0l313 0c47,0 91,20 123,51l0 1c32,32 51,76 51,124l0 306 124 0c5,0 10,-2 13,-5l0 0c3,-3 5,-8 5,-13l0 -598c0,-5 -2,-10 -5,-13 -3,-4 -8,-6 -13,-6l-593 0c-5,0 -9,2 -13,6l0 0c-3,3 -5,8 -5,13l0 134zm313 157l-469 0 -124 0c-5,0 -10,2 -13,6l0 0c-3,3 -6,8 -6,13l0 598c0,5 3,9 6,13 3,3 8,5 13,5l593 0c4,0 9,-2 12,-5l1 0c3,-3 5,-8 5,-13l0 -134 0 -464c0,-5 -2,-10 -5,-13 -4,-4 -8,-6 -13,-6z"/>
 </g>
</svg>
