<?xml version="1.0" encoding="UTF-8" standalone="no"?><svg xmlns="http://www.w3.org/2000/svg" xmlns:xlink="http://www.w3.org/1999/xlink" contentScriptType="text/ecmascript" fill="none" width="25" zoomAndPan="magnify" contentStyleType="text/css" viewBox="0 0 25 25" height="25" preserveAspectRatio="xMidYMid meet" version="1.0">
<g clip-path="url(#clip0_15237_128309)">
<circle fill="#BD3D44" r="6.85714" cx="17.2817" cy="12.4532"/>
<path fill="white" clip-rule="evenodd" d="M13.5872 6.67303C13.1328 6.96383 12.7148 7.30677 12.3419 7.69341H22.214C21.841 7.30677 21.4231 6.96383 20.9686 6.67303H13.5872ZM10.9155 9.89115C11.0706 9.50633 11.2596 9.13882 11.4788 8.79231H23.0771C23.2963 9.13882 23.4853 9.50633 23.6404 9.89115H10.9155ZM10.5772 10.99C10.5106 11.2969 10.4644 11.6113 10.4403 11.932H24.1156C24.0915 11.6113 24.0453 11.2969 23.9786 10.99H10.5772ZM10.5897 13.9728C10.5158 13.6461 10.4652 13.3106 10.4398 12.9681H24.116C24.0906 13.3106 24.04 13.6461 23.9661 13.9728H10.5897ZM10.9384 15.0717C11.0978 15.4569 11.2911 15.8245 11.5149 16.1706H23.041C23.2647 15.8245 23.4581 15.4569 23.6174 15.0717H10.9384ZM13.5527 18.2112C13.1337 17.9396 12.7462 17.6235 12.397 17.2695H22.1589C21.8096 17.6235 21.4221 17.9396 21.0031 18.2112H13.5527ZM17.2177 19.3101C17.2377 19.3103 17.2578 19.3104 17.2779 19.3104C17.298 19.3104 17.3181 19.3103 17.3382 19.3101H17.2177Z" fill-rule="evenodd"/>
<path fill="#00418E" clip-rule="evenodd" d="M10.4441 12.9743C10.4311 12.8023 10.4246 12.6285 10.4246 12.4532C10.4246 8.66606 13.4946 5.59601 17.2817 5.59601C17.5644 5.59601 17.8431 5.61312 18.1169 5.64636V12.9743H10.4441Z" fill-rule="evenodd"/>
<path fill="white" clip-rule="evenodd" d="M13.9355 6.47713C13.896 6.49944 13.8567 6.52214 13.8176 6.54522L14.0026 6.67745L13.9355 6.47713ZM13.2189 6.94263C13.0803 7.04544 12.9458 7.15335 12.8155 7.26609L12.8602 7.23459L13.1122 7.41405L13.0164 7.12209L13.2711 6.94263H13.2189ZM12.1481 7.92844C12.1171 7.96363 12.0866 7.99915 12.0563 8.03497L12.2219 8.15334L12.1481 7.92844ZM10.9368 9.89441C10.9172 9.94304 10.8981 9.99195 10.8797 10.0411L10.9262 10.0739L10.8275 10.3685L11.0823 10.1864L11.3371 10.3685L11.2385 10.0766L11.4932 9.89709H11.1809L11.0823 9.60512L10.9864 9.89441H10.9368ZM15.523 5.91138L15.6216 6.20334H15.9339L15.6818 6.38281L15.7777 6.67745L15.523 6.49531L15.2709 6.67477L15.3668 6.38281L15.1148 6.20334H15.4271L15.523 5.91138ZM17.3009 5.91138L17.3967 6.20334H17.7118L17.457 6.38281L17.5556 6.67745L17.3009 6.49531L17.0461 6.67477L17.1447 6.38281L16.8899 6.20334H17.205L17.3009 5.91138ZM14.6354 6.65066L14.734 6.94263H15.0463L14.7915 7.12209L14.8901 7.41405L14.6354 7.23459L14.3833 7.41405L14.4792 7.12209L14.2245 6.94263H14.5422L14.6354 6.65066ZM16.4133 6.65066L16.5092 6.94263H16.8242L16.5694 7.12209L16.6653 7.41405L16.4133 7.23459L16.1585 7.41405L16.2544 7.12209L16.0024 6.94263H16.3147L16.4133 6.65066ZM13.7478 7.38727L13.8437 7.68191H14.1587L13.9039 7.86138L14.0026 8.15334L13.7478 7.9712L13.493 8.15334L13.5916 7.8587L13.3369 7.67923H13.6492L13.7478 7.38727ZM15.523 7.38727L15.6216 7.68191H15.9339L15.6818 7.86138L15.7777 8.15334L15.523 7.9712L15.2709 8.15334L15.3668 7.8587L15.1148 7.67923H15.4271L15.523 7.38727ZM17.3009 7.38727L17.3967 7.68191H17.7118L17.457 7.86138L17.5556 8.15334L17.3009 7.9712L17.0461 8.15334L17.1447 7.8587L16.8899 7.67923H17.205L17.3009 7.38727ZM12.8602 8.12655L12.9561 8.41852H13.2711L13.0164 8.59798L13.1122 8.89263L12.8602 8.71048L12.6054 8.88995L12.7013 8.59798L12.4493 8.41852H12.7616L12.8602 8.12655ZM14.6354 8.12655L14.734 8.41852H15.0463L14.7943 8.59798L14.8901 8.89263L14.6354 8.71048L14.3833 8.88995L14.4792 8.59798L14.2245 8.41852H14.5422L14.6354 8.12655ZM16.4133 8.12655L16.5092 8.41852H16.8242L16.5694 8.59798L16.6653 8.89263L16.4133 8.71048L16.1585 8.88995L16.2544 8.59798L16.0024 8.41852H16.3147L16.4133 8.12655ZM11.9699 8.86584L12.0685 9.1578H12.3781L12.126 9.33727L12.2219 9.63191L11.9671 9.44977L11.7151 9.62923L11.811 9.33727L11.5562 9.1578H11.8713L11.9699 8.86584ZM13.7478 8.86584L13.8437 9.1578H14.1587L13.9039 9.33727L14.0026 9.63191L13.7478 9.44977L13.493 9.62923L13.5916 9.33727L13.3369 9.1578H13.6492L13.7478 8.86584ZM15.523 8.86584L15.6216 9.1578H15.9339L15.6818 9.33727L15.7777 9.63191L15.523 9.44977L15.2709 9.62923L15.3668 9.33727L15.1148 9.1578H15.4271L15.523 8.86584ZM17.3009 8.86584L17.3967 9.1578H17.7118L17.457 9.33727L17.5556 9.63191L17.3009 9.44977L17.0461 9.62923L17.1447 9.33727L16.8899 9.1578H17.205L17.3009 8.86584ZM12.8602 9.60512L12.9561 9.89709H13.2711L13.0164 10.0766L13.1122 10.3685L12.8602 10.1864L12.6054 10.3685L12.7013 10.0739L12.4493 9.89441H12.7616L12.8602 9.60512ZM14.6354 9.60512L14.734 9.89709H15.0463L14.7943 10.0766L14.8901 10.3685L14.6354 10.1864L14.3833 10.3685L14.4792 10.0739L14.2245 9.89441H14.5422L14.6354 9.60512ZM16.4133 9.60512L16.5092 9.89709H16.8242L16.5694 10.0766L16.6653 10.3685L16.4133 10.1864L16.1585 10.3685L16.2544 10.0739L16.0024 9.89441H16.3147L16.4133 9.60512ZM11.9699 10.3417L12.0685 10.6364H12.3781L12.126 10.8158L12.2219 11.1051L11.9671 10.9257L11.7151 11.1051L11.811 10.8132L11.5562 10.6337H11.8713L11.9699 10.3417ZM13.7478 10.3417L13.8437 10.6364H14.1587L13.9039 10.8158L14.0026 11.1051L13.7478 10.9257L13.493 11.1051L13.5916 10.8132L13.3369 10.6337H13.6492L13.7478 10.3417ZM15.523 10.3417L15.6216 10.6364H15.9339L15.6818 10.8158L15.7777 11.1051L15.523 10.9257L15.2709 11.1051L15.3668 10.8132L15.1148 10.6337H15.4271L15.523 10.3417ZM17.3009 10.3417L17.3967 10.6364H17.7118L17.457 10.8158L17.5556 11.1051L17.3009 10.9257L17.0461 11.1051L17.1447 10.8132L16.8899 10.6337H17.205L17.3009 10.3417ZM11.0823 11.081L11.1809 11.373H11.4932L11.2385 11.5524L11.3371 11.8471L11.0823 11.6649L10.8275 11.8444L10.9262 11.5524L10.6714 11.373H10.9864L11.0823 11.081ZM12.8602 11.081L12.9561 11.373H13.2711L13.0164 11.5524L13.1122 11.8471L12.8602 11.6649L12.6054 11.8444L12.7013 11.5524L12.4493 11.373H12.7616L12.8602 11.081ZM14.6354 11.081L14.734 11.373H15.0463L14.7943 11.5524L14.8901 11.8471L14.6354 11.6649L14.3833 11.8444L14.4792 11.5524L14.2245 11.373H14.5422L14.6354 11.081ZM16.4133 11.081L16.5092 11.373H16.8242L16.5694 11.5524L16.6653 11.8471L16.4133 11.6649L16.1585 11.8444L16.2544 11.5524L16.0024 11.373H16.3147L16.4133 11.081ZM11.9699 11.8203L12.0685 12.1123H12.3781L12.1315 12.2917L12.2274 12.5837L11.9726 12.4042L11.7206 12.5837L11.8165 12.2891L11.5617 12.1096H11.8767L11.9699 11.8203ZM13.7478 11.8203L13.8437 12.1123H14.1587L13.9039 12.2917L14.0026 12.5837L13.7478 12.4042L13.493 12.5837L13.5916 12.2891L13.3369 12.1096H13.6492L13.7478 11.8203ZM15.523 11.8203L15.6216 12.1123H15.9339L15.6818 12.2917L15.7777 12.5837L15.523 12.4042L15.2709 12.5837L15.3668 12.2891L15.1148 12.1096H15.4271L15.523 11.8203ZM17.3009 11.8203L17.3967 12.1123H17.7118L17.457 12.2917L17.5556 12.5837L17.3009 12.4042L17.0461 12.5837L17.1447 12.2891L16.8899 12.1096H17.205L17.3009 11.8203Z" fill-rule="evenodd"/>
<rect rx="6.355" fill="white" x="0.638855" width="12.71" height="12.71" y="6.09601"/>
<rect rx="6.355" x="0.638855" width="12.71" height="12.71" y="6.09601" stroke="#EEEEEE"/>
<g clip-path="url(#clip1_15237_128309)">
<path fill="#5AFF9D" d="M8.97837 12.1209L8.57259 12.0335L8.13962 11.9733L7.71249 11.9462V11.9442L7.32806 11.9539L7.01159 11.9986L6.78055 12.0821L6.76501 12.5014L7.00188 12.3985L7.32418 12.3286L7.71443 12.2976L8.14545 12.3015L8.5823 12.3383L8.99002 12.4024L8.97837 12.1209Z"/>
<path fill="url(#paint0_linear_15237_128309)" d="M8.98423 11.8321L8.57844 11.7176L8.14354 11.6302L7.7164 11.5758L7.33003 11.5583L7.01162 11.5797L6.78058 11.6399V12.0826L7.01162 11.9991L7.32809 11.9544L7.71252 11.9467V11.9447L8.13771 11.9738L8.57262 12.034L8.9784 12.1214L9.31817 12.2321L9.32399 11.968L8.98423 11.8321Z"/>
<path fill="url(#paint1_linear_15237_128309)" d="M9.34919 11.7002L9.00554 11.5391L8.59781 11.3973L8.15708 11.2828L7.72412 11.1993L7.33193 11.1546L7.00575 11.1488L6.76694 11.1857L6.61938 11.2634L6.64268 11.7371L6.78053 11.64L7.01158 11.5798L7.32999 11.5585L7.71635 11.5759L8.14349 11.6303L8.5784 11.7177L8.98418 11.8322L9.32395 11.9681L9.5647 12.1157L9.59188 11.8749L9.34919 11.7002Z"/>
<path fill="url(#paint2_linear_15237_128309)" d="M9.75101 11.8403L9.63646 11.6403L9.39183 11.4403L9.04624 11.252L8.6288 11.0812L8.18225 10.9375L7.73764 10.8249L7.33186 10.7511L6.99209 10.72L6.73775 10.7336V10.7317L6.57466 10.788L6.50476 10.8851L6.56495 11.3782L6.61931 11.2637L6.76687 11.186L7.00568 11.1491L7.33186 11.1549L7.72405 11.1996L8.15701 11.2831L8.5958 11.3976L9.00546 11.5394L9.34912 11.7005L9.55298 11.8481L9.70636 12.0539L9.75101 11.8403Z"/>
<path fill="url(#paint3_linear_15237_128309)" d="M9.69863 11.4164L9.45206 11.1931L9.10064 10.9776L8.67544 10.7776L8.2153 10.6048L7.75515 10.4631L7.3319 10.3621L6.97271 10.3039L6.69507 10.2922L6.51063 10.3272L6.41938 10.4087L6.40967 10.531L6.51645 11.0184L6.5048 10.8844L6.5747 10.7873L6.73779 10.731L6.99213 10.7194L7.3319 10.7504L7.73768 10.8242L8.18229 10.9368L8.62885 11.0805L9.04628 11.2514L9.39187 11.4397L9.6365 11.6397L9.75106 11.8396L9.81318 11.6397L9.69863 11.4164Z"/>
<path fill="url(#paint4_linear_15237_128309)" d="M9.87337 11.0365L9.61903 10.7647L9.25014 10.4987L8.80164 10.2443L8.30655 10.0152L7.80369 9.82109V9.81914L7.32996 9.66382L6.91253 9.55704L6.59411 9.50462L6.59217 9.50267H6.58441L6.57276 9.50073L6.5747 9.50267L6.32424 9.50073L6.17086 9.55121L6.10291 9.65411L6.26988 10.0715L6.30483 9.96088L6.4252 9.89486L6.65819 9.87933L6.94553 9.91234L7.3319 9.99582L7.77845 10.1259L8.25801 10.2948L8.73369 10.4967L9.16859 10.7239L9.52778 10.9666L9.77824 11.2151L9.89473 11.4597L9.86172 11.6927L9.95492 11.551L9.98987 11.3005L9.87337 11.0365Z"/>
<path fill="url(#paint5_linear_15237_128309)" d="M9.77832 11.2145L9.52786 10.966L9.16868 10.7233L8.73377 10.4961L8.25809 10.2942L7.77853 10.1253L7.33198 9.9952L6.94561 9.91172L6.63885 9.87677L6.42528 9.89424L6.30491 9.96026L6.26996 10.0709L6.30102 10.2243L6.46411 10.6883L6.40975 10.5311L6.41946 10.4088L6.51071 10.3272L6.69516 10.2923L6.9728 10.3039L7.33198 10.3622L7.75524 10.4631L8.21538 10.6048L8.67552 10.7776L9.10072 10.9776L9.45214 11.1931L9.69872 11.4164L9.81521 11.6397L9.7822 11.8552L9.8618 11.6921L9.89481 11.4591L9.77832 11.2145Z"/>
<path fill="url(#paint6_linear_15237_128309)" d="M10.4053 10.4184L10.2753 10.3058L9.86366 9.98739L9.31032 9.64374L8.67544 9.32338L8.54341 9.2632L8.36479 9.18165L8.19005 9.1137L7.96289 9.02244L7.31248 8.78752L6.69507 8.6089L6.14173 8.4924L5.71071 8.44969C5.68547 8.44775 5.65829 8.44581 5.6311 8.44969L5.29716 8.47105L5.11854 8.48658L4.80789 8.58366L4.59821 8.74869L4.85449 8.72151L5.11854 8.77975L5.38453 8.92148L5.48161 8.77199L5.66605 8.68268L5.94563 8.65744L6.32229 8.69627L6.78632 8.79917L7.3183 8.96032L7.89494 9.17388L8.48322 9.43405L9.04627 9.72722L9.54525 10.0437L9.9452 10.3699L10.217 10.6941L10.3413 10.6553H10.4655C10.4655 10.6533 10.5879 10.6922 10.5879 10.6922L10.7005 10.7698L10.4034 10.4223L10.4053 10.4184Z"/>
<path fill="url(#paint7_linear_15237_128309)" d="M10.219 10.6916V10.6897L9.94715 10.3655L9.54719 10.0393L9.04822 9.7228L8.48517 9.42963L7.89883 9.17141V9.16946L7.32025 8.9559L6.78827 8.79475L6.32424 8.69185L5.94758 8.65302L5.668 8.67826L5.48355 8.76757L5.38647 8.91706L5.64276 9.14034L5.70295 8.99278L5.84662 8.90153L6.08155 8.87047L6.41161 8.89959L6.83292 8.9889L7.32413 9.13646L7.86582 9.3345L8.42304 9.57525L8.96085 9.85094L9.44235 10.1499L9.83066 10.4606H9.8326L10.0966 10.7693L10.2151 11.0702L10.1763 11.3498L10.2986 11.2954L10.3393 11.0042L10.219 10.6916Z"/>
<path fill="url(#paint8_linear_15237_128309)" d="M9.98026 10.8861L9.7201 10.5949L9.3415 10.3036L8.87747 10.026L8.39403 9.78912L8.39597 9.78524L7.83292 9.55419V9.55225L7.79603 9.53866L7.79021 9.53672L7.32812 9.37363L6.8738 9.24549L6.4952 9.17171L6.20785 9.15424L6.01564 9.19501L5.91274 9.29209L5.88556 9.4377L6.10689 9.80271L6.10301 9.65321L6.17097 9.55031L6.32435 9.49983H6.57286L6.91263 9.55613L7.33006 9.66292L7.79409 9.81436L8.32413 10.0221L8.80175 10.2434L9.25025 10.4978L9.61914 10.7638L9.87348 11.0356L9.98997 11.2996L9.95502 11.5501L10.0618 11.4355L10.0987 11.1696L9.98026 10.8861Z"/>
<path fill="url(#paint9_linear_15237_128309)" d="M10.0967 10.7702L9.83072 10.4595L9.44241 10.1508L8.96091 9.85181L8.42311 9.57612L8.41922 9.57417L8.40369 9.56641V9.56835L7.86588 9.33537L7.32419 9.13733L6.83299 8.98977L6.41167 8.90046L6.08161 8.87134L5.84668 8.9024L5.70301 8.99365L5.64282 9.14121L5.88551 9.43827L5.9127 9.29265L6.0156 9.19557L6.20781 9.1548L6.49516 9.17228L6.87376 9.24605L7.32808 9.3742L7.83482 9.55282L8.33185 9.75862L8.32991 9.76056L8.87743 10.0266L9.34145 10.3042L9.72005 10.5954L9.98022 10.8867L10.0987 11.1701L10.0618 11.4361L10.1763 11.3507L10.2151 11.0711L10.0967 10.7702Z"/>
<path fill="url(#paint10_linear_15237_128309)" d="M11.2092 12.038L11.186 11.8224L11.1452 11.6186L11.083 11.4303L11.0054 11.2652L10.8734 10.941L10.7821 10.7934L10.6773 10.6789L10.4016 10.4109L10.5782 10.6556L10.4598 10.6187H10.3356L10.2113 10.6925L10.3084 10.9565L10.2734 11.2109L10.1511 11.2652L10.0366 11.3507L9.92977 11.4652L9.8094 11.6108L9.60942 11.739L9.16093 11.9156L8.68331 12.0438L8.63089 12.0535L8.00183 12.1719H8.00765L7.46208 12.2418L6.83885 12.2884L6.86409 12.4884L6.87379 12.5991H6.85049C6.85049 12.601 6.8602 12.7272 6.8602 12.7272L6.87379 12.9058L6.80778 13.133L6.84079 13.1272L6.76313 13.3388L6.67381 13.3543L6.71653 13.5834L6.73789 13.8125V14.0416L6.64081 14.8823L7.17279 14.6785L7.7669 14.4921L8.39013 14.3251L8.84445 14.2202L8.95512 14.1892L9.52788 14.0455L10.0094 13.9154L10.3627 13.797L10.4773 13.7407L10.685 13.6184L10.7938 13.5232L10.8947 13.399L10.9821 13.2495L11.0539 13.0806L11.1083 12.8961L11.1452 12.7L11.1918 12.4826L11.2112 12.2612V12.0399L11.2092 12.038Z"/>
<path fill="url(#paint11_radial_15237_128309)" d="M11.0034 11.2685L10.8713 10.9442L10.7801 10.7967L10.6752 10.6821L10.3995 10.4142L10.5762 10.6588L10.4578 10.6219H10.3335L10.2093 10.6957L10.3063 10.9598L10.2714 11.2141L10.1491 11.2685L10.0345 11.3539L9.92775 11.4684L9.80737 11.6141L11.0034 11.2704V11.2685Z"/>
<path fill="url(#paint12_linear_15237_128309)" d="M6.79984 14.4919L6.22514 14.6822L5.72811 14.8821L5.32427 15.0899L5.02333 15.2957H5.02139L4.81559 15.4937L4.69327 15.6743L4.63697 15.8238L4.62726 15.9344L4.63891 15.9966L4.86413 16.1927L4.83889 16.1189L4.83306 15.9946L4.87383 15.8315L4.98062 15.6393L5.17283 15.4277V15.4296L5.46212 15.2103L5.85431 14.9928L6.3397 14.7831L6.90662 14.5851L6.79984 14.4919Z"/>
<path fill="url(#paint13_linear_15237_128309)" d="M6.70086 14.3741L6.1184 14.5546L5.61166 14.743L5.19617 14.9371L4.8797 15.1293L4.6603 15.3118L4.5244 15.473L4.4545 15.607L4.4312 15.7002L4.42926 15.7487L4.63895 15.9972L4.6273 15.9351L4.637 15.8244L4.69331 15.6749L4.81563 15.4944L5.02143 15.2963V15.2983L5.32431 15.0905L5.72815 14.8828L6.22518 14.6828L6.79988 14.4925L6.70086 14.3741Z"/>
<path fill="url(#paint14_linear_15237_128309)" d="M6.33976 14.7827L5.85438 14.9923L5.46219 15.2098L5.1729 15.4272L4.98069 15.6389L4.8739 15.8311L4.83313 15.9942L4.83895 16.1184L4.86419 16.1922L5.09912 16.332L5.05835 16.2485L5.03893 16.1146L5.06223 15.9418L5.15348 15.7398L5.33016 15.5204L5.60586 15.2933L5.9864 15.0681L6.46208 14.8525L6.33976 14.7827Z"/>
<path fill="url(#paint15_linear_15237_128309)" d="M6.70089 14.3734L6.61157 14.2317L6.07959 14.3831L6.07571 14.3773L5.50684 14.5773L5.08164 14.754L4.75352 14.9287L4.52054 15.0918L4.37298 15.2335L4.28949 15.3481L4.2526 15.4219L4.23901 15.451L4.42928 15.748L4.43123 15.6995L4.45452 15.6063L4.52442 15.4723L4.66033 15.3112L4.87972 15.1287L5.19619 14.9365L5.61168 14.7423L6.17085 14.5443L6.16696 14.5385L6.70089 14.3734Z"/>
<path fill="url(#paint16_linear_15237_128309)" d="M6.46215 14.8527L5.98647 15.0682L5.60593 15.2934L5.33023 15.5206L5.15355 15.7399L5.0623 15.9419L5.039 16.1147L5.05648 16.237L5.05842 16.2409V16.2467H5.06036L5.09919 16.3321L5.13802 16.3593L5.39042 16.4408L5.338 16.4078L5.27393 16.2913L5.24675 16.1807L5.25451 16.004L5.33023 15.7962L5.49138 15.573L5.75349 15.34L6.12044 15.1109L6.58447 14.8915L6.46215 14.8527Z"/>
<path fill="url(#paint17_linear_15237_128309)" d="M6.61158 14.2317L6.53586 14.0724L5.9398 14.2278L5.41559 14.3889L4.98263 14.5481L4.6448 14.7015L4.40016 14.8432L4.24096 14.9636L4.14776 15.0529L4.09923 15.1053L4.07593 15.1131L4.23902 15.4509L4.25261 15.4218L4.2895 15.348L4.37298 15.2335L4.52054 15.0918L4.75352 14.9287L5.08164 14.7539L5.50684 14.5772L6.02329 14.4006V14.3986L6.61158 14.2317Z"/>
<path fill="url(#paint18_linear_15237_128309)" d="M6.58446 14.8916L6.12043 15.111L5.75348 15.3401L5.49138 15.5731L5.33023 15.7964L5.25451 16.0041L5.24674 16.1633H5.24286L5.28169 16.3206L5.33799 16.4079L5.39042 16.4409L5.64282 16.4565L5.57486 16.4215L5.50497 16.3322L5.45449 16.1808L5.44478 16.0138L5.50497 15.8061L5.65058 15.5808L5.8991 15.3479L6.25246 15.1168L6.70678 14.8974L6.58446 14.8916Z"/>
<path fill="url(#paint19_linear_15237_128309)" d="M6.47371 13.8956L5.87183 14.0392L5.34179 14.181L4.90106 14.3208L4.55353 14.4528L4.30113 14.5712L4.13221 14.6664L4.02931 14.7324L3.97301 14.7596L3.94 14.744L4.07397 15.1129L4.09921 15.1051L4.14775 15.0527L4.24094 14.9634L4.40015 14.843L4.64478 14.7013L4.98261 14.5479L5.41557 14.3887L5.93979 14.2276L6.53584 14.0722L6.47371 13.8956Z"/>
<path fill="url(#paint20_linear_15237_128309)" d="M5.80583 15.546L6.04075 15.3149L6.38247 15.0878L6.25238 15.1169L5.89902 15.3479L5.65051 15.5809L5.50489 15.8061L5.4447 16.0139L5.45441 16.1925L5.50489 16.3323L5.57479 16.4216L5.64274 16.4566L5.88737 16.4022L5.80583 16.3711L5.7204 16.2838L5.65439 16.1478L5.62915 15.9731L5.6738 15.7673L5.80583 15.546Z"/>
<path fill="url(#paint21_linear_15237_128309)" d="M6.42913 13.7088L5.82337 13.837L5.2875 13.9632L4.83901 14.0816L4.48759 14.1903L4.22742 14.2816L4.05074 14.3515L3.94202 14.3903L3.87794 14.3923L3.83717 14.3515L3.56342 13.4894L3.75563 14.2136L3.94007 14.7437L3.97308 14.7592L4.02938 14.732L4.13229 14.666L4.3012 14.5709L4.5536 14.4524L4.90114 14.3204L5.34187 14.1806L5.87191 14.0389L6.47378 13.8952L6.42913 13.7088Z"/>
<path fill="url(#paint22_linear_15237_128309)" d="M5.92426 16.1773L5.84272 16.0492L5.80389 15.8803L5.83301 15.6842L5.95145 15.4667L6.17278 15.2435L6.04076 15.3153L5.80583 15.5463L5.67381 15.7677L5.62915 15.9735L5.65439 16.1482L5.7204 16.2841L5.80583 16.3715L5.88738 16.4026L6.11648 16.2822L6.02328 16.257L5.92426 16.1773Z"/>
<path fill="url(#paint23_linear_15237_128309)" d="M6.39998 13.5177L5.79228 13.6303L5.25253 13.7371L4.80015 13.8341L4.44291 13.9196L4.17886 13.9856L4.01383 14.0205L3.99829 14.0263L3.88374 14.038L3.81579 14.0128L3.77113 13.9467L3.73424 13.8361L3.68959 13.6808L3.63134 13.4847L3.55951 13.2536L3.48184 12.9973L3.41583 12.7236L3.49738 13.2225L3.56339 13.4905L3.63911 13.7371L3.70706 13.9545L3.76337 14.1312L3.80414 14.2652L3.83715 14.3525L3.87792 14.3933L3.94199 14.3914L4.05072 14.3525L4.2274 14.2826L4.48756 14.1914L4.83898 14.0826L5.28748 13.9642L5.82334 13.838L6.4291 13.7099L6.39998 13.5177Z"/>
<path fill="url(#paint24_linear_15237_128309)" d="M6.32623 16.0959L6.22139 16.0824L6.10878 16.0144L6.01364 15.896L5.96316 15.7387L5.97869 15.5562L6.08354 15.3484L5.95151 15.4669L5.82725 15.694L5.80396 15.8804L5.84279 16.0493L5.92433 16.1775L6.02335 16.259L6.02529 16.2571L6.11654 16.2823L6.18644 16.2454L6.40777 16.0513L6.32623 16.0959Z"/>
<path fill="url(#paint25_linear_15237_128309)" d="M6.39026 13.3232L5.78061 13.4222L5.23892 13.5096L4.7846 13.5853L4.42542 13.6455L4.15943 13.6843L3.97498 13.6999L3.85849 13.6824L3.78859 13.63L3.742 13.5368L3.70317 13.4028L3.65657 13.2261L3.59638 13.0106L3.5226 12.766L3.44494 12.4981L3.37893 12.2165L3.34204 11.937L3.37893 12.4456L3.41582 12.7233L3.48183 12.997L3.55949 13.2533L3.63133 13.4844L3.68958 13.6805L3.73423 13.8358L3.77112 13.9464L3.81578 14.0125L3.88373 14.0377L3.99828 14.026L4.17884 13.9853L4.44289 13.9193L4.80014 13.8338L5.25252 13.7368L5.79226 13.63L6.39996 13.5174L6.39026 13.3232Z"/>
<path fill="url(#paint26_linear_15237_128309)" d="M6.51253 15.8509H6.39604L6.27178 15.7965L6.16499 15.6936L6.10092 15.5519L6.10481 15.3829L6.10675 15.381L6.19994 15.1907L6.08345 15.348L5.97861 15.5538L5.96307 15.7382V15.7402V15.7382L6.01355 15.8955L6.10869 16.0139L6.2213 16.0819L6.32614 16.0955L6.40769 16.0508L6.60184 15.7926L6.51253 15.8509Z"/>
<path fill="url(#paint27_linear_15237_128309)" d="M5.78838 13.2161L5.24669 13.286L4.79237 13.3404L4.43319 13.3753L4.1672 13.3889L3.98469 13.3773L3.8682 13.3326L3.79636 13.253L3.75171 13.1346L3.71287 12.9754L3.66822 12.7773V12.7948L3.60803 12.5502V12.5443L3.53425 12.2842L3.45659 12.0046L3.38864 11.7192L3.35175 11.4357L3.34204 11.9366L3.37893 12.2162L3.44494 12.4978L3.5226 12.7657L3.59638 13.0103L3.65657 13.2239V13.2258L3.70317 13.4006L3.742 13.5365L3.78859 13.6297L3.85849 13.6821L3.97498 13.6996L4.15943 13.684L4.42542 13.6452L4.7846 13.585L5.23892 13.5093L5.78061 13.4219L6.39026 13.3229L6.39996 13.1346L5.78838 13.2161Z"/>
<path fill="url(#paint28_linear_15237_128309)" d="M6.66782 15.5501L6.54162 15.5656L6.4096 15.5307L6.29116 15.4472L6.21738 15.3249L6.21156 15.1715L6.10672 15.3812L6.10089 15.5521L6.16496 15.6938L6.27175 15.7967L6.396 15.851H6.5125L6.60181 15.7928L6.7649 15.4783L6.66782 15.5501Z"/>
<path fill="url(#paint29_linear_15237_128309)" d="M5.81756 13.022L5.27781 13.0725L4.82543 13.1055L4.46819 13.1191L4.20414 13.1074L4.02358 13.0686L3.90903 12.9987L3.84302 12.8919L3.8003 12.7482L3.76341 12.5657L3.7207 12.3463V12.3521L3.66245 12.0959L3.59062 11.8221L3.51295 11.5328L3.44694 11.2396L3.41005 10.9562L3.35181 11.4357L3.3887 11.7192L3.45665 12.0046L3.53431 12.2842L3.60809 12.5444L3.69158 12.888V12.8822L3.71293 12.9754L3.75176 13.1346L3.79642 13.253L3.86826 13.3326L3.98475 13.3773L4.16725 13.3889L4.43324 13.3753L4.79243 13.3404L5.24675 13.286L5.78844 13.2161L6.40002 13.1346L6.4272 12.954L5.81756 13.022Z"/>
<path fill="url(#paint30_linear_15237_128309)" d="M6.89303 15.1116L6.78819 15.2009L6.65616 15.2378L6.51443 15.2223L6.39017 15.1601L6.30668 15.0611L6.29503 14.931L6.21155 15.1718L6.21737 15.3252L6.29115 15.4475L6.40959 15.531L6.54161 15.5659L6.66781 15.5504L6.76489 15.4785L6.82702 15.3504L6.95904 14.9699L6.89303 15.1116Z"/>
<path fill="url(#paint31_linear_15237_128309)" d="M5.86414 12.8414L5.32827 12.8764L4.87978 12.89L4.52642 12.8803L4.32256 12.8531L4.3245 12.8472L4.09346 12.7832L3.98473 12.688L3.9226 12.558L3.88571 12.389L3.85465 12.1852L3.81582 11.9464L3.76145 11.6804L3.69156 11.3911L3.61584 11.0921L3.54982 10.7931L3.51294 10.5077L3.41003 10.9562L3.44692 11.2397L3.51294 11.5328L3.5906 11.8221L3.66243 12.0959L3.72068 12.3463L3.76339 12.5657L3.80028 12.7482L3.843 12.8919L3.90901 12.9987L4.02356 13.0686L4.23713 13.1152L4.23907 13.1074L4.46817 13.1191L4.82542 13.1055L5.27779 13.0725L5.81754 13.022L6.42719 12.954L6.47184 12.7851L5.86414 12.8414Z"/>
<path fill="url(#paint32_linear_15237_128309)" d="M6.98053 14.7038L6.86986 14.8125L6.73395 14.8708L6.5864 14.8786L6.45631 14.8417L6.36894 14.7679L6.35147 14.6611L6.29517 14.931L6.30682 15.0611L6.3903 15.1601L6.51456 15.2222L6.65629 15.2377L6.78832 15.2009L6.89316 15.1115L6.95917 14.9698L7.05042 14.5446L6.98053 14.7038Z"/>
<path fill="url(#paint33_linear_15237_128309)" d="M5.93016 12.6805L5.39817 12.6999L4.9555 12.696L4.60991 12.6669L4.35751 12.6125L4.19054 12.5271L4.09152 12.4106L4.03715 12.2572L4.00803 12.0689L3.98473 11.8437L3.95173 11.5874L3.90125 11.3059L3.83718 11.0049L3.7634 10.6962L3.69933 10.3933L3.66244 10.1041L3.72651 9.81671L3.58478 10.2147L3.51294 10.5079L3.54983 10.7933L3.61584 11.0923L3.69156 11.3913L3.76146 11.6806L3.81582 11.9466L3.85465 12.1854L3.88571 12.3893L3.9226 12.5582L3.98473 12.6882L4.09346 12.7834L4.2682 12.8475L4.52642 12.8805L4.87978 12.8902L5.32828 12.8766L5.86414 12.8416L6.47184 12.7853L6.53203 12.6358L5.93016 12.6805Z"/>
<path fill="url(#paint34_linear_15237_128309)" d="M5.48552 12.5486L5.05061 12.5311L4.71473 12.4865L4.47204 12.4127L4.31671 12.3098L4.22546 12.1719L4.18275 11.9991L4.16333 11.7933L4.14974 11.5507L4.1245 11.2788L4.08179 10.9837L4.0216 10.6731L3.9517 10.3566L3.88957 10.0479L3.85269 9.75667L3.90899 9.47321L3.72649 9.81686L3.66241 10.1042L3.70125 10.3896L3.6993 10.3935L3.70513 10.4187L3.70707 10.4362L3.70901 10.4343L3.76337 10.6964L3.83715 11.0051L3.90122 11.306L3.9517 11.5875L3.98471 11.8438L4.00801 12.069L4.03713 12.2574L4.09149 12.4108L4.19051 12.5272L4.35749 12.6127L4.60989 12.667L4.95548 12.6962L5.39815 12.7L6.00585 12.6767L6.01168 12.5408L5.48552 12.5486Z"/>
<path fill="url(#paint35_linear_15237_128309)" d="M7.02509 13.8063L6.91443 13.9577L6.77269 14.0645L6.62319 14.1247L6.48923 14.1421L6.39798 14.1227L6.37662 14.0723L6.37856 14.3732L6.35138 14.6605L6.36885 14.7673L6.45622 14.8411L6.58631 14.878L6.73386 14.8702L6.86977 14.812H6.87171L6.98044 14.7033L7.05033 14.544L7.09693 14.0878L7.09887 13.6102L7.02509 13.8063Z"/>
<path fill="url(#paint36_linear_15237_128309)" d="M5.59034 12.4284L5.16514 12.3973L4.83702 12.3391L4.60792 12.2517L4.46425 12.1333L4.38658 11.9799L4.35552 11.7935L4.3497 11.5703L4.34581 11.3159L4.33028 11.0305L4.29533 10.7237L4.24097 10.4034L4.17496 10.0811L4.11477 9.76656L4.07788 9.47533L4.12642 9.19769L3.90897 9.47339L3.85266 9.75686L3.88955 10.0481L3.95168 10.3568L4.02157 10.6733L4.08176 10.9839L4.12448 11.279L4.14972 11.5508L4.16331 11.7935L4.18272 11.9993L4.22544 12.1721L4.31475 12.308L4.47201 12.4129L4.7147 12.4867L5.05059 12.5313L5.4855 12.5488L6.01165 12.541L6.10679 12.4304L5.59034 12.4284Z"/>
<path fill="#B1FF46" d="M7.05225 13.1252L6.98236 13.3388L6.87169 13.5155L6.73384 13.6456L6.60376 13.7213L6.45426 13.7795L6.36495 13.7893L6.34747 13.766L6.3766 14.0727L6.39795 14.1232L6.48921 14.1426L6.62317 14.1213V14.1251L6.6387 14.1174L6.66783 14.1135V14.1077L6.77267 14.0649L6.9144 13.9582L7.02507 13.8067L7.09885 13.6106L7.05225 13.1252Z"/>
<path fill="url(#paint37_linear_15237_128309)" d="M5.70682 12.3402L5.29133 12.3014L4.97874 12.2315L4.76129 12.1344L4.63121 12.0043L4.56908 11.8393L4.5516 11.6412L4.55937 11.4063L4.56714 11.1403L4.56325 10.8472L4.53801 10.5326L4.48948 10.2045L4.42929 9.87638L4.37104 9.55991L4.33998 9.30169H4.34192L4.37104 8.99298L4.51472 8.75806L4.40405 8.85513C4.33027 8.9192 4.2662 8.99104 4.21184 9.07064L4.12447 9.19684L4.08175 9.36576L4.07593 9.47448L4.11282 9.76572L4.173 10.0802L4.23902 10.4025L4.29338 10.7229L4.32833 11.0297L4.34386 11.3151L4.34774 11.5694L4.35357 11.7927L4.38463 11.9791L4.46229 12.1325L4.60597 12.2509L4.83701 12.3383L5.16319 12.3965L5.58839 12.4276H6.10484C6.10484 12.4295 6.21356 12.3499 6.21356 12.3499L5.70488 12.3402H5.70682Z"/>
<path fill="url(#paint38_linear_15237_128309)" d="M7.07557 12.8474L7.07363 12.6028L7.0445 12.3155L7.01538 12.0281L6.9183 11.5136L6.94937 11.8029L6.97849 12.0941L6.98432 12.4106L6.96296 12.6436L6.89501 12.8766L6.8154 13.0261L6.81346 13.0202L6.65425 13.2319L6.51058 13.3464L6.38438 13.4202L6.30089 13.459L6.28925 13.4649L6.34749 13.7658L6.36497 13.7891L6.45428 13.7794L6.58436 13.7347L6.73386 13.6454L6.87171 13.5115V13.5134L6.87559 13.5056L6.89695 13.4843L6.89501 13.4746L6.98238 13.3387L7.05227 13.1251L7.08139 12.8766L7.07557 12.8474Z"/>
<path fill="url(#paint39_linear_15237_128309)" d="M5.5786 12.2259L5.43104 12.2434L5.1301 12.1696L4.92818 12.0647L4.81363 11.9269L4.76703 11.756V11.5502L4.78645 11.3095L4.80975 11.0377L4.81751 10.7367L4.80198 10.4164L4.76315 10.0863L4.70879 9.75431L4.65248 9.43396L4.61754 9.13496L4.64278 8.87285L4.75927 8.64569L4.51658 8.7583L4.3729 8.99323L4.32825 9.24951C4.32825 9.25922 4.32825 9.26892 4.32825 9.27669L4.35349 9.53686C4.35349 9.54268 4.35349 9.54851 4.35543 9.55433L4.42921 9.87663L4.48939 10.2047L4.53793 10.5329L4.56317 10.8474L4.56706 11.1406L4.55929 11.4066L4.55152 11.6415L4.569 11.8395L4.63113 12.0046L4.76121 12.1346L4.97866 12.2317L5.29125 12.3016L5.4058 12.3171L5.70674 12.3404L5.83294 12.288L5.96691 12.2725L5.5786 12.2259Z"/>
<path fill="url(#paint40_linear_15237_128309)" d="M6.97847 12.0939L6.94935 11.8007V11.7987L6.91828 11.5133L6.77461 11.0163L6.80567 11.3075L6.83674 11.6065L6.85033 11.8997L6.82703 12.1793L6.7649 12.4317L6.66394 12.6511L6.5358 12.8316L6.40183 12.9734L6.28146 13.0763L6.20768 13.1403L6.2038 13.1733L6.28922 13.4646L6.30087 13.4588L6.38436 13.4199V13.4219L6.51056 13.3461L6.65423 13.2316L6.7882 13.0743L6.89498 12.8763L6.96294 12.6433L6.98818 12.3793L6.97847 12.0939Z"/>
<path fill="url(#paint41_linear_15237_128309)" d="M5.29137 12.15L5.10499 12.0432L5.00597 11.9054L4.97685 11.7306L4.99238 11.5229L5.02927 11.2802L5.06616 11.0045L5.08751 10.7035L5.08169 10.3793L5.05062 10.0473L5.00014 9.71336L4.94772 9.39301L4.91472 9.09789L4.92637 8.83579L5.01179 8.62222L5.28555 8.4766L5.30302 8.47272L5.0914 8.47854C5.00791 8.48048 4.92831 8.4999 4.85259 8.53679L4.75745 8.58339L4.51282 8.75812L4.71668 8.72123L4.63902 8.87267L4.61378 9.14061L4.64873 9.43378L4.70503 9.75413L4.75939 10.0842C4.75939 10.0861 4.79822 10.4162 4.79822 10.4162L4.81376 10.7366L4.80599 11.0375L4.78269 11.3093L4.76133 11.5501V11.7559L4.80987 11.9267L4.92442 12.0646L5.12634 12.1694L5.42728 12.2432L5.5729 12.2257L5.28749 12.15H5.29137Z"/>
<path fill="url(#paint42_linear_15237_128309)" d="M6.83684 11.607L6.80577 11.308L6.77471 11.0168L6.71452 10.776L6.5359 10.312L6.58832 10.5528L6.61938 10.8459L6.65433 11.1508L6.66792 11.4925L6.65239 11.7468L6.59803 12.0167L6.50483 12.2574L6.38446 12.4613V12.4632L6.2602 12.6263L6.15147 12.7545L6.15341 12.7584L6.0874 12.8457L6.09323 12.904L6.20389 13.1738L6.20778 13.1408L6.28156 13.0729L6.2835 13.0768L6.40193 12.9739L6.53784 12.8321V12.8302L6.66404 12.6516L6.765 12.4322L6.82713 12.1798L6.84849 11.9448L6.85237 11.9565L6.83684 11.607Z"/>
<path fill="url(#paint43_linear_15237_128309)" d="M6.65426 11.1503L6.61931 10.8454L6.58824 10.5523L6.53582 10.3115L6.32031 9.89215L6.36497 10.1348L6.39603 10.43L6.43292 10.7387L6.45234 11.0532L6.44263 11.358L6.39409 11.6434L6.3106 11.8997L6.20382 12.1249L6.08927 12.3133L5.99219 12.4627L5.94171 12.5792L5.95919 12.6608L6.09315 12.9035L6.08733 12.8452L6.1514 12.754L6.26012 12.6258L6.38632 12.4608V12.4589L6.50476 12.2569L6.59795 12.0162L6.65231 11.7463L6.66979 11.4551L6.65426 11.1503Z"/>
<path fill="url(#paint44_linear_15237_128309)" d="M5.45631 11.6615L5.52621 11.4285L5.59416 11.1606L5.64076 10.8654L5.65823 10.549L5.64464 10.2208L5.60775 9.88885L5.5631 9.57043L5.52815 9.27338L5.51844 9.02098L5.54562 8.81906L5.27963 8.67733L5.01558 8.61908L4.92821 8.83653L4.91656 9.09864L4.94957 9.39375L5.00199 9.71411L5.05247 10.0481H5.05053L5.0816 10.3801L5.08742 10.7043L5.06606 11.0052L5.02917 11.2809L4.99228 11.5236L4.97675 11.7314L5.00588 11.9061L5.10489 12.044L5.29128 12.1507L5.45631 12.1993L5.62134 12.2498L5.46602 12.1527L5.40195 12.0245L5.40777 11.8614L5.45631 11.6615Z"/>
<path fill="url(#paint45_linear_15237_128309)" d="M6.43303 10.739L6.39615 10.4303L6.36508 10.1352L6.32043 9.89251L6.26606 9.70418L6.04473 9.33917L6.07385 9.53138L6.1088 9.77796L6.13986 10.0711L6.18063 10.3857L6.20587 10.706L6.20199 11.0225L6.16316 11.3215L6.09132 11.5933L5.99619 11.836L5.89523 12.0437L5.81368 12.2146L5.77679 12.3486L5.80786 12.4495L5.9593 12.6611L5.94183 12.5796L5.99425 12.4631V12.4612L6.08938 12.3136L6.20393 12.1253L6.31072 11.9001L6.3942 11.6438L6.44274 11.3584L6.45245 11.0536L6.43303 10.739Z"/>
<path fill="url(#paint46_linear_15237_128309)" d="M5.93396 10.4263L5.90289 10.1001L5.86018 9.78173L5.82717 9.48661L5.80388 9.2381L5.80193 9.042L5.54371 8.81873L5.51847 9.02065L5.52818 9.27305L5.56313 9.5701L5.60778 9.88851L5.64467 10.2205L5.65826 10.5486L5.64079 10.8651L5.59419 11.1602L5.52624 11.4282L5.45634 11.6611L5.4078 11.8611L5.40198 12.0242L5.46605 12.1523L5.64273 12.2785L5.59419 12.1621L5.61555 12.0106L5.68156 11.8242L5.76893 11.601L5.85047 11.3447L5.91066 11.0593L5.93784 10.7506L5.93396 10.4263Z"/>
<path fill="url(#paint47_linear_15237_128309)" d="M6.18058 10.386L6.13981 10.0714L6.10875 9.77826L6.0738 9.53169L6.04468 9.33947L5.80198 9.04242L5.80392 9.23851L5.82722 9.48703L5.86023 9.78215L5.90294 10.1006L5.93401 10.4267L5.93789 10.751L5.91071 11.0597L5.85052 11.3451L5.76898 11.6014H5.77092L5.68161 11.8246L5.6156 12.011L5.59424 12.1625L5.64278 12.279L5.80781 12.4498L5.77674 12.3489L5.81363 12.2149L5.89518 12.044L6.0272 11.7703L6.02332 11.7664L6.09127 11.5936L6.16311 11.3198V11.3218L6.20194 11.0228L6.20582 10.7063L6.18058 10.386Z"/>
</g>
</g>
<defs>
<linearGradient x1="6.78058" gradientUnits="userSpaceOnUse" x2="9.32399" y1="11.8962" y2="11.8962" xlink:type="simple" xlink:actuate="onLoad" id="paint0_linear_15237_128309" xlink:show="other">
<stop stop-color="#80FF77"/>
<stop stop-color="#80FF77" offset="1"/>
</linearGradient>
<linearGradient x1="6.64851" gradientUnits="userSpaceOnUse" x2="9.59771" y1="11.409" y2="11.7759" xlink:type="simple" xlink:actuate="onLoad" id="paint1_linear_15237_128309" xlink:show="other">
<stop stop-color="#BAFF3C"/>
<stop stop-color="#A0FF56" offset="1"/>
</linearGradient>
<linearGradient x1="6.54747" gradientUnits="userSpaceOnUse" x2="9.75878" y1="11.1064" y2="11.5879" xlink:type="simple" xlink:actuate="onLoad" id="paint2_linear_15237_128309" xlink:show="other">
<stop stop-color="#F8F500"/>
<stop stop-color="#C1FF36" offset="1"/>
</linearGradient>
<linearGradient x1="6.18251" gradientUnits="userSpaceOnUse" x2="9.62291" y1="10.467" y2="11.4572" xlink:type="simple" xlink:actuate="onLoad" id="paint3_linear_15237_128309" xlink:show="other">
<stop stop-color="#FFAB00"/>
<stop stop-color="#D4FF23" offset="1"/>
</linearGradient>
<linearGradient x1="6.24852" gradientUnits="userSpaceOnUse" x2="10.0054" y1="10.0521" y2="11.054" xlink:type="simple" xlink:actuate="onLoad" id="paint4_linear_15237_128309" xlink:show="other">
<stop stop-color="#FF2D00"/>
<stop stop-color="#FFDE00" offset="1"/>
</linearGradient>
<linearGradient x1="6.3515" gradientUnits="userSpaceOnUse" x2="9.90258" y1="10.4728" y2="11.197" xlink:type="simple" xlink:actuate="onLoad" id="paint5_linear_15237_128309" xlink:show="other">
<stop stop-color="#FF6C00"/>
<stop stop-color="#EEFF09" offset="1"/>
</linearGradient>
<linearGradient x1="4.92633" gradientUnits="userSpaceOnUse" x2="10.6694" y1="8.39533" y2="10.4572" xlink:type="simple" xlink:actuate="onLoad" id="paint6_linear_15237_128309" xlink:show="other">
<stop stop-color="#890000"/>
<stop stop-color="#FF1E00" offset="0.5"/>
<stop stop-color="#FFC100" offset="1"/>
</linearGradient>
<linearGradient x1="5.64082" gradientUnits="userSpaceOnUse" x2="10.3277" y1="9.0918" y2="10.6936" xlink:type="simple" xlink:actuate="onLoad" id="paint7_linear_15237_128309" xlink:show="other">
<stop stop-color="#9B0000"/>
<stop stop-color="#FF4300" offset="0.5"/>
<stop stop-color="#FFC100" offset="1"/>
</linearGradient>
<linearGradient x1="6.1166" gradientUnits="userSpaceOnUse" x2="10.087" y1="9.5639" y2="10.9754" xlink:type="simple" xlink:actuate="onLoad" id="paint8_linear_15237_128309" xlink:show="other">
<stop stop-color="#DF0000"/>
<stop stop-color="#FFD000" offset="1"/>
</linearGradient>
<linearGradient x1="6.05249" gradientUnits="userSpaceOnUse" x2="10.1918" y1="9.00919" y2="10.9507" xlink:type="simple" xlink:actuate="onLoad" id="paint9_linear_15237_128309" xlink:show="other">
<stop stop-color="#C80000"/>
<stop stop-color="#FF5500" offset="0.5"/>
<stop stop-color="#FFD000" offset="1"/>
</linearGradient>
<linearGradient x1="8.26393" gradientUnits="userSpaceOnUse" x2="9.34731" y1="11.5137" y2="14.4901" xlink:type="simple" xlink:actuate="onLoad" id="paint10_linear_15237_128309" xlink:show="other">
<stop stop-color="#FFDB00" offset="0.1"/>
<stop stop-color="#FAEA04" offset="0.3"/>
<stop stop-color="#E1FF16" offset="0.5"/>
<stop stop-color="#9AFF5D" offset="0.6"/>
<stop stop-color="#6DFF8A" offset="0.7"/>
<stop stop-color="#43FFB4" offset="0.9"/>
<stop stop-color="#00D8FF" offset="1"/>
</linearGradient>
<radialGradient gradientTransform="translate(10.3355 10.985) scale(0.718369)" gradientUnits="userSpaceOnUse" xlink:type="simple" r="1" xlink:actuate="onLoad" cx="0" cy="0" id="paint11_radial_15237_128309" xlink:show="other">
<stop stop-color="#FFBD00" offset="0.4"/>
<stop stop-color="#FAEA04" offset="0.9"/>
</radialGradient>
<linearGradient x1="4.90878" gradientUnits="userSpaceOnUse" x2="6.80567" y1="15.7636" y2="14.5016" xlink:type="simple" xlink:actuate="onLoad" id="paint12_linear_15237_128309" xlink:show="other">
<stop stop-color="#0040FF"/>
<stop stop-color="#0080FF" offset="0.5"/>
<stop stop-color="#00A8FF" offset="1"/>
</linearGradient>
<linearGradient x1="4.60594" gradientUnits="userSpaceOnUse" x2="6.78241" y1="15.5934" y2="14.6556" xlink:type="simple" xlink:actuate="onLoad" id="paint13_linear_15237_128309" xlink:show="other">
<stop stop-color="#0058FF"/>
<stop stop-color="#009CFF" offset="0.5"/>
<stop stop-color="#00D0FF" offset="1"/>
</linearGradient>
<linearGradient x1="5.09718" gradientUnits="userSpaceOnUse" x2="6.39995" y1="15.9087" y2="14.9302" xlink:type="simple" xlink:actuate="onLoad" id="paint14_linear_15237_128309" xlink:show="other">
<stop stop-color="#0018FF"/>
<stop stop-color="#0064FF" offset="0.3"/>
<stop stop-color="#00A8FF" offset="1"/>
</linearGradient>
<linearGradient x1="4.37492" gradientUnits="userSpaceOnUse" x2="6.69506" y1="15.3733" y2="14.5482" xlink:type="simple" xlink:actuate="onLoad" id="paint15_linear_15237_128309" xlink:show="other">
<stop stop-color="#0074FF" offset="0.2"/>
<stop stop-color="#00B4FF" offset="0.5"/>
<stop stop-color="#00E0FB" offset="1"/>
</linearGradient>
<linearGradient x1="5.34771" gradientUnits="userSpaceOnUse" x2="6.49904" y1="15.9904" y2="14.9614" xlink:type="simple" xlink:actuate="onLoad" id="paint16_linear_15237_128309" xlink:show="other">
<stop stop-color="#0010FF"/>
<stop stop-color="#004CFF" offset="0.3"/>
<stop stop-color="#00A8FF" offset="0.9"/>
<stop stop-color="#0CF4EB" offset="1"/>
</linearGradient>
<linearGradient x1="4.17883" gradientUnits="userSpaceOnUse" x2="6.60964" y1="15.1073" y2="14.3889" xlink:type="simple" xlink:actuate="onLoad" id="paint17_linear_15237_128309" xlink:show="other">
<stop stop-color="#009CFF" offset="0.2"/>
<stop stop-color="#00D0FF" offset="0.5"/>
<stop stop-color="#0FF8E7" offset="1"/>
</linearGradient>
<linearGradient x1="5.27587" gradientUnits="userSpaceOnUse" x2="6.4602" y1="16.2546" y2="15.2547" xlink:type="simple" xlink:actuate="onLoad" id="paint18_linear_15237_128309" xlink:show="other">
<stop stop-color="#0010FF"/>
<stop stop-color="#004CFF" offset="0.2"/>
<stop stop-color="#00A8FF" offset="0.9"/>
<stop stop-color="#0CF4EB" offset="1"/>
</linearGradient>
<linearGradient x1="4.02737" gradientUnits="userSpaceOnUse" x2="6.5339" y1="14.8294" y2="14.1557" xlink:type="simple" xlink:actuate="onLoad" id="paint19_linear_15237_128309" xlink:show="other">
<stop stop-color="#00B4FF" offset="0.2"/>
<stop stop-color="#09F0EE" offset="0.5"/>
<stop stop-color="#23FFD4" offset="1"/>
</linearGradient>
<linearGradient x1="5.70875" gradientUnits="userSpaceOnUse" x2="6.06405" y1="16.0702" y2="15.2023" xlink:type="simple" xlink:actuate="onLoad" id="paint20_linear_15237_128309" xlink:show="other">
<stop stop-color="#0010FF"/>
<stop stop-color="#004CFF" offset="0.2"/>
<stop stop-color="#00A8FF" offset="0.9"/>
<stop stop-color="#0CF4EB" offset="1"/>
</linearGradient>
<linearGradient x1="3.56342" gradientUnits="userSpaceOnUse" x2="6.47378" y1="14.1243" y2="14.1243" xlink:type="simple" xlink:actuate="onLoad" id="paint21_linear_15237_128309" xlink:show="other">
<stop stop-color="#02E8F4" offset="0.2"/>
<stop stop-color="#26FFD1" offset="0.5"/>
<stop stop-color="#39FFBE" offset="1"/>
</linearGradient>
<linearGradient x1="5.85049" gradientUnits="userSpaceOnUse" x2="6.00193" y1="16.2589" y2="15.3794" xlink:type="simple" xlink:actuate="onLoad" id="paint22_linear_15237_128309" xlink:show="other">
<stop stop-color="#0010FF"/>
<stop stop-color="#004CFF" offset="0.2"/>
<stop stop-color="#00A8FF" offset="0.9"/>
</linearGradient>
<linearGradient x1="3.41583" gradientUnits="userSpaceOnUse" x2="6.4291" y1="13.5584" y2="13.5584" xlink:type="simple" xlink:actuate="onLoad" id="paint23_linear_15237_128309" xlink:show="other">
<stop stop-color="#01E8F4"/>
<stop stop-color="#56FFA0" offset="0.2"/>
<stop stop-color="#60FF97" offset="0.5"/>
<stop stop-color="#53FFA4" offset="1"/>
</linearGradient>
<linearGradient x1="6.10684" gradientUnits="userSpaceOnUse" x2="6.10489" y1="16.2027" y2="15.5989" xlink:type="simple" xlink:actuate="onLoad" id="paint24_linear_15237_128309" xlink:show="other">
<stop stop-color="#0010FF"/>
<stop stop-color="#004CFF" offset="0.2"/>
<stop stop-color="#00A8FF" offset="0.9"/>
</linearGradient>
<linearGradient x1="3.34204" gradientUnits="userSpaceOnUse" x2="6.39996" y1="12.9873" y2="12.9873" xlink:type="simple" xlink:actuate="onLoad" id="paint25_linear_15237_128309" xlink:show="other">
<stop stop-color="#56FFA0" offset="0.2"/>
<stop stop-color="#8DFF6A" offset="0.5"/>
<stop stop-color="#6DFF8A" offset="1"/>
</linearGradient>
<linearGradient x1="6.43487" gradientUnits="userSpaceOnUse" x2="6.0252" y1="16.0237" y2="15.4218" xlink:type="simple" xlink:actuate="onLoad" id="paint26_linear_15237_128309" xlink:show="other">
<stop stop-color="#0088FF"/>
<stop stop-color="#00B8FF" offset="0.5"/>
</linearGradient>
<linearGradient x1="3.34204" gradientUnits="userSpaceOnUse" x2="6.39996" y1="12.5676" y2="12.5676" xlink:type="simple" xlink:actuate="onLoad" id="paint27_linear_15237_128309" xlink:show="other">
<stop stop-color="#97FF60" offset="0.2"/>
<stop stop-color="#8DFF6A" offset="0.5"/>
<stop stop-color="#87FF70" offset="1"/>
</linearGradient>
<linearGradient x1="6.10089" gradientUnits="userSpaceOnUse" x2="6.7649" y1="15.5113" y2="15.5113" xlink:type="simple" xlink:actuate="onLoad" id="paint28_linear_15237_128309" xlink:show="other">
<stop stop-color="#02E8F4"/>
<stop stop-color="#0088FF" offset="1"/>
</linearGradient>
<linearGradient x1="3.39646" gradientUnits="userSpaceOnUse" x2="6.27576" y1="12.0531" y2="13.1326" xlink:type="simple" xlink:actuate="onLoad" id="paint29_linear_15237_128309" xlink:show="other">
<stop stop-color="#D7FF1F" offset="0.2"/>
<stop stop-color="#B4FF43" offset="0.5"/>
<stop stop-color="#A0FF56" offset="1"/>
</linearGradient>
<linearGradient x1="6.21155" gradientUnits="userSpaceOnUse" x2="6.95904" y1="15.2475" y2="15.2475" xlink:type="simple" xlink:actuate="onLoad" id="paint30_linear_15237_128309" xlink:show="other">
<stop stop-color="#00E0F5"/>
<stop stop-color="#00E5F4" offset="0.9"/>
</linearGradient>
<linearGradient x1="3.4877" gradientUnits="userSpaceOnUse" x2="6.24468" y1="11.6513" y2="12.9812" xlink:type="simple" xlink:actuate="onLoad" id="paint31_linear_15237_128309" xlink:show="other">
<stop stop-color="#FFD300" offset="0.2"/>
<stop stop-color="#EBFF0C" offset="0.5"/>
<stop stop-color="#CAFF2C" offset="0.8"/>
<stop stop-color="#B7FF40" offset="1"/>
</linearGradient>
<linearGradient x1="6.29517" gradientUnits="userSpaceOnUse" x2="7.05042" y1="14.8902" y2="14.8902" xlink:type="simple" xlink:actuate="onLoad" id="paint32_linear_15237_128309" xlink:show="other">
<stop stop-color="#29FFCE"/>
<stop stop-color="#0FF8E7" offset="0.9"/>
</linearGradient>
<linearGradient x1="3.36927" gradientUnits="userSpaceOnUse" x2="5.59039" y1="10.803" y2="12.8475" xlink:type="simple" xlink:actuate="onLoad" id="paint33_linear_15237_128309" xlink:show="other">
<stop stop-color="#FF9100" offset="0.2"/>
<stop stop-color="#FFD300" offset="0.5"/>
<stop stop-color="#DBFF1C" offset="0.8"/>
<stop stop-color="#BEFF39" offset="1"/>
</linearGradient>
<linearGradient x1="3.38672" gradientUnits="userSpaceOnUse" x2="5.41757" y1="10.0964" y2="12.8903" xlink:type="simple" xlink:actuate="onLoad" id="paint34_linear_15237_128309" xlink:show="other">
<stop stop-color="#FF4E00" offset="0.2"/>
<stop stop-color="#FF7A00" offset="0.5"/>
<stop stop-color="#FEED00" offset="0.8"/>
<stop stop-color="#EEFF09" offset="1"/>
</linearGradient>
<linearGradient x1="6.35138" gradientUnits="userSpaceOnUse" x2="7.09887" y1="14.2431" y2="14.2431" xlink:type="simple" xlink:actuate="onLoad" id="paint35_linear_15237_128309" xlink:show="other">
<stop stop-color="#80FF77"/>
<stop stop-color="#80FF77" offset="0.9"/>
</linearGradient>
<linearGradient x1="3.62162" gradientUnits="userSpaceOnUse" x2="5.46996" y1="9.72773" y2="12.807" xlink:type="simple" xlink:actuate="onLoad" id="paint36_linear_15237_128309" xlink:show="other">
<stop stop-color="#FF1A00" offset="0.2"/>
<stop stop-color="#FF3000" offset="0.5"/>
<stop stop-color="#FFA700" offset="0.7"/>
<stop stop-color="#FFEA00" offset="1"/>
</linearGradient>
<linearGradient x1="4.45259" gradientUnits="userSpaceOnUse" x2="5.40782" y1="9.36964" y2="12.5169" xlink:type="simple" xlink:actuate="onLoad" id="paint37_linear_15237_128309" xlink:show="other">
<stop stop-color="#D10000" offset="0.2"/>
<stop stop-color="#FF1300" offset="0.5"/>
<stop stop-color="#FB4D00" offset="0.7"/>
<stop stop-color="#FFD000" offset="1"/>
</linearGradient>
<linearGradient x1="6.19411" gradientUnits="userSpaceOnUse" x2="7.17265" y1="12.8494" y2="12.4533" xlink:type="simple" xlink:actuate="onLoad" id="paint38_linear_15237_128309" xlink:show="other">
<stop stop-color="#DEFF19"/>
<stop stop-color="#F8F500" offset="0.9"/>
</linearGradient>
<linearGradient x1="4.38649" gradientUnits="userSpaceOnUse" x2="5.35338" y1="8.95634" y2="12.3579" xlink:type="simple" xlink:actuate="onLoad" id="paint39_linear_15237_128309" xlink:show="other">
<stop stop-color="#A80000" offset="0.2"/>
<stop stop-color="#BB0000" offset="0.5"/>
<stop stop-color="#ED0400" offset="0.7"/>
<stop stop-color="#FB4D00" offset="0.8"/>
<stop stop-color="#FFD000" offset="1"/>
</linearGradient>
<linearGradient x1="6.30864" gradientUnits="userSpaceOnUse" x2="7.08914" y1="13.2374" y2="11.325" xlink:type="simple" xlink:actuate="onLoad" id="paint40_linear_15237_128309" xlink:show="other">
<stop stop-color="#FEED00"/>
<stop stop-color="#FFC800" offset="0.2"/>
<stop stop-color="#FFB600" offset="0.7"/>
<stop stop-color="#FFA300" offset="1"/>
</linearGradient>
<linearGradient x1="4.60019" gradientUnits="userSpaceOnUse" x2="5.66997" y1="8.66493" y2="12.2374" xlink:type="simple" xlink:actuate="onLoad" id="paint41_linear_15237_128309" xlink:show="other">
<stop stop-color="#800000" offset="0.2"/>
<stop stop-color="#BB0000" offset="0.5"/>
<stop stop-color="#ED0400" offset="0.7"/>
<stop stop-color="#FB4D00" offset="0.8"/>
<stop stop-color="#FFD000" offset="1"/>
</linearGradient>
<linearGradient x1="6.10099" gradientUnits="userSpaceOnUse" x2="6.94362" y1="12.9176" y2="10.5489" xlink:type="simple" xlink:actuate="onLoad" id="paint42_linear_15237_128309" xlink:show="other">
<stop stop-color="#FFB200"/>
<stop stop-color="#FF2D00" offset="1"/>
</linearGradient>
<linearGradient x1="5.96695" gradientUnits="userSpaceOnUse" x2="6.61348" y1="12.5948" y2="10.4397" xlink:type="simple" xlink:actuate="onLoad" id="paint43_linear_15237_128309" xlink:show="other">
<stop stop-color="#FF9F00"/>
<stop stop-color="#FF4A00" offset="0.5"/>
<stop stop-color="#FF2900" offset="1"/>
</linearGradient>
<linearGradient x1="5.26604" gradientUnits="userSpaceOnUse" x2="5.33011" y1="8.52589" y2="12.376" xlink:type="simple" xlink:actuate="onLoad" id="paint44_linear_15237_128309" xlink:show="other">
<stop stop-color="#800000" offset="0.2"/>
<stop stop-color="#BB0000" offset="0.5"/>
<stop stop-color="#ED0400" offset="0.7"/>
<stop stop-color="#FFD000" offset="1"/>
</linearGradient>
<linearGradient x1="5.89329" gradientUnits="userSpaceOnUse" x2="6.35926" y1="12.2534" y2="9.73913" xlink:type="simple" xlink:actuate="onLoad" id="paint45_linear_15237_128309" xlink:show="other">
<stop stop-color="#FF7E00"/>
<stop stop-color="#FD1800" offset="0.4"/>
<stop stop-color="#FD1200" offset="0.7"/>
<stop stop-color="#DF0000" offset="1"/>
</linearGradient>
<linearGradient x1="5.77087" gradientUnits="userSpaceOnUse" x2="5.59031" y1="9.17985" y2="12.2203" xlink:type="simple" xlink:actuate="onLoad" id="paint46_linear_15237_128309" xlink:show="other">
<stop stop-color="#920000"/>
<stop stop-color="#A40000" offset="0.4"/>
<stop stop-color="#FA0F00" offset="0.8"/>
<stop stop-color="#FFD000" offset="1"/>
</linearGradient>
<linearGradient x1="5.64278" gradientUnits="userSpaceOnUse" x2="6.12816" y1="12.1994" y2="9.31424" xlink:type="simple" xlink:actuate="onLoad" id="paint47_linear_15237_128309" xlink:show="other">
<stop stop-color="#FF6800"/>
<stop stop-color="#FF5500" offset="0.3"/>
<stop stop-color="#C40000" offset="0.6"/>
<stop stop-color="#B20000" offset="1"/>
</linearGradient>
<clipPath id="clip0_15237_128309">
<rect fill="white" width="24" height="24" transform="translate(0.138855 0.453125)"/>
</clipPath>
<clipPath id="clip1_15237_128309">
<rect fill="white" width="8.07486" height="8.11175" transform="translate(3.22363 8.40521)"/>
</clipPath>
</defs>
<metadata symbolName="CRVUSD" fileName="crvusd.svg" id="grimlock-metadata-id" lastUpdate="2025-02-10T09:58:22.589463752" symbolId="1422"/></svg>