<?xml version="1.0" encoding="UTF-8" standalone="no"?><svg xmlns="http://www.w3.org/2000/svg" xmlns:xlink="http://www.w3.org/1999/xlink" contentScriptType="text/ecmascript" fill="none" width="25" zoomAndPan="magnify" contentStyleType="text/css" viewBox="0 0 25 25" height="25" preserveAspectRatio="xMidYMid meet" version="1.0">
<g clip-path="url(#clip0_15237_136008)">
<circle fill="#BD3D44" r="6.85714" cx="17.2817" cy="12.6802"/>
<path fill="white" clip-rule="evenodd" d="M13.5872 6.90009C13.1328 7.19089 12.7148 7.53382 12.3419 7.92046H22.214C21.841 7.53382 21.4231 7.19089 20.9686 6.90009H13.5872ZM10.9155 10.1182C11.0706 9.73338 11.2596 9.36587 11.4788 9.01936H23.0771C23.2963 9.36587 23.4853 9.73338 23.6404 10.1182H10.9155ZM10.5772 11.2171C10.5106 11.5239 10.4644 11.8384 10.4403 12.159H24.1156C24.0915 11.8384 24.0453 11.5239 23.9786 11.2171H10.5772ZM10.5897 14.1998C10.5158 13.8731 10.4652 13.5376 10.4398 13.1951H24.116C24.0906 13.5376 24.04 13.8731 23.9661 14.1998H10.5897ZM10.9384 15.2987C11.0978 15.684 11.2911 16.0516 11.5149 16.3977H23.041C23.2647 16.0516 23.4581 15.684 23.6174 15.2987H10.9384ZM13.5527 18.4383C13.1337 18.1667 12.7462 17.8505 12.397 17.4966H22.1589C21.8096 17.8505 21.4221 18.1667 21.0031 18.4383H13.5527ZM17.2177 19.5372C17.2377 19.5374 17.2578 19.5375 17.2779 19.5375C17.298 19.5375 17.3181 19.5374 17.3382 19.5372H17.2177Z" fill-rule="evenodd"/>
<path fill="#00418E" clip-rule="evenodd" d="M10.4441 13.2014C10.4311 13.0294 10.4246 12.8555 10.4246 12.6802C10.4246 8.89311 13.4946 5.82306 17.2817 5.82306C17.5644 5.82306 17.8431 5.84017 18.1169 5.87341V13.2014H10.4441Z" fill-rule="evenodd"/>
<path fill="white" clip-rule="evenodd" d="M13.9355 6.70418C13.896 6.7265 13.8567 6.74919 13.8176 6.77227L14.0026 6.9045L13.9355 6.70418ZM13.2189 7.16968C13.0803 7.27249 12.9458 7.3804 12.8155 7.49314L12.8602 7.46164L13.1122 7.64111L13.0164 7.34914L13.2711 7.16968H13.2189ZM12.1481 8.1555C12.1171 8.19069 12.0866 8.2262 12.0563 8.26202L12.2219 8.38039L12.1481 8.1555ZM10.9368 10.1215C10.9172 10.1701 10.8981 10.219 10.8797 10.2682L10.9262 10.3009L10.8275 10.5956L11.0823 10.4134L11.3371 10.5956L11.2385 10.3036L11.4932 10.1241H11.1809L11.0823 9.83218L10.9864 10.1215H10.9368ZM15.523 6.13843L15.6216 6.43039H15.9339L15.6818 6.60986L15.7777 6.9045L15.523 6.72236L15.2709 6.90182L15.3668 6.60986L15.1148 6.43039H15.4271L15.523 6.13843ZM17.3009 6.13843L17.3967 6.43039H17.7118L17.457 6.60986L17.5556 6.9045L17.3009 6.72236L17.0461 6.90182L17.1447 6.60986L16.8899 6.43039H17.205L17.3009 6.13843ZM14.6354 6.87771L14.734 7.16968H15.0463L14.7915 7.34914L14.8901 7.64111L14.6354 7.46164L14.3833 7.64111L14.4792 7.34914L14.2245 7.16968H14.5422L14.6354 6.87771ZM16.4133 6.87771L16.5092 7.16968H16.8242L16.5694 7.34914L16.6653 7.64111L16.4133 7.46164L16.1585 7.64111L16.2544 7.34914L16.0024 7.16968H16.3147L16.4133 6.87771ZM13.7478 7.61432L13.8437 7.90896H14.1587L13.9039 8.08843L14.0026 8.38039L13.7478 8.19825L13.493 8.38039L13.5916 8.08575L13.3369 7.90628H13.6492L13.7478 7.61432ZM15.523 7.61432L15.6216 7.90896H15.9339L15.6818 8.08843L15.7777 8.38039L15.523 8.19825L15.2709 8.38039L15.3668 8.08575L15.1148 7.90628H15.4271L15.523 7.61432ZM17.3009 7.61432L17.3967 7.90896H17.7118L17.457 8.08843L17.5556 8.38039L17.3009 8.19825L17.0461 8.38039L17.1447 8.08575L16.8899 7.90628H17.205L17.3009 7.61432ZM12.8602 8.35361L12.9561 8.64557H13.2711L13.0164 8.82503L13.1122 9.11968L12.8602 8.93753L12.6054 9.117L12.7013 8.82503L12.4493 8.64557H12.7616L12.8602 8.35361ZM14.6354 8.35361L14.734 8.64557H15.0463L14.7943 8.82503L14.8901 9.11968L14.6354 8.93753L14.3833 9.117L14.4792 8.82503L14.2245 8.64557H14.5422L14.6354 8.35361ZM16.4133 8.35361L16.5092 8.64557H16.8242L16.5694 8.82503L16.6653 9.11968L16.4133 8.93753L16.1585 9.117L16.2544 8.82503L16.0024 8.64557H16.3147L16.4133 8.35361ZM11.9699 9.09289L12.0685 9.38485H12.3781L12.126 9.56432L12.2219 9.85896L11.9671 9.67682L11.7151 9.85628L11.811 9.56432L11.5562 9.38485H11.8713L11.9699 9.09289ZM13.7478 9.09289L13.8437 9.38485H14.1587L13.9039 9.56432L14.0026 9.85896L13.7478 9.67682L13.493 9.85628L13.5916 9.56432L13.3369 9.38485H13.6492L13.7478 9.09289ZM15.523 9.09289L15.6216 9.38485H15.9339L15.6818 9.56432L15.7777 9.85896L15.523 9.67682L15.2709 9.85628L15.3668 9.56432L15.1148 9.38485H15.4271L15.523 9.09289ZM17.3009 9.09289L17.3967 9.38485H17.7118L17.457 9.56432L17.5556 9.85896L17.3009 9.67682L17.0461 9.85628L17.1447 9.56432L16.8899 9.38485H17.205L17.3009 9.09289ZM12.8602 9.83218L12.9561 10.1241H13.2711L13.0164 10.3036L13.1122 10.5956L12.8602 10.4134L12.6054 10.5956L12.7013 10.3009L12.4493 10.1215H12.7616L12.8602 9.83218ZM14.6354 9.83218L14.734 10.1241H15.0463L14.7943 10.3036L14.8901 10.5956L14.6354 10.4134L14.3833 10.5956L14.4792 10.3009L14.2245 10.1215H14.5422L14.6354 9.83218ZM16.4133 9.83218L16.5092 10.1241H16.8242L16.5694 10.3036L16.6653 10.5956L16.4133 10.4134L16.1585 10.5956L16.2544 10.3009L16.0024 10.1215H16.3147L16.4133 9.83218ZM11.9699 10.5688L12.0685 10.8634H12.3781L12.126 11.0429L12.2219 11.3322L11.9671 11.1527L11.7151 11.3322L11.811 11.0402L11.5562 10.8607H11.8713L11.9699 10.5688ZM13.7478 10.5688L13.8437 10.8634H14.1587L13.9039 11.0429L14.0026 11.3322L13.7478 11.1527L13.493 11.3322L13.5916 11.0402L13.3369 10.8607H13.6492L13.7478 10.5688ZM15.523 10.5688L15.6216 10.8634H15.9339L15.6818 11.0429L15.7777 11.3322L15.523 11.1527L15.2709 11.3322L15.3668 11.0402L15.1148 10.8607H15.4271L15.523 10.5688ZM17.3009 10.5688L17.3967 10.8634H17.7118L17.457 11.0429L17.5556 11.3322L17.3009 11.1527L17.0461 11.3322L17.1447 11.0402L16.8899 10.8607H17.205L17.3009 10.5688ZM11.0823 11.3081L11.1809 11.6H11.4932L11.2385 11.7795L11.3371 12.0741L11.0823 11.892L10.8275 12.0715L10.9262 11.7795L10.6714 11.6H10.9864L11.0823 11.3081ZM12.8602 11.3081L12.9561 11.6H13.2711L13.0164 11.7795L13.1122 12.0741L12.8602 11.892L12.6054 12.0715L12.7013 11.7795L12.4493 11.6H12.7616L12.8602 11.3081ZM14.6354 11.3081L14.734 11.6H15.0463L14.7943 11.7795L14.8901 12.0741L14.6354 11.892L14.3833 12.0715L14.4792 11.7795L14.2245 11.6H14.5422L14.6354 11.3081ZM16.4133 11.3081L16.5092 11.6H16.8242L16.5694 11.7795L16.6653 12.0741L16.4133 11.892L16.1585 12.0715L16.2544 11.7795L16.0024 11.6H16.3147L16.4133 11.3081ZM11.9699 12.0474L12.0685 12.3393H12.3781L12.1315 12.5188L12.2274 12.8107L11.9726 12.6313L11.7206 12.8107L11.8165 12.5161L11.5617 12.3366H11.8767L11.9699 12.0474ZM13.7478 12.0474L13.8437 12.3393H14.1587L13.9039 12.5188L14.0026 12.8107L13.7478 12.6313L13.493 12.8107L13.5916 12.5161L13.3369 12.3366H13.6492L13.7478 12.0474ZM15.523 12.0474L15.6216 12.3393H15.9339L15.6818 12.5188L15.7777 12.8107L15.523 12.6313L15.2709 12.8107L15.3668 12.5161L15.1148 12.3366H15.4271L15.523 12.0474ZM17.3009 12.0474L17.3967 12.3393H17.7118L17.457 12.5188L17.5556 12.8107L17.3009 12.6313L17.0461 12.8107L17.1447 12.5161L16.8899 12.3366H17.205L17.3009 12.0474Z" fill-rule="evenodd"/>
<g clip-path="url(#clip1_15237_136008)">
<path fill="#008DE4" d="M13.6422 14.6517C12.7267 18.324 9.00719 20.559 5.33439 19.6432C1.66314 18.7277 -0.571785 15.0079 0.344152 11.3359C1.25928 7.66311 4.97879 5.42802 8.65044 6.34355C12.323 7.25909 14.5578 10.9792 13.6421 14.6518L13.6422 14.6517H13.6422Z"/>
<g clip-path="url(#clip2_15237_136008)">
<path fill="white" d="M8.2017 9.86157H5.3621L5.12661 11.163L7.68969 11.166C8.95224 11.166 9.32448 11.6199 9.31384 12.3713C9.30776 12.756 9.13912 13.4082 9.06619 13.6201C8.87172 14.1837 8.47214 14.8254 6.97409 14.8239L4.48242 14.8224L4.24768 16.1253H7.08121C8.08092 16.1253 8.50481 16.0096 8.95604 15.8052C9.95423 15.3469 10.5483 14.3731 10.7868 13.1017C11.1401 11.2081 10.6995 9.86157 8.2017 9.86157Z"/>
<path fill="white" d="M4.13679 12.3397C3.39232 12.3397 3.28597 12.8191 3.21608 13.1092C3.1234 13.4879 3.09302 13.6427 3.09302 13.6427H6.00099C6.74545 13.6427 6.85181 13.1633 6.92169 12.8732C7.01437 12.4945 7.04476 12.3397 7.04476 12.3397H4.13679Z"/>
</g>
</g>
</g>
<defs>
<clipPath id="clip0_15237_136008">
<rect fill="white" width="24" height="24" transform="translate(0.138855 0.680176)"/>
</clipPath>
<clipPath id="clip1_15237_136008">
<rect fill="white" width="13.7085" height="13.71" transform="translate(0.138855 6.13843)"/>
</clipPath>
<clipPath id="clip2_15237_136008">
<rect fill="white" width="7.80017" height="6.26377" transform="translate(3.09302 9.86157)"/>
</clipPath>
</defs>
<metadata symbolName="DASHUSD" fileName="dashusd.svg" id="grimlock-metadata-id" lastUpdate="2025-02-10T09:58:22.589475753" symbolId="1423"/></svg>