<?xml version="1.0" encoding="UTF-8" standalone="no"?><svg xmlns="http://www.w3.org/2000/svg" xmlns:xlink="http://www.w3.org/1999/xlink" contentScriptType="text/ecmascript" fill="none" width="25" zoomAndPan="magnify" contentStyleType="text/css" viewBox="0 0 25 25" height="25" preserveAspectRatio="xMidYMid meet" version="1.0">
<g clip-path="url(#clip0_15237_136842)">
<circle fill="#BD3D44" r="6.85714" cx="17.2817" cy="12.1079"/>
<path fill="white" clip-rule="evenodd" d="M13.5872 6.32776C13.1328 6.61856 12.7148 6.96149 12.3419 7.34813H22.214C21.841 6.96149 21.4231 6.61856 20.9686 6.32776H13.5872ZM10.9155 9.54587C11.0706 9.16105 11.2596 8.79354 11.4788 8.44703H23.0771C23.2963 8.79354 23.4853 9.16105 23.6404 9.54587H10.9155ZM10.5772 10.6448C10.5106 10.9516 10.4644 11.2661 10.4403 11.5867H24.1156C24.0915 11.2661 24.0453 10.9516 23.9786 10.6448H10.5772ZM10.5897 13.6275C10.5158 13.3008 10.4652 12.9653 10.4398 12.6228H24.116C24.0906 12.9653 24.04 13.3008 23.9661 13.6275H10.5897ZM10.9384 14.7264C11.0978 15.1117 11.2911 15.4792 11.5149 15.8254H23.041C23.2647 15.4792 23.4581 15.1117 23.6174 14.7264H10.9384ZM13.5527 17.866C13.1337 17.5943 12.7462 17.2782 12.397 16.9243H22.1589C21.8096 17.2782 21.4221 17.5943 21.0031 17.866H13.5527ZM17.2177 18.9649C17.2377 18.965 17.2578 18.9651 17.2779 18.9651C17.298 18.9651 17.3181 18.965 17.3382 18.9649H17.2177Z" fill-rule="evenodd"/>
<path fill="#00418E" clip-rule="evenodd" d="M10.4441 12.6291C10.4311 12.457 10.4246 12.2832 10.4246 12.1079C10.4246 8.32078 13.4946 5.25073 17.2817 5.25073C17.5644 5.25073 17.8431 5.26784 18.1169 5.30108V12.6291H10.4441Z" fill-rule="evenodd"/>
<path fill="white" clip-rule="evenodd" d="M13.9355 6.13179C13.896 6.15411 13.8567 6.17681 13.8176 6.19988L14.0026 6.33211L13.9355 6.13179ZM13.2189 6.59729C13.0803 6.7001 12.9458 6.80801 12.8155 6.92075L12.8602 6.88925L13.1122 7.06872L13.0164 6.77675L13.2711 6.59729H13.2189ZM12.1481 7.58311C12.1171 7.6183 12.0866 7.65381 12.0563 7.68963L12.2219 7.808L12.1481 7.58311ZM10.9368 9.54907C10.9172 9.59771 10.8981 9.64661 10.8797 9.69579L10.9262 9.72854L10.8275 10.0232L11.0823 9.84104L11.3371 10.0232L11.2385 9.73122L11.4932 9.55175H11.1809L11.0823 9.25979L10.9864 9.54907H10.9368ZM15.523 5.56604L15.6216 5.858H15.9339L15.6818 6.03747L15.7777 6.33211L15.523 6.14997L15.2709 6.32943L15.3668 6.03747L15.1148 5.858H15.4271L15.523 5.56604ZM17.3009 5.56604L17.3967 5.858H17.7118L17.457 6.03747L17.5556 6.33211L17.3009 6.14997L17.0461 6.32943L17.1447 6.03747L16.8899 5.858H17.205L17.3009 5.56604ZM14.6354 6.30533L14.734 6.59729H15.0463L14.7915 6.77675L14.8901 7.06872L14.6354 6.88925L14.3833 7.06872L14.4792 6.77675L14.2245 6.59729H14.5422L14.6354 6.30533ZM16.4133 6.30533L16.5092 6.59729H16.8242L16.5694 6.77675L16.6653 7.06872L16.4133 6.88925L16.1585 7.06872L16.2544 6.77675L16.0024 6.59729H16.3147L16.4133 6.30533ZM13.7478 7.04193L13.8437 7.33657H14.1587L13.9039 7.51604L14.0026 7.808L13.7478 7.62586L13.493 7.808L13.5916 7.51336L13.3369 7.3339H13.6492L13.7478 7.04193ZM15.523 7.04193L15.6216 7.33657H15.9339L15.6818 7.51604L15.7777 7.808L15.523 7.62586L15.2709 7.808L15.3668 7.51336L15.1148 7.3339H15.4271L15.523 7.04193ZM17.3009 7.04193L17.3967 7.33657H17.7118L17.457 7.51604L17.5556 7.808L17.3009 7.62586L17.0461 7.808L17.1447 7.51336L16.8899 7.3339H17.205L17.3009 7.04193ZM12.8602 7.78122L12.9561 8.07318H13.2711L13.0164 8.25265L13.1122 8.54729L12.8602 8.36515L12.6054 8.54461L12.7013 8.25265L12.4493 8.07318H12.7616L12.8602 7.78122ZM14.6354 7.78122L14.734 8.07318H15.0463L14.7943 8.25265L14.8901 8.54729L14.6354 8.36515L14.3833 8.54461L14.4792 8.25265L14.2245 8.07318H14.5422L14.6354 7.78122ZM16.4133 7.78122L16.5092 8.07318H16.8242L16.5694 8.25265L16.6653 8.54729L16.4133 8.36515L16.1585 8.54461L16.2544 8.25265L16.0024 8.07318H16.3147L16.4133 7.78122ZM11.9699 8.5205L12.0685 8.81247H12.3781L12.126 8.99193L12.2219 9.28657L11.9671 9.10443L11.7151 9.2839L11.811 8.99193L11.5562 8.81247H11.8713L11.9699 8.5205ZM13.7478 8.5205L13.8437 8.81247H14.1587L13.9039 8.99193L14.0026 9.28657L13.7478 9.10443L13.493 9.2839L13.5916 8.99193L13.3369 8.81247H13.6492L13.7478 8.5205ZM15.523 8.5205L15.6216 8.81247H15.9339L15.6818 8.99193L15.7777 9.28657L15.523 9.10443L15.2709 9.2839L15.3668 8.99193L15.1148 8.81247H15.4271L15.523 8.5205ZM17.3009 8.5205L17.3967 8.81247H17.7118L17.457 8.99193L17.5556 9.28657L17.3009 9.10443L17.0461 9.2839L17.1447 8.99193L16.8899 8.81247H17.205L17.3009 8.5205ZM12.8602 9.25979L12.9561 9.55175H13.2711L13.0164 9.73122L13.1122 10.0232L12.8602 9.84104L12.6054 10.0232L12.7013 9.72854L12.4493 9.54907H12.7616L12.8602 9.25979ZM14.6354 9.25979L14.734 9.55175H15.0463L14.7943 9.73122L14.8901 10.0232L14.6354 9.84104L14.3833 10.0232L14.4792 9.72854L14.2245 9.54907H14.5422L14.6354 9.25979ZM16.4133 9.25979L16.5092 9.55175H16.8242L16.5694 9.73122L16.6653 10.0232L16.4133 9.84104L16.1585 10.0232L16.2544 9.72854L16.0024 9.54907H16.3147L16.4133 9.25979ZM11.9699 9.99639L12.0685 10.291H12.3781L12.126 10.4705L12.2219 10.7598L11.9671 10.5803L11.7151 10.7598L11.811 10.4678L11.5562 10.2884H11.8713L11.9699 9.99639ZM13.7478 9.99639L13.8437 10.291H14.1587L13.9039 10.4705L14.0026 10.7598L13.7478 10.5803L13.493 10.7598L13.5916 10.4678L13.3369 10.2884H13.6492L13.7478 9.99639ZM15.523 9.99639L15.6216 10.291H15.9339L15.6818 10.4705L15.7777 10.7598L15.523 10.5803L15.2709 10.7598L15.3668 10.4678L15.1148 10.2884H15.4271L15.523 9.99639ZM17.3009 9.99639L17.3967 10.291H17.7118L17.457 10.4705L17.5556 10.7598L17.3009 10.5803L17.0461 10.7598L17.1447 10.4678L16.8899 10.2884H17.205L17.3009 9.99639ZM11.0823 10.7357L11.1809 11.0276H11.4932L11.2385 11.2071L11.3371 11.5018L11.0823 11.3196L10.8275 11.4991L10.9262 11.2071L10.6714 11.0276H10.9864L11.0823 10.7357ZM12.8602 10.7357L12.9561 11.0276H13.2711L13.0164 11.2071L13.1122 11.5018L12.8602 11.3196L12.6054 11.4991L12.7013 11.2071L12.4493 11.0276H12.7616L12.8602 10.7357ZM14.6354 10.7357L14.734 11.0276H15.0463L14.7943 11.2071L14.8901 11.5018L14.6354 11.3196L14.3833 11.4991L14.4792 11.2071L14.2245 11.0276H14.5422L14.6354 10.7357ZM16.4133 10.7357L16.5092 11.0276H16.8242L16.5694 11.2071L16.6653 11.5018L16.4133 11.3196L16.1585 11.4991L16.2544 11.2071L16.0024 11.0276H16.3147L16.4133 10.7357ZM11.9699 11.475L12.0685 11.7669H12.3781L12.1315 11.9464L12.2274 12.2384L11.9726 12.0589L11.7206 12.2384L11.8165 11.9437L11.5617 11.7643H11.8767L11.9699 11.475ZM13.7478 11.475L13.8437 11.7669H14.1587L13.9039 11.9464L14.0026 12.2384L13.7478 12.0589L13.493 12.2384L13.5916 11.9437L13.3369 11.7643H13.6492L13.7478 11.475ZM15.523 11.475L15.6216 11.7669H15.9339L15.6818 11.9464L15.7777 12.2384L15.523 12.0589L15.2709 12.2384L15.3668 11.9437L15.1148 11.7643H15.4271L15.523 11.475ZM17.3009 11.475L17.3967 11.7669H17.7118L17.457 11.9464L17.5556 12.2384L17.3009 12.0589L17.0461 12.2384L17.1447 11.9437L16.8899 11.7643H17.205L17.3009 11.475Z" fill-rule="evenodd"/>
<g clip-path="url(#clip1_15237_136842)">
<path fill="#559A46" d="M13.6422 14.0794C12.7267 17.7518 9.00719 19.9867 5.33439 19.0709C1.66314 18.1554 -0.571785 14.4357 0.344152 10.7636C1.25928 7.09084 4.97879 4.85575 8.65044 5.77129C12.323 6.68682 14.5578 10.407 13.6421 14.0795L13.6422 14.0794H13.6422Z"/>
<path fill="#B3CCB0" d="M6.99222 7.28052L6.9267 7.51482V14.313L6.99222 14.3818L9.98999 12.5165L6.99222 7.28052Z"/>
<path fill="white" d="M6.99223 7.28052L3.99438 12.5165L6.99223 14.3818V11.0822V7.28052Z"/>
<path fill="#B3CCB0" d="M6.99225 14.9793L6.95532 15.0267V17.4483L6.99225 17.5618L9.99186 13.115L6.99225 14.9793Z"/>
<path fill="white" d="M6.99223 17.5618V14.9793L3.99438 13.115L6.99223 17.5618Z"/>
<path fill="#6A9A62" d="M6.99225 14.3818L9.99002 12.5165L6.99225 11.0822V14.3818Z"/>
<path fill="#B3CCB0" d="M3.99438 12.5165L6.99223 14.3818V11.0822L3.99438 12.5165Z"/>
</g>
</g>
<defs>
<clipPath id="clip0_15237_136842">
<rect fill="white" width="24" height="24" transform="translate(0.138855 0.10791)"/>
</clipPath>
<clipPath id="clip1_15237_136842">
<rect fill="white" width="13.7085" height="13.71" transform="translate(0.138855 5.56616)"/>
</clipPath>
</defs>
<metadata symbolName="ETCUSD" fileName="etcusd.svg" id="grimlock-metadata-id" lastUpdate="2025-02-10T09:58:22.589522856" symbolId="1429"/></svg>