<?xml version="1.0" encoding="UTF-8" standalone="no"?><svg xmlns="http://www.w3.org/2000/svg" xmlns:xlink="http://www.w3.org/1999/xlink" contentScriptType="text/ecmascript" fill="none" width="25" zoomAndPan="magnify" contentStyleType="text/css" viewBox="0 0 25 25" height="25" preserveAspectRatio="xMidYMid meet" version="1.0">
<g clip-path="url(#clip0_15237_136935)">
<circle fill="#BD3D44" r="6.85714" cx="17.2817" cy="12.5737"/>
<path fill="white" clip-rule="evenodd" d="M13.5872 6.79358C13.1328 7.08438 12.7148 7.42732 12.3419 7.81395H22.214C21.841 7.42732 21.4231 7.08438 20.9686 6.79358H13.5872ZM10.9155 10.0117C11.0706 9.62687 11.2596 9.25936 11.4788 8.91285H23.0771C23.2963 9.25936 23.4853 9.62687 23.6404 10.0117H10.9155ZM10.5772 11.1106C10.5106 11.4174 10.4644 11.7319 10.4403 12.0525H24.1156C24.0915 11.7319 24.0453 11.4174 23.9786 11.1106H10.5772ZM10.5897 14.0933C10.5158 13.7666 10.4652 13.4311 10.4398 13.0886H24.116C24.0906 13.4311 24.04 13.7666 23.9661 14.0933H10.5897ZM10.9384 15.1922C11.0978 15.5775 11.2911 15.9451 11.5149 16.2912H23.041C23.2647 15.9451 23.4581 15.5775 23.6174 15.1922H10.9384ZM13.5527 18.3318C13.1337 18.0601 12.7462 17.744 12.397 17.3901H22.1589C21.8096 17.744 21.4221 18.0601 21.0031 18.3318H13.5527ZM17.2177 19.4307C17.2377 19.4309 17.2578 19.4309 17.2779 19.4309C17.298 19.4309 17.3181 19.4309 17.3382 19.4307H17.2177Z" fill-rule="evenodd"/>
<path fill="#00418E" clip-rule="evenodd" d="M10.4441 13.0949C10.4311 12.9229 10.4246 12.749 10.4246 12.5737C10.4246 8.7866 13.4946 5.71655 17.2817 5.71655C17.5644 5.71655 17.8431 5.73366 18.1169 5.7669V13.0949H10.4441Z" fill-rule="evenodd"/>
<path fill="white" clip-rule="evenodd" d="M13.9355 6.59761C13.896 6.61993 13.8567 6.64263 13.8176 6.6657L14.0026 6.79793L13.9355 6.59761ZM13.2189 7.06311C13.0803 7.16592 12.9458 7.27383 12.8155 7.38657L12.8602 7.35507L13.1122 7.53454L13.0164 7.24257L13.2711 7.06311H13.2189ZM12.1481 8.04893C12.1171 8.08412 12.0866 8.11963 12.0563 8.15545L12.2219 8.27382L12.1481 8.04893ZM10.9368 10.0149C10.9172 10.0635 10.8981 10.1124 10.8797 10.1616L10.9262 10.1944L10.8275 10.489L11.0823 10.3069L11.3371 10.489L11.2385 10.197L11.4932 10.0176H11.1809L11.0823 9.72561L10.9864 10.0149H10.9368ZM15.523 6.03186L15.6216 6.32382H15.9339L15.6818 6.50329L15.7777 6.79793L15.523 6.61579L15.2709 6.79525L15.3668 6.50329L15.1148 6.32382H15.4271L15.523 6.03186ZM17.3009 6.03186L17.3967 6.32382H17.7118L17.457 6.50329L17.5556 6.79793L17.3009 6.61579L17.0461 6.79525L17.1447 6.50329L16.8899 6.32382H17.205L17.3009 6.03186ZM14.6354 6.77115L14.734 7.06311H15.0463L14.7915 7.24257L14.8901 7.53454L14.6354 7.35507L14.3833 7.53454L14.4792 7.24257L14.2245 7.06311H14.5422L14.6354 6.77115ZM16.4133 6.77115L16.5092 7.06311H16.8242L16.5694 7.24257L16.6653 7.53454L16.4133 7.35507L16.1585 7.53454L16.2544 7.24257L16.0024 7.06311H16.3147L16.4133 6.77115ZM13.7478 7.50775L13.8437 7.8024H14.1587L13.9039 7.98186L14.0026 8.27382L13.7478 8.09168L13.493 8.27382L13.5916 7.97918L13.3369 7.79972H13.6492L13.7478 7.50775ZM15.523 7.50775L15.6216 7.8024H15.9339L15.6818 7.98186L15.7777 8.27382L15.523 8.09168L15.2709 8.27382L15.3668 7.97918L15.1148 7.79972H15.4271L15.523 7.50775ZM17.3009 7.50775L17.3967 7.8024H17.7118L17.457 7.98186L17.5556 8.27382L17.3009 8.09168L17.0461 8.27382L17.1447 7.97918L16.8899 7.79972H17.205L17.3009 7.50775ZM12.8602 8.24704L12.9561 8.539H13.2711L13.0164 8.71847L13.1122 9.01311L12.8602 8.83097L12.6054 9.01043L12.7013 8.71847L12.4493 8.539H12.7616L12.8602 8.24704ZM14.6354 8.24704L14.734 8.539H15.0463L14.7943 8.71847L14.8901 9.01311L14.6354 8.83097L14.3833 9.01043L14.4792 8.71847L14.2245 8.539H14.5422L14.6354 8.24704ZM16.4133 8.24704L16.5092 8.539H16.8242L16.5694 8.71847L16.6653 9.01311L16.4133 8.83097L16.1585 9.01043L16.2544 8.71847L16.0024 8.539H16.3147L16.4133 8.24704ZM11.9699 8.98632L12.0685 9.27829H12.3781L12.126 9.45775L12.2219 9.75239L11.9671 9.57025L11.7151 9.74972L11.811 9.45775L11.5562 9.27829H11.8713L11.9699 8.98632ZM13.7478 8.98632L13.8437 9.27829H14.1587L13.9039 9.45775L14.0026 9.75239L13.7478 9.57025L13.493 9.74972L13.5916 9.45775L13.3369 9.27829H13.6492L13.7478 8.98632ZM15.523 8.98632L15.6216 9.27829H15.9339L15.6818 9.45775L15.7777 9.75239L15.523 9.57025L15.2709 9.74972L15.3668 9.45775L15.1148 9.27829H15.4271L15.523 8.98632ZM17.3009 8.98632L17.3967 9.27829H17.7118L17.457 9.45775L17.5556 9.75239L17.3009 9.57025L17.0461 9.74972L17.1447 9.45775L16.8899 9.27829H17.205L17.3009 8.98632ZM12.8602 9.72561L12.9561 10.0176H13.2711L13.0164 10.197L13.1122 10.489L12.8602 10.3069L12.6054 10.489L12.7013 10.1944L12.4493 10.0149H12.7616L12.8602 9.72561ZM14.6354 9.72561L14.734 10.0176H15.0463L14.7943 10.197L14.8901 10.489L14.6354 10.3069L14.3833 10.489L14.4792 10.1944L14.2245 10.0149H14.5422L14.6354 9.72561ZM16.4133 9.72561L16.5092 10.0176H16.8242L16.5694 10.197L16.6653 10.489L16.4133 10.3069L16.1585 10.489L16.2544 10.1944L16.0024 10.0149H16.3147L16.4133 9.72561ZM11.9699 10.4622L12.0685 10.7569H12.3781L12.126 10.9363L12.2219 11.2256L11.9671 11.0461L11.7151 11.2256L11.811 10.9336L11.5562 10.7542H11.8713L11.9699 10.4622ZM13.7478 10.4622L13.8437 10.7569H14.1587L13.9039 10.9363L14.0026 11.2256L13.7478 11.0461L13.493 11.2256L13.5916 10.9336L13.3369 10.7542H13.6492L13.7478 10.4622ZM15.523 10.4622L15.6216 10.7569H15.9339L15.6818 10.9363L15.7777 11.2256L15.523 11.0461L15.2709 11.2256L15.3668 10.9336L15.1148 10.7542H15.4271L15.523 10.4622ZM17.3009 10.4622L17.3967 10.7569H17.7118L17.457 10.9363L17.5556 11.2256L17.3009 11.0461L17.0461 11.2256L17.1447 10.9336L16.8899 10.7542H17.205L17.3009 10.4622ZM11.0823 11.2015L11.1809 11.4935H11.4932L11.2385 11.6729L11.3371 11.9676L11.0823 11.7854L10.8275 11.9649L10.9262 11.6729L10.6714 11.4935H10.9864L11.0823 11.2015ZM12.8602 11.2015L12.9561 11.4935H13.2711L13.0164 11.6729L13.1122 11.9676L12.8602 11.7854L12.6054 11.9649L12.7013 11.6729L12.4493 11.4935H12.7616L12.8602 11.2015ZM14.6354 11.2015L14.734 11.4935H15.0463L14.7943 11.6729L14.8901 11.9676L14.6354 11.7854L14.3833 11.9649L14.4792 11.6729L14.2245 11.4935H14.5422L14.6354 11.2015ZM16.4133 11.2015L16.5092 11.4935H16.8242L16.5694 11.6729L16.6653 11.9676L16.4133 11.7854L16.1585 11.9649L16.2544 11.6729L16.0024 11.4935H16.3147L16.4133 11.2015ZM11.9699 11.9408L12.0685 12.2327H12.3781L12.1315 12.4122L12.2274 12.7042L11.9726 12.5247L11.7206 12.7042L11.8165 12.4095L11.5617 12.2301H11.8767L11.9699 11.9408ZM13.7478 11.9408L13.8437 12.2327H14.1587L13.9039 12.4122L14.0026 12.7042L13.7478 12.5247L13.493 12.7042L13.5916 12.4095L13.3369 12.2301H13.6492L13.7478 11.9408ZM15.523 11.9408L15.6216 12.2327H15.9339L15.6818 12.4122L15.7777 12.7042L15.523 12.5247L15.2709 12.7042L15.3668 12.4095L15.1148 12.2301H15.4271L15.523 11.9408ZM17.3009 11.9408L17.3967 12.2327H17.7118L17.457 12.4122L17.5556 12.7042L17.3009 12.5247L17.0461 12.7042L17.1447 12.4095L16.8899 12.2301H17.205L17.3009 11.9408Z" fill-rule="evenodd"/>
<g clip-path="url(#clip1_15237_136935)">
<path fill="#6D81E4" d="M13.6422 14.5452C12.7267 18.2176 9.00719 20.4525 5.33439 19.5368C1.66314 18.6212 -0.571785 14.9015 0.344152 11.2294C1.25928 7.55666 4.97879 5.32157 8.65044 6.23711C12.323 7.15264 14.5578 10.8728 13.6421 14.5453L13.6422 14.5452H13.6422Z"/>
<path fill="#F7931A" clip-rule="evenodd" d="M7.1361 19.729C10.1535 19.6678 12.8772 17.6025 13.642 14.533C14.5579 10.8609 12.323 7.14117 8.65175 6.22563C8.14493 6.09926 7.63721 6.03289 7.1361 6.02201L7.1361 19.729Z" fill-rule="evenodd"/>
<path fill="#C5CEF4" d="M4.02838 9.09485L3.98004 9.26768V14.2825L4.02838 14.3333L6.23976 12.9573L4.02838 9.09485Z"/>
<path fill="white" d="M4.02839 9.09485L1.81696 12.9573L4.02839 14.3333V11.8992V9.09485Z"/>
<path fill="#C5CEF4" d="M4.0284 14.7741L4.00116 14.809V16.5954L4.0284 16.6791L6.24114 13.3988L4.0284 14.7741Z"/>
<path fill="white" d="M4.02839 16.6791V14.7741L1.81696 13.3988L4.02839 16.6791Z"/>
<path fill="#8999E9" d="M4.02838 14.3332L6.23976 12.9573L4.02838 11.8992V14.3332Z"/>
<path fill="#C5CEF4" d="M1.81696 12.9573L4.02839 14.3332V11.8992L1.81696 12.9573Z"/>
<path fill="white" d="M12.5695 12.266C12.6691 11.6 12.1621 11.242 11.4688 11.0032L11.6937 10.1012L11.1446 9.96433L10.9256 10.8427C10.7813 10.8067 10.633 10.7727 10.4857 10.7391L10.7062 9.85497L10.1574 9.71814L9.9324 10.6199C9.81294 10.5927 9.6956 10.5658 9.58177 10.5375L9.5824 10.5347L8.82515 10.3456L8.67908 10.9321C8.67908 10.9321 9.08648 11.0255 9.07789 11.0312C9.30026 11.0867 9.34047 11.2339 9.33379 11.3506L9.0776 12.3783L9.13469 12.3966C9.13469 12.3966 9.09688 12.3871 9.07665 12.3822L8.71755 13.8219C8.69038 13.8894 8.6214 13.9908 8.46593 13.9523C8.47144 13.9603 8.06682 13.8527 8.06682 13.8527L7.79419 14.4813L8.50879 14.6594C8.64173 14.6928 8.772 14.7277 8.90029 14.7605L8.67306 15.6729L9.22155 15.8097L9.44658 14.907C9.59642 14.9476 9.74183 14.9852 9.88419 15.0205L9.65992 15.919L10.2091 16.0558L10.4363 15.1451C11.3726 15.3223 12.0767 15.2509 12.3731 14.4039C12.6119 13.7221 12.3612 13.3287 11.8686 13.0723C12.2274 12.9895 12.4974 12.7534 12.5695 12.266ZM11.3149 14.0253C11.1452 14.7072 9.99707 14.3385 9.62484 14.2461L9.92638 13.0373C10.2986 13.1302 11.4922 13.3141 11.3149 14.0253ZM11.4847 12.2561C11.3299 12.8763 10.3743 12.5612 10.0643 12.4839L10.3377 11.3876C10.6477 11.4649 11.6459 11.6091 11.4847 12.2561Z"/>
</g>
</g>
<defs>
<clipPath id="clip0_15237_136935">
<rect fill="white" width="24" height="24" transform="translate(0.138855 0.57373)"/>
</clipPath>
<clipPath id="clip1_15237_136935">
<rect fill="white" width="13.7085" height="13.71" transform="translate(0.138855 6.03198)"/>
</clipPath>
</defs>
<metadata symbolName="ETHBTC" fileName="ethbtc.svg" id="grimlock-metadata-id" lastUpdate="2025-02-10T09:58:22.589528336" symbolId="1430"/></svg>