<?xml version="1.0" encoding="UTF-8" standalone="no"?><svg xmlns="http://www.w3.org/2000/svg" xmlns:xlink="http://www.w3.org/1999/xlink" contentScriptType="text/ecmascript" fill="none" width="25" zoomAndPan="magnify" contentStyleType="text/css" viewBox="0 0 25 25" height="25" preserveAspectRatio="xMidYMid meet" version="1.0">
<g clip-path="url(#clip0_15237_137016)">
<path fill="#0052B4" d="M24.1388 12.1621C24.1388 15.9489 21.0685 19.0192 17.2817 19.0192C13.4945 19.0192 10.4246 15.9492 10.4246 12.1621C10.4246 8.37491 13.4945 5.30493 17.2817 5.30493C21.0689 5.30493 24.1388 8.37491 24.1388 12.1621Z"/>
<path fill="#FFDA44" d="M13.1076 12.1621L13.791 11.9401V11.2216L14.2132 11.8028L14.8966 11.5808L14.4743 12.1621L14.8966 12.7433L14.2132 12.5213L13.791 13.1026V12.3841L13.1076 12.1621Z"/>
<path fill="#FFDA44" d="M14.3305 15.1135L14.6566 14.4734L14.1487 13.9654L14.8582 14.0779L15.1843 13.4377L15.2968 14.1476L16.0063 14.2597L15.3661 14.5859L15.4783 15.2953L14.9703 14.7874L14.3305 15.1135Z"/>
<path fill="#FFDA44" d="M20.2333 15.1135L19.5931 14.7874L19.0848 15.2953L19.1973 14.5859L18.5571 14.2597L19.2666 14.1476L19.3788 13.4377L19.7049 14.0779L20.4144 13.9654L19.9065 14.4737L20.2333 15.1135Z"/>
<path fill="#FFDA44" d="M21.4555 12.1621L20.7721 12.3841V13.1026L20.3499 12.5213L19.6665 12.7433L20.0887 12.1621L19.6665 11.5808L20.3499 11.8028L20.7721 11.2216V11.9401L21.4555 12.1621Z"/>
<path fill="#FFDA44" d="M17.2815 7.98816L17.5035 8.67153H18.2217L17.6404 9.09374L17.8624 9.77711L17.2812 9.3549L16.6999 9.77711L16.9219 9.09374L16.3406 8.67153H17.0592L17.2815 7.98816Z"/>
<path fill="#FFDA44" d="M14.3302 9.21062L14.9703 9.53673L15.4783 9.02881L15.3661 9.73829L16.0063 10.0644L15.2968 10.1769L15.1843 10.8864L14.8582 10.2462L14.1487 10.3587L14.6566 9.85079L14.3302 9.21062Z"/>
<path fill="#FFDA44" d="M17.2816 16.3359L17.0596 15.6526H16.3411L16.9223 15.2304L16.7003 14.547L17.2816 14.9692L17.8628 14.547L17.6408 15.2304L18.2221 15.6526H17.5036L17.2816 16.3359Z"/>
<path fill="#FFDA44" d="M20.2331 9.21062L19.9069 9.85079L20.4149 10.3587L19.7054 10.2462L19.3793 10.8864L19.2671 10.1769L18.5576 10.0644L19.1978 9.73829L19.0853 9.02881L19.5936 9.53673L20.2331 9.21062Z"/>
<rect rx="6.35423" fill="white" x="0.638855" width="12.7085" height="12.71" y="5.80493"/>
<rect rx="6.35423" x="0.638855" width="12.7085" height="12.71" y="5.80493" stroke="#EEEEEE"/>
<path fill="#343434" d="M6.99222 7.01868L6.9267 7.253V14.0519L6.99222 14.1208L9.98999 12.2553L6.99222 7.01868Z"/>
<path fill="#8C8C8C" d="M6.99223 7.01868L3.99438 12.2553L6.99223 14.1208V10.8208V7.01868Z"/>
<path fill="#3C3C3B" d="M6.99225 14.7183L6.95532 14.7657V17.1876L6.99225 17.3011L9.99186 12.8538L6.99225 14.7183Z"/>
<path fill="#8C8C8C" d="M6.99223 17.3011V14.7183L3.99438 12.8538L6.99223 17.3011Z"/>
<path fill="#141414" d="M6.99225 14.1208L9.99002 12.2553L6.99225 10.8208V14.1208Z"/>
<path fill="#393939" d="M3.99438 12.2553L6.99223 14.1208V10.8208L3.99438 12.2553Z"/>
</g>
<defs>
<clipPath id="clip0_15237_137016">
<rect fill="white" width="24" height="24" transform="translate(0.138855 0.162109)"/>
</clipPath>
</defs>
<metadata symbolName="ETHEUR" fileName="etheur.svg" id="grimlock-metadata-id" lastUpdate="2025-02-10T09:58:22.589534506" symbolId="1431"/></svg>