<?xml version="1.0" encoding="UTF-8" standalone="no"?><svg xmlns="http://www.w3.org/2000/svg" xmlns:xlink="http://www.w3.org/1999/xlink" contentScriptType="text/ecmascript" fill="none" width="25" zoomAndPan="magnify" contentStyleType="text/css" viewBox="0 0 25 25" height="25" preserveAspectRatio="xMidYMid meet" version="1.0">
<g clip-path="url(#clip0_15237_137113)">
<path fill="white" d="M23.8304 12.3891C23.8304 16.176 20.7601 19.2463 16.9732 19.2463C13.1861 19.2463 10.1161 16.1763 10.1161 12.3891C10.1161 8.60196 13.1861 5.53198 16.9732 5.53198C20.7604 5.53198 23.8304 8.60196 23.8304 12.3891Z"/>
<path fill="#0052B4" d="M11.534 8.21423C10.9952 8.91501 10.5891 9.7226 10.3527 10.6002H13.9199L11.534 8.21423Z"/>
<path fill="#0052B4" d="M23.594 10.6005C23.3576 9.72297 22.9515 8.91538 22.4127 8.2146L20.0268 10.6005H23.594Z"/>
<path fill="#0052B4" d="M10.3522 14.1781C10.589 15.0557 10.9951 15.8633 11.5335 16.564L13.9194 14.1781H10.3522Z"/>
<path fill="#0052B4" d="M21.148 6.94956C20.4472 6.41083 19.6397 6.00503 18.7621 5.76831V9.3355L21.148 6.94956Z"/>
<path fill="#0052B4" d="M12.7982 17.8287C13.499 18.3674 14.3066 18.7736 15.1842 19.0099V15.4427L12.7982 17.8287Z"/>
<path fill="#0052B4" d="M15.1842 5.76807C14.3066 6.00479 13.499 6.41092 12.7982 6.94932L15.1842 9.33526V5.76807Z"/>
<path fill="#0052B4" d="M18.7621 19.0099C19.6397 18.7736 20.4472 18.3674 21.148 17.8287L18.7621 15.4427V19.0099Z"/>
<path fill="#0052B4" d="M20.0268 14.1781L22.4127 16.564C22.9515 15.8633 23.3573 15.0557 23.594 14.1781H20.0268Z"/>
<path fill="#D80027" d="M23.7724 11.4948H17.8675V5.58991C17.5749 5.55174 17.2762 5.53198 16.9732 5.53198C16.6702 5.53198 16.3716 5.55174 16.0786 5.58991V11.4945H10.174C10.1358 11.7875 10.1161 12.0861 10.1161 12.3891C10.1161 12.6921 10.1358 12.9908 10.174 13.2834H16.0786V19.1883C16.3716 19.2265 16.6699 19.2463 16.9732 19.2463C17.2762 19.2463 17.5749 19.2262 17.8675 19.1883V13.2834H23.7724C23.8106 12.9908 23.8304 12.6921 23.8304 12.3891C23.8304 12.0861 23.8103 11.7875 23.7724 11.4948Z"/>
<path fill="#D80027" d="M18.7621 14.1781L21.822 17.238C21.963 17.0974 22.0969 16.9504 22.2251 16.7977L19.6055 14.1781H18.7621Z"/>
<path fill="#D80027" d="M15.1845 14.1781L12.1246 17.238C12.2652 17.379 12.4122 17.5129 12.5649 17.6412L15.1845 15.0215V14.1781Z"/>
<path fill="#D80027" d="M15.1841 10.6006L12.1241 7.54028C11.9835 7.68091 11.8492 7.82789 11.721 7.98057L14.3407 10.6002H15.1841V10.6006Z"/>
<path fill="#D80027" d="M18.7621 10.6005L21.822 7.54058C21.6814 7.39995 21.5344 7.26569 21.3817 7.13745L18.7621 9.75743V10.6005Z"/>
<rect rx="6.35423" fill="white" x="0.507202" width="12.7085" height="12.71" y="5.80493"/>
<rect rx="6.35423" x="0.507202" width="12.7085" height="12.71" y="5.80493" stroke="#EEEEEE"/>
<path fill="#343434" d="M6.86057 7.01868L6.79504 7.253V14.0519L6.86057 14.1208L9.85834 12.2553L6.86057 7.01868Z"/>
<path fill="#8C8C8C" d="M6.86058 7.01868L3.86273 12.2553L6.86058 14.1208V10.8208V7.01868Z"/>
<path fill="#3C3C3B" d="M6.8606 14.7183L6.82367 14.7657V17.1876L6.8606 17.3011L9.86021 12.8538L6.8606 14.7183Z"/>
<path fill="#8C8C8C" d="M6.86058 17.3011V14.7183L3.86273 12.8538L6.86058 17.3011Z"/>
<path fill="#141414" d="M6.8606 14.1208L9.85837 12.2553L6.8606 10.8208V14.1208Z"/>
<path fill="#393939" d="M3.86273 12.2553L6.86058 14.1208V10.8208L3.86273 12.2553Z"/>
</g>
<defs>
<clipPath id="clip0_15237_137113">
<rect fill="white" width="24" height="24" transform="translate(0.116028 0.38916)"/>
</clipPath>
</defs>
<metadata symbolName="ETHGBP" fileName="ethgbp.svg" id="grimlock-metadata-id" lastUpdate="2025-02-10T09:58:22.589541777" symbolId="1432"/></svg>