<?xml version="1.0" encoding="UTF-8" standalone="no"?><svg xmlns="http://www.w3.org/2000/svg" xmlns:xlink="http://www.w3.org/1999/xlink" contentScriptType="text/ecmascript" fill="none" width="24" zoomAndPan="magnify" contentStyleType="text/css" viewBox="0 0 24 25" height="25" preserveAspectRatio="xMidYMid meet" version="1.0">
<g clip-path="url(#clip0_15237_137181)">
<circle fill="#BD3D44" r="6.85714" cx="17.1501" cy="12.6162"/>
<path fill="white" clip-rule="evenodd" d="M13.4556 6.83606C13.0011 7.12686 12.5832 7.4698 12.2103 7.85643H22.0823C21.7094 7.4698 21.2915 7.12686 20.837 6.83606H13.4556ZM10.7838 10.0542C10.9389 9.66936 11.1279 9.30184 11.3471 8.95533H22.9454C23.1646 9.30184 23.3536 9.66936 23.5087 10.0542H10.7838ZM10.4456 11.1531C10.3789 11.4599 10.3328 11.7744 10.3087 12.095H23.9839C23.9598 11.7744 23.9136 11.4599 23.847 11.1531H10.4456ZM10.4581 14.1358C10.3842 13.8091 10.3336 13.4736 10.3082 13.1311H23.9844C23.959 13.4736 23.9084 13.8091 23.8345 14.1358H10.4581ZM10.8068 15.2347C10.9661 15.62 11.1595 15.9875 11.3832 16.3337H22.9093C23.1331 15.9875 23.3265 15.62 23.4858 15.2347H10.8068ZM13.4211 18.3743C13.0021 18.1026 12.6146 17.7865 12.2653 17.4326H22.0272C21.678 17.7865 21.2905 18.1026 20.8715 18.3743H13.4211ZM17.086 19.4732C17.1061 19.4733 17.1262 19.4734 17.1463 19.4734C17.1664 19.4734 17.1865 19.4733 17.2066 19.4732H17.086Z" fill-rule="evenodd"/>
<path fill="#00418E" clip-rule="evenodd" d="M10.3124 13.1374C10.2995 12.9653 10.2929 12.7915 10.2929 12.6162C10.2929 8.82908 13.363 5.75903 17.1501 5.75903C17.4328 5.75903 17.7115 5.77614 17.9852 5.80938V13.1374H10.3124Z" fill-rule="evenodd"/>
<path fill="white" clip-rule="evenodd" d="M13.8039 6.64009C13.7643 6.66241 13.725 6.68511 13.6859 6.70818L13.8709 6.84041L13.8039 6.64009ZM13.0872 7.10559C12.9487 7.2084 12.8141 7.31631 12.6838 7.42905L12.7286 7.39755L12.9806 7.57702L12.8847 7.28505L13.1395 7.10559H13.0872ZM12.0164 8.09141C11.9855 8.1266 11.9549 8.16211 11.9247 8.19793L12.0903 8.3163L12.0164 8.09141ZM10.8051 10.0574C10.7855 10.106 10.7665 10.1549 10.748 10.2041L10.7945 10.2368L10.6959 10.5315L10.9507 10.3493L11.2054 10.5315L11.1068 10.2395L11.3616 10.0601H11.0493L10.9507 9.76809L10.8548 10.0574H10.8051ZM15.3913 6.07434L15.4899 6.36631H15.8022L15.5502 6.54577L15.6461 6.84041L15.3913 6.65827L15.1393 6.83773L15.2351 6.54577L14.9831 6.36631H15.2954L15.3913 6.07434ZM17.1692 6.07434L17.2651 6.36631H17.5801L17.3253 6.54577L17.424 6.84041L17.1692 6.65827L16.9144 6.83773L17.0131 6.54577L16.7583 6.36631H17.0733L17.1692 6.07434ZM14.5037 6.81363L14.6023 7.10559H14.9146L14.6599 7.28505L14.7585 7.57702L14.5037 7.39755L14.2517 7.57702L14.3476 7.28505L14.0928 7.10559H14.4106L14.5037 6.81363ZM16.2816 6.81363L16.3775 7.10559H16.6925L16.4378 7.28505L16.5336 7.57702L16.2816 7.39755L16.0269 7.57702L16.1227 7.28505L15.8707 7.10559H16.183L16.2816 6.81363ZM13.6161 7.55023L13.712 7.84488H14.0271L13.7723 8.02434L13.8709 8.3163L13.6161 8.13416L13.3614 8.3163L13.46 8.02166L13.2052 7.8422H13.5175L13.6161 7.55023ZM15.3913 7.55023L15.4899 7.84488H15.8022L15.5502 8.02434L15.6461 8.3163L15.3913 8.13416L15.1393 8.3163L15.2351 8.02166L14.9831 7.8422H15.2954L15.3913 7.55023ZM17.1692 7.55023L17.2651 7.84488H17.5801L17.3253 8.02434L17.424 8.3163L17.1692 8.13416L16.9144 8.3163L17.0131 8.02166L16.7583 7.8422H17.0733L17.1692 7.55023ZM12.7286 8.28952L12.8244 8.58148H13.1395L12.8847 8.76095L12.9806 9.05559L12.7286 8.87345L12.4738 9.05291L12.5697 8.76095L12.3176 8.58148H12.6299L12.7286 8.28952ZM14.5037 8.28952L14.6023 8.58148H14.9146L14.6626 8.76095L14.7585 9.05559L14.5037 8.87345L14.2517 9.05291L14.3476 8.76095L14.0928 8.58148H14.4106L14.5037 8.28952ZM16.2816 8.28952L16.3775 8.58148H16.6925L16.4378 8.76095L16.5336 9.05559L16.2816 8.87345L16.0269 9.05291L16.1227 8.76095L15.8707 8.58148H16.183L16.2816 8.28952ZM11.8382 9.0288L11.9369 9.32077H12.2464L11.9944 9.50023L12.0903 9.79487L11.8355 9.61273L11.5835 9.7922L11.6793 9.50023L11.4246 9.32077H11.7396L11.8382 9.0288ZM13.6161 9.0288L13.712 9.32077H14.0271L13.7723 9.50023L13.8709 9.79487L13.6161 9.61273L13.3614 9.7922L13.46 9.50023L13.2052 9.32077H13.5175L13.6161 9.0288ZM15.3913 9.0288L15.4899 9.32077H15.8022L15.5502 9.50023L15.6461 9.79487L15.3913 9.61273L15.1393 9.7922L15.2351 9.50023L14.9831 9.32077H15.2954L15.3913 9.0288ZM17.1692 9.0288L17.2651 9.32077H17.5801L17.3253 9.50023L17.424 9.79487L17.1692 9.61273L16.9144 9.7922L17.0131 9.50023L16.7583 9.32077H17.0733L17.1692 9.0288ZM12.7286 9.76809L12.8244 10.0601H13.1395L12.8847 10.2395L12.9806 10.5315L12.7286 10.3493L12.4738 10.5315L12.5697 10.2368L12.3176 10.0574H12.6299L12.7286 9.76809ZM14.5037 9.76809L14.6023 10.0601H14.9146L14.6626 10.2395L14.7585 10.5315L14.5037 10.3493L14.2517 10.5315L14.3476 10.2368L14.0928 10.0574H14.4106L14.5037 9.76809ZM16.2816 9.76809L16.3775 10.0601H16.6925L16.4378 10.2395L16.5336 10.5315L16.2816 10.3493L16.0269 10.5315L16.1227 10.2368L15.8707 10.0574H16.183L16.2816 9.76809ZM11.8382 10.5047L11.9369 10.7993H12.2464L11.9944 10.9788L12.0903 11.2681L11.8355 11.0886L11.5835 11.2681L11.6793 10.9761L11.4246 10.7967H11.7396L11.8382 10.5047ZM13.6161 10.5047L13.712 10.7993H14.0271L13.7723 10.9788L13.8709 11.2681L13.6161 11.0886L13.3614 11.2681L13.46 10.9761L13.2052 10.7967H13.5175L13.6161 10.5047ZM15.3913 10.5047L15.4899 10.7993H15.8022L15.5502 10.9788L15.6461 11.2681L15.3913 11.0886L15.1393 11.2681L15.2351 10.9761L14.9831 10.7967H15.2954L15.3913 10.5047ZM17.1692 10.5047L17.2651 10.7993H17.5801L17.3253 10.9788L17.424 11.2681L17.1692 11.0886L16.9144 11.2681L17.0131 10.9761L16.7583 10.7967H17.0733L17.1692 10.5047ZM10.9507 11.244L11.0493 11.5359H11.3616L11.1068 11.7154L11.2054 12.0101L10.9507 11.8279L10.6959 12.0074L10.7945 11.7154L10.5397 11.5359H10.8548L10.9507 11.244ZM12.7286 11.244L12.8244 11.5359H13.1395L12.8847 11.7154L12.9806 12.0101L12.7286 11.8279L12.4738 12.0074L12.5697 11.7154L12.3176 11.5359H12.6299L12.7286 11.244ZM14.5037 11.244L14.6023 11.5359H14.9146L14.6626 11.7154L14.7585 12.0101L14.5037 11.8279L14.2517 12.0074L14.3476 11.7154L14.0928 11.5359H14.4106L14.5037 11.244ZM16.2816 11.244L16.3775 11.5359H16.6925L16.4378 11.7154L16.5336 12.0101L16.2816 11.8279L16.0269 12.0074L16.1227 11.7154L15.8707 11.5359H16.183L16.2816 11.244ZM11.8382 11.9833L11.9369 12.2752H12.2464L11.9999 12.4547L12.0957 12.7467L11.841 12.5672L11.5889 12.7467L11.6848 12.452L11.4301 12.2726H11.7451L11.8382 11.9833ZM13.6161 11.9833L13.712 12.2752H14.0271L13.7723 12.4547L13.8709 12.7467L13.6161 12.5672L13.3614 12.7467L13.46 12.452L13.2052 12.2726H13.5175L13.6161 11.9833ZM15.3913 11.9833L15.4899 12.2752H15.8022L15.5502 12.4547L15.6461 12.7467L15.3913 12.5672L15.1393 12.7467L15.2351 12.452L14.9831 12.2726H15.2954L15.3913 11.9833ZM17.1692 11.9833L17.2651 12.2752H17.5801L17.3253 12.4547L17.424 12.7467L17.1692 12.5672L16.9144 12.7467L17.0131 12.452L16.7583 12.2726H17.0733L17.1692 11.9833Z" fill-rule="evenodd"/>
<rect rx="6.35423" fill="white" x="0.507202" width="12.7085" height="12.71" y="6.31616"/>
<rect rx="6.35423" x="0.507202" width="12.7085" height="12.71" y="6.31616" stroke="#EEEEEE"/>
<path fill="#343434" d="M6.86057 7.52991L6.79504 7.76423V14.5632L6.86057 14.632L9.85834 12.7665L6.86057 7.52991Z"/>
<path fill="#8C8C8C" d="M6.86058 7.52991L3.86273 12.7665L6.86058 14.632V11.332V7.52991Z"/>
<path fill="#3C3C3B" d="M6.8606 15.2295L6.82367 15.2769V17.6988L6.8606 17.8123L9.86021 13.365L6.8606 15.2295Z"/>
<path fill="#8C8C8C" d="M6.86058 17.8123V15.2295L3.86273 13.365L6.86058 17.8123Z"/>
<path fill="#141414" d="M6.8606 14.6321L9.85837 12.7666L6.8606 11.332V14.6321Z"/>
<path fill="#393939" d="M3.86273 12.7666L6.86058 14.6321V11.332L3.86273 12.7666Z"/>
</g>
<defs>
<clipPath id="clip0_15237_137181">
<rect fill="white" width="24" height="24" transform="translate(0.00720215 0.616211)"/>
</clipPath>
</defs>
<metadata symbolName="ETHUSD" fileName="ethusd.svg" id="grimlock-metadata-id" lastUpdate="2025-02-10T09:58:22.589547957" symbolId="1433"/></svg>