<svg width="24" height="24" fill="none" xmlns="http://www.w3.org/2000/svg"><g clip-path="url(#a)"><mask id="b" style="mask-type:luminance" maskUnits="userSpaceOnUse" x="0" y="0" width="24" height="24"><path d="M0 0h24v24H0V0z" fill="#fff"/></mask><g mask="url(#b)"><path fill-rule="evenodd" clip-rule="evenodd" d="M9.784 3.154h13.433c.285.334.504.725.637 1.154H9.147c.134-.429.352-.82.637-1.154zM9 5.462h15v1.154H9V5.462zM24 7.77H9v1.153h15V7.77zM9 10.077h15v1.154H9v-1.154zm15 2.308H9v1.154h15v-1.154zM9.147 14.693h14.707a3.27 3.27 0 0 1-.637 1.154H9.784a3.274 3.274 0 0 1-.637-1.154z" fill="#F5F5F5"/><path fill-rule="evenodd" clip-rule="evenodd" d="M20.719 2H12.28c-1 0-1.896.448-2.498 1.154h13.434A3.274 3.274 0 0 0 20.719 2zM24 6.615H9v1.154h15V6.615zm-.147-2.307c.096.308.147.635.147.974v.18H9v-.18c0-.34.051-.666.147-.974h14.706zM24 8.923H9v1.154h15V8.923zm0 4.616v.18c0 .34-.051.666-.147.974H9.147A3.28 3.28 0 0 1 9 13.719v-.18h15zm-.783 2.307H9.783A3.274 3.274 0 0 0 12.281 17h8.438c1 0 1.896-.448 2.498-1.154zM9 11.231h15v1.154H9V11.23v.001z" fill="#FA4051"/><path d="M17 2h-4.75C10.455 2 9 3.47 9 5.281v4.796h8V2z" fill="#1939C9"/><path fill-rule="evenodd" clip-rule="evenodd" d="m11.613 2.721.062.187.197.002c.025 0 .036.032.015.047l-.158.117.06.188a.027.027 0 0 1-.01.03.027.027 0 0 1-.031 0l-.16-.115-.16.114a.027.027 0 0 1-.04-.014.027.027 0 0 1 0-.016l.058-.187-.158-.117a.025.025 0 0 1-.01-.013.026.026 0 0 1 .01-.03.026.026 0 0 1 .016-.004l.196-.002.063-.187a.027.027 0 0 1 .025-.017.027.027 0 0 1 .025.017zm-1.743.541a.027.027 0 0 0 .04.03l.16-.115.16.115a.027.027 0 0 0 .04-.014.026.026 0 0 0 0-.016l-.057-.187.158-.117a.027.027 0 0 0 .008-.03.027.027 0 0 0-.024-.018l-.196-.002-.034-.1a3.306 3.306 0 0 0-.241.233l.046.034-.06.187zm.226 1.016.063.187.196.001c.026 0 .036.033.016.048l-.158.117.059.187a.027.027 0 0 1-.04.03l-.16-.115-.16.115a.027.027 0 0 1-.042-.03l.06-.187-.158-.117a.027.027 0 0 1 .015-.048l.197-.001.062-.187a.026.026 0 0 1 .05 0zm.063 1.913-.063-.186a.026.026 0 0 0-.05 0l-.062.186-.197.002a.027.027 0 0 0-.015.048l.158.117-.06.187a.027.027 0 0 0 .04.03l.16-.115.16.115c.022.014.05-.006.042-.03l-.06-.188.159-.116a.027.027 0 0 0 .008-.03.027.027 0 0 0-.024-.018l-.196-.002zm-.063 1.4.063.187.196.002c.026 0 .036.032.016.047l-.158.117.059.188a.026.026 0 0 1-.024.035.026.026 0 0 1-.016-.005l-.16-.115-.16.114a.026.026 0 0 1-.042-.03l.06-.187-.158-.117a.027.027 0 0 1 .015-.047l.197-.002.062-.187a.026.026 0 0 1 .05 0zm.063 1.63-.063-.187a.026.026 0 0 0-.05 0l-.062.187-.197.002a.027.027 0 0 0-.015.047l.158.117-.06.188a.027.027 0 0 0 .04.03l.16-.115.16.114a.027.027 0 0 0 .042-.03l-.06-.187.159-.117a.026.026 0 0 0 .008-.013.027.027 0 0 0-.01-.028.027.027 0 0 0-.014-.006l-.196-.002zm.694-5.762.062.186.197.002c.026 0 .036.032.016.048l-.16.116.06.188a.027.027 0 0 1-.01.03.027.027 0 0 1-.03 0l-.16-.115-.16.114a.027.027 0 0 1-.04-.014.027.027 0 0 1 0-.016l.059-.187-.16-.116a.026.026 0 0 1-.008-.013.027.027 0 0 1 .025-.035l.197-.002.062-.186a.027.027 0 0 1 .025-.017.027.027 0 0 1 .025.017zm.063 1.912-.063-.186a.026.026 0 0 0-.05 0l-.062.186-.197.002a.027.027 0 0 0-.016.048l.159.117-.06.187a.026.026 0 0 0 .008.032.026.026 0 0 0 .033-.002l.16-.115.16.115a.026.026 0 0 0 .04-.03l-.06-.187.16-.117a.027.027 0 0 0 .008-.03.027.027 0 0 0-.024-.018l-.197-.002zm-.063 1.454.063.187.196.001c.026 0 .036.033.016.048l-.16.117.06.188a.027.027 0 0 1-.04.03l-.16-.115-.16.114a.027.027 0 0 1-.04-.014.027.027 0 0 1 0-.016l.059-.187-.16-.117a.026.026 0 0 1-.01-.03.026.026 0 0 1 .027-.018l.197-.001.062-.187a.026.026 0 0 1 .05 0zm.063 1.66-.063-.186a.026.026 0 0 0-.05 0l-.062.186-.197.002a.026.026 0 0 0-.027.035c.002.005.006.01.01.013l.16.117-.06.187a.027.027 0 0 0 .04.03l.16-.115.16.115c.02.014.05-.006.04-.03l-.058-.188.159-.116a.026.026 0 0 0-.016-.048l-.197-.002zm.76-4.02-.063-.187a.027.027 0 0 0-.025-.017.027.027 0 0 0-.025.017l-.063.187-.196.001a.026.026 0 0 0-.027.035c.002.005.006.01.01.013l.159.117-.06.187a.027.027 0 0 0 .026.034c.005 0 .01-.001.015-.004l.16-.115.16.115a.027.027 0 0 0 .042-.03l-.06-.187.159-.117a.027.027 0 0 0 .008-.03.027.027 0 0 0-.024-.018l-.196-.001zm-.063 1.54.062.186.197.002c.025 0 .036.033.015.048l-.158.117.06.187a.027.027 0 0 1-.01.03.027.027 0 0 1-.031 0l-.16-.115-.16.115a.027.027 0 0 1-.04-.014.027.027 0 0 1 0-.016l.058-.188-.158-.116a.026.026 0 0 1-.01-.013.027.027 0 0 1 .025-.035l.197-.002.063-.186a.027.027 0 0 1 .025-.017.027.027 0 0 1 .025.017zm.062 1.773-.062-.187a.027.027 0 0 0-.04-.012.027.027 0 0 0-.01.012l-.063.187-.196.002a.027.027 0 0 0-.015.006.026.026 0 0 0-.01.028c.002.005.005.01.009.013l.158.117-.06.188a.027.027 0 0 0 0 .017.026.026 0 0 0 .025.018.026.026 0 0 0 .016-.005l.16-.115.16.114a.026.026 0 0 0 .034.004.026.026 0 0 0 .01-.016.025.025 0 0 0-.002-.018l-.06-.187.159-.117a.026.026 0 0 0 .008-.013.027.027 0 0 0-.01-.028.027.027 0 0 0-.014-.006l-.197-.002zm-.062 1.256.062.187.197.002c.025 0 .036.032.015.047l-.158.117.06.188a.027.027 0 0 1-.01.03.027.027 0 0 1-.031 0l-.16-.115-.16.114a.027.027 0 0 1-.04-.014.027.027 0 0 1 0-.016l.058-.187-.158-.117a.027.027 0 0 1-.008-.013.026.026 0 0 1 .01-.028.027.027 0 0 1 .014-.006l.196-.002.063-.187a.027.027 0 0 1 .025-.017.027.027 0 0 1 .025.017zm.818-5.389-.062-.186a.027.027 0 0 0-.04-.012.027.027 0 0 0-.01.012l-.063.186-.196.002a.027.027 0 0 0-.016.048l.158.116-.06.188a.027.027 0 0 0 .042.03l.16-.115.16.114a.027.027 0 0 0 .04-.014.026.026 0 0 0 0-.016l-.06-.187.159-.116a.026.026 0 0 0-.015-.048l-.197-.002zm-.062 1.54.062.186.197.002c.025 0 .036.033.015.048l-.158.117.06.187a.026.026 0 0 1 .001.017.026.026 0 0 1-.026.02.026.026 0 0 1-.016-.007l-.16-.115-.16.115a.027.027 0 0 1-.041-.03l.06-.187-.16-.117a.026.026 0 0 1-.008-.013.027.027 0 0 1 .025-.035l.196-.002.063-.186a.027.027 0 0 1 .025-.017.027.027 0 0 1 .025.017zm.062 1.827-.062-.187a.027.027 0 0 0-.04-.012.027.027 0 0 0-.01.012l-.063.187-.196.001a.026.026 0 0 0-.027.035c.002.005.006.01.01.013l.159.117-.06.188c-.007.024.02.044.042.03l.16-.115.16.114a.027.027 0 0 0 .04-.014.026.026 0 0 0 0-.016l-.06-.187.159-.117a.026.026 0 0 0-.015-.048l-.197-.001zm-.062 1.287.062.186.197.002c.025 0 .036.033.015.048l-.158.117.06.187a.026.026 0 0 1 .001.017.026.026 0 0 1-.026.02.026.026 0 0 1-.016-.007l-.16-.115-.16.115a.027.027 0 0 1-.031 0 .027.027 0 0 1-.01-.03l.06-.188-.16-.116a.026.026 0 0 1-.01-.03.026.026 0 0 1 .027-.018l.196-.002.063-.186a.027.027 0 0 1 .025-.017.027.027 0 0 1 .025.017zm.822-5.39-.062-.188c-.008-.024-.043-.024-.05 0l-.063.187-.197.002a.026.026 0 0 0-.025.034c.002.005.005.01.01.013l.158.117-.06.188a.027.027 0 0 0 .01.03.027.027 0 0 0 .03 0l.16-.115.16.114a.027.027 0 0 0 .042-.03l-.06-.187.16-.117a.027.027 0 0 0 .007-.03.027.027 0 0 0-.024-.017l-.196-.001zm-.062 1.369.062.187.196.001c.026 0 .037.033.016.048l-.158.117.06.187a.027.027 0 0 1-.01.03.027.027 0 0 1-.031 0l-.16-.115-.16.115a.027.027 0 0 1-.031 0 .027.027 0 0 1-.01-.03l.059-.187-.158-.117a.027.027 0 0 1-.01-.03.027.027 0 0 1 .025-.018l.197-.002.062-.186a.027.027 0 0 1 .025-.017c.005 0 .01.002.015.005a.03.03 0 0 1 .01.012zm.062 1.913-.062-.186a.026.026 0 0 0-.025-.019.026.026 0 0 0-.025.019l-.063.186-.197.002a.027.027 0 0 0-.024.019.027.027 0 0 0 .009.029l.158.117-.06.187a.027.027 0 0 0 .01.03.027.027 0 0 0 .03 0l.16-.115.16.115c.022.014.05-.006.042-.03l-.06-.188.16-.116a.026.026 0 0 0 .009-.014.027.027 0 0 0-.026-.034l-.196-.002zm-.062 1.4.062.187.196.002c.026 0 .037.032.016.047l-.158.117.06.188a.026.026 0 0 1 .001.017.026.026 0 0 1-.026.02.026.026 0 0 1-.016-.007l-.16-.115-.16.114a.026.026 0 0 1-.043-.013.026.026 0 0 1 .002-.017l.059-.187-.158-.117a.027.027 0 0 1-.008-.013.028.028 0 0 1 .009-.028.027.027 0 0 1 .014-.006l.197-.002.062-.187a.026.026 0 0 1 .025-.019.028.028 0 0 1 .026.019zm.062 1.63-.062-.187a.026.026 0 0 0-.025-.019.026.026 0 0 0-.025.019l-.063.187-.197.002a.027.027 0 0 0-.023.019.028.028 0 0 0 0 .015c.001.005.004.01.008.013l.158.117-.06.188a.027.027 0 0 0 .04.03l.16-.115.16.114a.027.027 0 0 0 .042-.03l-.06-.187.16-.117a.027.027 0 0 0 .007-.03.027.027 0 0 0-.024-.017l-.196-.002zm.694-5.762.063.186.196.002c.026 0 .036.032.016.048l-.158.116.059.188a.027.027 0 0 1-.04.03l-.16-.115-.16.114a.027.027 0 0 1-.042-.03l.06-.187-.158-.116a.027.027 0 0 1-.01-.03.027.027 0 0 1 .025-.018l.197-.002.062-.186a.027.027 0 0 1 .025-.017.027.027 0 0 1 .025.017zm.063 1.912-.063-.186a.027.027 0 0 0-.025-.017.027.027 0 0 0-.025.017l-.062.186-.197.002a.027.027 0 0 0-.024.019.027.027 0 0 0 .009.029l.158.117-.06.187a.026.026 0 0 0 .008.032.026.026 0 0 0 .033-.002l.16-.115.16.115a.026.026 0 0 0 .032.002.026.026 0 0 0 .01-.015.026.026 0 0 0-.001-.017L14 5.538l.159-.117a.027.027 0 0 0 .008-.03.027.027 0 0 0-.025-.018l-.195-.002zm-.063 1.454.063.187.196.001c.026 0 .036.033.016.048l-.158.117.059.188a.027.027 0 0 1-.04.03l-.16-.115-.16.114a.027.027 0 0 1-.042-.03l.06-.187-.158-.117a.026.026 0 0 1-.001-.043.026.026 0 0 1 .016-.005l.197-.001.062-.187a.027.027 0 0 1 .025-.017.027.027 0 0 1 .025.017zm.063 1.66-.063-.186a.027.027 0 0 0-.04-.012.027.027 0 0 0-.01.012l-.062.186-.197.002a.026.026 0 0 0-.026.018.026.026 0 0 0 .01.03l.159.117-.06.187a.027.027 0 0 0 .04.03l.16-.115.16.115c.022.014.05-.006.042-.03L14 8.651l.159-.116a.026.026 0 0 0-.016-.048l-.196-.002zm.695-5.764.063.187.196.002c.026 0 .036.032.016.047l-.16.117.06.188a.026.026 0 0 1-.024.035.026.026 0 0 1-.015-.005l-.16-.115-.16.114a.027.027 0 0 1-.042-.03l.06-.187-.16-.117a.025.025 0 0 1-.009-.013.026.026 0 0 1 .01-.03.026.026 0 0 1 .016-.004l.197-.002.062-.187a.026.026 0 0 1 .05 0zm.063 1.744-.063-.187a.026.026 0 0 0-.05 0l-.062.187-.197.001a.027.027 0 0 0-.016.048l.159.117-.06.187a.027.027 0 0 0 .01.03.027.027 0 0 0 .03 0l.16-.115.16.115a.026.026 0 0 0 .04-.03l-.058-.187.159-.117a.027.027 0 0 0 .009-.03.027.027 0 0 0-.025-.018l-.196-.001zm-.063 1.54.063.186.196.002c.026 0 .036.033.016.048l-.16.117.06.187a.026.026 0 0 1-.024.035.026.026 0 0 1-.015-.005l-.16-.115-.16.115a.027.027 0 0 1-.042-.03l.06-.188-.16-.116a.026.026 0 0 1-.008-.013.027.027 0 0 1 .025-.035l.197-.002.062-.186a.026.026 0 0 1 .05 0zm.063 1.773-.063-.187a.026.026 0 0 0-.05 0l-.062.187-.197.002a.027.027 0 0 0-.015.006.026.026 0 0 0-.01.028c.002.005.005.01.009.013l.159.117-.06.188a.026.026 0 0 0 .008.032.026.026 0 0 0 .033-.002l.16-.115.16.114a.026.026 0 0 0 .04-.03l-.06-.187.16-.117a.026.026 0 0 0 .008-.013.027.027 0 0 0-.01-.028.027.027 0 0 0-.014-.006l-.196-.002zm-.063 1.256.063.187.196.002c.026 0 .036.032.016.047l-.16.117.06.188a.026.026 0 0 1-.024.035.026.026 0 0 1-.015-.005l-.16-.115-.16.114a.027.027 0 0 1-.042-.03l.06-.187-.16-.117a.027.027 0 0 1-.007-.013.026.026 0 0 1 .01-.028.027.027 0 0 1 .014-.006l.197-.002.062-.187a.026.026 0 0 1 .05 0zm.818-5.389L15.4 3.46a.027.027 0 0 0-.025-.017.027.027 0 0 0-.025.017l-.063.186-.196.002a.027.027 0 0 0-.016.048l.159.116-.06.188a.027.027 0 0 0 .025.034c.005 0 .01-.001.015-.004l.16-.115.16.114a.027.027 0 0 0 .04-.014.026.026 0 0 0 0-.016l-.058-.187.159-.116a.026.026 0 0 0-.016-.048l-.197-.002-.001-.001zm-.062 1.54.062.186.197.002c.026 0 .036.033.016.048l-.16.117.06.187a.026.026 0 0 1 .002.017.026.026 0 0 1-.026.02.026.026 0 0 1-.016-.007l-.16-.115-.16.115a.026.026 0 0 1-.04-.03l.059-.187-.16-.117a.026.026 0 0 1-.008-.013.027.027 0 0 1 .025-.035l.197-.002.062-.186a.027.027 0 0 1 .025-.017.027.027 0 0 1 .025.017zm.062 1.827-.062-.187a.027.027 0 0 0-.04-.012.027.027 0 0 0-.01.012l-.063.187-.196.001a.026.026 0 0 0-.027.035c.002.005.006.01.01.013l.16.117-.06.188a.027.027 0 0 0 .025.034c.005 0 .01-.001.015-.004l.16-.115.16.114a.027.027 0 0 0 .04-.014.026.026 0 0 0 0-.016l-.058-.187.159-.117a.026.026 0 0 0-.016-.048l-.197-.001zm-.062 1.287.062.186.197.002c.026 0 .036.033.016.048l-.16.117.06.187a.027.027 0 0 1-.04.03l-.16-.115-.16.115c-.02.014-.05-.006-.04-.03l.059-.188-.16-.116a.026.026 0 0 1-.01-.03.026.026 0 0 1 .027-.018l.197-.002.062-.186a.027.027 0 0 1 .025-.017.027.027 0 0 1 .025.017zm.82-5.39-.061-.188a.026.026 0 0 0-.05 0l-.063.187-.196.002a.026.026 0 0 0-.026.034c.002.005.005.01.01.013l.158.117-.06.188a.027.027 0 0 0 .026.034c.005 0 .01-.001.015-.004l.16-.115.16.114a.027.027 0 0 0 .04-.03l-.058-.187.158-.117a.026.026 0 0 0-.015-.047l-.197-.001zm-.061 1.369.062.187.197.001c.025 0 .036.033.015.048l-.158.117.06.187a.027.027 0 0 1-.01.03.027.027 0 0 1-.031 0l-.16-.115-.16.115a.027.027 0 0 1-.031 0 .027.027 0 0 1-.01-.03l.06-.187-.16-.117a.026.026 0 0 1-.01-.03.026.026 0 0 1 .027-.018l.196-.001.063-.187a.026.026 0 0 1 .05 0zm.062 1.913-.062-.186a.026.026 0 0 0-.05 0l-.063.186-.196.002a.027.027 0 0 0-.016.048l.158.117-.06.187a.027.027 0 0 0 .026.034c.005 0 .01-.001.015-.004l.16-.115.16.115a.027.027 0 0 0 .04-.03l-.058-.188.158-.116a.027.027 0 0 0 .009-.03.027.027 0 0 0-.024-.018l-.197-.002zm-.062 1.4.062.187.197.002c.025 0 .036.032.015.047l-.158.117.06.188a.026.026 0 0 1 .001.017.026.026 0 0 1-.026.02.026.026 0 0 1-.016-.007l-.16-.115-.16.114a.026.026 0 0 1-.043-.013.026.026 0 0 1 .002-.017l.06-.187-.16-.117a.027.027 0 0 1-.007-.013.026.026 0 0 1 .01-.028.027.027 0 0 1 .014-.006l.196-.002.063-.187a.026.026 0 0 1 .05 0zm.062 1.63-.062-.187a.026.026 0 0 0-.05 0l-.063.187-.196.002a.027.027 0 0 0-.015.006.026.026 0 0 0-.01.028c.002.005.005.01.009.013l.158.117-.06.188c-.007.024.02.044.04.03l.16-.115.16.114c.022.015.05-.005.042-.03l-.06-.187.159-.117a.027.027 0 0 0 .008-.028.027.027 0 0 0-.009-.013.027.027 0 0 0-.014-.006l-.197-.002z" fill="#F5F5F5"/><path d="M11.719 7H3.28A3.281 3.281 0 0 0 0 10.281v8.438A3.28 3.28 0 0 0 3.281 22h8.438A3.281 3.281 0 0 0 15 18.719V10.28A3.281 3.281 0 0 0 11.719 7z" fill="#0A48B6"/><path fill-rule="evenodd" clip-rule="evenodd" d="m7.74 10.301-.126-.375a.053.053 0 0 0-.1 0l-.126.375-.395.004a.053.053 0 0 0-.03.096l.317.235-.12.377a.053.053 0 0 0 .082.059l.322-.23.322.23c.041.03.097-.01.081-.06l-.119-.376.318-.235a.053.053 0 0 0-.03-.096l-.396-.004zm0 8.054-.126-.375a.053.053 0 0 0-.1 0l-.126.375-.395.003a.053.053 0 0 0-.03.096l.317.235-.12.377c-.015.049.04.09.082.06l.322-.23.322.23c.041.03.097-.011.081-.06l-.119-.377.318-.235a.053.053 0 0 0-.03-.096l-.396-.003zm3.9-4.402.126.375.395.003c.052 0 .073.066.032.097l-.319.234.12.377a.053.053 0 0 1-.082.06l-.322-.23-.32.23a.053.053 0 0 1-.083-.06l.12-.377-.319-.234a.053.053 0 0 1-.001-.087c.01-.007.02-.01.032-.01l.396-.003.125-.375a.053.053 0 0 1 .1 0zm-7.927.375-.125-.375a.053.053 0 0 0-.1 0l-.126.375-.395.003a.053.053 0 0 0-.032.097l.318.234-.119.377c-.015.05.04.09.082.06l.322-.23.321.23c.042.03.097-.01.082-.06l-.12-.377.32-.234a.053.053 0 0 0-.032-.097l-.396-.003zm.48-2.478.126.375.395.003c.051 0 .072.066.031.096l-.318.235.12.377a.053.053 0 0 1-.082.06l-.322-.23-.322.23a.053.053 0 0 1-.08-.06l.118-.377-.318-.235a.053.053 0 0 1 .031-.096l.395-.003.125-.375a.053.053 0 0 1 .051-.039.052.052 0 0 1 .05.039zm7.1 4.402-.126-.375a.053.053 0 0 0-.08-.026.053.053 0 0 0-.02.026l-.126.375-.395.003a.053.053 0 0 0-.051.07c.003.01.01.02.02.026l.318.235-.12.377c-.015.049.04.09.082.06l.322-.23.321.23a.053.053 0 0 0 .082-.06l-.12-.377.32-.235a.053.053 0 0 0-.032-.096l-.396-.003h.001zm-1.6-5.876.125.375.395.003c.051 0 .073.066.031.097l-.318.234.12.377a.053.053 0 0 1-.082.06l-.322-.23-.322.23a.053.053 0 0 1-.08-.06l.118-.377-.318-.234a.053.053 0 0 1-.001-.087c.01-.007.02-.01.032-.01l.395-.003.126-.375a.053.053 0 0 1 .08-.026.055.055 0 0 1 .021.026zm-3.902 7.35-.125-.375a.053.053 0 0 0-.1 0l-.126.375-.395.003a.053.053 0 0 0-.051.07c.003.01.01.02.02.026l.318.235-.12.377c-.015.049.04.09.082.06l.322-.23.321.23a.053.053 0 0 0 .082-.06l-.12-.377.32-.235a.053.053 0 0 0-.032-.096l-.396-.003zm5.275-5.876-.125.375-.395.003a.053.053 0 0 0-.051.07c.003.01.01.02.02.026l.318.235-.12.377c-.015.05.04.09.082.06l.322-.23.321.23c.042.03.098-.01.082-.06l-.12-.377.32-.235a.053.053 0 0 0-.032-.096l-.396-.003-.125-.375a.053.053 0 0 0-.08-.026.053.053 0 0 0-.02.026zm-7.099 4.402.125-.375a.053.053 0 0 1 .051-.039.053.053 0 0 1 .051.039l.125.375.395.003c.051 0 .073.066.031.096l-.318.235.12.377a.053.053 0 0 1-.082.06l-.322-.23-.322.23a.053.053 0 0 1-.08-.06l.118-.377-.318-.235a.053.053 0 0 1 .031-.096l.395-.003zm1.598-5.876-.125.375-.395.003a.053.053 0 0 0-.032.097l.32.234-.12.377c-.016.05.04.09.081.06l.322-.23.321.23c.042.03.098-.01.082-.06l-.12-.377.32-.234a.053.053 0 0 0-.032-.097l-.396-.003-.125-.375a.053.053 0 0 0-.08-.026.055.055 0 0 0-.02.026zm3.901 7.35.126-.375a.053.053 0 0 1 .1 0l.126.375.395.003c.051 0 .073.066.031.096l-.318.235.12.377a.053.053 0 0 1-.082.06l-.322-.23-.322.23a.053.053 0 0 1-.08-.06l.118-.377-.318-.235a.053.053 0 0 1 .031-.096l.395-.003z" fill="#FFE15A"/></g></g><defs><clipPath id="a"><path fill="#fff" d="M0 0h24v24H0z"/></clipPath></defs></svg>