<?xml version="1.0" encoding="UTF-8" standalone="no"?><svg xmlns="http://www.w3.org/2000/svg" xmlns:xlink="http://www.w3.org/1999/xlink" contentScriptType="text/ecmascript" fill="none" width="24" zoomAndPan="magnify" contentStyleType="text/css" viewBox="0 0 24 24" height="24" preserveAspectRatio="xMidYMid meet" version="1.0">
<path fill="url(#paint0_linear_15235_116689)" d="M23.7717 12C23.7717 15.7868 20.7013 18.8571 16.9145 18.8571C13.1274 18.8571 10.0574 15.7871 10.0574 12C10.0574 12.0016 16.9145 5.14349 16.9145 5.14282C20.7017 5.14282 23.7717 8.2128 23.7717 12Z"/>
<path fill="#F0F0F0" d="M16.8962 12H16.9146V11.9816C16.9086 11.9876 16.9022 11.994 16.8962 12Z"/>
<path fill="#F0F0F0" d="M16.9145 8.72039V5.14282H16.9132C13.1267 5.14349 10.0574 8.21313 10.0574 12H13.6349V9.98534L15.6496 12H16.8961C16.9021 11.9939 16.9082 11.9876 16.9145 11.9815V10.735L14.8999 8.72039H16.9145V8.72039Z"/>
<path fill="#D80027" d="M13.5263 6.03711C12.4539 6.64782 11.5623 7.53945 10.9516 8.61189V11.9999H12.7405V7.82606H16.9144V6.03711H13.5263Z"/>
<path fill="#D80027" d="M16.9146 11.1565L14.4785 8.72034H13.635L16.9146 11.9999V11.1565Z"/>
<path fill="#F0F0F0" d="M14.1932 13.1926L14.5695 13.9795L15.4193 13.7829L15.0386 14.5677L15.722 15.1095L14.8712 15.3013L14.8736 16.1735L14.1932 15.6278L13.5128 16.1735L13.5152 15.3013L12.6641 15.1095L13.3474 14.5677L12.9667 13.7829L13.8165 13.9795L14.1932 13.1926Z"/>
<path fill="#F0F0F0" d="M18.5735 10.5094L18.7617 10.9028L19.1866 10.8047L18.9964 11.1971L19.3383 11.468L18.9127 11.5638L18.9141 12L18.5739 11.7271L18.2337 12L18.2347 11.5638L17.8091 11.468L18.151 11.1971L17.9608 10.8047L18.3857 10.9028L18.5735 10.5094Z"/>
<path fill="#F0F0F0" d="M21.8527 9.91296L22.0409 10.3064L22.4657 10.2083L22.2756 10.6007L22.6174 10.8716L22.1919 10.9673L22.1932 11.4036L21.853 11.1307L21.5128 11.4036L21.5142 10.9673L21.0886 10.8716L21.4305 10.6007L21.2403 10.2083L21.6652 10.3064L21.8527 9.91296Z"/>
<path fill="#F0F0F0" d="M20.7596 12L20.9076 12.4554H21.3867L20.9993 12.7369L21.1473 13.1926L20.7599 12.911L20.3722 13.1926L20.5202 12.7369L20.1328 12.4554H20.6116L20.7596 12Z"/>
<path fill="#F0F0F0" d="M20.3241 14.6832L20.5123 15.0766L20.9372 14.9785L20.747 15.371L21.0889 15.6418L20.6633 15.7376L20.6646 16.1739L20.3245 15.901L19.9843 16.1739L19.9856 15.7376L19.5601 15.6418L19.9019 15.371L19.7117 14.9785L20.1366 15.0766L20.3241 14.6832Z"/>
<path fill="#F0F0F0" d="M20.3241 8.12402L20.5123 8.51744L20.9372 8.41934L20.747 8.81175L21.0889 9.08262L20.6633 9.17838L20.6646 9.61465L20.3245 9.34177L19.9843 9.61465L19.9856 9.17838L19.5601 9.08262L19.9019 8.81175L19.7117 8.41934L20.1366 8.51744L20.3241 8.12402Z"/>
<path fill="#0052B4" d="M13.7143 12C13.7143 15.7868 10.644 18.8571 6.85714 18.8571C3.06998 18.8571 0 15.7871 0 12C0 8.2128 3.06998 5.14282 6.85714 5.14282C10.6443 5.14282 13.7143 8.2128 13.7143 12Z"/>
<path fill="#FFDA44" d="M2.68304 12L3.36642 11.778V11.0594L3.78863 11.6407L4.472 11.4187L4.04979 12L4.472 12.5812L3.78863 12.3592L3.36642 12.9405V12.2219L2.68304 12Z"/>
<path fill="#FFDA44" d="M3.90593 14.9514L4.23205 14.3112L3.72412 13.8033L4.43361 13.9158L4.75972 13.2756L4.87222 13.9855L5.58171 14.0976L4.94153 14.4237L5.0537 15.1332L4.54577 14.6253L3.90593 14.9514Z"/>
<path fill="#FFDA44" d="M9.80872 14.9514L9.16854 14.6253L8.66028 15.1332L8.77278 14.4237L8.1326 14.0976L8.84209 13.9855L8.95425 13.2756L9.28037 13.9158L9.98986 13.8033L9.48193 14.3116L9.80872 14.9514Z"/>
<path fill="#FFDA44" d="M11.0309 12L10.3476 12.2219V12.9405L9.92534 12.3592L9.24197 12.5812L9.66418 12L9.24197 11.4187L9.92534 11.6407L10.3476 11.0594V11.778L11.0309 12Z"/>
<path fill="#FFDA44" d="M6.85693 7.82605L7.07892 8.50942H7.79711L7.21586 8.93163L7.43784 9.615L6.85659 9.19279L6.27534 9.615L6.49733 8.93163L5.91608 8.50942H6.63461L6.85693 7.82605Z"/>
<path fill="#FFDA44" d="M3.90559 9.04851L4.54577 9.37462L5.05369 8.8667L4.94153 9.57618L5.58171 9.9023L4.87222 10.0148L4.75972 10.7243L4.43361 10.0841L3.72412 10.1966L4.23204 9.68868L3.90559 9.04851Z"/>
<path fill="#FFDA44" d="M6.85702 16.1738L6.63503 15.4905H5.9165L6.49775 15.0683L6.27577 14.3849L6.85702 14.8071L7.43827 14.3849L7.21628 15.0683L7.79753 15.4905H7.079L6.85702 16.1738Z"/>
<path fill="#FFDA44" d="M9.80847 9.04851L9.48236 9.68868L9.99028 10.1966L9.28079 10.0841L8.95468 10.7243L8.84251 10.0148L8.13303 9.9023L8.7732 9.57618L8.66071 8.8667L9.16896 9.37462L9.80847 9.04851Z"/>
<defs>
<linearGradient x1="10.7431" gradientUnits="userSpaceOnUse" x2="23.7717" y1="11.3143" y2="11.3143" xlink:type="simple" xlink:actuate="onLoad" id="paint0_linear_15235_116689" xlink:show="other">
<stop stop-color="#00418E" offset="0.328947"/>
<stop stop-color="#0052B4" offset="1"/>
</linearGradient>
</defs>
<metadata symbolName="EURAUD" fileName="euraud.svg" id="grimlock-metadata-id" lastUpdate="2025-02-10T09:58:22.672173688" symbolId="13"/></svg>