<?xml version="1.0" encoding="UTF-8" standalone="no"?><svg xmlns="http://www.w3.org/2000/svg" xmlns:xlink="http://www.w3.org/1999/xlink" contentScriptType="text/ecmascript" fill="none" width="24" zoomAndPan="magnify" contentStyleType="text/css" viewBox="0 0 24 24" height="24" preserveAspectRatio="xMidYMid meet" version="1.0">
<path fill="#D80027" d="M23.7717 12C23.7717 15.7868 20.7013 18.8571 16.9145 18.8571C13.1274 18.8571 10.0574 15.7871 10.0574 12C10.0574 8.2128 13.1274 5.14282 16.9145 5.14282C20.7017 5.14282 23.7717 8.2128 23.7717 12Z"/>
<path fill="white" d="M20.492 10.8073H18.107V8.42236H15.7221V10.8073H13.3368V13.1922H15.7221V15.5772H18.107V13.1922H20.492V10.8073V10.8073Z"/>
<path fill="#0052B4" d="M13.7143 12C13.7143 15.7868 10.644 18.8571 6.85714 18.8571C3.06998 18.8571 0 15.7871 0 12C0 8.2128 3.06998 5.14282 6.85714 5.14282C10.6443 5.14282 13.7143 8.2128 13.7143 12Z"/>
<path fill="#FFDA44" d="M6.85693 7.82605L7.07892 8.50942H7.79711L7.21586 8.93163L7.43784 9.615L6.85659 9.19279L6.27534 9.615L6.49733 8.93163L5.91608 8.50942H6.63461L6.85693 7.82605Z"/>
<path fill="#FFDA44" d="M3.90559 9.04851L4.54577 9.37462L5.05369 8.8667L4.94153 9.57618L5.58171 9.9023L4.87222 10.0148L4.75972 10.7243L4.43361 10.0841L3.72412 10.1966L4.23204 9.68868L3.90559 9.04851Z"/>
<path fill="#FFDA44" d="M2.68304 12L3.36642 11.778V11.0594L3.78863 11.6407L4.472 11.4187L4.04979 12L4.472 12.5812L3.78863 12.3592L3.36642 12.9405V12.2219L2.68304 12Z"/>
<path fill="#FFDA44" d="M3.90593 14.9514L4.23205 14.3112L3.72412 13.8033L4.43361 13.9158L4.75972 13.2756L4.87222 13.9855L5.58171 14.0976L4.94153 14.4237L5.0537 15.1332L4.54577 14.6253L3.90593 14.9514Z"/>
<path fill="#FFDA44" d="M6.85702 16.1738L6.63503 15.4905H5.9165L6.49775 15.0683L6.27577 14.3849L6.85702 14.8071L7.43827 14.3849L7.21628 15.0683L7.79753 15.4905H7.079L6.85702 16.1738Z"/>
<path fill="#FFDA44" d="M9.80872 14.9514L9.16854 14.6253L8.66028 15.1332L8.77278 14.4237L8.1326 14.0976L8.84209 13.9855L8.95425 13.2756L9.28037 13.9158L9.98986 13.8033L9.48193 14.3116L9.80872 14.9514Z"/>
<path fill="#FFDA44" d="M11.0309 12L10.3476 12.2219V12.9405L9.92534 12.3592L9.24197 12.5812L9.66418 12L9.24197 11.4187L9.92534 11.6407L10.3476 11.0594V11.778L11.0309 12Z"/>
<path fill="#FFDA44" d="M9.80847 9.04851L9.48236 9.68868L9.99028 10.1966L9.28079 10.0841L8.95468 10.7243L8.84251 10.0148L8.13303 9.9023L8.7732 9.57618L8.66071 8.8667L9.16896 9.37462L9.80847 9.04851Z"/>
<metadata symbolName="EURCHF" fileName="eurchf.svg" id="grimlock-metadata-id" lastUpdate="2025-02-10T09:58:22.672239242" symbolId="15"/></svg>