<?xml version="1.0" encoding="UTF-8" standalone="no"?><svg xmlns="http://www.w3.org/2000/svg" xmlns:xlink="http://www.w3.org/1999/xlink" contentScriptType="text/ecmascript" fill="none" width="24" zoomAndPan="magnify" contentStyleType="text/css" viewBox="0 0 24 24" height="24" preserveAspectRatio="xMidYMid meet" version="1.0">
<mask x="10" y="5" width="14" maskUnits="userSpaceOnUse" style="mask-type:alpha" height="14" id="mask0_15235_116690">
<circle fill="white" r="6.35714" cx="16.9145" cy="12" stroke="#D3D3D3"/>
</mask>
<g mask="url(#mask0_15235_116690)">
<rect fill="url(#paint0_linear_15235_116690)" x="10.5574" width="12.7143" height="12.7143" y="5.64282" stroke="#EEEEEE"/>
<path fill="#D80027" d="M7.31451 5.14282H12.1654V18.8571H7.31451V5.14282ZM21.8699 5.14282H26.7208V18.8571H21.8725L21.8699 5.14282ZM13.6199 11.7696L13.2395 11.8982L14.994 13.4384C15.1279 13.8321 14.9484 13.9473 14.8333 14.1562L16.735 13.9151L16.6895 15.8303L17.0859 15.8196L16.9975 13.9178L18.9047 14.1455C18.7868 13.8964 18.6824 13.7651 18.7895 13.3687L20.5413 11.9089L20.2359 11.7964C19.9842 11.6035 20.3431 10.8669 20.3967 10.4009C20.3967 10.4009 19.3761 10.7518 19.3092 10.5669L19.0467 10.066L18.1172 11.0893C18.0154 11.1134 17.9725 11.0732 17.9484 10.9875L18.377 8.84996L17.6967 9.233C17.6404 9.25979 17.5842 9.23836 17.5467 9.17139L16.8904 7.85889L16.2154 9.22229C16.1645 9.2705 16.1136 9.27586 16.0708 9.24372L15.4225 8.87943L15.8136 10.9982C15.7815 11.0839 15.7065 11.1053 15.6208 11.0598L14.7288 10.05C14.6136 10.2375 14.5359 10.5401 14.3806 10.6098C14.2279 10.6741 13.7109 10.4812 13.3654 10.4062C13.4833 10.8321 13.8529 11.5393 13.6199 11.7723V11.7696Z"/>
<circle r="6.35714" cx="16.9145" cy="12" stroke="#EEEEEE"/>
</g>
<path fill="#0052B4" d="M13.7143 12C13.7143 15.7868 10.644 18.8571 6.85714 18.8571C3.06998 18.8571 0 15.7871 0 12C0 8.2128 3.06998 5.14282 6.85714 5.14282C10.6443 5.14282 13.7143 8.2128 13.7143 12Z"/>
<path fill="#FFDA44" d="M6.85693 7.82605L7.07892 8.50942H7.79711L7.21586 8.93163L7.43784 9.615L6.85659 9.19279L6.27534 9.615L6.49733 8.93163L5.91608 8.50942H6.63461L6.85693 7.82605Z"/>
<path fill="#FFDA44" d="M3.90559 9.04851L4.54577 9.37462L5.05369 8.8667L4.94153 9.57618L5.58171 9.9023L4.87222 10.0148L4.75972 10.7243L4.43361 10.0841L3.72412 10.1966L4.23204 9.68868L3.90559 9.04851Z"/>
<path fill="#FFDA44" d="M2.68304 12L3.36642 11.778V11.0594L3.78863 11.6407L4.472 11.4187L4.04979 12L4.472 12.5812L3.78863 12.3592L3.36642 12.9405V12.2219L2.68304 12Z"/>
<path fill="#FFDA44" d="M3.90593 14.9514L4.23205 14.3112L3.72412 13.8033L4.43361 13.9158L4.75972 13.2756L4.87222 13.9855L5.58171 14.0976L4.94153 14.4237L5.0537 15.1332L4.54577 14.6253L3.90593 14.9514Z"/>
<path fill="#FFDA44" d="M6.85702 16.1738L6.63503 15.4905H5.9165L6.49775 15.0683L6.27577 14.3849L6.85702 14.8071L7.43827 14.3849L7.21628 15.0683L7.79753 15.4905H7.079L6.85702 16.1738Z"/>
<path fill="#FFDA44" d="M9.80872 14.9514L9.16854 14.6253L8.66028 15.1332L8.77278 14.4237L8.1326 14.0976L8.84209 13.9855L8.95425 13.2756L9.28037 13.9158L9.98986 13.8033L9.48193 14.3116L9.80872 14.9514Z"/>
<path fill="#FFDA44" d="M11.0309 12L10.3476 12.2219V12.9405L9.92534 12.3592L9.24197 12.5812L9.66418 12L9.24197 11.4187L9.92534 11.6407L10.3476 11.0594V11.778L11.0309 12Z"/>
<path fill="#FFDA44" d="M9.80847 9.04851L9.48236 9.68868L9.99028 10.1966L9.28079 10.0841L8.95468 10.7243L8.84251 10.0148L8.13303 9.9023L8.7732 9.57618L8.66071 8.8667L9.16896 9.37462L9.80847 9.04851Z"/>
<defs>
<linearGradient x1="16.9145" gradientUnits="userSpaceOnUse" x2="16.9145" y1="5.14282" y2="18.8571" xlink:type="simple" xlink:actuate="onLoad" id="paint0_linear_15235_116690" xlink:show="other">
<stop stop-color="white" offset="0.567708"/>
<stop stop-color="#D1D1D1" offset="1"/>
</linearGradient>
</defs>
<metadata symbolName="EURCAD" fileName="eurcad.svg" id="grimlock-metadata-id" lastUpdate="2025-02-10T09:58:22.672218801" symbolId="14"/></svg>