<?xml version="1.0" encoding="UTF-8" standalone="no"?><svg xmlns="http://www.w3.org/2000/svg" xmlns:xlink="http://www.w3.org/1999/xlink" contentScriptType="text/ecmascript" fill="none" width="24" zoomAndPan="magnify" contentStyleType="text/css" viewBox="0 0 24 24" height="24" preserveAspectRatio="xMidYMid meet" version="1.0">
<path fill="white" d="M23.7717 12C23.7717 15.7868 20.7013 18.8571 16.9145 18.8571C13.1274 18.8571 10.0574 15.7871 10.0574 12C10.0574 8.2128 13.1274 5.14282 16.9145 5.14282C20.7017 5.14282 23.7717 8.2128 23.7717 12Z"/>
<path fill="#0052B4" d="M11.4753 7.82507C10.9365 8.52585 10.5304 9.33344 10.294 10.211H13.8612L11.4753 7.82507Z"/>
<path fill="#0052B4" d="M23.5353 10.2114C23.2989 9.33381 22.8927 8.52622 22.354 7.82544L19.9681 10.2114H23.5353Z"/>
<path fill="#0052B4" d="M10.2935 13.7889C10.5302 14.6665 10.9364 15.4741 11.4748 16.1749L13.8607 13.7889H10.2935Z"/>
<path fill="#0052B4" d="M21.0893 6.5604C20.3885 6.02167 19.5809 5.61587 18.7034 5.37915V8.94634L21.0893 6.5604Z"/>
<path fill="#0052B4" d="M12.7395 17.4395C13.4403 17.9783 14.2479 18.3844 15.1254 18.6208V15.0536L12.7395 17.4395Z"/>
<path fill="#0052B4" d="M15.1254 5.37891C14.2479 5.61563 13.4403 6.02176 12.7395 6.56016L15.1254 8.94609V5.37891Z"/>
<path fill="#0052B4" d="M18.7034 18.6208C19.5809 18.3844 20.3885 17.9783 21.0893 17.4395L18.7034 15.0536V18.6208Z"/>
<path fill="#0052B4" d="M19.9681 13.7889L22.354 16.1749C22.8927 15.4741 23.2985 14.6665 23.5353 13.7889H19.9681Z"/>
<path fill="#D80027" d="M23.7137 11.1057H17.8088V5.20075C17.5162 5.16258 17.2175 5.14282 16.9145 5.14282C16.6115 5.14282 16.3128 5.16258 16.0199 5.20075V11.1053H10.1153C10.0771 11.3983 10.0574 11.697 10.0574 12C10.0574 12.303 10.0771 12.6016 10.1153 12.8943H16.0199V18.7992C16.3128 18.8374 16.6112 18.8571 16.9145 18.8571C17.2175 18.8571 17.5162 18.837 17.8088 18.7992V12.8943H23.7137C23.7519 12.6016 23.7717 12.303 23.7717 12C23.7717 11.697 23.7516 11.3983 23.7137 11.1057Z"/>
<path fill="#D80027" d="M18.7034 13.7889L21.7633 16.8489C21.9043 16.7082 22.0382 16.5613 22.1664 16.4086L19.5468 13.7889H18.7034Z"/>
<path fill="#D80027" d="M15.1258 13.7889L12.0659 16.8489C12.2065 16.9898 12.3535 17.1238 12.5061 17.252L15.1258 14.6324V13.7889Z"/>
<path fill="#D80027" d="M15.1254 10.2114L12.0654 7.15112C11.9248 7.29175 11.7905 7.43873 11.6623 7.59141L14.2819 10.2111H15.1254V10.2114Z"/>
<path fill="#D80027" d="M18.7034 10.2114L21.7633 7.15142C21.6227 7.01079 21.4757 6.87653 21.323 6.74829L18.7034 9.36827V10.2114Z"/>
<path fill="#0052B4" d="M13.7143 12C13.7143 15.7868 10.644 18.8571 6.85714 18.8571C3.06998 18.8571 0 15.7871 0 12C0 8.2128 3.06998 5.14282 6.85714 5.14282C10.6443 5.14282 13.7143 8.2128 13.7143 12Z"/>
<path fill="#FFDA44" d="M6.85693 7.82605L7.07892 8.50942H7.79711L7.21586 8.93163L7.43784 9.615L6.85659 9.19279L6.27534 9.615L6.49733 8.93163L5.91608 8.50942H6.63461L6.85693 7.82605Z"/>
<path fill="#FFDA44" d="M3.90559 9.04851L4.54577 9.37462L5.05369 8.8667L4.94153 9.57618L5.58171 9.9023L4.87222 10.0148L4.75972 10.7243L4.43361 10.0841L3.72412 10.1966L4.23204 9.68868L3.90559 9.04851Z"/>
<path fill="#FFDA44" d="M2.68304 12L3.36642 11.778V11.0594L3.78863 11.6407L4.472 11.4187L4.04979 12L4.472 12.5812L3.78863 12.3592L3.36642 12.9405V12.2219L2.68304 12Z"/>
<path fill="#FFDA44" d="M3.90593 14.9514L4.23205 14.3112L3.72412 13.8033L4.43361 13.9158L4.75972 13.2756L4.87222 13.9855L5.58171 14.0976L4.94153 14.4237L5.0537 15.1332L4.54577 14.6253L3.90593 14.9514Z"/>
<path fill="#FFDA44" d="M6.85702 16.1738L6.63503 15.4905H5.9165L6.49775 15.0683L6.27577 14.3849L6.85702 14.8071L7.43827 14.3849L7.21628 15.0683L7.79753 15.4905H7.079L6.85702 16.1738Z"/>
<path fill="#FFDA44" d="M9.80869 14.9514L9.16851 14.6253L8.66025 15.1332L8.77275 14.4237L8.13257 14.0976L8.84206 13.9855L8.95422 13.2756L9.28034 13.9158L9.98983 13.8033L9.4819 14.3116L9.80869 14.9514Z"/>
<path fill="#FFDA44" d="M11.0309 12L10.3475 12.2219V12.9405L9.92531 12.3592L9.24194 12.5812L9.66415 12L9.24194 11.4187L9.92531 11.6407L10.3475 11.0594V11.778L11.0309 12Z"/>
<path fill="#FFDA44" d="M9.8085 9.04851L9.48239 9.68868L9.99031 10.1966L9.28082 10.0841L8.95471 10.7243L8.84254 10.0148L8.13306 9.9023L8.77324 9.57618L8.66074 8.8667L9.16899 9.37462L9.8085 9.04851Z"/>
<metadata symbolName="EURGBP" fileName="eurgbp.svg" id="grimlock-metadata-id" lastUpdate="2025-02-10T09:58:22.672931354" symbolId="17"/></svg>