<?xml version="1.0" encoding="UTF-8" standalone="no"?><svg xmlns="http://www.w3.org/2000/svg" xmlns:xlink="http://www.w3.org/1999/xlink" contentScriptType="text/ecmascript" fill="none" width="24" zoomAndPan="magnify" contentStyleType="text/css" viewBox="0 0 24 24" height="24" preserveAspectRatio="xMidYMid meet" version="1.0">
<circle fill="url(#paint0_linear_15235_116697)" r="6.35714" cx="16.9145" cy="12" stroke="#EEEEEE"/>
<g style="mix-blend-mode:multiply">
<path fill="#D80027" d="M17.0139 15.5928C18.9979 15.5928 20.6062 13.9844 20.6062 12.0005C20.6062 10.0165 18.9979 8.4082 17.0139 8.4082C15.0299 8.4082 13.4216 10.0165 13.4216 12.0005C13.4216 13.9844 15.0299 15.5928 17.0139 15.5928Z"/>
</g>
<path fill="#0052B4" d="M13.7143 12C13.7143 15.7868 10.644 18.8571 6.85714 18.8571C3.06998 18.8571 0 15.7871 0 12C0 8.2128 3.06998 5.14282 6.85714 5.14282C10.6443 5.14282 13.7143 8.2128 13.7143 12Z"/>
<path fill="#FFDA44" d="M6.85693 7.82605L7.07892 8.50942H7.79711L7.21586 8.93163L7.43784 9.615L6.85659 9.19279L6.27534 9.615L6.49733 8.93163L5.91608 8.50942H6.63461L6.85693 7.82605Z"/>
<path fill="#FFDA44" d="M3.90559 9.04851L4.54577 9.37462L5.05369 8.8667L4.94153 9.57618L5.58171 9.9023L4.87222 10.0148L4.75972 10.7243L4.43361 10.0841L3.72412 10.1966L4.23204 9.68868L3.90559 9.04851Z"/>
<path fill="#FFDA44" d="M2.68304 12L3.36642 11.778V11.0594L3.78863 11.6407L4.472 11.4187L4.04979 12L4.472 12.5812L3.78863 12.3592L3.36642 12.9405V12.2219L2.68304 12Z"/>
<path fill="#FFDA44" d="M3.90593 14.9514L4.23205 14.3112L3.72412 13.8033L4.43361 13.9158L4.75972 13.2756L4.87222 13.9855L5.58171 14.0976L4.94153 14.4237L5.0537 15.1332L4.54577 14.6253L3.90593 14.9514Z"/>
<path fill="#FFDA44" d="M6.85702 16.1738L6.63503 15.4905H5.9165L6.49775 15.0683L6.27577 14.3849L6.85702 14.8071L7.43827 14.3849L7.21628 15.0683L7.79753 15.4905H7.079L6.85702 16.1738Z"/>
<path fill="#FFDA44" d="M9.80869 14.9514L9.16851 14.6253L8.66025 15.1332L8.77275 14.4237L8.13257 14.0976L8.84206 13.9855L8.95422 13.2756L9.28034 13.9158L9.98983 13.8033L9.4819 14.3116L9.80869 14.9514Z"/>
<path fill="#FFDA44" d="M11.0309 12L10.3475 12.2219V12.9405L9.92531 12.3592L9.24194 12.5812L9.66415 12L9.24194 11.4187L9.92531 11.6407L10.3475 11.0594V11.778L11.0309 12Z"/>
<path fill="#FFDA44" d="M9.8085 9.04851L9.48239 9.68868L9.99031 10.1966L9.28082 10.0841L8.95471 10.7243L8.84254 10.0148L8.13306 9.9023L8.77324 9.57618L8.66074 8.8667L9.16899 9.37462L9.8085 9.04851Z"/>
<defs>
<linearGradient x1="16.9145" gradientUnits="userSpaceOnUse" x2="16.9145" y1="5.14282" y2="18.8571" xlink:type="simple" xlink:actuate="onLoad" id="paint0_linear_15235_116697" xlink:show="other">
<stop stop-color="white" offset="0.567708"/>
<stop stop-color="#D1D1D1" offset="1"/>
</linearGradient>
</defs>
<metadata symbolName="EURJPY" fileName="eurjpy.svg" id="grimlock-metadata-id" lastUpdate="2025-02-10T09:58:22.672963376" symbolId="20"/></svg>