<?xml version="1.0" encoding="UTF-8" standalone="no"?><svg xmlns="http://www.w3.org/2000/svg" xmlns:xlink="http://www.w3.org/1999/xlink" contentScriptType="text/ecmascript" fill="none" width="24" zoomAndPan="magnify" contentStyleType="text/css" viewBox="0 0 24 24" height="24" preserveAspectRatio="xMidYMid meet" version="1.0">
<path fill="url(#paint0_linear_15235_116699)" d="M23.7714 12C23.7714 15.7868 20.7011 18.8571 16.9143 18.8571C13.1271 18.8571 10.0571 15.7871 10.0571 12C10.0571 12.0016 16.9143 5.14349 16.9143 5.14282C20.7014 5.14282 23.7714 8.2128 23.7714 12Z"/>
<path fill="#D80027" d="M20.2843 8.14417L20.4695 8.7137H21.0682L20.5837 9.06559L20.7688 9.63512L20.2847 9.28323L19.8002 9.63479L19.985 9.06526L19.5009 8.71336H20.0995L20.2843 8.14417Z"/>
<path fill="#F0F0F0" d="M16.896 12H16.9144V11.9816C16.9084 11.9876 16.902 11.994 16.896 12Z"/>
<path fill="#F0F0F0" d="M16.9143 8.72039V5.14282H16.9129C13.1264 5.14349 10.0571 8.21313 10.0571 12H13.6347V9.98534L15.6493 12H16.8959C16.9019 11.9939 16.9079 11.9876 16.9143 11.9815V10.735L14.8997 8.72039H16.9143V8.72039Z"/>
<path fill="#D80027" d="M13.5261 6.03711C12.4537 6.64782 11.5621 7.53945 10.9514 8.61189V11.9999H12.7403V7.82606H16.9142V6.03711H13.5261Z"/>
<path fill="#D80027" d="M16.9144 11.1565L14.4782 8.72034H13.6348L16.9144 11.9999V11.1565Z"/>
<path fill="#D80027" d="M21.9321 10.2311L22.0801 10.6864H22.5589L22.1715 10.968L22.3195 11.4237L21.9321 11.1421L21.5448 11.4237L21.6927 10.968L21.3054 10.6864H21.7842L21.9321 10.2311Z"/>
<path fill="#D80027" d="M20.22 13.5104L20.442 14.1937H21.1605L20.5793 14.616L20.8012 15.2993L20.22 14.8771L19.6387 15.2993L19.8607 14.616L19.2795 14.1937H19.998L20.22 13.5104Z"/>
<path fill="#D80027" d="M18.6374 10.2113L18.8593 10.8947H19.5779L18.9966 11.3169L19.2186 12.0003L18.6374 11.578L18.0561 11.9999L18.2781 11.3165L17.6968 10.8943H18.4154L18.6374 10.2113Z"/>
<path fill="#0052B4" d="M13.7143 12C13.7143 15.7868 10.644 18.8571 6.85714 18.8571C3.06998 18.8571 0 15.7871 0 12C0 8.2128 3.06998 5.14282 6.85714 5.14282C10.6443 5.14282 13.7143 8.2128 13.7143 12Z"/>
<path fill="#FFDA44" d="M3.90559 9.04851L4.54577 9.37462L5.05369 8.8667L4.94153 9.57618L5.58171 9.9023L4.87222 10.0148L4.75972 10.7243L4.43361 10.0841L3.72412 10.1966L4.23204 9.68868L3.90559 9.04851Z"/>
<path fill="#FFDA44" d="M2.68304 12L3.36642 11.778V11.0594L3.78863 11.6407L4.472 11.4187L4.04979 12L4.472 12.5812L3.78863 12.3592L3.36642 12.9405V12.2219L2.68304 12Z"/>
<path fill="#FFDA44" d="M3.90593 14.9514L4.23205 14.3112L3.72412 13.8033L4.43361 13.9158L4.75972 13.2756L4.87222 13.9855L5.58171 14.0976L4.94153 14.4237L5.0537 15.1332L4.54577 14.6253L3.90593 14.9514Z"/>
<path fill="#FFDA44" d="M9.80869 14.9514L9.16851 14.6253L8.66025 15.1332L8.77275 14.4237L8.13257 14.0976L8.84206 13.9855L8.95422 13.2756L9.28034 13.9158L9.98983 13.8033L9.4819 14.3116L9.80869 14.9514Z"/>
<path fill="#FFDA44" d="M11.0309 12L10.3475 12.2219V12.9405L9.92531 12.3592L9.24194 12.5812L9.66415 12L9.24194 11.4187L9.92531 11.6407L10.3475 11.0594V11.778L11.0309 12Z"/>
<path fill="#FFDA44" d="M9.8085 9.04851L9.48239 9.68868L9.99031 10.1966L9.28082 10.0841L8.95471 10.7243L8.84254 10.0148L8.13306 9.9023L8.77324 9.57618L8.66074 8.8667L9.16899 9.37462L9.8085 9.04851Z"/>
<path fill="#FFDA44" d="M6.85693 7.82605L7.07892 8.50942H7.79711L7.21586 8.93163L7.43784 9.615L6.85659 9.19279L6.27534 9.615L6.49733 8.93163L5.91608 8.50942H6.63461L6.85693 7.82605Z"/>
<path fill="#FFDA44" d="M6.85702 16.1738L6.63503 15.4905H5.9165L6.49775 15.0683L6.27577 14.3849L6.85702 14.8071L7.43827 14.3849L7.21628 15.0683L7.79753 15.4905H7.079L6.85702 16.1738Z"/>
<defs>
<linearGradient x1="10.7428" gradientUnits="userSpaceOnUse" x2="23.7714" y1="11.3143" y2="11.3143" xlink:type="simple" xlink:actuate="onLoad" id="paint0_linear_15235_116699" xlink:show="other">
<stop stop-color="#00418E" offset="0.328947"/>
<stop stop-color="#0052B4" offset="1"/>
</linearGradient>
</defs>
<metadata symbolName="EURNZD" fileName="eurnzd.svg" id="grimlock-metadata-id" lastUpdate="2025-02-10T09:58:22.672974987" symbolId="33"/></svg>