<?xml version="1.0" encoding="UTF-8" standalone="no"?><svg xmlns="http://www.w3.org/2000/svg" xmlns:xlink="http://www.w3.org/1999/xlink" contentScriptType="text/ecmascript" fill="none" width="24" zoomAndPan="magnify" contentStyleType="text/css" viewBox="0 0 24 24" height="24" preserveAspectRatio="xMidYMid meet" version="1.0">
<circle fill="#BD3D44" r="6.85714" cx="17.1429" cy="12"/>
<path fill="white" clip-rule="evenodd" d="M13.4485 6.21985C12.994 6.51065 12.576 6.85358 12.2031 7.24022H22.0752C21.7022 6.85358 21.2843 6.51065 20.8298 6.21985H13.4485ZM10.7767 9.43796C10.9318 9.05314 11.1208 8.68563 11.34 8.33912H22.9383C23.1575 8.68563 23.3465 9.05314 23.5016 9.43796H10.7767ZM10.4384 10.5369C10.3718 10.8437 10.3256 11.1581 10.3015 11.4788H23.9768C23.9527 11.1581 23.9065 10.8437 23.8398 10.5369H10.4384ZM10.4509 13.5196C10.377 13.1929 10.3264 12.8574 10.301 12.5149H23.9772C23.9518 12.8574 23.9012 13.1929 23.8273 13.5196H10.4509ZM10.7997 14.6185C10.959 15.0037 11.1524 15.3713 11.3761 15.7175H22.9022C23.1259 15.3713 23.3193 15.0037 23.4786 14.6185H10.7997ZM13.4139 17.7581C12.9949 17.4864 12.6074 17.1703 12.2582 16.8164H22.0201C21.6708 17.1703 21.2833 17.4864 20.8643 17.7581H13.4139ZM17.0789 18.857C17.0989 18.8571 17.119 18.8572 17.1391 18.8572C17.1592 18.8572 17.1793 18.8571 17.1994 18.857H17.0789Z" fill-rule="evenodd"/>
<path fill="#00418E" clip-rule="evenodd" d="M10.3053 12.5212C10.2923 12.3491 10.2858 12.1753 10.2858 12C10.2858 8.21287 13.3558 5.14282 17.1429 5.14282C17.4256 5.14282 17.7043 5.15993 17.9781 5.19317V12.5212H10.3053Z" fill-rule="evenodd"/>
<path fill="white" clip-rule="evenodd" d="M13.7967 6.02388C13.7572 6.0462 13.7179 6.0689 13.6788 6.09197L13.8638 6.2242L13.7967 6.02388ZM13.0801 6.48938C12.9415 6.59219 12.807 6.7001 12.6767 6.81284L12.7214 6.78134L12.9734 6.96081L12.8776 6.66884L13.1323 6.48938H13.0801ZM12.0093 7.4752C11.9783 7.51039 11.9478 7.5459 11.9176 7.58172L12.0831 7.70009L12.0093 7.4752ZM10.798 9.44116C10.7784 9.4898 10.7594 9.5387 10.7409 9.58788L10.7874 9.62063L10.6887 9.91527L10.9435 9.73313L11.1983 9.91527L11.0997 9.62331L11.3544 9.44384H11.0421L10.9435 9.15188L10.8476 9.44116H10.798ZM15.3842 5.45813L15.4828 5.75009H15.7951L15.543 5.92956L15.6389 6.2242L15.3842 6.04206L15.1321 6.22152L15.228 5.92956L14.976 5.75009H15.2883L15.3842 5.45813ZM17.1621 5.45813L17.2579 5.75009H17.573L17.3182 5.92956L17.4168 6.2242L17.1621 6.04206L16.9073 6.22152L17.0059 5.92956L16.7511 5.75009H17.0662L17.1621 5.45813ZM14.4966 6.19742L14.5952 6.48938H14.9075L14.6527 6.66884L14.7513 6.96081L14.4966 6.78134L14.2445 6.96081L14.3404 6.66884L14.0857 6.48938H14.4034L14.4966 6.19742ZM16.2745 6.19742L16.3704 6.48938H16.6854L16.4306 6.66884L16.5265 6.96081L16.2745 6.78134L16.0197 6.96081L16.1156 6.66884L15.8636 6.48938H16.1759L16.2745 6.19742ZM13.609 6.93402L13.7049 7.22866H14.0199L13.7651 7.40813L13.8638 7.70009L13.609 7.51795L13.3542 7.70009L13.4528 7.40545L13.1981 7.22599H13.5104L13.609 6.93402ZM15.3842 6.93402L15.4828 7.22866H15.7951L15.543 7.40813L15.6389 7.70009L15.3842 7.51795L15.1321 7.70009L15.228 7.40545L14.976 7.22599H15.2883L15.3842 6.93402ZM17.1621 6.93402L17.2579 7.22866H17.573L17.3182 7.40813L17.4168 7.70009L17.1621 7.51795L16.9073 7.70009L17.0059 7.40545L16.7511 7.22599H17.0662L17.1621 6.93402ZM12.7214 7.67331L12.8173 7.96527H13.1323L12.8776 8.14474L12.9734 8.43938L12.7214 8.25724L12.4666 8.4367L12.5625 8.14474L12.3105 7.96527H12.6228L12.7214 7.67331ZM14.4966 7.67331L14.5952 7.96527H14.9075L14.6555 8.14474L14.7513 8.43938L14.4966 8.25724L14.2445 8.4367L14.3404 8.14474L14.0857 7.96527H14.4034L14.4966 7.67331ZM16.2745 7.67331L16.3704 7.96527H16.6854L16.4306 8.14474L16.5265 8.43938L16.2745 8.25724L16.0197 8.4367L16.1156 8.14474L15.8636 7.96527H16.1759L16.2745 7.67331ZM11.8311 8.41259L11.9297 8.70456H12.2393L11.9872 8.88402L12.0831 9.17866L11.8284 8.99652L11.5763 9.17599L11.6722 8.88402L11.4174 8.70456H11.7325L11.8311 8.41259ZM13.609 8.41259L13.7049 8.70456H14.0199L13.7651 8.88402L13.8638 9.17866L13.609 8.99652L13.3542 9.17599L13.4528 8.88402L13.1981 8.70456H13.5104L13.609 8.41259ZM15.3842 8.41259L15.4828 8.70456H15.7951L15.543 8.88402L15.6389 9.17866L15.3842 8.99652L15.1321 9.17599L15.228 8.88402L14.976 8.70456H15.2883L15.3842 8.41259ZM17.1621 8.41259L17.2579 8.70456H17.573L17.3182 8.88402L17.4168 9.17866L17.1621 8.99652L16.9073 9.17599L17.0059 8.88402L16.7511 8.70456H17.0662L17.1621 8.41259ZM12.7214 9.15188L12.8173 9.44384H13.1323L12.8776 9.62331L12.9734 9.91527L12.7214 9.73313L12.4666 9.91527L12.5625 9.62063L12.3105 9.44116H12.6228L12.7214 9.15188ZM14.4966 9.15188L14.5952 9.44384H14.9075L14.6555 9.62331L14.7513 9.91527L14.4966 9.73313L14.2445 9.91527L14.3404 9.62063L14.0857 9.44116H14.4034L14.4966 9.15188ZM16.2745 9.15188L16.3704 9.44384H16.6854L16.4306 9.62331L16.5265 9.91527L16.2745 9.73313L16.0197 9.91527L16.1156 9.62063L15.8636 9.44116H16.1759L16.2745 9.15188ZM11.8311 9.88848L11.9297 10.1831H12.2393L11.9872 10.3626L12.0831 10.6519L11.8284 10.4724L11.5763 10.6519L11.6722 10.3599L11.4174 10.1804H11.7325L11.8311 9.88848ZM13.609 9.88848L13.7049 10.1831H14.0199L13.7651 10.3626L13.8638 10.6519L13.609 10.4724L13.3542 10.6519L13.4528 10.3599L13.1981 10.1804H13.5104L13.609 9.88848ZM15.3842 9.88848L15.4828 10.1831H15.7951L15.543 10.3626L15.6389 10.6519L15.3842 10.4724L15.1321 10.6519L15.228 10.3599L14.976 10.1804H15.2883L15.3842 9.88848ZM17.1621 9.88848L17.2579 10.1831H17.573L17.3182 10.3626L17.4168 10.6519L17.1621 10.4724L16.9073 10.6519L17.0059 10.3599L16.7511 10.1804H17.0662L17.1621 9.88848ZM10.9435 10.6278L11.0421 10.9197H11.3544L11.0997 11.0992L11.1983 11.3938L10.9435 11.2117L10.6887 11.3912L10.7874 11.0992L10.5326 10.9197H10.8476L10.9435 10.6278ZM12.7214 10.6278L12.8173 10.9197H13.1323L12.8776 11.0992L12.9734 11.3938L12.7214 11.2117L12.4666 11.3912L12.5625 11.0992L12.3105 10.9197H12.6228L12.7214 10.6278ZM14.4966 10.6278L14.5952 10.9197H14.9075L14.6555 11.0992L14.7513 11.3938L14.4966 11.2117L14.2445 11.3912L14.3404 11.0992L14.0857 10.9197H14.4034L14.4966 10.6278ZM16.2745 10.6278L16.3704 10.9197H16.6854L16.4306 11.0992L16.5265 11.3938L16.2745 11.2117L16.0197 11.3912L16.1156 11.0992L15.8636 10.9197H16.1759L16.2745 10.6278ZM11.8311 11.3671L11.9297 11.659H12.2393L11.9927 11.8385L12.0886 12.1304L11.8338 11.951L11.5818 12.1304L11.6777 11.8358L11.4229 11.6563H11.738L11.8311 11.3671ZM13.609 11.3671L13.7049 11.659H14.0199L13.7651 11.8385L13.8638 12.1304L13.609 11.951L13.3542 12.1304L13.4528 11.8358L13.1981 11.6563H13.5104L13.609 11.3671ZM15.3842 11.3671L15.4828 11.659H15.7951L15.543 11.8385L15.6389 12.1304L15.3842 11.951L15.1321 12.1304L15.228 11.8358L14.976 11.6563H15.2883L15.3842 11.3671ZM17.1621 11.3671L17.2579 11.659H17.573L17.3182 11.8385L17.4168 12.1304L17.1621 11.951L16.9073 12.1304L17.0059 11.8358L16.7511 11.6563H17.0662L17.1621 11.3671Z" fill-rule="evenodd"/>
<path fill="#0052B4" d="M13.7143 12C13.7143 15.7868 10.644 18.8571 6.85714 18.8571C3.06998 18.8571 0 15.7871 0 12C0 8.2128 3.06998 5.14282 6.85714 5.14282C10.6443 5.14282 13.7143 8.2128 13.7143 12Z"/>
<path fill="#FFDA44" d="M6.85687 7.82605L7.07885 8.50942H7.79705L7.2158 8.93163L7.43778 9.615L6.85653 9.19279L6.27528 9.615L6.49727 8.93163L5.91602 8.50942H6.63455L6.85687 7.82605Z"/>
<path fill="#FFDA44" d="M3.90559 9.04851L4.54577 9.37462L5.05369 8.8667L4.94153 9.57618L5.58171 9.9023L4.87222 10.0148L4.75972 10.7243L4.43361 10.0841L3.72412 10.1966L4.23204 9.68868L3.90559 9.04851Z"/>
<path fill="#FFDA44" d="M2.68298 12L3.36635 11.778V11.0594L3.78856 11.6407L4.47193 11.4187L4.04972 12L4.47193 12.5812L3.78856 12.3592L3.36635 12.9405V12.2219L2.68298 12Z"/>
<path fill="#FFDA44" d="M3.90593 14.9514L4.23205 14.3112L3.72412 13.8033L4.43361 13.9158L4.75972 13.2756L4.87222 13.9855L5.58171 14.0976L4.94153 14.4237L5.0537 15.1332L4.54577 14.6253L3.90593 14.9514Z"/>
<path fill="#FFDA44" d="M6.85702 16.1738L6.63503 15.4905H5.9165L6.49775 15.0683L6.27577 14.3849L6.85702 14.8071L7.43827 14.3849L7.21628 15.0683L7.79753 15.4905H7.079L6.85702 16.1738Z"/>
<path fill="#FFDA44" d="M9.80869 14.9514L9.16851 14.6253L8.66025 15.1332L8.77275 14.4237L8.13257 14.0976L8.84206 13.9855L8.95422 13.2756L9.28034 13.9158L9.98983 13.8033L9.4819 14.3116L9.80869 14.9514Z"/>
<path fill="#FFDA44" d="M11.0309 12L10.3475 12.2219V12.9405L9.92531 12.3592L9.24194 12.5812L9.66415 12L9.24194 11.4187L9.92531 11.6407L10.3475 11.0594V11.778L11.0309 12Z"/>
<path fill="#FFDA44" d="M9.8085 9.04851L9.48239 9.68868L9.99031 10.1966L9.28082 10.0841L8.95471 10.7243L8.84254 10.0148L8.13306 9.9023L8.77324 9.57618L8.66074 8.8667L9.16899 9.37462L9.8085 9.04851Z"/>
<metadata symbolName="EURUSD" fileName="eurusd.svg" id="grimlock-metadata-id" lastUpdate="2025-02-10T09:58:22.673139887" symbolId="0"/></svg>