<?xml version="1.0" encoding="UTF-8"?>
<!DOCTYPE svg PUBLIC "-//W3C//DTD SVG 1.0//EN" "http://www.w3.org/TR/2001/REC-SVG-20010904/DTD/svg10.dtd">
<!-- Creator: CorelDRAW X8 -->
<svg xmlns="http://www.w3.org/2000/svg" xml:space="preserve" width="11.6929in" height="8.26772in" version="1.0" shape-rendering="geometricPrecision" text-rendering="geometricPrecision" image-rendering="optimizeQuality" fill-rule="evenodd" clip-rule="evenodd"
viewBox="0 0 11693 8268"
 xmlns:xlink="http://www.w3.org/1999/xlink">
 <g id="Layer_x0020_1">
  <metadata id="CorelCorpID_0Corel-Layer"/>
  <path fill="#93A0B3" fill-rule="nonzero" d="M6218 3757l-442 177 267 271 175 -448zm-985 881l300 -770 1 -1 0 0 0 -2 1 0 0 -2 0 0 1 -2 0 0c5,-9 10,-16 16,-23l0 0 1 -1 1 -1 0 0 1 0c6,-7 14,-12 22,-16l0 -1 2 0 1 -1 1 0 1 -1 1 0 0 0 1 0 380 -153 380 -152c21,-9 44,-9 66,0 46,18 69,71 50,117l-299 768 -1 1 0 1 0 0 0 0 0 1 -1 0 0 1 0 0 0 0 0 2 -1 0 0 0 -1 2 0 0 0 2 -1 2 0 0 -1 0 0 1 0 0 0 1 -1 0 0 0 0 1 0 0 -1 1 0 0 0 0 -1 2 0 0 0 0 0 1 -1 1 0 0 0 0 -1 1 0 0 0 1 -1 0 0 1 -1 0 0 1 0 0 -1 1 0 0 0 0 0 0 -1 2 0 0 -1 1 0 0 -1 1 0 0 0 0 -1 1 0 0 0 1 0 0 -1 0 -1 1 0 0 0 1 -1 0 0 0 0 1 -1 0 0 1 -1 0 0 1 0 0 -1 1 -1 0 0 0 0 0 -1 1 0 0 0 1 -1 0 0 0 -1 1 0 0 -1 0 -1 1 0 1 0 0 0 0 -1 0 0 1 -1 0 0 0 -1 1 0 0 -1 1 -1 0 0 0 0 1 -1 0 -1 0 0 1 0 0 -1 0 -1 1 0 0 0 0 -1 0 0 1 -1 0 0 0 0 0 -1 0 0 1 -1 0 0 0 0 0 -2 1 -2 1 0 0 -2 1 0 0 0 0 -2 1 0 0 0 0 -1 0 0 0 -1 1 0 0 0 0 -1 0 -1 0 -757 304c-46,18 -98,-4 -116,-51 -9,-22 -8,-46 0,-67zm317 -318l-75 190 442 -177 -267 -270 -100 257z"/>
 </g>
</svg>
