<?xml version="1.0" encoding="UTF-8" standalone="no"?><svg xmlns="http://www.w3.org/2000/svg" xmlns:xlink="http://www.w3.org/1999/xlink" contentScriptType="text/ecmascript" fill="none" width="25" zoomAndPan="magnify" contentStyleType="text/css" viewBox="0 0 25 25" height="25" preserveAspectRatio="xMidYMid meet" version="1.0">
<g clip-path="url(#clip0_15237_137244)">
<circle fill="#BD3D44" r="6.85714" cx="17.815" cy="12.5489"/>
<path fill="white" clip-rule="evenodd" d="M14.1205 6.76874C13.666 7.05954 13.2481 7.40247 12.8752 7.78911H22.7472C22.3743 7.40247 21.9564 7.05954 21.5019 6.76874H14.1205ZM11.4487 9.98685C11.6038 9.60203 11.7928 9.23452 12.0121 8.88801H23.6103C23.8295 9.23452 24.0185 9.60203 24.1737 9.98685H11.4487ZM11.1105 11.0858C11.0438 11.3926 10.9977 11.707 10.9736 12.0277H24.6488C24.6247 11.707 24.5786 11.3926 24.5119 11.0858H11.1105ZM11.123 14.0685C11.0491 13.7418 10.9985 13.4063 10.9731 13.0638H24.6493C24.6239 13.4063 24.5733 13.7418 24.4994 14.0685H11.123ZM11.4717 15.1674C11.631 15.5526 11.8244 15.9202 12.0481 16.2664H23.5742C23.798 15.9202 23.9914 15.5526 24.1507 15.1674H11.4717ZM14.086 18.3069C13.667 18.0353 13.2795 17.7192 12.9302 17.3653H22.6922C22.3429 17.7192 21.9554 18.0353 21.5364 18.3069H14.086ZM17.7509 19.4058C17.771 19.406 17.7911 19.4061 17.8112 19.4061C17.8313 19.4061 17.8514 19.406 17.8715 19.4058H17.7509Z" fill-rule="evenodd"/>
<path fill="#00418E" clip-rule="evenodd" d="M10.9773 13.07C10.9644 12.898 10.9578 12.7242 10.9578 12.5489C10.9578 8.76176 14.0279 5.69171 17.815 5.69171C18.0977 5.69171 18.3764 5.70882 18.6501 5.74206V13.07H10.9773Z" fill-rule="evenodd"/>
<path fill="white" clip-rule="evenodd" d="M14.4688 6.57283C14.4292 6.59515 14.3899 6.61785 14.3509 6.64092L14.5358 6.77315L14.4688 6.57283ZM13.7522 7.03833C13.6136 7.14114 13.479 7.24905 13.3488 7.36179L13.3935 7.33029L13.6455 7.50976L13.5496 7.21779L13.8044 7.03833H13.7522ZM12.6813 8.02415C12.6504 8.05934 12.6198 8.09485 12.5896 8.13067L12.7552 8.24904L12.6813 8.02415ZM11.47 9.99011C11.4504 10.0387 11.4314 10.0877 11.4129 10.1368L11.4594 10.1696L11.3608 10.4642L11.6156 10.2821L11.8703 10.4642L11.7717 10.1723L12.0265 9.99279H11.7142L11.6156 9.70083L11.5197 9.99011H11.47ZM16.0562 6.00708L16.1548 6.29904H16.4671L16.2151 6.47851L16.311 6.77315L16.0562 6.59101L15.8042 6.77047L15.9001 6.47851L15.648 6.29904H15.9603L16.0562 6.00708ZM17.8341 6.00708L17.93 6.29904H18.245L17.9903 6.47851L18.0889 6.77315L17.8341 6.59101L17.5793 6.77047L17.678 6.47851L17.4232 6.29904H17.7382L17.8341 6.00708ZM15.1686 6.74637L15.2673 7.03833H15.5796L15.3248 7.21779L15.4234 7.50976L15.1686 7.33029L14.9166 7.50976L15.0125 7.21779L14.7577 7.03833H15.0755L15.1686 6.74637ZM16.9465 6.74637L17.0424 7.03833H17.3575L17.1027 7.21779L17.1986 7.50976L16.9465 7.33029L16.6918 7.50976L16.7876 7.21779L16.5356 7.03833H16.8479L16.9465 6.74637ZM14.2811 7.48297L14.3769 7.77761H14.692L14.4372 7.95708L14.5358 8.24904L14.2811 8.0669L14.0263 8.24904L14.1249 7.9544L13.8701 7.77494H14.1824L14.2811 7.48297ZM16.0562 7.48297L16.1548 7.77761H16.4671L16.2151 7.95708L16.311 8.24904L16.0562 8.0669L15.8042 8.24904L15.9001 7.9544L15.648 7.77494H15.9603L16.0562 7.48297ZM17.8341 7.48297L17.93 7.77761H18.245L17.9903 7.95708L18.0889 8.24904L17.8341 8.0669L17.5793 8.24904L17.678 7.9544L17.4232 7.77494H17.7382L17.8341 7.48297ZM13.3935 8.22226L13.4894 8.51422H13.8044L13.5496 8.69369L13.6455 8.98833L13.3935 8.80619L13.1387 8.98565L13.2346 8.69369L12.9826 8.51422H13.2949L13.3935 8.22226ZM15.1686 8.22226L15.2673 8.51422H15.5796L15.3275 8.69369L15.4234 8.98833L15.1686 8.80619L14.9166 8.98565L15.0125 8.69369L14.7577 8.51422H15.0755L15.1686 8.22226ZM16.9465 8.22226L17.0424 8.51422H17.3575L17.1027 8.69369L17.1986 8.98833L16.9465 8.80619L16.6918 8.98565L16.7876 8.69369L16.5356 8.51422H16.8479L16.9465 8.22226ZM12.5032 8.96154L12.6018 9.25351H12.9113L12.6593 9.43297L12.7552 9.72761L12.5004 9.54547L12.2484 9.72494L12.3443 9.43297L12.0895 9.25351H12.4045L12.5032 8.96154ZM14.2811 8.96154L14.3769 9.25351H14.692L14.4372 9.43297L14.5358 9.72761L14.2811 9.54547L14.0263 9.72494L14.1249 9.43297L13.8701 9.25351H14.1824L14.2811 8.96154ZM16.0562 8.96154L16.1548 9.25351H16.4671L16.2151 9.43297L16.311 9.72761L16.0562 9.54547L15.8042 9.72494L15.9001 9.43297L15.648 9.25351H15.9603L16.0562 8.96154ZM17.8341 8.96154L17.93 9.25351H18.245L17.9903 9.43297L18.0889 9.72761L17.8341 9.54547L17.5793 9.72494L17.678 9.43297L17.4232 9.25351H17.7382L17.8341 8.96154ZM13.3935 9.70083L13.4894 9.99279H13.8044L13.5496 10.1723L13.6455 10.4642L13.3935 10.2821L13.1387 10.4642L13.2346 10.1696L12.9826 9.99011H13.2949L13.3935 9.70083ZM15.1686 9.70083L15.2673 9.99279H15.5796L15.3275 10.1723L15.4234 10.4642L15.1686 10.2821L14.9166 10.4642L15.0125 10.1696L14.7577 9.99011H15.0755L15.1686 9.70083ZM16.9465 9.70083L17.0424 9.99279H17.3575L17.1027 10.1723L17.1986 10.4642L16.9465 10.2821L16.6918 10.4642L16.7876 10.1696L16.5356 9.99011H16.8479L16.9465 9.70083ZM12.5032 10.4374L12.6018 10.7321H12.9113L12.6593 10.9115L12.7552 11.2008L12.5004 11.0214L12.2484 11.2008L12.3443 10.9089L12.0895 10.7294H12.4045L12.5032 10.4374ZM14.2811 10.4374L14.3769 10.7321H14.692L14.4372 10.9115L14.5358 11.2008L14.2811 11.0214L14.0263 11.2008L14.1249 10.9089L13.8701 10.7294H14.1824L14.2811 10.4374ZM16.0562 10.4374L16.1548 10.7321H16.4671L16.2151 10.9115L16.311 11.2008L16.0562 11.0214L15.8042 11.2008L15.9001 10.9089L15.648 10.7294H15.9603L16.0562 10.4374ZM17.8341 10.4374L17.93 10.7321H18.245L17.9903 10.9115L18.0889 11.2008L17.8341 11.0214L17.5793 11.2008L17.678 10.9089L17.4232 10.7294H17.7382L17.8341 10.4374ZM11.6156 11.1767L11.7142 11.4687H12.0265L11.7717 11.6481L11.8703 11.9428L11.6156 11.7606L11.3608 11.9401L11.4594 11.6481L11.2047 11.4687H11.5197L11.6156 11.1767ZM13.3935 11.1767L13.4894 11.4687H13.8044L13.5496 11.6481L13.6455 11.9428L13.3935 11.7606L13.1387 11.9401L13.2346 11.6481L12.9826 11.4687H13.2949L13.3935 11.1767ZM15.1686 11.1767L15.2673 11.4687H15.5796L15.3275 11.6481L15.4234 11.9428L15.1686 11.7606L14.9166 11.9401L15.0125 11.6481L14.7577 11.4687H15.0755L15.1686 11.1767ZM16.9465 11.1767L17.0424 11.4687H17.3575L17.1027 11.6481L17.1986 11.9428L16.9465 11.7606L16.6918 11.9401L16.7876 11.6481L16.5356 11.4687H16.8479L16.9465 11.1767ZM12.5032 11.916L12.6018 12.208H12.9113L12.6648 12.3874L12.7607 12.6794L12.5059 12.4999L12.2539 12.6794L12.3497 12.3848L12.095 12.2053H12.41L12.5032 11.916ZM14.2811 11.916L14.3769 12.208H14.692L14.4372 12.3874L14.5358 12.6794L14.2811 12.4999L14.0263 12.6794L14.1249 12.3848L13.8701 12.2053H14.1824L14.2811 11.916ZM16.0562 11.916L16.1548 12.208H16.4671L16.2151 12.3874L16.311 12.6794L16.0562 12.4999L15.8042 12.6794L15.9001 12.3848L15.648 12.2053H15.9603L16.0562 11.916ZM17.8341 11.916L17.93 12.208H18.245L17.9903 12.3874L18.0889 12.6794L17.8341 12.4999L17.5793 12.6794L17.678 12.3848L17.4232 12.2053H17.7382L17.8341 11.916Z" fill-rule="evenodd"/>
<g clip-path="url(#clip1_15237_137244)">
<path fill="#202944" clip-rule="evenodd" d="M7.52635 19.7169C3.75652 19.7169 0.672119 16.6321 0.672119 12.8276C0.70639 9.05735 3.75652 5.9726 7.56062 6.00687C11.3304 6.04115 14.3806 9.09163 14.3806 12.9304C14.3463 16.6664 11.2962 19.7169 7.52635 19.7169Z" fill-rule="evenodd"/>
<g clip-path="url(#clip2_15237_137244)">
<rect fill="white" width="9.01217" height="9.15973" transform="translate(3.02026 8.34918)"/>
<path fill="#202944" d="M3.02026 8.34918V17.5089H12.0324V8.34918H3.02026ZM6.17086 9.41171H7.01346V10.291H6.17086V9.41171ZM4.04604 9.41171H4.92527V10.291H4.04604V9.41171ZM4.88864 11.5368V12.4161H4.0094V11.5368H4.88864ZM4.66883 16.3731H4.30248V16.0434H4.6322V16.3731H4.66883ZM4.92527 14.6144H4.04604V13.7717H4.92527V14.6144ZM6.79365 16.3731H6.46394V16.0434H6.79365V16.3731ZM6.79365 14.3213H6.46394V13.9916H6.79365V14.3213ZM7.05009 12.4527H6.17086V11.5734H7.05009V12.4527ZM8.91847 16.3731H8.58876V16.0434H8.91847V16.3731ZM8.91847 14.3213H8.58876V13.9916H8.91847V14.3213ZM8.91847 12.1596H8.58876V11.8299H8.91847V12.1596ZM9.21155 10.291H8.33231V9.41171H9.21155V10.291ZM11.0799 16.3731H10.7502V16.0434H11.0799V16.3731ZM11.0799 14.3213H10.7502V13.9916H11.0799V14.3213ZM11.0799 12.1596H10.7502V11.8299H11.0799V12.1596ZM11.0799 10.0346H10.7502V9.70482H11.0799V10.0346Z"/>
</g>
</g>
</g>
<defs>
<clipPath id="clip0_15237_137244">
<rect fill="white" width="24" height="24" transform="translate(0.672119 0.548828)"/>
</clipPath>
<clipPath id="clip1_15237_137244">
<rect fill="white" width="13.7085" height="13.71" transform="translate(0.672119 6.00708)"/>
</clipPath>
<clipPath id="clip2_15237_137244">
<rect fill="white" width="9.01217" height="9.15973" transform="translate(3.02026 8.34918)"/>
</clipPath>
</defs>
<metadata symbolName="FETUSD" fileName="fetusd.svg" id="grimlock-metadata-id" lastUpdate="2025-02-10T09:58:22.673189240" symbolId="1434"/></svg>