<?xml version="1.0" encoding="UTF-8" standalone="no"?><svg xmlns="http://www.w3.org/2000/svg" xmlns:xlink="http://www.w3.org/1999/xlink" contentScriptType="text/ecmascript" fill="none" width="25" zoomAndPan="magnify" contentStyleType="text/css" viewBox="0 0 25 25" height="25" preserveAspectRatio="xMidYMid meet" version="1.0">
<g clip-path="url(#clip0_15237_137304)">
<circle fill="#BD3D44" r="6.85714" cx="17.815" cy="12.1392"/>
<path fill="white" clip-rule="evenodd" d="M14.1205 6.35907C13.666 6.64987 13.2481 6.99281 12.8752 7.37944H22.7472C22.3743 6.99281 21.9564 6.64987 21.5019 6.35907H14.1205ZM11.4487 9.57718C11.6038 9.19237 11.7928 8.82485 12.0121 8.47834H23.6103C23.8295 8.82485 24.0185 9.19237 24.1737 9.57718H11.4487ZM11.1105 10.6761C11.0438 10.9829 10.9977 11.2974 10.9736 11.618H24.6488C24.6247 11.2974 24.5786 10.9829 24.5119 10.6761H11.1105ZM11.123 13.6588C11.0491 13.3321 10.9985 12.9966 10.9731 12.6541H24.6493C24.6239 12.9966 24.5733 13.3321 24.4994 13.6588H11.123ZM11.4717 14.7577C11.631 15.143 11.8244 15.5105 12.0481 15.8567H23.5742C23.798 15.5105 23.9914 15.143 24.1507 14.7577H11.4717ZM14.086 17.8973C13.667 17.6256 13.2795 17.3095 12.9302 16.9556H22.6922C22.3429 17.3095 21.9554 17.6256 21.5364 17.8973H14.086ZM17.7509 18.9962C17.771 18.9963 17.7911 18.9964 17.8112 18.9964C17.8313 18.9964 17.8514 18.9963 17.8715 18.9962H17.7509Z" fill-rule="evenodd"/>
<path fill="#00418E" clip-rule="evenodd" d="M10.9773 12.6604C10.9644 12.4883 10.9578 12.3145 10.9578 12.1392C10.9578 8.35209 14.0279 5.28204 17.815 5.28204C18.0977 5.28204 18.3764 5.29915 18.6501 5.33239V12.6604H10.9773Z" fill-rule="evenodd"/>
<path fill="white" clip-rule="evenodd" d="M14.4688 6.16316C14.4292 6.18548 14.3899 6.20818 14.3509 6.23125L14.5358 6.36348L14.4688 6.16316ZM13.7522 6.62866C13.6136 6.73147 13.479 6.83938 13.3488 6.95212L13.3935 6.92063L13.6455 7.10009L13.5496 6.80813L13.8044 6.62866H13.7522ZM12.6813 7.61448C12.6504 7.64967 12.6198 7.68518 12.5896 7.721L12.7552 7.83938L12.6813 7.61448ZM11.47 9.58045C11.4504 9.62908 11.4314 9.67799 11.4129 9.72716L11.4594 9.75991L11.3608 10.0546L11.6156 9.87241L11.8703 10.0546L11.7717 9.76259L12.0265 9.58312H11.7142L11.6156 9.29116L11.5197 9.58045H11.47ZM16.0562 5.59741L16.1548 5.88938H16.4671L16.2151 6.06884L16.311 6.36348L16.0562 6.18134L15.8042 6.3608L15.9001 6.06884L15.648 5.88938H15.9603L16.0562 5.59741ZM17.8341 5.59741L17.93 5.88938H18.245L17.9903 6.06884L18.0889 6.36348L17.8341 6.18134L17.5793 6.3608L17.678 6.06884L17.4232 5.88938H17.7382L17.8341 5.59741ZM15.1686 6.3367L15.2673 6.62866H15.5796L15.3248 6.80813L15.4234 7.10009L15.1686 6.92063L14.9166 7.10009L15.0125 6.80813L14.7577 6.62866H15.0755L15.1686 6.3367ZM16.9465 6.3367L17.0424 6.62866H17.3575L17.1027 6.80813L17.1986 7.10009L16.9465 6.92063L16.6918 7.10009L16.7876 6.80813L16.5356 6.62866H16.8479L16.9465 6.3367ZM14.2811 7.0733L14.3769 7.36795H14.692L14.4372 7.54741L14.5358 7.83938L14.2811 7.65723L14.0263 7.83938L14.1249 7.54473L13.8701 7.36527H14.1824L14.2811 7.0733ZM16.0562 7.0733L16.1548 7.36795H16.4671L16.2151 7.54741L16.311 7.83938L16.0562 7.65723L15.8042 7.83938L15.9001 7.54473L15.648 7.36527H15.9603L16.0562 7.0733ZM17.8341 7.0733L17.93 7.36795H18.245L17.9903 7.54741L18.0889 7.83938L17.8341 7.65723L17.5793 7.83938L17.678 7.54473L17.4232 7.36527H17.7382L17.8341 7.0733ZM13.3935 7.81259L13.4894 8.10455H13.8044L13.5496 8.28402L13.6455 8.57866L13.3935 8.39652L13.1387 8.57598L13.2346 8.28402L12.9826 8.10455H13.2949L13.3935 7.81259ZM15.1686 7.81259L15.2673 8.10455H15.5796L15.3275 8.28402L15.4234 8.57866L15.1686 8.39652L14.9166 8.57598L15.0125 8.28402L14.7577 8.10455H15.0755L15.1686 7.81259ZM16.9465 7.81259L17.0424 8.10455H17.3575L17.1027 8.28402L17.1986 8.57866L16.9465 8.39652L16.6918 8.57598L16.7876 8.28402L16.5356 8.10455H16.8479L16.9465 7.81259ZM12.5032 8.55187L12.6018 8.84384H12.9113L12.6593 9.0233L12.7552 9.31795L12.5004 9.1358L12.2484 9.31527L12.3443 9.0233L12.0895 8.84384H12.4045L12.5032 8.55187ZM14.2811 8.55187L14.3769 8.84384H14.692L14.4372 9.0233L14.5358 9.31795L14.2811 9.1358L14.0263 9.31527L14.1249 9.0233L13.8701 8.84384H14.1824L14.2811 8.55187ZM16.0562 8.55187L16.1548 8.84384H16.4671L16.2151 9.0233L16.311 9.31795L16.0562 9.1358L15.8042 9.31527L15.9001 9.0233L15.648 8.84384H15.9603L16.0562 8.55187ZM17.8341 8.55187L17.93 8.84384H18.245L17.9903 9.0233L18.0889 9.31795L17.8341 9.1358L17.5793 9.31527L17.678 9.0233L17.4232 8.84384H17.7382L17.8341 8.55187ZM13.3935 9.29116L13.4894 9.58312H13.8044L13.5496 9.76259L13.6455 10.0546L13.3935 9.87241L13.1387 10.0546L13.2346 9.75991L12.9826 9.58045H13.2949L13.3935 9.29116ZM15.1686 9.29116L15.2673 9.58312H15.5796L15.3275 9.76259L15.4234 10.0546L15.1686 9.87241L14.9166 10.0546L15.0125 9.75991L14.7577 9.58045H15.0755L15.1686 9.29116ZM16.9465 9.29116L17.0424 9.58312H17.3575L17.1027 9.76259L17.1986 10.0546L16.9465 9.87241L16.6918 10.0546L16.7876 9.75991L16.5356 9.58045H16.8479L16.9465 9.29116ZM12.5032 10.0278L12.6018 10.3224H12.9113L12.6593 10.5019L12.7552 10.7912L12.5004 10.6117L12.2484 10.7912L12.3443 10.4992L12.0895 10.3197H12.4045L12.5032 10.0278ZM14.2811 10.0278L14.3769 10.3224H14.692L14.4372 10.5019L14.5358 10.7912L14.2811 10.6117L14.0263 10.7912L14.1249 10.4992L13.8701 10.3197H14.1824L14.2811 10.0278ZM16.0562 10.0278L16.1548 10.3224H16.4671L16.2151 10.5019L16.311 10.7912L16.0562 10.6117L15.8042 10.7912L15.9001 10.4992L15.648 10.3197H15.9603L16.0562 10.0278ZM17.8341 10.0278L17.93 10.3224H18.245L17.9903 10.5019L18.0889 10.7912L17.8341 10.6117L17.5793 10.7912L17.678 10.4992L17.4232 10.3197H17.7382L17.8341 10.0278ZM11.6156 10.7671L11.7142 11.059H12.0265L11.7717 11.2385L11.8703 11.5331L11.6156 11.351L11.3608 11.5304L11.4594 11.2385L11.2047 11.059H11.5197L11.6156 10.7671ZM13.3935 10.7671L13.4894 11.059H13.8044L13.5496 11.2385L13.6455 11.5331L13.3935 11.351L13.1387 11.5304L13.2346 11.2385L12.9826 11.059H13.2949L13.3935 10.7671ZM15.1686 10.7671L15.2673 11.059H15.5796L15.3275 11.2385L15.4234 11.5331L15.1686 11.351L14.9166 11.5304L15.0125 11.2385L14.7577 11.059H15.0755L15.1686 10.7671ZM16.9465 10.7671L17.0424 11.059H17.3575L17.1027 11.2385L17.1986 11.5331L16.9465 11.351L16.6918 11.5304L16.7876 11.2385L16.5356 11.059H16.8479L16.9465 10.7671ZM12.5032 11.5063L12.6018 11.7983H12.9113L12.6648 11.9778L12.7607 12.2697L12.5059 12.0903L12.2539 12.2697L12.3497 11.9751L12.095 11.7956H12.41L12.5032 11.5063ZM14.2811 11.5063L14.3769 11.7983H14.692L14.4372 11.9778L14.5358 12.2697L14.2811 12.0903L14.0263 12.2697L14.1249 11.9751L13.8701 11.7956H14.1824L14.2811 11.5063ZM16.0562 11.5063L16.1548 11.7983H16.4671L16.2151 11.9778L16.311 12.2697L16.0562 12.0903L15.8042 12.2697L15.9001 11.9751L15.648 11.7956H15.9603L16.0562 11.5063ZM17.8341 11.5063L17.93 11.7983H18.245L17.9903 11.9778L18.0889 12.2697L17.8341 12.0903L17.5793 12.2697L17.678 11.9751L17.4232 11.7956H17.7382L17.8341 11.5063Z" fill-rule="evenodd"/>
<g clip-path="url(#clip1_15237_137304)">
<path fill="#0090FF" clip-rule="evenodd" d="M7.52635 19.3072C3.75652 19.3072 0.672119 16.2225 0.672119 12.4179C0.70639 8.64768 3.75652 5.56293 7.56062 5.59721C11.3304 5.63148 14.3806 8.68196 14.3806 12.5208C14.3463 16.2567 11.2962 19.3072 7.52635 19.3072Z" fill-rule="evenodd"/>
<path fill="white" clip-rule="evenodd" d="M8.17751 11.6298L7.97188 12.7266L9.92534 13.0008L9.78825 13.5149L7.86907 13.2407C7.73199 13.6863 7.66344 14.1662 7.49209 14.5775C7.32073 15.0573 7.14938 15.5372 6.94375 15.9827C6.66958 16.5654 6.18978 16.9767 5.53863 17.0795C5.16165 17.1481 4.7504 17.1138 4.44196 16.8739C4.33914 16.8053 4.23633 16.6682 4.23633 16.5654C4.23633 16.4283 4.30487 16.2569 4.40768 16.1884C4.47623 16.1541 4.64758 16.1884 4.7504 16.2227C4.85321 16.3255 4.95602 16.4626 5.02456 16.5997C5.23019 16.8739 5.50436 16.9082 5.77853 16.7025C6.08697 16.4283 6.25833 16.0513 6.36114 15.6743C6.56677 14.8517 6.77239 14.0633 6.94375 13.2407V13.1036L5.12738 12.8294L5.19592 12.3153L7.08083 12.5895L7.32073 11.527L5.36728 11.2185L5.43582 10.6701L7.45782 10.9443C7.52636 10.7387 7.56063 10.5673 7.62917 10.3959C7.80053 9.77897 7.97188 9.16202 8.38314 8.61362C8.79439 8.06522 9.27419 7.72247 9.99388 7.75675C10.3023 7.75675 10.6108 7.85957 10.8164 8.0995C10.8507 8.13377 10.9192 8.20232 10.9192 8.27087C10.9192 8.40797 10.9192 8.57935 10.8164 8.68217C10.6793 8.785 10.5079 8.75072 10.3709 8.61362C10.2681 8.5108 10.1995 8.40797 10.0967 8.30515C9.89107 8.03095 9.58263 7.99667 9.34273 8.2366C9.17137 8.40797 9.00002 8.6479 8.8972 8.88782C8.65731 9.6076 8.48595 10.3616 8.24605 11.1157L10.131 11.3899L9.99388 11.904L8.17751 11.6298Z" fill-rule="evenodd"/>
</g>
</g>
<defs>
<clipPath id="clip0_15237_137304">
<rect fill="white" width="24" height="24" transform="translate(0.672119 0.13916)"/>
</clipPath>
<clipPath id="clip1_15237_137304">
<rect fill="white" width="13.7085" height="13.71" transform="translate(0.672119 5.59741)"/>
</clipPath>
</defs>
<metadata symbolName="FILUSD" fileName="filusd.svg" id="grimlock-metadata-id" lastUpdate="2025-02-10T09:58:22.673198070" symbolId="1435"/></svg>