<?xml version="1.0" encoding="UTF-8" standalone="no"?><svg xmlns="http://www.w3.org/2000/svg" xmlns:xlink="http://www.w3.org/1999/xlink" contentScriptType="text/ecmascript" fill="none" width="24" zoomAndPan="magnify" contentStyleType="text/css" viewBox="0 0 24 24" height="24" preserveAspectRatio="xMidYMid meet" version="1.0">
<path fill="url(#paint0_linear_15235_116707)" d="M23.7717 12C23.7717 15.7868 20.7013 18.8571 16.9145 18.8571C13.1274 18.8571 10.0574 15.7871 10.0574 12C10.0574 12.0016 16.9145 5.14349 16.9145 5.14282C20.7017 5.14282 23.7717 8.2128 23.7717 12Z"/>
<path fill="#F0F0F0" d="M16.8962 12H16.9146V11.9816C16.9086 11.9876 16.9022 11.994 16.8962 12Z"/>
<path fill="#F0F0F0" d="M16.9145 8.72039V5.14282H16.9132C13.1267 5.14349 10.0574 8.21313 10.0574 12H13.6349V9.98534L15.6496 12H16.8961C16.9021 11.9939 16.9082 11.9876 16.9145 11.9815V10.735L14.8999 8.72039H16.9145V8.72039Z"/>
<path fill="#D80027" d="M13.5263 6.03711C12.4539 6.64782 11.5623 7.53945 10.9516 8.61189V11.9999H12.7405V7.82606H16.9144V6.03711H13.5263Z"/>
<path fill="#D80027" d="M16.9146 11.1565L14.4785 8.72034H13.635L16.9146 11.9999V11.1565Z"/>
<path fill="#F0F0F0" d="M14.1932 13.1926L14.5695 13.9795L15.4193 13.7829L15.0386 14.5677L15.722 15.1095L14.8712 15.3013L14.8736 16.1735L14.1932 15.6278L13.5128 16.1735L13.5152 15.3013L12.6641 15.1095L13.3474 14.5677L12.9667 13.7829L13.8165 13.9795L14.1932 13.1926Z"/>
<path fill="#F0F0F0" d="M20.3241 14.6832L20.5123 15.0766L20.9372 14.9785L20.747 15.371L21.0889 15.6418L20.6633 15.7376L20.6646 16.1739L20.3245 15.901L19.9843 16.1739L19.9856 15.7376L19.5601 15.6418L19.9019 15.371L19.7117 14.9785L20.1366 15.0766L20.3241 14.6832Z"/>
<path fill="#F0F0F0" d="M18.5735 10.5094L18.7617 10.9028L19.1866 10.8047L18.9964 11.1971L19.3383 11.468L18.9127 11.5638L18.9141 12L18.5739 11.7271L18.2337 12L18.2347 11.5638L17.8091 11.468L18.151 11.1971L17.9608 10.8047L18.3857 10.9028L18.5735 10.5094Z"/>
<path fill="#F0F0F0" d="M20.3241 8.12402L20.5123 8.51744L20.9372 8.41934L20.747 8.81175L21.0889 9.08262L20.6633 9.17838L20.6646 9.61465L20.3245 9.34177L19.9843 9.61465L19.9856 9.17838L19.5601 9.08262L19.9019 8.81175L19.7117 8.41934L20.1366 8.51744L20.3241 8.12402Z"/>
<path fill="#F0F0F0" d="M21.8527 9.91296L22.0409 10.3064L22.4657 10.2083L22.2756 10.6007L22.6174 10.8716L22.1919 10.9673L22.1932 11.4036L21.853 11.1307L21.5128 11.4036L21.5142 10.9673L21.0886 10.8716L21.4305 10.6007L21.2403 10.2083L21.6652 10.3064L21.8527 9.91296Z"/>
<path fill="#F0F0F0" d="M20.7596 12L20.9076 12.4554H21.3867L20.9993 12.7369L21.1473 13.1926L20.7599 12.911L20.3722 13.1926L20.5202 12.7369L20.1328 12.4554H20.6116L20.7596 12Z"/>
<path fill="white" d="M13.7143 12C13.7143 15.7868 10.644 18.8571 6.85714 18.8571C3.06998 18.8571 0 15.7871 0 12C0 8.2128 3.06998 5.14282 6.85714 5.14282C10.6443 5.14282 13.7143 8.2128 13.7143 12Z"/>
<path fill="#0052B4" d="M1.41785 7.82507C0.879125 8.52585 0.472987 9.33344 0.236603 10.211H3.80379L1.41785 7.82507Z"/>
<path fill="#0052B4" d="M13.4779 10.2114C13.2415 9.33381 12.8354 8.52622 12.2966 7.82544L9.91071 10.2114H13.4779Z"/>
<path fill="#0052B4" d="M0.236176 13.7889C0.472894 14.6665 0.879033 15.4741 1.41743 16.1749L3.80336 13.7889H0.236176Z"/>
<path fill="#0052B4" d="M11.0319 6.5604C10.3312 6.02167 9.52356 5.61587 8.646 5.37915V8.94634L11.0319 6.5604Z"/>
<path fill="#0052B4" d="M2.68213 17.4395C3.38291 17.9783 4.1905 18.3844 5.06807 18.6208V15.0536L2.68213 17.4395Z"/>
<path fill="#0052B4" d="M5.06807 5.37891C4.1905 5.61563 3.38291 6.02176 2.68213 6.56016L5.06807 8.94609V5.37891Z"/>
<path fill="#0052B4" d="M8.646 18.6208C9.52356 18.3844 10.3312 17.9783 11.0319 17.4395L8.646 15.0536V18.6208Z"/>
<path fill="#0052B4" d="M9.91071 13.7889L12.2966 16.1749C12.8354 15.4741 13.2412 14.6665 13.4779 13.7889H9.91071Z"/>
<path fill="#D80027" d="M13.6564 11.1057H7.75145V5.20075C7.45882 5.16258 7.16016 5.14282 6.85714 5.14282C6.55413 5.14282 6.25547 5.16258 5.9625 5.20075V11.1053H0.0579241C0.0197545 11.3983 0 11.697 0 12C0 12.303 0.0197545 12.6016 0.0579241 12.8943H5.9625V18.7992C6.25547 18.8374 6.55379 18.8571 6.85714 18.8571C7.16016 18.8571 7.45882 18.837 7.75145 18.7992V12.8943H13.6564C13.6945 12.6016 13.7143 12.303 13.7143 12C13.7143 11.697 13.6942 11.3983 13.6564 11.1057Z"/>
<path fill="#D80027" d="M8.646 13.7889L11.7059 16.8489C11.8469 16.7082 11.9808 16.5613 12.1091 16.4086L9.48941 13.7889H8.646Z"/>
<path fill="#D80027" d="M5.06842 13.7889L2.00848 16.8489C2.14911 16.9898 2.2961 17.1238 2.44877 17.252L5.06842 14.6324V13.7889Z"/>
<path fill="#D80027" d="M5.06798 10.2114L2.00804 7.15112C1.86742 7.29175 1.73316 7.43873 1.60492 7.59141L4.22456 10.2111H5.06798V10.2114Z"/>
<path fill="#D80027" d="M8.646 10.2114L11.7059 7.15142C11.5653 7.01079 11.4183 6.87653 11.2656 6.74829L8.646 9.36827V10.2114Z"/>
<defs>
<linearGradient x1="10.7431" gradientUnits="userSpaceOnUse" x2="23.7717" y1="11.3143" y2="11.3143" xlink:type="simple" xlink:actuate="onLoad" id="paint0_linear_15235_116707" xlink:show="other">
<stop stop-color="#00418E" offset="0.328947"/>
<stop stop-color="#0052B4" offset="1"/>
</linearGradient>
</defs>
<metadata symbolName="GBPAUD" fileName="gbpaud.svg" id="grimlock-metadata-id" lastUpdate="2025-02-10T09:58:22.673228812" symbolId="28"/></svg>