<?xml version="1.0" encoding="UTF-8" standalone="no"?><svg xmlns="http://www.w3.org/2000/svg" xmlns:xlink="http://www.w3.org/1999/xlink" contentScriptType="text/ecmascript" fill="none" width="24" zoomAndPan="magnify" contentStyleType="text/css" viewBox="0 0 24 24" height="24" preserveAspectRatio="xMidYMid meet" version="1.0">
<path fill="#D80027" d="M23.7717 12C23.7717 15.7868 20.7013 18.8571 16.9145 18.8571C13.1274 18.8571 10.0574 15.7871 10.0574 12C10.0574 8.2128 13.1274 5.14282 16.9145 5.14282C20.7017 5.14282 23.7717 8.2128 23.7717 12Z"/>
<path fill="white" d="M20.492 10.8073H18.107V8.42236H15.7221V10.8073H13.3368V13.1922H15.7221V15.5772H18.107V13.1922H20.492V10.8073V10.8073Z"/>
<path fill="white" d="M13.7143 12C13.7143 15.7868 10.644 18.8571 6.85714 18.8571C3.06998 18.8571 0 15.7871 0 12C0 8.2128 3.06998 5.14282 6.85714 5.14282C10.6443 5.14282 13.7143 8.2128 13.7143 12Z"/>
<path fill="#0052B4" d="M1.41785 7.82507C0.879125 8.52585 0.472987 9.33344 0.236603 10.211H3.80379L1.41785 7.82507Z"/>
<path fill="#0052B4" d="M13.4779 10.2114C13.2415 9.33381 12.8354 8.52622 12.2966 7.82544L9.91071 10.2114H13.4779Z"/>
<path fill="#0052B4" d="M0.236176 13.7889C0.472894 14.6665 0.879033 15.4741 1.41743 16.1749L3.80336 13.7889H0.236176Z"/>
<path fill="#0052B4" d="M11.0319 6.5604C10.3312 6.02167 9.52356 5.61587 8.646 5.37915V8.94634L11.0319 6.5604Z"/>
<path fill="#0052B4" d="M2.68213 17.4395C3.38291 17.9783 4.1905 18.3844 5.06807 18.6208V15.0536L2.68213 17.4395Z"/>
<path fill="#0052B4" d="M5.06807 5.37891C4.1905 5.61563 3.38291 6.02176 2.68213 6.56016L5.06807 8.94609V5.37891Z"/>
<path fill="#0052B4" d="M8.646 18.6208C9.52356 18.3844 10.3312 17.9783 11.0319 17.4395L8.646 15.0536V18.6208Z"/>
<path fill="#0052B4" d="M9.91071 13.7889L12.2966 16.1749C12.8354 15.4741 13.2412 14.6665 13.4779 13.7889H9.91071Z"/>
<path fill="#D80027" d="M13.6564 11.1057H7.75145V5.20075C7.45882 5.16258 7.16016 5.14282 6.85714 5.14282C6.55413 5.14282 6.25547 5.16258 5.9625 5.20075V11.1053H0.0579241C0.0197545 11.3983 0 11.697 0 12C0 12.303 0.0197545 12.6016 0.0579241 12.8943H5.9625V18.7992C6.25547 18.8374 6.55379 18.8571 6.85714 18.8571C7.16016 18.8571 7.45882 18.837 7.75145 18.7992V12.8943H13.6564C13.6945 12.6016 13.7143 12.303 13.7143 12C13.7143 11.697 13.6942 11.3983 13.6564 11.1057Z"/>
<path fill="#D80027" d="M8.646 13.7889L11.7059 16.8489C11.8469 16.7082 11.9808 16.5613 12.1091 16.4086L9.48941 13.7889H8.646Z"/>
<path fill="#D80027" d="M5.06842 13.7889L2.00848 16.8489C2.14911 16.9898 2.2961 17.1238 2.44877 17.252L5.06842 14.6324V13.7889Z"/>
<path fill="#D80027" d="M5.06798 10.2114L2.00804 7.15112C1.86742 7.29175 1.73316 7.43873 1.60492 7.59141L4.22456 10.2111H5.06798V10.2114Z"/>
<path fill="#D80027" d="M8.646 10.2114L11.7059 7.15142C11.5653 7.01079 11.4183 6.87653 11.2656 6.74829L8.646 9.36827V10.2114Z"/>
<metadata symbolName="GBPCHF" fileName="gbpchf.svg" id="grimlock-metadata-id" lastUpdate="2025-02-10T09:58:22.673246903" symbolId="30"/></svg>