<?xml version="1.0" encoding="UTF-8" standalone="no"?><svg xmlns="http://www.w3.org/2000/svg" xmlns:xlink="http://www.w3.org/1999/xlink" contentScriptType="text/ecmascript" fill="none" width="24" zoomAndPan="magnify" contentStyleType="text/css" viewBox="0 0 24 24" height="24" preserveAspectRatio="xMidYMid meet" version="1.0">
<path fill="url(#paint0_linear_15235_116714)" d="M23.7717 12C23.7717 15.7868 20.7013 18.8571 16.9145 18.8571C13.1274 18.8571 10.0574 15.7871 10.0574 12C10.0574 12.0016 16.9145 5.14349 16.9145 5.14282C20.7017 5.14282 23.7717 8.2128 23.7717 12Z"/>
<path fill="white" d="M16.8962 12H16.9147V11.9816C16.9086 11.9876 16.9023 11.994 16.8962 12Z"/>
<path fill="white" d="M16.9145 8.72039V5.14282H16.9132C13.1267 5.14349 10.0574 8.21313 10.0574 12H13.6349V9.98534L15.6496 12H16.8961C16.9021 11.9939 16.9082 11.9876 16.9145 11.9815V10.735L14.8999 8.72039H16.9145V8.72039Z"/>
<path fill="#D80027" d="M13.5264 6.03711C12.4539 6.64782 11.5623 7.53945 10.9516 8.61189V11.9999H12.7405V7.82606H16.9144V6.03711H13.5264Z"/>
<path fill="#D80027" d="M16.9146 11.1565L14.4785 8.72034H13.6351L16.9146 11.9999V11.1565Z"/>
<path fill="#D80027" d="M21.9324 10.2311L22.0804 10.6864H22.5592L22.1718 10.968L22.3198 11.4237L21.9324 11.1421L21.545 11.4237L21.693 10.968L21.3056 10.6864H21.7844L21.9324 10.2311Z"/>
<path fill="#D80027" d="M20.2202 13.5104L20.4422 14.1937H21.1607L20.5794 14.616L20.8014 15.2993L20.2202 14.8771L19.6389 15.2993L19.8609 14.616L19.2797 14.1937H19.9982L20.2202 13.5104Z"/>
<path fill="#D80027" d="M20.2846 8.14417L20.4697 8.7137H21.0684L20.5839 9.06559L20.7691 9.63512L20.2849 9.28323L19.8004 9.63479L19.9853 9.06526L19.5011 8.71336H20.0998L20.2846 8.14417Z"/>
<path fill="#D80027" d="M18.6376 10.2113L18.8596 10.8947H19.5781L18.9969 11.3169L19.2188 12.0003L18.6376 11.578L18.0563 11.9999L18.2783 11.3165L17.6971 10.8943H18.4156L18.6376 10.2113Z"/>
<path fill="white" d="M13.7143 12C13.7143 15.7868 10.644 18.8571 6.85714 18.8571C3.06998 18.8571 0 15.7871 0 12C0 8.2128 3.06998 5.14282 6.85714 5.14282C10.6443 5.14282 13.7143 8.2128 13.7143 12Z"/>
<path fill="#0052B4" d="M1.41788 7.82507C0.879155 8.52585 0.473017 9.33344 0.236633 10.211H3.80382L1.41788 7.82507Z"/>
<path fill="#0052B4" d="M13.4779 10.2114C13.2415 9.33381 12.8354 8.52622 12.2966 7.82544L9.91071 10.2114H13.4779Z"/>
<path fill="#0052B4" d="M0.236145 13.7889C0.472864 14.6665 0.879002 15.4741 1.4174 16.1749L3.80333 13.7889H0.236145Z"/>
<path fill="#0052B4" d="M11.0319 6.5604C10.3312 6.02167 9.52356 5.61587 8.646 5.37915V8.94634L11.0319 6.5604Z"/>
<path fill="#0052B4" d="M2.68213 17.4395C3.38291 17.9783 4.1905 18.3844 5.06807 18.6208V15.0536L2.68213 17.4395Z"/>
<path fill="#0052B4" d="M5.06807 5.37891C4.1905 5.61563 3.38291 6.02176 2.68213 6.56016L5.06807 8.94609V5.37891Z"/>
<path fill="#0052B4" d="M8.646 18.6208C9.52356 18.3844 10.3312 17.9783 11.0319 17.4395L8.646 15.0536V18.6208Z"/>
<path fill="#0052B4" d="M9.91071 13.7889L12.2966 16.1749C12.8354 15.4741 13.2412 14.6665 13.4779 13.7889H9.91071Z"/>
<path fill="#D80027" d="M13.6564 11.1057H7.75145V5.20075C7.45882 5.16258 7.16016 5.14282 6.85714 5.14282C6.55413 5.14282 6.25547 5.16258 5.9625 5.20075V11.1053H0.0579241C0.0197545 11.3983 0 11.697 0 12C0 12.303 0.0197545 12.6016 0.0579241 12.8943H5.9625V18.7992C6.25547 18.8374 6.55379 18.8571 6.85714 18.8571C7.16016 18.8571 7.45882 18.837 7.75145 18.7992V12.8943H13.6564C13.6945 12.6016 13.7143 12.303 13.7143 12C13.7143 11.697 13.6942 11.3983 13.6564 11.1057Z"/>
<path fill="#D80027" d="M8.646 13.7889L11.7059 16.8489C11.8469 16.7082 11.9808 16.5613 12.1091 16.4086L9.48941 13.7889H8.646Z"/>
<path fill="#D80027" d="M5.06842 13.7889L2.00848 16.8489C2.14911 16.9898 2.2961 17.1238 2.44877 17.252L5.06842 14.6324V13.7889Z"/>
<path fill="#D80027" d="M5.06798 10.2114L2.00804 7.15112C1.86742 7.29175 1.73316 7.43873 1.60492 7.59141L4.22456 10.2111H5.06798V10.2114Z"/>
<path fill="#D80027" d="M8.646 10.2114L11.7059 7.15142C11.5653 7.01079 11.4183 6.87653 11.2656 6.74829L8.646 9.36827V10.2114Z"/>
<defs>
<linearGradient x1="10.7431" gradientUnits="userSpaceOnUse" x2="23.7717" y1="11.3143" y2="11.3143" xlink:type="simple" xlink:actuate="onLoad" id="paint0_linear_15235_116714" xlink:show="other">
<stop stop-color="#00418E" offset="0.328947"/>
<stop stop-color="#0052B4" offset="1"/>
</linearGradient>
</defs>
<metadata symbolName="GBPNZD" fileName="gbpnzd.svg" id="grimlock-metadata-id" lastUpdate="2025-02-10T09:58:22.673651248" symbolId="35"/></svg>