<?xml version="1.0" encoding="UTF-8" standalone="no"?><svg xmlns="http://www.w3.org/2000/svg" xmlns:xlink="http://www.w3.org/1999/xlink" contentScriptType="text/ecmascript" fill="none" width="24" zoomAndPan="magnify" contentStyleType="text/css" viewBox="0 0 24 24" height="24" preserveAspectRatio="xMidYMid meet" version="1.0">
<g clip-path="url(#clip0_15235_118646)">
<path fill="url(#paint0_linear_15235_118646)" clip-rule="evenodd" d="M21.7071 10.9556C21.7071 16.3164 17.3613 20.6622 12.0004 20.6622C6.63958 20.6622 2.29376 16.3164 2.29376 10.9556V10.3954C2.29376 5.03454 6.63958 0.688721 12.0004 0.688721C17.3613 0.688721 21.7071 5.03454 21.7071 10.3954V10.9556Z" fill-rule="evenodd"/>
<path fill="#D80027" d="M21.7531 13.9248C22.171 12.8054 22.4 11.5952 22.4 10.3316C22.4 9.06795 22.171 7.85727 21.7531 6.7384H2.24696C1.82903 7.85677 1.60001 9.06744 1.60001 10.3311C1.60001 11.5947 1.82903 12.8054 2.24696 13.9243L12 14.8227L21.7531 13.9248Z"/>
<path fill="#FFDA44" d="M11.9999 20.6622C16.4712 20.6622 20.2834 17.8585 21.753 13.9243H2.24689C3.7165 17.8585 7.52813 20.6622 11.9999 20.6622Z"/>
<path fill="black" d="M12.0001 2.96771e-06C7.52879 2.5794e-06 3.71664 2.80372 2.24703 6.73791L21.7531 6.73792C20.2835 2.80373 16.4719 3.35605e-06 12.0001 2.96771e-06Z"/>
<g filter="url(#filter0_d_15235_118646)">
<rect rx="1.18155" fill="#292929" width="24" y="16.053" height="7.94702"/>
</g>
<path fill="white" d="M6.50992 19.8877H4.26353V20.6685H5.62033C5.46673 21.1805 5.01873 21.5197 4.31472 21.5197C3.38033 21.5197 2.78513 20.8925 2.78513 20.0605C2.78513 19.2093 3.39953 18.5821 4.25073 18.5821C4.79472 18.5821 5.24912 18.8445 5.45392 19.2029L6.20913 18.7677C5.83152 18.1533 5.10833 17.7245 4.25712 17.7245C2.91953 17.7245 1.90833 18.7613 1.90833 20.0605C1.90833 21.3405 2.90673 22.3837 4.30833 22.3837C5.59472 22.3837 6.50992 21.5261 6.50992 20.2333V19.8877Z"/>
<path fill="white" d="M8.14932 21.4493V20.4445H9.84532V19.6125H8.14932V18.6589H10.0053V17.8141H7.26612V22.2941H10.0373V21.4493H8.14932Z"/>
<path fill="white" d="M13.2455 22.2941H14.1991L13.2071 20.6045C13.7191 20.3677 14.0711 19.8621 14.0711 19.2989C14.0711 18.4797 13.4055 17.8141 12.5799 17.8141H10.7879V22.2941H11.6711V20.7389H12.3431L13.2455 22.2941ZM11.6711 18.6397H12.5799C12.9127 18.6397 13.1879 18.9277 13.1879 19.2989C13.1879 19.6701 12.9127 19.9645 12.5799 19.9645H11.6711V18.6397Z"/>
<path fill="white" d="M18.0535 20.7133H17.5735V19.6509H16.6839V20.7133H15.5191L17.0039 17.8141H16.0567L14.5655 20.7133V21.5325H16.6839V22.2941H17.5735V21.5325H18.0535V20.7133Z"/>
<path fill="white" d="M20.2876 22.3837C21.4332 22.3837 22.0796 21.4365 22.0796 20.0541C22.0796 18.6717 21.4332 17.7245 20.2876 17.7245C19.1484 17.7245 18.4956 18.6717 18.4956 20.0541C18.4956 21.4365 19.1484 22.3837 20.2876 22.3837ZM20.2876 21.5197C19.686 21.5197 19.3788 21.0013 19.3788 20.0541C19.3788 19.1069 19.686 18.5821 20.2876 18.5821C20.8892 18.5821 21.2028 19.1069 21.2028 20.0541C21.2028 21.0013 20.8892 21.5197 20.2876 21.5197Z"/>
</g>
<defs>
<filter color-interpolation-filters="sRGB" x="-1" y="14.553" width="26" filterUnits="userSpaceOnUse" xlink:type="simple" xlink:actuate="onLoad" height="9.94702" id="filter0_d_15235_118646" xlink:show="other">
<feFlood result="BackgroundImageFix" flood-opacity="0"/>
<feColorMatrix values="0 0 0 0 0 0 0 0 0 0 0 0 0 0 0 0 0 0 127 0" type="matrix" result="hardAlpha" in="SourceAlpha"/>
<feOffset dy="-0.5"/>
<feGaussianBlur stdDeviation="0.5"/>
<feComposite in2="hardAlpha" operator="out"/>
<feColorMatrix values="0 0 0 0 0 0 0 0 0 0 0 0 0 0 0 0 0 0 0.25 0" type="matrix"/>
<feBlend result="effect1_dropShadow_15235_118646" in2="BackgroundImageFix" mode="normal"/>
<feBlend in2="effect1_dropShadow_15235_118646" mode="normal" result="shape" in="SourceGraphic"/>
</filter>
<linearGradient x1="12.0004" gradientUnits="userSpaceOnUse" x2="12.0004" y1="0.688721" y2="20.6622" xlink:type="simple" xlink:actuate="onLoad" id="paint0_linear_15235_118646" xlink:show="other">
<stop stop-color="white"/>
<stop stop-color="#D3D3D3" offset="1"/>
</linearGradient>
<clipPath id="clip0_15235_118646">
<rect fill="white" height="24" width="24"/>
</clipPath>
</defs>
<metadata symbolName="Germany40Cash" fileName="germany40cash.svg" id="grimlock-metadata-id" lastUpdate="2025-02-10T09:58:22.673698791" symbolId="1316"/></svg>