<?xml version="1.0" encoding="UTF-8" standalone="no"?><svg xmlns="http://www.w3.org/2000/svg" xmlns:xlink="http://www.w3.org/1999/xlink" contentScriptType="text/ecmascript" fill="none" width="24" zoomAndPan="magnify" contentStyleType="text/css" viewBox="0 0 24 24" height="24" preserveAspectRatio="xMidYMid meet" version="1.0">
<circle fill="#F2C94C" r="12" cx="12" cy="12"/>
<path fill="white" d="M3.9175 12.9504C4.01265 12.3618 4.52088 11.9291 5.11721 11.9291H9.91293C10.5093 11.9291 11.0175 12.3618 11.1126 12.9504L11.4424 14.9908C11.5619 15.7298 10.9913 16.4 10.2427 16.4H4.78743C4.03887 16.4 3.46828 15.7298 3.58772 14.9908L3.9175 12.9504Z"/>
<path fill="white" d="M13.3673 12.9504C13.4624 12.3618 13.9707 11.9291 14.567 11.9291H19.3627C19.9591 11.9291 20.4673 12.3618 20.5624 12.9504L20.8922 14.9908C21.0117 15.7298 20.4411 16.4 19.6925 16.4H14.2372C13.4887 16.4 12.9181 15.7298 13.0375 14.9908L13.3673 12.9504Z"/>
<path fill="white" d="M8.82039 7.42139C8.91554 6.8327 9.42377 6.40002 10.0201 6.40002H14.8158C15.4122 6.40002 15.9204 6.8327 16.0155 7.42139L16.3453 9.46173C16.4647 10.2007 15.8942 10.8709 15.1456 10.8709H9.69032C8.94177 10.8709 8.37118 10.2007 8.49061 9.46174L8.82039 7.42139Z"/>
<metadata symbolName="Gold" fileName="gold.svg" id="grimlock-metadata-id" lastUpdate="2025-02-10T09:58:22.673718922" symbolId="54"/></svg>