<svg width="140" height="40" viewBox="0 0 140 40" fill="none" xmlns="http://www.w3.org/2000/svg">
<rect x="0.5" y="0.5" width="139" height="39" rx="7.5" stroke="#667085"/>
<path d="M51.8594 10.5379C51.8594 11.293 51.677 11.9536 51.2211 12.4255C50.674 12.9918 50.0358 13.2749 49.2151 13.2749C48.3945 13.2749 47.7562 12.9918 47.2091 12.4255C46.662 11.8592 46.3884 11.1986 46.3884 10.3492C46.3884 9.49979 46.662 8.83914 47.2091 8.27287C47.7562 7.7066 48.3945 7.42346 49.2151 7.42346C49.5798 7.42346 49.9446 7.51784 50.3093 7.7066C50.674 7.89535 50.9476 8.08411 51.1299 8.36725L50.674 8.83914C50.3093 8.36725 49.8534 8.17849 49.2151 8.17849C48.668 8.17849 48.1209 8.36725 47.7562 8.83914C47.3003 9.21665 47.1179 9.78292 47.1179 10.4436C47.1179 11.1042 47.3003 11.6705 47.7562 12.048C48.2121 12.4255 48.668 12.7086 49.2151 12.7086C49.8534 12.7086 50.3093 12.5199 50.7652 12.048C51.0388 11.7648 51.2211 11.3873 51.2211 10.9154H49.2151V10.2548H51.8594C51.8594 10.2548 51.8594 10.4436 51.8594 10.5379Z" fill="#667085"/>
<path d="M49.2155 13.4322C48.3644 13.4322 47.6897 13.149 47.1 12.5387C46.5104 11.9284 46.2368 11.23 46.2368 10.3491C46.2368 9.46828 46.5104 8.76988 47.1 8.15956C47.6897 7.54925 48.3644 7.26611 49.2155 7.26611C49.6045 7.26611 49.9936 7.36678 50.3765 7.56812C50.7048 7.73801 51.0391 7.93935 51.258 8.27911L51.3248 8.38607L50.6622 9.07189L50.5528 8.93976C50.2306 8.5182 49.8294 8.33574 49.2155 8.33574C48.6501 8.33574 48.176 8.54966 47.8781 8.93976C47.4708 9.28581 47.2702 9.78287 47.2702 10.4435C47.2702 11.1042 47.4647 11.6075 47.8538 11.9221C48.2489 12.2493 48.6866 12.5513 49.2155 12.5513C49.8173 12.5513 50.2367 12.3751 50.6562 11.9347C50.8932 11.6893 51.027 11.3999 51.0574 11.0727H49.0635V10.0975H52.0117V10.5379C52.0117 11.3936 51.7807 12.0668 51.3309 12.5387C50.7413 13.149 50.0665 13.4322 49.2155 13.4322ZM49.2155 7.58071C48.4495 7.58071 47.8477 7.83868 47.3189 8.38607C46.79 8.93346 46.5408 9.55636 46.5408 10.3491C46.5408 11.1419 46.79 11.7648 47.3189 12.3122C47.8477 12.8596 48.4495 13.1176 49.2155 13.1176C49.9814 13.1176 50.5832 12.8596 51.1121 12.3122C51.5072 11.9032 51.7078 11.3055 51.7078 10.5379V10.4121H49.3674V10.7581H51.3735V10.9154C51.3735 11.3873 51.2033 11.8214 50.875 12.1612C50.3948 12.652 49.8963 12.8659 49.2155 12.8659C48.5833 12.8659 48.0787 12.5135 47.6593 12.1738C47.1973 11.79 46.9663 11.2048 46.9663 10.4435C46.9663 9.6822 47.1973 9.09705 47.6593 8.71325C47.9936 8.27282 48.5529 8.02114 49.2155 8.02114C49.8537 8.02114 50.3157 8.20361 50.6805 8.60629L50.9297 8.34832C50.7838 8.17215 50.5771 8.02114 50.2428 7.84497C49.9024 7.66879 49.5559 7.58071 49.2155 7.58071Z" fill="#667085"/>
<path d="M56.0542 8.17774H53.5923V9.97092H55.8718V10.6316H53.5923V12.4248H56.0542V13.1798H52.8628V7.51709H56.0542V8.17774Z" fill="#667085"/>
<path d="M56.206 13.3375H52.7107V7.36023H56.206V8.33547H53.7441V9.81407H56.0237V10.7893H53.7441V12.2679H56.206V13.3375ZM53.0146 13.0229H55.9021V12.5825H53.4402V10.4747H55.7197V10.1287H53.4402V8.02088H55.9021V7.67482H53.0146V13.0229Z" fill="#667085"/>
<path d="M59.063 13.1798H58.3336V8.17774H56.7834V7.51709H60.6131V8.17774H59.063V13.1798Z" fill="#667085"/>
<path d="M59.2154 13.3375H58.1819V8.33547H56.6318V7.36023H60.7655V8.33547H59.2154V13.3375ZM58.4859 13.0229H58.9114V8.02088H60.4615V7.67482H56.9358V8.02088H58.4859V13.0229Z" fill="#667085"/>
<path d="M63.2581 13.1798V7.51709H63.9875V13.1798H63.2581Z" fill="#667085"/>
<path d="M64.1391 13.3375H63.1057V7.36023H64.1391V13.3375ZM63.4097 13.0229H63.8352V7.67482H63.4097V13.0229Z" fill="#667085"/>
<path d="M67.0872 13.1798H66.3577V8.17774H64.8076V7.51709H68.5461V8.17774H66.996V13.1798H67.0872Z" fill="#667085"/>
<path d="M67.0873 13.3375H66.2059V8.33547H64.6558V7.36023H68.6982V8.33547H67.1481V13.1802H67.0873V13.3375ZM66.5098 13.0229H66.8442V8.02088H68.3943V7.67482H64.9597V8.02088H66.5098V13.0229Z" fill="#667085"/>
<path d="M75.7492 12.4255C75.2021 12.9918 74.5638 13.2749 73.7432 13.2749C72.9225 13.2749 72.2843 12.9918 71.7372 12.4255C71.1901 11.8592 70.9165 11.1986 70.9165 10.3492C70.9165 9.49979 71.1901 8.83914 71.7372 8.27287C72.2843 7.7066 72.9225 7.42346 73.7432 7.42346C74.5638 7.42346 75.2021 7.7066 75.7492 8.27287C76.2963 8.83914 76.5699 9.49979 76.5699 10.3492C76.5699 11.1986 76.2963 11.8592 75.7492 12.4255ZM72.2842 11.9536C72.649 12.3311 73.1961 12.6143 73.7432 12.6143C74.2903 12.6143 74.8374 12.4255 75.2021 11.9536C75.5668 11.5761 75.8404 11.0098 75.8404 10.3492C75.8404 9.68854 75.658 9.12227 75.2021 8.74476C74.8374 8.36725 74.2903 8.08411 73.7432 8.08411C73.1961 8.08411 72.649 8.27287 72.2842 8.74476C71.9195 9.12227 71.646 9.68854 71.646 10.3492C71.646 11.0098 71.8283 11.5761 72.2842 11.9536Z" fill="#667085"/>
<path d="M73.7435 13.4322C72.8925 13.4322 72.2177 13.149 71.6281 12.5387C71.0506 11.9347 70.7649 11.2174 70.7649 10.3491C70.7649 9.48086 71.0506 8.76358 71.6281 8.15956C72.2177 7.54925 72.8925 7.26611 73.7435 7.26611C74.5946 7.26611 75.2693 7.54925 75.859 8.15956C76.4365 8.76358 76.7222 9.48086 76.7222 10.3491C76.7222 11.2174 76.4365 11.9347 75.859 12.5387C75.2693 13.149 74.5946 13.4322 73.7435 13.4322ZM73.7435 7.58071C72.9776 7.58071 72.3758 7.83868 71.8469 8.38607C71.3181 8.93346 71.0688 9.55636 71.0688 10.3491C71.0688 11.1419 71.3181 11.7648 71.8469 12.3122C72.3758 12.8596 72.9776 13.1176 73.7435 13.1176C74.5095 13.1176 75.1113 12.8596 75.6401 12.3122C76.169 11.7648 76.4182 11.1419 76.4182 10.3491C76.4182 9.55636 76.169 8.93346 75.6401 8.38607C75.1113 7.83868 74.5095 7.58071 73.7435 7.58071ZM73.7435 12.7715C73.2025 12.7715 72.6068 12.501 72.1813 12.0731C71.7254 11.6893 71.4944 11.1105 71.4944 10.3491C71.4944 9.70737 71.7436 9.08447 72.1752 8.63145C72.5217 8.17844 73.0809 7.92676 73.7435 7.92676C74.2906 7.92676 74.8864 8.19731 75.3119 8.63145C75.7617 9.00268 75.9927 9.58782 75.9927 10.3491C75.9927 10.9909 75.7435 11.6138 75.3119 12.0668C74.9654 12.5135 74.4001 12.7715 73.7435 12.7715ZM73.7435 8.24136C73.1782 8.24136 72.7041 8.45528 72.4062 8.84538C72.0171 9.24806 71.7983 9.78916 71.7983 10.3491C71.7983 11.0161 71.9928 11.5131 72.3819 11.8277L72.394 11.8403C72.7588 12.2178 73.2755 12.4569 73.7435 12.4569C74.3089 12.4569 74.783 12.243 75.087 11.8529C75.476 11.4502 75.6949 10.9028 75.6949 10.3491C75.6949 9.6822 75.5003 9.18514 75.1113 8.87055C74.7283 8.47416 74.2116 8.24136 73.7435 8.24136Z" fill="#667085"/>
<path d="M77.5732 13.1798V7.51709H78.394L81.0383 11.9529V10.8203V7.51709H81.7677V13.1798H81.0383L78.2116 8.55525V9.68779V13.1798H77.5732Z" fill="#667085"/>
<path d="M81.9198 13.3375H80.9532L78.3636 9.09679V13.3375H77.4214V7.36023H78.4791L80.8863 11.3996V7.36023H81.9198V13.3375ZM81.1234 13.0229H81.6158V7.67482H81.1903V12.507L78.3089 7.67482H77.7253V13.0229H78.0597V8.01459L81.1234 13.0229Z" fill="#667085"/>
<path d="M70.7342 21.4857C68.5458 21.4857 66.8133 23.1845 66.8133 25.544C66.8133 27.8091 68.5458 29.6023 70.7342 29.6023C72.9226 29.6023 74.6551 27.9034 74.6551 25.544C74.6551 23.0901 72.9226 21.4857 70.7342 21.4857ZM70.7342 27.9034C69.5488 27.9034 68.5458 26.8653 68.5458 25.4496C68.5458 24.0339 69.5488 22.9958 70.7342 22.9958C71.9196 22.9958 72.9226 23.9396 72.9226 25.4496C72.9226 26.8653 71.9196 27.9034 70.7342 27.9034ZM62.2542 21.4857C60.0658 21.4857 58.3333 23.1845 58.3333 25.544C58.3333 27.8091 60.0658 29.6023 62.2542 29.6023C64.4426 29.6023 66.175 27.9034 66.175 25.544C66.175 23.0901 64.4426 21.4857 62.2542 21.4857ZM62.2542 27.9034C61.0688 27.9034 60.0658 26.8653 60.0658 25.4496C60.0658 24.0339 61.0688 22.9958 62.2542 22.9958C63.4395 22.9958 64.4426 23.9396 64.4426 25.4496C64.4426 26.8653 63.4395 27.9034 62.2542 27.9034ZM52.1328 22.7126V24.4114H56.0537C55.9625 25.3552 55.5978 26.1103 55.1419 26.5821C54.5948 27.1484 53.6829 27.8091 52.1328 27.8091C49.6709 27.8091 47.8472 25.8271 47.8472 23.2789C47.8472 20.7307 49.7621 18.7487 52.1328 18.7487C53.4094 18.7487 54.4124 19.315 55.1419 19.9757L56.3273 18.7487C55.3242 17.805 54.0477 17.0499 52.224 17.0499C48.9414 17.0499 46.1147 19.8813 46.1147 23.2789C46.1147 26.6765 48.9414 29.5079 52.224 29.5079C54.0477 29.5079 55.3242 28.9416 56.4184 27.7147C57.5126 26.5821 57.8774 24.9777 57.8774 23.7508C57.8774 23.3733 57.8774 22.9958 57.7862 22.7126H52.1328ZM93.5302 24.0339C93.1655 23.0901 92.2534 21.4857 90.2474 21.4857C88.2413 21.4857 86.6 23.0901 86.6 25.544C86.6 27.8091 88.2413 29.6023 90.4297 29.6023C92.1622 29.6023 93.2567 28.4697 93.6214 27.8091L92.3446 26.8653C91.8887 27.5259 91.3416 27.9978 90.4297 27.9978C89.5179 27.9978 88.9708 27.6203 88.5149 26.7709L93.7126 24.5058L93.5302 24.0339ZM88.2413 25.3552C88.2413 23.8452 89.4267 22.9958 90.2474 22.9958C90.8857 22.9958 91.5239 23.3733 91.7063 23.8452L88.2413 25.3552ZM83.9557 29.2247H85.6882V17.4274H83.9557V29.2247ZM81.2202 22.3351C80.7643 21.8632 80.0349 21.3913 79.123 21.3913C77.2082 21.3913 75.3845 23.1845 75.3845 25.4496C75.3845 27.7147 77.117 29.4135 79.123 29.4135C80.0349 29.4135 80.7643 28.9416 81.1291 28.4697H81.2202V29.036C81.2202 30.546 80.3996 31.3954 79.123 31.3954C78.12 31.3954 77.3906 30.6404 77.2082 29.9798L75.7493 30.6404C76.2052 31.6786 77.2994 32.9999 79.2142 32.9999C81.2202 32.9999 82.8615 31.773 82.8615 28.8472V21.6745H81.2202V22.3351ZM79.2142 27.9034C78.0288 27.9034 77.0258 26.8653 77.0258 25.4496C77.0258 24.0339 78.0288 22.9958 79.2142 22.9958C80.3996 22.9958 81.3114 24.0339 81.3114 25.4496C81.3114 26.8653 80.3996 27.9034 79.2142 27.9034ZM101.463 17.4274H97.3599V29.2247H99.0924V24.789H101.463C103.378 24.789 105.202 23.3733 105.202 21.1082C105.202 18.8431 103.378 17.4274 101.463 17.4274ZM101.554 23.0901H99.0924V19.0319H101.554C102.831 19.0319 103.56 20.1644 103.56 21.0138C103.469 22.052 102.74 23.0901 101.554 23.0901ZM112.04 21.3913C110.764 21.3913 109.487 21.9576 109.031 23.1845L110.581 23.8452C110.946 23.1845 111.493 22.9958 112.132 22.9958C113.043 22.9958 113.864 23.562 113.955 24.5058V24.6002C113.682 24.4114 112.952 24.1283 112.223 24.1283C110.581 24.1283 108.94 25.0721 108.94 26.7709C108.94 28.3753 110.308 29.4135 111.767 29.4135C112.952 29.4135 113.499 28.8472 113.955 28.281H114.046V29.2247H115.688V24.6946C115.505 22.6183 113.955 21.3913 112.04 21.3913ZM111.858 27.9034C111.311 27.9034 110.49 27.6203 110.49 26.8653C110.49 25.9215 111.493 25.6384 112.314 25.6384C113.043 25.6384 113.408 25.8271 113.864 26.0159C113.682 27.1484 112.77 27.9034 111.858 27.9034ZM121.432 21.6745L119.517 26.7709H119.426L117.42 21.6745H115.597L118.606 28.8472L116.873 32.8111H118.606L123.256 21.6745H121.432ZM106.113 29.2247H107.846V17.4274H106.113V29.2247Z" fill="#667085"/>
<path d="M17.1924 7.40181C16.9161 7.71246 16.7542 8.19346 16.7542 8.80472V30.9706C16.7542 31.5919 16.9161 32.073 17.1924 32.3735L17.2591 32.4437L29.0641 20.038V19.8877V19.7373L17.2591 7.33167L17.1924 7.40181Z" fill="url(#paint0_linear_330_4392)"/>
<path d="M32.9984 24.1768L29.0635 20.0382V19.8879V19.7376L32.9984 15.599L33.0842 15.6492L37.7433 18.4349C39.0772 19.2265 39.0772 20.5292 37.7433 21.3309L33.0842 24.1167L32.9984 24.1768Z" fill="url(#paint1_linear_330_4392)"/>
<path d="M33.0843 24.1238L29.0635 19.885L17.1919 32.3708C17.6302 32.8619 18.3542 32.922 19.1737 32.431L33.0843 24.1238Z" fill="url(#paint2_linear_330_4392)"/>
<path d="M33.0838 15.6568L19.1636 7.33958C18.3442 6.84856 17.6202 6.90868 17.1819 7.3997L29.063 19.8856L33.0838 15.6568Z" fill="url(#paint3_linear_330_4392)"/>
<path opacity="0.2" d="M32.9985 24.0256L19.1642 32.2927C18.3924 32.7537 17.6969 32.7236 17.2586 32.3028L17.1919 32.3729L17.2586 32.4431C17.7064 32.8639 18.3924 32.8941 19.1642 32.433L33.0843 24.1159L32.9985 24.0256Z" fill="white"/>
<path opacity="0.12" d="M17.1917 32.233C16.9159 31.9224 16.7542 31.4414 16.7542 30.8301V30.9805C16.7542 31.6017 16.9159 32.0827 17.1917 32.3833L17.2583 32.3132L17.1917 32.233Z" fill="white"/>
<path opacity="0.12" d="M37.7436 21.1877L32.9893 24.0235L33.075 24.1137L37.7342 21.328C38.4011 20.9271 38.7346 20.4061 38.7346 19.885C38.6869 20.356 38.3534 20.8269 37.7436 21.1877Z" fill="white"/>
<path opacity="0.25" d="M19.1642 7.48152L37.7434 18.5845C38.3437 18.9453 38.6867 19.4062 38.7438 19.8872C38.7438 19.3661 38.4104 18.8351 37.7434 18.4442L19.1642 7.34122C17.8303 6.54959 16.7441 7.21096 16.7441 8.81427V8.96459C16.7441 7.35125 17.8399 6.68988 19.1642 7.48152Z" fill="#667085"/>
<defs>
<linearGradient id="paint0_linear_330_4392" x1="28.0157" y1="8.57404" x2="11.2198" y2="24.5437" gradientUnits="userSpaceOnUse">
<stop stop-color="#00A0FF"/>
<stop offset="0.00657445" stop-color="#00A1FF"/>
<stop offset="0.2601" stop-color="#00BEFF"/>
<stop offset="0.5122" stop-color="#00D2FF"/>
<stop offset="0.7604" stop-color="#00DFFF"/>
<stop offset="1" stop-color="#00E3FF"/>
</linearGradient>
<linearGradient id="paint1_linear_330_4392" x1="39.4815" y1="19.8895" x2="16.4271" y2="19.8895" gradientUnits="userSpaceOnUse">
<stop stop-color="#FFE000"/>
<stop offset="0.4087" stop-color="#FFBD00"/>
<stop offset="0.7754" stop-color="#FFA500"/>
<stop offset="1" stop-color="#FF9C00"/>
</linearGradient>
<linearGradient id="paint2_linear_330_4392" x1="30.8994" y1="22.186" x2="8.1229" y2="43.8421" gradientUnits="userSpaceOnUse">
<stop stop-color="#FF3A44"/>
<stop offset="1" stop-color="#C31162"/>
</linearGradient>
<linearGradient id="paint3_linear_330_4392" x1="14.197" y1="0.0207165" x2="24.3677" y2="9.69103" gradientUnits="userSpaceOnUse">
<stop stop-color="#32A071"/>
<stop offset="0.0685" stop-color="#2DA771"/>
<stop offset="0.4762" stop-color="#15CF74"/>
<stop offset="0.8009" stop-color="#06E775"/>
<stop offset="1" stop-color="#00F076"/>
</linearGradient>
</defs>
</svg>
