<?xml version="1.0" encoding="UTF-8" standalone="no"?><svg xmlns="http://www.w3.org/2000/svg" xmlns:xlink="http://www.w3.org/1999/xlink" contentScriptType="text/ecmascript" fill="none" width="25" zoomAndPan="magnify" contentStyleType="text/css" viewBox="0 0 25 24" height="24" preserveAspectRatio="xMidYMid meet" version="1.0">
<g clip-path="url(#clip0_15237_137440)">
<circle fill="#BD3D44" r="6.85714" cx="17.815" cy="11.9917"/>
<path fill="white" clip-rule="evenodd" d="M14.1205 6.21161C13.666 6.50241 13.2481 6.84535 12.8752 7.23198H22.7472C22.3743 6.84535 21.9564 6.50241 21.5019 6.21161H14.1205ZM11.4487 9.42972C11.6038 9.0449 11.7928 8.67739 12.0121 8.33088H23.6103C23.8295 8.67739 24.0185 9.0449 24.1737 9.42972H11.4487ZM11.1105 10.5286C11.0438 10.8354 10.9977 11.1499 10.9736 11.4705H24.6488C24.6247 11.1499 24.5786 10.8354 24.5119 10.5286H11.1105ZM11.123 13.5113C11.0491 13.1847 10.9985 12.8492 10.9731 12.5066H24.6493C24.6239 12.8492 24.5733 13.1847 24.4994 13.5113H11.123ZM11.4717 14.6102C11.631 14.9955 11.8244 15.3631 12.0481 15.7092H23.5742C23.798 15.3631 23.9914 14.9955 24.1507 14.6102H11.4717ZM14.086 17.7498C13.667 17.4782 13.2795 17.1621 12.9302 16.8081H22.6922C22.3429 17.1621 21.9554 17.4782 21.5364 17.7498H14.086ZM17.7509 18.8487C17.771 18.8489 17.7911 18.849 17.8112 18.849C17.8313 18.849 17.8514 18.8489 17.8715 18.8487H17.7509Z" fill-rule="evenodd"/>
<path fill="#00418E" clip-rule="evenodd" d="M10.9773 12.5129C10.9644 12.3409 10.9578 12.1671 10.9578 11.9917C10.9578 8.20463 14.0279 5.13458 17.815 5.13458C18.0977 5.13458 18.3764 5.15169 18.6501 5.18493V12.5129H10.9773Z" fill-rule="evenodd"/>
<path fill="white" clip-rule="evenodd" d="M14.4688 6.0157C14.4292 6.03802 14.3899 6.06072 14.3509 6.08379L14.5358 6.21602L14.4688 6.0157ZM13.7522 6.4812C13.6136 6.58401 13.479 6.69192 13.3488 6.80466L13.3935 6.77316L13.6455 6.95263L13.5496 6.66066L13.8044 6.4812H13.7522ZM12.6813 7.46702C12.6504 7.50221 12.6198 7.53772 12.5896 7.57354L12.7552 7.69191L12.6813 7.46702ZM11.47 9.43298C11.4504 9.48162 11.4314 9.53052 11.4129 9.5797L11.4594 9.61245L11.3608 9.90709L11.6156 9.72495L11.8703 9.90709L11.7717 9.61513L12.0265 9.43566H11.7142L11.6156 9.1437L11.5197 9.43298H11.47ZM16.0562 5.44995L16.1548 5.74192H16.4671L16.2151 5.92138L16.311 6.21602L16.0562 6.03388L15.8042 6.21334L15.9001 5.92138L15.648 5.74192H15.9603L16.0562 5.44995ZM17.8341 5.44995L17.93 5.74192H18.245L17.9903 5.92138L18.0889 6.21602L17.8341 6.03388L17.5793 6.21334L17.678 5.92138L17.4232 5.74192H17.7382L17.8341 5.44995ZM15.1686 6.18924L15.2673 6.4812H15.5796L15.3248 6.66066L15.4234 6.95263L15.1686 6.77316L14.9166 6.95263L15.0125 6.66066L14.7577 6.4812H15.0755L15.1686 6.18924ZM16.9465 6.18924L17.0424 6.4812H17.3575L17.1027 6.66066L17.1986 6.95263L16.9465 6.77316L16.6918 6.95263L16.7876 6.66066L16.5356 6.4812H16.8479L16.9465 6.18924ZM14.2811 6.92584L14.3769 7.22049H14.692L14.4372 7.39995L14.5358 7.69191L14.2811 7.50977L14.0263 7.69191L14.1249 7.39727L13.8701 7.21781H14.1824L14.2811 6.92584ZM16.0562 6.92584L16.1548 7.22049H16.4671L16.2151 7.39995L16.311 7.69191L16.0562 7.50977L15.8042 7.69191L15.9001 7.39727L15.648 7.21781H15.9603L16.0562 6.92584ZM17.8341 6.92584L17.93 7.22049H18.245L17.9903 7.39995L18.0889 7.69191L17.8341 7.50977L17.5793 7.69191L17.678 7.39727L17.4232 7.21781H17.7382L17.8341 6.92584ZM13.3935 7.66513L13.4894 7.95709H13.8044L13.5496 8.13656L13.6455 8.4312L13.3935 8.24906L13.1387 8.42852L13.2346 8.13656L12.9826 7.95709H13.2949L13.3935 7.66513ZM15.1686 7.66513L15.2673 7.95709H15.5796L15.3275 8.13656L15.4234 8.4312L15.1686 8.24906L14.9166 8.42852L15.0125 8.13656L14.7577 7.95709H15.0755L15.1686 7.66513ZM16.9465 7.66513L17.0424 7.95709H17.3575L17.1027 8.13656L17.1986 8.4312L16.9465 8.24906L16.6918 8.42852L16.7876 8.13656L16.5356 7.95709H16.8479L16.9465 7.66513ZM12.5032 8.40441L12.6018 8.69638H12.9113L12.6593 8.87584L12.7552 9.17048L12.5004 8.98834L12.2484 9.16781L12.3443 8.87584L12.0895 8.69638H12.4045L12.5032 8.40441ZM14.2811 8.40441L14.3769 8.69638H14.692L14.4372 8.87584L14.5358 9.17048L14.2811 8.98834L14.0263 9.16781L14.1249 8.87584L13.8701 8.69638H14.1824L14.2811 8.40441ZM16.0562 8.40441L16.1548 8.69638H16.4671L16.2151 8.87584L16.311 9.17048L16.0562 8.98834L15.8042 9.16781L15.9001 8.87584L15.648 8.69638H15.9603L16.0562 8.40441ZM17.8341 8.40441L17.93 8.69638H18.245L17.9903 8.87584L18.0889 9.17048L17.8341 8.98834L17.5793 9.16781L17.678 8.87584L17.4232 8.69638H17.7382L17.8341 8.40441ZM13.3935 9.1437L13.4894 9.43566H13.8044L13.5496 9.61513L13.6455 9.90709L13.3935 9.72495L13.1387 9.90709L13.2346 9.61245L12.9826 9.43298H13.2949L13.3935 9.1437ZM15.1686 9.1437L15.2673 9.43566H15.5796L15.3275 9.61513L15.4234 9.90709L15.1686 9.72495L14.9166 9.90709L15.0125 9.61245L14.7577 9.43298H15.0755L15.1686 9.1437ZM16.9465 9.1437L17.0424 9.43566H17.3575L17.1027 9.61513L17.1986 9.90709L16.9465 9.72495L16.6918 9.90709L16.7876 9.61245L16.5356 9.43298H16.8479L16.9465 9.1437ZM12.5032 9.88031L12.6018 10.1749H12.9113L12.6593 10.3544L12.7552 10.6437L12.5004 10.4642L12.2484 10.6437L12.3443 10.3517L12.0895 10.1723H12.4045L12.5032 9.88031ZM14.2811 9.88031L14.3769 10.1749H14.692L14.4372 10.3544L14.5358 10.6437L14.2811 10.4642L14.0263 10.6437L14.1249 10.3517L13.8701 10.1723H14.1824L14.2811 9.88031ZM16.0562 9.88031L16.1548 10.1749H16.4671L16.2151 10.3544L16.311 10.6437L16.0562 10.4642L15.8042 10.6437L15.9001 10.3517L15.648 10.1723H15.9603L16.0562 9.88031ZM17.8341 9.88031L17.93 10.1749H18.245L17.9903 10.3544L18.0889 10.6437L17.8341 10.4642L17.5793 10.6437L17.678 10.3517L17.4232 10.1723H17.7382L17.8341 9.88031ZM11.6156 10.6196L11.7142 10.9116H12.0265L11.7717 11.091L11.8703 11.3857L11.6156 11.2035L11.3608 11.383L11.4594 11.091L11.2047 10.9116H11.5197L11.6156 10.6196ZM13.3935 10.6196L13.4894 10.9116H13.8044L13.5496 11.091L13.6455 11.3857L13.3935 11.2035L13.1387 11.383L13.2346 11.091L12.9826 10.9116H13.2949L13.3935 10.6196ZM15.1686 10.6196L15.2673 10.9116H15.5796L15.3275 11.091L15.4234 11.3857L15.1686 11.2035L14.9166 11.383L15.0125 11.091L14.7577 10.9116H15.0755L15.1686 10.6196ZM16.9465 10.6196L17.0424 10.9116H17.3575L17.1027 11.091L17.1986 11.3857L16.9465 11.2035L16.6918 11.383L16.7876 11.091L16.5356 10.9116H16.8479L16.9465 10.6196ZM12.5032 11.3589L12.6018 11.6508H12.9113L12.6648 11.8303L12.7607 12.1223L12.5059 11.9428L12.2539 12.1223L12.3497 11.8276L12.095 11.6482H12.41L12.5032 11.3589ZM14.2811 11.3589L14.3769 11.6508H14.692L14.4372 11.8303L14.5358 12.1223L14.2811 11.9428L14.0263 12.1223L14.1249 11.8276L13.8701 11.6482H14.1824L14.2811 11.3589ZM16.0562 11.3589L16.1548 11.6508H16.4671L16.2151 11.8303L16.311 12.1223L16.0562 11.9428L15.8042 12.1223L15.9001 11.8276L15.648 11.6482H15.9603L16.0562 11.3589ZM17.8341 11.3589L17.93 11.6508H18.245L17.9903 11.8303L18.0889 12.1223L17.8341 11.9428L17.5793 12.1223L17.678 11.8276L17.4232 11.6482H17.7382L17.8341 11.3589Z" fill-rule="evenodd"/>
<g clip-path="url(#clip1_15237_137440)">
<path fill="#6747ED" d="M7.52635 19.16C11.3118 19.16 14.3806 16.0909 14.3806 12.305C14.3806 8.51904 11.3118 5.44995 7.52635 5.44995C3.74086 5.44995 0.672119 8.51904 0.672119 12.305C0.672119 16.0909 3.74086 19.16 7.52635 19.16Z"/>
<path fill="white" clip-rule="evenodd" d="M7.42639 13.1904C6.41253 13.1904 5.59859 12.3763 5.59859 11.3624C5.59859 10.3484 6.41253 9.53436 7.42639 9.53436C8.44024 9.53436 9.25418 10.3484 9.25418 11.3624C9.25418 12.3763 8.44024 13.1904 7.42639 13.1904ZM7.42639 8.62036C8.94003 8.62036 10.1681 9.84855 10.1681 11.3624C10.1681 12.8762 8.94003 14.1044 7.42639 14.1044C5.91274 14.1044 4.68469 12.8762 4.68469 11.3624C4.68469 9.84855 5.91274 8.62036 7.42639 8.62036ZM10.0396 14.2472C10.2252 14.4328 10.2252 14.7185 10.0396 14.8898L8.21177 16.7178C8.02613 16.9035 7.74054 16.9035 7.56918 16.7178C7.38355 16.5322 7.38355 16.2465 7.56918 16.0752L9.39698 14.2472C9.56833 14.0615 9.8682 14.0615 10.0396 14.2472ZM11.0963 9.07736C11.0963 9.33442 10.8963 9.53436 10.6393 9.53436C10.3823 9.53436 10.1824 9.33442 10.1824 9.07736C10.1824 8.8203 10.3823 8.62036 10.6393 8.62036C10.8821 8.62036 11.0963 8.8203 11.0963 9.07736Z" fill-rule="evenodd"/>
</g>
</g>
<defs>
<clipPath id="clip0_15237_137440">
<rect fill="white" width="24" height="24" transform="translate(0.672119 -0.00830078)"/>
</clipPath>
<clipPath id="clip1_15237_137440">
<rect fill="white" width="13.7085" height="13.71" transform="translate(0.672119 5.44995)"/>
</clipPath>
</defs>
<metadata symbolName="GRTUSD" fileName="grtusd.svg" id="grimlock-metadata-id" lastUpdate="2025-02-10T09:58:22.673724942" symbolId="1437"/></svg>