<svg width="44" height="44" viewBox="0 0 44 44" fill="none" xmlns="http://www.w3.org/2000/svg">
<rect x="0.5" y="0.5" width="43" height="43" rx="7.5" stroke="#D0D5DD"/>
<g clip-path="url(#clip0_12408_41858)">
<path d="M22 13.8008C24.6719 13.8008 24.9883 13.8125 26.0391 13.8594C27.0156 13.9023 27.543 14.0664 27.8945 14.2031C28.3594 14.3828 28.6953 14.6016 29.043 14.9492C29.3945 15.3008 29.6094 15.6328 29.7891 16.0977C29.9258 16.4492 30.0898 16.9805 30.1328 17.9531C30.1797 19.0078 30.1914 19.3242 30.1914 21.9922C30.1914 24.6641 30.1797 24.9805 30.1328 26.0312C30.0898 27.0078 29.9258 27.5352 29.7891 27.8867C29.6094 28.3516 29.3906 28.6875 29.043 29.0352C28.6914 29.3867 28.3594 29.6016 27.8945 29.7812C27.543 29.918 27.0117 30.082 26.0391 30.125C24.9844 30.1719 24.668 30.1836 22 30.1836C19.3281 30.1836 19.0117 30.1719 17.9609 30.125C16.9844 30.082 16.457 29.918 16.1055 29.7812C15.6406 29.6016 15.3047 29.3828 14.957 29.0352C14.6055 28.6836 14.3906 28.3516 14.2109 27.8867C14.0742 27.5352 13.9102 27.0039 13.8672 26.0312C13.8203 24.9766 13.8086 24.6602 13.8086 21.9922C13.8086 19.3203 13.8203 19.0039 13.8672 17.9531C13.9102 16.9766 14.0742 16.4492 14.2109 16.0977C14.3906 15.6328 14.6094 15.2969 14.957 14.9492C15.3086 14.5977 15.6406 14.3828 16.1055 14.2031C16.457 14.0664 16.9883 13.9023 17.9609 13.8594C19.0117 13.8125 19.3281 13.8008 22 13.8008ZM22 12C19.2852 12 18.9453 12.0117 17.8789 12.0586C16.8164 12.1055 16.0859 12.2773 15.4531 12.5234C14.793 12.7812 14.2344 13.1211 13.6797 13.6797C13.1211 14.2344 12.7812 14.793 12.5234 15.4492C12.2773 16.0859 12.1055 16.8125 12.0586 17.875C12.0117 18.9453 12 19.2852 12 22C12 24.7148 12.0117 25.0547 12.0586 26.1211C12.1055 27.1836 12.2773 27.9141 12.5234 28.5469C12.7812 29.207 13.1211 29.7656 13.6797 30.3203C14.2344 30.875 14.793 31.2187 15.4492 31.4727C16.0859 31.7187 16.8125 31.8906 17.875 31.9375C18.9414 31.9844 19.2812 31.9961 21.9961 31.9961C24.7109 31.9961 25.0508 31.9844 26.1172 31.9375C27.1797 31.8906 27.9102 31.7187 28.543 31.4727C29.1992 31.2187 29.7578 30.875 30.3125 30.3203C30.8672 29.7656 31.2109 29.207 31.4648 28.5508C31.7109 27.9141 31.8828 27.1875 31.9297 26.125C31.9766 25.0586 31.9883 24.7187 31.9883 22.0039C31.9883 19.2891 31.9766 18.9492 31.9297 17.8828C31.8828 16.8203 31.7109 16.0898 31.4648 15.457C31.2187 14.793 30.8789 14.2344 30.3203 13.6797C29.7656 13.125 29.207 12.7812 28.5508 12.5273C27.9141 12.2812 27.1875 12.1094 26.125 12.0625C25.0547 12.0117 24.7148 12 22 12Z" fill="url(#paint0_linear_12408_41858)"/>
<path d="M22 16.8633C19.1641 16.8633 16.8633 19.1641 16.8633 22C16.8633 24.8359 19.1641 27.1367 22 27.1367C24.8359 27.1367 27.1367 24.8359 27.1367 22C27.1367 19.1641 24.8359 16.8633 22 16.8633ZM22 25.332C20.1602 25.332 18.668 23.8398 18.668 22C18.668 20.1602 20.1602 18.668 22 18.668C23.8398 18.668 25.332 20.1602 25.332 22C25.332 23.8398 23.8398 25.332 22 25.332Z" fill="url(#paint1_linear_12408_41858)"/>
<path d="M28.5391 16.6602C28.5391 17.3242 28 17.8594 27.3398 17.8594C26.6758 17.8594 26.1406 17.3203 26.1406 16.6602C26.1406 15.9961 26.6797 15.4609 27.3398 15.4609C28 15.4609 28.5391 16 28.5391 16.6602Z" fill="url(#paint2_linear_12408_41858)"/>
</g>
<defs>
<linearGradient id="paint0_linear_12408_41858" x1="10" y1="32" x2="15.4914" y2="9.99785" gradientUnits="userSpaceOnUse">
<stop stop-color="#FFD521"/>
<stop offset="0.05" stop-color="#FFD521"/>
<stop offset="0.501119" stop-color="#F50000"/>
<stop offset="0.818856" stop-color="#B900B4"/>
<stop offset="1" stop-color="#611CF5"/>
</linearGradient>
<linearGradient id="paint1_linear_12408_41858" x1="15.5" y1="35" x2="24.5" y2="11" gradientUnits="userSpaceOnUse">
<stop stop-color="#FFD521"/>
<stop offset="0.05" stop-color="#FFD521"/>
<stop offset="0.501119" stop-color="#F50000"/>
<stop offset="0.95" stop-color="#B900B4"/>
<stop offset="0.950079" stop-color="#B900B4"/>
<stop offset="1" stop-color="#B900B4"/>
</linearGradient>
<linearGradient id="paint2_linear_12408_41858" x1="14.5" y1="32.5" x2="23.4996" y2="7.49986" gradientUnits="userSpaceOnUse">
<stop stop-color="#FFD521"/>
<stop offset="0.05" stop-color="#FFD521"/>
<stop offset="0.501119" stop-color="#F50000"/>
<stop offset="0.83" stop-color="#B900B4"/>
<stop offset="1" stop-color="#671AF0"/>
</linearGradient>
<clipPath id="clip0_12408_41858">
<rect width="20" height="20" fill="white" transform="translate(12 12)"/>
</clipPath>
</defs>
</svg>
