<?xml version="1.0" encoding="UTF-8" standalone="no"?><svg xmlns="http://www.w3.org/2000/svg" xmlns:xlink="http://www.w3.org/1999/xlink" contentScriptType="text/ecmascript" fill="none" width="24" zoomAndPan="magnify" contentStyleType="text/css" viewBox="0 0 24 24" height="24" preserveAspectRatio="xMidYMid meet" version="1.0">
<g clip-path="url(#clip0_15235_118651)">
<path fill="url(#paint0_linear_15235_118651)" d="M21.8 10.3654C21.8 15.8124 17.3692 20.2309 11.9 20.2309C6.43082 20.2309 2 15.8124 2 10.3654C2 4.91848 6.43082 0.5 11.9 0.5C17.3692 0.5 21.8 4.91848 21.8 10.3654Z" stroke="#EEEEEE"/>
<path fill="#D80027" d="M12.0499 15.7969C15.0589 15.7969 17.4981 13.3657 17.4981 10.3667C17.4981 7.3677 15.0589 4.93652 12.0499 4.93652C9.04084 4.93652 6.60156 7.3677 6.60156 10.3667C6.60156 13.3657 9.04084 15.7969 12.0499 15.7969Z"/>
<g filter="url(#filter0_d_15235_118651)">
<path fill="#292929" d="M0 17.2084C0 16.5559 0.528999 16.0269 1.18155 16.0269H22.8184C23.471 16.0269 24 16.5559 24 17.2084V22.8187C24 23.4713 23.471 24.0003 22.8184 24.0003H1.18155C0.528999 24.0003 0 23.4713 0 22.8187V17.2084Z"/>
</g>
<path fill="white" d="M4.4784 22.4363C5.3616 22.4363 6.0528 21.9179 6.0528 20.9515V17.8667H5.176V20.9515C5.176 21.3163 4.9648 21.5723 4.4784 21.5723C4.1072 21.5723 3.9024 21.4315 3.7616 21.1499L3 21.5851C3.2752 22.1419 3.7936 22.4363 4.4784 22.4363Z"/>
<path fill="white" d="M8.64696 17.8667H6.97656V22.3467H7.85976V20.8747H8.64696C9.51096 20.8747 10.1766 20.2091 10.1766 19.3707C10.1766 18.5323 9.51096 17.8667 8.64696 17.8667ZM8.64696 20.0491H7.85976V18.6923H8.64696C9.02456 18.6923 9.29976 18.9803 9.29976 19.3707C9.29976 19.7547 9.02456 20.0491 8.64696 20.0491Z"/>
<path fill="white" d="M10.5739 22.3467H13.5691V21.4955H11.8859L12.7627 20.6187C13.1851 20.1963 13.4987 19.7291 13.4987 19.1851C13.4987 18.2891 12.7883 17.7771 12.0203 17.7771C11.4123 17.7771 10.8299 18.0843 10.5419 18.7243L11.2843 19.1595C11.4315 18.8395 11.6875 18.6347 12.0331 18.6347C12.3723 18.6347 12.6155 18.8587 12.6155 19.2171C12.6155 19.5179 12.3915 19.8123 12.1035 20.1131L10.5739 21.6875V22.3467Z"/>
<path fill="white" d="M14.1019 22.3467H17.0971V21.4955H15.4139L16.2907 20.6187C16.7131 20.1963 17.0267 19.7291 17.0267 19.1851C17.0267 18.2891 16.3163 17.7771 15.5483 17.7771C14.9403 17.7771 14.3579 18.0843 14.0699 18.7243L14.8123 19.1595C14.9595 18.8395 15.2155 18.6347 15.5611 18.6347C15.9003 18.6347 16.1435 18.8587 16.1435 19.2171C16.1435 19.5179 15.9195 19.8123 15.6315 20.1131L14.1019 21.6875V22.3467Z"/>
<path fill="white" d="M19.1678 19.4987H18.707L18.7646 18.6923H20.4862V17.8667H17.9454L17.7662 20.3563H19.123C19.5582 20.3563 19.8142 20.6059 19.8142 20.9643C19.8142 21.3291 19.5582 21.5723 19.0974 21.5723C18.6494 21.5723 18.3998 21.3803 18.291 21.0347L17.5358 21.4763C17.7918 22.1291 18.3998 22.4363 19.0974 22.4363C19.9422 22.4363 20.6974 21.9243 20.6974 20.9643C20.6974 20.0043 19.987 19.4987 19.1678 19.4987Z"/>
</g>
<defs>
<filter color-interpolation-filters="sRGB" x="-1" y="14.5269" width="26" filterUnits="userSpaceOnUse" xlink:type="simple" xlink:actuate="onLoad" height="9.97339" id="filter0_d_15235_118651" xlink:show="other">
<feFlood result="BackgroundImageFix" flood-opacity="0"/>
<feColorMatrix values="0 0 0 0 0 0 0 0 0 0 0 0 0 0 0 0 0 0 127 0" type="matrix" result="hardAlpha" in="SourceAlpha"/>
<feOffset dy="-0.5"/>
<feGaussianBlur stdDeviation="0.5"/>
<feComposite in2="hardAlpha" operator="out"/>
<feColorMatrix values="0 0 0 0 0 0 0 0 0 0 0 0 0 0 0 0 0 0 0.25 0" type="matrix"/>
<feBlend result="effect1_dropShadow_15235_118651" in2="BackgroundImageFix" mode="normal"/>
<feBlend in2="effect1_dropShadow_15235_118651" mode="normal" result="shape" in="SourceGraphic"/>
</filter>
<linearGradient x1="11.9" gradientUnits="userSpaceOnUse" x2="11.9" y1="0" y2="20.7309" xlink:type="simple" xlink:actuate="onLoad" id="paint0_linear_15235_118651" xlink:show="other">
<stop stop-color="white" offset="0.567708"/>
<stop stop-color="#D1D1D1" offset="1"/>
</linearGradient>
<clipPath id="clip0_15235_118651">
<rect fill="white" height="24" width="24"/>
</clipPath>
</defs>
<metadata symbolName="Japan225" fileName="japan225.svg" id="grimlock-metadata-id" lastUpdate="2025-02-10T09:58:22.673856380" symbolId="64"/></svg>