<?xml version="1.0" encoding="UTF-8" standalone="no"?><svg xmlns="http://www.w3.org/2000/svg" xmlns:xlink="http://www.w3.org/1999/xlink" contentScriptType="text/ecmascript" fill="none" width="25" zoomAndPan="magnify" contentStyleType="text/css" viewBox="0 0 25 25" height="25" preserveAspectRatio="xMidYMid meet" version="1.0">
<g clip-path="url(#clip0_15237_137685)">
<circle fill="#BD3D44" r="6.85714" cx="17.815" cy="12.4473"/>
<path fill="white" clip-rule="evenodd" d="M14.1205 6.66718C13.666 6.95798 13.2481 7.30091 12.8752 7.68755H22.7472C22.3743 7.30091 21.9564 6.95798 21.5019 6.66718H14.1205ZM11.4487 9.88529C11.6038 9.50047 11.7928 9.13296 12.0121 8.78645H23.6103C23.8295 9.13296 24.0185 9.50047 24.1737 9.88529H11.4487ZM11.1105 10.9842C11.0438 11.291 10.9977 11.6055 10.9736 11.9261H24.6488C24.6247 11.6055 24.5786 11.291 24.5119 10.9842H11.1105ZM11.123 13.9669C11.0491 13.6402 10.9985 13.3047 10.9731 12.9622H24.6493C24.6239 13.3047 24.5733 13.6402 24.4994 13.9669H11.123ZM11.4717 15.0658C11.631 15.4511 11.8244 15.8187 12.0481 16.1648H23.5742C23.798 15.8187 23.9914 15.4511 24.1507 15.0658H11.4717ZM14.086 18.2054C13.667 17.9337 13.2795 17.6176 12.9302 17.2637H22.6922C22.3429 17.6176 21.9554 17.9337 21.5364 18.2054H14.086ZM17.7509 19.3043C17.771 19.3045 17.7911 19.3045 17.8112 19.3045C17.8313 19.3045 17.8514 19.3045 17.8715 19.3043H17.7509Z" fill-rule="evenodd"/>
<path fill="#00418E" clip-rule="evenodd" d="M10.9773 12.9685C10.9644 12.7964 10.9578 12.6226 10.9578 12.4473C10.9578 8.6602 14.0279 5.59015 17.815 5.59015C18.0977 5.59015 18.3764 5.60726 18.6501 5.6405V12.9685H10.9773Z" fill-rule="evenodd"/>
<path fill="white" clip-rule="evenodd" d="M14.4688 6.47127C14.4292 6.49359 14.3899 6.51628 14.3509 6.53936L14.5358 6.67159L14.4688 6.47127ZM13.7522 6.93677C13.6136 7.03958 13.479 7.14749 13.3488 7.26023L13.3935 7.22873L13.6455 7.4082L13.5496 7.11623L13.8044 6.93677H13.7522ZM12.6813 7.92259C12.6504 7.95778 12.6198 7.99329 12.5896 8.02911L12.7552 8.14748L12.6813 7.92259ZM11.47 9.88855C11.4504 9.93718 11.4314 9.98609 11.4129 10.0353L11.4594 10.068L11.3608 10.3627L11.6156 10.1805L11.8703 10.3627L11.7717 10.0707L12.0265 9.89123H11.7142L11.6156 9.59927L11.5197 9.88855H11.47ZM16.0562 5.90552L16.1548 6.19748H16.4671L16.2151 6.37695L16.311 6.67159L16.0562 6.48945L15.8042 6.66891L15.9001 6.37695L15.648 6.19748H15.9603L16.0562 5.90552ZM17.8341 5.90552L17.93 6.19748H18.245L17.9903 6.37695L18.0889 6.67159L17.8341 6.48945L17.5793 6.66891L17.678 6.37695L17.4232 6.19748H17.7382L17.8341 5.90552ZM15.1686 6.6448L15.2673 6.93677H15.5796L15.3248 7.11623L15.4234 7.4082L15.1686 7.22873L14.9166 7.4082L15.0125 7.11623L14.7577 6.93677H15.0755L15.1686 6.6448ZM16.9465 6.6448L17.0424 6.93677H17.3575L17.1027 7.11623L17.1986 7.4082L16.9465 7.22873L16.6918 7.4082L16.7876 7.11623L16.5356 6.93677H16.8479L16.9465 6.6448ZM14.2811 7.38141L14.3769 7.67605H14.692L14.4372 7.85552L14.5358 8.14748L14.2811 7.96534L14.0263 8.14748L14.1249 7.85284L13.8701 7.67337H14.1824L14.2811 7.38141ZM16.0562 7.38141L16.1548 7.67605H16.4671L16.2151 7.85552L16.311 8.14748L16.0562 7.96534L15.8042 8.14748L15.9001 7.85284L15.648 7.67337H15.9603L16.0562 7.38141ZM17.8341 7.38141L17.93 7.67605H18.245L17.9903 7.85552L18.0889 8.14748L17.8341 7.96534L17.5793 8.14748L17.678 7.85284L17.4232 7.67337H17.7382L17.8341 7.38141ZM13.3935 8.1207L13.4894 8.41266H13.8044L13.5496 8.59212L13.6455 8.88677L13.3935 8.70462L13.1387 8.88409L13.2346 8.59212L12.9826 8.41266H13.2949L13.3935 8.1207ZM15.1686 8.1207L15.2673 8.41266H15.5796L15.3275 8.59212L15.4234 8.88677L15.1686 8.70462L14.9166 8.88409L15.0125 8.59212L14.7577 8.41266H15.0755L15.1686 8.1207ZM16.9465 8.1207L17.0424 8.41266H17.3575L17.1027 8.59212L17.1986 8.88677L16.9465 8.70462L16.6918 8.88409L16.7876 8.59212L16.5356 8.41266H16.8479L16.9465 8.1207ZM12.5032 8.85998L12.6018 9.15194H12.9113L12.6593 9.33141L12.7552 9.62605L12.5004 9.44391L12.2484 9.62337L12.3443 9.33141L12.0895 9.15194H12.4045L12.5032 8.85998ZM14.2811 8.85998L14.3769 9.15194H14.692L14.4372 9.33141L14.5358 9.62605L14.2811 9.44391L14.0263 9.62337L14.1249 9.33141L13.8701 9.15194H14.1824L14.2811 8.85998ZM16.0562 8.85998L16.1548 9.15194H16.4671L16.2151 9.33141L16.311 9.62605L16.0562 9.44391L15.8042 9.62337L15.9001 9.33141L15.648 9.15194H15.9603L16.0562 8.85998ZM17.8341 8.85998L17.93 9.15194H18.245L17.9903 9.33141L18.0889 9.62605L17.8341 9.44391L17.5793 9.62337L17.678 9.33141L17.4232 9.15194H17.7382L17.8341 8.85998ZM13.3935 9.59927L13.4894 9.89123H13.8044L13.5496 10.0707L13.6455 10.3627L13.3935 10.1805L13.1387 10.3627L13.2346 10.068L12.9826 9.88855H13.2949L13.3935 9.59927ZM15.1686 9.59927L15.2673 9.89123H15.5796L15.3275 10.0707L15.4234 10.3627L15.1686 10.1805L14.9166 10.3627L15.0125 10.068L14.7577 9.88855H15.0755L15.1686 9.59927ZM16.9465 9.59927L17.0424 9.89123H17.3575L17.1027 10.0707L17.1986 10.3627L16.9465 10.1805L16.6918 10.3627L16.7876 10.068L16.5356 9.88855H16.8479L16.9465 9.59927ZM12.5032 10.3359L12.6018 10.6305H12.9113L12.6593 10.81L12.7552 11.0993L12.5004 10.9198L12.2484 11.0993L12.3443 10.8073L12.0895 10.6278H12.4045L12.5032 10.3359ZM14.2811 10.3359L14.3769 10.6305H14.692L14.4372 10.81L14.5358 11.0993L14.2811 10.9198L14.0263 11.0993L14.1249 10.8073L13.8701 10.6278H14.1824L14.2811 10.3359ZM16.0562 10.3359L16.1548 10.6305H16.4671L16.2151 10.81L16.311 11.0993L16.0562 10.9198L15.8042 11.0993L15.9001 10.8073L15.648 10.6278H15.9603L16.0562 10.3359ZM17.8341 10.3359L17.93 10.6305H18.245L17.9903 10.81L18.0889 11.0993L17.8341 10.9198L17.5793 11.0993L17.678 10.8073L17.4232 10.6278H17.7382L17.8341 10.3359ZM11.6156 11.0752L11.7142 11.3671H12.0265L11.7717 11.5466L11.8703 11.8412L11.6156 11.6591L11.3608 11.8386L11.4594 11.5466L11.2047 11.3671H11.5197L11.6156 11.0752ZM13.3935 11.0752L13.4894 11.3671H13.8044L13.5496 11.5466L13.6455 11.8412L13.3935 11.6591L13.1387 11.8386L13.2346 11.5466L12.9826 11.3671H13.2949L13.3935 11.0752ZM15.1686 11.0752L15.2673 11.3671H15.5796L15.3275 11.5466L15.4234 11.8412L15.1686 11.6591L14.9166 11.8386L15.0125 11.5466L14.7577 11.3671H15.0755L15.1686 11.0752ZM16.9465 11.0752L17.0424 11.3671H17.3575L17.1027 11.5466L17.1986 11.8412L16.9465 11.6591L16.6918 11.8386L16.7876 11.5466L16.5356 11.3671H16.8479L16.9465 11.0752ZM12.5032 11.8144L12.6018 12.1064H12.9113L12.6648 12.2859L12.7607 12.5778L12.5059 12.3984L12.2539 12.5778L12.3497 12.2832L12.095 12.1037H12.41L12.5032 11.8144ZM14.2811 11.8144L14.3769 12.1064H14.692L14.4372 12.2859L14.5358 12.5778L14.2811 12.3984L14.0263 12.5778L14.1249 12.2832L13.8701 12.1037H14.1824L14.2811 11.8144ZM16.0562 11.8144L16.1548 12.1064H16.4671L16.2151 12.2859L16.311 12.5778L16.0562 12.3984L15.8042 12.5778L15.9001 12.2832L15.648 12.1037H15.9603L16.0562 11.8144ZM17.8341 11.8144L17.93 12.1064H18.245L17.9903 12.2859L18.0889 12.5778L17.8341 12.3984L17.5793 12.5778L17.678 12.2832L17.4232 12.1037H17.7382L17.8341 11.8144Z" fill-rule="evenodd"/>
<g clip-path="url(#clip1_15237_137685)">
<mask x="0" y="5" width="15" maskUnits="userSpaceOnUse" style="mask-type:luminance" height="15" id="mask0_15237_137685">
<path fill="white" d="M7.52635 5.90552C11.3099 5.90552 14.3806 8.97656 14.3806 12.7605C14.3806 16.5445 11.3099 19.6155 7.52635 19.6155C3.74281 19.6155 0.672119 16.5445 0.672119 12.7605C0.672119 8.97656 3.74281 5.90552 7.52635 5.90552Z"/>
</mask>
<g mask="url(#mask0_15237_137685)">
<path d="M0.672119 5.90552L14.3806 19.6155M14.3806 5.90552L0.672119 19.6155" stroke-miterlimit="22.9256" stroke="black"/>
</g>
<path fill="url(#paint0_linear_15237_137685)" d="M7.52635 5.90552C11.3099 5.90552 14.3806 8.97656 14.3806 12.7605C14.3806 16.5445 11.3099 19.6155 7.52635 19.6155C3.74281 19.6155 0.672119 16.5445 0.672119 12.7605C0.672119 8.97656 3.74281 5.90552 7.52635 5.90552Z"/>
<mask x="3" y="12" width="9" maskUnits="userSpaceOnUse" style="mask-type:luminance" height="6" id="mask1_15237_137685">
<path fill="white" d="M7.52089 13.978L4.46665 12.2341L4.3844 12.3602C3.44674 13.8025 3.65511 15.689 4.88887 16.901C6.34196 18.3268 8.69982 18.3268 10.1529 16.901C11.3867 15.689 11.595 13.8025 10.6574 12.3602L10.5751 12.2341L7.52089 13.978Z"/>
</mask>
<g mask="url(#mask1_15237_137685)">
<path fill="url(#paint1_radial_15237_137685)" d="M7.52089 18.08C9.57716 18.08 11.2441 16.4129 11.2441 14.3564C11.2441 12.2999 9.57716 10.6328 7.52089 10.6328C5.46461 10.6328 3.79767 12.2999 3.79767 14.3564C3.79767 16.4129 5.46461 18.08 7.52089 18.08Z"/>
</g>
<path fill="url(#paint2_radial_15237_137685)" d="M7.52088 10.0844L4.88885 11.587L7.52088 13.0896L10.1529 11.587L7.52088 10.0844Z"/>
<path fill="url(#paint3_radial_15237_137685)" d="M7.52634 10.4737L4.46661 12.2341L7.52086 13.978L10.5696 12.2341L7.52634 10.4737Z"/>
<path fill="url(#paint4_linear_15237_137685)" d="M7.52088 7.55072L4.88885 11.5869L7.52088 13.0896V7.55072Z"/>
<path fill="url(#paint5_linear_15237_137685)" d="M7.52087 13.0896L10.1529 11.5869L7.52087 7.55072V13.0896Z"/>
</g>
</g>
<defs>
<linearGradient x1="7.52635" gradientUnits="userSpaceOnUse" x2="7.52635" y1="5.90552" y2="19.6155" xlink:type="simple" xlink:actuate="onLoad" id="paint0_linear_15237_137685" xlink:show="other">
<stop stop-color="#F89791"/>
<stop stop-color="#F7C882" offset="1"/>
</linearGradient>
<radialGradient gradientTransform="translate(7.51385 17.4042) rotate(-90.4664) scale(4.97273 5.92653)" gradientUnits="userSpaceOnUse" xlink:type="simple" r="1" xlink:actuate="onLoad" cx="0" cy="0" id="paint1_radial_15237_137685" xlink:show="other">
<stop stop-color="#C5C6AB"/>
<stop stop-color="#7985AB" offset="1"/>
</radialGradient>
<radialGradient gradientTransform="translate(7.52088 11.587) scale(0.131601 0.131616)" gradientUnits="userSpaceOnUse" xlink:type="simple" r="1" xlink:actuate="onLoad" cx="0" cy="0" id="paint2_radial_15237_137685" xlink:show="other">
<stop stop-opacity="0" stop-color="#0066FF"/>
<stop stop-opacity="0.4" stop-color="#00C2FF" offset="1"/>
</radialGradient>
<radialGradient gradientTransform="translate(7.51812 12.2258) scale(0.153579 0.153596)" gradientUnits="userSpaceOnUse" xlink:type="simple" r="1" xlink:actuate="onLoad" cx="0" cy="0" id="paint3_radial_15237_137685" xlink:show="other">
<stop stop-opacity="0.8588" stop-color="#AEE6F9"/>
<stop stop-color="#C8D6DC" offset="1"/>
</radialGradient>
<linearGradient x1="6.20487" gradientUnits="userSpaceOnUse" x2="6.20487" y1="7.27652" y2="12.7605" xlink:type="simple" xlink:actuate="onLoad" id="paint4_linear_15237_137685" xlink:show="other">
<stop stop-color="#77D4FF"/>
<stop stop-opacity="0.898" stop-color="#93D6F2" offset="1"/>
</linearGradient>
<linearGradient x1="8.83689" gradientUnits="userSpaceOnUse" x2="8.83689" y1="7.27652" y2="12.7605" xlink:type="simple" xlink:actuate="onLoad" id="paint5_linear_15237_137685" xlink:show="other">
<stop stop-color="#506AAC"/>
<stop stop-opacity="0.8196" stop-color="#96CFEF" offset="1"/>
</linearGradient>
<clipPath id="clip0_15237_137685">
<rect fill="white" width="24" height="24" transform="translate(0.672119 0.447266)"/>
</clipPath>
<clipPath id="clip1_15237_137685">
<rect fill="white" width="13.7085" height="13.71" transform="translate(0.672119 5.90552)"/>
</clipPath>
</defs>
<metadata symbolName="LDOUSD" fileName="ldousd.svg" id="grimlock-metadata-id" lastUpdate="2025-02-10T09:58:22.673882682" symbolId="1440"/></svg>