<?xml version="1.0" encoding="UTF-8" standalone="no"?><svg xmlns="http://www.w3.org/2000/svg" xmlns:xlink="http://www.w3.org/1999/xlink" contentScriptType="text/ecmascript" fill="none" width="25" zoomAndPan="magnify" contentStyleType="text/css" viewBox="0 0 25 25" height="25" preserveAspectRatio="xMidYMid meet" version="1.0">
<g clip-path="url(#clip0_15237_137789)">
<circle fill="#BD3D44" r="6.85714" cx="17.815" cy="12.7954"/>
<path fill="white" clip-rule="evenodd" d="M14.1205 7.01532C13.666 7.30612 13.2481 7.64906 12.8752 8.03569H22.7472C22.3743 7.64906 21.9564 7.30612 21.5019 7.01532H14.1205ZM11.4487 10.2334C11.6038 9.84862 11.7928 9.4811 12.0121 9.13459H23.6103C23.8295 9.4811 24.0185 9.84862 24.1737 10.2334H11.4487ZM11.1105 11.3323C11.0438 11.6391 10.9977 11.9536 10.9736 12.2742H24.6488C24.6247 11.9536 24.5786 11.6391 24.5119 11.3323H11.1105ZM11.123 14.3151C11.0491 13.9884 10.9985 13.6529 10.9731 13.3103H24.6493C24.6239 13.6529 24.5733 13.9884 24.4994 14.3151H11.123ZM11.4717 15.414C11.631 15.7992 11.8244 16.1668 12.0481 16.5129H23.5742C23.798 16.1668 23.9914 15.7992 24.1507 15.414H11.4717ZM14.086 18.5535C13.667 18.2819 13.2795 17.9658 12.9302 17.6118H22.6922C22.3429 17.9658 21.9554 18.2819 21.5364 18.5535H14.086ZM17.7509 19.6524C17.771 19.6526 17.7911 19.6527 17.8112 19.6527C17.8313 19.6527 17.8514 19.6526 17.8715 19.6524H17.7509Z" fill-rule="evenodd"/>
<path fill="#00418E" clip-rule="evenodd" d="M10.9773 13.3166C10.9644 13.1446 10.9578 12.9708 10.9578 12.7954C10.9578 9.00834 14.0279 5.93829 17.815 5.93829C18.0977 5.93829 18.3764 5.9554 18.6501 5.98864V13.3166H10.9773Z" fill-rule="evenodd"/>
<path fill="white" clip-rule="evenodd" d="M14.4688 6.81941C14.4292 6.84173 14.3899 6.86443 14.3509 6.8875L14.5358 7.01973L14.4688 6.81941ZM13.7522 7.28491C13.6136 7.38772 13.479 7.49563 13.3488 7.60837L13.3935 7.57688L13.6455 7.75634L13.5496 7.46438L13.8044 7.28491H13.7522ZM12.6813 8.27073C12.6504 8.30592 12.6198 8.34143 12.5896 8.37725L12.7552 8.49563L12.6813 8.27073ZM11.47 10.2367C11.4504 10.2853 11.4314 10.3342 11.4129 10.3834L11.4594 10.4162L11.3608 10.7108L11.6156 10.5287L11.8703 10.7108L11.7717 10.4188L12.0265 10.2394H11.7142L11.6156 9.94741L11.5197 10.2367H11.47ZM16.0562 6.25366L16.1548 6.54563H16.4671L16.2151 6.72509L16.311 7.01973L16.0562 6.83759L15.8042 7.01705L15.9001 6.72509L15.648 6.54563H15.9603L16.0562 6.25366ZM17.8341 6.25366L17.93 6.54563H18.245L17.9903 6.72509L18.0889 7.01973L17.8341 6.83759L17.5793 7.01705L17.678 6.72509L17.4232 6.54563H17.7382L17.8341 6.25366ZM15.1686 6.99295L15.2673 7.28491H15.5796L15.3248 7.46438L15.4234 7.75634L15.1686 7.57688L14.9166 7.75634L15.0125 7.46438L14.7577 7.28491H15.0755L15.1686 6.99295ZM16.9465 6.99295L17.0424 7.28491H17.3575L17.1027 7.46438L17.1986 7.75634L16.9465 7.57688L16.6918 7.75634L16.7876 7.46438L16.5356 7.28491H16.8479L16.9465 6.99295ZM14.2811 7.72955L14.3769 8.0242H14.692L14.4372 8.20366L14.5358 8.49563L14.2811 8.31348L14.0263 8.49563L14.1249 8.20098L13.8701 8.02152H14.1824L14.2811 7.72955ZM16.0562 7.72955L16.1548 8.0242H16.4671L16.2151 8.20366L16.311 8.49563L16.0562 8.31348L15.8042 8.49563L15.9001 8.20098L15.648 8.02152H15.9603L16.0562 7.72955ZM17.8341 7.72955L17.93 8.0242H18.245L17.9903 8.20366L18.0889 8.49563L17.8341 8.31348L17.5793 8.49563L17.678 8.20098L17.4232 8.02152H17.7382L17.8341 7.72955ZM13.3935 8.46884L13.4894 8.7608H13.8044L13.5496 8.94027L13.6455 9.23491L13.3935 9.05277L13.1387 9.23223L13.2346 8.94027L12.9826 8.7608H13.2949L13.3935 8.46884ZM15.1686 8.46884L15.2673 8.7608H15.5796L15.3275 8.94027L15.4234 9.23491L15.1686 9.05277L14.9166 9.23223L15.0125 8.94027L14.7577 8.7608H15.0755L15.1686 8.46884ZM16.9465 8.46884L17.0424 8.7608H17.3575L17.1027 8.94027L17.1986 9.23491L16.9465 9.05277L16.6918 9.23223L16.7876 8.94027L16.5356 8.7608H16.8479L16.9465 8.46884ZM12.5032 9.20812L12.6018 9.50009H12.9113L12.6593 9.67955L12.7552 9.9742L12.5004 9.79205L12.2484 9.97152L12.3443 9.67955L12.0895 9.50009H12.4045L12.5032 9.20812ZM14.2811 9.20812L14.3769 9.50009H14.692L14.4372 9.67955L14.5358 9.9742L14.2811 9.79205L14.0263 9.97152L14.1249 9.67955L13.8701 9.50009H14.1824L14.2811 9.20812ZM16.0562 9.20812L16.1548 9.50009H16.4671L16.2151 9.67955L16.311 9.9742L16.0562 9.79205L15.8042 9.97152L15.9001 9.67955L15.648 9.50009H15.9603L16.0562 9.20812ZM17.8341 9.20812L17.93 9.50009H18.245L17.9903 9.67955L18.0889 9.9742L17.8341 9.79205L17.5793 9.97152L17.678 9.67955L17.4232 9.50009H17.7382L17.8341 9.20812ZM13.3935 9.94741L13.4894 10.2394H13.8044L13.5496 10.4188L13.6455 10.7108L13.3935 10.5287L13.1387 10.7108L13.2346 10.4162L12.9826 10.2367H13.2949L13.3935 9.94741ZM15.1686 9.94741L15.2673 10.2394H15.5796L15.3275 10.4188L15.4234 10.7108L15.1686 10.5287L14.9166 10.7108L15.0125 10.4162L14.7577 10.2367H15.0755L15.1686 9.94741ZM16.9465 9.94741L17.0424 10.2394H17.3575L17.1027 10.4188L17.1986 10.7108L16.9465 10.5287L16.6918 10.7108L16.7876 10.4162L16.5356 10.2367H16.8479L16.9465 9.94741ZM12.5032 10.684L12.6018 10.9787H12.9113L12.6593 11.1581L12.7552 11.4474L12.5004 11.2679L12.2484 11.4474L12.3443 11.1554L12.0895 10.976H12.4045L12.5032 10.684ZM14.2811 10.684L14.3769 10.9787H14.692L14.4372 11.1581L14.5358 11.4474L14.2811 11.2679L14.0263 11.4474L14.1249 11.1554L13.8701 10.976H14.1824L14.2811 10.684ZM16.0562 10.684L16.1548 10.9787H16.4671L16.2151 11.1581L16.311 11.4474L16.0562 11.2679L15.8042 11.4474L15.9001 11.1554L15.648 10.976H15.9603L16.0562 10.684ZM17.8341 10.684L17.93 10.9787H18.245L17.9903 11.1581L18.0889 11.4474L17.8341 11.2679L17.5793 11.4474L17.678 11.1554L17.4232 10.976H17.7382L17.8341 10.684ZM11.6156 11.4233L11.7142 11.7153H12.0265L11.7717 11.8947L11.8703 12.1894L11.6156 12.0072L11.3608 12.1867L11.4594 11.8947L11.2047 11.7153H11.5197L11.6156 11.4233ZM13.3935 11.4233L13.4894 11.7153H13.8044L13.5496 11.8947L13.6455 12.1894L13.3935 12.0072L13.1387 12.1867L13.2346 11.8947L12.9826 11.7153H13.2949L13.3935 11.4233ZM15.1686 11.4233L15.2673 11.7153H15.5796L15.3275 11.8947L15.4234 12.1894L15.1686 12.0072L14.9166 12.1867L15.0125 11.8947L14.7577 11.7153H15.0755L15.1686 11.4233ZM16.9465 11.4233L17.0424 11.7153H17.3575L17.1027 11.8947L17.1986 12.1894L16.9465 12.0072L16.6918 12.1867L16.7876 11.8947L16.5356 11.7153H16.8479L16.9465 11.4233ZM12.5032 12.1626L12.6018 12.4546H12.9113L12.6648 12.634L12.7607 12.926L12.5059 12.7465L12.2539 12.926L12.3497 12.6313L12.095 12.4519H12.41L12.5032 12.1626ZM14.2811 12.1626L14.3769 12.4546H14.692L14.4372 12.634L14.5358 12.926L14.2811 12.7465L14.0263 12.926L14.1249 12.6313L13.8701 12.4519H14.1824L14.2811 12.1626ZM16.0562 12.1626L16.1548 12.4546H16.4671L16.2151 12.634L16.311 12.926L16.0562 12.7465L15.8042 12.926L15.9001 12.6313L15.648 12.4519H15.9603L16.0562 12.1626ZM17.8341 12.1626L17.93 12.4546H18.245L17.9903 12.634L18.0889 12.926L17.8341 12.7465L17.5793 12.926L17.678 12.6313L17.4232 12.4519H17.7382L17.8341 12.1626Z" fill-rule="evenodd"/>
<rect rx="6.35423" fill="white" x="1.17212" width="12.7085" height="12.71" y="6.75366"/>
<rect rx="6.35423" x="1.17212" width="12.7085" height="12.71" y="6.75366" stroke="#EEEEEE"/>
<g clip-path="url(#clip1_15237_137789)">
<path fill="#2A5ADA" d="M7.52637 8.9671L6.76654 9.40406L4.69599 10.6009L3.93616 11.0379V15.1794L4.69599 15.6164L6.78554 16.8133L7.54537 17.2502L8.3052 16.8133L10.3568 15.6164L11.1166 15.1794V11.0379L10.3568 10.6009L8.28621 9.40406L7.52637 8.9671ZM5.45583 14.3055V11.9118L7.52637 10.7149L9.59692 11.9118V14.3055L7.52637 15.5024L5.45583 14.3055Z"/>
</g>
</g>
<defs>
<clipPath id="clip0_15237_137789">
<rect fill="white" width="24" height="24" transform="translate(0.672119 0.79541)"/>
</clipPath>
<clipPath id="clip1_15237_137789">
<rect fill="white" width="7.18043" height="8.28312" transform="translate(3.93616 8.9671)"/>
</clipPath>
</defs>
<metadata symbolName="LINKUSD" fileName="linkusd.svg" id="grimlock-metadata-id" lastUpdate="2025-02-10T09:58:22.673893063" symbolId="1441"/></svg>