<svg width="25" height="24" viewBox="0 0 25 24" fill="none" xmlns="http://www.w3.org/2000/svg">
<g clip-path="url(#clip0_2511_971)">
<path d="M13.6947 22.7959C14.1072 22.758 14.4109 22.393 14.3731 21.9805C14.3353 21.568 13.9702 21.2643 13.5577 21.3021L13.6947 22.7959ZM13.5577 21.3021C13.2655 21.3289 12.968 21.3424 12.6676 21.3424V22.8424C13.0127 22.8424 13.3559 22.8269 13.6947 22.7959L13.5577 21.3021ZM12.6676 21.3424C7.2914 21.3424 2.90955 16.9439 2.90955 11.5314H1.40955C1.40955 17.7652 6.45588 22.8424 12.6676 22.8424V21.3424ZM2.90955 11.5314C2.90955 6.11909 7.29129 1.72168 12.6676 1.72168V0.22168C6.45599 0.22168 1.40955 5.29755 1.40955 11.5314H2.90955ZM12.6676 1.72168C18.0438 1.72168 22.4256 6.12018 22.4256 11.5326H23.9256C23.9256 5.29887 18.8793 0.22168 12.6676 0.22168V1.72168ZM22.4256 11.5326C22.4256 12.3944 22.3151 13.2289 22.107 14.0232L23.558 14.4034C23.7985 13.4854 23.9256 12.5231 23.9256 11.5326H22.4256Z" fill="currentColor"/>
<path d="M19.2807 15.9705C20.1242 14.7031 20.6161 13.1789 20.6161 11.539C20.6161 7.1291 17.0586 3.55371 12.6709 3.55371C8.28316 3.55371 4.72449 7.1279 4.72449 11.539C4.72449 15.95 8.28196 19.5242 12.6697 19.5242C14.2271 19.5242 15.6789 19.0732 16.9051 18.2954L19.8218 19.0804C19.9922 19.1263 20.0942 19.0238 20.0486 18.8525L19.2795 15.9693L19.2807 15.9705Z" stroke="currentColor" stroke-width="1.5" stroke-miterlimit="10" stroke-linejoin="round"/>
<path d="M8.66943 12.4953C9.20021 12.4953 9.63049 12.0628 9.63049 11.5294C9.63049 10.9959 9.20021 10.5635 8.66943 10.5635C8.13865 10.5635 7.70837 10.9959 7.70837 11.5294C7.70837 12.0628 8.13865 12.4953 8.66943 12.4953Z" fill="currentColor"/>
<path d="M12.6575 12.4953C13.1882 12.4953 13.6185 12.0628 13.6185 11.5294C13.6185 10.9959 13.1882 10.5635 12.6575 10.5635C12.1267 10.5635 11.6964 10.9959 11.6964 11.5294C11.6964 12.0628 12.1267 12.4953 12.6575 12.4953Z" fill="currentColor"/>
<path d="M16.654 12.4953C17.1848 12.4953 17.6151 12.0628 17.6151 11.5294C17.6151 10.9959 17.1848 10.5635 16.654 10.5635C16.1233 10.5635 15.693 10.9959 15.693 11.5294C15.693 12.0628 16.1233 12.4953 16.654 12.4953Z" fill="currentColor"/>
<path d="M14.1936 22.1178C14.1936 22.8437 13.6086 23.4332 12.8847 23.4332C12.1608 23.4332 11.5758 22.8453 11.5758 22.1178C11.5758 22.0964 11.5758 22.0751 11.5774 22.0537C12.0072 22.0931 12.4435 22.1128 12.8831 22.1128C13.3226 22.1128 13.7606 22.0931 14.1887 22.0537C14.1903 22.0751 14.1903 22.0964 14.1903 22.1178H14.1936Z" fill="currentColor"/>
<path d="M2.16142 11.5283C2.16142 12.4532 2.2802 13.3528 2.50457 14.2089H0.990396C0.814022 14.2089 0.670044 14.0642 0.670044 13.887V9.16962C0.670044 8.99236 0.814022 8.84766 0.990396 8.84766H2.50337C2.2802 9.70382 2.16022 10.6022 2.16022 11.5283H2.16142Z" fill="currentColor"/>
<path d="M24.6677 9.16962V13.887C24.6677 14.0642 24.5237 14.2089 24.3473 14.2089H22.8344C23.0575 13.3528 23.1775 12.4544 23.1775 11.5283C23.1775 10.6022 23.0587 9.70382 22.8344 8.84766H24.3473C24.5237 8.84766 24.6677 8.99236 24.6677 9.16962Z" fill="currentColor"/>
</g>
<defs>
<clipPath id="clip0_2511_971">
<rect width="24" height="24" fill="white" transform="translate(0.666626)"/>
</clipPath>
</defs>
</svg>
