<?xml version="1.0" encoding="UTF-8" standalone="no"?><svg xmlns="http://www.w3.org/2000/svg" xmlns:xlink="http://www.w3.org/1999/xlink" contentScriptType="text/ecmascript" fill="none" width="25" zoomAndPan="magnify" contentStyleType="text/css" viewBox="0 0 25 25" height="25" preserveAspectRatio="xMidYMid meet" version="1.0">
<g clip-path="url(#clip0_15238_137909)">
<circle fill="#BD3D44" r="6.85714" cx="17.815" cy="12.4917"/>
<path fill="white" clip-rule="evenodd" d="M14.1205 6.71155C13.666 7.00235 13.2481 7.34528 12.8752 7.73192H22.7472C22.3743 7.34528 21.9564 7.00235 21.5019 6.71155H14.1205ZM11.4487 9.92966C11.6038 9.54484 11.7928 9.17733 12.0121 8.83082H23.6103C23.8295 9.17733 24.0185 9.54484 24.1737 9.92966H11.4487ZM11.1105 11.0286C11.0438 11.3354 10.9977 11.6498 10.9736 11.9705H24.6488C24.6247 11.6498 24.5786 11.3354 24.5119 11.0286H11.1105ZM11.123 14.0113C11.0491 13.6846 10.9985 13.3491 10.9731 13.0066H24.6493C24.6239 13.3491 24.5733 13.6846 24.4994 14.0113H11.123ZM11.4717 15.1102C11.631 15.4954 11.8244 15.863 12.0481 16.2092H23.5742C23.798 15.863 23.9914 15.4954 24.1507 15.1102H11.4717ZM14.086 18.2498C13.667 17.9781 13.2795 17.662 12.9302 17.3081H22.6922C22.3429 17.662 21.9554 17.9781 21.5364 18.2498H14.086ZM17.7509 19.3487C17.771 19.3488 17.7911 19.3489 17.8112 19.3489C17.8313 19.3489 17.8514 19.3488 17.8715 19.3487H17.7509Z" fill-rule="evenodd"/>
<path fill="#00418E" clip-rule="evenodd" d="M10.9773 13.0129C10.9644 12.8408 10.9578 12.667 10.9578 12.4917C10.9578 8.70457 14.0279 5.63452 17.815 5.63452C18.0977 5.63452 18.3764 5.65163 18.6501 5.68487V13.0129H10.9773Z" fill-rule="evenodd"/>
<path fill="white" clip-rule="evenodd" d="M14.4688 6.51558C14.4292 6.5379 14.3899 6.56059 14.3509 6.58367L14.5358 6.7159L14.4688 6.51558ZM13.7522 6.98108C13.6136 7.08389 13.479 7.1918 13.3488 7.30454L13.3935 7.27304L13.6455 7.45251L13.5496 7.16054L13.8044 6.98108H13.7522ZM12.6813 7.9669C12.6504 8.00209 12.6198 8.0376 12.5896 8.07342L12.7552 8.19179L12.6813 7.9669ZM11.47 9.93286C11.4504 9.98149 11.4314 10.0304 11.4129 10.0796L11.4594 10.1123L11.3608 10.407L11.6156 10.2248L11.8703 10.407L11.7717 10.115L12.0265 9.93554H11.7142L11.6156 9.64358L11.5197 9.93286H11.47ZM16.0562 5.94983L16.1548 6.24179H16.4671L16.2151 6.42126L16.311 6.7159L16.0562 6.53376L15.8042 6.71322L15.9001 6.42126L15.648 6.24179H15.9603L16.0562 5.94983ZM17.8341 5.94983L17.93 6.24179H18.245L17.9903 6.42126L18.0889 6.7159L17.8341 6.53376L17.5793 6.71322L17.678 6.42126L17.4232 6.24179H17.7382L17.8341 5.94983ZM15.1686 6.68911L15.2673 6.98108H15.5796L15.3248 7.16054L15.4234 7.45251L15.1686 7.27304L14.9166 7.45251L15.0125 7.16054L14.7577 6.98108H15.0755L15.1686 6.68911ZM16.9465 6.68911L17.0424 6.98108H17.3575L17.1027 7.16054L17.1986 7.45251L16.9465 7.27304L16.6918 7.45251L16.7876 7.16054L16.5356 6.98108H16.8479L16.9465 6.68911ZM14.2811 7.42572L14.3769 7.72036H14.692L14.4372 7.89983L14.5358 8.19179L14.2811 8.00965L14.0263 8.19179L14.1249 7.89715L13.8701 7.71769H14.1824L14.2811 7.42572ZM16.0562 7.42572L16.1548 7.72036H16.4671L16.2151 7.89983L16.311 8.19179L16.0562 8.00965L15.8042 8.19179L15.9001 7.89715L15.648 7.71769H15.9603L16.0562 7.42572ZM17.8341 7.42572L17.93 7.72036H18.245L17.9903 7.89983L18.0889 8.19179L17.8341 8.00965L17.5793 8.19179L17.678 7.89715L17.4232 7.71769H17.7382L17.8341 7.42572ZM13.3935 8.16501L13.4894 8.45697H13.8044L13.5496 8.63643L13.6455 8.93108L13.3935 8.74893L13.1387 8.9284L13.2346 8.63643L12.9826 8.45697H13.2949L13.3935 8.16501ZM15.1686 8.16501L15.2673 8.45697H15.5796L15.3275 8.63643L15.4234 8.93108L15.1686 8.74893L14.9166 8.9284L15.0125 8.63643L14.7577 8.45697H15.0755L15.1686 8.16501ZM16.9465 8.16501L17.0424 8.45697H17.3575L17.1027 8.63643L17.1986 8.93108L16.9465 8.74893L16.6918 8.9284L16.7876 8.63643L16.5356 8.45697H16.8479L16.9465 8.16501ZM12.5032 8.90429L12.6018 9.19626H12.9113L12.6593 9.37572L12.7552 9.67036L12.5004 9.48822L12.2484 9.66768L12.3443 9.37572L12.0895 9.19626H12.4045L12.5032 8.90429ZM14.2811 8.90429L14.3769 9.19626H14.692L14.4372 9.37572L14.5358 9.67036L14.2811 9.48822L14.0263 9.66768L14.1249 9.37572L13.8701 9.19626H14.1824L14.2811 8.90429ZM16.0562 8.90429L16.1548 9.19626H16.4671L16.2151 9.37572L16.311 9.67036L16.0562 9.48822L15.8042 9.66768L15.9001 9.37572L15.648 9.19626H15.9603L16.0562 8.90429ZM17.8341 8.90429L17.93 9.19626H18.245L17.9903 9.37572L18.0889 9.67036L17.8341 9.48822L17.5793 9.66768L17.678 9.37572L17.4232 9.19626H17.7382L17.8341 8.90429ZM13.3935 9.64358L13.4894 9.93554H13.8044L13.5496 10.115L13.6455 10.407L13.3935 10.2248L13.1387 10.407L13.2346 10.1123L12.9826 9.93286H13.2949L13.3935 9.64358ZM15.1686 9.64358L15.2673 9.93554H15.5796L15.3275 10.115L15.4234 10.407L15.1686 10.2248L14.9166 10.407L15.0125 10.1123L14.7577 9.93286H15.0755L15.1686 9.64358ZM16.9465 9.64358L17.0424 9.93554H17.3575L17.1027 10.115L17.1986 10.407L16.9465 10.2248L16.6918 10.407L16.7876 10.1123L16.5356 9.93286H16.8479L16.9465 9.64358ZM12.5032 10.3802L12.6018 10.6748H12.9113L12.6593 10.8543L12.7552 11.1436L12.5004 10.9641L12.2484 11.1436L12.3443 10.8516L12.0895 10.6721H12.4045L12.5032 10.3802ZM14.2811 10.3802L14.3769 10.6748H14.692L14.4372 10.8543L14.5358 11.1436L14.2811 10.9641L14.0263 11.1436L14.1249 10.8516L13.8701 10.6721H14.1824L14.2811 10.3802ZM16.0562 10.3802L16.1548 10.6748H16.4671L16.2151 10.8543L16.311 11.1436L16.0562 10.9641L15.8042 11.1436L15.9001 10.8516L15.648 10.6721H15.9603L16.0562 10.3802ZM17.8341 10.3802L17.93 10.6748H18.245L17.9903 10.8543L18.0889 11.1436L17.8341 10.9641L17.5793 11.1436L17.678 10.8516L17.4232 10.6721H17.7382L17.8341 10.3802ZM11.6156 11.1195L11.7142 11.4114H12.0265L11.7717 11.5909L11.8703 11.8855L11.6156 11.7034L11.3608 11.8829L11.4594 11.5909L11.2047 11.4114H11.5197L11.6156 11.1195ZM13.3935 11.1195L13.4894 11.4114H13.8044L13.5496 11.5909L13.6455 11.8855L13.3935 11.7034L13.1387 11.8829L13.2346 11.5909L12.9826 11.4114H13.2949L13.3935 11.1195ZM15.1686 11.1195L15.2673 11.4114H15.5796L15.3275 11.5909L15.4234 11.8855L15.1686 11.7034L14.9166 11.8829L15.0125 11.5909L14.7577 11.4114H15.0755L15.1686 11.1195ZM16.9465 11.1195L17.0424 11.4114H17.3575L17.1027 11.5909L17.1986 11.8855L16.9465 11.7034L16.6918 11.8829L16.7876 11.5909L16.5356 11.4114H16.8479L16.9465 11.1195ZM12.5032 11.8588L12.6018 12.1507H12.9113L12.6648 12.3302L12.7607 12.6221L12.5059 12.4427L12.2539 12.6221L12.3497 12.3275L12.095 12.148H12.41L12.5032 11.8588ZM14.2811 11.8588L14.3769 12.1507H14.692L14.4372 12.3302L14.5358 12.6221L14.2811 12.4427L14.0263 12.6221L14.1249 12.3275L13.8701 12.148H14.1824L14.2811 11.8588ZM16.0562 11.8588L16.1548 12.1507H16.4671L16.2151 12.3302L16.311 12.6221L16.0562 12.4427L15.8042 12.6221L15.9001 12.3275L15.648 12.148H15.9603L16.0562 11.8588ZM17.8341 11.8588L17.93 12.1507H18.245L17.9903 12.3302L18.0889 12.6221L17.8341 12.4427L17.5793 12.6221L17.678 12.3275L17.4232 12.148H17.7382L17.8341 11.8588Z" fill-rule="evenodd"/>
<g clip-path="url(#clip1_15238_137909)">
<path fill="white" d="M7.52632 18.918C10.9021 18.918 13.6387 16.1811 13.6387 12.805C13.6387 9.42881 10.9021 6.69189 7.52632 6.69189C4.15055 6.69189 1.41394 9.42881 1.41394 12.805C1.41394 16.1811 4.15055 18.918 7.52632 18.918Z"/>
<path fill="#345D9D" d="M7.52635 5.94995C6.17071 5.94995 4.84552 6.35199 3.71835 7.10523C2.59117 7.85846 1.71265 8.92907 1.19387 10.1817C0.675089 11.4342 0.539352 12.8126 0.803824 14.1423C1.0683 15.472 1.7211 16.6935 2.67968 17.6522C3.63826 18.6109 4.85957 19.2637 6.18916 19.5282C7.51875 19.7927 8.8969 19.657 10.1494 19.1381C11.4018 18.6193 12.4723 17.7407 13.2254 16.6134C13.9786 15.4861 14.3806 14.1607 14.3806 12.805C14.3832 11.9074 14.209 11.018 13.868 10.1878C13.5269 9.35748 13.0257 8.60252 12.3929 7.96598C11.7602 7.32943 11.0082 6.82377 10.18 6.47786C9.35187 6.13195 8.46368 5.95256 7.56618 5.94995H7.52635ZM7.64252 13.0373L6.92889 15.444H10.746C10.7713 15.4432 10.7965 15.4473 10.8202 15.4561C10.8439 15.465 10.8656 15.4784 10.8841 15.4957C10.9026 15.513 10.9175 15.5337 10.928 15.5567C10.9385 15.5798 10.9443 15.6047 10.9452 15.6299V15.693L10.6132 16.8383C10.5986 16.8924 10.566 16.94 10.5208 16.9732C10.4755 17.0064 10.4204 17.0232 10.3643 17.0209H4.52244L5.50162 13.6846L4.40627 14.0166L4.65521 13.2531L5.75056 12.9211L7.12804 8.24048C7.14321 8.18663 7.17595 8.13939 7.22107 8.10631C7.26618 8.07322 7.32107 8.05618 7.37699 8.05791H8.85405C8.87933 8.05702 8.90454 8.06112 8.92824 8.06999C8.95194 8.07885 8.97366 8.0923 8.99215 8.10957C9.01065 8.12683 9.02556 8.14758 9.03604 8.17061C9.04651 8.19364 9.05234 8.21851 9.0532 8.2438V8.30688L7.89147 12.2572L8.98682 11.9253L8.75447 12.722L7.64252 13.0373Z"/>
</g>
</g>
<defs>
<clipPath id="clip0_15238_137909">
<rect fill="white" width="24" height="24" transform="translate(0.672119 0.491699)"/>
</clipPath>
<clipPath id="clip1_15238_137909">
<rect fill="white" width="13.7085" height="13.71" transform="translate(0.672119 5.94995)"/>
</clipPath>
</defs>
<metadata symbolName="LTCUSD" fileName="ltcusd.svg" id="grimlock-metadata-id" lastUpdate="2025-02-10T09:58:22.673914054" symbolId="1443"/></svg>