<?xml version="1.0" encoding="UTF-8" standalone="no"?><svg xmlns="http://www.w3.org/2000/svg" xmlns:xlink="http://www.w3.org/1999/xlink" contentScriptType="text/ecmascript" fill="none" width="25" zoomAndPan="magnify" contentStyleType="text/css" viewBox="0 0 25 25" height="25" preserveAspectRatio="xMidYMid meet" version="1.0">
<g clip-path="url(#clip0_15238_138056)">
<circle fill="#BD3D44" r="6.85714" cx="17.815" cy="12.2798"/>
<path fill="white" clip-rule="evenodd" d="M14.1205 6.49963C13.666 6.79043 13.2481 7.13337 12.8752 7.52001H22.7472C22.3743 7.13337 21.9564 6.79043 21.5019 6.49963H14.1205ZM11.4487 9.71775C11.6038 9.33293 11.7928 8.96542 12.0121 8.61891H23.6103C23.8295 8.96542 24.0185 9.33293 24.1737 9.71775H11.4487ZM11.1105 10.8166C11.0438 11.1235 10.9977 11.4379 10.9736 11.7586H24.6488C24.6247 11.4379 24.5786 11.1235 24.5119 10.8166H11.1105ZM11.123 13.7994C11.0491 13.4727 10.9985 13.1372 10.9731 12.7947H24.6493C24.6239 13.1372 24.5733 13.4727 24.4994 13.7994H11.123ZM11.4717 14.8983C11.631 15.2835 11.8244 15.6511 12.0481 15.9972H23.5742C23.798 15.6511 23.9914 15.2835 24.1507 14.8983H11.4717ZM14.086 18.0378C13.667 17.7662 13.2795 17.4501 12.9302 17.0961H22.6922C22.3429 17.4501 21.9554 17.7662 21.5364 18.0378H14.086ZM17.7509 19.1367C17.771 19.1369 17.7911 19.137 17.8112 19.137C17.8313 19.137 17.8514 19.1369 17.8715 19.1367H17.7509Z" fill-rule="evenodd"/>
<path fill="#00418E" clip-rule="evenodd" d="M10.9773 12.8009C10.9644 12.6289 10.9578 12.4551 10.9578 12.2798C10.9578 8.49265 14.0279 5.42261 17.815 5.42261C18.0977 5.42261 18.3764 5.43972 18.6501 5.47295V12.8009H10.9773Z" fill-rule="evenodd"/>
<path fill="white" clip-rule="evenodd" d="M14.4688 6.30367C14.4292 6.32598 14.3899 6.34868 14.3509 6.37175L14.5358 6.50399L14.4688 6.30367ZM13.7522 6.76916C13.6136 6.87197 13.479 6.97989 13.3488 7.09262L13.3935 7.06113L13.6455 7.24059L13.5496 6.94863L13.8044 6.76916H13.7522ZM12.6813 7.75498C12.6504 7.79017 12.6198 7.82568 12.5896 7.86151L12.7552 7.97988L12.6813 7.75498ZM11.47 9.72095C11.4504 9.76958 11.4314 9.81849 11.4129 9.86766L11.4594 9.90041L11.3608 10.1951L11.6156 10.0129L11.8703 10.1951L11.7717 9.90309L12.0265 9.72363H11.7142L11.6156 9.43166L11.5197 9.72095H11.47ZM16.0562 5.73792L16.1548 6.02988H16.4671L16.2151 6.20934L16.311 6.50399L16.0562 6.32184L15.8042 6.50131L15.9001 6.20934L15.648 6.02988H15.9603L16.0562 5.73792ZM17.8341 5.73792L17.93 6.02988H18.245L17.9903 6.20934L18.0889 6.50399L17.8341 6.32184L17.5793 6.50131L17.678 6.20934L17.4232 6.02988H17.7382L17.8341 5.73792ZM15.1686 6.4772L15.2673 6.76916H15.5796L15.3248 6.94863L15.4234 7.24059L15.1686 7.06113L14.9166 7.24059L15.0125 6.94863L14.7577 6.76916H15.0755L15.1686 6.4772ZM16.9465 6.4772L17.0424 6.76916H17.3575L17.1027 6.94863L17.1986 7.24059L16.9465 7.06113L16.6918 7.24059L16.7876 6.94863L16.5356 6.76916H16.8479L16.9465 6.4772ZM14.2811 7.21381L14.3769 7.50845H14.692L14.4372 7.68791L14.5358 7.97988L14.2811 7.79774L14.0263 7.97988L14.1249 7.68524L13.8701 7.50577H14.1824L14.2811 7.21381ZM16.0562 7.21381L16.1548 7.50845H16.4671L16.2151 7.68791L16.311 7.97988L16.0562 7.79774L15.8042 7.97988L15.9001 7.68524L15.648 7.50577H15.9603L16.0562 7.21381ZM17.8341 7.21381L17.93 7.50845H18.245L17.9903 7.68791L18.0889 7.97988L17.8341 7.79774L17.5793 7.97988L17.678 7.68524L17.4232 7.50577H17.7382L17.8341 7.21381ZM13.3935 7.95309L13.4894 8.24506H13.8044L13.5496 8.42452L13.6455 8.71916L13.3935 8.53702L13.1387 8.71648L13.2346 8.42452L12.9826 8.24506H13.2949L13.3935 7.95309ZM15.1686 7.95309L15.2673 8.24506H15.5796L15.3275 8.42452L15.4234 8.71916L15.1686 8.53702L14.9166 8.71648L15.0125 8.42452L14.7577 8.24506H15.0755L15.1686 7.95309ZM16.9465 7.95309L17.0424 8.24506H17.3575L17.1027 8.42452L17.1986 8.71916L16.9465 8.53702L16.6918 8.71648L16.7876 8.42452L16.5356 8.24506H16.8479L16.9465 7.95309ZM12.5032 8.69238L12.6018 8.98434H12.9113L12.6593 9.16381L12.7552 9.45845L12.5004 9.27631L12.2484 9.45577L12.3443 9.16381L12.0895 8.98434H12.4045L12.5032 8.69238ZM14.2811 8.69238L14.3769 8.98434H14.692L14.4372 9.16381L14.5358 9.45845L14.2811 9.27631L14.0263 9.45577L14.1249 9.16381L13.8701 8.98434H14.1824L14.2811 8.69238ZM16.0562 8.69238L16.1548 8.98434H16.4671L16.2151 9.16381L16.311 9.45845L16.0562 9.27631L15.8042 9.45577L15.9001 9.16381L15.648 8.98434H15.9603L16.0562 8.69238ZM17.8341 8.69238L17.93 8.98434H18.245L17.9903 9.16381L18.0889 9.45845L17.8341 9.27631L17.5793 9.45577L17.678 9.16381L17.4232 8.98434H17.7382L17.8341 8.69238ZM13.3935 9.43166L13.4894 9.72363H13.8044L13.5496 9.90309L13.6455 10.1951L13.3935 10.0129L13.1387 10.1951L13.2346 9.90041L12.9826 9.72095H13.2949L13.3935 9.43166ZM15.1686 9.43166L15.2673 9.72363H15.5796L15.3275 9.90309L15.4234 10.1951L15.1686 10.0129L14.9166 10.1951L15.0125 9.90041L14.7577 9.72095H15.0755L15.1686 9.43166ZM16.9465 9.43166L17.0424 9.72363H17.3575L17.1027 9.90309L17.1986 10.1951L16.9465 10.0129L16.6918 10.1951L16.7876 9.90041L16.5356 9.72095H16.8479L16.9465 9.43166ZM12.5032 10.1683L12.6018 10.4629H12.9113L12.6593 10.6424L12.7552 10.9317L12.5004 10.7522L12.2484 10.9317L12.3443 10.6397L12.0895 10.4602H12.4045L12.5032 10.1683ZM14.2811 10.1683L14.3769 10.4629H14.692L14.4372 10.6424L14.5358 10.9317L14.2811 10.7522L14.0263 10.9317L14.1249 10.6397L13.8701 10.4602H14.1824L14.2811 10.1683ZM16.0562 10.1683L16.1548 10.4629H16.4671L16.2151 10.6424L16.311 10.9317L16.0562 10.7522L15.8042 10.9317L15.9001 10.6397L15.648 10.4602H15.9603L16.0562 10.1683ZM17.8341 10.1683L17.93 10.4629H18.245L17.9903 10.6424L18.0889 10.9317L17.8341 10.7522L17.5793 10.9317L17.678 10.6397L17.4232 10.4602H17.7382L17.8341 10.1683ZM11.6156 10.9076L11.7142 11.1995H12.0265L11.7717 11.379L11.8703 11.6736L11.6156 11.4915L11.3608 11.6709L11.4594 11.379L11.2047 11.1995H11.5197L11.6156 10.9076ZM13.3935 10.9076L13.4894 11.1995H13.8044L13.5496 11.379L13.6455 11.6736L13.3935 11.4915L13.1387 11.6709L13.2346 11.379L12.9826 11.1995H13.2949L13.3935 10.9076ZM15.1686 10.9076L15.2673 11.1995H15.5796L15.3275 11.379L15.4234 11.6736L15.1686 11.4915L14.9166 11.6709L15.0125 11.379L14.7577 11.1995H15.0755L15.1686 10.9076ZM16.9465 10.9076L17.0424 11.1995H17.3575L17.1027 11.379L17.1986 11.6736L16.9465 11.4915L16.6918 11.6709L16.7876 11.379L16.5356 11.1995H16.8479L16.9465 10.9076ZM12.5032 11.6468L12.6018 11.9388H12.9113L12.6648 12.1183L12.7607 12.4102L12.5059 12.2308L12.2539 12.4102L12.3497 12.1156L12.095 11.9361H12.41L12.5032 11.6468ZM14.2811 11.6468L14.3769 11.9388H14.692L14.4372 12.1183L14.5358 12.4102L14.2811 12.2308L14.0263 12.4102L14.1249 12.1156L13.8701 11.9361H14.1824L14.2811 11.6468ZM16.0562 11.6468L16.1548 11.9388H16.4671L16.2151 12.1183L16.311 12.4102L16.0562 12.2308L15.8042 12.4102L15.9001 12.1156L15.648 11.9361H15.9603L16.0562 11.6468ZM17.8341 11.6468L17.93 11.9388H18.245L17.9903 12.1183L18.0889 12.4102L17.8341 12.2308L17.5793 12.4102L17.678 12.1156L17.4232 11.9361H17.7382L17.8341 11.6468Z" fill-rule="evenodd"/>
<g clip-path="url(#clip1_15238_138056)">
<path fill="url(#paint0_linear_15238_138056)" d="M14.1755 14.2513C13.26 17.9237 9.54045 20.1586 5.86766 19.2428C2.1964 18.3273 -0.0385204 14.6075 0.877416 10.9355C1.79255 7.26272 5.51205 5.02763 9.18371 5.94316C12.8562 6.8587 15.0911 10.5788 14.1755 14.2513Z"/>
<g clip-path="url(#clip2_15238_138056)">
<path fill="white" d="M7.7005 15.2445C7.8575 15.153 7.95894 14.9773 7.97102 14.776L7.95797 13.3107L7.97631 12.3321L7.95199 10.8864C7.9528 10.7046 8.05425 10.5289 8.22251 10.4178L9.21481 9.87137C9.3718 9.77979 9.58435 9.77235 9.76006 9.87379L10.7362 10.4374C10.8924 10.5276 11.0035 10.6958 11.011 10.9084L11.0144 12.0297C11.0135 12.2114 10.9121 12.3871 10.7438 12.4982L9.75153 13.0447C9.59454 13.1362 9.38199 13.1437 9.20628 13.0422L8.56201 12.6703L8.5632 13.6601L9.22699 14.0434C9.38318 14.1336 9.58445 14.1456 9.77224 14.0458L11.5916 13.0137C11.7486 12.9221 11.85 12.7464 11.8621 12.5452L11.8493 10.4032C11.8614 10.2019 11.7503 10.0337 11.5941 9.94348L9.75888 8.88393C9.60269 8.79375 9.40142 8.78167 9.21362 8.8815L7.38301 9.93311C7.22602 10.0247 7.12457 10.2004 7.11249 10.4017L7.11729 11.8362L7.11847 12.826L7.12327 14.2605C7.12246 14.4423 7.02101 14.618 6.85274 14.7291L5.87997 15.2868C5.72298 15.3783 5.51043 15.3858 5.33472 15.2843L4.35856 14.7208C4.20237 14.6306 4.09127 14.4623 4.08383 14.2498L4.06916 13.148C4.06997 12.9662 4.17142 12.7905 4.33968 12.6794L5.31245 12.1217C5.46945 12.0301 5.682 12.0227 5.85771 12.1241L6.48245 12.4848L6.48127 11.495L5.837 11.123C5.68081 11.0328 5.47954 11.0208 5.29175 11.1206L3.46113 12.1722C3.30414 12.2638 3.20269 12.4395 3.19061 12.6408L3.19519 14.7519C3.19438 14.9337 3.29421 15.1215 3.46992 15.2229L5.32464 16.2937C5.48082 16.3839 5.6821 16.396 5.86989 16.2962L7.7005 15.2445Z"/>
</g>
</g>
</g>
<defs>
<linearGradient x1="2.69801" gradientUnits="userSpaceOnUse" x2="11.2658" y1="7.67503" y2="18.0992" xlink:type="simple" xlink:actuate="onLoad" id="paint0_linear_15238_138056" xlink:show="other">
<stop stop-color="#8247E5"/>
<stop stop-color="#D367EE" offset="1"/>
</linearGradient>
<clipPath id="clip0_15238_138056">
<rect fill="white" width="24" height="24" transform="translate(0.672119 0.279785)"/>
</clipPath>
<clipPath id="clip1_15238_138056">
<rect fill="white" width="13.7085" height="13.71" transform="translate(0.672119 5.73804)"/>
</clipPath>
<clipPath id="clip2_15238_138056">
<rect fill="white" width="8.65674" height="7.5521" transform="translate(12.9607 10.7325) rotate(120)"/>
</clipPath>
</defs>
<metadata symbolName="MATICUSD" fileName="maticusd.svg" id="grimlock-metadata-id" lastUpdate="2025-02-10T09:58:22.673926685" symbolId="1445"/></svg>