<?xml version="1.0" encoding="UTF-8"?>
<!DOCTYPE svg PUBLIC "-//W3C//DTD SVG 1.0//EN" "http://www.w3.org/TR/2001/REC-SVG-20010904/DTD/svg10.dtd">
<!-- Creator: CorelDRAW X8 -->
<svg xmlns="http://www.w3.org/2000/svg" xml:space="preserve" width="11.6929in" height="8.26772in" version="1.0" shape-rendering="geometricPrecision" text-rendering="geometricPrecision" image-rendering="optimizeQuality" fill-rule="evenodd" clip-rule="evenodd"
viewBox="0 0 11693 8268"
 xmlns:xlink="http://www.w3.org/1999/xlink">
 <g id="Layer_x0020_1">
  <metadata id="CorelCorpID_0Corel-Layer"/>
  <path fill="#93A0B3" fill-rule="nonzero" d="M5357 3570l287 0c34,0 65,14 87,38 23,24 36,56 36,92l0 303c0,36 -14,69 -36,92l0 1c-22,23 -53,38 -87,38l-287 0c-34,0 -65,-15 -87,-38l-1 -1c-22,-23 -36,-56 -36,-92l0 -303c0,-36 14,-68 36,-92 2,-2 4,-3 5,-5 22,-20 51,-33 83,-33zm486 190l203 -215c1,-1 3,-3 5,-4 23,-23 53,-34 82,-34 32,0 63,13 88,38l0 0 0 0 203 215c1,1 3,3 4,5 21,24 32,56 32,87 0,33 -12,66 -36,92l0 0 0 0 -203 214c-2,2 -3,4 -5,5 -22,21 -49,32 -77,33l138 0c34,0 65,15 87,39 23,23 37,56 37,92l0 303c0,36 -14,68 -37,92l0 0c-22,24 -53,39 -87,39l-287 0c-34,0 -65,-15 -87,-39l-1 0c-22,-24 -36,-56 -36,-92l0 -303c0,-36 14,-69 36,-92 2,-2 4,-3 5,-5 22,-21 51,-34 83,-34l137 0c-29,-1 -58,-14 -81,-38l0 0 0 0 -203 -214c-2,-1 -3,-3 -4,-5 -22,-25 -32,-56 -32,-87 0,-33 12,-67 36,-92l0 0 0 0zm290 -123l-203 214 0 0 0 1 203 215 0 0 1 0 203 -214 0 0 0 -2 -203 -214 0 0 -1 0 0 0zm144 689l-287 0 -1 0c0,1 0,1 0,1l0 303 0 1 0 0 1 0 287 0c0,0 0,0 0,0l1 0 0 0 0 -1 0 -303c0,0 0,0 -1,-1 0,0 0,0 0,0zm-920 -130l287 0c34,0 65,15 87,39 23,23 36,56 36,92l0 303c0,36 -14,68 -36,92l0 0c-22,24 -53,39 -87,39l-287 0c-34,0 -65,-15 -87,-39l-1 0c-22,-24 -36,-56 -36,-92l0 -303c0,-36 14,-69 36,-92 2,-2 4,-3 5,-5 22,-21 51,-34 83,-34zm287 130l-288 0 0 0c0,1 0,1 0,1l0 303 0 1 0 0 1 0 287 0c0,0 0,0 0,0l0 0 1 0 0 -1 0 -303c0,0 0,0 -1,-1 0,0 0,0 0,0zm0 -627l-288 0 0 1c0,0 0,0 0,0l0 303 0 1 0 0 1 0 287 0c0,0 0,0 0,0l0 0 1 0 0 -1 0 -303c0,0 0,0 -1,0 0,-1 0,-1 0,-1z"/>
 </g>
</svg>
