<?xml version="1.0" encoding="UTF-8"?>
<!DOCTYPE svg PUBLIC "-//W3C//DTD SVG 1.0//EN" "http://www.w3.org/TR/2001/REC-SVG-20010904/DTD/svg10.dtd">
<!-- Creator: CorelDRAW X8 -->
<svg xmlns="http://www.w3.org/2000/svg" xml:space="preserve" width="11.6929in" height="8.26772in" version="1.0" shape-rendering="geometricPrecision" text-rendering="geometricPrecision" image-rendering="optimizeQuality" fill-rule="evenodd" clip-rule="evenodd"
viewBox="0 0 11693 8268"
 xmlns:xlink="http://www.w3.org/1999/xlink">
 <g id="Layer_x0020_1">
  <metadata id="CorelCorpID_0Corel-Layer"/>
  <path fill="#93A0B3" fill-rule="nonzero" d="M7097 2170l-1601 634 968 968 633 -1602zm-3574 3154l1091 -2759 1 -2 0 -1 3 -5 0 -2 3 -6 1 -1 2 -6 1 -1c15,-31 35,-59 57,-82l1 -1 1 -1 5 -5 1 -1 1 -1c24,-23 51,-42 82,-57l1 -1 6 -3 2 0 5 -3 2 -1 5 -2 1 0 2 -1 1379 -546 1380 -546c74,-29 159,-31 238,0 167,66 249,255 183,422l-1088 2749 0 2 -1 2 0 1 -1 1 -1 2 0 2 -1 2 0 1 -1 1 -2 4 0 2 -1 0 -3 7 0 1 -3 6 -4 7 0 0 0 1 -1 2 -1 2 -1 2 -1 0 0 2 -1 2 -2 2 0 1 -1 1 -1 2 -2 3 -1 1 0 1 -2 2 -2 4 0 0 -1 2 -1 2 -2 2 -1 1 -1 2 -3 4 0 0 -1 2 -2 1 -1 2 -1 2 0 0 -1 1 -4 4 0 1 -2 3 -2 2 -1 1 -1 1 -1 1 -1 2 -2 2 -1 1 0 0 -2 2 -3 3 -1 1 -1 1 -1 2 -2 1 -2 2 -1 2 -2 1 -2 2 -1 1 0 1 -4 3 -1 1 -1 1 -1 1 -2 1 -2 2 -1 1 0 0 -2 2 -2 1 -2 2 -1 1 -5 4 -1 0 0 0 -1 2 -2 1 -2 1 -1 1 -1 1 -4 2 -1 2 -2 1 -2 1 -2 2 -2 1 0 0 -4 2 -1 1 -1 1 -1 1 -4 2 -2 1 0 0 -2 1 -2 1 -2 1 -1 1 -1 0 -2 2 -2 1 -2 1 0 0 0 0 -7 4 -6 2 -2 1 -6 3 -1 0 -1 1 -4 2 -2 0 0 1 -2 0 -2 1 -3 1 0 0 -2 1 -2 0 -2 1 -2749 1088c-167,66 -355,-16 -421,-183 -32,-80 -29,-164 0,-238zm1150 -1141l-270 682 1601 -634 -968 -967 -363 919z"/>
 </g>
</svg>
