<?xml version="1.0" encoding="utf-8"?>
<!-- Generator: Adobe Illustrator 23.0.2, SVG Export Plug-In . SVG Version: 6.00 Build 0)  -->
<svg version="1.1" id="Layer_1" xmlns="http://www.w3.org/2000/svg" xmlns:xlink="http://www.w3.org/1999/xlink" x="0px" y="0px"
	 viewBox="0 0 56 56" style="enable-background:new 0 0 56 56;" xml:space="preserve">
<style type="text/css">
	.st0{fill:#0071BC;}
	.st1{fill:#FFFFFF;}
</style>
<path class="st0" d="M0,28C0,12.5,12.5,0,28,0s28,12.5,28,28S43.5,56,28,56S0,43.5,0,28z"/>
<path class="st1" d="M37.5,18.8c0,0.3-0.9,5.5-3.5,7.6c3.5-10.9-6-17.1-6-17.1s-1.5,8.1-4.3,11.2c-0.2-3.5-2.2-5.6-2.2-5.6
	c-1.4,6.3-6.5,11.8-6.5,15.9c0,7.1,5.8,12.8,12.9,12.8c7.2,0,12.9-5.7,12.9-12.8C40.9,25.6,39.5,21.9,37.5,18.8L37.5,18.8z"/>
</svg>
