<?xml version="1.0" encoding="UTF-8" standalone="no"?><svg xmlns="http://www.w3.org/2000/svg" xmlns:xlink="http://www.w3.org/1999/xlink" contentScriptType="text/ecmascript" fill="none" width="24" zoomAndPan="magnify" contentStyleType="text/css" viewBox="0 0 24 24" height="24" preserveAspectRatio="xMidYMid meet" version="1.0">
<mask x="10" y="5" width="14" maskUnits="userSpaceOnUse" style="mask-type:alpha" height="14" id="mask0_15235_116684">
<circle fill="white" r="6.35714" cx="16.9145" cy="12" stroke="#D3D3D3"/>
</mask>
<g mask="url(#mask0_15235_116684)">
<rect fill="url(#paint0_linear_15235_116684)" x="10.5574" width="12.7143" height="12.7143" y="5.64282" stroke="#EEEEEE"/>
<path fill="#D80027" d="M7.31451 5.14282H12.1654V18.8571H7.31451V5.14282ZM21.8699 5.14282H26.7208V18.8571H21.8725L21.8699 5.14282ZM13.6199 11.7696L13.2395 11.8982L14.994 13.4384C15.1279 13.8321 14.9484 13.9473 14.8333 14.1562L16.735 13.9151L16.6895 15.8303L17.0859 15.8196L16.9975 13.9178L18.9047 14.1455C18.7868 13.8964 18.6824 13.7651 18.7895 13.3687L20.5413 11.9089L20.2359 11.7964C19.9842 11.6035 20.3431 10.8669 20.3967 10.4009C20.3967 10.4009 19.3761 10.7518 19.3092 10.5669L19.0467 10.066L18.1172 11.0893C18.0154 11.1134 17.9725 11.0732 17.9484 10.9875L18.377 8.84996L17.6967 9.233C17.6404 9.25979 17.5842 9.23836 17.5467 9.17139L16.8904 7.85889L16.2154 9.22229C16.1645 9.2705 16.1136 9.27586 16.0708 9.24372L15.4225 8.87943L15.8136 10.9982C15.7815 11.0839 15.7065 11.1053 15.6208 11.0598L14.7288 10.05C14.6136 10.2375 14.5359 10.5401 14.3806 10.6098C14.2279 10.6741 13.7109 10.4812 13.3654 10.4062C13.4833 10.8321 13.8529 11.5393 13.6199 11.7723V11.7696Z"/>
<circle r="6.35714" cx="16.9145" cy="12" stroke="#EEEEEE"/>
</g>
<path fill="#0052B4" d="M13.7143 12C13.7143 15.7868 10.644 18.8571 6.85714 18.8571C3.06998 18.8571 0 15.7871 0 12C0 12.0016 6.85714 5.14349 6.85714 5.14282C10.6443 5.14282 13.7143 8.2128 13.7143 12Z"/>
<path fill="#F0F0F0" d="M6.83884 12H6.85725V11.9816C6.85123 11.9876 6.84486 11.994 6.83884 12Z"/>
<path fill="#F0F0F0" d="M6.85714 8.72039V5.14282H6.8558C3.06931 5.14349 0 8.21313 0 12H3.57757V9.98534L5.59219 12H6.83873C6.84475 11.9939 6.85078 11.9876 6.85714 11.9815V10.735L4.84252 8.72039H6.85714V8.72039Z"/>
<path fill="#D80027" d="M3.46897 6.03711C2.39654 6.64782 1.50491 7.53945 0.894196 8.61189V11.9999H2.68315V7.82606H6.85703V6.03711H3.46897Z"/>
<path fill="#D80027" d="M6.85724 11.1565L4.42108 8.72034H3.57767L6.85724 11.9999V11.1565Z"/>
<path fill="#D80027" d="M11.875 10.2311L12.023 10.6864H12.5018L12.1144 10.968L12.2624 11.4237L11.875 11.1421L11.4876 11.4237L11.6356 10.968L11.2482 10.6864H11.727L11.875 10.2311Z"/>
<path fill="#D80027" d="M10.1628 13.5104L10.3848 14.1937H11.1033L10.5221 14.616L10.7441 15.2993L10.1628 14.8771L9.58158 15.2993L9.80357 14.616L9.22232 14.1937H9.94085L10.1628 13.5104Z"/>
<path fill="#D80027" d="M10.2272 8.14417L10.4124 8.7137H11.0111L10.5266 9.06559L10.7117 9.63512L10.2276 9.28323L9.74309 9.63479L9.92791 9.06526L9.44376 8.71336H10.0424L10.2272 8.14417Z"/>
<path fill="#D80027" d="M8.58025 10.2113L8.80224 10.8947H9.52077L8.93952 11.3169L9.1615 12.0003L8.58025 11.578L7.999 11.9999L8.22099 11.3165L7.63974 10.8943H8.35827L8.58025 10.2113Z"/>
<defs>
<linearGradient x1="16.9145" gradientUnits="userSpaceOnUse" x2="16.9145" y1="5.14282" y2="18.8571" xlink:type="simple" xlink:actuate="onLoad" id="paint0_linear_15235_116684" xlink:show="other">
<stop stop-color="white" offset="0.567708"/>
<stop stop-color="#D1D1D1" offset="1"/>
</linearGradient>
</defs>
<metadata symbolName="NZDCAD" fileName="nzdcad.svg" id="grimlock-metadata-id" lastUpdate="2025-02-10T09:58:22.673980958" symbolId="37"/></svg>