<?xml version="1.0" encoding="UTF-8" standalone="no"?><svg xmlns="http://www.w3.org/2000/svg" xmlns:xlink="http://www.w3.org/1999/xlink" contentScriptType="text/ecmascript" fill="none" width="24" zoomAndPan="magnify" contentStyleType="text/css" viewBox="0 0 24 24" height="24" preserveAspectRatio="xMidYMid meet" version="1.0">
<circle fill="url(#paint0_linear_15235_116686)" r="6.35714" cx="16.9145" cy="12" stroke="#EEEEEE"/>
<path fill="#D80027" d="M17.0139 15.5928C18.9979 15.5928 20.6062 13.9844 20.6062 12.0005C20.6062 10.0165 18.9979 8.4082 17.0139 8.4082C15.03 8.4082 13.4217 10.0165 13.4217 12.0005C13.4217 13.9844 15.03 15.5928 17.0139 15.5928Z"/>
<path fill="#0052B4" d="M13.7143 12C13.7143 15.7868 10.644 18.8571 6.85714 18.8571C3.06998 18.8571 0 15.7871 0 12C0 12.0016 6.85714 5.14349 6.85714 5.14282C10.6443 5.14282 13.7143 8.2128 13.7143 12Z"/>
<path fill="#F0F0F0" d="M6.83884 12H6.85725V11.9816C6.85123 11.9876 6.84486 11.994 6.83884 12Z"/>
<path fill="#F0F0F0" d="M6.85714 8.72039V5.14282H6.8558C3.06931 5.14349 0 8.21313 0 12H3.57757V9.98534L5.59219 12H6.83873C6.84475 11.9939 6.85078 11.9876 6.85714 11.9815V10.735L4.84252 8.72039H6.85714V8.72039Z"/>
<path fill="#D80027" d="M3.46897 6.03711C2.39654 6.64782 1.50491 7.53945 0.894196 8.61189V11.9999H2.68315V7.82606H6.85703V6.03711H3.46897Z"/>
<path fill="#D80027" d="M6.85724 11.1565L4.42108 8.72034H3.57767L6.85724 11.9999V11.1565Z"/>
<path fill="#D80027" d="M11.875 10.2311L12.023 10.6864H12.5018L12.1144 10.968L12.2624 11.4237L11.875 11.1421L11.4876 11.4237L11.6356 10.968L11.2482 10.6864H11.727L11.875 10.2311Z"/>
<path fill="#D80027" d="M10.1628 13.5104L10.3848 14.1937H11.1033L10.5221 14.616L10.7441 15.2993L10.1628 14.8771L9.58158 15.2993L9.80357 14.616L9.22232 14.1937H9.94085L10.1628 13.5104Z"/>
<path fill="#D80027" d="M10.2272 8.14417L10.4124 8.7137H11.0111L10.5266 9.06559L10.7117 9.63512L10.2276 9.28323L9.74309 9.63479L9.92791 9.06526L9.44376 8.71336H10.0424L10.2272 8.14417Z"/>
<path fill="#D80027" d="M8.58025 10.2113L8.80224 10.8947H9.52077L8.93952 11.3169L9.1615 12.0003L8.58025 11.578L7.999 11.9999L8.22099 11.3165L7.63974 10.8943H8.35827L8.58025 10.2113Z"/>
<defs>
<linearGradient x1="16.9145" gradientUnits="userSpaceOnUse" x2="16.9145" y1="5.14282" y2="18.8571" xlink:type="simple" xlink:actuate="onLoad" id="paint0_linear_15235_116686" xlink:show="other">
<stop stop-color="white" offset="0.567708"/>
<stop stop-color="#D1D1D1" offset="1"/>
</linearGradient>
</defs>
<metadata symbolName="NZDJPY" fileName="nzdjpy.svg" id="grimlock-metadata-id" lastUpdate="2025-02-10T09:58:22.673992209" symbolId="39"/></svg>