<?xml version="1.0" encoding="UTF-8" standalone="no"?><svg xmlns="http://www.w3.org/2000/svg" xmlns:xlink="http://www.w3.org/1999/xlink" contentScriptType="text/ecmascript" fill="none" width="24" zoomAndPan="magnify" contentStyleType="text/css" viewBox="0 0 24 24" height="24" preserveAspectRatio="xMidYMid meet" version="1.0">
<circle fill="#BD3D44" r="6.85714" cx="17.1428" cy="12"/>
<path fill="white" clip-rule="evenodd" d="M13.4484 6.21985C12.9939 6.51065 12.576 6.85358 12.203 7.24022H22.0751C21.7022 6.85358 21.2842 6.51065 20.8298 6.21985H13.4484ZM10.7766 9.43796C10.9317 9.05314 11.1207 8.68563 11.3399 8.33912H22.9382C23.1574 8.68563 23.3464 9.05314 23.5015 9.43796H10.7766ZM10.4384 10.5369C10.3717 10.8437 10.3256 11.1581 10.3014 11.4788H23.9767C23.9526 11.1581 23.9064 10.8437 23.8398 10.5369H10.4384ZM10.4509 13.5196C10.377 13.1929 10.3264 12.8574 10.301 12.5149H23.9772C23.9518 12.8574 23.9012 13.1929 23.8273 13.5196H10.4509ZM10.7996 14.6185C10.9589 15.0037 11.1523 15.3713 11.376 15.7175H22.9021C23.1259 15.3713 23.3193 15.0037 23.4786 14.6185H10.7996ZM13.4139 17.7581C12.9949 17.4864 12.6074 17.1703 12.2581 16.8164H22.02C21.6708 17.1703 21.2833 17.4864 20.8643 17.7581H13.4139ZM17.0788 18.857C17.0989 18.8571 17.119 18.8572 17.1391 18.8572C17.1592 18.8572 17.1793 18.8571 17.1993 18.857H17.0788Z" fill-rule="evenodd"/>
<path fill="#00418E" clip-rule="evenodd" d="M10.3052 12.5212C10.2923 12.3491 10.2857 12.1753 10.2857 12C10.2857 8.21287 13.3558 5.14282 17.1428 5.14282C17.4256 5.14282 17.7043 5.15993 17.978 5.19317V12.5212H10.3052Z" fill-rule="evenodd"/>
<path fill="white" clip-rule="evenodd" d="M13.7967 6.02388C13.7571 6.0462 13.7178 6.0689 13.6787 6.09197L13.8637 6.2242L13.7967 6.02388ZM13.08 6.48938C12.9415 6.59219 12.8069 6.7001 12.6766 6.81284L12.7214 6.78134L12.9734 6.96081L12.8775 6.66884L13.1323 6.48938H13.08ZM12.0092 7.4752C11.9783 7.51039 11.9477 7.5459 11.9175 7.58172L12.0831 7.70009L12.0092 7.4752ZM10.7979 9.44116C10.7783 9.4898 10.7593 9.5387 10.7408 9.58788L10.7873 9.62063L10.6887 9.91527L10.9434 9.73313L11.1982 9.91527L11.0996 9.62331L11.3544 9.44384H11.0421L10.9434 9.15188L10.8476 9.44116H10.7979ZM15.3841 5.45813L15.4827 5.75009H15.795L15.543 5.92956L15.6389 6.2242L15.3841 6.04206L15.1321 6.22152L15.2279 5.92956L14.9759 5.75009H15.2882L15.3841 5.45813ZM17.162 5.45813L17.2579 5.75009H17.5729L17.3181 5.92956L17.4168 6.2242L17.162 6.04206L16.9072 6.22152L17.0058 5.92956L16.7511 5.75009H17.0661L17.162 5.45813ZM14.4965 6.19742L14.5951 6.48938H14.9074L14.6527 6.66884L14.7513 6.96081L14.4965 6.78134L14.2445 6.96081L14.3404 6.66884L14.0856 6.48938H14.4034L14.4965 6.19742ZM16.2744 6.19742L16.3703 6.48938H16.6853L16.4306 6.66884L16.5264 6.96081L16.2744 6.78134L16.0196 6.96081L16.1155 6.66884L15.8635 6.48938H16.1758L16.2744 6.19742ZM13.6089 6.93402L13.7048 7.22866H14.0199L13.7651 7.40813L13.8637 7.70009L13.6089 7.51795L13.3542 7.70009L13.4528 7.40545L13.198 7.22599H13.5103L13.6089 6.93402ZM15.3841 6.93402L15.4827 7.22866H15.795L15.543 7.40813L15.6389 7.70009L15.3841 7.51795L15.1321 7.70009L15.2279 7.40545L14.9759 7.22599H15.2882L15.3841 6.93402ZM17.162 6.93402L17.2579 7.22866H17.5729L17.3181 7.40813L17.4168 7.70009L17.162 7.51795L16.9072 7.70009L17.0058 7.40545L16.7511 7.22599H17.0661L17.162 6.93402ZM12.7214 7.67331L12.8172 7.96527H13.1323L12.8775 8.14474L12.9734 8.43938L12.7214 8.25724L12.4666 8.4367L12.5625 8.14474L12.3104 7.96527H12.6227L12.7214 7.67331ZM14.4965 7.67331L14.5951 7.96527H14.9074L14.6554 8.14474L14.7513 8.43938L14.4965 8.25724L14.2445 8.4367L14.3404 8.14474L14.0856 7.96527H14.4034L14.4965 7.67331ZM16.2744 7.67331L16.3703 7.96527H16.6853L16.4306 8.14474L16.5264 8.43938L16.2744 8.25724L16.0196 8.4367L16.1155 8.14474L15.8635 7.96527H16.1758L16.2744 7.67331ZM11.831 8.41259L11.9297 8.70456H12.2392L11.9872 8.88402L12.0831 9.17866L11.8283 8.99652L11.5763 9.17599L11.6721 8.88402L11.4174 8.70456H11.7324L11.831 8.41259ZM13.6089 8.41259L13.7048 8.70456H14.0199L13.7651 8.88402L13.8637 9.17866L13.6089 8.99652L13.3542 9.17599L13.4528 8.88402L13.198 8.70456H13.5103L13.6089 8.41259ZM15.3841 8.41259L15.4827 8.70456H15.795L15.543 8.88402L15.6389 9.17866L15.3841 8.99652L15.1321 9.17599L15.2279 8.88402L14.9759 8.70456H15.2882L15.3841 8.41259ZM17.162 8.41259L17.2579 8.70456H17.5729L17.3181 8.88402L17.4168 9.17866L17.162 8.99652L16.9072 9.17599L17.0058 8.88402L16.7511 8.70456H17.0661L17.162 8.41259ZM12.7214 9.15188L12.8172 9.44384H13.1323L12.8775 9.62331L12.9734 9.91527L12.7214 9.73313L12.4666 9.91527L12.5625 9.62063L12.3104 9.44116H12.6227L12.7214 9.15188ZM14.4965 9.15188L14.5951 9.44384H14.9074L14.6554 9.62331L14.7513 9.91527L14.4965 9.73313L14.2445 9.91527L14.3404 9.62063L14.0856 9.44116H14.4034L14.4965 9.15188ZM16.2744 9.15188L16.3703 9.44384H16.6853L16.4306 9.62331L16.5264 9.91527L16.2744 9.73313L16.0196 9.91527L16.1155 9.62063L15.8635 9.44116H16.1758L16.2744 9.15188ZM11.831 9.88848L11.9297 10.1831H12.2392L11.9872 10.3626L12.0831 10.6519L11.8283 10.4724L11.5763 10.6519L11.6721 10.3599L11.4174 10.1804H11.7324L11.831 9.88848ZM13.6089 9.88848L13.7048 10.1831H14.0199L13.7651 10.3626L13.8637 10.6519L13.6089 10.4724L13.3542 10.6519L13.4528 10.3599L13.198 10.1804H13.5103L13.6089 9.88848ZM15.3841 9.88848L15.4827 10.1831H15.795L15.543 10.3626L15.6389 10.6519L15.3841 10.4724L15.1321 10.6519L15.2279 10.3599L14.9759 10.1804H15.2882L15.3841 9.88848ZM17.162 9.88848L17.2579 10.1831H17.5729L17.3181 10.3626L17.4168 10.6519L17.162 10.4724L16.9072 10.6519L17.0058 10.3599L16.7511 10.1804H17.0661L17.162 9.88848ZM10.9434 10.6278L11.0421 10.9197H11.3544L11.0996 11.0992L11.1982 11.3938L10.9434 11.2117L10.6887 11.3912L10.7873 11.0992L10.5325 10.9197H10.8476L10.9434 10.6278ZM12.7214 10.6278L12.8172 10.9197H13.1323L12.8775 11.0992L12.9734 11.3938L12.7214 11.2117L12.4666 11.3912L12.5625 11.0992L12.3104 10.9197H12.6227L12.7214 10.6278ZM14.4965 10.6278L14.5951 10.9197H14.9074L14.6554 11.0992L14.7513 11.3938L14.4965 11.2117L14.2445 11.3912L14.3404 11.0992L14.0856 10.9197H14.4034L14.4965 10.6278ZM16.2744 10.6278L16.3703 10.9197H16.6853L16.4306 11.0992L16.5264 11.3938L16.2744 11.2117L16.0196 11.3912L16.1155 11.0992L15.8635 10.9197H16.1758L16.2744 10.6278ZM11.831 11.3671L11.9297 11.659H12.2392L11.9927 11.8385L12.0885 12.1304L11.8338 11.951L11.5817 12.1304L11.6776 11.8358L11.4229 11.6563H11.7379L11.831 11.3671ZM13.6089 11.3671L13.7048 11.659H14.0199L13.7651 11.8385L13.8637 12.1304L13.6089 11.951L13.3542 12.1304L13.4528 11.8358L13.198 11.6563H13.5103L13.6089 11.3671ZM15.3841 11.3671L15.4827 11.659H15.795L15.543 11.8385L15.6389 12.1304L15.3841 11.951L15.1321 12.1304L15.2279 11.8358L14.9759 11.6563H15.2882L15.3841 11.3671ZM17.162 11.3671L17.2579 11.659H17.5729L17.3181 11.8385L17.4168 12.1304L17.162 11.951L16.9072 12.1304L17.0058 11.8358L16.7511 11.6563H17.0661L17.162 11.3671Z" fill-rule="evenodd"/>
<path fill="#0052B4" d="M13.7143 12C13.7143 15.7868 10.644 18.8571 6.85714 18.8571C3.06998 18.8571 0 15.7871 0 12C0 12.0016 6.85714 5.14349 6.85714 5.14282C10.6443 5.14282 13.7143 8.2128 13.7143 12Z"/>
<path fill="#F0F0F0" d="M6.83887 12H6.85728V11.9816C6.85126 11.9876 6.84489 11.994 6.83887 12Z"/>
<path fill="#F0F0F0" d="M6.85714 8.72039V5.14282H6.8558C3.06931 5.14349 0 8.21313 0 12H3.57757V9.98534L5.59219 12H6.83873C6.84475 11.9939 6.85078 11.9876 6.85714 11.9815V10.735L4.84252 8.72039H6.85714V8.72039Z"/>
<path fill="#D80027" d="M3.469 6.03711C2.39657 6.64782 1.50494 7.53945 0.894226 8.61189V11.9999H2.68318V7.82606H6.85706V6.03711H3.469Z"/>
<path fill="#D80027" d="M6.85727 11.1565L4.42111 8.72034H3.5777L6.85727 11.9999V11.1565Z"/>
<path fill="#D80027" d="M11.875 10.2311L12.023 10.6864H12.5018L12.1144 10.968L12.2624 11.4237L11.875 11.1421L11.4876 11.4237L11.6356 10.968L11.2482 10.6864H11.727L11.875 10.2311Z"/>
<path fill="#D80027" d="M10.1629 13.5104L10.3849 14.1937H11.1034L10.5221 14.616L10.7441 15.2993L10.1629 14.8771L9.58161 15.2993L9.8036 14.616L9.22235 14.1937H9.94088L10.1629 13.5104Z"/>
<path fill="#D80027" d="M10.2272 8.14417L10.4124 8.7137H11.011L10.5265 9.06559L10.7117 9.63512L10.2275 9.28323L9.74306 9.63479L9.92788 9.06526L9.44373 8.71336H10.0424L10.2272 8.14417Z"/>
<path fill="#D80027" d="M8.58022 10.2113L8.80221 10.8947H9.52074L8.93949 11.3169L9.16147 12.0003L8.58022 11.578L7.99897 11.9999L8.22096 11.3165L7.63971 10.8943H8.35824L8.58022 10.2113Z"/>
<metadata symbolName="NZDUSD" fileName="nzdusd.svg" id="grimlock-metadata-id" lastUpdate="2025-02-10T09:58:22.674003469" symbolId="41"/></svg>