<svg version="1.1" id="Layer_1" xmlns="http://www.w3.org/2000/svg" x="0" y="0" viewBox="0 0 56 56" xml:space="preserve"><style>.st0{fill:#6d6d6d}</style><path class="st0" d="M28 3c13.8 0 25 11.2 25 25S41.8 53 28 53 3 41.8 3 28 14.2 3 28 3m0-3C12.5 0 0 12.5 0 28s12.5 28 28 28 28-12.5 28-28S43.5 0 28 0z"/><path class="st0" d="M18.5 17.9c-.4 0-1.8 0-4.1.1v19.8h3.5v-7.3c.7.1 1.2.1 1.6.1 5.4 0 8.1-2.3 8.1-6.8 0-2-.7-3.5-2.2-4.5-1.5-.9-3.8-1.4-6.9-1.4zm.8 9.6c-.3 0-.8 0-1.4-.1V21c.3 0 .7-.1 1.1-.1 3.3 0 5 1 5 3.1 0 1.2-.4 2.1-1.1 2.6s-2 .9-3.6.9zM41.6 17.9h-3.1l-.3.1v5.8c-.9-.5-1.9-.7-3-.7-2 0-3.7.7-5 2.2-1.3 1.4-2 3.3-2 5.6s.6 4.1 1.7 5.4c1.2 1.3 2.8 1.9 4.8 1.9.7 0 1.4-.1 2.1-.3.7-.2 1.1-.5 1.4-.8v.9h3.4V17.9zm-5.5 17.4c-2.9 0-4.4-1.5-4.4-4.5 0-1.5.4-2.7 1.1-3.6.7-.8 1.8-1.2 3.1-1.2.8 0 1.5.3 2.3.9v7.6c-.1.2-.5.4-.9.6-.5.1-.9.2-1.2.2z"/></svg>