<?xml version="1.0" encoding="UTF-8"?>
<!DOCTYPE svg PUBLIC "-//W3C//DTD SVG 1.0//EN" "http://www.w3.org/TR/2001/REC-SVG-20010904/DTD/svg10.dtd">
<!-- Creator: CorelDRAW X8 -->
<svg xmlns="http://www.w3.org/2000/svg" xml:space="preserve" width="11.6929in" height="8.26772in" version="1.0" shape-rendering="geometricPrecision" text-rendering="geometricPrecision" image-rendering="optimizeQuality" fill-rule="evenodd" clip-rule="evenodd"
viewBox="0 0 11693 8268"
 xmlns:xlink="http://www.w3.org/1999/xlink">
 <g id="Layer_x0020_1">
  <metadata id="CorelCorpID_0Corel-Layer"/>
  <path fill="#93A0B3" fill-rule="nonzero" d="M5594 3980c-13,6 -26,11 -36,17 -29,13 -46,24 -54,34l-3 61c15,-3 30,-4 46,-5 11,0 -9,-2 -4,-13 11,-22 26,-52 51,-94zm585 259c-33,107 -60,183 -85,237 -31,66 -63,103 -105,121 -7,4 -15,5 -22,6l-171 9c-35,2 -65,-25 -67,-60 -1,-12 2,-23 6,-32 9,-18 15,-34 20,-49 4,-15 6,-29 7,-43 0,-10 1,-19 2,-27l-186 -188c-8,2 -17,2 -27,3 -14,0 -28,2 -43,7 -15,4 -31,11 -48,19 -9,5 -20,7 -32,6 -35,-2 -62,-32 -60,-67l10 -173c0,-7 2,-14 5,-22 18,-42 55,-74 120,-106 54,-26 129,-52 236,-86l0 0c9,-3 20,-4 30,-2 214,-258 422,-273 587,-285 13,-1 26,-2 45,-3l0 0c5,-1 10,0 14,0 35,5 60,37 55,72 -3,20 -5,43 -7,66 -17,168 -37,366 -281,571 1,9 0,17 -3,26l0 0zm-200 182c5,-11 10,-23 16,-37 -42,26 -72,41 -93,52 -11,5 -13,-16 -13,-4 -1,16 -2,31 -5,47l61 -4c9,-8 20,-25 34,-54zm-752 254c19,-44 31,-81 41,-113 41,-124 58,-178 276,-291 25,-13 54,-7 73,12l1 0 81 82c22,22 25,56 9,81 -110,215 -157,231 -284,272 -31,10 -69,23 -114,41 -32,14 -70,-2 -83,-35 -7,-16 -6,-34 0,-49zm333 -267c-126,70 -143,109 -168,185 78,-26 114,-40 184,-170l-16 -15zm775 -770c-179,14 -410,54 -641,510l138 139c455,-235 485,-463 503,-649z"/>
 </g>
</svg>
