<?xml version="1.0" encoding="UTF-8"?>
<!DOCTYPE svg PUBLIC "-//W3C//DTD SVG 1.0//EN" "http://www.w3.org/TR/2001/REC-SVG-20010904/DTD/svg10.dtd">
<!-- Creator: CorelDRAW X8 -->
<svg xmlns="http://www.w3.org/2000/svg" xml:space="preserve" width="8.26772in" height="11.6929in" version="1.0" shape-rendering="geometricPrecision" text-rendering="geometricPrecision" image-rendering="optimizeQuality" fill-rule="evenodd" clip-rule="evenodd"
viewBox="0 0 8268 11693"
 xmlns:xlink="http://www.w3.org/1999/xlink">
 <g id="Layer_x0020_1">
  <metadata id="CorelCorpID_0Corel-Layer"/>
  <path fill="white" d="M2692 5215l250 0c20,0 36,17 36,37l0 146c0,20 -16,36 -36,36l-250 0c-20,0 -37,-16 -37,-36l0 -146c0,-20 17,-37 37,-37z"/>
  <path fill="none" stroke="#D0D5DD" stroke-width="10.4173" d="M2692 5215l250 0c20,0 36,17 36,37l0 146c0,20 -16,36 -36,36l-250 0c-20,0 -37,-16 -37,-36l0 -146c0,-20 17,-37 37,-37z"/>
  <path fill="#009393" fill-rule="nonzero" d="M2708 5300l15 0 0 29c0,3 -1,6 -2,9 -1,2 -2,4 -4,6 -2,2 -4,4 -6,4 -3,1 -6,2 -11,2 -2,0 -5,0 -7,-1 -3,0 -6,-1 -7,-2 -2,0 -4,-2 -6,-4 -1,-2 -2,-3 -3,-5 -1,-3 -1,-6 -1,-9l0 -29 15 0 0 30c0,3 1,5 2,6 2,2 4,3 6,3 3,0 5,-1 6,-3 2,-1 3,-3 3,-6l0 -30z"/>
  <path id="1" fill="#009393" fill-rule="nonzero" d="M2721 5333l15 -1c0,2 1,4 2,5 1,2 3,3 6,3 2,0 4,0 5,-1 1,-1 2,-2 2,-4 0,-1 -1,-2 -2,-3 -1,-1 -3,-2 -7,-3 -7,-1 -12,-3 -15,-6 -2,-2 -4,-5 -4,-9 0,-3 1,-5 2,-7 2,-3 4,-4 7,-6 3,-1 7,-2 12,-2 6,0 11,2 14,4 3,2 5,6 6,11l-14 1c-1,-2 -1,-4 -3,-5 -1,-1 -2,-2 -5,-2 -1,0 -3,1 -4,2 0,0 -1,1 -1,2 0,1 0,2 1,2 1,1 3,2 5,2 7,2 12,3 14,5 3,1 5,3 7,5 1,2 2,5 2,7 0,3 -1,6 -3,9 -2,3 -4,5 -7,6 -3,1 -7,2 -12,2 -8,0 -14,-2 -17,-5 -4,-3 -5,-7 -6,-12z"/>
  <path id="2" fill="#009393" fill-rule="nonzero" d="M2765 5300l22 0c5,0 8,1 11,2 3,1 5,3 7,5 1,2 3,5 3,8 1,3 2,6 2,10 0,5 -1,9 -2,12 -1,3 -3,5 -5,7 -2,2 -4,3 -7,4 -3,1 -6,1 -9,1l-22 0 0 -49zm15 11l0 27 3 0c4,0 6,0 7,-1 2,-1 3,-2 3,-4 1,-1 2,-4 2,-8 0,-5 -1,-9 -3,-11 -2,-2 -5,-3 -8,-3l-4 0z"/>
  <polygon id="3" fill="#009393" fill-rule="nonzero" points="2805,5300 2851,5300 2851,5312 2836,5312 2836,5349 2821,5349 2821,5312 2805,5312 "/>
  <path fill="#009393" d="M2885 5318c0,4 6,8 9,11 3,3 6,6 10,9l14 14c7,7 6,6 21,-9l5 -5c3,-3 6,-6 10,-9 0,-1 1,-2 2,-3 4,-4 7,-5 7,-7l0 0c0,-2 -1,-4 -4,-8l-7 -13c-2,-2 -3,-5 -6,-5l-44 0c-3,0 -4,3 -5,5 -2,3 -12,19 -12,20zm22 -9l13 0 0 5c-6,0 -13,1 -16,4 0,6 -1,7 5,8 3,1 7,2 11,2l0 10 8 0 0 -10c6,0 12,-1 16,-4l0 -6c-6,-3 -9,-4 -16,-4l0 -5 13 0 0 -6 -34 0 0 6zm-2 12c4,5 33,5 38,0 0,-1 -1,-2 -3,-2 -1,0 -2,-1 -3,-1 -3,0 -6,-1 -9,-1l0 5 -8 0 0 -5c-4,0 -9,1 -12,2 -2,1 -3,1 -3,2z"/>
  <polygon fill="black" stroke="black" stroke-width="1.04331" points="2870,5276 2870,5374 2868,5374 2868,5276 "/>
 </g>
</svg>
