<svg width="32" height="22" viewBox="0 0 32 22" fill="none" xmlns="http://www.w3.org/2000/svg">
<rect x="0.5" y="0.5" width="31" height="21" rx="3.5" fill="white"/>
<rect x="0.5" y="0.5" width="31" height="21" rx="3.5" stroke="#D0D5DD"/>
<path fill-rule="evenodd" clip-rule="evenodd" d="M27.3107 10.9301C27.1628 11.0316 26.9482 11.0817 26.6546 11.0817H26.5272H26.3635L26.5868 9.8947H26.6999H26.8009C27.0446 9.8947 27.2226 9.93331 27.3453 10.0117C27.4411 10.0731 27.5547 10.1948 27.5547 10.4257C27.5547 10.7038 27.4225 10.8535 27.3107 10.9301ZM9.94136 12.4199H7.68804L7.83368 11.644H9.24704L9.40765 10.7701H8.00787L8.14318 10.0022H10.3926L9.94136 12.4199ZM28.5245 9.3362C28.1932 9.11264 27.6919 9 27.0346 9H25.3131L24.6732 12.42H22.4182L22.5628 11.6441H23.9213L24.0829 10.7726L22.7251 10.775L22.8705 10.0024H24.2696L24.4557 9.00012H21.6137L21.0063 12.2445H19.9642L20.576 9.00013H19.0902L18.4828 12.2445H17.4667L18.0791 9.00013H16.5948L15.9533 12.4201H13.6822L13.8253 11.6442H15.19L15.3508 10.7778L13.9881 10.7765L14.1328 10.0025H15.5475L15.7327 9.00015H6.87848L6.37448 11.7104L5.37042 9.00003H3.8294L3 13.4229H4.47162L4.97353 10.6382L5.948 13.4229H11.2227L11.8638 10.0023H12.6892L12.0477 13.4229H25.9269L26.3289 11.2635L26.9805 13.4229H28.4529L27.7783 11.6585L27.9323 11.6257C28.2717 11.5542 28.5373 11.4001 28.7216 11.1693C28.9062 10.9362 29 10.637 29 10.2776C29.0001 9.85909 28.8448 9.5513 28.5245 9.3362Z" fill="#8DC640"/>
</svg>
