<svg width="32" height="22" viewBox="0 0 32 22" fill="none" xmlns="http://www.w3.org/2000/svg">
<rect x="0.5" y="0.5" width="31" height="21" rx="3.5" fill="white"/>
<rect x="0.5" y="0.5" width="31" height="21" rx="3.5" stroke="#D0D5DD"/>
<path d="M18.6089 5.9502V15.3281H18.4585V5.9502H18.6089Z" fill="black" stroke="black" stroke-width="0.1"/>
<path d="M26.6134 8.37726H24.1027V12.9009H26.6134V8.37726Z" fill="#FF5F00"/>
<path d="M24.2617 10.6395C24.2617 9.72212 24.69 8.90465 25.3572 8.37805C24.869 7.99289 24.2537 7.76276 23.5841 7.76276C21.9995 7.76276 20.7153 9.05088 20.7153 10.6395C20.7153 12.2281 21.9995 13.5162 23.5841 13.5162C24.2537 13.5162 24.869 13.286 25.3572 12.9009C24.69 12.3743 24.2617 11.5568 24.2617 10.6395Z" fill="#EB001B"/>
<path d="M29.7259 12.4214V12.3287H29.7634V12.3096H29.6683V12.3287H29.7059V12.4214H29.7259ZM29.9097 12.4214V12.3096H29.8809L29.8473 12.3863L29.8138 12.3096H29.785V12.4214H29.8058V12.3375L29.8369 12.4103H29.8585L29.8897 12.3375V12.4222H29.9105L29.9097 12.4214Z" fill="#F79E1B"/>
<path d="M29.9999 10.6395C29.9999 12.2281 28.7158 13.5162 27.1312 13.5162C26.4616 13.5162 25.8463 13.286 25.358 12.9009C26.0253 12.3743 26.4536 11.5568 26.4536 10.6395C26.4536 9.72212 26.0253 8.90465 25.358 8.37805C25.8463 7.99289 26.4616 7.76276 27.1312 7.76276C28.7158 7.76276 29.9999 9.05088 29.9999 10.6395Z" fill="#F79E1B"/>
<path d="M7.44897 8.40366L5.57032 12.8865H4.34452L3.41998 9.30903C3.36404 9.08848 3.3153 9.00777 3.14429 8.91508C2.86541 8.76405 2.40514 8.62181 2 8.53391L2.02717 8.40366H4.00011C4.25183 8.40366 4.47797 8.57147 4.5347 8.86074L5.02294 11.4546L6.22957 8.40366H7.44897ZM12.2515 11.4226C12.2563 10.2392 10.6158 10.1744 10.6269 9.64544C10.6301 9.48483 10.7836 9.31382 11.1192 9.26987C11.2854 9.2483 11.7433 9.23152 12.2627 9.47044L12.4664 8.51953C12.1876 8.41805 11.8288 8.32056 11.3821 8.32056C10.2362 8.32056 9.42911 8.93026 9.42271 9.80206C9.41552 10.4477 9.99886 10.8073 10.4376 11.0223C10.8898 11.242 11.0409 11.3827 11.0393 11.5792C11.0361 11.8797 10.6789 12.0123 10.3449 12.0179C9.76233 12.0267 9.42351 11.8605 9.15422 11.7351L8.94406 12.7171C9.21495 12.8418 9.71518 12.9497 10.2338 12.9553C11.4524 12.9553 12.2491 12.3535 12.2531 11.4218M15.2784 12.8865H16.3508L15.4143 8.40366H14.4242C14.2013 8.40366 14.0135 8.53311 13.9304 8.73289L12.19 12.8865H13.4078L13.6491 12.2169H15.137L15.2768 12.8865H15.2784ZM13.9847 11.298L14.5952 9.61508L14.9468 11.298H13.9847ZM9.10548 8.40366L8.14657 12.8865H6.9871L7.946 8.40366H9.10548Z" fill="#1434CB"/>
</svg>
