<?xml version="1.0" encoding="UTF-8"?>
<!DOCTYPE svg PUBLIC "-//W3C//DTD SVG 1.0//EN" "http://www.w3.org/TR/2001/REC-SVG-20010904/DTD/svg10.dtd">
<!-- Creator: CorelDRAW X8 -->
<svg xmlns="http://www.w3.org/2000/svg" xml:space="preserve" width="8.26772in" height="11.6929in" version="1.0" shape-rendering="geometricPrecision" text-rendering="geometricPrecision" image-rendering="optimizeQuality" fill-rule="evenodd" clip-rule="evenodd"
viewBox="0 0 8268 11693"
 xmlns:xlink="http://www.w3.org/1999/xlink">
 <g id="Layer_x0020_1">
  <metadata id="CorelCorpID_0Corel-Layer"/>
  <path fill="white" d="M1665 5480l250 0c20,0 37,16 37,37l0 145c0,21 -17,37 -37,37l-250 0c-20,0 -36,-16 -36,-37l0 -145c0,-21 16,-37 36,-37z"/>
  <path fill="none" stroke="#D0D5DD" stroke-width="10.4173" d="M1665 5480l250 0c20,0 37,16 37,37l0 145c0,21 -17,37 -37,37l-250 0c-20,0 -36,-16 -36,-37l0 -145c0,-21 16,-37 36,-37z"/>
  <path fill="#72C380" fill-rule="nonzero" d="M1649 5565l29 0c4,0 8,1 10,4 3,2 4,5 4,8 0,3 -1,6 -3,8 -1,1 -2,2 -5,3 4,1 6,2 8,4 2,2 2,5 2,8 0,3 0,5 -1,7 -2,2 -3,4 -5,5 -1,0 -3,1 -6,1 -3,1 -6,1 -7,1l-26 0 0 -49zm15 19l7 0c2,0 4,0 5,-1 1,-1 1,-2 1,-3 0,-2 0,-3 -1,-4 -1,-1 -3,-1 -5,-1l-7 0 0 9zm0 19l8 0c3,0 5,0 6,-1 1,-1 1,-2 1,-4 0,-1 0,-2 -1,-3 -1,-1 -3,-1 -6,-1l-8 0 0 9z"/>
  <path id="1" fill="#72C380" fill-rule="nonzero" d="M1722 5606l-17 0 -2 8 -16 0 19 -49 16 0 19 49 -16 0 -3 -8zm-3 -11l-5 -17 -5 17 10 0z"/>
  <polygon id="2" fill="#72C380" fill-rule="nonzero" points="1737,5565 1751,5565 1769,5592 1769,5565 1784,5565 1784,5614 1769,5614 1751,5587 1751,5614 1737,5614 "/>
  <polygon id="3" fill="#72C380" fill-rule="nonzero" points="1785,5565 1800,5565 1800,5584 1816,5565 1836,5565 1818,5583 1837,5614 1818,5614 1808,5594 1800,5602 1800,5614 1785,5614 "/>
  <polygon fill="black" stroke="black" stroke-width="1.04331" points="1843,5541 1843,5638 1842,5638 1842,5541 "/>
  <path fill="#848688" d="M1875 5590l0 16c-1,0 -2,0 -3,2 -1,2 0,5 3,5 7,0 15,0 22,0 6,0 12,0 18,0 2,0 3,0 5,0 1,0 1,0 2,0 0,-1 1,-1 1,-1 1,-2 0,-5 -2,-6 0,0 -1,0 -1,0l0 -16c1,-1 2,0 3,-2 1,-2 0,-3 -1,-4 0,-1 -2,-1 -3,-1l-10 0c-1,0 -2,0 -3,0 -1,0 -1,0 -2,0 0,1 -1,2 -3,2 -1,1 -2,1 -4,1 -3,0 -5,-1 -7,-3 -1,0 0,0 -2,0l-7 0c-2,0 -3,0 -5,0 -2,0 -3,0 -4,1 -1,2 -1,5 2,6 0,0 0,0 1,0zm-3 25c-2,0 -3,-1 -4,0 -2,2 -2,4 0,6 1,0 1,0 2,0 0,0 1,0 2,0 17,0 34,0 51,0 1,0 3,0 4,0 2,-2 2,-5 0,-6 -1,0 -1,0 -2,0 -1,0 -1,-1 -2,-1 -6,0 -11,0 -17,0l-30 0c-1,0 -3,0 -4,1zm16 -33c0,-1 0,-1 0,-2 0,0 -1,0 -1,-1 -1,-5 1,-10 5,-12 1,-1 3,-2 5,-2 5,0 8,3 9,5 2,3 2,7 1,10 0,1 -1,1 -1,2 3,0 7,0 10,0 3,0 6,0 9,-1 1,0 1,0 2,0 0,0 1,-1 0,-1 0,-2 -6,-6 -7,-7 -4,-2 -7,-5 -11,-8 -2,-1 -4,-2 -6,-4 0,0 -1,-1 -2,-2 -1,0 -2,-1 -4,-1 -1,0 -2,0 -3,1 -1,1 -2,1 -3,2 -5,4 -11,8 -16,12 -2,1 -4,3 -5,4 -1,0 -1,1 -2,1 0,0 -1,1 -1,1 0,1 0,2 1,2 0,1 9,0 11,0 3,0 6,1 9,1zm8 -13c0,0 -1,0 -2,1 -1,1 -1,3 0,4 1,3 5,2 4,5 0,1 -3,1 -5,0 0,1 0,2 0,2 1,1 3,1 3,1 1,1 0,2 1,2 1,0 1,-1 1,-2 0,0 1,0 2,-1 1,-1 1,-1 1,-2 1,-4 -2,-4 -5,-6 -1,0 0,-1 1,-2 0,0 2,0 3,0 0,1 0,1 0,0 1,0 1,-1 1,-1 -1,-1 -2,-1 -3,-1 -1,0 1,-2 -1,-2 -1,0 0,1 -1,2zm11 37l6 0 0 -16 -6 0 0 16zm-25 0c0,0 5,0 5,0 1,0 1,-10 1,-12 0,-1 0,-3 0,-4l-6 0 0 16zm12 0l6 0 0 -16 -6 0 0 16z"/>
 </g>
</svg>
