<svg width="80" height="80" fill="none" xmlns="http://www.w3.org/2000/svg"><path d="M6.781 30.345a2.273 2.273 0 0 1-.373.12 1.518 1.518 0 0 1-.341.038 1.05 1.05 0 0 1-.682-.234.964.964 0 0 1-.288-.372A1.195 1.195 0 0 1 5 29.412c0-.174.033-.343.103-.496.065-.153.168-.284.292-.387a1.047 1.047 0 0 1 .374-.207c.14-.05.292-.071.46-.071.076 0 .157.005.244.016.086.011.173.033.27.055v.387a1.108 1.108 0 0 0-.276-.142.997.997 0 0 0-.314-.049.728.728 0 0 0-.563.234c-.14.153-.211.371-.211.638 0 .251.07.453.206.6.135.147.32.224.547.224a.898.898 0 0 0 .335-.066c.109-.043.217-.109.33-.196l-.01.37-.006.023Zm.845-2.061a1.321 1.321 0 0 0-.07.261 1.819 1.819 0 0 0-.022.311v1.058a1.486 1.486 0 0 0 .092.572h-.51c.033-.082.055-.169.071-.267.017-.098.022-.196.022-.305v-1.058c0-.115-.005-.218-.022-.31a1.321 1.321 0 0 0-.07-.262h.509Zm.823.24c-.152 0-.276.016-.384.038a1.224 1.224 0 0 0-.282.092l.092-.376h1.608l-.135.37a.817.817 0 0 0-.244-.097 1.439 1.439 0 0 0-.33-.033v1.385a1.495 1.495 0 0 0 .092.572h-.51a1.28 1.28 0 0 0 .071-.267c.016-.098.022-.196.022-.305v-1.385.005Z" fill="#98A2B3"/><path d="M10.544 28.61c.022-.037.038-.081.054-.125a.544.544 0 0 0 .016-.13v-.039c0-.01 0-.022-.005-.032h.487a2.248 2.248 0 0 0-.124.185c-.038.054-.065.109-.092.153l-.477.856v.436c0 .114.006.218.022.31.016.093.038.18.07.262h-.503c.032-.081.054-.169.07-.261a1.83 1.83 0 0 0 .022-.311v-.436l-.487-.851a2.59 2.59 0 0 0-.114-.18c-.043-.06-.081-.114-.13-.163h.536s-.005.027-.01.043v.038c0 .033.005.066.02.104.017.038.033.082.055.12l.303.562.293-.546-.006.006Zm3.606.764c0 .169-.027.327-.087.469-.06.147-.146.267-.254.376a1.167 1.167 0 0 1-.336.213c-.119.049-.254.07-.395.07a1.078 1.078 0 0 1-.374-.065 1.044 1.044 0 0 1-.612-.573 1.246 1.246 0 0 1-.097-.495c0-.142.022-.268.06-.388a1.08 1.08 0 0 1 .563-.621c.146-.071.308-.104.476-.104.141 0 .27.028.395.077.12.049.233.12.33.218a1.028 1.028 0 0 1 .244.365c.054.136.081.289.081.453l.006.005Zm-1.04.867c.2 0 .369-.07.493-.218a.819.819 0 0 0 .195-.567c0-.104-.01-.207-.038-.305a.947.947 0 0 0-.108-.262.753.753 0 0 0-.265-.273.667.667 0 0 0-.342-.093c-.2 0-.362.077-.492.224-.13.147-.195.344-.195.578 0 .109.016.213.043.31a.93.93 0 0 0 .13.279c.065.103.152.18.255.24.102.06.21.081.324.081v.006Zm1.744-.327c0 .109.005.212.022.305.016.093.037.18.07.267h-.509c.032-.082.054-.169.07-.267.017-.098.022-.196.022-.305v-1.058c0-.115-.005-.218-.022-.31a1.321 1.321 0 0 0-.07-.262h1.213l-.168.354a.821.821 0 0 0-.244-.104 1.406 1.406 0 0 0-.32-.032h-.064v.758h.704l-.19.321a.912.912 0 0 0-.216-.076 1.55 1.55 0 0 0-.298-.033v.442Zm2.35-1.63a1.32 1.32 0 0 0-.07.261 1.819 1.819 0 0 0-.022.311v1.418c.167-.017.319-.038.454-.071a2.018 2.018 0 0 0 .363-.126c-.038.082-.065.153-.097.218a15.971 15.971 0 0 0-.076.186h-1.067c.033-.082.054-.17.07-.267.017-.098.022-.196.022-.306v-1.057c0-.115-.005-.218-.021-.311a1.321 1.321 0 0 0-.07-.262h.508l.006.006Zm2.94 1.09c0 .169-.028.327-.087.469-.06.147-.146.267-.255.376a1.167 1.167 0 0 1-.335.213c-.12.049-.255.07-.396.07a1.078 1.078 0 0 1-.373-.065 1.045 1.045 0 0 1-.612-.573 1.246 1.246 0 0 1-.098-.495c0-.142.022-.268.06-.388a1.082 1.082 0 0 1 1.04-.725c.14 0 .27.028.395.077.119.049.233.12.33.218a1.028 1.028 0 0 1 .244.365c.054.136.081.289.081.453l.005.005Zm-1.04.867c.2 0 .368-.07.493-.218a.819.819 0 0 0 .194-.567c0-.104-.01-.207-.037-.305a.95.95 0 0 0-.109-.262.753.753 0 0 0-.265-.273.667.667 0 0 0-.341-.093c-.2 0-.363.077-.493.224-.13.147-.195.344-.195.578 0 .109.016.213.044.31a.93.93 0 0 0 .13.279c.064.103.151.18.254.24.103.06.211.081.325.081v.006Zm1.71-.327c0 .114.006.218.023.31.016.093.038.18.07.262h-.476c.032-.082.054-.169.07-.267.016-.098.021-.196.021-.305V28.6l-.254-.316h.541v.016c0 .065.033.142.092.229.011.01.017.022.017.027l.969 1.401v-1.095a1.83 1.83 0 0 0-.022-.311 1.326 1.326 0 0 0-.07-.262h.476a1.326 1.326 0 0 0-.07.262 1.83 1.83 0 0 0-.022.31v1.08c0 .12 0 .224.011.31.01.088.022.164.038.235h-.439a.869.869 0 0 0-.027-.125c-.016-.038-.032-.076-.054-.104l-.899-1.281v.938h.006Zm1.809.572c.033-.082.054-.169.07-.267.017-.098.022-.196.022-.305v-1.058c0-.115-.005-.218-.022-.31a1.321 1.321 0 0 0-.07-.262h.25c.161 0 .297.01.41.027.114.016.212.043.304.082a1.055 1.055 0 0 1 .66.992c0 .207-.043.398-.135.561a1.05 1.05 0 0 1-.379.393 1.297 1.297 0 0 1-.309.115c-.113.021-.26.038-.438.038h-.363v-.006Zm.417-.207h.016a.72.72 0 0 0 .19-.022.946.946 0 0 0 .173-.065.833.833 0 0 0 .336-.322.914.914 0 0 0 .124-.463.861.861 0 0 0-.227-.611.961.961 0 0 0-.612-.294v1.783-.006Zm3.59-.905c0 .169-.027.327-.087.469-.06.147-.146.267-.254.376a1.167 1.167 0 0 1-.336.213c-.12.049-.254.07-.395.07a1.079 1.079 0 0 1-.374-.065 1.045 1.045 0 0 1-.612-.573 1.246 1.246 0 0 1-.097-.495c0-.142.021-.268.06-.388a1.082 1.082 0 0 1 1.039-.725c.14 0 .27.028.395.077.12.049.233.12.33.218.109.103.19.229.244.365.054.136.081.289.081.453l.006.005Zm-1.04.867c.2 0 .368-.07.493-.218a.82.82 0 0 0 .195-.567c0-.104-.011-.207-.038-.305a.95.95 0 0 0-.108-.262.752.752 0 0 0-.266-.273.667.667 0 0 0-.34-.093c-.201 0-.364.077-.494.224-.13.147-.194.344-.194.578 0 .109.016.213.043.31a.927.927 0 0 0 .13.279c.065.103.151.18.254.24.103.06.211.081.325.081v.006Zm1.711-.327c0 .114.005.218.022.31.016.093.037.18.07.262h-.476c.032-.082.054-.169.07-.267.016-.098.022-.196.022-.305V28.6l-.255-.316h.542v.016c0 .065.032.142.092.229.01.01.016.022.016.027l.969 1.401v-1.095c0-.115-.005-.219-.022-.311a1.326 1.326 0 0 0-.07-.262h.476a1.326 1.326 0 0 0-.07.262 1.83 1.83 0 0 0-.022.31v1.08c0 .12 0 .224.011.31.011.088.022.164.038.235h-.439a.856.856 0 0 0-.027-.125c-.016-.038-.032-.076-.054-.104l-.898-1.281v.938h.005Zm3.8-.736-.416 1.308h-.233l-.417-1.575c-.049-.175-.087-.306-.12-.399s-.07-.169-.107-.223h.541a.875.875 0 0 0-.027.114c-.005.039-.01.071-.01.11 0 .038 0 .081.01.13.005.05.016.098.027.153l.255 1.107.525-1.641.52 1.64.265-1.024a4.905 4.905 0 0 0 .049-.213.827.827 0 0 0 .016-.158c0-.027 0-.06-.006-.093 0-.032-.01-.076-.021-.125h.509a2.735 2.735 0 0 0-.217.594.256.256 0 0 1-.016.05l-.417 1.553h-.276l-.428-1.308h-.005Zm1.533 1.308c.032-.082.054-.169.07-.267.016-.098.022-.196.022-.305v-1.058c0-.115-.005-.218-.022-.31a1.321 1.321 0 0 0-.07-.262h1.164l-.168.354a.734.734 0 0 0-.238-.104 1.406 1.406 0 0 0-.32-.032h-.027v.758h.66l-.194.321a1.136 1.136 0 0 0-.195-.07 1.704 1.704 0 0 0-.27-.039v.802h.086c.135 0 .265-.011.39-.039a2.03 2.03 0 0 0 .379-.12l-.163.366h-1.11l.006.005Zm1.927-.681-.135.289a.787.787 0 0 0-.065.174.512.512 0 0 0-.021.147v.066h-.504a3.06 3.06 0 0 0 .162-.24c.055-.087.103-.185.157-.3l.818-1.712.796 1.772c.027.065.065.136.114.218a7.373 7.373 0 0 0 .173.256h-.547s0-.038.005-.054v-.05c0-.032 0-.065-.01-.097a.605.605 0 0 0-.05-.137l-.145-.343h-.764l.016.01Zm.114-.256h.536l-.254-.627-.276.627h-.006Zm1.966-1.265a1.32 1.32 0 0 0-.07.261 1.819 1.819 0 0 0-.022.311v1.418c.167-.017.319-.038.454-.071a2.018 2.018 0 0 0 .363-.126c-.038.082-.065.153-.097.218a15.971 15.971 0 0 0-.076.186h-1.067c.033-.082.054-.17.07-.267.017-.098.022-.196.022-.306v-1.057c0-.115-.005-.218-.021-.311a1.321 1.321 0 0 0-.07-.262h.508l.006.006Zm1.331.24c-.151 0-.276.016-.384.038a1.225 1.225 0 0 0-.282.092l.092-.376h1.608l-.135.37a.817.817 0 0 0-.244-.097 1.44 1.44 0 0 0-.33-.033v1.385c0 .109.006.213.022.305.016.093.038.18.07.268h-.509c.033-.082.054-.17.07-.268.017-.098.022-.196.022-.305v-1.385.005Zm2.475.708v-.376c0-.115-.006-.218-.022-.31a1.321 1.321 0 0 0-.07-.263h.509a1.032 1.032 0 0 0-.065.262 1.819 1.819 0 0 0-.022.311v1.058c0 .114.005.218.022.31.016.093.038.18.065.262h-.51c.033-.082.055-.169.071-.267.016-.093.022-.196.022-.305v-.404h-.899v.404c0 .109.005.213.022.305.016.093.038.18.07.267h-.509c.033-.082.054-.169.07-.267.017-.098.022-.196.022-.305v-1.058a1.83 1.83 0 0 0-.021-.31 1.328 1.328 0 0 0-.07-.262h.508a1.328 1.328 0 0 0-.07.261 1.819 1.819 0 0 0-.022.311v.376h.899Zm2.046-.327v1.009c0 .114.006.218.022.31.016.093.038.18.07.262h-.503c.032-.081.054-.169.07-.261.016-.093.022-.197.022-.311v-1.396l-.222-.234h.498c0 .049.033.114.092.196 0 0 0 .005.006.01l.66.873.666-.872a.578.578 0 0 0 .076-.115.257.257 0 0 0 .021-.087h.471a.546.546 0 0 0-.151.229 1.042 1.042 0 0 0-.054.333v1.068c0 .115.005.218.021.311.017.093.038.18.07.262h-.508c.032-.082.054-.17.07-.267.016-.098.022-.197.022-.306v-1.003l-.715.91-.704-.916v-.005Zm2.632.9-.136.289a.792.792 0 0 0-.065.174.512.512 0 0 0-.021.147v.066h-.504a3.06 3.06 0 0 0 .163-.24c.054-.087.103-.185.157-.3l.817-1.712.796 1.772c.027.065.065.136.114.218.049.076.108.164.173.256h-.547s0-.038.006-.054v-.05c0-.032 0-.065-.011-.097a.605.605 0 0 0-.049-.137l-.146-.343h-.764l.017.01Zm.113-.256h.536l-.254-.627-.276.627h-.006Zm1.841.365c0 .114.005.218.022.31.016.093.038.18.07.262h-.476c.032-.082.054-.169.07-.267.016-.098.022-.196.022-.305V28.6l-.255-.316h.542v.016c0 .065.032.142.092.229.01.01.016.022.016.027l.97 1.401v-1.095c0-.115-.006-.219-.023-.311a1.32 1.32 0 0 0-.07-.262h.477a1.32 1.32 0 0 0-.07.262 1.819 1.819 0 0 0-.023.31v1.08c0 .12 0 .224.011.31.011.088.022.164.038.235h-.438a.843.843 0 0 0-.027-.125.46.46 0 0 0-.055-.104l-.898-1.281v.938h.005Zm2.242-.11-.136.29a.792.792 0 0 0-.065.174.512.512 0 0 0-.021.147v.066h-.504a3.06 3.06 0 0 0 .162-.24c.055-.087.103-.185.157-.3l.818-1.712.796 1.772c.027.065.065.136.114.218.048.076.108.164.173.256h-.547s0-.038.005-.054v-.05c0-.032 0-.065-.01-.097a.605.605 0 0 0-.05-.137l-.145-.343h-.764l.017.01Zm.113-.255h.536l-.254-.627-.276.627h-.006Zm3.325.817c-.13.044-.255.082-.385.104-.13.022-.249.038-.368.038-.357 0-.644-.098-.856-.294-.21-.197-.319-.458-.319-.796 0-.186.038-.355.108-.513a1.13 1.13 0 0 1 .314-.403 1.13 1.13 0 0 1 .341-.18c.13-.044.282-.06.444-.06.092 0 .184.005.282.022.097.01.195.032.298.06v.37a1.385 1.385 0 0 0-.304-.142 1.163 1.163 0 0 0-.335-.049c-.244 0-.433.077-.574.224-.14.147-.206.354-.206.622 0 .267.076.458.228.616a.776.776 0 0 0 .59.234c.065 0 .13 0 .195-.016a1.01 1.01 0 0 0 .184-.044v-.294c0-.137-.011-.24-.033-.311a.43.43 0 0 0-.108-.185h.536a.406.406 0 0 0-.054.158 1.58 1.58 0 0 0-.022.245v.267c0 .066 0 .126.011.18a.545.545 0 0 0 .032.142v.005Zm.351.12c.033-.082.054-.169.07-.267.017-.098.022-.196.022-.305v-1.058a1.83 1.83 0 0 0-.021-.31 1.328 1.328 0 0 0-.07-.262h1.163l-.167.354a.735.735 0 0 0-.239-.104 1.406 1.406 0 0 0-.32-.032h-.026v.758h.66l-.195.321a1.136 1.136 0 0 0-.194-.07 1.706 1.706 0 0 0-.271-.039v.802h.087c.135 0 .265-.011.39-.039.124-.027.254-.065.378-.12l-.162.366h-1.11l.005.005Zm1.917-1.58v1.008c0 .114.005.218.022.31.016.093.038.18.07.262h-.503c.032-.081.054-.169.07-.261.016-.093.022-.197.022-.311v-1.396l-.222-.234h.498c0 .049.032.114.092.196 0 0 0 .005.005.01l.66.873.667-.872a.578.578 0 0 0 .075-.115.257.257 0 0 0 .022-.087h.471a.545.545 0 0 0-.151.229 1.042 1.042 0 0 0-.055.333v1.068c0 .115.006.218.022.311s.038.18.07.262h-.509c.033-.082.055-.17.07-.267.017-.098.023-.197.023-.306v-1.003l-.715.91-.704-.916v-.005Zm2.187 1.58c.033-.082.054-.169.07-.267.017-.098.022-.196.022-.305v-1.058a1.83 1.83 0 0 0-.021-.31 1.328 1.328 0 0 0-.07-.262h1.163l-.167.354a.735.735 0 0 0-.239-.104 1.406 1.406 0 0 0-.32-.032h-.026v.758h.66l-.195.321a1.136 1.136 0 0 0-.194-.07 1.706 1.706 0 0 0-.271-.039v.802h.087c.135 0 .265-.011.39-.039.124-.027.254-.065.378-.12l-.162.366h-1.11l.005.005Zm1.874-.572c0 .114.005.218.022.31.016.093.037.18.07.262h-.477c.033-.082.055-.169.07-.267.017-.098.022-.196.022-.305V28.6l-.254-.316h.541v.016c0 .065.033.142.093.229.01.01.016.022.016.027l.969 1.401v-1.095c0-.115-.006-.219-.022-.311a1.32 1.32 0 0 0-.07-.262h.476a1.32 1.32 0 0 0-.07.262 1.819 1.819 0 0 0-.022.31v1.08c0 .12 0 .224.011.31.01.088.022.164.038.235h-.439a.843.843 0 0 0-.027-.125.464.464 0 0 0-.054-.104l-.899-1.281v.938h.006Zm2.3-1.39c-.15 0-.275.016-.384.038a1.225 1.225 0 0 0-.281.092l.092-.376h1.608l-.135.37a.817.817 0 0 0-.244-.097 1.44 1.44 0 0 0-.33-.033v1.385a1.496 1.496 0 0 0 .092.572h-.51c.033-.081.055-.169.071-.267.016-.098.022-.196.022-.305v-1.385.005Zm2.464 1.28-.135.29a.787.787 0 0 0-.065.174.509.509 0 0 0-.022.147v.066h-.503a3.032 3.032 0 0 0 .162-.24 3 3 0 0 0 .157-.3l.818-1.712.796 1.772c.027.065.065.136.113.218a7.504 7.504 0 0 0 .173.256H64.8s0-.038.005-.054v-.05c0-.032 0-.065-.01-.097a.606.606 0 0 0-.05-.137l-.146-.343h-.763l.016.01Zm.114-.255h.536l-.255-.627-.276.627h-.005Zm2.582-.371-.417 1.308H65.9l-.417-1.575c-.049-.175-.087-.306-.12-.399s-.07-.169-.108-.223h.542a.892.892 0 0 0-.027.114c-.006.039-.011.071-.011.11 0 .038 0 .081.01.13.006.05.017.098.028.153l.254 1.107.525-1.641.52 1.64.265-1.024a4.736 4.736 0 0 0 .05-.213.82.82 0 0 0 .015-.158c0-.027 0-.06-.005-.093 0-.032-.01-.076-.022-.125h.51a2.735 2.735 0 0 0-.217.594.248.248 0 0 1-.017.05l-.416 1.553h-.276l-.428-1.308h-.006Zm1.971.627-.135.289a.79.79 0 0 0-.065.174.509.509 0 0 0-.022.147v.066h-.503a3.06 3.06 0 0 0 .162-.24 3 3 0 0 0 .157-.3l.818-1.712.796 1.772c.027.065.065.136.113.218a7.36 7.36 0 0 0 .173.256h-.546s0-.038.005-.054v-.05c0-.032 0-.065-.01-.097a.606.606 0 0 0-.05-.137l-.146-.343h-.763l.016.01Zm.114-.256h.536l-.255-.627-.276.627h-.005Zm1.868.365a1.494 1.494 0 0 0 .092.572h-.509c.033-.082.054-.169.07-.267.017-.098.022-.196.022-.305v-1.058a1.83 1.83 0 0 0-.022-.31 1.328 1.328 0 0 0-.07-.262h.352c.303 0 .53.054.677.158s.222.267.222.485c0 .13-.038.24-.109.333a.741.741 0 0 1-.32.218c.11.18.223.354.348.523.124.17.254.333.4.485h-.314c-.049 0-.151-.092-.303-.272a9.333 9.333 0 0 1-.536-.742v.442Zm0-1.423v.905a.657.657 0 0 0 .368-.158.413.413 0 0 0 .13-.317.399.399 0 0 0-.135-.316.584.584 0 0 0-.369-.12l.006.006Zm1.294 1.995c.032-.082.054-.169.07-.267.017-.098.022-.196.022-.305v-1.058c0-.115-.005-.218-.022-.31a1.321 1.321 0 0 0-.07-.262h.249c.162 0 .298.01.411.027.114.016.212.043.304.082a1.055 1.055 0 0 1 .66.992c0 .207-.043.398-.135.561a1.05 1.05 0 0 1-.38.393 1.295 1.295 0 0 1-.308.115 2.34 2.34 0 0 1-.438.038h-.363v-.006Zm.417-.207h.016a.72.72 0 0 0 .19-.022.946.946 0 0 0 .173-.065.833.833 0 0 0 .335-.322.914.914 0 0 0 .125-.463.861.861 0 0 0-.227-.611.961.961 0 0 0-.612-.294v1.783-.006Zm1.58-.338a.541.541 0 0 0 .18.213c.07.049.15.07.243.07a.309.309 0 0 0 .217-.076.272.272 0 0 0 .08-.202c0-.136-.113-.272-.34-.403-.027-.016-.05-.033-.065-.038a1.02 1.02 0 0 1-.314-.267.571.571 0 0 1-.087-.316c0-.186.06-.339.184-.47a.623.623 0 0 1 .46-.19.67.67 0 0 1 .179.022c.065.01.13.032.195.06l-.016.381a.399.399 0 0 0-.157-.13.402.402 0 0 0-.2-.044.324.324 0 0 0-.228.081.285.285 0 0 0-.087.219.29.29 0 0 0 .065.19c.044.055.136.126.282.213.01.005.027.016.043.027.136.082.233.153.293.213.048.05.08.104.108.169a.672.672 0 0 1 .038.213.565.565 0 0 1-.195.458c-.13.109-.314.163-.542.163-.054 0-.113 0-.168-.016a1.09 1.09 0 0 1-.178-.05l.01-.5v.01Zm-59.614-4.527c-.644.34-1.217.577-1.713.703-.497.127-1.08.193-1.757.193-1.632 0-2.99-.555-4.076-1.66C5.546 23.546 5 22.155 5 20.485c0-1.825.578-3.342 1.73-4.55 1.151-1.204 2.592-1.809 4.327-1.809.551 0 1.053.044 1.512.127.458.082.933.22 1.418.412v1.956a5.049 5.049 0 0 0-1.467-.785 5.143 5.143 0 0 0-1.66-.27c-1.134 0-2.084.445-2.837 1.33-.753.885-1.135 1.995-1.135 3.325s.355 2.45 1.07 3.336c.709.884 1.604 1.33 2.673 1.33.72 0 1.36-.11 1.916-.325s1.13-.582 1.724-1.088l-.087 1.951-.006-.011Zm14.335.72a10.11 10.11 0 0 0 .306-1.539c.06-.505.087-1.132.087-1.885v-4.979c0-.742-.027-1.363-.087-1.863a10.686 10.686 0 0 0-.311-1.56h2.526a10.31 10.31 0 0 0-.305 1.544c-.06.5-.088 1.127-.088 1.885v7.084c.863-.033 1.583-.11 2.167-.22a7.29 7.29 0 0 0 2.357-.852l-.475 1.192-.48 1.193h-5.697Zm10.455 0-2.155-8.397c-.256-.978-.475-1.726-.66-2.226-.18-.505-.371-.901-.573-1.198h2.788c-.125.297-.19.698-.185 1.198 0 .5.07 1.017.202 1.539l1.37 5.743 2.76-8.722 2.723 8.689h.011l1.392-5.71c.125-.478.19-.984.196-1.511 0-.533-.054-.94-.174-1.226h2.799c-.197.291-.382.687-.562 1.187-.18.5-.398 1.248-.66 2.237l-2.167 8.397h-1.386l-2.21-6.793-2.128 6.793h-1.386.005Zm13.719-3.424c0 .742.027 1.369.087 1.869a9.85 9.85 0 0 0 .317 1.555h-2.527a10.086 10.086 0 0 0 .306-1.539c.06-.505.087-1.132.087-1.885v-6.985l-1.178-1.417h2.679c0 .154.049.335.136.533.088.198.202.384.344.56l3.596 4.605 3.29-4.33c.197-.253.355-.5.475-.753.12-.247.18-.456.18-.615h2.445c-.35.533-.595 1.05-.731 1.555-.137.5-.208 1.126-.208 1.874v4.973c0 .742.028 1.369.088 1.869.06.505.164 1.022.31 1.555h-2.531a10.086 10.086 0 0 0 .305-1.539c.06-.505.088-1.132.088-1.885v-5.094l-3.776 5.094-3.782-4.83v4.83Zm12.545 0 3.907-8.639 3.907 8.634c.453.989.824 1.736 1.108 2.242.29.5.568.896.846 1.187h-2.832c.06-.236.033-.605-.082-1.105s-.295-1.044-.535-1.632l-.37-.912h-4.224l-.055.176a12.758 12.758 0 0 0-.671 2.06c-.153.677-.197 1.15-.131 1.418h-2.86c.312-.324.612-.736.906-1.236.29-.506.655-1.231 1.092-2.187m2.34-1.742h2.98l-1.484-3.567h-.006l-1.484 3.567h-.005Zm-47.364.384c.027-.132-.011-.263 0-.368a.87.87 0 0 1 .316-.56c.093-.072.24-.116.24-.215 0-.126-.333-.313-.393-.406-.141-.215-.147-.39-.207-.654-.556-.06-.72.28-.988.522.17.022.235.203.131.346.137.06.191.203.186.407.038.06.136.11.147.214.017.165-.136.203-.185.346-.126.374.125.758.13 1.138.115-.05.077-.143.132-.231.13-.198.425-.28.485-.539h.006Zm1.211.022c-.196.022-.36-.05-.502-.022-.065.033.022.176-.038.253-.06.011-.066-.033-.131-.022-.082.38-.671.231-.764.6.47.104.12.61.207 1.021h1.38c.126-.225.432-.461.749-.307.223-.116.065-.572-.055-.715-.175-.209-.491-.313-.633-.5-.087-.115-.098-.225-.207-.308h-.006Z" fill="#98A2B3"/><path d="M27.258 17.555 23.798 14l-4.872.022-3.433 3.583.022 5.045 3.465 3.555 4.873-.022 3.433-3.583-.022-5.045h-.006Zm-2.88-1.12c-.072.285-.121.604-.263.868-.18.34-.49.571-.41 1.082-.3-.06-.365.231-.354.5-.098 0-.185-.104-.3-.038-.027.055-.016.154-.13.115-.006.105-.012.21-.04.292-.092.016-.097-.055-.185-.039-.065 0-.016.127-.054.154h-.131c-.055.044-.022.17-.055.23-.114 0-.13-.11-.223-.137-.071.044.027.21-.039.292-.109 0-.142-.088-.262-.077.093.209.399.192.431.461.017.072-.07.028-.114.039.044.077.104.137.147.214-.076.237.082.302.131.445.011.028-.01.072 0 .1.06.098.18.175.3.153.033.05.066.105.077.176.158 0 .24.071.354.115.071-.05.088-.153.186-.175-.016-.105-.076-.094-.038-.215-.082-.066-.197-.093-.224-.214h-.17c-.037-.1-.081-.187-.24-.154-.054-.181-.12-.297-.13-.484.153-.302.556-.159.895-.137-.044-.06-.099-.115-.131-.192.027-.121.087-.21.185-.253.033.027-.043.104-.054.154.01.05.054.071.076.115.3.017.442-.198.371-.5.431.137.158.731-.016.945-.028.105.065.083.076.154-.174.127-.382-.066-.3-.27-.19.122-.611-.147-.84.017.049.5.867.385.802 1.045-.066.67-.906.412-1.272.137-.021.137.159.225.224.33-.038.412.175.72.355.967.01.088-.044.11-.038.192.13.033.147.242.13.462-.027.055-.103.06-.147.099 0 .099.093.093.131.154 0 .274-.142.406-.093.736h-3.863c.033-.264-.038-.412-.17-.5.017-.121 0-.176.017-.27.022-.027.082-.016.131-.016-.038-.126.011-.187.115-.214-.044-.094-.18-.05-.262-.1a.593.593 0 0 1-.207-.29c0-.154.158-.17.24-.292-.088-.357-.502-.615-.54-1.06-.012-.116.016-.248.016-.368.022-.534 0-1.056-.17-1.506.055-.072.126-.127.17-.215.07.011.093-.033.169-.022.431-.258.851-.522 1.211-.851-.152-.1-.294-.314-.524-.27-.043.187-.054.413-.278.407.055-.22 0-.385-.169-.423-.093-.017-.06.088-.147.077 0 .093.087.088.054.214-.404.154-.622-.434-.3-.599.186.022.284-.104.431-.022.42-.22.753.143 1.157.176.076.082.142.176.262.214.098-.148.235-.258.338-.406.153 0 .246-.1.448-.138.18-.033.393-.148.41-.253.016-.115-.055-.18-.115-.192-.159-.027-.224.275-.41.27-.13 0-.092-.094-.24-.154-.01-.094.12-.121.055-.215-.279.006-.573.077-.71-.176-.065.044-.054.17-.207.138-.016-.06.06-.028.055-.077-.159-.143-.24-.357-.432-.462 0-.077 0-.16.017-.214.104.17.404.132.524.291.098.017.076-.088.147-.099.055.094-.016.198-.055.253.126.187.339.187.54.077-.01-.044-.027-.088-.016-.154-.032-.038-.136 0-.169-.038-.01-.105.093-.083.093-.176-.022-.138-.213-.06-.278-.022.021-.368.365-.138.562-.253.18.06.343.132.562.154.032-.06.043-.192.13-.253.312.006.475.264.748.27.268.005.437-.32.726-.215.016.11-.115.137-.17.214-.054.077-.136.28-.13.33.016.132.19.148.185.308-.021.027-.081.016-.13.016 0 .16.13.187.13.347.344-.028.519-.231.617-.539.076-.242.05-.621.317-.698.103.209-.028.478-.039.698.17-.209.317-.544.393-.852.022-.088-.032-.22.093-.253.235.088.07.385.038.522l.011.023ZM5 50.276c.584.012 1.193-.079 1.789.091.668.188 1.024.662 1.012 1.317a.935.935 0 0 1-.301.703c-.115.11-.247.207-.386.328.12.079.235.145.343.224.862.6.777 1.808-.15 2.281-.21.11-.44.176-.675.212-.168.03-.35.037-.524.043H5.006a28.272 28.272 0 0 0 0-5.199H5Zm.922 3.658v.673c0 .413 0 .419.421.328.109-.024.217-.055.32-.103.39-.188.566-.498.535-.94-.036-.516-.421-.862-1.03-.953-.18-.024-.253 0-.247.2.013.261 0 .528 0 .79v.005Zm1.042-2.311c0-.467-.35-.819-.832-.837-.162-.006-.223.042-.223.212.006.437.006.88 0 1.316 0 .164.055.225.217.213a.881.881 0 0 0 .832-.898l.006-.006Zm19.322 3.852h-1.138c-.12 0-.181-.049-.199-.17-.102-.655-.53-1.146-.855-1.753-.374.558-.741 1.062-.88 1.68-.048.212-.138.261-.325.249-.307-.012-.614 0-.982 0 .205-.26.374-.455.512-.667.374-.565.723-1.147 1.096-1.71.12-.183.12-.329 0-.51-.481-.759-.897-1.565-1.505-2.245v-.073h1.06c.132 0 .168.091.193.188.138.492.409.916.668 1.341.042.073.096.14.169.243.289-.352.482-.722.668-1.098.085-.17.145-.346.205-.528.03-.091.072-.152.18-.152h1.067c-.163.2-.29.352-.404.504-.433.582-.795 1.213-1.18 1.832-.072.115-.103.212-.018.34.524.824.97 1.698 1.656 2.523l.012.006Zm11.462-3.415c-.126.182-.042.406-.168.497-.133.091-.295-.09-.458-.067-.109.019-.223.019-.331.049-.38.103-.404.134-.404.54v1.092c0 .424-.006.849.115 1.255-.079.067-.151.055-.23.055h-.698c.102-1.213.138-2.396-.036-3.597.205-.049.421-.012.626-.024.163-.012.23.06.217.218-.006.085 0 .17 0 .285.193-.03.265-.176.35-.279a.702.702 0 0 1 .728-.285 4.28 4.28 0 0 0 1 .06c.175 0 .253.05.241.231-.006.11.012.225.042.334.205.71.422 1.42.633 2.129.126-.036.126-.127.15-.206.18-.6.356-1.201.542-1.802.042-.145.079-.291.06-.443-.024-.212.079-.26.26-.248.15.012.295 0 .433 0 .06.12-.018.188-.054.26a4.67 4.67 0 0 0-.337.874c-.23.728-.458 1.462-.687 2.19-.09.297-.096.297-.416.297h-.15c-.187.024-.265-.067-.313-.237-.187-.649-.386-1.298-.585-1.947-.126-.418-.27-.83-.542-1.237l.012.006Zm13.504-1.79c.657.018 1.326-.079 1.988.097.663.176 1.006.65 1.03 1.353.024.77-.289 1.256-.958 1.486a2.556 2.556 0 0 1-.879.152c-.193 0-.259.079-.259.267 0 .6 0 1.207.175 1.82h-1.084a26.593 26.593 0 0 0-.007-5.18l-.006.005Zm.922 1.583v.94c0 .122.036.183.169.189.554.03.993-.346 1.036-.904a2.348 2.348 0 0 0 0-.412c-.055-.54-.44-.88-.982-.88-.15 0-.229.036-.223.206.006.285 0 .576 0 .862Zm-20.684-.63c-.174-.025-.24-.122-.337-.182a1.19 1.19 0 0 0-.71-.182c-.29.018-.507.157-.615.418-.109.267-.048.516.144.734.145.158.32.285.494.4.241.158.476.322.687.516.494.455.65 1.086.422 1.68-.211.558-.765.928-1.41.94-.361.007-.723 0-1.066-.139-.132-.055-.205-.115-.199-.273.012-.224 0-.449 0-.68.157-.048.199.092.277.152.302.25.639.334 1.018.261.609-.121.838-.758.446-1.243-.169-.206-.391-.352-.608-.492a4.397 4.397 0 0 1-.597-.449c-.819-.733-.614-1.934.404-2.353.458-.188.921-.176 1.397-.049.181.049.271.152.26.352-.013.188 0 .37 0 .589h-.007Zm-9.938-.953c-.06.267-.181.45-.253.643-.066.182-.163.225-.344.134-.307-.146-.638-.194-.981-.194-.169 0-.253.042-.247.23.006.4.006.8 0 1.207 0 .176.06.249.24.243.398-.006.796 0 1.2 0 .047 0 .096.012.168.018-.036.291-.235.497-.361.734-.06.11-.151.043-.23.012a1.9 1.9 0 0 0-.686-.164c-.307-.012-.325 0-.325.298 0 .667-.018 1.328.162 2.013-.337.067-.668.03-1 .03-.108 0-.114-.084-.096-.157.235-1.158.109-2.33.139-3.494a5.645 5.645 0 0 0-.115-1.231c-.06-.291-.048-.31.235-.31h2.5l-.006-.012Zm35.561 3.519c0-.698.217-1.274.771-1.687.898-.667 2.102-.29 2.464.777.205.6.162 1.195-.133 1.747-.427.8-1.078 1.03-1.873.904-.614-.098-1.144-.747-1.217-1.456-.012-.097-.012-.2-.012-.285Zm2.578.048c0-.522-.096-.989-.506-1.298-.524-.4-.91-.34-1.18.291-.23.522-.181 1.056.06 1.565.133.285.35.485.644.595.32.115.512.054.723-.213.217-.285.271-.612.265-.934l-.006-.006Zm-24.84.952c-.247.71-.156.728-.976.765-.86.036-1.644-.655-1.68-1.65-.024-.54.072-1.05.38-1.505.252-.376.59-.606 1.053-.618.585-.018 1 .273 1.2.83.095.274.132.565.126.856 0 .273-.006.28-.265.28h-1.386c-.319 0-.35.042-.27.345.18.71.704 1.019 1.427.837.12-.03.235-.079.397-.133l-.006-.007Zm-1.885-1.57c.048.017.072.036.096.036.283 0 .573.006.856.006.47 0 .512-.06.355-.516-.09-.255-.241-.43-.53-.455-.301-.024-.5.116-.632.37-.09.164-.127.352-.14.558h-.005Zm-21.738 1.576c-.042.225-.139.389-.205.558-.048.128-.174.146-.277.164-1.343.243-2.108-.57-2.162-1.613-.024-.51.06-1.001.331-1.444.217-.34.5-.588.91-.673.608-.121 1.15.188 1.373.77.12.31.12.637.126.965 0 .17-.072.218-.222.212H9.536c-.133 0-.181.06-.151.188.132.613.464 1.195 1.373 1.013.145-.03.283-.085.482-.14h-.012Zm-1.162-1.534h.487c.06 0 .12 0 .15-.079.127-.31-.204-.85-.547-.886-.41-.042-.717.243-.783.728-.03.2 0 .23.21.237h.489-.006Zm36.603.51c.006.988.59 1.334 1.83 1.055-.03.194-.132.352-.198.522-.048.127-.169.145-.277.163-1.373.261-2.114-.612-2.162-1.57-.03-.528.048-1.026.325-1.48.199-.316.458-.559.831-.656.633-.158 1.21.134 1.452.746.12.31.12.637.126.965 0 .163-.06.218-.216.218-.446-.006-.898 0-1.344 0-.12 0-.247-.03-.367.03v.006Zm.644-.51h.524c.06 0 .12-.006.151-.079.127-.316-.205-.85-.554-.886-.398-.042-.687.219-.777.692-.042.224-.012.267.21.273h.446Zm13.33-1.408h.85c.09 0 .186 0 .192.122.018.63.295 1.189.446 1.783.066.267.156.528.24.795.121-.037.121-.134.145-.207.175-.576.35-1.152.518-1.728.048-.17.103-.34.084-.516-.018-.176.036-.267.223-.243.157.019.32-.018.506.03-.114.322-.277.613-.373.935-.235.782-.488 1.559-.735 2.335-.036.116-.03.28-.169.31a1.383 1.383 0 0 1-.59-.006c-.096-.025-.096-.14-.12-.219-.103-.333-.2-.673-.302-1.007-.12-.394-.247-.788-.367-1.183-.12-.394-.32-.758-.548-1.182v-.019ZM11.692 54.62c.156.024.205.14.289.206.163.121.331.218.542.224.187 0 .343-.054.44-.23.102-.176.054-.346-.06-.492-.09-.115-.211-.212-.32-.315-.174-.164-.367-.303-.524-.48-.5-.557-.343-1.297.326-1.619.33-.157.668-.17 1.017-.085.2.049.308.14.284.358-.013.11 0 .225 0 .334-.12.06-.163-.055-.235-.085-.09-.043-.175-.097-.271-.121-.253-.067-.5.018-.603.194-.102.182-.054.4.15.606.23.23.507.407.724.65.247.278.367.594.277.97-.109.449-.398.722-.838.807-.33.066-.668.03-1-.055-.144-.036-.216-.103-.204-.255.012-.194 0-.394 0-.6l.006-.012Zm33.67.175c0 .073 0 .097-.006.122-.199.576-.271.6-.88.637-1.078.072-1.77-.868-1.746-1.735.012-.437.078-.85.325-1.213.548-.825 1.35-.935 2.174-.77.109.024.139.084.139.181v.595c-.175.012-.23-.103-.32-.164-.511-.328-1.126-.17-1.39.382-.218.449-.224.922-.073 1.395.18.564.602.82 1.186.728.193-.03.38-.097.597-.158h-.006Zm-30.165-3.7v.577c0 .127.048.188.175.182h.41c.234.006.234.024.246.267 0 .175-.048.248-.234.248-.181 0-.422-.085-.543.043-.144.151-.048.406-.054.612-.012.376 0 .753 0 1.129 0 .085 0 .176.012.26.055.377.247.528.62.474.121-.019.242-.055.422-.097-.084.212-.156.388-.229.57a.204.204 0 0 1-.132.121c-.343.103-.687.121-1.024 0-.175-.067-.265-.218-.325-.394a1.797 1.797 0 0 1-.085-.595V52.8c0-.275-.136-.427-.41-.455.103-.23.82-1.013 1.151-1.25Zm39.585.783c.205-.049.422-.012.627-.024.162-.013.229.06.217.224-.006.085 0 .17 0 .285.198-.048.277-.2.379-.315a.714.714 0 0 1 .44-.255c.44-.073.536.018.457.449l-.018.151c-.018.182-.09.23-.27.146-.163-.079-.338-.06-.513-.024-.433.097-.475.145-.475.6v.94c0 .462-.03.929.138 1.408-.301.048-.572.024-.843.024-.09 0-.133-.042-.12-.146.156-1.152.132-2.298-.019-3.463Zm19.004 3.579c-.29.054-.56.024-.832.024-.096 0-.126-.055-.108-.152.162-.873.06-1.753.084-2.632.006-.28-.096-.54-.108-.85.21 0 .41.007.602 0 .169-.006.26.043.247.231-.006.085-.024.176.042.273.157-.06.241-.2.338-.315.21-.261.481-.285.776-.25.133.013.2.098.163.237-.012.061-.03.122-.042.182-.024.122.006.273-.096.352-.097.08-.205-.048-.314-.06-.27-.043-.518.03-.759.14-.114.054-.12.145-.114.248.036.849-.09 1.704.12 2.566v.006Zm-31.61-.006c-.29.042-.59.03-.892 0 .09-1.201.115-2.378-.024-3.58.313-.042.614-.036.922-.005-.163 1.195-.145 2.378-.012 3.579l.006.006Zm22.985 0c-.296.054-.597.018-.91.018.139-.977.072-1.923.066-2.876 0-.163-.03-.321-.066-.485-.054-.236-.036-.255.217-.255.235 0 .47-.03.699.019a14.183 14.183 0 0 0-.006 3.572v.006ZM42.2 50.968c-.019.31-.235.521-.518.51s-.476-.25-.458-.565c.012-.31.229-.527.518-.51.27.013.482.268.464.57l-.006-.005Zm22.003-.055c.012-.31.229-.527.518-.51.27.013.482.268.463.57-.018.31-.234.529-.518.51-.283-.012-.475-.254-.457-.564l-.006-.006Zm4.698-.594c-.277.06-.518.127-.765.17-.169.03-.2.121-.157.267.072.242.078.497.084.746 0 .285 0 .29-.283.279-.819-.03-1.367.376-1.74 1.073a1.797 1.797 0 0 0-.2.607c-.065.413-.09.825.061 1.225.169.455.494.752.97.85.421.084.825.06 1.084-.37.012-.019.042-.019.06-.03.048.011.048.054.048.084-.024.225.09.28.29.26.18-.017.373.025.554-.03-.145-.867-.145-3.99 0-5.131H68.9Zm-1.103 4.604c-.44.164-.897 0-1.09-.449-.259-.588-.235-1.201.018-1.79.181-.418.868-.533 1.235-.254.096.073.102.164.102.26v.94c0 .225-.006.45 0 .68 0 .073 0 .152.006.225.013.218-.09.321-.27.388Zm2.59-1.183h1.566c.157 0 .23-.042.223-.212 0-.328 0-.65-.126-.965-.229-.6-.79-.904-1.41-.764-.391.085-.662.334-.867.661-.283.455-.355.952-.331 1.48.048.928.753 1.832 2.156 1.577.157-.03.277-.097.325-.267.043-.14.139-.26.145-.455-.187.055-.325.11-.47.14-.903.182-1.235-.394-1.373-1.013-.03-.127.018-.194.15-.188l.012.006Zm-.168-.594c-.066-.455.38-.916.819-.85.331.049.632.564.524.874-.024.073-.078.09-.145.09H70.37c-.078 0-.144-.017-.156-.114h.006ZM14.48 40.607h1.687c-.108.261-.217.504-.313.759-.271.74-.452 1.51-.657 2.274-.343 1.286-.68 2.566-1.024 3.852-.078.285-.078.28-.373.285-.584.006-.584.006-.765-.533-.355-1.056-.705-2.117-1.054-3.18-.03-.096-.066-.187-.102-.296-.115.054-.12.157-.145.242-.367 1.147-.74 2.287-1.108 3.434-.073.222-.225.333-.458.333-.536 0-.53 0-.675-.527-.5-1.826-.945-3.664-1.475-5.484-.115-.394-.283-.77-.464-1.159h1.692c-.204.728-.024 1.408.145 2.093.217.862.428 1.729.638 2.59.025.097.037.2.139.328a2450.71 2450.71 0 0 0 1.674-5.12c.633 1.674 1.139 3.385 1.771 5.065.169-.661.332-1.328.5-1.99.127-.497.26-.994.374-1.498.108-.479.126-.964 0-1.468h-.006Zm18.167 5.278c-.085-1.76.156-3.525-.241-5.284h1.433c-.337 1.183-.235 2.378-.229 3.561 0 1.189-.12 2.39.2 3.61h-1.344c-.096 0-.114-.074-.15-.14-.235-.504-.567-.94-.904-1.383l-2.253-2.96c-.072-.098-.132-.207-.289-.304-.036.425-.012.82-.018 1.207v1.171c0 .4.018.8.03 1.207.012.394.115.77.205 1.201-.476.012-.94.006-1.434 0 .12-.552.217-1.074.217-1.613 0-1.444 0-2.888.012-4.331a.594.594 0 0 0-.144-.377c-.223-.266-.446-.533-.699-.843.253-.042.482-.018.71-.018.302 0 .633-.079.886.03.26.11.325.48.494.728.271.407.554.807.85 1.19.86 1.121 1.716 2.244 2.577 3.366l.09-.018Zm-11.39-2.924c0 .837.006 1.62 0 2.402-.006.795.006 1.583.24 2.384h-1.421c.373-1.96.139-3.937.205-5.896a.534.534 0 0 0-.133-.376 42.055 42.055 0 0 1-.723-.886h1.567c.126 0 .15.11.204.194 1.078 1.802 2.47 3.373 3.717 5.053.012.018.036.024.06.037.096-.037.066-.122.066-.189 0-1.17-.012-2.335-.012-3.506 0-.527-.096-1.043-.223-1.57h1.434c-.313 1.188-.235 2.377-.229 3.566.006 1.189-.102 2.39.21 3.603h-1.312c-.115 0-.145-.079-.181-.158-.223-.479-.542-.903-.855-1.322-.765-1.007-1.53-2.014-2.301-3.02-.073-.098-.133-.207-.301-.316h-.012Zm17.787-2.354c-.175.376-.332.728-.494 1.074-.073.146-.169.049-.247.012-.518-.26-1.072-.303-1.639-.327-.162-.006-.222.048-.216.212 0 .643.006 1.28 0 1.923 0 .17.066.206.223.206h2.072c.03.176-.097.28-.157.406-.096.188-.217.37-.307.558-.079.17-.163.207-.344.116-.391-.207-.825-.267-1.264-.267-.163 0-.217.048-.217.212.006.68.006 1.359 0 2.032 0 .188.072.225.247.219.94-.049 1.86-.152 2.704-.613.096.097.018.17-.012.249-.126.327-.265.649-.391.976-.043.11-.097.188-.241.188-1.2-.012-2.392-.012-3.59-.018-.012 0-.024-.012-.042-.024.367-1.553.162-3.142.204-4.713.018-.552.03-1.104-.072-1.65-.042-.249-.096-.492-.144-.759h3.933l-.006-.012Zm11.558 6.242c1.012-.036 1.97.06 2.94-.23-.037.358-.145.691-.212 1.025-.024.109-.096.133-.192.127h-4.042c-.12 0-.247.024-.367-.024-.024-.128.072-.182.126-.26.82-1.105 1.65-2.209 2.47-3.319.253-.34.506-.685.71-1.062.103-.188.2-.376.223-.594.06-.455-.156-.85-.554-1-.427-.165-.927-.019-1.168.345-.187.285-.235.6-.205.934.012.11.03.218.048.364-.343-.133-.596-.358-.885-.522-.109-.06-.09-.163-.097-.267-.03-1.013.76-1.85 1.82-1.91.222-.012.445 0 .668.048 1.138.225 1.765 1.347 1.355 2.439-.12.321-.301.606-.488.885-.596.898-1.27 1.741-1.91 2.609-.077.109-.18.206-.246.406l.006.006Zm11.752 0c.981-.036 1.939.049 2.92-.23-.078.364-.156.703-.228 1.037-.018.073-.06.11-.127.11h-4.3c-.06 0-.12-.007-.18-.013-.019-.133.071-.194.126-.267.765-1.025 1.53-2.044 2.289-3.07.252-.339.5-.69.734-1.043.145-.218.277-.448.35-.703.144-.498-.06-.977-.506-1.153a.976.976 0 0 0-1.247.455 1.146 1.146 0 0 0-.139.576c0 .195.018.389.03.637-.3-.194-.572-.37-.843-.54-.138-.084-.12-.206-.114-.333.024-1.031.789-1.808 1.837-1.862.265-.013.524.012.777.072 1.012.25 1.59 1.317 1.265 2.324-.109.34-.29.637-.482.928-.615.934-1.313 1.801-1.976 2.7-.072.096-.18.175-.187.363v.012Zm-43.916-6.242a32.573 32.573 0 0 0 0 7.146h-1.506c.331-1.189.223-2.384.223-3.573s.114-2.384-.229-3.573h1.512Zm24.677 3.907c.21-.121.391-.212.554-.328.362-.242.627-.57.74-1a1.927 1.927 0 0 0-.8-2.136c-.295-.194-.627-.303-.97-.376-.68-.145-1.367-.067-2.048-.085-.096 0-.199-.036-.295.055.205.685.235 1.395.223 2.11-.006.692 0 1.384 0 2.07 0 .976.06 1.952-.229 2.929h1.584c-.295-1.043-.253-2.087-.229-3.203.344.473.633.88.934 1.274.482.625.988 1.225 1.566 1.765.09.085.169.182.313.182h1.187c-.952-1.055-1.831-2.068-2.518-3.263l-.012.006Zm-1.289-.346c-.15.018-.21-.012-.205-.17.006-.151 0-.303 0-.449v-1.88c0-.121-.03-.249.048-.394.494.018.946.157 1.29.546.451.503.415 1.34-.079 1.85-.29.297-.65.449-1.06.503l.006-.006Zm17.98-.643c-.06-.68-.23-1.335-.596-1.917-.332-.528-.772-.922-1.386-1.074-1.042-.26-2.036.116-2.662.995-.241.34-.41.716-.518 1.116-.223.837-.229 1.687-.103 2.536.085.6.278 1.17.627 1.674.35.504.795.861 1.403.983 1.133.23 2.133-.225 2.723-1.25.427-.74.548-1.553.518-2.39 0-.224.018-.455 0-.68l-.006.007Zm-1.199 1.899a2.42 2.42 0 0 1-.421.952c-.53.704-1.512.716-2.06.024a2.299 2.299 0 0 1-.434-.946 5.287 5.287 0 0 1-.145-1.268c0-.515.055-1.025.211-1.516.078-.243.18-.467.331-.668.549-.734 1.56-.734 2.103 0 .265.364.397.783.463 1.214a5.767 5.767 0 0 1-.06 2.201l.012.007Zm9.414 1.425c.982-.036 1.94.049 2.921-.23-.078.364-.156.703-.228 1.037-.018.073-.06.11-.127.11h-4.3c-.06 0-.12-.007-.181-.013-.018-.133.072-.194.126-.267.765-1.025 1.53-2.044 2.29-3.07.252-.339.5-.69.734-1.043.145-.218.277-.448.35-.703.144-.498-.06-.977-.507-1.153a.976.976 0 0 0-1.246.455 1.147 1.147 0 0 0-.139.576c0 .195.018.389.03.637-.301-.194-.572-.37-.843-.54-.139-.084-.12-.206-.114-.333.024-1.031.788-1.808 1.837-1.862.265-.013.524.012.777.072 1.012.25 1.59 1.317 1.265 2.324-.109.34-.29.637-.482.928-.615.934-1.313 1.801-1.976 2.7-.072.096-.18.175-.187.363v.012ZM32.858 65.411l2.547-3.458v-.024l-2.246-3.173s0-.03.018-.03h1s.012 0 .018.006l1.204 1.717c.241.34.416.606.524.794.006.013.024.013.03 0 .145-.236.314-.479.512-.74l1.338-1.777s.012-.006.018-.006h.91s.023.018.017.03l-2.313 3.124v.025l2.494 3.506s0 .03-.018.03h-1.042s-.012 0-.018-.006l-1.675-2.39c-.09-.127-.18-.273-.277-.419-.006-.012-.024-.012-.036 0a8.16 8.16 0 0 1-.301.474l-1.668 2.335s-.013.006-.019.006h-1.011s-.025-.018-.019-.03l.013.006Zm6.848.006v-6.679s.012-.018.018-.018h1.295s.018 0 .018.012l1.572 4.744c.133.4.23.71.301.928.006.018.037.018.043 0a50.891 50.891 0 0 1 .337-1.013l1.59-4.659s.012-.012.018-.012h1.15s.019.012.019.018v6.679s-.012.018-.019.018h-.807s-.018-.012-.018-.018v-5.478s-.03-.03-.042-.006l-1.891 5.49s-.012.012-.018.012h-.765s-.018 0-.018-.012l-1.885-5.587s-.043-.018-.043.006v5.575s-.012.018-.018.018h-.807s-.018-.012-.018-.018h-.012Z" fill="#98A2B3"/></svg>