<?xml version="1.0" encoding="UTF-8" standalone="no"?><svg xmlns="http://www.w3.org/2000/svg" xmlns:xlink="http://www.w3.org/1999/xlink" contentScriptType="text/ecmascript" fill="none" width="24" zoomAndPan="magnify" contentStyleType="text/css" viewBox="0 0 24 25" height="25" preserveAspectRatio="xMidYMid meet" version="1.0">
<g clip-path="url(#clip0_15240_138393)">
<circle fill="#BD3D44" r="6.85714" cx="17.1429" cy="12.1391"/>
<path fill="white" clip-rule="evenodd" d="M13.4485 6.35901C12.994 6.64981 12.576 6.99274 12.2031 7.37938H22.0752C21.7022 6.99274 21.2843 6.64981 20.8298 6.35901H13.4485ZM10.7767 9.57712C10.9318 9.1923 11.1208 8.82479 11.34 8.47828H22.9383C23.1575 8.82479 23.3465 9.1923 23.5016 9.57712H10.7767ZM10.4384 10.676C10.3718 10.9828 10.3256 11.2973 10.3015 11.6179H23.9768C23.9527 11.2973 23.9065 10.9828 23.8398 10.676H10.4384ZM10.4509 13.6587C10.377 13.3321 10.3264 12.9966 10.301 12.654H23.9772C23.9518 12.9966 23.9012 13.3321 23.8273 13.6587H10.4509ZM10.7997 14.7576C10.959 15.1429 11.1524 15.5105 11.3761 15.8566H22.9022C23.1259 15.5105 23.3193 15.1429 23.4786 14.7576H10.7997ZM13.4139 17.8972C12.9949 17.6256 12.6074 17.3095 12.2582 16.9555H22.0201C21.6708 17.3095 21.2833 17.6256 20.8643 17.8972H13.4139ZM17.0789 18.9961C17.0989 18.9963 17.119 18.9964 17.1391 18.9964C17.1592 18.9964 17.1793 18.9963 17.1994 18.9961H17.0789Z" fill-rule="evenodd"/>
<path fill="#00418E" clip-rule="evenodd" d="M10.3053 12.6603C10.2923 12.4883 10.2858 12.3145 10.2858 12.1391C10.2858 8.35203 13.3558 5.28198 17.1429 5.28198C17.4256 5.28198 17.7043 5.29909 17.9781 5.33233V12.6603H10.3053Z" fill-rule="evenodd"/>
<path fill="white" clip-rule="evenodd" d="M13.7967 6.1631C13.7572 6.18542 13.7179 6.20812 13.6788 6.23119L13.8638 6.36342L13.7967 6.1631ZM13.0801 6.6286C12.9415 6.73141 12.807 6.83932 12.6767 6.95206L12.7214 6.92056L12.9734 7.10003L12.8776 6.80806L13.1323 6.6286H13.0801ZM12.0093 7.61442C11.9783 7.64961 11.9478 7.68512 11.9176 7.72094L12.0831 7.83931L12.0093 7.61442ZM10.798 9.58038C10.7784 9.62902 10.7594 9.67792 10.7409 9.7271L10.7874 9.75985L10.6887 10.0545L10.9435 9.87235L11.1983 10.0545L11.0997 9.76253L11.3544 9.58306H11.0421L10.9435 9.2911L10.8476 9.58038H10.798ZM15.3842 5.59735L15.4828 5.88932H15.7951L15.543 6.06878L15.6389 6.36342L15.3842 6.18128L15.1321 6.36074L15.228 6.06878L14.976 5.88932H15.2883L15.3842 5.59735ZM17.1621 5.59735L17.2579 5.88932H17.573L17.3182 6.06878L17.4168 6.36342L17.1621 6.18128L16.9073 6.36074L17.0059 6.06878L16.7511 5.88932H17.0662L17.1621 5.59735ZM14.4966 6.33664L14.5952 6.6286H14.9075L14.6527 6.80806L14.7513 7.10003L14.4966 6.92056L14.2445 7.10003L14.3404 6.80806L14.0857 6.6286H14.4034L14.4966 6.33664ZM16.2745 6.33664L16.3704 6.6286H16.6854L16.4306 6.80806L16.5265 7.10003L16.2745 6.92056L16.0197 7.10003L16.1156 6.80806L15.8636 6.6286H16.1759L16.2745 6.33664ZM13.609 7.07324L13.7049 7.36789H14.0199L13.7651 7.54735L13.8638 7.83931L13.609 7.65717L13.3542 7.83931L13.4528 7.54467L13.1981 7.36521H13.5104L13.609 7.07324ZM15.3842 7.07324L15.4828 7.36789H15.7951L15.543 7.54735L15.6389 7.83931L15.3842 7.65717L15.1321 7.83931L15.228 7.54467L14.976 7.36521H15.2883L15.3842 7.07324ZM17.1621 7.07324L17.2579 7.36789H17.573L17.3182 7.54735L17.4168 7.83931L17.1621 7.65717L16.9073 7.83931L17.0059 7.54467L16.7511 7.36521H17.0662L17.1621 7.07324ZM12.7214 7.81253L12.8173 8.10449H13.1323L12.8776 8.28396L12.9734 8.5786L12.7214 8.39646L12.4666 8.57592L12.5625 8.28396L12.3105 8.10449H12.6228L12.7214 7.81253ZM14.4966 7.81253L14.5952 8.10449H14.9075L14.6555 8.28396L14.7513 8.5786L14.4966 8.39646L14.2445 8.57592L14.3404 8.28396L14.0857 8.10449H14.4034L14.4966 7.81253ZM16.2745 7.81253L16.3704 8.10449H16.6854L16.4306 8.28396L16.5265 8.5786L16.2745 8.39646L16.0197 8.57592L16.1156 8.28396L15.8636 8.10449H16.1759L16.2745 7.81253ZM11.8311 8.55181L11.9297 8.84378H12.2393L11.9872 9.02324L12.0831 9.31788L11.8284 9.13574L11.5763 9.31521L11.6722 9.02324L11.4174 8.84378H11.7325L11.8311 8.55181ZM13.609 8.55181L13.7049 8.84378H14.0199L13.7651 9.02324L13.8638 9.31788L13.609 9.13574L13.3542 9.31521L13.4528 9.02324L13.1981 8.84378H13.5104L13.609 8.55181ZM15.3842 8.55181L15.4828 8.84378H15.7951L15.543 9.02324L15.6389 9.31788L15.3842 9.13574L15.1321 9.31521L15.228 9.02324L14.976 8.84378H15.2883L15.3842 8.55181ZM17.1621 8.55181L17.2579 8.84378H17.573L17.3182 9.02324L17.4168 9.31788L17.1621 9.13574L16.9073 9.31521L17.0059 9.02324L16.7511 8.84378H17.0662L17.1621 8.55181ZM12.7214 9.2911L12.8173 9.58306H13.1323L12.8776 9.76253L12.9734 10.0545L12.7214 9.87235L12.4666 10.0545L12.5625 9.75985L12.3105 9.58038H12.6228L12.7214 9.2911ZM14.4966 9.2911L14.5952 9.58306H14.9075L14.6555 9.76253L14.7513 10.0545L14.4966 9.87235L14.2445 10.0545L14.3404 9.75985L14.0857 9.58038H14.4034L14.4966 9.2911ZM16.2745 9.2911L16.3704 9.58306H16.6854L16.4306 9.76253L16.5265 10.0545L16.2745 9.87235L16.0197 10.0545L16.1156 9.75985L15.8636 9.58038H16.1759L16.2745 9.2911ZM11.8311 10.0277L11.9297 10.3223H12.2393L11.9872 10.5018L12.0831 10.7911L11.8284 10.6116L11.5763 10.7911L11.6722 10.4991L11.4174 10.3197H11.7325L11.8311 10.0277ZM13.609 10.0277L13.7049 10.3223H14.0199L13.7651 10.5018L13.8638 10.7911L13.609 10.6116L13.3542 10.7911L13.4528 10.4991L13.1981 10.3197H13.5104L13.609 10.0277ZM15.3842 10.0277L15.4828 10.3223H15.7951L15.543 10.5018L15.6389 10.7911L15.3842 10.6116L15.1321 10.7911L15.228 10.4991L14.976 10.3197H15.2883L15.3842 10.0277ZM17.1621 10.0277L17.2579 10.3223H17.573L17.3182 10.5018L17.4168 10.7911L17.1621 10.6116L16.9073 10.7911L17.0059 10.4991L16.7511 10.3197H17.0662L17.1621 10.0277ZM10.9435 10.767L11.0421 11.059H11.3544L11.0997 11.2384L11.1983 11.5331L10.9435 11.3509L10.6887 11.5304L10.7874 11.2384L10.5326 11.059H10.8476L10.9435 10.767ZM12.7214 10.767L12.8173 11.059H13.1323L12.8776 11.2384L12.9734 11.5331L12.7214 11.3509L12.4666 11.5304L12.5625 11.2384L12.3105 11.059H12.6228L12.7214 10.767ZM14.4966 10.767L14.5952 11.059H14.9075L14.6555 11.2384L14.7513 11.5331L14.4966 11.3509L14.2445 11.5304L14.3404 11.2384L14.0857 11.059H14.4034L14.4966 10.767ZM16.2745 10.767L16.3704 11.059H16.6854L16.4306 11.2384L16.5265 11.5331L16.2745 11.3509L16.0197 11.5304L16.1156 11.2384L15.8636 11.059H16.1759L16.2745 10.767ZM11.8311 11.5063L11.9297 11.7982H12.2393L11.9927 11.9777L12.0886 12.2697L11.8338 12.0902L11.5818 12.2697L11.6777 11.975L11.4229 11.7956H11.738L11.8311 11.5063ZM13.609 11.5063L13.7049 11.7982H14.0199L13.7651 11.9777L13.8638 12.2697L13.609 12.0902L13.3542 12.2697L13.4528 11.975L13.1981 11.7956H13.5104L13.609 11.5063ZM15.3842 11.5063L15.4828 11.7982H15.7951L15.543 11.9777L15.6389 12.2697L15.3842 12.0902L15.1321 12.2697L15.228 11.975L14.976 11.7956H15.2883L15.3842 11.5063ZM17.1621 11.5063L17.2579 11.7982H17.573L17.3182 11.9777L17.4168 12.2697L17.1621 12.0902L16.9073 12.2697L17.0059 11.975L16.7511 11.7956H17.0662L17.1621 11.5063Z" fill-rule="evenodd"/>
<g clip-path="url(#clip1_15240_138393)">
<path fill="url(#paint0_linear_15240_138393)" d="M6.85349 18.9477C10.6386 18.9477 13.707 15.8789 13.707 12.0934C13.707 8.30789 10.6386 5.23914 6.85349 5.23914C3.06841 5.23914 0 8.30789 0 12.0934C0 15.8789 3.06841 18.9477 6.85349 18.9477Z"/>
<path fill="#00D1FF" d="M4.59609 10.3893C4.54131 10.3213 4.45819 10.2835 4.36941 10.2835H2.53891C2.5238 10.2835 2.51058 10.2778 2.49924 10.2684C2.4898 10.2589 2.48413 10.2476 2.48413 10.2343V9.00066C2.48413 8.98743 2.4898 8.9761 2.49924 8.96665C2.51058 8.95532 2.5238 8.94965 2.53891 8.95154H4.47331C4.96068 8.95154 5.38194 9.1518 5.73708 9.55044L6.20746 10.1248L5.29127 11.2413L4.59609 10.3893ZM7.9775 9.54477C8.33075 9.14991 8.7539 8.95154 9.24695 8.95154H11.1757C11.1889 8.94965 11.2021 8.95532 11.2116 8.96287C11.221 8.97232 11.2248 8.98554 11.2229 9.00066V10.2343C11.2229 10.2476 11.2191 10.2589 11.2116 10.2684C11.2021 10.2797 11.1889 10.2854 11.1757 10.2835H9.34518C9.25828 10.2816 9.17516 10.3213 9.11849 10.3893L7.7697 12.031L9.12416 13.6842C9.17894 13.7465 9.26017 13.7843 9.34329 13.7824H11.1738C11.187 13.7805 11.2021 13.7881 11.2097 13.7975C11.2172 13.8088 11.2229 13.824 11.221 13.8372V15.0709C11.221 15.0841 11.2172 15.0954 11.2097 15.1049C11.2002 15.1162 11.187 15.1219 11.1738 15.12H9.24695C8.7539 15.12 8.33453 14.9197 7.98317 14.5211L6.86107 13.1514L5.73897 14.5211C5.38572 14.9197 4.96257 15.12 4.46953 15.12H2.53891C2.52569 15.1219 2.51058 15.1143 2.50302 15.1049C2.49358 15.0935 2.4898 15.0784 2.49169 15.0652V13.8315C2.49169 13.8183 2.49547 13.807 2.50302 13.7975C2.51247 13.7862 2.52569 13.7805 2.53891 13.7824H4.36941C4.4563 13.7824 4.53942 13.7427 4.59609 13.6766L5.92032 12.0594L7.9775 9.54477Z"/>
</g>
</g>
<defs>
<linearGradient x1="6.85443" gradientUnits="userSpaceOnUse" x2="6.85443" y1="5.2391" y2="8.86649" xlink:type="simple" xlink:actuate="onLoad" id="paint0_linear_15240_138393" xlink:show="other">
<stop stop-color="#090220"/>
<stop stop-color="#170659" offset="1"/>
</linearGradient>
<clipPath id="clip0_15240_138393">
<rect fill="white" width="24" height="24" transform="translate(0 0.13916)"/>
</clipPath>
<clipPath id="clip1_15240_138393">
<rect fill="white" width="13.7085" height="13.71" transform="translate(0 5.23914)"/>
</clipPath>
</defs>
<metadata symbolName="SNXUSD" fileName="snxusd.svg" id="grimlock-metadata-id" lastUpdate="2025-02-10T09:58:22.674296497" symbolId="1450"/></svg>