<?xml version="1.0" encoding="UTF-8" standalone="no"?><svg xmlns="http://www.w3.org/2000/svg" xmlns:xlink="http://www.w3.org/1999/xlink" contentScriptType="text/ecmascript" fill="none" width="24" zoomAndPan="magnify" contentStyleType="text/css" viewBox="0 0 24 25" height="25" preserveAspectRatio="xMidYMid meet" version="1.0">
<g clip-path="url(#clip0_15240_138462)">
<circle fill="#BD3D44" r="6.85714" cx="17.1429" cy="12.916"/>
<path fill="white" clip-rule="evenodd" d="M13.4485 7.13586C12.994 7.42666 12.576 7.7696 12.2031 8.15624H22.0752C21.7022 7.7696 21.2843 7.42666 20.8298 7.13586H13.4485ZM10.7767 10.354C10.9318 9.96916 11.1208 9.60165 11.34 9.25514H22.9383C23.1575 9.60165 23.3465 9.96916 23.5016 10.354H10.7767ZM10.4384 11.4529C10.3718 11.7597 10.3256 12.0742 10.3015 12.3948H23.9768C23.9527 12.0742 23.9065 11.7597 23.8398 11.4529H10.4384ZM10.4509 14.4356C10.377 14.1089 10.3264 13.7734 10.301 13.4309H23.9772C23.9518 13.7734 23.9012 14.1089 23.8273 14.4356H10.4509ZM10.7997 15.5345C10.959 15.9198 11.1524 16.2873 11.3761 16.6335H22.9022C23.1259 16.2873 23.3193 15.9198 23.4786 15.5345H10.7997ZM13.4139 18.6741C12.9949 18.4024 12.6074 18.0863 12.2582 17.7324H22.0201C21.6708 18.0863 21.2833 18.4024 20.8643 18.6741H13.4139ZM17.0789 19.773C17.0989 19.7731 17.119 19.7732 17.1391 19.7732C17.1592 19.7732 17.1793 19.7731 17.1994 19.773H17.0789Z" fill-rule="evenodd"/>
<path fill="#00418E" clip-rule="evenodd" d="M10.3053 13.4372C10.2923 13.2651 10.2858 13.0913 10.2858 12.916C10.2858 9.12889 13.3558 6.05884 17.1429 6.05884C17.4256 6.05884 17.7043 6.07595 17.9781 6.10919V13.4372H10.3053Z" fill-rule="evenodd"/>
<path fill="white" clip-rule="evenodd" d="M13.7967 6.93996C13.7572 6.96227 13.7179 6.98497 13.6788 7.00805L13.8638 7.14028L13.7967 6.93996ZM13.0801 7.40546C12.9415 7.50827 12.807 7.61618 12.6767 7.72891L12.7214 7.69742L12.9734 7.87688L12.8776 7.58492L13.1323 7.40546H13.0801ZM12.0093 8.39127C11.9783 8.42646 11.9478 8.46197 11.9176 8.4978L12.0831 8.61617L12.0093 8.39127ZM10.798 10.3572C10.7784 10.4059 10.7594 10.4548 10.7409 10.504L10.7874 10.5367L10.6887 10.8313L10.9435 10.6492L11.1983 10.8313L11.0997 10.5394L11.3544 10.3599H11.0421L10.9435 10.068L10.8476 10.3572H10.798ZM15.3842 6.37421L15.4828 6.66617H15.7951L15.543 6.84563L15.6389 7.14028L15.3842 6.95813L15.1321 7.1376L15.228 6.84563L14.976 6.66617H15.2883L15.3842 6.37421ZM17.1621 6.37421L17.2579 6.66617H17.573L17.3182 6.84563L17.4168 7.14028L17.1621 6.95813L16.9073 7.1376L17.0059 6.84563L16.7511 6.66617H17.0662L17.1621 6.37421ZM14.4966 7.11349L14.5952 7.40546H14.9075L14.6527 7.58492L14.7513 7.87688L14.4966 7.69742L14.2445 7.87688L14.3404 7.58492L14.0857 7.40546H14.4034L14.4966 7.11349ZM16.2745 7.11349L16.3704 7.40546H16.6854L16.4306 7.58492L16.5265 7.87688L16.2745 7.69742L16.0197 7.87688L16.1156 7.58492L15.8636 7.40546H16.1759L16.2745 7.11349ZM13.609 7.8501L13.7049 8.14474H14.0199L13.7651 8.32421L13.8638 8.61617L13.609 8.43403L13.3542 8.61617L13.4528 8.32153L13.1981 8.14206H13.5104L13.609 7.8501ZM15.3842 7.8501L15.4828 8.14474H15.7951L15.543 8.32421L15.6389 8.61617L15.3842 8.43403L15.1321 8.61617L15.228 8.32153L14.976 8.14206H15.2883L15.3842 7.8501ZM17.1621 7.8501L17.2579 8.14474H17.573L17.3182 8.32421L17.4168 8.61617L17.1621 8.43403L16.9073 8.61617L17.0059 8.32153L16.7511 8.14206H17.0662L17.1621 7.8501ZM12.7214 8.58938L12.8173 8.88135H13.1323L12.8776 9.06081L12.9734 9.35545L12.7214 9.17331L12.4666 9.35278L12.5625 9.06081L12.3105 8.88135H12.6228L12.7214 8.58938ZM14.4966 8.58938L14.5952 8.88135H14.9075L14.6555 9.06081L14.7513 9.35545L14.4966 9.17331L14.2445 9.35278L14.3404 9.06081L14.0857 8.88135H14.4034L14.4966 8.58938ZM16.2745 8.58938L16.3704 8.88135H16.6854L16.4306 9.06081L16.5265 9.35545L16.2745 9.17331L16.0197 9.35278L16.1156 9.06081L15.8636 8.88135H16.1759L16.2745 8.58938ZM11.8311 9.32867L11.9297 9.62063H12.2393L11.9872 9.8001L12.0831 10.0947L11.8284 9.9126L11.5763 10.0921L11.6722 9.8001L11.4174 9.62063H11.7325L11.8311 9.32867ZM13.609 9.32867L13.7049 9.62063H14.0199L13.7651 9.8001L13.8638 10.0947L13.609 9.9126L13.3542 10.0921L13.4528 9.8001L13.1981 9.62063H13.5104L13.609 9.32867ZM15.3842 9.32867L15.4828 9.62063H15.7951L15.543 9.8001L15.6389 10.0947L15.3842 9.9126L15.1321 10.0921L15.228 9.8001L14.976 9.62063H15.2883L15.3842 9.32867ZM17.1621 9.32867L17.2579 9.62063H17.573L17.3182 9.8001L17.4168 10.0947L17.1621 9.9126L16.9073 10.0921L17.0059 9.8001L16.7511 9.62063H17.0662L17.1621 9.32867ZM12.7214 10.068L12.8173 10.3599H13.1323L12.8776 10.5394L12.9734 10.8313L12.7214 10.6492L12.4666 10.8313L12.5625 10.5367L12.3105 10.3572H12.6228L12.7214 10.068ZM14.4966 10.068L14.5952 10.3599H14.9075L14.6555 10.5394L14.7513 10.8313L14.4966 10.6492L14.2445 10.8313L14.3404 10.5367L14.0857 10.3572H14.4034L14.4966 10.068ZM16.2745 10.068L16.3704 10.3599H16.6854L16.4306 10.5394L16.5265 10.8313L16.2745 10.6492L16.0197 10.8313L16.1156 10.5367L15.8636 10.3572H16.1759L16.2745 10.068ZM11.8311 10.8046L11.9297 11.0992H12.2393L11.9872 11.2787L12.0831 11.568L11.8284 11.3885L11.5763 11.568L11.6722 11.276L11.4174 11.0965H11.7325L11.8311 10.8046ZM13.609 10.8046L13.7049 11.0992H14.0199L13.7651 11.2787L13.8638 11.568L13.609 11.3885L13.3542 11.568L13.4528 11.276L13.1981 11.0965H13.5104L13.609 10.8046ZM15.3842 10.8046L15.4828 11.0992H15.7951L15.543 11.2787L15.6389 11.568L15.3842 11.3885L15.1321 11.568L15.228 11.276L14.976 11.0965H15.2883L15.3842 10.8046ZM17.1621 10.8046L17.2579 11.0992H17.573L17.3182 11.2787L17.4168 11.568L17.1621 11.3885L16.9073 11.568L17.0059 11.276L16.7511 11.0965H17.0662L17.1621 10.8046ZM10.9435 11.5438L11.0421 11.8358H11.3544L11.0997 12.0153L11.1983 12.3099L10.9435 12.1278L10.6887 12.3072L10.7874 12.0153L10.5326 11.8358H10.8476L10.9435 11.5438ZM12.7214 11.5438L12.8173 11.8358H13.1323L12.8776 12.0153L12.9734 12.3099L12.7214 12.1278L12.4666 12.3072L12.5625 12.0153L12.3105 11.8358H12.6228L12.7214 11.5438ZM14.4966 11.5438L14.5952 11.8358H14.9075L14.6555 12.0153L14.7513 12.3099L14.4966 12.1278L14.2445 12.3072L14.3404 12.0153L14.0857 11.8358H14.4034L14.4966 11.5438ZM16.2745 11.5438L16.3704 11.8358H16.6854L16.4306 12.0153L16.5265 12.3099L16.2745 12.1278L16.0197 12.3072L16.1156 12.0153L15.8636 11.8358H16.1759L16.2745 11.5438ZM11.8311 12.2831L11.9297 12.5751H12.2393L11.9927 12.7546L12.0886 13.0465L11.8338 12.8671L11.5818 13.0465L11.6777 12.7519L11.4229 12.5724H11.738L11.8311 12.2831ZM13.609 12.2831L13.7049 12.5751H14.0199L13.7651 12.7546L13.8638 13.0465L13.609 12.8671L13.3542 13.0465L13.4528 12.7519L13.1981 12.5724H13.5104L13.609 12.2831ZM15.3842 12.2831L15.4828 12.5751H15.7951L15.543 12.7546L15.6389 13.0465L15.3842 12.8671L15.1321 13.0465L15.228 12.7519L14.976 12.5724H15.2883L15.3842 12.2831ZM17.1621 12.2831L17.2579 12.5751H17.573L17.3182 12.7546L17.4168 13.0465L17.1621 12.8671L16.9073 13.0465L17.0059 12.7519L16.7511 12.5724H17.0662L17.1621 12.2831Z" fill-rule="evenodd"/>
<g clip-path="url(#clip1_15240_138462)">
<path fill="black" d="M13.5034 14.5292C12.5878 18.2016 8.86833 20.4365 5.19554 19.5208C1.52428 18.6052 -0.71064 14.8855 0.205297 11.2134C1.12043 7.54067 4.83993 5.30558 8.51159 6.22112C12.1841 7.13665 14.4189 10.8568 13.5033 14.5293L13.5033 14.5292H13.5034Z"/>
<g clip-path="url(#clip2_15240_138462)">
<path fill="url(#paint0_linear_15240_138462)" d="M4.15492 14.5249C4.20317 14.4765 4.26953 14.4483 4.3399 14.4483H10.7219C10.8385 14.4483 10.8968 14.5894 10.8144 14.672L9.55368 15.9359C9.50542 15.9843 9.43907 16.0125 9.36869 16.0125H2.98669C2.87007 16.0125 2.81176 15.8714 2.8942 15.7888L4.15492 14.5249Z"/>
<path fill="url(#paint1_linear_15240_138462)" d="M4.15467 9.80609C4.20494 9.75771 4.27129 9.72949 4.33966 9.72949H10.7217C10.8383 9.72949 10.8966 9.87059 10.8141 9.95324L9.55343 11.2171C9.50518 11.2655 9.43882 11.2937 9.36845 11.2937H2.98645C2.86983 11.2937 2.81152 11.1526 2.89396 11.07L4.15467 9.80609Z"/>
<path fill="url(#paint2_linear_15240_138462)" d="M9.55368 12.1504C9.50542 12.102 9.43907 12.0738 9.36869 12.0738H2.98669C2.87007 12.0738 2.81176 12.2149 2.8942 12.2975L4.15492 13.5614C4.20317 13.6098 4.26953 13.638 4.3399 13.638H10.7219C10.8385 13.638 10.8968 13.4969 10.8144 13.4143L9.55368 12.1504Z"/>
</g>
</g>
</g>
<defs>
<linearGradient x1="10.1122" gradientUnits="userSpaceOnUse" x2="5.67804" y1="8.97447" y2="17.4466" xlink:type="simple" xlink:actuate="onLoad" id="paint0_linear_15240_138462" xlink:show="other">
<stop stop-color="#00FFA3"/>
<stop stop-color="#DC1FFF" offset="1"/>
</linearGradient>
<linearGradient x1="8.1807" gradientUnits="userSpaceOnUse" x2="3.74651" y1="7.96368" y2="16.4358" xlink:type="simple" xlink:actuate="onLoad" id="paint1_linear_15240_138462" xlink:show="other">
<stop stop-color="#00FFA3"/>
<stop stop-color="#DC1FFF" offset="1"/>
</linearGradient>
<linearGradient x1="9.14044" gradientUnits="userSpaceOnUse" x2="4.70625" y1="8.46587" y2="16.938" xlink:type="simple" xlink:actuate="onLoad" id="paint2_linear_15240_138462" xlink:show="other">
<stop stop-color="#00FFA3"/>
<stop stop-color="#DC1FFF" offset="1"/>
</linearGradient>
<clipPath id="clip0_15240_138462">
<rect fill="white" width="24" height="24" transform="translate(0 0.916016)"/>
</clipPath>
<clipPath id="clip1_15240_138462">
<rect fill="white" width="13.7085" height="13.71" transform="translate(0 6.01599)"/>
</clipPath>
<clipPath id="clip2_15240_138462">
<rect fill="white" width="7.9966" height="6.28304" transform="translate(2.85596 9.72949)"/>
</clipPath>
</defs>
<metadata symbolName="SOLUSD" fileName="solusd.svg" id="grimlock-metadata-id" lastUpdate="2025-02-10T09:58:22.674305858" symbolId="1451"/></svg>