<?xml version="1.0" encoding="UTF-8" standalone="no"?><svg xmlns="http://www.w3.org/2000/svg" xmlns:xlink="http://www.w3.org/1999/xlink" contentScriptType="text/ecmascript" fill="none" width="24" zoomAndPan="magnify" contentStyleType="text/css" viewBox="0 0 24 25" height="25" preserveAspectRatio="xMidYMid meet" version="1.0">
<g clip-path="url(#clip0_15240_138533)">
<circle fill="#BD3D44" r="6.85714" cx="17.1429" cy="12.8208"/>
<path fill="white" clip-rule="evenodd" d="M13.4485 7.04065C12.994 7.33145 12.576 7.67439 12.2031 8.06102H22.0752C21.7022 7.67439 21.2843 7.33145 20.8298 7.04065H13.4485ZM10.7767 10.2588C10.9318 9.87395 11.1208 9.50643 11.34 9.15992H22.9383C23.1575 9.50643 23.3465 9.87395 23.5016 10.2588H10.7767ZM10.4384 11.3577C10.3718 11.6645 10.3256 11.9789 10.3015 12.2996H23.9768C23.9527 11.9789 23.9065 11.6645 23.8398 11.3577H10.4384ZM10.4509 14.3404C10.377 14.0137 10.3264 13.6782 10.301 13.3357H23.9772C23.9518 13.6782 23.9012 14.0137 23.8273 14.3404H10.4509ZM10.7997 15.4393C10.959 15.8245 11.1524 16.1921 11.3761 16.5383H22.9022C23.1259 16.1921 23.3193 15.8245 23.4786 15.4393H10.7997ZM13.4139 18.5789C12.9949 18.3072 12.6074 17.9911 12.2582 17.6372H22.0201C21.6708 17.9911 21.2833 18.3072 20.8643 18.5789H13.4139ZM17.0789 19.6778C17.0989 19.6779 17.119 19.678 17.1391 19.678C17.1592 19.678 17.1793 19.6779 17.1994 19.6778H17.0789Z" fill-rule="evenodd"/>
<path fill="#00418E" clip-rule="evenodd" d="M10.3053 13.342C10.2923 13.1699 10.2858 12.9961 10.2858 12.8208C10.2858 9.03367 13.3558 5.96362 17.1429 5.96362C17.4256 5.96362 17.7043 5.98073 17.9781 6.01397V13.342H10.3053Z" fill-rule="evenodd"/>
<path fill="white" clip-rule="evenodd" d="M13.7967 6.84474C13.7572 6.86706 13.7179 6.88976 13.6788 6.91283L13.8638 7.04506L13.7967 6.84474ZM13.0801 7.31024C12.9415 7.41305 12.807 7.52096 12.6767 7.6337L12.7214 7.60221L12.9734 7.78167L12.8776 7.48971L13.1323 7.31024H13.0801ZM12.0093 8.29606C11.9783 8.33125 11.9478 8.36676 11.9176 8.40258L12.0831 8.52095L12.0093 8.29606ZM10.798 10.262C10.7784 10.3107 10.7594 10.3596 10.7409 10.4087L10.7874 10.4415L10.6887 10.7361L10.9435 10.554L11.1983 10.7361L11.0997 10.4442L11.3544 10.2647H11.0421L10.9435 9.97274L10.8476 10.262H10.798ZM15.3842 6.27899L15.4828 6.57096H15.7951L15.543 6.75042L15.6389 7.04506L15.3842 6.86292L15.1321 7.04238L15.228 6.75042L14.976 6.57096H15.2883L15.3842 6.27899ZM17.1621 6.27899L17.2579 6.57096H17.573L17.3182 6.75042L17.4168 7.04506L17.1621 6.86292L16.9073 7.04238L17.0059 6.75042L16.7511 6.57096H17.0662L17.1621 6.27899ZM14.4966 7.01828L14.5952 7.31024H14.9075L14.6527 7.48971L14.7513 7.78167L14.4966 7.60221L14.2445 7.78167L14.3404 7.48971L14.0857 7.31024H14.4034L14.4966 7.01828ZM16.2745 7.01828L16.3704 7.31024H16.6854L16.4306 7.48971L16.5265 7.78167L16.2745 7.60221L16.0197 7.78167L16.1156 7.48971L15.8636 7.31024H16.1759L16.2745 7.01828ZM13.609 7.75488L13.7049 8.04953H14.0199L13.7651 8.22899L13.8638 8.52095L13.609 8.33881L13.3542 8.52095L13.4528 8.22631L13.1981 8.04685H13.5104L13.609 7.75488ZM15.3842 7.75488L15.4828 8.04953H15.7951L15.543 8.22899L15.6389 8.52095L15.3842 8.33881L15.1321 8.52095L15.228 8.22631L14.976 8.04685H15.2883L15.3842 7.75488ZM17.1621 7.75488L17.2579 8.04953H17.573L17.3182 8.22899L17.4168 8.52095L17.1621 8.33881L16.9073 8.52095L17.0059 8.22631L16.7511 8.04685H17.0662L17.1621 7.75488ZM12.7214 8.49417L12.8173 8.78613H13.1323L12.8776 8.9656L12.9734 9.26024L12.7214 9.0781L12.4666 9.25756L12.5625 8.9656L12.3105 8.78613H12.6228L12.7214 8.49417ZM14.4966 8.49417L14.5952 8.78613H14.9075L14.6555 8.9656L14.7513 9.26024L14.4966 9.0781L14.2445 9.25756L14.3404 8.9656L14.0857 8.78613H14.4034L14.4966 8.49417ZM16.2745 8.49417L16.3704 8.78613H16.6854L16.4306 8.9656L16.5265 9.26024L16.2745 9.0781L16.0197 9.25756L16.1156 8.9656L15.8636 8.78613H16.1759L16.2745 8.49417ZM11.8311 9.23345L11.9297 9.52542H12.2393L11.9872 9.70488L12.0831 9.99953L11.8284 9.81738L11.5763 9.99685L11.6722 9.70488L11.4174 9.52542H11.7325L11.8311 9.23345ZM13.609 9.23345L13.7049 9.52542H14.0199L13.7651 9.70488L13.8638 9.99953L13.609 9.81738L13.3542 9.99685L13.4528 9.70488L13.1981 9.52542H13.5104L13.609 9.23345ZM15.3842 9.23345L15.4828 9.52542H15.7951L15.543 9.70488L15.6389 9.99953L15.3842 9.81738L15.1321 9.99685L15.228 9.70488L14.976 9.52542H15.2883L15.3842 9.23345ZM17.1621 9.23345L17.2579 9.52542H17.573L17.3182 9.70488L17.4168 9.99953L17.1621 9.81738L16.9073 9.99685L17.0059 9.70488L16.7511 9.52542H17.0662L17.1621 9.23345ZM12.7214 9.97274L12.8173 10.2647H13.1323L12.8776 10.4442L12.9734 10.7361L12.7214 10.554L12.4666 10.7361L12.5625 10.4415L12.3105 10.262H12.6228L12.7214 9.97274ZM14.4966 9.97274L14.5952 10.2647H14.9075L14.6555 10.4442L14.7513 10.7361L14.4966 10.554L14.2445 10.7361L14.3404 10.4415L14.0857 10.262H14.4034L14.4966 9.97274ZM16.2745 9.97274L16.3704 10.2647H16.6854L16.4306 10.4442L16.5265 10.7361L16.2745 10.554L16.0197 10.7361L16.1156 10.4415L15.8636 10.262H16.1759L16.2745 9.97274ZM11.8311 10.7093L11.9297 11.004H12.2393L11.9872 11.1835L12.0831 11.4727L11.8284 11.2933L11.5763 11.4727L11.6722 11.1808L11.4174 11.0013H11.7325L11.8311 10.7093ZM13.609 10.7093L13.7049 11.004H14.0199L13.7651 11.1835L13.8638 11.4727L13.609 11.2933L13.3542 11.4727L13.4528 11.1808L13.1981 11.0013H13.5104L13.609 10.7093ZM15.3842 10.7093L15.4828 11.004H15.7951L15.543 11.1835L15.6389 11.4727L15.3842 11.2933L15.1321 11.4727L15.228 11.1808L14.976 11.0013H15.2883L15.3842 10.7093ZM17.1621 10.7093L17.2579 11.004H17.573L17.3182 11.1835L17.4168 11.4727L17.1621 11.2933L16.9073 11.4727L17.0059 11.1808L16.7511 11.0013H17.0662L17.1621 10.7093ZM10.9435 11.4486L11.0421 11.7406H11.3544L11.0997 11.9201L11.1983 12.2147L10.9435 12.0326L10.6887 12.212L10.7874 11.9201L10.5326 11.7406H10.8476L10.9435 11.4486ZM12.7214 11.4486L12.8173 11.7406H13.1323L12.8776 11.9201L12.9734 12.2147L12.7214 12.0326L12.4666 12.212L12.5625 11.9201L12.3105 11.7406H12.6228L12.7214 11.4486ZM14.4966 11.4486L14.5952 11.7406H14.9075L14.6555 11.9201L14.7513 12.2147L14.4966 12.0326L14.2445 12.212L14.3404 11.9201L14.0857 11.7406H14.4034L14.4966 11.4486ZM16.2745 11.4486L16.3704 11.7406H16.6854L16.4306 11.9201L16.5265 12.2147L16.2745 12.0326L16.0197 12.212L16.1156 11.9201L15.8636 11.7406H16.1759L16.2745 11.4486ZM11.8311 12.1879L11.9297 12.4799H12.2393L11.9927 12.6593L12.0886 12.9513L11.8338 12.7718L11.5818 12.9513L11.6777 12.6567L11.4229 12.4772H11.738L11.8311 12.1879ZM13.609 12.1879L13.7049 12.4799H14.0199L13.7651 12.6593L13.8638 12.9513L13.609 12.7718L13.3542 12.9513L13.4528 12.6567L13.1981 12.4772H13.5104L13.609 12.1879ZM15.3842 12.1879L15.4828 12.4799H15.7951L15.543 12.6593L15.6389 12.9513L15.3842 12.7718L15.1321 12.9513L15.228 12.6567L14.976 12.4772H15.2883L15.3842 12.1879ZM17.1621 12.1879L17.2579 12.4799H17.573L17.3182 12.6593L17.4168 12.9513L17.1621 12.7718L16.9073 12.9513L17.0059 12.6567L16.7511 12.4772H17.0662L17.1621 12.1879Z" fill-rule="evenodd"/>
<rect rx="6.35423" fill="white" x="0.5" width="12.7085" height="12.71" y="6.42078"/>
<rect rx="6.35423" x="0.5" width="12.7085" height="12.71" y="6.42078" stroke="#EEEEEE"/>
<path fill="#0149FF" d="M6.85418 17.387C6.43359 17.387 6.0913 17.0517 6.07992 16.6338L3.90051 15.3754C3.78716 15.4368 3.66489 15.467 3.5438 15.4687L3.53183 15.4688C3.26446 15.4685 3.00452 15.3296 2.86121 15.0814C2.65092 14.7171 2.77009 14.253 3.12626 14.0342L3.12626 11.5173C2.77009 11.2985 2.65092 10.8344 2.86121 10.4702C3.00238 10.2256 3.25672 10.0872 3.51986 10.0828L3.53183 10.0827C3.65682 10.0826 3.78342 10.1127 3.90051 10.1761L6.07992 8.91769C6.0912 8.50407 6.42667 8.17139 6.84137 8.16467L6.85418 8.16456C7.27476 8.16456 7.61705 8.49982 7.62844 8.91769L9.80783 10.1761C9.92118 10.1147 10.0435 10.0845 10.1646 10.0828L10.1765 10.0827C10.4439 10.083 10.7038 10.2219 10.8472 10.4702C11.0574 10.8344 10.9383 11.2986 10.5821 11.5173V14.0342C10.9383 14.253 11.0574 14.7171 10.8472 15.0814C10.706 15.3259 10.4516 15.4643 10.1885 15.4687L10.1765 15.4688C10.0516 15.469 9.92494 15.4388 9.80786 15.3754L7.62844 16.6338C7.61718 17.0474 7.2817 17.3801 6.86699 17.3869L6.85418 17.387ZM6.85418 9.30807L6.86219 9.30799C6.86313 9.30797 6.86406 9.30795 6.865 9.30792L6.86219 9.30799C6.86498 9.30793 6.86777 9.30784 6.87055 9.30772L6.865 9.30792C6.86734 9.30785 6.86968 9.30776 6.872 9.30765L6.87055 9.30772C6.87349 9.30759 6.87642 9.30742 6.87935 9.30723L6.872 9.30765C6.87461 9.30753 6.87721 9.30738 6.8798 9.3072L6.87935 9.30723C6.88204 9.30705 6.88472 9.30683 6.8874 9.3066L6.8798 9.3072C6.88271 9.307 6.88561 9.30676 6.88851 9.3065L6.8874 9.3066C6.89019 9.30635 6.89297 9.30607 6.89575 9.30575L6.88851 9.3065C6.89116 9.30625 6.89381 9.30598 6.89645 9.30568L6.89575 9.30575C6.90411 9.30482 6.9124 9.3036 6.9206 9.3021C6.92147 9.30195 6.92234 9.30179 6.92321 9.30163L6.9206 9.3021C6.92295 9.30168 6.92529 9.30123 6.92763 9.30076L6.92321 9.30163C6.92603 9.30109 6.92883 9.30053 6.93163 9.29993L6.92763 9.30076C6.93011 9.30026 6.93258 9.29973 6.93504 9.29918L6.93163 9.29993C6.9344 9.29934 6.93716 9.29871 6.93991 9.29806L6.93504 9.29918C6.93737 9.29866 6.93969 9.29812 6.94201 9.29755L6.93991 9.29806C6.94221 9.29751 6.9445 9.29694 6.94678 9.29635L6.94201 9.29755C6.94448 9.29695 6.94694 9.29632 6.9494 9.29567L6.94678 9.29635C7.10566 9.25527 7.22302 9.11094 7.22302 8.9392C7.22302 8.73547 7.05788 8.57032 6.85418 8.57032C6.65048 8.57032 6.48535 8.73547 6.48535 8.9392C6.48535 9.11007 6.60151 9.2538 6.75916 9.29572C6.75994 9.29593 6.76073 9.29614 6.76153 9.29634L6.75916 9.29572C6.76167 9.29638 6.76418 9.29702 6.7667 9.29764L6.76153 9.29634C6.76376 9.29692 6.76601 9.29748 6.76826 9.29801L6.7667 9.29764C6.76891 9.29817 6.77112 9.29869 6.77333 9.29918L6.76826 9.29801C6.77114 9.2987 6.77403 9.29935 6.77693 9.29997L6.77333 9.29918C6.77571 9.29972 6.7781 9.30022 6.78049 9.30071L6.77693 9.29997C6.77976 9.30057 6.78261 9.30114 6.78546 9.30168L6.78049 9.30071C6.78291 9.3012 6.78533 9.30167 6.78777 9.30211L6.78546 9.30168C6.7968 9.30381 6.8083 9.30543 6.81993 9.3065L6.82091 9.30659L6.81993 9.3065C6.82278 9.30676 6.82563 9.30699 6.82849 9.30719L6.82091 9.30659C6.82363 9.30684 6.82636 9.30705 6.8291 9.30723L6.82849 9.30719C6.83106 9.30737 6.83363 9.30752 6.83621 9.30764L6.8291 9.30723C6.83202 9.30743 6.83496 9.30759 6.8379 9.30772L6.83621 9.30764C6.83856 9.30776 6.84092 9.30785 6.84329 9.30792L6.8379 9.30772C6.84065 9.30784 6.84341 9.30793 6.84618 9.30799L6.85418 9.30807ZM8.05317 11.8397L9.42528 11.0474L9.42512 11.0468C9.42364 11.041 9.42223 11.0351 9.42089 11.0293C9.42046 11.0274 9.42004 11.0255 9.41963 11.0236C9.41655 11.0096 9.41387 10.9955 9.41158 10.9814C9.4091 10.9661 9.4071 10.9507 9.40555 10.9354C9.40497 10.9296 9.40446 10.9238 9.40401 10.9181C9.40372 10.9144 9.40346 10.9106 9.40323 10.9069C9.40315 10.9056 9.40307 10.9044 9.40299 10.9031C9.40285 10.9006 9.40271 10.8981 9.40259 10.8956C9.40253 10.8942 9.40246 10.8927 9.4024 10.8913C9.40228 10.8886 9.40218 10.8858 9.40209 10.8831C9.40205 10.8819 9.40202 10.8806 9.40198 10.8794C9.40191 10.8769 9.40186 10.8744 9.40181 10.8719C9.4018 10.8712 9.40179 10.8704 9.40178 10.8696L9.40181 10.8719C9.40175 10.8682 9.40171 10.8645 9.40169 10.8608C9.40169 10.8582 9.40169 10.8555 9.40171 10.8529C9.40171 10.8521 9.40172 10.8513 9.40173 10.8505C9.40176 10.8475 9.40181 10.8446 9.40187 10.8416C9.40189 10.8408 9.4019 10.84 9.40192 10.8393C9.40208 10.8326 9.40233 10.826 9.40266 10.8194C9.40276 10.8176 9.40285 10.8157 9.40296 10.8139C9.40308 10.8117 9.40322 10.8095 9.40336 10.8073C9.40342 10.8065 9.40348 10.8056 9.40354 10.8047C9.40372 10.8021 9.40392 10.7995 9.40412 10.7969C9.40434 10.7941 9.40457 10.7914 9.40482 10.7887C9.40494 10.7873 9.40506 10.786 9.40519 10.7846C9.40545 10.7819 9.40572 10.7792 9.40601 10.7765C9.40608 10.7758 9.40616 10.7751 9.40623 10.7745L9.40601 10.7765C9.40636 10.7732 9.40672 10.77 9.40711 10.7667C9.40782 10.7608 9.40859 10.7548 9.40943 10.7489C9.41039 10.7422 9.41144 10.7354 9.41257 10.7287C9.41348 10.7234 9.41444 10.718 9.41546 10.7127C9.41676 10.7059 9.41814 10.6991 9.41962 10.6923C9.42179 10.6824 9.42416 10.6725 9.42672 10.6626C9.427 10.6616 9.42729 10.6605 9.42758 10.6594C9.42802 10.6577 9.42846 10.6561 9.4289 10.6544C9.43062 10.6481 9.43242 10.6418 9.4343 10.6355C9.4347 10.6342 9.4351 10.6328 9.43551 10.6315C9.43726 10.6258 9.43906 10.6201 9.44094 10.6144C9.44147 10.6128 9.44201 10.6111 9.44256 10.6095C9.4432 10.6076 9.44385 10.6057 9.4445 10.6039C9.44513 10.602 9.44578 10.6002 9.44643 10.5983C9.44728 10.5959 9.44814 10.5936 9.44901 10.5912C9.44977 10.5891 9.45054 10.587 9.45132 10.5849C9.45159 10.5842 9.45186 10.5835 9.45213 10.5828C9.45323 10.5799 9.45434 10.577 9.45547 10.5741C9.45569 10.5736 9.45591 10.573 9.45613 10.5724C9.45853 10.5664 9.46099 10.5603 9.46354 10.5544C9.46407 10.5531 9.4646 10.5519 9.46512 10.5506C9.46612 10.5483 9.46713 10.546 9.46814 10.5437C9.46896 10.5419 9.46977 10.5401 9.47059 10.5382C9.47149 10.5362 9.4724 10.5343 9.47331 10.5323C9.47549 10.5276 9.47771 10.5229 9.47999 10.5182C9.48093 10.5162 9.48187 10.5143 9.48283 10.5124L9.4838 10.5104C9.48748 10.5031 9.49128 10.4958 9.49519 10.4885C9.49851 10.4824 9.50191 10.4763 9.5054 10.4702L7.52508 9.32658C7.5245 9.32757 7.52393 9.32856 7.52335 9.32954C7.52235 9.33126 7.52134 9.33297 7.52032 9.33468C7.51934 9.33633 7.51835 9.33798 7.51736 9.33963C7.51168 9.34901 7.50581 9.35826 7.49976 9.36737C7.49649 9.3723 7.49315 9.37719 7.48976 9.38204C7.48892 9.38326 7.48806 9.38448 7.4872 9.38569C7.4857 9.38781 7.48419 9.38993 7.48268 9.39203C7.4819 9.3931 7.48113 9.39417 7.48035 9.39523C7.47916 9.39687 7.47797 9.39849 7.47676 9.40012C7.4709 9.40802 7.46489 9.41582 7.45873 9.4235C7.45782 9.42463 7.45691 9.42576 7.456 9.42688C7.45476 9.42841 7.45352 9.42992 7.45228 9.43143C7.43294 9.45492 7.41223 9.47725 7.39028 9.4983C7.38934 9.4992 7.3884 9.50011 7.38745 9.50101C7.38579 9.50258 7.38413 9.50415 7.38245 9.50571C7.38146 9.50664 7.38046 9.50756 7.37946 9.50848C7.3776 9.5102 7.37573 9.51191 7.37385 9.51361C7.37272 9.51464 7.37159 9.51565 7.37046 9.51667C7.36913 9.51786 7.36779 9.51905 7.36644 9.52024C7.36484 9.52165 7.36324 9.52306 7.36163 9.52445C7.36011 9.52577 7.35859 9.52708 7.35707 9.52838C7.35589 9.52938 7.35472 9.53038 7.35354 9.53138C7.35207 9.53262 7.35061 9.53384 7.34914 9.53507C7.34481 9.53866 7.34045 9.54221 7.33605 9.54572C7.33301 9.54813 7.33012 9.5504 7.32721 9.55264C7.32298 9.55591 7.31871 9.55914 7.3144 9.56233C7.31244 9.56378 7.31047 9.56522 7.30849 9.56666C7.3076 9.5673 7.3067 9.56796 7.30579 9.56861C7.30378 9.57006 7.30176 9.57149 7.29975 9.57291C7.29791 9.5742 7.29607 9.57549 7.29423 9.57676C7.29347 9.57729 7.29271 9.57781 7.29195 9.57833C7.28645 9.58211 7.2809 9.58581 7.2753 9.58945C7.27461 9.5899 7.27392 9.59034 7.27324 9.59078C7.27096 9.59225 7.26866 9.59372 7.26635 9.59517C7.26523 9.59587 7.26411 9.59658 7.26298 9.59728C7.261 9.59852 7.25901 9.59974 7.25702 9.60095C7.25534 9.60198 7.25364 9.60301 7.25194 9.60403C7.25057 9.60485 7.2492 9.60566 7.24783 9.60648C7.24292 9.60938 7.23796 9.61224 7.23297 9.61504C7.22664 9.6186 7.22026 9.62207 7.21382 9.62545C7.20872 9.62813 7.20359 9.63075 7.19842 9.63332C7.19663 9.63421 7.19483 9.63509 7.19303 9.63597C7.1912 9.63686 7.18937 9.63775 7.18753 9.63862C7.1858 9.63945 7.18407 9.64027 7.18234 9.64108C7.18069 9.64185 7.17904 9.64262 7.17738 9.64338C7.17572 9.64414 7.17407 9.6449 7.17241 9.64565C7.17033 9.64658 7.16825 9.64751 7.16616 9.64843C7.16488 9.649 7.16361 9.64955 7.16233 9.65011C7.16046 9.65092 7.15857 9.65173 7.15668 9.65253C7.15458 9.65343 7.15247 9.65431 7.15036 9.65519C7.14469 9.65753 7.13898 9.65982 7.13324 9.66204C7.12867 9.6638 7.12407 9.66553 7.11946 9.66721C7.11584 9.66853 7.11221 9.66982 7.10856 9.67109C7.10779 9.67136 7.10702 9.67163 7.10625 9.67189C7.09995 9.67406 7.09363 9.67614 7.08727 9.67815C7.08467 9.67896 7.08207 9.67977 7.07946 9.68056C7.0782 9.68095 7.07695 9.68132 7.0757 9.68169C7.07309 9.68247 7.07046 9.68324 7.06783 9.68399C7.06716 9.68418 7.0665 9.68437 7.06583 9.68456C7.06465 9.6849 7.06346 9.68523 7.06228 9.68556V11.1774C7.48604 11.2298 7.84996 11.4823 8.05317 11.8397ZM5.72573 11.8712C5.91532 11.5151 6.25818 11.2628 6.65657 11.1893V9.6884L6.65616 9.68829L6.6526 9.68734C6.6433 9.68484 6.63407 9.68217 6.62491 9.67934C6.62218 9.67849 6.61946 9.67763 6.61675 9.67676C6.61067 9.6748 6.60463 9.67278 6.59862 9.67068C6.59768 9.67035 6.59674 9.67002 6.5958 9.66969C6.59309 9.66873 6.59037 9.66775 6.58767 9.66676C6.58592 9.66612 6.58418 9.66547 6.58243 9.66482C6.58077 9.6642 6.57912 9.66357 6.57748 9.66294C6.57594 9.66235 6.57439 9.66176 6.57285 9.66115C6.57032 9.66017 6.56782 9.65917 6.56531 9.65817C6.56426 9.65774 6.5632 9.65732 6.56214 9.65689C6.5599 9.65597 6.55767 9.65505 6.55544 9.65412C6.55401 9.65352 6.55259 9.65292 6.55117 9.65232C6.54891 9.65135 6.54665 9.65038 6.5444 9.6494C6.54308 9.64882 6.54177 9.64824 6.54045 9.64766C6.53848 9.64678 6.53652 9.6459 6.53455 9.64501C6.52938 9.64267 6.52425 9.64027 6.51914 9.63781C6.51229 9.63452 6.50549 9.63113 6.49875 9.62764C6.49689 9.62668 6.49504 9.62571 6.4932 9.62474C6.4919 9.62405 6.4906 9.62336 6.4893 9.62267C6.48768 9.6218 6.48606 9.62092 6.48444 9.62004C6.48248 9.61898 6.48052 9.6179 6.47857 9.61682C6.47678 9.61582 6.47498 9.61481 6.4732 9.6138C6.47215 9.61321 6.47109 9.61261 6.47004 9.612C6.46442 9.60879 6.45886 9.60552 6.45335 9.60217C6.45224 9.6015 6.45112 9.60082 6.45001 9.60014C6.44821 9.59904 6.44642 9.59793 6.44463 9.59681C6.43962 9.59368 6.43465 9.5905 6.42971 9.58726C6.4285 9.58646 6.42729 9.58566 6.42608 9.58486L6.42481 9.58401C6.41558 9.57785 6.40649 9.5715 6.39754 9.56496C6.39598 9.56382 6.39442 9.56267 6.39286 9.56151C6.39148 9.56048 6.3901 9.55945 6.38872 9.55841C6.3873 9.55735 6.38589 9.55627 6.38448 9.5552C6.38261 9.55377 6.38074 9.55233 6.37888 9.55088C6.37787 9.55009 6.37686 9.54931 6.37586 9.54852C6.37377 9.54687 6.37169 9.54522 6.36961 9.54355C6.36883 9.54293 6.36805 9.5423 6.36727 9.54167C6.36529 9.54006 6.36332 9.53845 6.36136 9.53683C6.35981 9.53556 6.35828 9.53428 6.35675 9.533C6.356 9.53236 6.35523 9.53172 6.35447 9.53107C6.35238 9.52931 6.35031 9.52754 6.34826 9.52577C6.34724 9.52488 6.34622 9.524 6.3452 9.52311C6.34363 9.52175 6.34207 9.52038 6.34052 9.519C6.33921 9.51784 6.33792 9.51668 6.33663 9.51552C6.32224 9.5026 6.30834 9.48913 6.29496 9.47517C6.29398 9.47414 6.29301 9.47312 6.29203 9.47209C6.29027 9.47024 6.28854 9.46839 6.2868 9.46653C6.28598 9.46564 6.28516 9.46475 6.28434 9.46385C6.28294 9.46235 6.28156 9.46083 6.28018 9.45931C6.27872 9.45769 6.27725 9.45606 6.2758 9.45443C6.2748 9.45332 6.27381 9.4522 6.27282 9.45107C6.26938 9.44716 6.26598 9.44322 6.26262 9.43925C6.25224 9.42699 6.24223 9.41439 6.23262 9.40148C6.2317 9.40024 6.23078 9.399 6.22987 9.39775C6.22633 9.39296 6.22285 9.38811 6.21942 9.38322C6.21869 9.38216 6.21794 9.38109 6.21719 9.38001C6.21593 9.3782 6.2147 9.3764 6.21347 9.3746C6.21236 9.37296 6.21125 9.37131 6.21014 9.36966C6.20923 9.36831 6.20834 9.36697 6.20745 9.36563C6.2063 9.36387 6.20514 9.3621 6.20399 9.36033C6.20295 9.35874 6.20193 9.35715 6.20091 9.35556C6.20017 9.35439 6.19942 9.3532 6.19867 9.35202C6.1954 9.34684 6.1922 9.34163 6.18905 9.33638C6.18712 9.33312 6.1852 9.32986 6.1833 9.32658L4.20288 10.4701C4.20485 10.4735 4.20671 10.4768 4.20854 10.4801C4.21062 10.4838 4.21266 10.4876 4.21468 10.4913C4.21756 10.4967 4.22038 10.5021 4.22314 10.5076C4.2242 10.5097 4.22526 10.5118 4.22631 10.514C4.2268 10.5149 4.22728 10.5159 4.22775 10.5169L4.22631 10.514C4.22759 10.5165 4.22884 10.5191 4.23009 10.5217C4.23102 10.5237 4.23194 10.5256 4.23286 10.5276C4.2337 10.5294 4.23452 10.5311 4.23534 10.5329C4.23589 10.5341 4.23645 10.5353 4.237 10.5365C4.23797 10.5387 4.23893 10.5408 4.23988 10.543C4.24083 10.5451 4.24177 10.5472 4.24269 10.5494C4.24323 10.5506 4.24377 10.5519 4.24431 10.5531C4.24704 10.5595 4.24968 10.566 4.25223 10.5724C4.25247 10.573 4.25271 10.5737 4.25295 10.5743C4.25373 10.5763 4.25449 10.5782 4.25525 10.5802C4.25741 10.5858 4.2595 10.5915 4.26152 10.5972C4.26223 10.5992 4.26292 10.6011 4.26361 10.6031C4.26415 10.6047 4.26468 10.6062 4.26521 10.6078C4.26606 10.6103 4.2669 10.6128 4.26773 10.6153C4.26838 10.6173 4.26902 10.6193 4.26965 10.6212C4.27001 10.6224 4.27037 10.6235 4.27073 10.6246C4.27149 10.6271 4.27223 10.6295 4.27297 10.6319C4.27328 10.6329 4.27359 10.6339 4.27389 10.6349C4.27583 10.6414 4.27769 10.6479 4.27946 10.6544C4.27991 10.6561 4.28034 10.6577 4.28078 10.6594C4.28251 10.6659 4.28416 10.6725 4.28573 10.6791C4.28771 10.6874 4.28955 10.6958 4.29125 10.7043C4.29182 10.7071 4.29237 10.7099 4.2929 10.7127L4.29125 10.7043C4.29299 10.7129 4.29459 10.7215 4.29604 10.7302C4.29712 10.7367 4.29813 10.7432 4.29905 10.7497C4.29952 10.753 4.29996 10.7563 4.30038 10.7596C4.30091 10.7638 4.30142 10.768 4.30189 10.7722C4.30225 10.7754 4.30259 10.7787 4.30291 10.7819C4.30299 10.7827 4.30307 10.7835 4.30315 10.7844C4.30333 10.7862 4.3035 10.7881 4.30366 10.79C4.30383 10.7919 4.30399 10.7937 4.30414 10.7956C4.30438 10.7986 4.30461 10.8017 4.30482 10.8047C4.3057 10.8174 4.30627 10.8302 4.30652 10.843C4.30656 10.8448 4.30659 10.8466 4.30661 10.8484C4.30664 10.8508 4.30666 10.8531 4.30667 10.8554C4.30667 10.8561 4.30667 10.8567 4.30667 10.8573L4.30666 10.8627C4.30665 10.864 4.30664 10.8652 4.30663 10.8665C4.30653 10.8757 4.30627 10.885 4.30583 10.8943C4.30569 10.8972 4.30554 10.9002 4.30537 10.9031C4.30529 10.9044 4.30521 10.9057 4.30513 10.907C4.30502 10.9088 4.30491 10.9105 4.30479 10.9121C4.30435 10.9185 4.30382 10.9248 4.30322 10.9312C4.30262 10.9375 4.30193 10.9439 4.30117 10.9503C4.30097 10.952 4.30076 10.9537 4.30054 10.9554C4.29964 10.9624 4.29865 10.9695 4.29755 10.9765C4.29442 10.9967 4.29048 11.0168 4.28571 11.0368L4.28511 11.0393L5.72573 11.8712ZM10.3608 11.1769C10.5372 11.0751 10.5976 10.8495 10.4958 10.673C10.3939 10.4966 10.1684 10.4362 9.99195 10.538C9.84618 10.6222 9.7796 10.7909 9.81833 10.9464C9.81851 10.9472 9.8187 10.948 9.8189 10.9488L9.81833 10.9464C9.8196 10.9515 9.82098 10.9566 9.82248 10.9617C9.8229 10.9631 9.82334 10.9646 9.82378 10.966L9.82248 10.9617C9.82404 10.967 9.82572 10.9722 9.82753 10.9775C9.82924 10.9824 9.83106 10.9874 9.83299 10.9923C9.83353 10.9936 9.83409 10.995 9.83466 10.9964L9.83299 10.9923C9.83415 10.9952 9.83536 10.9982 9.8366 11.0011L9.83466 10.9964C9.83563 10.9988 9.83662 11.0012 9.83764 11.0035L9.8366 11.0011C9.83759 11.0034 9.8386 11.0058 9.83964 11.0081L9.83764 11.0035C9.83885 11.0063 9.8401 11.0091 9.84139 11.0119L9.83964 11.0081C9.84082 11.0107 9.84202 11.0133 9.84326 11.0159L9.84139 11.0119C9.84256 11.0144 9.84377 11.017 9.84501 11.0195L9.84326 11.0159C9.8447 11.0189 9.84619 11.0219 9.84772 11.0249L9.84501 11.0195C9.84622 11.022 9.84746 11.0244 9.84873 11.0269L9.84772 11.0249C9.85064 11.0306 9.85371 11.0363 9.85695 11.0419C9.8583 11.0443 9.85967 11.0466 9.86107 11.0489C9.86367 11.0532 9.86636 11.0574 9.86911 11.0616C9.86949 11.0621 9.86986 11.0627 9.87023 11.0632L9.86911 11.0616C9.86999 11.0629 9.87088 11.0642 9.87178 11.0655L9.87023 11.0632C9.87185 11.0657 9.87349 11.068 9.87516 11.0704L9.87178 11.0655C9.87334 11.0678 9.87493 11.0701 9.87654 11.0723L9.87516 11.0704C9.87845 11.0751 9.88183 11.0796 9.88531 11.0841C9.88569 11.0846 9.88608 11.0851 9.88647 11.0856L9.88531 11.0841C9.88672 11.0859 9.88816 11.0877 9.8896 11.0895L9.88647 11.0856C9.88843 11.0881 9.89041 11.0906 9.89242 11.093L9.8896 11.0895C9.89133 11.0917 9.89307 11.0938 9.89484 11.0959L9.89242 11.093C9.89406 11.095 9.89573 11.0969 9.8974 11.0989L9.89484 11.0959C9.90086 11.103 9.90713 11.1099 9.91363 11.1165L9.91921 11.122C10.0345 11.2343 10.2146 11.2614 10.3608 11.1769ZM3.76643 11.1424L3.77142 11.1382C3.77233 11.1374 3.77324 11.1367 3.77415 11.1359L3.77142 11.1382C3.77335 11.1366 3.77525 11.1349 3.77715 11.1332L3.77415 11.1359C3.77913 11.1315 3.784 11.1271 3.78876 11.1224L3.79459 11.1166C3.79701 11.1142 3.79941 11.1117 3.80177 11.1091C3.80306 11.1078 3.80434 11.1064 3.80561 11.105L3.80177 11.1091C3.80349 11.1073 3.80519 11.1054 3.80688 11.1035L3.80561 11.105C3.8074 11.103 3.80918 11.1009 3.81094 11.0989L3.80688 11.1035C3.80903 11.1011 3.81115 11.0987 3.81324 11.0962L3.81094 11.0989C3.81284 11.0967 3.81472 11.0945 3.81657 11.0922L3.81324 11.0962C3.81497 11.0942 3.81667 11.0921 3.81836 11.09L3.81657 11.0922C3.81836 11.09 3.82014 11.0878 3.82189 11.0856L3.81836 11.09C3.81994 11.0881 3.82151 11.0861 3.82306 11.0841L3.82189 11.0856C3.82359 11.0834 3.82526 11.0813 3.82691 11.0791L3.82306 11.0841C3.82494 11.0817 3.82679 11.0792 3.82862 11.0768L3.82691 11.0791C3.82845 11.077 3.82998 11.0749 3.83148 11.0728L3.82862 11.0768C3.83023 11.0746 3.83181 11.0724 3.83338 11.0702L3.83148 11.0728C3.83321 11.0704 3.83491 11.068 3.83659 11.0655L3.83338 11.0702C3.83498 11.0679 3.83657 11.0656 3.83813 11.0632L3.83659 11.0655C3.83748 11.0642 3.83836 11.0629 3.83924 11.0616L3.83813 11.0632C3.8398 11.0608 3.84144 11.0582 3.84306 11.0557L3.83924 11.0616C3.84348 11.0552 3.84754 11.0486 3.85141 11.0419L3.84906 11.0459C3.84985 11.0446 3.85064 11.0433 3.85141 11.0419C3.85352 11.0383 3.85556 11.0346 3.85753 11.0309C3.85824 11.0296 3.85894 11.0282 3.85963 11.0269L3.85753 11.0309C3.85858 11.0289 3.85962 11.0269 3.86064 11.0249L3.85963 11.0269C3.8637 11.019 3.86746 11.0111 3.87093 11.0031C3.87121 11.0024 3.87149 11.0017 3.87177 11.0011L3.87093 11.0031C3.87348 10.9971 3.87587 10.9911 3.8781 10.9851L3.88085 10.9775L3.88107 10.9768C3.88281 10.9717 3.88444 10.9666 3.88596 10.9615C3.88629 10.9603 3.88663 10.9592 3.88695 10.958L3.88596 10.9615C3.88677 10.9587 3.88754 10.956 3.88829 10.9532L3.88695 10.958C3.8877 10.9554 3.88841 10.9528 3.88909 10.9502L3.88829 10.9532C3.88896 10.9507 3.8896 10.9482 3.89022 10.9458L3.88909 10.9502C3.88985 10.9472 3.89057 10.9443 3.89126 10.9414L3.89022 10.9458C3.89089 10.943 3.89154 10.9403 3.89215 10.9375L3.89126 10.9414C3.89188 10.9387 3.89247 10.9361 3.89302 10.9334L3.89215 10.9375C3.89276 10.9348 3.89334 10.932 3.89389 10.9293L3.89302 10.9334C3.92501 10.7815 3.85813 10.6199 3.71641 10.538C3.54 10.4362 3.31442 10.4966 3.21257 10.673C3.11072 10.8495 3.17117 11.0751 3.34758 11.1769C3.48453 11.256 3.6511 11.2373 3.76643 11.1424ZM4.07204 14.1385L4.9507 13.6311C4.80129 13.4472 4.71175 13.2126 4.71175 12.9571C4.71175 12.5727 4.91452 12.2356 5.21894 12.0471L4.08987 11.3951C4.08832 11.3967 4.08677 11.3983 4.08521 11.3999C4.08429 11.4009 4.08337 11.4018 4.08244 11.4027C4.08244 11.4027 4.08174 11.4034 4.08139 11.4038L4.0751 11.41C4.07464 11.4105 4.07418 11.411 4.07371 11.4114C4.07223 11.4129 4.07073 11.4143 4.06923 11.4158C4.06818 11.4168 4.06715 11.4178 4.06611 11.4188C4.06122 11.4234 4.05626 11.428 4.05126 11.4325C4.05059 11.4331 4.04993 11.4337 4.04928 11.4343C4.04807 11.4354 4.04685 11.4365 4.04563 11.4376C4.04376 11.4392 4.04188 11.4409 4.04001 11.4425C4.03911 11.4433 4.03822 11.4441 4.03733 11.4448C4.03553 11.4464 4.03371 11.4479 4.03189 11.4495C4.03064 11.4505 4.0294 11.4516 4.02815 11.4526C4.02633 11.4541 4.02451 11.4556 4.02268 11.4571C4.02189 11.4578 4.0211 11.4584 4.02031 11.459C4.01804 11.4609 4.01577 11.4627 4.01348 11.4645C4.01234 11.4654 4.01121 11.4663 4.01007 11.4672C4.00857 11.4684 4.00705 11.4696 4.00553 11.4707C4.00413 11.4718 4.00272 11.4729 4.00132 11.474C3.99948 11.4754 3.99764 11.4768 3.9958 11.4781C3.99509 11.4787 3.99437 11.4792 3.99365 11.4797C3.99131 11.4815 3.98898 11.4832 3.98664 11.4849C3.98549 11.4857 3.98434 11.4865 3.98318 11.4874C3.9816 11.4885 3.98001 11.4896 3.97842 11.4907C3.97696 11.4918 3.97549 11.4928 3.97402 11.4938C3.97222 11.4951 3.97042 11.4963 3.96862 11.4975C3.96669 11.4988 3.96475 11.5001 3.96281 11.5014C3.96168 11.5022 3.96056 11.5029 3.95944 11.5037C3.95806 11.5046 3.95668 11.5055 3.95529 11.5064C3.95372 11.5074 3.95215 11.5084 3.95057 11.5094C3.94837 11.5109 3.94616 11.5123 3.94394 11.5137C3.94311 11.5142 3.94228 11.5147 3.94145 11.5152C3.93953 11.5164 3.93759 11.5176 3.93566 11.5188C3.93385 11.5199 3.93205 11.521 3.93024 11.522C3.92936 11.5226 3.92849 11.5231 3.92761 11.5236C3.92537 11.5249 3.92312 11.5263 3.92086 11.5276C3.91933 11.5284 3.91781 11.5293 3.91629 11.5302C3.91487 11.531 3.91346 11.5318 3.91203 11.5326C3.91028 11.5336 3.90853 11.5346 3.90677 11.5355C3.90522 11.5364 3.90367 11.5372 3.90211 11.5381C3.9001 11.5392 3.89808 11.5403 3.89606 11.5413C3.89497 11.5419 3.89389 11.5425 3.89281 11.543C3.89033 11.5443 3.88784 11.5456 3.88535 11.5469C3.88432 11.5474 3.8833 11.548 3.88227 11.5485C3.88051 11.5494 3.87876 11.5502 3.87701 11.5511C3.87521 11.552 3.87341 11.5529 3.87161 11.5538C3.87009 11.5545 3.86857 11.5552 3.86704 11.556C3.86521 11.5569 3.86337 11.5577 3.86153 11.5586C3.86005 11.5593 3.85857 11.56 3.85709 11.5607C3.85511 11.5616 3.85311 11.5625 3.85111 11.5634C3.84965 11.564 3.8482 11.5647 3.84675 11.5653C3.84511 11.5661 3.84346 11.5668 3.84182 11.5675C3.84004 11.5683 3.83825 11.569 3.83646 11.5698C3.83453 11.5706 3.83261 11.5714 3.83068 11.5722C3.82937 11.5728 3.82807 11.5733 3.82677 11.5739C3.8245 11.5748 3.82224 11.5757 3.81997 11.5766C3.81851 11.5772 3.81704 11.5778 3.81558 11.5784C3.81385 11.579 3.81214 11.5797 3.81042 11.5804C3.8088 11.581 3.80716 11.5816 3.80551 11.5822C3.80344 11.583 3.80138 11.5838 3.79932 11.5845C3.79806 11.585 3.79678 11.5855 3.79551 11.5859C3.79364 11.5866 3.79176 11.5873 3.78988 11.5879C3.78777 11.5887 3.78566 11.5894 3.78355 11.5901C3.78236 11.5905 3.78116 11.591 3.77996 11.5914C3.77806 11.592 3.77617 11.5926 3.77427 11.5933C3.77168 11.5941 3.76908 11.5949 3.76648 11.5958C3.76566 11.596 3.76484 11.5963 3.76402 11.5965C3.76234 11.5971 3.76067 11.5976 3.75898 11.5981C3.75323 11.5999 3.74745 11.6016 3.74166 11.6032C3.73919 11.6039 3.73672 11.6046 3.73423 11.6052C3.73362 11.6054 3.733 11.6056 3.73239 11.6057C3.72967 11.6065 3.72694 11.6072 3.72422 11.6079C3.72302 11.6082 3.72183 11.6085 3.72064 11.6088C3.71893 11.6092 3.71722 11.6096 3.71551 11.6101C3.71303 11.6107 3.71055 11.6113 3.70807 11.6118L3.70682 11.6121C3.70364 11.6129 3.70046 11.6136 3.69728 11.6143C3.69678 11.6144 3.69628 11.6145 3.69579 11.6146C3.69291 11.6152 3.69003 11.6158 3.68715 11.6164C3.68607 11.6166 3.685 11.6169 3.68394 11.6171C3.68134 11.6176 3.67873 11.6181 3.67612 11.6186C3.67507 11.6188 3.67404 11.619 3.67301 11.6192C3.67065 11.6196 3.66828 11.6201 3.66592 11.6205C3.6598 11.6215 3.65366 11.6226 3.64751 11.6235C3.64665 11.6236 3.64581 11.6237 3.64496 11.6239L3.6427 11.6242C3.64106 11.6244 3.63942 11.6247 3.63778 11.6249C3.63616 11.6251 3.63454 11.6253 3.63292 11.6256C3.63165 11.6257 3.63037 11.6259 3.62909 11.626C3.62289 11.6268 3.61669 11.6276 3.61047 11.6282C3.60913 11.6283 3.60779 11.6285 3.60644 11.6286C3.60388 11.6288 3.60132 11.6291 3.59875 11.6293L3.59743 11.6294C3.59441 11.6297 3.59139 11.6299 3.58837 11.6301C3.58694 11.6302 3.58549 11.6303 3.58404 11.6304C3.57706 11.6309 3.57009 11.6313 3.5631 11.6316C3.55857 11.6318 3.55404 11.6319 3.5495 11.632C3.54771 11.6321 3.54592 11.6321 3.54412 11.6321L3.53216 11.6322L3.53199 13.9193C3.55247 13.9193 3.57307 13.9201 3.59341 13.9218C3.62757 13.9245 3.66148 13.9295 3.69489 13.9367C3.71555 13.9412 3.73604 13.9465 3.75628 13.9526C3.76014 13.9538 3.76398 13.955 3.76781 13.9562C3.77786 13.9594 3.78784 13.9628 3.79774 13.9664C3.81506 13.9727 3.83216 13.9797 3.84902 13.9872C3.86149 13.9928 3.87381 13.9987 3.88598 14.0049C3.89009 14.007 3.89417 14.0092 3.89823 14.0114C3.90242 14.0136 3.90659 14.0159 3.91074 14.0182C3.9127 14.0193 3.91466 14.0204 3.91662 14.0215C3.92218 14.0247 3.9277 14.0279 3.93318 14.0313C3.9378 14.034 3.94239 14.0369 3.94695 14.0398C3.95693 14.0461 3.96677 14.0526 3.97647 14.0594C3.97955 14.0616 3.98262 14.0638 3.98569 14.066C3.98877 14.0682 3.99183 14.0704 3.99488 14.0727C4.01009 14.084 4.02493 14.096 4.03937 14.1085C4.0505 14.1181 4.0614 14.1281 4.07204 14.1385ZM9.64237 14.1327C9.64344 14.1316 9.64451 14.1306 9.64559 14.1296C9.65278 14.1228 9.66009 14.1162 9.66751 14.1098C9.66911 14.1084 9.67072 14.107 9.67233 14.1056C9.67364 14.1045 9.67496 14.1033 9.67628 14.1022C9.68086 14.0984 9.68546 14.0946 9.6901 14.0908C9.69137 14.0898 9.69263 14.0888 9.69388 14.0878C9.69606 14.0861 9.69827 14.0843 9.70048 14.0826C9.70088 14.0823 9.70127 14.082 9.70167 14.0817C9.7037 14.0801 9.70575 14.0785 9.7078 14.077C9.70926 14.0759 9.71072 14.0748 9.71219 14.0737C9.71363 14.0726 9.71508 14.0715 9.71653 14.0705C9.71781 14.0695 9.71908 14.0686 9.72036 14.0677C9.72263 14.066 9.72492 14.0644 9.72722 14.0627C9.72796 14.0622 9.7287 14.0617 9.72944 14.0611C9.73107 14.06 9.73271 14.0589 9.73434 14.0577C9.73628 14.0564 9.73822 14.055 9.74017 14.0537C9.7411 14.0531 9.74204 14.0524 9.74298 14.0518C9.74493 14.0505 9.74689 14.0492 9.74885 14.0479C9.75047 14.0468 9.75208 14.0458 9.7537 14.0447C9.75541 14.0436 9.75713 14.0425 9.75885 14.0414C9.75972 14.0408 9.76061 14.0403 9.76149 14.0397C9.76366 14.0383 9.76582 14.037 9.76799 14.0356C9.76993 14.0344 9.77189 14.0332 9.77385 14.0321C9.77432 14.0318 9.77478 14.0315 9.77524 14.0312C9.77777 14.0297 9.78033 14.0282 9.7829 14.0266C9.78422 14.0259 9.78555 14.0251 9.78688 14.0243C9.78846 14.0234 9.79004 14.0225 9.79163 14.0216C9.79316 14.0207 9.7947 14.0198 9.79623 14.019C9.79841 14.0178 9.80059 14.0165 9.80277 14.0153C9.80386 14.0147 9.80496 14.0141 9.80606 14.0136C9.80771 14.0127 9.80936 14.0118 9.81101 14.0109C9.81273 14.01 9.81447 14.009 9.81621 14.0081C9.81827 14.0071 9.82034 14.006 9.82241 14.0049C9.82338 14.0044 9.82434 14.0039 9.8253 14.0034C9.82742 14.0024 9.82954 14.0013 9.83167 14.0003C9.83326 13.9995 9.83484 13.9987 9.83642 13.9979C9.83832 13.997 9.84023 13.9961 9.84215 13.9952C9.84307 13.9947 9.844 13.9943 9.84493 13.9938C9.84757 13.9926 9.8502 13.9914 9.85285 13.9901C9.85386 13.9897 9.85488 13.9892 9.8559 13.9888C9.8577 13.9879 9.8595 13.9871 9.86131 13.9863C9.86297 13.9856 9.86462 13.9849 9.86627 13.9841C9.87153 13.9819 9.87681 13.9796 9.88212 13.9774C9.8842 13.9766 9.88629 13.9757 9.88838 13.9749C9.88949 13.9745 9.89059 13.974 9.8917 13.9736C9.89734 13.9714 9.90299 13.9692 9.90868 13.9671C9.9105 13.9665 9.91232 13.9658 9.91415 13.9651C9.91561 13.9646 9.91708 13.9641 9.91855 13.9636C9.92018 13.963 9.92181 13.9624 9.92345 13.9619C9.92562 13.9611 9.92778 13.9604 9.92994 13.9596C9.93137 13.9592 9.9328 13.9587 9.93424 13.9582C9.93625 13.9576 9.93828 13.9569 9.94031 13.9563C9.94176 13.9558 9.9432 13.9553 9.94465 13.9549C9.94725 13.9541 9.94988 13.9533 9.9525 13.9525C9.95317 13.9523 9.95383 13.9521 9.95449 13.9519C9.95713 13.9511 9.95976 13.9503 9.9624 13.9496C9.96362 13.9492 9.96484 13.9489 9.96607 13.9485C9.96804 13.9479 9.97003 13.9474 9.97201 13.9469C9.9738 13.9464 9.9756 13.9459 9.97739 13.9454C9.97963 13.9448 9.98187 13.9442 9.98411 13.9437C9.98511 13.9434 9.98612 13.9431 9.98713 13.9429C9.99316 13.9414 9.9992 13.9399 10.0053 13.9385C10.0068 13.9382 10.0083 13.9379 10.0098 13.9375C10.0116 13.9371 10.0133 13.9368 10.0151 13.9364C10.0171 13.936 10.019 13.9355 10.021 13.9351C10.0231 13.9347 10.0253 13.9343 10.0274 13.9339C10.0285 13.9336 10.0295 13.9334 10.0306 13.9332C10.0339 13.9326 10.0372 13.932 10.0405 13.9314L10.0414 13.9312C10.0436 13.9308 10.0458 13.9305 10.048 13.9301C10.0501 13.9298 10.0521 13.9294 10.0541 13.9291C10.0553 13.9289 10.0564 13.9287 10.0576 13.9285C10.0599 13.9282 10.0622 13.9278 10.0645 13.9275C10.0669 13.9272 10.0692 13.9268 10.0716 13.9265C10.0728 13.9263 10.0739 13.9262 10.0751 13.926C10.0781 13.9256 10.0811 13.9252 10.0841 13.9249C10.0848 13.9248 10.0854 13.9247 10.0861 13.9246C10.0885 13.9244 10.0909 13.9241 10.0933 13.9238C10.0947 13.9237 10.0962 13.9235 10.0977 13.9234C10.0992 13.9232 10.1008 13.923 10.1023 13.9229C10.1046 13.9227 10.107 13.9225 10.1093 13.9222C10.1114 13.9221 10.1134 13.9219 10.1154 13.9217C10.1167 13.9216 10.118 13.9215 10.1192 13.9214L10.1208 13.9213C10.1262 13.9209 10.1316 13.9206 10.137 13.9203C10.1451 13.9199 10.1533 13.9196 10.1614 13.9194C10.1664 13.9193 10.1714 13.9193 10.1764 13.9193V11.6322C10.1602 11.6322 10.144 11.6317 10.1279 11.6307C10.1236 11.6304 10.1193 11.6301 10.115 11.6298C10.1035 11.6288 10.0921 11.6277 10.0808 11.6262C10.044 11.6216 10.0076 11.6144 9.97196 11.6047C9.96262 11.6021 9.95332 11.5994 9.94406 11.5965C9.93587 11.5939 9.9277 11.5912 9.91959 11.5883C9.91702 11.5874 9.91445 11.5865 9.91189 11.5856C9.90744 11.584 9.90299 11.5823 9.89857 11.5806C9.89236 11.5782 9.88619 11.5758 9.88004 11.5732C9.87659 11.5718 9.87314 11.5703 9.8697 11.5689C9.8523 11.5614 9.83515 11.5532 9.81829 11.5445C9.81027 11.5403 9.80232 11.536 9.79444 11.5315C9.78957 11.5288 9.78478 11.526 9.78003 11.5232C9.7669 11.5154 9.75397 11.5072 9.74128 11.4986C9.73883 11.4969 9.73639 11.4952 9.73396 11.4935C9.73092 11.4914 9.72788 11.4893 9.72487 11.4871C9.71835 11.4825 9.71191 11.4777 9.70553 11.4728C9.69912 11.4679 9.69278 11.4629 9.68651 11.4578C9.6806 11.453 9.67476 11.4481 9.66899 11.4431C9.66532 11.4399 9.66168 11.4367 9.65807 11.4334C9.6465 11.423 9.63525 11.4122 9.62429 11.4011L8.22655 12.2081C8.67156 12.2641 9.01689 12.6404 9.02432 13.0988L9.02444 13.1139C9.02444 13.3222 8.9547 13.5142 8.83728 13.6678L9.64237 14.1327ZM6.80647 13.6211H8.11158C8.39167 13.6211 8.61873 13.394 8.61873 13.1139C8.61873 12.8338 8.39167 12.6067 8.11157 12.6067L7.83216 12.6067L7.81715 12.4201C7.77882 11.9434 7.3794 11.5731 6.89808 11.5731C6.51359 11.5731 6.1736 11.8106 6.03747 12.1633L5.98736 12.2932L5.78136 12.2932C5.4147 12.2932 5.11746 12.5904 5.11746 12.9571C5.11746 13.3239 5.4147 13.6211 5.78136 13.6211H6.77297C6.77748 13.6211 6.78188 13.6211 6.78618 13.621L6.79054 13.6209L6.80068 13.6211L6.80647 13.6211ZM6.1833 16.2249L6.18629 16.2198C6.18683 16.2189 6.18736 16.218 6.1879 16.2171C6.18891 16.2154 6.18992 16.2137 6.19093 16.212C6.19178 16.2106 6.19263 16.2092 6.19348 16.2078L6.19441 16.2063C6.2023 16.1935 6.21055 16.181 6.21914 16.1687C6.22229 16.1642 6.2255 16.1597 6.22874 16.1553C6.22983 16.1538 6.23092 16.1523 6.23202 16.1508C6.23299 16.1495 6.23395 16.1483 6.23492 16.147C6.23634 16.1451 6.23777 16.1432 6.23922 16.1413C6.24007 16.1402 6.24094 16.1391 6.2418 16.138C6.24317 16.1362 6.24454 16.1344 6.24592 16.1327C6.24691 16.1314 6.24791 16.1302 6.24891 16.1289C6.25017 16.1274 6.25143 16.1258 6.2527 16.1242C6.2535 16.1232 6.25428 16.1223 6.25506 16.1213L6.25729 16.1186C6.25766 16.1182 6.25803 16.1177 6.2584 16.1173C6.26009 16.1153 6.26178 16.1133 6.26348 16.1113C6.26489 16.1096 6.26632 16.1079 6.26774 16.1063C6.27497 16.0979 6.28237 16.0897 6.28994 16.0816C6.29629 16.0749 6.30277 16.0682 6.30937 16.0617C6.31086 16.0602 6.31237 16.0588 6.31388 16.0573C6.31492 16.0563 6.31597 16.0553 6.31701 16.0542C6.31851 16.0528 6.32002 16.0514 6.32153 16.0499C6.32283 16.0487 6.32414 16.0475 6.32544 16.0463C6.32683 16.045 6.32823 16.0437 6.32963 16.0424C6.33116 16.041 6.33269 16.0396 6.33424 16.0382C6.33535 16.0371 6.33646 16.0361 6.33757 16.0352C6.3417 16.0315 6.34589 16.0278 6.35013 16.0241C6.35314 16.0216 6.35617 16.019 6.35923 16.0165C6.36936 16.008 6.37972 15.9998 6.39029 15.9919C6.39162 15.9909 6.39294 15.9899 6.39427 15.989C6.39589 15.9878 6.39752 15.9866 6.39915 15.9854C6.40069 15.9843 6.40223 15.9832 6.40378 15.982C6.40533 15.9809 6.40688 15.9798 6.40843 15.9787C6.41018 15.9775 6.41194 15.9763 6.4137 15.9751C6.41498 15.9742 6.41625 15.9733 6.41754 15.9724C6.41893 15.9715 6.42032 15.9705 6.42172 15.9696C6.42388 15.9681 6.42604 15.9667 6.4282 15.9653C6.42918 15.9646 6.43017 15.964 6.43116 15.9633C6.43322 15.962 6.43529 15.9606 6.43736 15.9593C6.43852 15.9586 6.43967 15.9578 6.44083 15.9571C6.44262 15.956 6.44442 15.9548 6.44622 15.9537C6.44787 15.9527 6.44952 15.9517 6.45117 15.9507C6.45293 15.9496 6.45468 15.9485 6.45644 15.9475C6.45779 15.9467 6.45915 15.9459 6.46051 15.9451C6.46258 15.9438 6.46464 15.9426 6.46672 15.9414C6.46794 15.9407 6.46917 15.94 6.4704 15.9393C6.47956 15.9341 6.48884 15.929 6.49824 15.9242C6.50106 15.9227 6.50391 15.9212 6.50676 15.9198C6.50796 15.9192 6.50918 15.9186 6.5104 15.918C6.512 15.9172 6.51359 15.9164 6.51518 15.9156C6.51714 15.9147 6.51912 15.9137 6.5211 15.9128C6.52242 15.9121 6.52374 15.9115 6.52506 15.9109C6.52692 15.91 6.52879 15.9092 6.53067 15.9083C6.53245 15.9075 6.53422 15.9067 6.536 15.9059C6.53828 15.9048 6.54057 15.9038 6.54286 15.9028C6.5438 15.9024 6.54475 15.902 6.5457 15.9016C6.54782 15.9006 6.54995 15.8997 6.55207 15.8988C6.55385 15.8981 6.55565 15.8973 6.55744 15.8966C6.55952 15.8957 6.56159 15.8949 6.56366 15.894C6.56479 15.8936 6.56593 15.8931 6.56707 15.8927C6.57001 15.8915 6.57296 15.8903 6.57591 15.8892C6.57667 15.8889 6.57742 15.8886 6.57816 15.8883C6.58366 15.8862 6.58921 15.8842 6.59479 15.8822C6.59821 15.881 6.60163 15.8798 6.60507 15.8786C6.6071 15.8779 6.60914 15.8773 6.61118 15.8766C6.61191 15.8763 6.61264 15.8761 6.61338 15.8759C6.61646 15.8748 6.61956 15.8739 6.62266 15.8729C6.62365 15.8726 6.62464 15.8723 6.62564 15.872C6.62779 15.8713 6.62995 15.8706 6.63211 15.87C6.6344 15.8693 6.63669 15.8686 6.639 15.868C6.64079 15.8675 6.64258 15.8669 6.64438 15.8664C6.64589 15.866 6.6474 15.8656 6.64892 15.8652C6.65084 15.8647 6.65277 15.8641 6.65471 15.8636C6.65533 15.8635 6.65595 15.8633 6.65658 15.8631V14.0269L5.78136 14.0269C5.60281 14.0269 5.43449 13.9831 5.28651 13.9058L4.27874 14.4877L4.27937 14.4899C4.27959 14.4907 4.2798 14.4915 4.28001 14.4923C4.28168 14.4985 4.28327 14.5046 4.28478 14.5108C4.29048 14.5342 4.29506 14.5578 4.29852 14.5814C4.29936 14.5871 4.30013 14.5929 4.30084 14.5986C4.30105 14.6003 4.30125 14.6019 4.30145 14.6036L4.30084 14.5986C4.30221 14.6097 4.30334 14.6208 4.30423 14.6318C4.30442 14.6343 4.30461 14.6368 4.30478 14.6392C4.3049 14.641 4.30502 14.6428 4.30514 14.6446C4.30524 14.6463 4.30535 14.648 4.30544 14.6498C4.30576 14.6554 4.30601 14.6609 4.30621 14.6665C4.30644 14.6731 4.30658 14.6797 4.30664 14.6862C4.30666 14.689 4.30667 14.6918 4.30667 14.6946C4.30667 14.6976 4.30665 14.7006 4.30661 14.7036C4.30658 14.7054 4.30655 14.7072 4.30651 14.709C4.30621 14.7238 4.3055 14.7384 4.30436 14.7531C4.30429 14.7541 4.30421 14.7551 4.30413 14.7561C4.30396 14.7581 4.30379 14.7601 4.30361 14.7621C4.30345 14.764 4.30327 14.7659 4.30309 14.7678C4.30286 14.7702 4.30261 14.7726 4.30235 14.775C4.30214 14.777 4.30193 14.779 4.3017 14.781C4.301 14.7871 4.30024 14.7932 4.2994 14.7993C4.29876 14.8039 4.29808 14.8085 4.29736 14.8131C4.29617 14.8207 4.29488 14.8283 4.29347 14.8359C4.29302 14.8383 4.29256 14.8407 4.29209 14.8431C4.29103 14.8484 4.28992 14.8538 4.28875 14.8592C4.28733 14.8656 4.28584 14.8721 4.28427 14.8785C4.28307 14.8834 4.28183 14.8882 4.28053 14.8931C4.28003 14.895 4.27951 14.8969 4.27899 14.8988C4.27646 14.9081 4.27375 14.9173 4.27088 14.9264C4.26886 14.9329 4.26674 14.9393 4.26454 14.9457C4.26426 14.9465 4.26398 14.9473 4.26369 14.9482C4.26271 14.951 4.26171 14.9538 4.26068 14.9567C4.25879 14.9619 4.25684 14.9672 4.25483 14.9724C4.25419 14.9741 4.25354 14.9758 4.25288 14.9774C4.25224 14.9791 4.25159 14.9807 4.25093 14.9824C4.24888 14.9875 4.24677 14.9926 4.2446 14.9977C4.2438 14.9996 4.24299 15.0015 4.24217 15.0034C4.24128 15.0054 4.24038 15.0074 4.23948 15.0095C4.23866 15.0113 4.23784 15.0132 4.237 15.015C4.23643 15.0162 4.23586 15.0175 4.23529 15.0187C4.23449 15.0205 4.23368 15.0222 4.23287 15.0239C4.23029 15.0294 4.22765 15.0349 4.22494 15.0403C4.22182 15.0466 4.21861 15.0528 4.21531 15.059C4.21133 15.0665 4.20721 15.0739 4.20297 15.0813L6.1833 16.2249ZM7.52507 16.2249L9.50548 15.0814C9.50295 15.077 9.50054 15.0728 9.49817 15.0685C9.49489 15.0625 9.49168 15.0565 9.48855 15.0504C9.48615 15.0458 9.4838 15.0411 9.4815 15.0364C9.47859 15.0305 9.47575 15.0245 9.47298 15.0185C9.47257 15.0176 9.47215 15.0167 9.47174 15.0158C9.46896 15.0097 9.46626 15.0036 9.46364 14.9974C9.46152 14.9924 9.45945 14.9874 9.45743 14.9824C9.45677 14.9807 9.45612 14.9791 9.45548 14.9774C9.45347 14.9723 9.45152 14.9672 9.44962 14.962C9.44763 14.9566 9.44569 14.9512 9.44382 14.9457C9.44284 14.9428 9.44188 14.94 9.44094 14.9371C9.44043 14.9356 9.43991 14.934 9.43941 14.9324C9.43917 14.9317 9.43894 14.931 9.43871 14.9303L9.43941 14.9324C9.43814 14.9285 9.43691 14.9246 9.43571 14.9207C9.4329 14.9115 9.43025 14.9022 9.42778 14.8929L9.42749 14.8918C9.42561 14.8847 9.42383 14.8775 9.42215 14.8704C9.42003 14.8613 9.41807 14.8522 9.41628 14.8431C9.41581 14.8407 9.41535 14.8383 9.4149 14.8359C9.41349 14.8283 9.41219 14.8207 9.411 14.8131C9.40953 14.8037 9.40823 14.7943 9.40711 14.7848C9.40644 14.7792 9.40582 14.7735 9.40527 14.7678C9.40521 14.7671 9.40515 14.7665 9.40509 14.7658L9.40527 14.7678C9.40489 14.7638 9.40454 14.7598 9.40421 14.7558C9.40414 14.7549 9.40407 14.754 9.404 14.7531C9.40377 14.7501 9.40355 14.7471 9.40336 14.7441C9.40323 14.7422 9.40311 14.7402 9.403 14.7383C9.4029 14.7366 9.4028 14.7349 9.40272 14.7331C9.40238 14.7266 9.40213 14.7201 9.40196 14.7136C9.40192 14.7124 9.40189 14.7111 9.40187 14.7098C9.40182 14.7077 9.40179 14.7057 9.40176 14.7036C9.40174 14.702 9.40172 14.7003 9.40171 14.6987C9.40169 14.696 9.40169 14.6934 9.4017 14.6907C9.4017 14.6887 9.40172 14.6866 9.40174 14.6846C9.40175 14.6834 9.40177 14.6823 9.40179 14.6811C9.40183 14.6782 9.40189 14.6753 9.40197 14.6724C9.402 14.6713 9.40204 14.6701 9.40208 14.6689C9.40215 14.6666 9.40223 14.6643 9.40232 14.6621C9.4024 14.6601 9.40249 14.658 9.40259 14.656C9.40266 14.6545 9.40274 14.653 9.40282 14.6515C9.40295 14.6492 9.40308 14.6469 9.40323 14.6446C9.40339 14.642 9.40357 14.6394 9.40376 14.6368C9.40384 14.6358 9.40392 14.6347 9.404 14.6336C9.40443 14.6281 9.40491 14.6226 9.40546 14.6171C9.40686 14.603 9.40866 14.5888 9.41085 14.5747C9.41329 14.5591 9.41621 14.5435 9.41963 14.5279C9.41981 14.5271 9.41999 14.5263 9.42017 14.5255C9.42169 14.5187 9.42331 14.5119 9.42502 14.5051C9.42561 14.5027 9.4262 14.5004 9.42681 14.4981C9.42728 14.4963 9.42777 14.4945 9.42826 14.4927C9.42881 14.4906 9.42937 14.4886 9.42993 14.4865C9.4304 14.4849 9.43088 14.4832 9.43136 14.4815C9.43154 14.4809 9.43171 14.4803 9.43188 14.4797L8.4988 13.9409C8.38124 13.9961 8.25001 14.0269 8.11158 14.0269L7.06227 14.0269V15.866C7.06334 15.8663 7.06442 15.8666 7.06549 15.8669C7.06686 15.8673 7.06823 15.8676 7.0696 15.868C7.07699 15.8702 7.08433 15.8724 7.09162 15.8748C7.09769 15.8767 7.10372 15.8787 7.10972 15.8808C7.11081 15.8812 7.11189 15.8816 7.11297 15.882C7.11557 15.8829 7.11816 15.8838 7.12074 15.8848C7.12211 15.8853 7.12347 15.8858 7.12484 15.8863C7.12712 15.8871 7.1294 15.888 7.13167 15.8889C7.13282 15.8893 7.13397 15.8898 7.13511 15.8902C7.13777 15.8912 7.14041 15.8923 7.14305 15.8934C7.14417 15.8938 7.1453 15.8943 7.14643 15.8947C7.14861 15.8956 7.15078 15.8965 7.15294 15.8974C7.15438 15.898 7.15583 15.8986 7.15727 15.8992C7.15974 15.9003 7.1622 15.9014 7.16466 15.9024C7.1657 15.9029 7.16674 15.9033 7.16777 15.9038C7.17013 15.9048 7.17249 15.9059 7.17484 15.907C7.17606 15.9075 7.17726 15.9081 7.17847 15.9086C7.18874 15.9134 7.1989 15.9184 7.20894 15.9235C7.21103 15.9246 7.21312 15.9257 7.21521 15.9268C7.21655 15.9275 7.21788 15.9282 7.21921 15.9289C7.22112 15.93 7.22304 15.931 7.22494 15.932C7.22652 15.9329 7.2281 15.9338 7.22968 15.9346C7.23098 15.9354 7.23228 15.9361 7.23359 15.9368C7.23584 15.9381 7.23809 15.9394 7.24032 15.9407C7.24157 15.9414 7.24282 15.9421 7.24406 15.9428C7.24556 15.9437 7.24706 15.9446 7.24856 15.9455C7.25072 15.9468 7.25287 15.9481 7.25502 15.9494C7.25613 15.95 7.25724 15.9507 7.25835 15.9514C7.2602 15.9525 7.26204 15.9537 7.26387 15.9548C7.26557 15.9559 7.26727 15.9569 7.26896 15.958C7.27056 15.959 7.27216 15.96 7.27376 15.9611C7.27541 15.9621 7.27704 15.9632 7.27867 15.9643C7.28011 15.9652 7.28154 15.9662 7.28297 15.9671C7.28482 15.9684 7.28666 15.9696 7.28849 15.9708C7.29501 15.9753 7.30146 15.9798 7.30784 15.9844C7.30884 15.9851 7.30983 15.9858 7.31082 15.9866C7.31171 15.9872 7.31259 15.9879 7.31348 15.9885C7.31863 15.9923 7.32373 15.9962 7.32879 16.0001C7.33024 16.0012 7.33169 16.0024 7.33314 16.0035C7.33486 16.0049 7.33657 16.0062 7.33828 16.0076C7.33963 16.0087 7.34098 16.0098 7.34233 16.0109C7.34343 16.0118 7.34452 16.0126 7.3456 16.0135C7.35017 16.0173 7.3547 16.0211 7.35918 16.025C7.36686 16.0316 7.3744 16.0383 7.3818 16.0452C7.38718 16.0502 7.39249 16.0553 7.39772 16.0605C7.3989 16.0616 7.40007 16.0628 7.40123 16.0639C7.40211 16.0648 7.403 16.0657 7.40389 16.0666C7.4109 16.0737 7.41777 16.0809 7.4245 16.0882C7.42831 16.0923 7.43207 16.0965 7.43578 16.1007C7.43712 16.1022 7.43845 16.1038 7.43978 16.1053C7.44326 16.1093 7.4467 16.1134 7.4501 16.1175C7.45741 16.1263 7.46454 16.1352 7.47146 16.1443C7.47506 16.1491 7.4786 16.1539 7.48208 16.1587C7.48537 16.1632 7.4886 16.1678 7.49179 16.1724C7.49307 16.1743 7.49436 16.1761 7.49563 16.178C7.49631 16.179 7.49698 16.18 7.49765 16.181C7.49889 16.1828 7.50012 16.1847 7.50135 16.1866C7.50227 16.188 7.50319 16.1894 7.5041 16.1908C7.50513 16.1924 7.50617 16.194 7.5072 16.1956C7.51337 16.2052 7.51932 16.215 7.52507 16.2249ZM3.71641 15.0135C3.85399 14.9341 3.92104 14.7794 3.89557 14.6314C3.89496 14.6277 3.89426 14.624 3.89351 14.6203C3.89306 14.6182 3.89261 14.6161 3.89214 14.614C3.89188 14.6128 3.89161 14.6116 3.89134 14.6104L3.89214 14.614C3.89155 14.6114 3.89094 14.6088 3.8903 14.6062L3.89134 14.6104C3.89061 14.6073 3.88984 14.6042 3.88903 14.6011L3.8903 14.6062C3.88972 14.6038 3.8891 14.6014 3.88847 14.599L3.88903 14.6011C3.88834 14.5985 3.88763 14.5959 3.88689 14.5933L3.88847 14.599C3.8877 14.5961 3.88689 14.5932 3.88604 14.5904L3.88689 14.5933C3.88535 14.5879 3.88369 14.5825 3.8819 14.5772C3.88166 14.5764 3.88142 14.5757 3.88117 14.575L3.8819 14.5772C3.87981 14.5709 3.87755 14.5648 3.87512 14.5586C3.8748 14.5578 3.87447 14.557 3.87414 14.5562L3.87512 14.5586C3.87413 14.5561 3.87312 14.5536 3.87207 14.5512L3.87414 14.5562C3.87307 14.5535 3.87197 14.5509 3.87084 14.5483L3.87207 14.5512C3.86865 14.543 3.86492 14.535 3.86088 14.5271C3.86047 14.5263 3.86005 14.5254 3.85963 14.5246L3.86088 14.5271C3.85979 14.5249 3.85867 14.5228 3.85753 14.5206L3.85963 14.5246C3.85791 14.5213 3.85614 14.518 3.85431 14.5147L3.85141 14.5096C3.84861 14.5048 3.84571 14.5 3.84272 14.4953C3.84235 14.4947 3.84197 14.4941 3.84159 14.4935L3.84272 14.4953C3.84119 14.4929 3.83963 14.4905 3.83805 14.4882L3.84159 14.4935C3.84004 14.4911 3.83846 14.4888 3.83687 14.4864L3.83805 14.4882C3.83652 14.4859 3.83497 14.4836 3.8334 14.4814L3.83687 14.4864C3.83521 14.484 3.83354 14.4816 3.83183 14.4792L3.8334 14.4814C3.83187 14.4792 3.83033 14.4771 3.82876 14.475L3.83183 14.4792C3.83017 14.4769 3.82848 14.4746 3.82677 14.4723L3.82876 14.475C3.82706 14.4726 3.82534 14.4704 3.8236 14.4681L3.82677 14.4723C3.82512 14.4701 3.82345 14.4679 3.82176 14.4657L3.8236 14.4681C3.81873 14.4618 3.81367 14.4557 3.80844 14.4498C3.80626 14.4473 3.80403 14.4448 3.80178 14.4424C3.80042 14.4409 3.79907 14.4395 3.7977 14.4381C3.7958 14.4361 3.79388 14.4342 3.79195 14.4322C3.78902 14.4293 3.78604 14.4264 3.78302 14.4236C3.78231 14.423 3.78162 14.4224 3.78093 14.4217L3.78302 14.4236C3.78112 14.4219 3.7792 14.4201 3.77727 14.4184L3.78093 14.4217C3.6654 14.316 3.49038 14.2921 3.34758 14.3746C3.17117 14.4765 3.11072 14.7021 3.21257 14.8785C3.31442 15.0549 3.54 15.1154 3.71641 15.0135ZM10.4958 14.8785C10.5976 14.7021 10.5372 14.4765 10.3608 14.3746C10.2109 14.2881 10.0256 14.3186 9.9108 14.4379C9.908 14.4408 9.90525 14.4438 9.90254 14.4468C9.90202 14.4474 9.90149 14.448 9.90097 14.4486L9.90254 14.4468C9.90064 14.4489 9.89876 14.4511 9.8969 14.4532L9.90097 14.4486C9.89915 14.4506 9.89735 14.4527 9.89557 14.4548L9.8969 14.4532C9.89511 14.4553 9.89333 14.4574 9.89158 14.4596L9.89557 14.4548C9.89379 14.4569 9.89204 14.459 9.89031 14.4611L9.89158 14.4596C9.8899 14.4616 9.88824 14.4637 9.88661 14.4657L9.89031 14.4611C9.88844 14.4634 9.88659 14.4657 9.88476 14.4681L9.88661 14.4657C9.88491 14.4679 9.88324 14.4701 9.88159 14.4723L9.88476 14.4681C9.88308 14.4703 9.88142 14.4725 9.87978 14.4747L9.88159 14.4723C9.87988 14.4746 9.87819 14.4769 9.87652 14.4792L9.87978 14.4747C9.87819 14.4769 9.87662 14.479 9.87508 14.4812L9.87652 14.4792C9.87482 14.4816 9.87315 14.484 9.8715 14.4864L9.87508 14.4812C9.87347 14.4835 9.87188 14.4858 9.87031 14.4882L9.8715 14.4864C9.8699 14.4888 9.86832 14.4911 9.86677 14.4935L9.87031 14.4882C9.86872 14.4905 9.86714 14.4929 9.8656 14.4954L9.86677 14.4935C9.86338 14.4988 9.8601 14.5041 9.85695 14.5096C9.85409 14.5146 9.85135 14.5196 9.84873 14.5246C9.84823 14.5256 9.84774 14.5266 9.84725 14.5275L9.84873 14.5246C9.84739 14.5272 9.84609 14.5298 9.84482 14.5324L9.84725 14.5275C9.84589 14.5302 9.84456 14.5329 9.84326 14.5356L9.84482 14.5324C9.84361 14.5349 9.84243 14.5374 9.84128 14.5399L9.84326 14.5356C9.84208 14.5381 9.84093 14.5406 9.8398 14.5431L9.84128 14.5399C9.84006 14.5425 9.83887 14.5452 9.83772 14.5478L9.8398 14.5431C9.83858 14.5458 9.83738 14.5486 9.83623 14.5513L9.83772 14.5478C9.83684 14.5499 9.83598 14.5519 9.83514 14.5539L9.83623 14.5513C9.83508 14.554 9.83398 14.5567 9.8329 14.5595L9.83026 14.5664C9.8292 14.5693 9.82818 14.5721 9.8272 14.575C9.82586 14.5789 9.82459 14.5829 9.82339 14.5868C9.82306 14.5879 9.82273 14.589 9.8224 14.5901L9.82339 14.5868C9.82179 14.592 9.82032 14.5973 9.81897 14.6025C9.81869 14.6036 9.81841 14.6047 9.81814 14.6058L9.81897 14.6025C9.77887 14.7588 9.84539 14.9289 9.99195 15.0135C10.1684 15.1154 10.3939 15.0549 10.4958 14.8785ZM6.85418 16.9812C7.05788 16.9812 7.22302 16.816 7.22302 16.6123C7.22302 16.4563 7.12614 16.3229 6.98925 16.269C6.98834 16.2686 6.98742 16.2682 6.98649 16.2679L6.98925 16.269C6.98703 16.2681 6.9848 16.2672 6.98255 16.2664L6.98649 16.2679C6.98405 16.2669 6.98158 16.266 6.97911 16.2651L6.98255 16.2664C6.98022 16.2655 6.97788 16.2647 6.97553 16.2639L6.97911 16.2651C6.97711 16.2644 6.97509 16.2637 6.97307 16.263L6.97553 16.2639C6.96989 16.2619 6.96418 16.2601 6.95841 16.2584C6.95677 16.2579 6.95512 16.2574 6.95346 16.257L6.95841 16.2584C6.95632 16.2578 6.95422 16.2572 6.95211 16.2566L6.95346 16.257C6.95116 16.2563 6.94885 16.2557 6.94653 16.2551L6.95211 16.2566C6.94905 16.2558 6.94598 16.255 6.9429 16.2542L6.94653 16.2551C6.94372 16.2544 6.9409 16.2537 6.93806 16.253L6.9429 16.2542C6.94079 16.2537 6.93867 16.2532 6.93655 16.2527L6.93806 16.253C6.9357 16.2525 6.93334 16.252 6.93096 16.2515L6.93655 16.2527C6.93368 16.252 6.93079 16.2514 6.92789 16.2508L6.93096 16.2515C6.92794 16.2508 6.9249 16.2502 6.92186 16.2496L6.92789 16.2508C6.92551 16.2503 6.92312 16.2499 6.92072 16.2494L6.92186 16.2496C6.91991 16.2493 6.91796 16.2489 6.916 16.2486L6.92072 16.2494C6.917 16.2488 6.91326 16.2481 6.90951 16.2476C6.90797 16.2473 6.90643 16.2471 6.90489 16.2469L6.90951 16.2476C6.90688 16.2472 6.90425 16.2468 6.90161 16.2465L6.90489 16.2469C6.9025 16.2466 6.9001 16.2463 6.89769 16.246L6.90161 16.2465C6.89911 16.2462 6.8966 16.2459 6.89408 16.2456L6.89769 16.246C6.89482 16.2457 6.89194 16.2454 6.88905 16.2451L6.89408 16.2456C6.8914 16.2453 6.88872 16.245 6.88602 16.2448L6.88905 16.2451C6.88643 16.2448 6.8838 16.2446 6.88117 16.2444L6.88602 16.2448C6.88359 16.2446 6.88115 16.2444 6.87871 16.2443L6.88117 16.2444C6.87813 16.2442 6.87508 16.244 6.87202 16.2439L6.87871 16.2443C6.87603 16.2441 6.87335 16.2439 6.87065 16.2438L6.87202 16.2439C6.86938 16.2438 6.86675 16.2437 6.8641 16.2436L6.87065 16.2438C6.86787 16.2437 6.86508 16.2436 6.86228 16.2435L6.85418 16.2435L6.84608 16.2435C6.84545 16.2436 6.84481 16.2436 6.84418 16.2436L6.84608 16.2435C6.8433 16.2436 6.84054 16.2437 6.83777 16.2438L6.84418 16.2436C6.84151 16.2437 6.83885 16.2438 6.83619 16.2439L6.83777 16.2438C6.83508 16.2439 6.8324 16.2441 6.82972 16.2443L6.83619 16.2439C6.83317 16.244 6.83015 16.2442 6.82714 16.2444L6.82972 16.2443C6.82722 16.2444 6.82472 16.2446 6.82223 16.2448L6.82714 16.2444C6.82453 16.2446 6.82193 16.2448 6.81934 16.2451L6.82223 16.2448C6.81954 16.245 6.81685 16.2453 6.81417 16.2456L6.81934 16.2451C6.8165 16.2453 6.81367 16.2456 6.81084 16.246L6.81417 16.2456C6.81148 16.2459 6.8088 16.2462 6.80612 16.2466L6.81084 16.246C6.80838 16.2463 6.80593 16.2466 6.80348 16.2469L6.80612 16.2466C6.80369 16.2469 6.80127 16.2472 6.79885 16.2476L6.80348 16.2469C6.79978 16.2474 6.7961 16.248 6.79244 16.2486C6.79083 16.2489 6.78922 16.2492 6.78762 16.2494L6.79244 16.2486C6.79049 16.2489 6.78855 16.2493 6.7866 16.2496L6.78762 16.2494C6.78516 16.2499 6.78271 16.2504 6.78027 16.2509L6.7866 16.2496C6.78359 16.2502 6.78059 16.2508 6.7776 16.2514L6.78027 16.2509C6.77744 16.2514 6.77462 16.252 6.77182 16.2527L6.7776 16.2514C6.77513 16.2519 6.77267 16.2525 6.77023 16.253L6.77182 16.2527C6.76977 16.2532 6.76772 16.2536 6.76569 16.2541L6.77023 16.253C6.7674 16.2537 6.76459 16.2544 6.76179 16.2551L6.76569 16.2541C6.76278 16.2548 6.75988 16.2556 6.757 16.2564L6.76179 16.2551C6.75936 16.2557 6.75695 16.2564 6.75454 16.2571L6.757 16.2564C6.75493 16.2569 6.75287 16.2575 6.75082 16.2581L6.75454 16.2571C6.74805 16.2589 6.74163 16.2609 6.73529 16.263C6.73448 16.2633 6.73368 16.2636 6.73288 16.2638L6.73529 16.263C6.73296 16.2638 6.73063 16.2646 6.72832 16.2655L6.73288 16.2638C6.73071 16.2646 6.72856 16.2654 6.72641 16.2662L6.72832 16.2655C6.7259 16.2664 6.7235 16.2673 6.7211 16.2682L6.72641 16.2662C6.72417 16.267 6.72194 16.2678 6.71971 16.2687L6.7211 16.2682C6.58317 16.3216 6.48535 16.4555 6.48535 16.6123C6.48535 16.816 6.65048 16.9812 6.85418 16.9812Z"/>
</g>
<defs>
<clipPath id="clip0_15240_138533">
<rect fill="white" width="24" height="24" transform="translate(0 0.820801)"/>
</clipPath>
</defs>
<metadata symbolName="STORJUSD" fileName="storjusd.svg" id="grimlock-metadata-id" lastUpdate="2025-02-10T09:58:22.674330649" symbolId="1452"/></svg>