<?xml version="1.0" encoding="UTF-8"?>
<!DOCTYPE svg PUBLIC "-//W3C//DTD SVG 1.0//EN" "http://www.w3.org/TR/2001/REC-SVG-20010904/DTD/svg10.dtd">
<!-- Creator: CorelDRAW X8 -->
<svg xmlns="http://www.w3.org/2000/svg" xml:space="preserve" width="11.6929in" height="8.26772in" version="1.0" shape-rendering="geometricPrecision" text-rendering="geometricPrecision" image-rendering="optimizeQuality" fill-rule="evenodd" clip-rule="evenodd"
viewBox="0 0 11693 8268"
 xmlns:xlink="http://www.w3.org/1999/xlink">
 <g id="Layer_x0020_1">
  <metadata id="CorelCorpID_0Corel-Layer"/>
  <path fill="#93A0B3" d="M5654 4002c7,0 13,1 20,1 6,1 12,1 19,2l6 1 0 497 -6 1c-7,1 -13,2 -19,2 -7,1 -13,1 -20,1 -68,0 -129,-28 -174,-74 -44,-46 -72,-109 -72,-178 0,-70 28,-133 72,-179 45,-45 106,-74 174,-74zm185 529c30,0 58,13 79,34 8,8 14,17 20,28l416 0 0 -450c0,-143 -57,-273 -149,-367 -92,-95 -219,-153 -359,-153 -139,0 -266,58 -358,153 -92,94 -149,224 -149,367l0 151c0,32 -25,58 -57,58 -31,0 -56,-26 -56,-58l0 -151c0,-175 70,-334 182,-449 112,-116 268,-187 438,-187 171,0 326,71 439,187 112,115 182,274 182,449l0 463c0,5 0,13 0,24l0 1c-1,10 -1,18 -2,24 -2,31 -27,54 -56,54l-477 0c-4,7 -9,13 -14,18 -21,21 -49,34 -79,34 -31,0 -59,-13 -80,-34 -20,-20 -33,-49 -33,-81 0,-32 13,-60 33,-81 21,-21 49,-34 80,-34zm171 -528c6,0 13,-1 19,-1 68,0 130,29 174,74 45,46 72,109 72,179 0,69 -27,132 -72,178 -44,46 -106,74 -174,74 -6,0 -13,0 -19,-1 -6,0 -13,-1 -19,-2l-6 -1 0 -497 6 -1c6,-1 13,-1 19,-2z"/>
 </g>
</svg>
