<?xml version="1.0" encoding="UTF-8" standalone="no"?><svg xmlns="http://www.w3.org/2000/svg" xmlns:xlink="http://www.w3.org/1999/xlink" contentScriptType="text/ecmascript" fill="none" width="24" zoomAndPan="magnify" contentStyleType="text/css" viewBox="0 0 24 24" height="24" preserveAspectRatio="xMidYMid meet" version="1.0">
<g clip-path="url(#clip0_15240_138669)">
<circle fill="#BD3D44" r="6.85714" cx="17.1429" cy="12.0073"/>
<path fill="white" clip-rule="evenodd" d="M13.4485 6.22717C12.994 6.51797 12.576 6.86091 12.2031 7.24755H22.0752C21.7022 6.86091 21.2843 6.51797 20.8298 6.22717H13.4485ZM10.7767 9.44528C10.9318 9.06047 11.1208 8.69296 11.34 8.34645H22.9383C23.1575 8.69296 23.3465 9.06047 23.5016 9.44528H10.7767ZM10.4384 10.5442C10.3718 10.851 10.3256 11.1655 10.3015 11.4861H23.9768C23.9527 11.1655 23.9065 10.851 23.8398 10.5442H10.4384ZM10.4509 13.5269C10.377 13.2002 10.3264 12.8647 10.301 12.5222H23.9772C23.9518 12.8647 23.9012 13.2002 23.8273 13.5269H10.4509ZM10.7997 14.6258C10.959 15.0111 11.1524 15.3786 11.3761 15.7248H22.9022C23.1259 15.3786 23.3193 15.0111 23.4786 14.6258H10.7997ZM13.4139 17.7654C12.9949 17.4937 12.6074 17.1776 12.2582 16.8237H22.0201C21.6708 17.1776 21.2833 17.4937 20.8643 17.7654H13.4139ZM17.0789 18.8643C17.0989 18.8645 17.119 18.8645 17.1391 18.8645C17.1592 18.8645 17.1793 18.8645 17.1994 18.8643H17.0789Z" fill-rule="evenodd"/>
<path fill="#00418E" clip-rule="evenodd" d="M10.3053 12.5285C10.2923 12.3564 10.2858 12.1826 10.2858 12.0073C10.2858 8.22019 13.3558 5.15015 17.1429 5.15015C17.4256 5.15015 17.7043 5.16726 17.9781 5.20049V12.5285H10.3053Z" fill-rule="evenodd"/>
<path fill="white" clip-rule="evenodd" d="M13.7967 6.03127C13.7572 6.05358 13.7179 6.07628 13.6788 6.09935L13.8638 6.23159L13.7967 6.03127ZM13.0801 6.49676C12.9415 6.59957 12.807 6.70749 12.6767 6.82022L12.7214 6.78873L12.9734 6.96819L12.8776 6.67623L13.1323 6.49676H13.0801ZM12.0093 7.48258C11.9783 7.51777 11.9478 7.55328 11.9176 7.58911L12.0831 7.70748L12.0093 7.48258ZM10.798 9.44855C10.7784 9.49718 10.7594 9.54609 10.7409 9.59526L10.7874 9.62801L10.6887 9.92266L10.9435 9.74051L11.1983 9.92266L11.0997 9.63069L11.3544 9.45123H11.0421L10.9435 9.15926L10.8476 9.44855H10.798ZM15.3842 5.46552L15.4828 5.75748H15.7951L15.543 5.93694L15.6389 6.23159L15.3842 6.04944L15.1321 6.22891L15.228 5.93694L14.976 5.75748H15.2883L15.3842 5.46552ZM17.1621 5.46552L17.2579 5.75748H17.573L17.3182 5.93694L17.4168 6.23159L17.1621 6.04944L16.9073 6.22891L17.0059 5.93694L16.7511 5.75748H17.0662L17.1621 5.46552ZM14.4966 6.2048L14.5952 6.49676H14.9075L14.6527 6.67623L14.7513 6.96819L14.4966 6.78873L14.2445 6.96819L14.3404 6.67623L14.0857 6.49676H14.4034L14.4966 6.2048ZM16.2745 6.2048L16.3704 6.49676H16.6854L16.4306 6.67623L16.5265 6.96819L16.2745 6.78873L16.0197 6.96819L16.1156 6.67623L15.8636 6.49676H16.1759L16.2745 6.2048ZM13.609 6.94141L13.7049 7.23605H14.0199L13.7651 7.41551L13.8638 7.70748L13.609 7.52534L13.3542 7.70748L13.4528 7.41284L13.1981 7.23337H13.5104L13.609 6.94141ZM15.3842 6.94141L15.4828 7.23605H15.7951L15.543 7.41551L15.6389 7.70748L15.3842 7.52534L15.1321 7.70748L15.228 7.41284L14.976 7.23337H15.2883L15.3842 6.94141ZM17.1621 6.94141L17.2579 7.23605H17.573L17.3182 7.41551L17.4168 7.70748L17.1621 7.52534L16.9073 7.70748L17.0059 7.41284L16.7511 7.23337H17.0662L17.1621 6.94141ZM12.7214 7.68069L12.8173 7.97266H13.1323L12.8776 8.15212L12.9734 8.44676L12.7214 8.26462L12.4666 8.44408L12.5625 8.15212L12.3105 7.97266H12.6228L12.7214 7.68069ZM14.4966 7.68069L14.5952 7.97266H14.9075L14.6555 8.15212L14.7513 8.44676L14.4966 8.26462L14.2445 8.44408L14.3404 8.15212L14.0857 7.97266H14.4034L14.4966 7.68069ZM16.2745 7.68069L16.3704 7.97266H16.6854L16.4306 8.15212L16.5265 8.44676L16.2745 8.26462L16.0197 8.44408L16.1156 8.15212L15.8636 7.97266H16.1759L16.2745 7.68069ZM11.8311 8.41998L11.9297 8.71194H12.2393L11.9872 8.89141L12.0831 9.18605L11.8284 9.00391L11.5763 9.18337L11.6722 8.89141L11.4174 8.71194H11.7325L11.8311 8.41998ZM13.609 8.41998L13.7049 8.71194H14.0199L13.7651 8.89141L13.8638 9.18605L13.609 9.00391L13.3542 9.18337L13.4528 8.89141L13.1981 8.71194H13.5104L13.609 8.41998ZM15.3842 8.41998L15.4828 8.71194H15.7951L15.543 8.89141L15.6389 9.18605L15.3842 9.00391L15.1321 9.18337L15.228 8.89141L14.976 8.71194H15.2883L15.3842 8.41998ZM17.1621 8.41998L17.2579 8.71194H17.573L17.3182 8.89141L17.4168 9.18605L17.1621 9.00391L16.9073 9.18337L17.0059 8.89141L16.7511 8.71194H17.0662L17.1621 8.41998ZM12.7214 9.15926L12.8173 9.45123H13.1323L12.8776 9.63069L12.9734 9.92266L12.7214 9.74051L12.4666 9.92266L12.5625 9.62801L12.3105 9.44855H12.6228L12.7214 9.15926ZM14.4966 9.15926L14.5952 9.45123H14.9075L14.6555 9.63069L14.7513 9.92266L14.4966 9.74051L14.2445 9.92266L14.3404 9.62801L14.0857 9.44855H14.4034L14.4966 9.15926ZM16.2745 9.15926L16.3704 9.45123H16.6854L16.4306 9.63069L16.5265 9.92266L16.2745 9.74051L16.0197 9.92266L16.1156 9.62801L15.8636 9.44855H16.1759L16.2745 9.15926ZM11.8311 9.89587L11.9297 10.1905H12.2393L11.9872 10.37L12.0831 10.6593L11.8284 10.4798L11.5763 10.6593L11.6722 10.3673L11.4174 10.1878H11.7325L11.8311 9.89587ZM13.609 9.89587L13.7049 10.1905H14.0199L13.7651 10.37L13.8638 10.6593L13.609 10.4798L13.3542 10.6593L13.4528 10.3673L13.1981 10.1878H13.5104L13.609 9.89587ZM15.3842 9.89587L15.4828 10.1905H15.7951L15.543 10.37L15.6389 10.6593L15.3842 10.4798L15.1321 10.6593L15.228 10.3673L14.976 10.1878H15.2883L15.3842 9.89587ZM17.1621 9.89587L17.2579 10.1905H17.573L17.3182 10.37L17.4168 10.6593L17.1621 10.4798L16.9073 10.6593L17.0059 10.3673L16.7511 10.1878H17.0662L17.1621 9.89587ZM10.9435 10.6352L11.0421 10.9271H11.3544L11.0997 11.1066L11.1983 11.4012L10.9435 11.2191L10.6887 11.3985L10.7874 11.1066L10.5326 10.9271H10.8476L10.9435 10.6352ZM12.7214 10.6352L12.8173 10.9271H13.1323L12.8776 11.1066L12.9734 11.4012L12.7214 11.2191L12.4666 11.3985L12.5625 11.1066L12.3105 10.9271H12.6228L12.7214 10.6352ZM14.4966 10.6352L14.5952 10.9271H14.9075L14.6555 11.1066L14.7513 11.4012L14.4966 11.2191L14.2445 11.3985L14.3404 11.1066L14.0857 10.9271H14.4034L14.4966 10.6352ZM16.2745 10.6352L16.3704 10.9271H16.6854L16.4306 11.1066L16.5265 11.4012L16.2745 11.2191L16.0197 11.3985L16.1156 11.1066L15.8636 10.9271H16.1759L16.2745 10.6352ZM11.8311 11.3744L11.9297 11.6664H12.2393L11.9927 11.8459L12.0886 12.1378L11.8338 11.9584L11.5818 12.1378L11.6777 11.8432L11.4229 11.6637H11.738L11.8311 11.3744ZM13.609 11.3744L13.7049 11.6664H14.0199L13.7651 11.8459L13.8638 12.1378L13.609 11.9584L13.3542 12.1378L13.4528 11.8432L13.1981 11.6637H13.5104L13.609 11.3744ZM15.3842 11.3744L15.4828 11.6664H15.7951L15.543 11.8459L15.6389 12.1378L15.3842 11.9584L15.1321 12.1378L15.228 11.8432L14.976 11.6637H15.2883L15.3842 11.3744ZM17.1621 11.3744L17.2579 11.6664H17.573L17.3182 11.8459L17.4168 12.1378L17.1621 11.9584L16.9073 12.1378L17.0059 11.8432L16.7511 11.6637H17.0662L17.1621 11.3744Z" fill-rule="evenodd"/>
<rect rx="6.35423" fill="white" x="0.5" width="12.7085" height="12.71" y="5.6073"/>
<rect rx="6.35423" x="0.5" width="12.7085" height="12.71" y="5.6073" stroke="#EEEEEE"/>
<g clip-path="url(#clip1_15240_138669)">
<mask x="2" y="7" width="10" maskUnits="userSpaceOnUse" style="mask-type:luminance" height="10" id="mask0_15240_138669">
<path fill="white" d="M11.1223 7.69385H2.5863V16.2308H11.1223V7.69385Z"/>
</mask>
<g mask="url(#mask0_15240_138669)">
<path fill="url(#paint0_linear_15240_138669)" d="M4.36457 8.51196L10.9799 13.0294L9.34388 15.4482L2.72852 10.8952L4.36457 8.51196Z"/>
<path fill="url(#paint1_linear_15240_138669)" d="M10.9799 13.0294C10.4109 13.8475 8.49029 13.5274 6.6764 12.2469C4.82694 11.0019 3.83108 9.33008 4.36458 8.51196C4.93364 7.69384 6.85423 8.01397 8.66812 9.29451C10.5176 10.5039 11.5134 12.2113 10.9799 13.0294Z"/>
<path fill="url(#paint2_linear_15240_138669)" d="M9.34391 15.4126C8.77485 16.2308 6.85426 15.9106 5.04037 14.6301C3.22648 13.3495 2.19505 11.7133 2.76411 10.8596C3.33318 10.0415 5.25377 10.3616 7.06766 11.6422C8.88155 12.9227 9.87741 14.5945 9.34391 15.4126Z"/>
<path fill="#0E0F23" d="M10.98 13.0294L9.34396 15.4482C8.7749 16.2663 6.85431 15.9106 5.04042 14.6656C4.68475 14.4166 4.36465 14.1676 4.04456 13.8831C4.29352 13.8475 4.61362 13.7052 4.93372 13.3495C5.50278 12.7448 5.78731 12.6025 6.03628 12.6381C6.28524 12.6381 6.56978 12.8871 7.03214 13.4918C7.49451 14.0965 8.1347 14.2744 8.52593 13.9542C8.5615 13.9187 8.59707 13.9187 8.63263 13.8831C8.95273 13.6341 9.05943 13.5274 9.66406 12.3891C9.80633 12.1046 10.3043 11.6421 10.98 11.8556C11.1579 12.318 11.1579 12.7093 10.98 13.0294Z"/>
<path fill="white" clip-rule="evenodd" d="M10.731 12.8871C10.2331 13.5985 8.49034 13.2428 6.81872 12.069C5.11153 10.8952 4.11566 9.4012 4.6136 8.68979C5.11153 7.97838 6.85428 8.33409 8.52591 9.50791C10.1975 10.6817 11.1934 12.1757 10.731 12.8871ZM9.16611 11.82C8.91714 12.1757 8.06354 11.9978 7.20995 11.4287C6.39192 10.8596 5.89399 10.1126 6.14295 9.75691C6.39192 9.4012 7.24552 9.57905 8.09911 10.1482C8.91714 10.7173 9.41507 11.4643 9.16611 11.82Z" fill-rule="evenodd"/>
<path fill="white" d="M4.22234 9.33009C4.22234 9.29452 4.18678 9.25895 4.15121 9.29452C4.11564 9.33009 4.08008 9.33009 4.08008 9.36566C4.11564 9.47237 4.15121 9.54351 4.15121 9.61465C4.15121 9.65022 4.18678 9.68579 4.22234 9.65022C4.25791 9.65022 4.29348 9.61465 4.25791 9.57908C4.25791 9.50794 4.25791 9.4368 4.22234 9.33009Z"/>
<path fill="white" d="M4.40016 9.89918C4.40016 9.86361 4.36459 9.82804 4.32902 9.86361C4.29346 9.89918 4.29346 9.89918 4.29346 9.93475C4.68469 10.824 5.50272 11.7844 6.56971 12.4958C6.60528 12.5314 6.64085 12.4958 6.67641 12.4958C6.71198 12.4603 6.67641 12.4247 6.67641 12.3891C5.57385 11.6777 4.79139 10.7529 4.40016 9.89918Z"/>
<path fill="white" d="M8.7037 13.3851C8.66814 13.3851 8.63257 13.3851 8.63257 13.4207C8.63257 13.4563 8.63257 13.4918 8.66813 13.4918C8.77483 13.5274 8.9171 13.563 9.0238 13.5986C9.05937 13.5986 9.09493 13.5986 9.09493 13.563C9.09493 13.5274 9.09493 13.4918 9.05937 13.4918C8.95267 13.4563 8.8104 13.4207 8.7037 13.3851Z"/>
<path fill="white" d="M9.34396 13.5274C9.30839 13.5274 9.27283 13.563 9.27283 13.5985C9.27283 13.6341 9.30839 13.6697 9.34396 13.6697C9.62849 13.7053 9.94859 13.7408 10.1976 13.7053C10.2331 13.7053 10.2687 13.6697 10.2687 13.6341C10.2687 13.5985 10.2331 13.563 10.1976 13.563C9.91302 13.5985 9.62849 13.563 9.34396 13.5274Z"/>
</g>
</g>
</g>
<defs>
<linearGradient x1="5.66069" gradientUnits="userSpaceOnUse" x2="6.97287" y1="7.86967" y2="12.375" xlink:type="simple" xlink:actuate="onLoad" id="paint0_linear_15240_138669" xlink:show="other">
<stop stop-color="#03B8FF"/>
<stop stop-color="#FA52A0" offset="1"/>
</linearGradient>
<linearGradient x1="6.74106" gradientUnits="userSpaceOnUse" x2="8.05327" y1="7.55497" y2="12.0604" xlink:type="simple" xlink:actuate="onLoad" id="paint1_linear_15240_138669" xlink:show="other">
<stop stop-color="#03B8FF"/>
<stop stop-color="#FA52A0" offset="1"/>
</linearGradient>
<linearGradient x1="4.5837" gradientUnits="userSpaceOnUse" x2="5.89591" y1="8.18333" y2="12.6887" xlink:type="simple" xlink:actuate="onLoad" id="paint2_linear_15240_138669" xlink:show="other">
<stop stop-color="#03B8FF"/>
<stop stop-color="#FA52A0" offset="1"/>
</linearGradient>
<clipPath id="clip0_15240_138669">
<rect fill="white" width="24" height="24" transform="translate(0 0.00732422)"/>
</clipPath>
<clipPath id="clip1_15240_138669">
<rect fill="white" width="8.53596" height="8.53692" transform="translate(2.5863 7.69385)"/>
</clipPath>
</defs>
<metadata symbolName="SUSHIUSD" fileName="sushiusd.svg" id="grimlock-metadata-id" lastUpdate="2025-02-10T09:58:22.674347250" symbolId="1454"/></svg>