<?xml version="1.0" encoding="UTF-8"?>
<!DOCTYPE svg PUBLIC "-//W3C//DTD SVG 1.0//EN" "http://www.w3.org/TR/2001/REC-SVG-20010904/DTD/svg10.dtd">
<!-- Creator: CorelDRAW X8 -->
<svg xmlns="http://www.w3.org/2000/svg" xml:space="preserve" width="11.6929in" height="8.26772in" version="1.0" shape-rendering="geometricPrecision" text-rendering="geometricPrecision" image-rendering="optimizeQuality" fill-rule="evenodd" clip-rule="evenodd"
viewBox="0 0 11693 8268"
 xmlns:xlink="http://www.w3.org/1999/xlink">
 <g id="Layer_x0020_1">
  <metadata id="CorelCorpID_0Corel-Layer"/>
  <path fill="#93A0B3" fill-rule="nonzero" d="M5437 3500l819 0c59,0 112,24 151,63 2,2 4,4 6,6 35,38 57,90 57,146l0 838c0,59 -24,113 -63,152 -39,39 -92,63 -151,63l-819 0c-58,0 -112,-24 -151,-63l0 0c-39,-39 -63,-93 -63,-152l0 -838c0,-59 24,-113 63,-152l0 0c39,-39 93,-63 151,-63zm-48 680l370 -259 219 209 326 -260 0 -155c0,-12 -5,-23 -12,-32l-3 -2c-8,-9 -20,-14 -33,-14l-819 0c-13,0 -25,5 -34,13l0 1c-8,8 -14,20 -14,34l0 465zm915 -97l-336 267 -226 -215 -353 247 0 171c0,13 6,25 14,34l0 0 0 0c9,9 21,14 34,14l819 0c13,0 25,-5 33,-14 9,-9 15,-21 15,-34l0 -470z"/>
 </g>
</svg>
