<?xml version="1.0" encoding="UTF-8"?>
<!DOCTYPE svg PUBLIC "-//W3C//DTD SVG 1.0//EN" "http://www.w3.org/TR/2001/REC-SVG-20010904/DTD/svg10.dtd">
<!-- Creator: CorelDRAW X8 -->
<svg xmlns="http://www.w3.org/2000/svg" xml:space="preserve" width="11.6929in" height="8.26772in" version="1.0" shape-rendering="geometricPrecision" text-rendering="geometricPrecision" image-rendering="optimizeQuality" fill-rule="evenodd" clip-rule="evenodd"
viewBox="0 0 11693 8268"
 xmlns:xlink="http://www.w3.org/1999/xlink">
 <g id="Layer_x0020_1">
  <metadata id="CorelCorpID_0Corel-Layer"/>
  <path fill="#93A0B3" fill-rule="nonzero" d="M6046 4107c-44,1 -80,-33 -81,-77 -2,-43 32,-80 76,-81l339 -11c23,-1 46,6 62,24 17,17 24,39 23,60l-4 331c0,43 -36,78 -79,78 -44,0 -79,-36 -79,-80l2 -145 -552 536c-31,31 -81,30 -111,-1 -31,-32 -30,-82 1,-112l541 -527 -138 5zm-112 -582c32,-30 82,-29 112,2 31,31 30,81 -1,112l-536 521 138 -4c44,-2 80,33 81,76 2,44 -32,80 -76,82l-339 11c-23,1 -46,-7 -63,-24 -16,-17 -23,-39 -22,-61l4 -330c0,-44 36,-79 79,-78 44,0 79,36 79,79l-2 146 546 -532z"/>
 </g>
</svg>
