<?xml version="1.0" encoding="UTF-8" standalone="no"?><svg xmlns="http://www.w3.org/2000/svg" xmlns:xlink="http://www.w3.org/1999/xlink" contentScriptType="text/ecmascript" fill="none" width="24" zoomAndPan="magnify" contentStyleType="text/css" viewBox="0 0 24 25" height="25" preserveAspectRatio="xMidYMid meet" version="1.0">
<g clip-path="url(#clip0_15240_138760)">
<circle fill="#BD3D44" r="6.85714" cx="17.1429" cy="12.2258"/>
<path fill="white" clip-rule="evenodd" d="M13.4485 6.44568C12.994 6.73648 12.576 7.07941 12.2031 7.46605H22.0752C21.7022 7.07941 21.2843 6.73648 20.8298 6.44568H13.4485ZM10.7767 9.66379C10.9318 9.27897 11.1208 8.91146 11.34 8.56495H22.9383C23.1575 8.91146 23.3465 9.27897 23.5016 9.66379H10.7767ZM10.4384 10.7627C10.3718 11.0695 10.3256 11.384 10.3015 11.7046H23.9768C23.9527 11.384 23.9065 11.0695 23.8398 10.7627H10.4384ZM10.4509 13.7454C10.377 13.4187 10.3264 13.0832 10.301 12.7407H23.9772C23.9518 13.0832 23.9012 13.4187 23.8273 13.7454H10.4509ZM10.7997 14.8443C10.959 15.2296 11.1524 15.5972 11.3761 15.9433H22.9022C23.1259 15.5972 23.3193 15.2296 23.4786 14.8443H10.7997ZM13.4139 17.9839C12.9949 17.7122 12.6074 17.3961 12.2582 17.0422H22.0201C21.6708 17.3961 21.2833 17.7122 20.8643 17.9839H13.4139ZM17.0789 19.0828C17.0989 19.083 17.119 19.083 17.1391 19.083C17.1592 19.083 17.1793 19.083 17.1994 19.0828H17.0789Z" fill-rule="evenodd"/>
<path fill="#00418E" clip-rule="evenodd" d="M10.3053 12.747C10.2923 12.5749 10.2858 12.4011 10.2858 12.2258C10.2858 8.4387 13.3558 5.36865 17.1429 5.36865C17.4256 5.36865 17.7043 5.38576 17.9781 5.419V12.747H10.3053Z" fill-rule="evenodd"/>
<path fill="white" clip-rule="evenodd" d="M13.7967 6.24977C13.7572 6.27209 13.7179 6.29479 13.6788 6.31786L13.8638 6.45009L13.7967 6.24977ZM13.0801 6.71527C12.9415 6.81808 12.807 6.92599 12.6767 7.03873L12.7214 7.00723L12.9734 7.1867L12.8776 6.89473L13.1323 6.71527H13.0801ZM12.0093 7.70109C11.9783 7.73628 11.9478 7.77179 11.9176 7.80761L12.0831 7.92598L12.0093 7.70109ZM10.798 9.66705C10.7784 9.71569 10.7594 9.76459 10.7409 9.81377L10.7874 9.84652L10.6887 10.1412L10.9435 9.95902L11.1983 10.1412L11.0997 9.8492L11.3544 9.66973H11.0421L10.9435 9.37777L10.8476 9.66705H10.798ZM15.3842 5.68402L15.4828 5.97599H15.7951L15.543 6.15545L15.6389 6.45009L15.3842 6.26795L15.1321 6.44741L15.228 6.15545L14.976 5.97599H15.2883L15.3842 5.68402ZM17.1621 5.68402L17.2579 5.97599H17.573L17.3182 6.15545L17.4168 6.45009L17.1621 6.26795L16.9073 6.44741L17.0059 6.15545L16.7511 5.97599H17.0662L17.1621 5.68402ZM14.4966 6.42331L14.5952 6.71527H14.9075L14.6527 6.89473L14.7513 7.1867L14.4966 7.00723L14.2445 7.1867L14.3404 6.89473L14.0857 6.71527H14.4034L14.4966 6.42331ZM16.2745 6.42331L16.3704 6.71527H16.6854L16.4306 6.89473L16.5265 7.1867L16.2745 7.00723L16.0197 7.1867L16.1156 6.89473L15.8636 6.71527H16.1759L16.2745 6.42331ZM13.609 7.15991L13.7049 7.45456H14.0199L13.7651 7.63402L13.8638 7.92598L13.609 7.74384L13.3542 7.92598L13.4528 7.63134L13.1981 7.45188H13.5104L13.609 7.15991ZM15.3842 7.15991L15.4828 7.45456H15.7951L15.543 7.63402L15.6389 7.92598L15.3842 7.74384L15.1321 7.92598L15.228 7.63134L14.976 7.45188H15.2883L15.3842 7.15991ZM17.1621 7.15991L17.2579 7.45456H17.573L17.3182 7.63402L17.4168 7.92598L17.1621 7.74384L16.9073 7.92598L17.0059 7.63134L16.7511 7.45188H17.0662L17.1621 7.15991ZM12.7214 7.8992L12.8173 8.19116H13.1323L12.8776 8.37063L12.9734 8.66527L12.7214 8.48313L12.4666 8.66259L12.5625 8.37063L12.3105 8.19116H12.6228L12.7214 7.8992ZM14.4966 7.8992L14.5952 8.19116H14.9075L14.6555 8.37063L14.7513 8.66527L14.4966 8.48313L14.2445 8.66259L14.3404 8.37063L14.0857 8.19116H14.4034L14.4966 7.8992ZM16.2745 7.8992L16.3704 8.19116H16.6854L16.4306 8.37063L16.5265 8.66527L16.2745 8.48313L16.0197 8.66259L16.1156 8.37063L15.8636 8.19116H16.1759L16.2745 7.8992ZM11.8311 8.63848L11.9297 8.93045H12.2393L11.9872 9.10991L12.0831 9.40455L11.8284 9.22241L11.5763 9.40188L11.6722 9.10991L11.4174 8.93045H11.7325L11.8311 8.63848ZM13.609 8.63848L13.7049 8.93045H14.0199L13.7651 9.10991L13.8638 9.40455L13.609 9.22241L13.3542 9.40188L13.4528 9.10991L13.1981 8.93045H13.5104L13.609 8.63848ZM15.3842 8.63848L15.4828 8.93045H15.7951L15.543 9.10991L15.6389 9.40455L15.3842 9.22241L15.1321 9.40188L15.228 9.10991L14.976 8.93045H15.2883L15.3842 8.63848ZM17.1621 8.63848L17.2579 8.93045H17.573L17.3182 9.10991L17.4168 9.40455L17.1621 9.22241L16.9073 9.40188L17.0059 9.10991L16.7511 8.93045H17.0662L17.1621 8.63848ZM12.7214 9.37777L12.8173 9.66973H13.1323L12.8776 9.8492L12.9734 10.1412L12.7214 9.95902L12.4666 10.1412L12.5625 9.84652L12.3105 9.66705H12.6228L12.7214 9.37777ZM14.4966 9.37777L14.5952 9.66973H14.9075L14.6555 9.8492L14.7513 10.1412L14.4966 9.95902L14.2445 10.1412L14.3404 9.84652L14.0857 9.66705H14.4034L14.4966 9.37777ZM16.2745 9.37777L16.3704 9.66973H16.6854L16.4306 9.8492L16.5265 10.1412L16.2745 9.95902L16.0197 10.1412L16.1156 9.84652L15.8636 9.66705H16.1759L16.2745 9.37777ZM11.8311 10.1144L11.9297 10.409H12.2393L11.9872 10.5885L12.0831 10.8778L11.8284 10.6983L11.5763 10.8778L11.6722 10.5858L11.4174 10.4063H11.7325L11.8311 10.1144ZM13.609 10.1144L13.7049 10.409H14.0199L13.7651 10.5885L13.8638 10.8778L13.609 10.6983L13.3542 10.8778L13.4528 10.5858L13.1981 10.4063H13.5104L13.609 10.1144ZM15.3842 10.1144L15.4828 10.409H15.7951L15.543 10.5885L15.6389 10.8778L15.3842 10.6983L15.1321 10.8778L15.228 10.5858L14.976 10.4063H15.2883L15.3842 10.1144ZM17.1621 10.1144L17.2579 10.409H17.573L17.3182 10.5885L17.4168 10.8778L17.1621 10.6983L16.9073 10.8778L17.0059 10.5858L16.7511 10.4063H17.0662L17.1621 10.1144ZM10.9435 10.8537L11.0421 11.1456H11.3544L11.0997 11.3251L11.1983 11.6197L10.9435 11.4376L10.6887 11.6171L10.7874 11.3251L10.5326 11.1456H10.8476L10.9435 10.8537ZM12.7214 10.8537L12.8173 11.1456H13.1323L12.8776 11.3251L12.9734 11.6197L12.7214 11.4376L12.4666 11.6171L12.5625 11.3251L12.3105 11.1456H12.6228L12.7214 10.8537ZM14.4966 10.8537L14.5952 11.1456H14.9075L14.6555 11.3251L14.7513 11.6197L14.4966 11.4376L14.2445 11.6171L14.3404 11.3251L14.0857 11.1456H14.4034L14.4966 10.8537ZM16.2745 10.8537L16.3704 11.1456H16.6854L16.4306 11.3251L16.5265 11.6197L16.2745 11.4376L16.0197 11.6171L16.1156 11.3251L15.8636 11.1456H16.1759L16.2745 10.8537ZM11.8311 11.5929L11.9297 11.8849H12.2393L11.9927 12.0644L12.0886 12.3563L11.8338 12.1769L11.5818 12.3563L11.6777 12.0617L11.4229 11.8822H11.738L11.8311 11.5929ZM13.609 11.5929L13.7049 11.8849H14.0199L13.7651 12.0644L13.8638 12.3563L13.609 12.1769L13.3542 12.3563L13.4528 12.0617L13.1981 11.8822H13.5104L13.609 11.5929ZM15.3842 11.5929L15.4828 11.8849H15.7951L15.543 12.0644L15.6389 12.3563L15.3842 12.1769L15.1321 12.3563L15.228 12.0617L14.976 11.8822H15.2883L15.3842 11.5929ZM17.1621 11.5929L17.2579 11.8849H17.573L17.3182 12.0644L17.4168 12.3563L17.1621 12.1769L16.9073 12.3563L17.0059 12.0617L16.7511 11.8822H17.0662L17.1621 11.5929Z" fill-rule="evenodd"/>
<g clip-path="url(#clip1_15240_138760)">
<path fill="black" d="M13.5034 13.8391C12.5878 17.5114 8.86833 19.7463 5.19554 18.8306C1.52428 17.915 -0.71064 14.1953 0.205297 10.5232C1.12043 6.85049 4.83993 4.6154 8.51159 5.53093C12.1841 6.44647 14.4189 10.1666 13.5033 13.8391L13.5033 13.8391H13.5034Z"/>
<g clip-path="url(#clip2_15240_138760)">
<path fill="white" d="M8.38215 13.6088H7.92251C7.83739 13.6088 7.76504 13.5372 7.76504 13.4431V12.1719L6.96068 12.7001C6.89258 12.7448 6.80746 12.7448 6.73937 12.7001L5.93926 12.1719V13.4431C5.93926 13.5327 5.87117 13.6088 5.78179 13.6088H5.32641C5.2413 13.6088 5.16895 13.5372 5.16895 13.4431V10.9901C5.16895 10.8692 5.26258 10.7708 5.37748 10.7708C5.42004 10.7708 5.45835 10.7842 5.49239 10.811L6.76065 11.7287C6.81172 11.769 6.88407 11.769 6.93514 11.7287L8.2034 10.811C8.29703 10.7439 8.42896 10.7708 8.4928 10.8692C8.51833 10.905 8.52685 10.9498 8.5311 10.9901V13.4431C8.53536 13.5327 8.46726 13.6088 8.38215 13.6088Z"/>
<path fill="white" d="M4.48369 13.6043H1.63224C1.51734 13.6043 1.42371 13.5058 1.42371 13.385V10.9185C1.42796 10.8245 1.49606 10.7529 1.58543 10.7529H2.04507C2.13018 10.7529 2.20253 10.8245 2.20253 10.9185V12.7941H3.93043V10.9185C3.93043 10.829 3.99852 10.7529 4.0879 10.7529H4.53477C4.61988 10.7529 4.69223 10.8245 4.69223 10.9185V13.385C4.69223 13.5058 4.5986 13.6043 4.48369 13.6043Z"/>
<path fill="white" d="M9.22477 10.7529H12.0762C12.1911 10.7529 12.2848 10.8513 12.2848 10.9722V13.4387C12.2848 13.5282 12.2167 13.6043 12.1315 13.6043H11.6719C11.5868 13.6043 11.5144 13.5327 11.5144 13.4387V11.6705C11.5144 11.6123 11.4676 11.5631 11.4123 11.5631H9.89295C9.83762 11.5631 9.79081 11.6123 9.79081 11.6705V13.4387C9.79081 13.5282 9.72271 13.6043 9.63334 13.6043H9.1737C9.08859 13.6043 9.01624 13.5327 9.01624 13.4387V10.9722C9.01624 10.8513 9.10986 10.7529 9.22477 10.7529Z"/>
<path fill="white" d="M10.4207 12.0823H10.876C10.9611 12.0823 11.0335 12.154 11.0335 12.248V12.7359C11.0335 12.8254 10.9654 12.9015 10.876 12.9015H10.4207C10.3355 12.9015 10.2632 12.8299 10.2632 12.7359V12.2435C10.2632 12.154 10.3355 12.0823 10.4207 12.0823Z"/>
</g>
</g>
</g>
<defs>
<clipPath id="clip0_15240_138760">
<rect fill="white" width="24" height="24" transform="translate(0 0.22583)"/>
</clipPath>
<clipPath id="clip1_15240_138760">
<rect fill="white" width="13.7085" height="13.71" transform="translate(0 5.32581)"/>
</clipPath>
<clipPath id="clip2_15240_138760">
<rect fill="white" width="10.8525" height="2.85593" transform="translate(1.42798 10.7529)"/>
</clipPath>
</defs>
<metadata symbolName="UMAUSD" fileName="umausd.svg" id="grimlock-metadata-id" lastUpdate="2025-02-10T09:58:22.674385983" symbolId="1455"/></svg>