<?xml version="1.0" encoding="UTF-8" standalone="no"?><svg xmlns="http://www.w3.org/2000/svg" xmlns:xlink="http://www.w3.org/1999/xlink" contentScriptType="text/ecmascript" fill="none" width="24" zoomAndPan="magnify" contentStyleType="text/css" viewBox="0 0 24 25" height="25" preserveAspectRatio="xMidYMid meet" version="1.0">
<g clip-path="url(#clip0_15240_138840)">
<circle fill="#BD3D44" r="6.85714" cx="17.1429" cy="12.926"/>
<path fill="white" clip-rule="evenodd" d="M13.4485 7.14587C12.994 7.43667 12.576 7.77961 12.2031 8.16625H22.0752C21.7022 7.77961 21.2843 7.43667 20.8298 7.14587H13.4485ZM10.7767 10.364C10.9318 9.97917 11.1208 9.61166 11.34 9.26515H22.9383C23.1575 9.61166 23.3465 9.97917 23.5016 10.364H10.7767ZM10.4384 11.4629C10.3718 11.7697 10.3256 12.0842 10.3015 12.4048H23.9768C23.9527 12.0842 23.9065 11.7697 23.8398 11.4629H10.4384ZM10.4509 14.4456C10.377 14.1189 10.3264 13.7834 10.301 13.4409H23.9772C23.9518 13.7834 23.9012 14.1189 23.8273 14.4456H10.4509ZM10.7997 15.5445C10.959 15.9298 11.1524 16.2973 11.3761 16.6435H22.9022C23.1259 16.2973 23.3193 15.9298 23.4786 15.5445H10.7997ZM13.4139 18.6841C12.9949 18.4124 12.6074 18.0963 12.2582 17.7424H22.0201C21.6708 18.0963 21.2833 18.4124 20.8643 18.6841H13.4139ZM17.0789 19.783C17.0989 19.7832 17.119 19.7832 17.1391 19.7832C17.1592 19.7832 17.1793 19.7832 17.1994 19.783H17.0789Z" fill-rule="evenodd"/>
<path fill="#00418E" clip-rule="evenodd" d="M10.3053 13.4472C10.2923 13.2751 10.2858 13.1013 10.2858 12.926C10.2858 9.1389 13.3558 6.06885 17.1429 6.06885C17.4256 6.06885 17.7043 6.08596 17.9781 6.11919V13.4472H10.3053Z" fill-rule="evenodd"/>
<path fill="white" clip-rule="evenodd" d="M13.7967 6.94997C13.7572 6.97228 13.7179 6.99498 13.6788 7.01806L13.8638 7.15029L13.7967 6.94997ZM13.0801 7.41547C12.9415 7.51828 12.807 7.62619 12.6767 7.73892L12.7214 7.70743L12.9734 7.88689L12.8776 7.59493L13.1323 7.41547H13.0801ZM12.0093 8.40128C11.9783 8.43647 11.9478 8.47198 11.9176 8.50781L12.0831 8.62618L12.0093 8.40128ZM10.798 10.3672C10.7784 10.4159 10.7594 10.4648 10.7409 10.514L10.7874 10.5467L10.6887 10.8414L10.9435 10.6592L11.1983 10.8414L11.0997 10.5494L11.3544 10.3699H11.0421L10.9435 10.078L10.8476 10.3672H10.798ZM15.3842 6.38422L15.4828 6.67618H15.7951L15.543 6.85564L15.6389 7.15029L15.3842 6.96814L15.1321 7.14761L15.228 6.85564L14.976 6.67618H15.2883L15.3842 6.38422ZM17.1621 6.38422L17.2579 6.67618H17.573L17.3182 6.85564L17.4168 7.15029L17.1621 6.96814L16.9073 7.14761L17.0059 6.85564L16.7511 6.67618H17.0662L17.1621 6.38422ZM14.4966 7.1235L14.5952 7.41547H14.9075L14.6527 7.59493L14.7513 7.88689L14.4966 7.70743L14.2445 7.88689L14.3404 7.59493L14.0857 7.41547H14.4034L14.4966 7.1235ZM16.2745 7.1235L16.3704 7.41547H16.6854L16.4306 7.59493L16.5265 7.88689L16.2745 7.70743L16.0197 7.88689L16.1156 7.59493L15.8636 7.41547H16.1759L16.2745 7.1235ZM13.609 7.86011L13.7049 8.15475H14.0199L13.7651 8.33422L13.8638 8.62618L13.609 8.44404L13.3542 8.62618L13.4528 8.33154L13.1981 8.15207H13.5104L13.609 7.86011ZM15.3842 7.86011L15.4828 8.15475H15.7951L15.543 8.33422L15.6389 8.62618L15.3842 8.44404L15.1321 8.62618L15.228 8.33154L14.976 8.15207H15.2883L15.3842 7.86011ZM17.1621 7.86011L17.2579 8.15475H17.573L17.3182 8.33422L17.4168 8.62618L17.1621 8.44404L16.9073 8.62618L17.0059 8.33154L16.7511 8.15207H17.0662L17.1621 7.86011ZM12.7214 8.59939L12.8173 8.89136H13.1323L12.8776 9.07082L12.9734 9.36546L12.7214 9.18332L12.4666 9.36279L12.5625 9.07082L12.3105 8.89136H12.6228L12.7214 8.59939ZM14.4966 8.59939L14.5952 8.89136H14.9075L14.6555 9.07082L14.7513 9.36546L14.4966 9.18332L14.2445 9.36279L14.3404 9.07082L14.0857 8.89136H14.4034L14.4966 8.59939ZM16.2745 8.59939L16.3704 8.89136H16.6854L16.4306 9.07082L16.5265 9.36546L16.2745 9.18332L16.0197 9.36279L16.1156 9.07082L15.8636 8.89136H16.1759L16.2745 8.59939ZM11.8311 9.33868L11.9297 9.63064H12.2393L11.9872 9.81011L12.0831 10.1047L11.8284 9.92261L11.5763 10.1021L11.6722 9.81011L11.4174 9.63064H11.7325L11.8311 9.33868ZM13.609 9.33868L13.7049 9.63064H14.0199L13.7651 9.81011L13.8638 10.1047L13.609 9.92261L13.3542 10.1021L13.4528 9.81011L13.1981 9.63064H13.5104L13.609 9.33868ZM15.3842 9.33868L15.4828 9.63064H15.7951L15.543 9.81011L15.6389 10.1047L15.3842 9.92261L15.1321 10.1021L15.228 9.81011L14.976 9.63064H15.2883L15.3842 9.33868ZM17.1621 9.33868L17.2579 9.63064H17.573L17.3182 9.81011L17.4168 10.1047L17.1621 9.92261L16.9073 10.1021L17.0059 9.81011L16.7511 9.63064H17.0662L17.1621 9.33868ZM12.7214 10.078L12.8173 10.3699H13.1323L12.8776 10.5494L12.9734 10.8414L12.7214 10.6592L12.4666 10.8414L12.5625 10.5467L12.3105 10.3672H12.6228L12.7214 10.078ZM14.4966 10.078L14.5952 10.3699H14.9075L14.6555 10.5494L14.7513 10.8414L14.4966 10.6592L14.2445 10.8414L14.3404 10.5467L14.0857 10.3672H14.4034L14.4966 10.078ZM16.2745 10.078L16.3704 10.3699H16.6854L16.4306 10.5494L16.5265 10.8414L16.2745 10.6592L16.0197 10.8414L16.1156 10.5467L15.8636 10.3672H16.1759L16.2745 10.078ZM11.8311 10.8146L11.9297 11.1092H12.2393L11.9872 11.2887L12.0831 11.578L11.8284 11.3985L11.5763 11.578L11.6722 11.286L11.4174 11.1065H11.7325L11.8311 10.8146ZM13.609 10.8146L13.7049 11.1092H14.0199L13.7651 11.2887L13.8638 11.578L13.609 11.3985L13.3542 11.578L13.4528 11.286L13.1981 11.1065H13.5104L13.609 10.8146ZM15.3842 10.8146L15.4828 11.1092H15.7951L15.543 11.2887L15.6389 11.578L15.3842 11.3985L15.1321 11.578L15.228 11.286L14.976 11.1065H15.2883L15.3842 10.8146ZM17.1621 10.8146L17.2579 11.1092H17.573L17.3182 11.2887L17.4168 11.578L17.1621 11.3985L16.9073 11.578L17.0059 11.286L16.7511 11.1065H17.0662L17.1621 10.8146ZM10.9435 11.5539L11.0421 11.8458H11.3544L11.0997 12.0253L11.1983 12.3199L10.9435 12.1378L10.6887 12.3172L10.7874 12.0253L10.5326 11.8458H10.8476L10.9435 11.5539ZM12.7214 11.5539L12.8173 11.8458H13.1323L12.8776 12.0253L12.9734 12.3199L12.7214 12.1378L12.4666 12.3172L12.5625 12.0253L12.3105 11.8458H12.6228L12.7214 11.5539ZM14.4966 11.5539L14.5952 11.8458H14.9075L14.6555 12.0253L14.7513 12.3199L14.4966 12.1378L14.2445 12.3172L14.3404 12.0253L14.0857 11.8458H14.4034L14.4966 11.5539ZM16.2745 11.5539L16.3704 11.8458H16.6854L16.4306 12.0253L16.5265 12.3199L16.2745 12.1378L16.0197 12.3172L16.1156 12.0253L15.8636 11.8458H16.1759L16.2745 11.5539ZM11.8311 12.2931L11.9297 12.5851H12.2393L11.9927 12.7646L12.0886 13.0565L11.8338 12.8771L11.5818 13.0565L11.6777 12.7619L11.4229 12.5824H11.738L11.8311 12.2931ZM13.609 12.2931L13.7049 12.5851H14.0199L13.7651 12.7646L13.8638 13.0565L13.609 12.8771L13.3542 13.0565L13.4528 12.7619L13.1981 12.5824H13.5104L13.609 12.2931ZM15.3842 12.2931L15.4828 12.5851H15.7951L15.543 12.7646L15.6389 13.0565L15.3842 12.8771L15.1321 13.0565L15.228 12.7619L14.976 12.5824H15.2883L15.3842 12.2931ZM17.1621 12.2931L17.2579 12.5851H17.573L17.3182 12.7646L17.4168 13.0565L17.1621 12.8771L16.9073 13.0565L17.0059 12.7619L16.7511 12.5824H17.0662L17.1621 12.2931Z" fill-rule="evenodd"/>
<rect rx="6.35423" fill="white" x="0.5" width="12.7085" height="12.71" y="6.526"/>
<rect rx="6.35423" x="0.5" width="12.7085" height="12.71" y="6.526" stroke="#EEEEEE"/>
<g clip-path="url(#clip1_15240_138840)">
<path fill="#FF007A" d="M5.69176 10.5465C5.59911 10.5332 5.59469 10.5288 5.63881 10.5244C5.72264 10.5111 5.91677 10.5288 6.05354 10.5597C6.37121 10.6349 6.65799 10.8294 6.96242 11.1699L7.04183 11.2627L7.15655 11.245C7.64628 11.1655 8.14925 11.2274 8.56839 11.4219C8.6831 11.475 8.864 11.5811 8.88606 11.6076C8.89488 11.6164 8.90812 11.6739 8.91694 11.7314C8.94782 11.9392 8.93459 12.094 8.86841 12.2133C8.83311 12.2797 8.83311 12.2974 8.85517 12.3548C8.87282 12.399 8.92576 12.43 8.9743 12.43C9.08018 12.43 9.19048 12.262 9.24343 12.0276L9.26549 11.9348L9.3052 11.979C9.53021 12.231 9.70669 12.5803 9.73316 12.8279L9.74199 12.8942L9.70228 12.8368C9.6361 12.7351 9.57433 12.6688 9.4905 12.6113C9.34049 12.5096 9.18166 12.4786 8.76252 12.4565C8.38309 12.4344 8.1669 12.4035 7.95512 12.3327C7.59334 12.2133 7.40803 12.0586 6.98007 11.4882C6.79035 11.2362 6.67123 11.0991 6.5521 10.9842C6.29179 10.7322 6.03148 10.5995 5.69176 10.5465Z"/>
<path fill="#FF007A" d="M8.97869 11.108C8.98752 10.94 9.00958 10.8294 9.05811 10.7278C9.07576 10.688 9.0934 10.6526 9.09782 10.6526C9.10223 10.6526 9.0934 10.6835 9.08017 10.7189C9.04487 10.8162 9.04046 10.9532 9.06252 11.108C9.0934 11.307 9.10664 11.3335 9.31842 11.5501C9.41548 11.6518 9.53019 11.7801 9.57431 11.8331L9.64932 11.9304L9.57431 11.8596C9.48166 11.7712 9.26988 11.6032 9.22135 11.5811C9.19047 11.5634 9.18606 11.5634 9.164 11.5855C9.14635 11.6032 9.14194 11.6297 9.14194 11.7579C9.13752 11.9569 9.11105 12.0807 9.04487 12.2089C9.00958 12.2753 9.00516 12.262 9.03605 12.1868C9.05811 12.1293 9.06252 12.1028 9.06252 11.9127C9.06252 11.528 9.0184 11.4352 8.74927 11.2804C8.68309 11.2406 8.56837 11.1832 8.50219 11.1522C8.4316 11.1213 8.37866 11.0947 8.38307 11.0947C8.39189 11.0859 8.6522 11.1611 8.75368 11.2053C8.9081 11.2672 8.93457 11.2716 8.95222 11.2672C8.96545 11.2539 8.97428 11.2185 8.97869 11.108Z"/>
<path fill="#FF007A" d="M5.87257 11.7668C5.68727 11.5103 5.56814 11.1124 5.59461 10.8162L5.60344 10.7233L5.64756 10.7322C5.72697 10.7454 5.86375 10.7985 5.92993 10.8383C6.10641 10.9444 6.18582 11.0903 6.26083 11.4529C6.28289 11.559 6.31377 11.6828 6.32701 11.7226C6.34907 11.7889 6.4329 11.9436 6.50349 12.0409C6.55202 12.1117 6.52114 12.147 6.41084 12.1382C6.24318 12.1205 6.01817 11.9658 5.87257 11.7668Z"/>
<path fill="#FF007A" d="M8.75371 13.6901C7.88013 13.3364 7.57129 13.0313 7.57129 12.514C7.57129 12.4389 7.5757 12.377 7.5757 12.377C7.58011 12.377 7.611 12.4035 7.65071 12.4344C7.82719 12.5759 8.02573 12.6378 8.57723 12.7174C8.8993 12.766 9.08461 12.8014 9.25227 12.8589C9.78612 13.0357 10.117 13.3983 10.1964 13.8891C10.2185 14.0306 10.2053 14.3003 10.17 14.4418C10.1391 14.5523 10.0508 14.7557 10.0288 14.7601C10.0244 14.7601 10.0155 14.738 10.0155 14.7026C10.0067 14.5169 9.91407 14.3401 9.75965 14.203C9.57434 14.0438 9.33609 13.9245 8.75371 13.6901Z"/>
<path fill="#FF007A" d="M8.13601 13.836C8.12718 13.7697 8.10512 13.6857 8.09189 13.6503L8.06983 13.584L8.10954 13.6326C8.16689 13.6989 8.21101 13.7785 8.25072 13.8891C8.28161 13.9731 8.28161 13.9996 8.28161 14.1367C8.28161 14.2693 8.27719 14.3003 8.25072 14.3754C8.2066 14.4948 8.15366 14.5788 8.06542 14.6717C7.90658 14.8353 7.69922 14.9237 7.40362 14.9635C7.35067 14.9679 7.20066 14.9812 7.0683 14.99C6.7374 15.0077 6.5168 15.0431 6.31826 15.1138C6.29179 15.1226 6.26532 15.1315 6.2609 15.1271C6.25208 15.1182 6.38885 15.0386 6.49915 14.9856C6.65357 14.9104 6.81241 14.8706 7.16095 14.8087C7.33302 14.7822 7.5095 14.7468 7.55362 14.7291C7.99041 14.5921 8.2066 14.2516 8.13601 13.836Z"/>
<path fill="#FF007A" d="M8.5375 14.5479C8.42279 14.2959 8.39632 14.0571 8.45809 13.8316C8.46691 13.8095 8.47574 13.7874 8.48456 13.7874C8.49338 13.7874 8.51986 13.8007 8.54633 13.8184C8.59927 13.8537 8.70957 13.9156 8.99194 14.0704C9.34931 14.2649 9.55227 14.4153 9.69345 14.5877C9.81699 14.738 9.89199 14.9105 9.92729 15.1227C9.94935 15.2421 9.93611 15.5295 9.90523 15.6488C9.80816 16.0247 9.58756 16.3253 9.26549 16.4978C9.21695 16.5243 9.17725 16.542 9.17283 16.542C9.16842 16.542 9.18607 16.4978 9.21254 16.4447C9.31843 16.2192 9.33167 16.0026 9.25225 15.7594C9.20372 15.609 9.10224 15.4278 8.89929 15.1227C8.65663 14.769 8.59927 14.6761 8.5375 14.5479Z"/>
<path fill="#FF007A" d="M5.25049 15.9008C5.57698 15.6267 5.97847 15.4322 6.34908 15.3703C6.50791 15.3437 6.77263 15.3526 6.91823 15.3924C7.15207 15.4543 7.36384 15.5869 7.47414 15.7505C7.58003 15.9097 7.62856 16.0467 7.6771 16.3518C7.69474 16.4712 7.7168 16.595 7.72122 16.6215C7.75651 16.7807 7.8271 16.9045 7.91534 16.9708C8.05212 17.0725 8.29037 17.0769 8.5242 16.9885C8.56391 16.9752 8.59921 16.962 8.59921 16.9664C8.60803 16.9752 8.48891 17.0548 8.40949 17.0946C8.29919 17.1521 8.21095 17.1698 8.09183 17.1698C7.88005 17.1698 7.69916 17.0593 7.55356 16.8382C7.52268 16.794 7.46091 16.6657 7.40796 16.5464C7.25354 16.1882 7.17413 16.0821 6.99323 15.9627C6.8344 15.861 6.63145 15.8389 6.47703 15.9141C6.27408 16.0114 6.22113 16.2722 6.36232 16.4314C6.41967 16.4977 6.52556 16.5508 6.6138 16.5641C6.77705 16.5862 6.91823 16.4579 6.91823 16.2943C6.91823 16.1882 6.87852 16.1263 6.77263 16.0777C6.63145 16.0158 6.47703 16.0865 6.48144 16.2236C6.48144 16.2811 6.50791 16.3165 6.56527 16.343C6.60056 16.3607 6.60056 16.3607 6.57409 16.3562C6.44614 16.3297 6.41526 16.1705 6.51674 16.0689C6.64027 15.9451 6.90058 15.9981 6.98882 16.1705C7.02412 16.2413 7.02853 16.3828 6.99765 16.4712C6.92264 16.6657 6.71087 16.7674 6.49468 16.71C6.34908 16.6702 6.28731 16.6304 6.11083 16.4491C5.80199 16.1308 5.68287 16.0689 5.24167 16.0025L5.15784 15.9893L5.25049 15.9008Z"/>
<path fill="#FF007A" clip-rule="evenodd" d="M2.92962 8.78674C3.95762 10.038 5.54153 11.9834 5.62095 12.0896C5.68713 12.178 5.66066 12.262 5.55036 12.3239C5.48859 12.3593 5.36064 12.3946 5.29887 12.3946C5.22828 12.3946 5.14445 12.3593 5.0871 12.3018C5.04739 12.262 4.87532 12.01 4.48706 11.4042C4.19146 10.94 3.93997 10.5553 3.93556 10.5509C3.91791 10.5421 3.91791 10.5421 4.45618 11.5059C4.7959 12.1117 4.9062 12.3283 4.9062 12.3548C4.9062 12.4123 4.88856 12.4433 4.81796 12.5229C4.69884 12.6555 4.6459 12.8058 4.60619 13.1198C4.56207 13.469 4.44294 13.7166 4.10322 14.1367C3.90468 14.3843 3.87379 14.4285 3.82526 14.5302C3.76349 14.654 3.74585 14.7247 3.73702 14.8839C3.7282 15.0519 3.74585 15.158 3.79438 15.3172C3.8385 15.4587 3.88703 15.5515 4.00615 15.7328C4.10763 15.892 4.1694 16.0114 4.1694 16.0556C4.1694 16.091 4.17822 16.091 4.33706 16.0556C4.71649 15.9672 5.02974 15.8168 5.20181 15.6311C5.3077 15.5162 5.33417 15.4543 5.33417 15.2951C5.33417 15.1934 5.32976 15.1713 5.30329 15.1094C5.25917 15.0121 5.17534 14.9325 4.99445 14.8087C4.7562 14.6451 4.65472 14.5125 4.62825 14.3356C4.60619 14.1853 4.63266 14.0836 4.76502 13.8051C4.90179 13.5177 4.93709 13.3983 4.95915 13.1065C4.97239 12.9208 4.99445 12.8456 5.04739 12.7881C5.10475 12.7262 5.15328 12.7041 5.29005 12.6865C5.51506 12.6555 5.66066 12.598 5.77537 12.4875C5.87685 12.3946 5.92097 12.3018 5.92538 12.1647L5.92979 12.063L5.87244 12.0011C5.66507 11.7624 2.79285 8.59662 2.77962 8.59662C2.7752 8.59662 2.8458 8.68063 2.92962 8.78674ZM4.28411 15.074C4.33264 14.99 4.30617 14.8839 4.22676 14.8308C4.15175 14.7822 4.03704 14.8043 4.03704 14.8706C4.03704 14.8883 4.04586 14.906 4.07233 14.9149C4.11204 14.937 4.11645 14.9591 4.08557 15.0077C4.05469 15.0563 4.05469 15.1006 4.09439 15.1315C4.15616 15.1801 4.23999 15.1536 4.28411 15.074Z" fill-rule="evenodd"/>
<path fill="#FF007A" clip-rule="evenodd" d="M6.0711 12.7484C5.96521 12.7793 5.86373 12.8943 5.83285 13.0092C5.8152 13.08 5.82402 13.2082 5.85491 13.248C5.90344 13.3099 5.94756 13.3276 6.0711 13.3276C6.31376 13.3276 6.52112 13.2215 6.54318 13.0932C6.56524 12.9871 6.47259 12.8412 6.34464 12.7749C6.27846 12.7395 6.14169 12.7262 6.0711 12.7484ZM6.35346 12.9694C6.38876 12.9164 6.37552 12.8589 6.30934 12.8191C6.19022 12.7439 6.00933 12.8058 6.00933 12.9208C6.00933 12.9783 6.10198 13.0402 6.19022 13.0402C6.24758 13.0402 6.32699 13.0048 6.35346 12.9694Z" fill-rule="evenodd"/>
</g>
</g>
<defs>
<clipPath id="clip0_15240_138840">
<rect fill="white" width="24" height="24" transform="translate(0 0.926025)"/>
</clipPath>
<clipPath id="clip1_15240_138840">
<rect fill="white" width="7.42542" height="8.56875" transform="translate(2.77979 8.59662)"/>
</clipPath>
</defs>
<metadata symbolName="UNIUSD" fileName="uniusd.svg" id="grimlock-metadata-id" lastUpdate="2025-02-10T09:58:22.674391333" symbolId="1456"/></svg>