<?xml version="1.0" encoding="UTF-8" standalone="no"?><svg xmlns="http://www.w3.org/2000/svg" xmlns:xlink="http://www.w3.org/1999/xlink" contentScriptType="text/ecmascript" fill="none" width="24" zoomAndPan="magnify" contentStyleType="text/css" viewBox="0 0 24 24" height="24" preserveAspectRatio="xMidYMid meet" version="1.0">
<g clip-path="url(#clip0_15235_118657)">
<circle fill="#BD3D44" r="11" cx="12" cy="11"/>
<path fill="white" clip-rule="evenodd" d="M6.07348 1.72766C5.34439 2.19415 4.67397 2.74428 4.07574 3.36451H19.9121C19.3139 2.74428 18.6435 2.19415 17.9144 1.72766H6.07348ZM1.78749 6.89005C2.03631 6.27274 2.33951 5.68319 2.69116 5.12733H21.2967C21.6484 5.68319 21.9516 6.27274 22.2004 6.89005H1.78749ZM1.24492 8.65287C1.13795 9.14505 1.06392 9.64951 1.02525 10.1638H22.9626C22.924 9.64951 22.8499 9.14505 22.743 8.65287H1.24492ZM1.26495 13.4376C1.1464 12.9136 1.06526 12.3754 1.02448 11.8259H22.9634C22.9226 12.3754 22.8415 12.9136 22.7229 13.4376H1.26495ZM1.82436 15.2005C2.07991 15.8185 2.39015 16.4082 2.74906 16.9634H21.2388C21.5977 16.4082 21.908 15.8185 22.1635 15.2005H1.82436ZM6.01826 20.237C5.34605 19.8012 4.72441 19.294 4.16407 18.7262H19.8238C19.2635 19.294 18.6418 19.8012 17.9696 20.237H6.01826ZM11.9119 21.9998C11.9392 22 11.9666 22.0001 11.9939 22.0001C12.0213 22.0001 12.0487 22 12.076 21.9998H11.9119Z" fill-rule="evenodd"/>
<path fill="#00418E" clip-rule="evenodd" d="M1.0313 11.8361C1.01056 11.5601 1 11.2813 1 11C1 4.92487 5.92487 0 12 0C12.4535 0 12.9006 0.0274451 13.3397 0.0807651V11.8361H1.0313Z" fill-rule="evenodd"/>
<path fill="white" clip-rule="evenodd" d="M6.63213 1.41343C6.56869 1.44923 6.50564 1.48564 6.44299 1.52265L6.73969 1.73477L6.63213 1.41343ZM5.48259 2.16016C5.26032 2.32506 5.04448 2.49815 4.83553 2.67898L4.90717 2.62851L5.31146 2.91641L5.15766 2.44805L5.56635 2.16016H5.48259ZM3.76477 3.74158C3.71516 3.79803 3.66611 3.855 3.61765 3.91246L3.88324 4.10234L3.76477 3.74158ZM1.82164 6.89531C1.79024 6.97333 1.75971 7.05178 1.73006 7.13067L1.80463 7.1832L1.64642 7.65586L2.05512 7.36367L2.46381 7.65586L2.3056 7.1875L2.71429 6.89961H2.21332L2.05512 6.43125L1.90131 6.89531H1.82164ZM9.17865 0.505859L9.33685 0.974219H9.83783L9.43354 1.26211L9.58734 1.73477L9.17865 1.44258L8.77436 1.73047L8.92816 1.26211L8.52387 0.974219H9.02484L9.17865 0.505859ZM12.0307 0.505859L12.1845 0.974219H12.6899L12.2812 1.26211L12.4394 1.73477L12.0307 1.44258L11.622 1.73047L11.7802 1.26211L11.3715 0.974219H11.8769L12.0307 0.505859ZM7.75482 1.6918L7.91303 2.16016H8.414L8.00531 2.44805L8.16351 2.91641L7.75482 2.62851L7.35053 2.91641L7.50433 2.44805L7.09564 2.16016H7.60541L7.75482 1.6918ZM10.6069 1.6918L10.7607 2.16016H11.2661L10.8574 2.44805L11.0112 2.91641L10.6069 2.62851L10.1982 2.91641L10.352 2.44805L9.94769 2.16016H10.4487L10.6069 1.6918ZM6.331 2.87344L6.4848 3.34609H6.99018L6.58148 3.63398L6.73969 4.10234L6.331 3.81015L5.9223 4.10234L6.08051 3.62969L5.67182 3.3418H6.17279L6.331 2.87344ZM9.17865 2.87344L9.33685 3.34609H9.83783L9.43354 3.63398L9.58734 4.10234L9.17865 3.81015L8.77436 4.10234L8.92816 3.62969L8.52387 3.3418H9.02484L9.17865 2.87344ZM12.0307 2.87344L12.1845 3.34609H12.6899L12.2812 3.63398L12.4394 4.10234L12.0307 3.81015L11.622 4.10234L11.7802 3.62969L11.3715 3.3418H11.8769L12.0307 2.87344ZM4.90717 4.05937L5.06098 4.52773H5.56635L5.15766 4.81562L5.31146 5.28828L4.90717 4.99609L4.49847 5.28398L4.65228 4.81562L4.24799 4.52773H4.74896L4.90717 4.05937ZM7.75482 4.05937L7.91303 4.52773H8.414L8.00971 4.81562L8.16351 5.28828L7.75482 4.99609L7.35053 5.28398L7.50433 4.81562L7.09564 4.52773H7.60541L7.75482 4.05937ZM10.6069 4.05937L10.7607 4.52773H11.2661L10.8574 4.81562L11.0112 5.28828L10.6069 4.99609L10.1982 5.28398L10.352 4.81562L9.94769 4.52773H10.4487L10.6069 4.05937ZM3.47894 5.24531L3.63715 5.71367H4.13373L3.72943 6.00156L3.88324 6.47422L3.47455 6.18203L3.07025 6.46992L3.22406 6.00156L2.81537 5.71367H3.32074L3.47894 5.24531ZM6.331 5.24531L6.4848 5.71367H6.99018L6.58148 6.00156L6.73969 6.47422L6.331 6.18203L5.9223 6.46992L6.08051 6.00156L5.67182 5.71367H6.17279L6.331 5.24531ZM9.17865 5.24531L9.33685 5.71367H9.83783L9.43354 6.00156L9.58734 6.47422L9.17865 6.18203L8.77436 6.46992L8.92816 6.00156L8.52387 5.71367H9.02484L9.17865 5.24531ZM12.0307 5.24531L12.1845 5.71367H12.6899L12.2812 6.00156L12.4394 6.47422L12.0307 6.18203L11.622 6.46992L11.7802 6.00156L11.3715 5.71367H11.8769L12.0307 5.24531ZM4.90717 6.43125L5.06098 6.89961H5.56635L5.15766 7.1875L5.31146 7.65586L4.90717 7.36367L4.49847 7.65586L4.65228 7.1832L4.24799 6.89531H4.74896L4.90717 6.43125ZM7.75482 6.43125L7.91303 6.89961H8.414L8.00971 7.1875L8.16351 7.65586L7.75482 7.36367L7.35053 7.65586L7.50433 7.1832L7.09564 6.89531H7.60541L7.75482 6.43125ZM10.6069 6.43125L10.7607 6.89961H11.2661L10.8574 7.1875L11.0112 7.65586L10.6069 7.36367L10.1982 7.65586L10.352 7.1832L9.94769 6.89531H10.4487L10.6069 6.43125ZM3.47894 7.61289L3.63715 8.08554H4.13373L3.72943 8.37343L3.88324 8.8375L3.47455 8.5496L3.07025 8.8375L3.22406 8.36914L2.81537 8.08125H3.32074L3.47894 7.61289ZM6.331 7.61289L6.4848 8.08554H6.99018L6.58148 8.37343L6.73969 8.8375L6.331 8.5496L5.9223 8.8375L6.08051 8.36914L5.67182 8.08125H6.17279L6.331 7.61289ZM9.17865 7.61289L9.33685 8.08554H9.83783L9.43354 8.37343L9.58734 8.8375L9.17865 8.5496L8.77436 8.8375L8.92816 8.36914L8.52387 8.08125H9.02484L9.17865 7.61289ZM12.0307 7.61289L12.1845 8.08554H12.6899L12.2812 8.37343L12.4394 8.8375L12.0307 8.5496L11.622 8.8375L11.7802 8.36914L11.3715 8.08125H11.8769L12.0307 7.61289ZM2.05512 8.79882L2.21332 9.26718H2.71429L2.3056 9.55507L2.46381 10.0277L2.05512 9.73554L1.64642 10.0234L1.80463 9.55507L1.39594 9.26718H1.90131L2.05512 8.79882ZM4.90717 8.79882L5.06098 9.26718H5.56635L5.15766 9.55507L5.31146 10.0277L4.90717 9.73554L4.49847 10.0234L4.65228 9.55507L4.24799 9.26718H4.74896L4.90717 8.79882ZM7.75482 8.79882L7.91303 9.26718H8.414L8.00971 9.55507L8.16351 10.0277L7.75482 9.73554L7.35053 10.0234L7.50433 9.55507L7.09564 9.26718H7.60541L7.75482 8.79882ZM10.6069 8.79882L10.7607 9.26718H11.2661L10.8574 9.55507L11.0112 10.0277L10.6069 9.73554L10.1982 10.0234L10.352 9.55507L9.94769 9.26718H10.4487L10.6069 8.79882ZM3.47894 9.98476L3.63715 10.4531H4.13373L3.73822 10.741L3.89203 11.2094L3.48334 10.9215L3.07904 11.2094L3.23285 10.7367L2.82416 10.4488H3.32953L3.47894 9.98476ZM6.331 9.98476L6.4848 10.4531H6.99018L6.58148 10.741L6.73969 11.2094L6.331 10.9215L5.9223 11.2094L6.08051 10.7367L5.67182 10.4488H6.17279L6.331 9.98476ZM9.17865 9.98476L9.33685 10.4531H9.83783L9.43354 10.741L9.58734 11.2094L9.17865 10.9215L8.77436 11.2094L8.92816 10.7367L8.52387 10.4488H9.02484L9.17865 9.98476ZM12.0307 9.98476L12.1845 10.4531H12.6899L12.2812 10.741L12.4394 11.2094L12.0307 10.9215L11.622 11.2094L11.7802 10.7367L11.3715 10.4488H11.8769L12.0307 9.98476Z" fill-rule="evenodd"/>
<g filter="url(#filter0_d_15235_118657)">
<rect rx="1.18155" fill="#292929" width="24" y="16.5002" height="7.5"/>
</g>
<path fill="white" d="M4.28 22.8433C5.30667 22.8433 6.06667 22.23 6.06667 21.2233V18.0833H5.14667V21.15C5.14667 21.6033 4.90667 21.9433 4.28 21.9433C3.65333 21.9433 3.41333 21.6033 3.41333 21.15V18.0833H2.5V21.2233C2.5 22.23 3.26 22.8433 4.28 22.8433Z"/>
<path fill="white" d="M8.62214 22.8433C9.61547 22.8433 10.3155 22.31 10.3155 21.4367C10.3155 20.4833 9.5288 20.2367 8.7888 20.0033C8.08214 19.79 7.90214 19.6367 7.90214 19.35C7.90214 19.0833 8.1288 18.8833 8.51547 18.8833C8.9888 18.8833 9.24214 19.13 9.4088 19.4833L10.1821 19.0367C9.8688 18.3833 9.28214 17.99 8.51547 17.99C7.71547 17.99 6.98214 18.4967 6.98214 19.3767C6.98214 20.2633 7.67547 20.5633 8.3888 20.77C9.08214 20.97 9.39547 21.1033 9.39547 21.45C9.39547 21.71 9.20214 21.9433 8.6488 21.9433C8.0688 21.9433 7.74214 21.6633 7.57547 21.23L6.7888 21.69C7.04214 22.3833 7.6688 22.8433 8.62214 22.8433Z"/>
<path fill="white" d="M11.9155 18.0833L10.6889 18.5167L10.9155 19.3033L11.7955 19.0567V22.75H12.7155V18.0833H11.9155Z"/>
<path fill="white" d="M15.427 22.8433C16.6203 22.8433 17.2936 21.8567 17.2936 20.4167C17.2936 18.9767 16.6203 17.99 15.427 17.99C14.2403 17.99 13.5603 18.9767 13.5603 20.4167C13.5603 21.8567 14.2403 22.8433 15.427 22.8433ZM15.427 21.9433C14.8003 21.9433 14.4803 21.4033 14.4803 20.4167C14.4803 19.43 14.8003 18.8833 15.427 18.8833C16.0536 18.8833 16.3803 19.43 16.3803 20.4167C16.3803 21.4033 16.0536 21.9433 15.427 21.9433Z"/>
<path fill="white" d="M19.7595 22.8433C20.9529 22.8433 21.6262 21.8567 21.6262 20.4167C21.6262 18.9767 20.9529 17.99 19.7595 17.99C18.5729 17.99 17.8929 18.9767 17.8929 20.4167C17.8929 21.8567 18.5729 22.8433 19.7595 22.8433ZM19.7595 21.9433C19.1329 21.9433 18.8129 21.4033 18.8129 20.4167C18.8129 19.43 19.1329 18.8833 19.7595 18.8833C20.3862 18.8833 20.7129 19.43 20.7129 20.4167C20.7129 21.4033 20.3862 21.9433 19.7595 21.9433Z"/>
</g>
<defs>
<filter color-interpolation-filters="sRGB" x="-1" y="15.0002" width="26" filterUnits="userSpaceOnUse" xlink:type="simple" xlink:actuate="onLoad" height="9.5" id="filter0_d_15235_118657" xlink:show="other">
<feFlood result="BackgroundImageFix" flood-opacity="0"/>
<feColorMatrix values="0 0 0 0 0 0 0 0 0 0 0 0 0 0 0 0 0 0 127 0" type="matrix" result="hardAlpha" in="SourceAlpha"/>
<feOffset dy="-0.5"/>
<feGaussianBlur stdDeviation="0.5"/>
<feComposite in2="hardAlpha" operator="out"/>
<feColorMatrix values="0 0 0 0 0 0 0 0 0 0 0 0 0 0 0 0 0 0 0.25 0" type="matrix"/>
<feBlend result="effect1_dropShadow_15235_118657" in2="BackgroundImageFix" mode="normal"/>
<feBlend in2="effect1_dropShadow_15235_118657" mode="normal" result="shape" in="SourceGraphic"/>
</filter>
<clipPath id="clip0_15235_118657">
<rect fill="white" height="24" width="24"/>
</clipPath>
</defs>
<metadata symbolName="US100Cash" fileName="us100cash.svg" id="grimlock-metadata-id" lastUpdate="2025-02-10T09:58:22.674401364" symbolId="79"/></svg>