<?xml version="1.0" encoding="UTF-8" standalone="no"?><svg xmlns="http://www.w3.org/2000/svg" xmlns:xlink="http://www.w3.org/1999/xlink" contentScriptType="text/ecmascript" fill="none" width="24" zoomAndPan="magnify" contentStyleType="text/css" viewBox="0 0 24 24" height="24" preserveAspectRatio="xMidYMid meet" version="1.0">
<g clip-path="url(#clip0_15235_118661)">
<circle fill="#BD3D44" r="11" cx="12" cy="11"/>
<path fill="white" clip-rule="evenodd" d="M6.07342 1.72766C5.34433 2.19415 4.6739 2.74428 4.07568 3.36451H19.9121C19.3139 2.74428 18.6434 2.19415 17.9143 1.72766H6.07342ZM1.78743 6.89005C2.03625 6.27274 2.33945 5.68319 2.6911 5.12733H21.2967C21.6483 5.68319 21.9515 6.27274 22.2003 6.89005H1.78743ZM1.24486 8.65287C1.13789 9.14505 1.06386 9.64951 1.02519 10.1638H22.9626C22.9239 9.64951 22.8499 9.14505 22.7429 8.65287H1.24486ZM1.26489 13.4376C1.14634 12.9136 1.0652 12.3754 1.02441 11.8259H22.9633C22.9226 12.3754 22.8414 12.9136 22.7229 13.4376H1.26489ZM1.8243 15.2005C2.07985 15.8185 2.39009 16.4082 2.749 16.9634H21.2388C21.5977 16.4082 21.9079 15.8185 22.1635 15.2005H1.8243ZM6.0182 20.237C5.34599 19.8012 4.72434 19.294 4.16401 18.7262H19.8238C19.2634 19.294 18.6418 19.8012 17.9696 20.237H6.0182ZM11.9119 21.9998C11.9392 22 11.9665 22.0001 11.9939 22.0001C12.0212 22.0001 12.0486 22 12.0759 21.9998H11.9119Z" fill-rule="evenodd"/>
<path fill="#00418E" clip-rule="evenodd" d="M1.0313 11.8361C1.01056 11.5601 1 11.2813 1 11C1 4.92487 5.92487 0 12 0C12.4535 0 12.9006 0.0274451 13.3397 0.0807651V11.8361H1.0313Z" fill-rule="evenodd"/>
<path fill="white" clip-rule="evenodd" d="M6.63219 1.41343C6.56875 1.44923 6.5057 1.48564 6.44305 1.52265L6.73975 1.73477L6.63219 1.41343ZM5.48265 2.16016C5.26038 2.32506 5.04454 2.49815 4.83559 2.67898L4.90723 2.62851L5.31152 2.91641L5.15772 2.44805L5.56641 2.16016H5.48265ZM3.76483 3.74158C3.71522 3.79803 3.66618 3.855 3.61771 3.91246L3.8833 4.10234L3.76483 3.74158ZM1.8217 6.89531C1.7903 6.97333 1.75977 7.05178 1.73012 7.13067L1.80469 7.1832L1.64648 7.65586L2.05518 7.36367L2.46387 7.65586L2.30566 7.1875L2.71436 6.89961H2.21338L2.05518 6.43125L1.90137 6.89531H1.8217ZM9.17871 0.505859L9.33692 0.974219H9.83789L9.4336 1.26211L9.5874 1.73477L9.17871 1.44258L8.77442 1.73047L8.92822 1.26211L8.52393 0.974219H9.0249L9.17871 0.505859ZM12.0308 0.505859L12.1846 0.974219H12.6899L12.2813 1.26211L12.4395 1.73477L12.0308 1.44258L11.6221 1.73047L11.7803 1.26211L11.3716 0.974219H11.877L12.0308 0.505859ZM7.75488 1.6918L7.91309 2.16016H8.41406L8.00537 2.44805L8.16358 2.91641L7.75488 2.62851L7.35059 2.91641L7.5044 2.44805L7.0957 2.16016H7.60547L7.75488 1.6918ZM10.6069 1.6918L10.7607 2.16016H11.2661L10.8574 2.44805L11.0112 2.91641L10.6069 2.62851L10.1982 2.91641L10.3521 2.44805L9.94775 2.16016H10.4487L10.6069 1.6918ZM6.33106 2.87344L6.48486 3.34609H6.99024L6.58154 3.63398L6.73975 4.10234L6.33106 3.81015L5.92236 4.10234L6.08057 3.62969L5.67188 3.3418H6.17285L6.33106 2.87344ZM9.17871 2.87344L9.33692 3.34609H9.83789L9.4336 3.63398L9.5874 4.10234L9.17871 3.81015L8.77442 4.10234L8.92822 3.62969L8.52393 3.3418H9.0249L9.17871 2.87344ZM12.0308 2.87344L12.1846 3.34609H12.6899L12.2813 3.63398L12.4395 4.10234L12.0308 3.81015L11.6221 4.10234L11.7803 3.62969L11.3716 3.3418H11.877L12.0308 2.87344ZM4.90723 4.05937L5.06104 4.52773H5.56641L5.15772 4.81562L5.31152 5.28828L4.90723 4.99609L4.49854 5.28398L4.65235 4.81562L4.24805 4.52773H4.74902L4.90723 4.05937ZM7.75488 4.05937L7.91309 4.52773H8.41406L8.00977 4.81562L8.16358 5.28828L7.75488 4.99609L7.35059 5.28398L7.5044 4.81562L7.0957 4.52773H7.60547L7.75488 4.05937ZM10.6069 4.05937L10.7607 4.52773H11.2661L10.8574 4.81562L11.0112 5.28828L10.6069 4.99609L10.1982 5.28398L10.3521 4.81562L9.94775 4.52773H10.4487L10.6069 4.05937ZM3.47901 5.24531L3.63721 5.71367H4.13379L3.72949 6.00156L3.8833 6.47422L3.47461 6.18203L3.07031 6.46992L3.22412 6.00156L2.81543 5.71367H3.3208L3.47901 5.24531ZM6.33106 5.24531L6.48486 5.71367H6.99024L6.58154 6.00156L6.73975 6.47422L6.33106 6.18203L5.92236 6.46992L6.08057 6.00156L5.67188 5.71367H6.17285L6.33106 5.24531ZM9.17871 5.24531L9.33692 5.71367H9.83789L9.4336 6.00156L9.5874 6.47422L9.17871 6.18203L8.77442 6.46992L8.92822 6.00156L8.52393 5.71367H9.0249L9.17871 5.24531ZM12.0308 5.24531L12.1846 5.71367H12.6899L12.2813 6.00156L12.4395 6.47422L12.0308 6.18203L11.6221 6.46992L11.7803 6.00156L11.3716 5.71367H11.877L12.0308 5.24531ZM4.90723 6.43125L5.06104 6.89961H5.56641L5.15772 7.1875L5.31152 7.65586L4.90723 7.36367L4.49854 7.65586L4.65235 7.1832L4.24805 6.89531H4.74902L4.90723 6.43125ZM7.75488 6.43125L7.91309 6.89961H8.41406L8.00977 7.1875L8.16358 7.65586L7.75488 7.36367L7.35059 7.65586L7.5044 7.1832L7.0957 6.89531H7.60547L7.75488 6.43125ZM10.6069 6.43125L10.7607 6.89961H11.2661L10.8574 7.1875L11.0112 7.65586L10.6069 7.36367L10.1982 7.65586L10.3521 7.1832L9.94775 6.89531H10.4487L10.6069 6.43125ZM3.47901 7.61289L3.63721 8.08554H4.13379L3.72949 8.37343L3.8833 8.8375L3.47461 8.5496L3.07031 8.8375L3.22412 8.36914L2.81543 8.08125H3.3208L3.47901 7.61289ZM6.33106 7.61289L6.48486 8.08554H6.99024L6.58154 8.37343L6.73975 8.8375L6.33106 8.5496L5.92236 8.8375L6.08057 8.36914L5.67188 8.08125H6.17285L6.33106 7.61289ZM9.17871 7.61289L9.33692 8.08554H9.83789L9.4336 8.37343L9.5874 8.8375L9.17871 8.5496L8.77442 8.8375L8.92822 8.36914L8.52393 8.08125H9.0249L9.17871 7.61289ZM12.0308 7.61289L12.1846 8.08554H12.6899L12.2813 8.37343L12.4395 8.8375L12.0308 8.5496L11.6221 8.8375L11.7803 8.36914L11.3716 8.08125H11.877L12.0308 7.61289ZM2.05518 8.79882L2.21338 9.26718H2.71436L2.30566 9.55507L2.46387 10.0277L2.05518 9.73554L1.64648 10.0234L1.80469 9.55507L1.396 9.26718H1.90137L2.05518 8.79882ZM4.90723 8.79882L5.06104 9.26718H5.56641L5.15772 9.55507L5.31152 10.0277L4.90723 9.73554L4.49854 10.0234L4.65235 9.55507L4.24805 9.26718H4.74902L4.90723 8.79882ZM7.75488 8.79882L7.91309 9.26718H8.41406L8.00977 9.55507L8.16358 10.0277L7.75488 9.73554L7.35059 10.0234L7.5044 9.55507L7.0957 9.26718H7.60547L7.75488 8.79882ZM10.6069 8.79882L10.7607 9.26718H11.2661L10.8574 9.55507L11.0112 10.0277L10.6069 9.73554L10.1982 10.0234L10.3521 9.55507L9.94775 9.26718H10.4487L10.6069 8.79882ZM3.47901 9.98476L3.63721 10.4531H4.13379L3.73828 10.741L3.89209 11.2094L3.4834 10.9215L3.0791 11.2094L3.23291 10.7367L2.82422 10.4488H3.32959L3.47901 9.98476ZM6.33106 9.98476L6.48486 10.4531H6.99024L6.58154 10.741L6.73975 11.2094L6.33106 10.9215L5.92236 11.2094L6.08057 10.7367L5.67188 10.4488H6.17285L6.33106 9.98476ZM9.17871 9.98476L9.33692 10.4531H9.83789L9.4336 10.741L9.5874 11.2094L9.17871 10.9215L8.77442 11.2094L8.92822 10.7367L8.52393 10.4488H9.0249L9.17871 9.98476ZM12.0308 9.98476L12.1846 10.4531H12.6899L12.2813 10.741L12.4395 11.2094L12.0308 10.9215L11.6221 11.2094L11.7803 10.7367L11.3716 10.4488H11.877L12.0308 9.98476Z" fill-rule="evenodd"/>
<g filter="url(#filter0_d_15235_118661)">
<rect rx="1.18155" fill="#292929" width="24" y="16.5002" height="7.5"/>
</g>
<path fill="white" d="M4.2088 22.6592C5.1944 22.6592 5.924 22.0704 5.924 21.104V18.0896H5.0408V21.0336C5.0408 21.4688 4.8104 21.7952 4.2088 21.7952C3.6072 21.7952 3.3768 21.4688 3.3768 21.0336V18.0896H2.5V21.104C2.5 22.0704 3.2296 22.6592 4.2088 22.6592Z"/>
<path fill="white" d="M8.37725 22.6592C9.33085 22.6592 10.0029 22.1472 10.0029 21.3088C10.0029 20.3936 9.24765 20.1568 8.53725 19.9328C7.85885 19.728 7.68605 19.5808 7.68605 19.3056C7.68605 19.0496 7.90365 18.8576 8.27485 18.8576C8.72925 18.8576 8.97245 19.0944 9.13245 19.4336L9.87485 19.0048C9.57405 18.3776 9.01085 18 8.27485 18C7.50685 18 6.80285 18.4864 6.80285 19.3312C6.80285 20.1824 7.46845 20.4704 8.15325 20.6688C8.81885 20.8608 9.11965 20.9888 9.11965 21.3216C9.11965 21.5712 8.93405 21.7952 8.40285 21.7952C7.84605 21.7952 7.53245 21.5264 7.37245 21.1104L6.61725 21.552C6.86045 22.2176 7.46205 22.6592 8.37725 22.6592Z"/>
<path fill="white" d="M12.0829 19.7216H11.6221L11.6797 18.9152H13.4013V18.0896H10.8605L10.6813 20.5792H12.0381C12.4733 20.5792 12.7293 20.8288 12.7293 21.1872C12.7293 21.552 12.4733 21.7952 12.0125 21.7952C11.5645 21.7952 11.3149 21.6032 11.2061 21.2576L10.4509 21.6992C10.7069 22.352 11.3149 22.6592 12.0125 22.6592C12.8573 22.6592 13.6125 22.1472 13.6125 21.1872C13.6125 20.2272 12.9021 19.7216 12.0829 19.7216Z"/>
<path fill="white" d="M15.9037 22.6592C17.0493 22.6592 17.6957 21.712 17.6957 20.3296C17.6957 18.9472 17.0493 18 15.9037 18C14.7645 18 14.1117 18.9472 14.1117 20.3296C14.1117 21.712 14.7645 22.6592 15.9037 22.6592ZM15.9037 21.7952C15.3021 21.7952 14.9949 21.2768 14.9949 20.3296C14.9949 19.3824 15.3021 18.8576 15.9037 18.8576C16.5053 18.8576 16.8189 19.3824 16.8189 20.3296C16.8189 21.2768 16.5053 21.7952 15.9037 21.7952Z"/>
<path fill="white" d="M20.0629 22.6592C21.2085 22.6592 21.8549 21.712 21.8549 20.3296C21.8549 18.9472 21.2085 18 20.0629 18C18.9237 18 18.2709 18.9472 18.2709 20.3296C18.2709 21.712 18.9237 22.6592 20.0629 22.6592ZM20.0629 21.7952C19.4613 21.7952 19.1541 21.2768 19.1541 20.3296C19.1541 19.3824 19.4613 18.8576 20.0629 18.8576C20.6645 18.8576 20.9781 19.3824 20.9781 20.3296C20.9781 21.2768 20.6645 21.7952 20.0629 21.7952Z"/>
</g>
<defs>
<filter color-interpolation-filters="sRGB" x="-1" y="15.0002" width="26" filterUnits="userSpaceOnUse" xlink:type="simple" xlink:actuate="onLoad" height="9.5" id="filter0_d_15235_118661" xlink:show="other">
<feFlood result="BackgroundImageFix" flood-opacity="0"/>
<feColorMatrix values="0 0 0 0 0 0 0 0 0 0 0 0 0 0 0 0 0 0 127 0" type="matrix" result="hardAlpha" in="SourceAlpha"/>
<feOffset dy="-0.5"/>
<feGaussianBlur stdDeviation="0.5"/>
<feComposite in2="hardAlpha" operator="out"/>
<feColorMatrix values="0 0 0 0 0 0 0 0 0 0 0 0 0 0 0 0 0 0 0.25 0" type="matrix"/>
<feBlend result="effect1_dropShadow_15235_118661" in2="BackgroundImageFix" mode="normal"/>
<feBlend in2="effect1_dropShadow_15235_118661" mode="normal" result="shape" in="SourceGraphic"/>
</filter>
<clipPath id="clip0_15235_118661">
<rect fill="white" height="24" width="24"/>
</clipPath>
</defs>
<metadata symbolName="US500Cash" fileName="us500cash.svg" id="grimlock-metadata-id" lastUpdate="2025-02-10T09:58:22.674513650" symbolId="78"/></svg>