<svg width="24" height="24" fill="none" xmlns="http://www.w3.org/2000/svg"><mask id="a" style="mask-type:alpha" maskUnits="userSpaceOnUse" x="4" y="4" width="16" height="16"><path d="M16.5 4H7.5A3.5 3.5 0 0 0 4 7.5v9A3.5 3.5 0 0 0 7.5 20h9a3.5 3.5 0 0 0 3.5-3.5V7.5A3.5 3.5 0 0 0 16.5 4z" fill="#fff"/></mask><g mask="url(#a)"><path fill-rule="evenodd" clip-rule="evenodd" d="M4.836 3.231h14.329c.304.356.537.773.68 1.23H4.156c.143-.457.375-.874.68-1.23zM4 5.693h16v1.23H4v-1.23zm16 2.462H4v1.23h16v-1.23zm-16 2.46h16v1.231H4v-1.23zm16 2.462H4v1.231h16v-1.23zM4.157 15.54h15.687a3.488 3.488 0 0 1-.68 1.231H4.837a3.492 3.492 0 0 1-.68-1.23z" fill="#F5F5F5"/><path fill-rule="evenodd" clip-rule="evenodd" d="M16.5 2H7.5a3.493 3.493 0 0 0-2.665 1.23h14.33A3.492 3.492 0 0 0 16.5 2zM20 6.923H4v1.232h16V6.923zm-.157-2.461c.103.328.157.677.157 1.039v.192H4V5.5c0-.363.054-.71.157-1.04h15.686zM20 9.385H4v1.23h16v-1.23zm0 4.923v.192c0 .363-.054.71-.157 1.04H4.157A3.499 3.499 0 0 1 4 14.5v-.192h16zm-.835 2.461H4.835A3.493 3.493 0 0 0 7.5 18h9a3.493 3.493 0 0 0 2.665-1.23zM4 11.846h16v1.231H4v-1.232.001z" fill="#FA4051"/><path d="M12.533 2H7.467C5.552 2 4 3.568 4 5.5v5.116h8.533V2z" fill="#1939C9"/><path fill-rule="evenodd" clip-rule="evenodd" d="m6.787 2.769.066.2.21.002c.027 0 .039.034.016.05l-.168.125.064.2a.029.029 0 0 1-.044.032l-.17-.123-.171.122a.029.029 0 0 1-.043-.032l.062-.2-.169-.124a.028.028 0 0 1 .017-.05l.21-.002.067-.2a.029.029 0 0 1 .053 0zm-1.86.577a.029.029 0 0 0 .045.032l.17-.123.17.123a.029.029 0 0 0 .044-.032l-.062-.2.168-.124a.029.029 0 0 0 0-.046.029.029 0 0 0-.017-.005l-.209-.002-.036-.107c-.09.078-.176.161-.257.248l.049.037-.064.2zM5.17 4.43l.067.2h.21c.027 0 .038.036.016.052l-.168.124.063.2a.029.029 0 0 1-.043.032l-.17-.123-.171.123a.029.029 0 0 1-.045-.032l.064-.2-.169-.124a.029.029 0 0 1 .016-.052h.21l.067-.2a.029.029 0 0 1 .053 0zm.068 2.04-.067-.2a.029.029 0 0 0-.053 0l-.067.2-.21.001a.029.029 0 0 0-.016.052l.169.124-.064.2a.029.029 0 0 0 .044.032l.17-.123.171.123a.029.029 0 0 0 .044-.032l-.064-.2.17-.124a.029.029 0 0 0-.018-.052l-.209-.002zM5.17 7.962l.067.2.21.001c.027 0 .038.034.016.05l-.168.125.063.2a.029.029 0 0 1-.043.033l-.17-.123-.171.122a.029.029 0 0 1-.045-.032l.064-.2-.169-.125a.029.029 0 0 1 .016-.05l.21-.002.067-.2a.029.029 0 0 1 .053 0zM5.237 9.7l-.067-.2a.029.029 0 0 0-.053 0l-.067.2-.21.002a.029.029 0 0 0-.016.05l.169.125-.064.2a.029.029 0 0 0 .044.033l.17-.123.171.122a.028.028 0 0 0 .033 0 .029.029 0 0 0 .01-.032l-.063-.2.17-.124a.029.029 0 0 0-.018-.05L5.237 9.7zm.74-6.146.067.199.21.002c.027 0 .038.034.017.05l-.17.125.064.2a.029.029 0 0 1-.044.032l-.17-.122-.17.122a.029.029 0 0 1-.044-.032l.063-.2-.17-.124a.028.028 0 0 1 .018-.051l.21-.002.066-.199a.029.029 0 0 1 .053 0zm.067 2.04-.067-.199a.029.029 0 0 0-.053 0l-.066.2h-.21a.029.029 0 0 0-.017.052l.17.125-.065.2a.029.029 0 0 0 .044.031l.17-.122.171.122a.029.029 0 0 0 .043-.032l-.063-.2.17-.124a.029.029 0 0 0-.017-.051l-.21-.001zm-.067 1.55.067.2.21.001c.027 0 .038.035.017.051l-.17.125.064.2a.029.029 0 0 1-.043.033l-.171-.123-.17.122a.029.029 0 0 1-.044-.032l.063-.2-.17-.125a.029.029 0 0 1 .018-.05l.21-.002.066-.2a.029.029 0 0 1 .053 0zm.067 1.771-.068-.196a.029.029 0 0 0-.053 0l-.066.198-.21.003a.029.029 0 0 0-.017.05l.17.124-.065.201a.029.029 0 0 0 .044.032l.17-.123.171.123a.029.029 0 0 0 .043-.032l-.063-.2.17-.124a.029.029 0 0 0-.017-.051l-.21-.003v-.002zm.81-4.288-.066-.2a.029.029 0 0 0-.043-.012.029.029 0 0 0-.01.013l-.067.2h-.21a.029.029 0 0 0-.017.052l.169.124-.063.2a.029.029 0 0 0 .043.032l.17-.123.171.123a.029.029 0 0 0 .045-.032l-.064-.2.168-.124a.029.029 0 0 0-.016-.052h-.21zm-.066 1.643.066.198.21.002c.027 0 .039.036.016.052l-.168.124.064.2a.029.029 0 0 1-.044.032l-.17-.123-.171.123a.029.029 0 0 1-.043-.032l.062-.2-.169-.124a.029.029 0 0 1 .017-.052l.208-.002.068-.198a.029.029 0 0 1 .053 0h.001zm.066 1.891-.066-.2a.029.029 0 0 0-.053 0l-.067.2-.21.002a.029.029 0 0 0-.025.036c.001.006.004.01.008.014l.169.125-.063.2a.029.029 0 0 0 .043.033l.17-.123.171.122a.029.029 0 0 0 .045-.032l-.064-.2.168-.125a.029.029 0 0 0-.016-.05l-.21-.002zm-.066 1.34.066.2.21.001c.027 0 .039.035.016.05l-.168.125.064.2a.029.029 0 0 1-.01.032.029.029 0 0 1-.034 0l-.17-.122-.171.122a.028.028 0 0 1-.032-.002.03.03 0 0 1-.01-.03l.061-.2-.169-.124a.029.029 0 0 1 .017-.05l.208-.003.068-.2a.029.029 0 0 1 .053 0h.001zm.873-5.748-.067-.197a.029.029 0 0 0-.053 0l-.067.199-.21.002a.029.029 0 0 0-.016.051l.168.124-.064.2a.029.029 0 0 0 .045.032l.17-.122.171.122a.029.029 0 0 0 .043-.032l-.063-.2.169-.124a.028.028 0 0 0-.016-.051l-.21-.002v-.002zm-.067 1.642.067.2h.21c.026 0 .038.036.016.052l-.169.125.064.2a.029.029 0 0 1-.044.031l-.17-.122-.17.122a.029.029 0 0 1-.045-.032l.064-.2-.17-.124a.029.029 0 0 1 .018-.051l.209-.002.066-.199a.029.029 0 0 1 .043-.013c.005.003.01.008.011.013zm.067 1.949-.067-.2a.028.028 0 0 0-.053 0l-.067.2-.21.001a.029.029 0 0 0-.016.051l.168.125-.064.2a.029.029 0 0 0 .045.033l.17-.123.171.122a.029.029 0 0 0 .043-.032l-.063-.2.169-.125a.029.029 0 0 0-.016-.05l-.21-.002zm-.067 1.374.067.198.21.002c.026 0 .038.035.016.052l-.169.123.064.2a.029.029 0 0 1-.044.033l-.17-.123-.17.123a.029.029 0 0 1-.045-.032l.064-.2-.17-.124a.029.029 0 0 1 .018-.052l.209-.002.066-.198a.029.029 0 0 1 .043-.013c.005.003.01.008.011.013zm.877-5.75-.066-.2a.029.029 0 0 0-.053 0l-.067.2-.21.002a.028.028 0 0 0-.017.05l.169.125-.064.2a.029.029 0 0 0 .044.032l.17-.123.171.122a.029.029 0 0 0 .044-.032l-.064-.2.17-.124a.028.028 0 0 0 0-.045.028.028 0 0 0-.017-.005l-.21-.001zm-.066 1.46.066.2.21.001c.027 0 .039.036.016.052l-.168.124.064.2a.029.029 0 0 1-.045.032l-.17-.123-.171.123a.029.029 0 0 1-.043-.032l.063-.2-.169-.124a.029.029 0 0 1 .016-.052l.21-.002.067-.198a.029.029 0 0 1 .042-.013c.005.003.01.008.012.013zm.064 2.04-.066-.198a.029.029 0 0 0-.053 0l-.068.198-.21.002a.029.029 0 0 0-.016.052l.169.124-.064.2a.029.029 0 0 0 .044.032l.17-.123.17.123a.029.029 0 0 0 .045-.032l-.064-.2.17-.124a.029.029 0 0 0-.017-.052l-.21-.002zm-.066 1.494.066.2.21.001c.027 0 .039.034.016.05l-.168.125.064.2a.029.029 0 0 1-.045.033l-.17-.123-.171.122a.029.029 0 0 1-.043-.032l.063-.2-.169-.125a.029.029 0 0 1 .016-.05l.21-.002.067-.2a.029.029 0 0 1 .042-.012c.005.003.01.007.012.013zM8.469 9.7l-.066-.2a.029.029 0 0 0-.053 0l-.068.2-.21.002a.029.029 0 0 0-.016.05l.169.125-.064.2a.029.029 0 0 0 .044.033l.17-.123.17.122a.028.028 0 0 0 .034 0 .029.029 0 0 0 .01-.032l-.063-.2.17-.124a.029.029 0 0 0-.017-.05L8.47 9.7zm.74-6.146.068.199.209.002c.027 0 .038.034.017.05l-.169.125.063.202a.029.029 0 0 1-.043.032l-.17-.122-.17.122a.029.029 0 0 1-.045-.032l.063-.2-.168-.124a.029.029 0 0 1 .016-.051l.21-.002.066-.199a.028.028 0 0 1 .053 0v-.002zm.068 2.04-.068-.199a.028.028 0 0 0-.053 0l-.066.2h-.21a.029.029 0 0 0-.016.052l.168.125-.064.2a.029.029 0 0 0 .044.031l.17-.122.171.122a.029.029 0 0 0 .044-.032l-.064-.2.17-.124a.029.029 0 0 0-.017-.051l-.21-.001zm-.068 1.55.068.2.209.001c.027 0 .038.035.017.051l-.169.125.063.2a.029.029 0 0 1-.043.033l-.17-.123-.17.122a.029.029 0 0 1-.045-.032l.063-.2-.168-.125a.029.029 0 0 1 .016-.05l.21-.002.066-.2a.028.028 0 0 1 .053 0zm.068 1.771L9.21 8.72a.028.028 0 0 0-.053 0l-.066.198-.21.003a.029.029 0 0 0-.016.05l.168.124-.064.201a.029.029 0 0 0 .044.032l.17-.123.171.123a.029.029 0 0 0 .044-.032l-.064-.2.17-.124a.029.029 0 0 0-.017-.051l-.21-.003v-.002zm.741-6.148.067.2.21.002c.027 0 .038.034.016.05l-.168.125.063.2a.03.03 0 0 1-.01.03.029.029 0 0 1-.033.002l-.17-.123-.171.122a.029.029 0 0 1-.045-.032l.064-.2-.17-.124a.028.028 0 0 1 .017-.05l.21-.003.067-.199a.028.028 0 0 1 .053 0zm.067 1.86-.067-.2a.029.029 0 0 0-.043-.012.029.029 0 0 0-.01.013l-.067.2h-.21a.029.029 0 0 0-.017.052l.17.124-.064.2a.029.029 0 0 0 .044.032l.17-.123.171.123a.029.029 0 0 0 .032-.002.029.029 0 0 0 .01-.013.03.03 0 0 0 0-.017l-.061-.2.168-.124a.028.028 0 0 0 .01-.015.028.028 0 0 0 0-.017.028.028 0 0 0-.027-.02h-.209zm-.067 1.643.067.198.21.002c.027 0 .038.036.016.052l-.168.124.063.2a.03.03 0 0 1-.01.03.029.029 0 0 1-.033.002l-.17-.123-.171.123a.029.029 0 0 1-.045-.032l.064-.2-.17-.124a.029.029 0 0 1 .017-.052l.21-.002.067-.198a.029.029 0 0 1 .053 0zm.067 1.891-.067-.2a.029.029 0 0 0-.053 0l-.067.2-.21.002a.029.029 0 0 0-.025.036c.001.006.004.01.008.014l.17.125-.064.2a.029.029 0 0 0 .044.033l.17-.123.171.122a.028.028 0 0 0 .032-.002.029.029 0 0 0 .01-.014.03.03 0 0 0 0-.016l-.061-.2.168-.125a.029.029 0 0 0 .008-.03.029.029 0 0 0-.025-.02l-.209-.002zm-.067 1.34.067.2.21.001c.027 0 .038.035.016.05l-.168.125.063.2a.03.03 0 0 1-.01.031.028.028 0 0 1-.032.002l-.172-.123-.17.122a.028.028 0 0 1-.035 0 .029.029 0 0 1-.01-.032l.064-.2-.17-.124a.029.029 0 0 1 .017-.05l.21-.003.067-.2a.029.029 0 0 1 .053 0zm.872-5.748-.064-.197a.03.03 0 0 0-.043-.013.028.028 0 0 0-.01.013l-.066.199-.21.002a.028.028 0 0 0-.026.02.028.028 0 0 0 0 .017c0 .005.004.01.009.014l.17.124-.065.2a.03.03 0 0 0 .011.03.029.029 0 0 0 .032.002l.172-.122.17.122a.029.029 0 0 0 .043-.032l-.063-.2.17-.124a.028.028 0 0 0-.017-.051l-.21-.002-.003-.002zm-.064 1.643.067.2h.21c.027 0 .038.036.017.052l-.17.125.064.2a.029.029 0 0 1-.027.036.029.029 0 0 1-.017-.005l-.17-.122-.17.122a.029.029 0 0 1-.033-.001.028.028 0 0 1-.01-.014.028.028 0 0 1 0-.017l.062-.2-.17-.124a.028.028 0 0 1-.009-.014.028.028 0 0 1 0-.017.028.028 0 0 1 .027-.02l.21-.002.066-.199a.028.028 0 0 1 .043-.013.03.03 0 0 1 .01.013zm.067 1.95-.067-.2a.03.03 0 0 0-.043-.013.028.028 0 0 0-.01.013l-.066.2h-.21a.028.028 0 0 0-.026.02.028.028 0 0 0 0 .017c0 .006.004.01.009.014l.17.125-.065.2a.03.03 0 0 0 .011.031.029.029 0 0 0 .032.002l.172-.123.17.122a.029.029 0 0 0 .043-.032l-.063-.2.17-.125a.029.029 0 0 0 .01-.031.03.03 0 0 0-.027-.02h-.21zm-.067 1.372.067.198.21.002c.027 0 .038.035.017.052l-.17.123.064.2a.029.029 0 0 1-.027.038.029.029 0 0 1-.017-.005l-.17-.123-.17.123a.029.029 0 0 1-.033-.002.028.028 0 0 1-.01-.013.028.028 0 0 1 0-.017l.062-.2-.17-.124a.028.028 0 0 1-.009-.015.028.028 0 0 1 0-.017.028.028 0 0 1 .027-.02l.21-.002.066-.198a.028.028 0 0 1 .043-.013.03.03 0 0 1 .01.013zm.876-5.75-.066-.2a.028.028 0 0 0-.053 0l-.067.2-.21.002a.028.028 0 0 0-.026.018.028.028 0 0 0 .01.032l.168.125-.063.2a.03.03 0 0 0 .01.03.029.029 0 0 0 .033.002l.17-.123.171.122a.029.029 0 0 0 .045-.014.028.028 0 0 0 0-.018l-.064-.2.168-.124a.03.03 0 0 0 .009-.014.03.03 0 0 0-.01-.03.029.029 0 0 0-.015-.006l-.21-.001zm-.066 1.46.066.2.21.001c.027 0 .039.036.016.052l-.168.124.064.2a.029.029 0 0 1-.027.037.029.029 0 0 1-.017-.005l-.17-.123-.171.123a.03.03 0 0 1-.033 0 .03.03 0 0 1-.011-.032l.064-.2-.17-.124a.028.028 0 0 1-.01-.015.028.028 0 0 1 .001-.017.028.028 0 0 1 .027-.02h.209l.067-.2a.029.029 0 0 1 .043-.013.03.03 0 0 1 .01.013zm.065 2.04-.066-.198a.028.028 0 0 0-.043-.013.028.028 0 0 0-.01.013l-.068.198-.209.002a.029.029 0 0 0-.026.02.029.029 0 0 0 .01.032l.168.124-.063.2a.028.028 0 0 0 .01.03.029.029 0 0 0 .033.002l.17-.123.171.123a.028.028 0 0 0 .034 0 .029.029 0 0 0 .01-.032l-.063-.2.168-.124a.029.029 0 0 0 0-.045.028.028 0 0 0-.016-.007l-.21-.002zm-.066 1.494.066.2.21.001c.027 0 .039.034.016.05l-.168.125.064.2a.029.029 0 0 1-.044.032l-.17-.122-.171.122a.029.029 0 0 1-.044-.032l.064-.2-.17-.125a.03.03 0 0 1-.008-.014.03.03 0 0 1 0-.016.03.03 0 0 1 .025-.02l.21-.002.067-.2a.029.029 0 0 1 .053 0zm.066 1.738-.066-.2a.029.029 0 0 0-.043-.013.028.028 0 0 0-.01.014l-.068.2-.209.001a.03.03 0 0 0-.025.02.03.03 0 0 0 0 .016.03.03 0 0 0 .008.015l.169.124-.063.2a.028.028 0 0 0 0 .018.03.03 0 0 0 .01.013.028.028 0 0 0 .032.002l.171-.123.171.122c.005.004.01.006.017.006a.029.029 0 0 0 .028-.038l-.064-.2.168-.124a.03.03 0 0 0 .009-.03.029.029 0 0 0-.025-.02l-.21-.003z" fill="#F5F5F5"/><path fill="#000" d="M4 14h16v6H4z"/><path d="M8.348 15.818h.46v1.417c0 .477-.361.796-.904.796-.544 0-.904-.319-.904-.796v-1.417h.461v1.378c0 .249.176.429.443.429.269 0 .444-.18.444-.43v-1.377zM10.432 16.446c-.017-.172-.152-.272-.373-.272-.226 0-.35.103-.35.244-.003.157.155.227.345.27l.196.047c.38.086.653.279.654.642-.001.4-.314.654-.847.654-.53 0-.867-.244-.879-.716h.447c.014.218.187.33.427.33.234 0 .385-.11.386-.27 0-.146-.133-.215-.37-.272l-.238-.06c-.368-.088-.595-.272-.594-.594-.002-.397.348-.66.826-.66.486 0 .806.268.812.657h-.442zM12.058 18.03c-.451 0-.78-.27-.789-.647h.447c.011.17.16.285.342.285.217 0 .371-.157.371-.384 0-.229-.158-.388-.377-.389a.415.415 0 0 0-.326.147l-.41-.073.103-1.15h1.334v.376h-.954l-.056.547h.013c.076-.108.242-.188.433-.188.393 0 .685.3.684.718.001.441-.329.758-.815.758zM14.11 18.048c-.55-.001-.883-.42-.88-1.137 0-.715.333-1.123.88-1.123.547 0 .883.41.882 1.123-.002.72-.333 1.137-.881 1.137zm0-.382c.25 0 .412-.252.41-.755 0-.495-.161-.745-.41-.745-.249 0-.41.25-.41.745-.002.503.16.755.41.755zM16.236 18.048c-.55-.001-.883-.42-.881-1.137.001-.715.333-1.123.881-1.123.546 0 .882.41.881 1.123-.001.72-.332 1.137-.881 1.137zm0-.382c.25 0 .411-.252.41-.755 0-.495-.162-.745-.41-.745-.25 0-.41.25-.411.745-.001.503.16.755.411.755z" fill="#fff"/></g></svg>