<?xml version="1.0" encoding="UTF-8" standalone="no"?><svg xmlns="http://www.w3.org/2000/svg" xmlns:xlink="http://www.w3.org/1999/xlink" contentScriptType="text/ecmascript" fill="none" width="24" zoomAndPan="magnify" contentStyleType="text/css" viewBox="0 0 24 24" height="24" preserveAspectRatio="xMidYMid meet" version="1.0">
<path fill="#D80027" d="M23.7717 12C23.7717 15.7868 20.7013 18.8571 16.9145 18.8571C13.1274 18.8571 10.0574 15.7871 10.0574 12C10.0574 8.2128 13.1274 5.14282 16.9145 5.14282C20.7017 5.14282 23.7717 8.2128 23.7717 12Z"/>
<path fill="white" d="M20.492 10.8073H18.107V8.42236H15.7221V10.8073H13.3368V13.1922H15.7221V15.5772H18.107V13.1922H20.492V10.8073V10.8073Z"/>
<circle fill="#BD3D44" r="6.85714" cx="6.85714" cy="12"/>
<path fill="white" clip-rule="evenodd" d="M3.16266 6.21985C2.70816 6.51065 2.29024 6.85358 1.91731 7.24022H11.7894C11.4164 6.85358 10.9985 6.51065 10.544 6.21985H3.16266ZM0.490874 9.43796C0.645984 9.05314 0.834992 8.68563 1.0542 8.33912H12.6525C12.8717 8.68563 13.0607 9.05314 13.2158 9.43796H0.490874ZM0.152651 10.5369C0.0859649 10.8437 0.0398151 11.1581 0.0157137 11.4788H13.691C13.6669 11.1581 13.6207 10.8437 13.554 10.5369H0.152651ZM0.165137 13.5196C0.0912342 13.1929 0.0406507 12.8574 0.0152283 12.5149H13.6914C13.666 12.8574 13.6154 13.1929 13.5415 13.5196H0.165137ZM0.513858 14.6185C0.67316 15.0037 0.866558 15.3713 1.09029 15.7175H12.6164C12.8401 15.3713 13.0335 15.0037 13.1928 14.6185H0.513858ZM3.12813 17.7581C2.70913 17.4864 2.32165 17.1703 1.97238 16.8164H11.7343C11.385 17.1703 10.9975 17.4864 10.5785 17.7581H3.12813ZM6.79306 18.857C6.81313 18.8571 6.83323 18.8572 6.85334 18.8572C6.87345 18.8572 6.89354 18.8571 6.91361 18.857H6.79306Z" fill-rule="evenodd"/>
<path fill="#00418E" clip-rule="evenodd" d="M0.0195109 12.5212C0.00658148 12.3491 0 12.1753 0 12C0 8.21287 3.07005 5.14282 6.85714 5.14282C7.13985 5.14282 7.41857 5.15993 7.69231 5.19317V12.5212H0.0195109Z" fill-rule="evenodd"/>
<path fill="white" clip-rule="evenodd" d="M3.51098 6.02388C3.47143 6.0462 3.43213 6.0689 3.39307 6.09197L3.57803 6.2242L3.51098 6.02388ZM2.79437 6.48938C2.6558 6.59219 2.52124 6.7001 2.39097 6.81284L2.43568 6.78134L2.68771 6.96081L2.59183 6.66884L2.84659 6.48938H2.79437ZM1.72353 7.4752C1.6926 7.51039 1.66203 7.5459 1.63182 7.58172L1.79739 7.70009L1.72353 7.4752ZM0.512221 9.44116C0.492649 9.4898 0.473618 9.5387 0.455135 9.58788L0.501626 9.62063L0.403005 9.91527L0.657774 9.73313L0.912543 9.91527L0.813923 9.62331L1.06869 9.44384H0.756394L0.657774 9.15188L0.561893 9.44116H0.512221ZM5.09842 5.45813L5.19704 5.75009H5.50934L5.25731 5.92956L5.35319 6.2242L5.09842 6.04206L4.84639 6.22152L4.94227 5.92956L4.69024 5.75009H5.00254L5.09842 5.45813ZM6.87632 5.45813L6.9722 5.75009H7.28724L7.03247 5.92956L7.13109 6.2242L6.87632 6.04206L6.62155 6.22152L6.72017 5.92956L6.46541 5.75009H6.78044L6.87632 5.45813ZM4.21084 6.19742L4.30946 6.48938H4.62176L4.36699 6.66884L4.46561 6.96081L4.21084 6.78134L3.95881 6.96081L4.05469 6.66884L3.79992 6.48938H4.1177L4.21084 6.19742ZM5.98874 6.19742L6.08462 6.48938H6.39966L6.14489 6.66884L6.24077 6.96081L5.98874 6.78134L5.73397 6.96081L5.82985 6.66884L5.57782 6.48938H5.89012L5.98874 6.19742ZM3.32326 6.93402L3.41914 7.22866H3.73418L3.47941 7.40813L3.57803 7.70009L3.32326 7.51795L3.06849 7.70009L3.16711 7.40545L2.91234 7.22599H3.22464L3.32326 6.93402ZM5.09842 6.93402L5.19704 7.22866H5.50934L5.25731 7.40813L5.35319 7.70009L5.09842 7.51795L4.84639 7.70009L4.94227 7.40545L4.69024 7.22599H5.00254L5.09842 6.93402ZM6.87632 6.93402L6.9722 7.22866H7.28724L7.03247 7.40813L7.13109 7.70009L6.87632 7.51795L6.62155 7.70009L6.72017 7.40545L6.46541 7.22599H6.78044L6.87632 6.93402ZM2.43568 7.67331L2.53156 7.96527H2.84659L2.59183 8.14474L2.68771 8.43938L2.43568 8.25724L2.18091 8.4367L2.27679 8.14474L2.02476 7.96527H2.33706L2.43568 7.67331ZM4.21084 7.67331L4.30946 7.96527H4.62176L4.36973 8.14474L4.46561 8.43938L4.21084 8.25724L3.95881 8.4367L4.05469 8.14474L3.79992 7.96527H4.1177L4.21084 7.67331ZM5.98874 7.67331L6.08462 7.96527H6.39966L6.14489 8.14474L6.24077 8.43938L5.98874 8.25724L5.73397 8.4367L5.82985 8.14474L5.57782 7.96527H5.89012L5.98874 7.67331ZM1.54536 8.41259L1.64398 8.70456H1.95353L1.7015 8.88402L1.79739 9.17866L1.54262 8.99652L1.29059 9.17599L1.38647 8.88402L1.1317 8.70456H1.44674L1.54536 8.41259ZM3.32326 8.41259L3.41914 8.70456H3.73418L3.47941 8.88402L3.57803 9.17866L3.32326 8.99652L3.06849 9.17599L3.16711 8.88402L2.91234 8.70456H3.22464L3.32326 8.41259ZM5.09842 8.41259L5.19704 8.70456H5.50934L5.25731 8.88402L5.35319 9.17866L5.09842 8.99652L4.84639 9.17599L4.94227 8.88402L4.69024 8.70456H5.00254L5.09842 8.41259ZM6.87632 8.41259L6.9722 8.70456H7.28724L7.03247 8.88402L7.13109 9.17866L6.87632 8.99652L6.62155 9.17599L6.72017 8.88402L6.46541 8.70456H6.78044L6.87632 8.41259ZM2.43568 9.15188L2.53156 9.44384H2.84659L2.59183 9.62331L2.68771 9.91527L2.43568 9.73313L2.18091 9.91527L2.27679 9.62063L2.02476 9.44116H2.33706L2.43568 9.15188ZM4.21084 9.15188L4.30946 9.44384H4.62176L4.36973 9.62331L4.46561 9.91527L4.21084 9.73313L3.95881 9.91527L4.05469 9.62063L3.79992 9.44116H4.1177L4.21084 9.15188ZM5.98874 9.15188L6.08462 9.44384H6.39966L6.14489 9.62331L6.24077 9.91527L5.98874 9.73313L5.73397 9.91527L5.82985 9.62063L5.57782 9.44116H5.89012L5.98874 9.15188ZM1.54536 9.88848L1.64398 10.1831H1.95353L1.7015 10.3626L1.79739 10.6519L1.54262 10.4724L1.29059 10.6519L1.38647 10.3599L1.1317 10.1804H1.44674L1.54536 9.88848ZM3.32326 9.88848L3.41914 10.1831H3.73418L3.47941 10.3626L3.57803 10.6519L3.32326 10.4724L3.06849 10.6519L3.16711 10.3599L2.91234 10.1804H3.22464L3.32326 9.88848ZM5.09842 9.88848L5.19704 10.1831H5.50934L5.25731 10.3626L5.35319 10.6519L5.09842 10.4724L4.84639 10.6519L4.94227 10.3599L4.69024 10.1804H5.00254L5.09842 9.88848ZM6.87632 9.88848L6.9722 10.1831H7.28724L7.03247 10.3626L7.13109 10.6519L6.87632 10.4724L6.62155 10.6519L6.72017 10.3599L6.46541 10.1804H6.78044L6.87632 9.88848ZM0.657774 10.6278L0.756394 10.9197H1.06869L0.813923 11.0992L0.912543 11.3938L0.657774 11.2117L0.403005 11.3912L0.501626 11.0992L0.246857 10.9197H0.561893L0.657774 10.6278ZM2.43568 10.6278L2.53156 10.9197H2.84659L2.59183 11.0992L2.68771 11.3938L2.43568 11.2117L2.18091 11.3912L2.27679 11.0992L2.02476 10.9197H2.33706L2.43568 10.6278ZM4.21084 10.6278L4.30946 10.9197H4.62176L4.36973 11.0992L4.46561 11.3938L4.21084 11.2117L3.95881 11.3912L4.05469 11.0992L3.79992 10.9197H4.1177L4.21084 10.6278ZM5.98874 10.6278L6.08462 10.9197H6.39966L6.14489 11.0992L6.24077 11.3938L5.98874 11.2117L5.73397 11.3912L5.82985 11.0992L5.57782 10.9197H5.89012L5.98874 10.6278ZM1.54536 11.3671L1.64398 11.659H1.95353L1.70698 11.8385L1.80286 12.1304L1.5481 11.951L1.29607 12.1304L1.39195 11.8358L1.13718 11.6563H1.45221L1.54536 11.3671ZM3.32326 11.3671L3.41914 11.659H3.73418L3.47941 11.8385L3.57803 12.1304L3.32326 11.951L3.06849 12.1304L3.16711 11.8358L2.91234 11.6563H3.22464L3.32326 11.3671ZM5.09842 11.3671L5.19704 11.659H5.50934L5.25731 11.8385L5.35319 12.1304L5.09842 11.951L4.84639 12.1304L4.94227 11.8358L4.69024 11.6563H5.00254L5.09842 11.3671ZM6.87632 11.3671L6.9722 11.659H7.28724L7.03247 11.8385L7.13109 12.1304L6.87632 11.951L6.62155 12.1304L6.72017 11.8358L6.46541 11.6563H6.78044L6.87632 11.3671Z" fill-rule="evenodd"/>
<metadata symbolName="USDCHF" fileName="usdchf.svg" id="grimlock-metadata-id" lastUpdate="2025-02-10T09:58:22.674534392" symbolId="3"/></svg>