<?xml version="1.0" encoding="UTF-8" standalone="no"?><svg xmlns="http://www.w3.org/2000/svg" xmlns:xlink="http://www.w3.org/1999/xlink" contentScriptType="text/ecmascript" fill="none" width="24" zoomAndPan="magnify" contentStyleType="text/css" viewBox="0 0 24 24" height="24" preserveAspectRatio="xMidYMid meet" version="1.0">
<circle fill="url(#paint0_linear_15235_116725)" r="6.35714" cx="16.9145" cy="12" stroke="#EEEEEE"/>
<path fill="#D80027" d="M17.0139 15.5928C18.9979 15.5928 20.6062 13.9844 20.6062 12.0005C20.6062 10.0165 18.9979 8.4082 17.0139 8.4082C15.0299 8.4082 13.4216 10.0165 13.4216 12.0005C13.4216 13.9844 15.0299 15.5928 17.0139 15.5928Z"/>
<circle fill="#BD3D44" r="6.85714" cx="6.85714" cy="12"/>
<path fill="white" clip-rule="evenodd" d="M3.16269 6.21985C2.70819 6.51065 2.29027 6.85358 1.91734 7.24022H11.7894C11.4165 6.85358 10.9985 6.51065 10.544 6.21985H3.16269ZM0.490905 9.43796C0.646014 9.05314 0.835022 8.68563 1.05423 8.33912H12.6525C12.8717 8.68563 13.0607 9.05314 13.2158 9.43796H0.490905ZM0.152682 10.5369C0.0859954 10.8437 0.0398457 11.1581 0.0157442 11.4788H13.691C13.6669 11.1581 13.6207 10.8437 13.5541 10.5369H0.152682ZM0.165167 13.5196C0.0912647 13.1929 0.0406812 12.8574 0.0152588 12.5149H13.6915C13.6661 12.8574 13.6155 13.1929 13.5416 13.5196H0.165167ZM0.513889 14.6185C0.67319 15.0037 0.866589 15.3713 1.09032 15.7175H12.6164C12.8401 15.3713 13.0335 15.0037 13.1928 14.6185H0.513889ZM3.12816 17.7581C2.70916 17.4864 2.32168 17.1703 1.97241 16.8164H11.7343C11.3851 17.1703 10.9976 17.4864 10.5786 17.7581H3.12816ZM6.79309 18.857C6.81316 18.8571 6.83326 18.8572 6.85337 18.8572C6.87348 18.8572 6.89357 18.8571 6.91364 18.857H6.79309Z" fill-rule="evenodd"/>
<path fill="#00418E" clip-rule="evenodd" d="M0.0195109 12.5212C0.00658148 12.3491 0 12.1753 0 12C0 8.21287 3.07005 5.14282 6.85714 5.14282C7.13985 5.14282 7.41857 5.15993 7.69231 5.19317V12.5212H0.0195109Z" fill-rule="evenodd"/>
<path fill="white" clip-rule="evenodd" d="M3.51095 6.02388C3.4714 6.0462 3.4321 6.0689 3.39304 6.09197L3.578 6.2242L3.51095 6.02388ZM2.79434 6.48938C2.65577 6.59219 2.52121 6.7001 2.39094 6.81284L2.43565 6.78134L2.68768 6.96081L2.59179 6.66884L2.84656 6.48938H2.79434ZM1.7235 7.4752C1.69257 7.51039 1.662 7.5459 1.63179 7.58172L1.79735 7.70009L1.7235 7.4752ZM0.512191 9.44116C0.492618 9.4898 0.473587 9.5387 0.455105 9.58788L0.501595 9.62063L0.402975 9.91527L0.657744 9.73313L0.912512 9.91527L0.813892 9.62331L1.06866 9.44384H0.756364L0.657744 9.15188L0.561863 9.44116H0.512191ZM5.09839 5.45813L5.19701 5.75009H5.50931L5.25728 5.92956L5.35316 6.2242L5.09839 6.04206L4.84636 6.22152L4.94224 5.92956L4.69021 5.75009H5.00251L5.09839 5.45813ZM6.87629 5.45813L6.97217 5.75009H7.28721L7.03244 5.92956L7.13106 6.2242L6.87629 6.04206L6.62152 6.22152L6.72014 5.92956L6.46538 5.75009H6.78041L6.87629 5.45813ZM4.21081 6.19742L4.30943 6.48938H4.62173L4.36696 6.66884L4.46558 6.96081L4.21081 6.78134L3.95878 6.96081L4.05466 6.66884L3.79989 6.48938H4.11767L4.21081 6.19742ZM5.98871 6.19742L6.08459 6.48938H6.39963L6.14486 6.66884L6.24074 6.96081L5.98871 6.78134L5.73394 6.96081L5.82982 6.66884L5.57779 6.48938H5.89009L5.98871 6.19742ZM3.32323 6.93402L3.41911 7.22866H3.73415L3.47938 7.40813L3.578 7.70009L3.32323 7.51795L3.06846 7.70009L3.16708 7.40545L2.91231 7.22599H3.22461L3.32323 6.93402ZM5.09839 6.93402L5.19701 7.22866H5.50931L5.25728 7.40813L5.35316 7.70009L5.09839 7.51795L4.84636 7.70009L4.94224 7.40545L4.69021 7.22599H5.00251L5.09839 6.93402ZM6.87629 6.93402L6.97217 7.22866H7.28721L7.03244 7.40813L7.13106 7.70009L6.87629 7.51795L6.62152 7.70009L6.72014 7.40545L6.46538 7.22599H6.78041L6.87629 6.93402ZM2.43565 7.67331L2.53153 7.96527H2.84656L2.59179 8.14474L2.68768 8.43938L2.43565 8.25724L2.18088 8.4367L2.27676 8.14474L2.02473 7.96527H2.33703L2.43565 7.67331ZM4.21081 7.67331L4.30943 7.96527H4.62173L4.3697 8.14474L4.46558 8.43938L4.21081 8.25724L3.95878 8.4367L4.05466 8.14474L3.79989 7.96527H4.11767L4.21081 7.67331ZM5.98871 7.67331L6.08459 7.96527H6.39963L6.14486 8.14474L6.24074 8.43938L5.98871 8.25724L5.73394 8.4367L5.82982 8.14474L5.57779 7.96527H5.89009L5.98871 7.67331ZM1.54533 8.41259L1.64395 8.70456H1.9535L1.70147 8.88402L1.79735 9.17866L1.54259 8.99652L1.29056 9.17599L1.38644 8.88402L1.13167 8.70456H1.4467L1.54533 8.41259ZM3.32323 8.41259L3.41911 8.70456H3.73415L3.47938 8.88402L3.578 9.17866L3.32323 8.99652L3.06846 9.17599L3.16708 8.88402L2.91231 8.70456H3.22461L3.32323 8.41259ZM5.09839 8.41259L5.19701 8.70456H5.50931L5.25728 8.88402L5.35316 9.17866L5.09839 8.99652L4.84636 9.17599L4.94224 8.88402L4.69021 8.70456H5.00251L5.09839 8.41259ZM6.87629 8.41259L6.97217 8.70456H7.28721L7.03244 8.88402L7.13106 9.17866L6.87629 8.99652L6.62152 9.17599L6.72014 8.88402L6.46538 8.70456H6.78041L6.87629 8.41259ZM2.43565 9.15188L2.53153 9.44384H2.84656L2.59179 9.62331L2.68768 9.91527L2.43565 9.73313L2.18088 9.91527L2.27676 9.62063L2.02473 9.44116H2.33703L2.43565 9.15188ZM4.21081 9.15188L4.30943 9.44384H4.62173L4.3697 9.62331L4.46558 9.91527L4.21081 9.73313L3.95878 9.91527L4.05466 9.62063L3.79989 9.44116H4.11767L4.21081 9.15188ZM5.98871 9.15188L6.08459 9.44384H6.39963L6.14486 9.62331L6.24074 9.91527L5.98871 9.73313L5.73394 9.91527L5.82982 9.62063L5.57779 9.44116H5.89009L5.98871 9.15188ZM1.54533 9.88848L1.64395 10.1831H1.9535L1.70147 10.3626L1.79735 10.6519L1.54259 10.4724L1.29056 10.6519L1.38644 10.3599L1.13167 10.1804H1.4467L1.54533 9.88848ZM3.32323 9.88848L3.41911 10.1831H3.73415L3.47938 10.3626L3.578 10.6519L3.32323 10.4724L3.06846 10.6519L3.16708 10.3599L2.91231 10.1804H3.22461L3.32323 9.88848ZM5.09839 9.88848L5.19701 10.1831H5.50931L5.25728 10.3626L5.35316 10.6519L5.09839 10.4724L4.84636 10.6519L4.94224 10.3599L4.69021 10.1804H5.00251L5.09839 9.88848ZM6.87629 9.88848L6.97217 10.1831H7.28721L7.03244 10.3626L7.13106 10.6519L6.87629 10.4724L6.62152 10.6519L6.72014 10.3599L6.46538 10.1804H6.78041L6.87629 9.88848ZM0.657744 10.6278L0.756364 10.9197H1.06866L0.813892 11.0992L0.912512 11.3938L0.657744 11.2117L0.402975 11.3912L0.501595 11.0992L0.246826 10.9197H0.561863L0.657744 10.6278ZM2.43565 10.6278L2.53153 10.9197H2.84656L2.59179 11.0992L2.68768 11.3938L2.43565 11.2117L2.18088 11.3912L2.27676 11.0992L2.02473 10.9197H2.33703L2.43565 10.6278ZM4.21081 10.6278L4.30943 10.9197H4.62173L4.3697 11.0992L4.46558 11.3938L4.21081 11.2117L3.95878 11.3912L4.05466 11.0992L3.79989 10.9197H4.11767L4.21081 10.6278ZM5.98871 10.6278L6.08459 10.9197H6.39963L6.14486 11.0992L6.24074 11.3938L5.98871 11.2117L5.73394 11.3912L5.82982 11.0992L5.57779 10.9197H5.89009L5.98871 10.6278ZM1.54533 11.3671L1.64395 11.659H1.9535L1.70695 11.8385L1.80283 12.1304L1.54806 11.951L1.29604 12.1304L1.39192 11.8358L1.13715 11.6563H1.45218L1.54533 11.3671ZM3.32323 11.3671L3.41911 11.659H3.73415L3.47938 11.8385L3.578 12.1304L3.32323 11.951L3.06846 12.1304L3.16708 11.8358L2.91231 11.6563H3.22461L3.32323 11.3671ZM5.09839 11.3671L5.19701 11.659H5.50931L5.25728 11.8385L5.35316 12.1304L5.09839 11.951L4.84636 12.1304L4.94224 11.8358L4.69021 11.6563H5.00251L5.09839 11.3671ZM6.87629 11.3671L6.97217 11.659H7.28721L7.03244 11.8385L7.13106 12.1304L6.87629 11.951L6.62152 12.1304L6.72014 11.8358L6.46538 11.6563H6.78041L6.87629 11.3671Z" fill-rule="evenodd"/>
<defs>
<linearGradient x1="16.9145" gradientUnits="userSpaceOnUse" x2="16.9145" y1="5.14282" y2="18.8571" xlink:type="simple" xlink:actuate="onLoad" id="paint0_linear_15235_116725" xlink:show="other">
<stop stop-color="white" offset="0.567708"/>
<stop stop-color="#D1D1D1" offset="1"/>
</linearGradient>
</defs>
<metadata symbolName="USDJPY" fileName="usdjpy.svg" id="grimlock-metadata-id" lastUpdate="2025-02-10T09:58:22.674652229" symbolId="2"/></svg>