<svg width="24" height="24" viewBox="0 0 24 24" fill="none" xmlns="http://www.w3.org/2000/svg">
<path d="M23.9991 11.855C23.9991 15.6406 20.9297 18.71 17.1441 18.71C13.3581 18.71 10.2891 15.641 10.2891 11.855C10.2891 8.06902 13.3581 5 17.1441 5C20.93 5 23.9991 8.06902 23.9991 11.855Z" fill="#0052B4"/>
<path d="M17.1417 7.68262L17.3636 8.36577H18.0816L17.5005 8.78785L17.7225 9.47101L17.1414 9.04893L16.5603 9.47101L16.7822 8.78785L16.2012 8.36577H16.9195L17.1417 7.68262Z" fill="#FFDA44"/>
<path d="M14.1931 8.90441L14.8331 9.23042L15.3409 8.72266L15.2287 9.43192L15.8687 9.75793L15.1595 9.8704L15.047 10.5797L14.721 9.93968L14.0117 10.0521L14.5195 9.54438L14.1931 8.90441Z" fill="#FFDA44"/>
<path d="M12.9707 11.8548L13.6539 11.6329V10.9146L14.0759 11.4956L14.7591 11.2737L14.337 11.8548L14.7591 12.4358L14.0759 12.2139L13.6539 12.795V12.0767L12.9707 11.8548Z" fill="#FFDA44"/>
<path d="M14.1935 14.8056L14.5195 14.1657L14.0117 13.6579L14.721 13.7704L15.047 13.1304L15.1595 13.84L15.8687 13.9521L15.2287 14.2781L15.3409 14.9874L14.8331 14.4796L14.1935 14.8056Z" fill="#FFDA44"/>
<path d="M17.1433 16.0276L16.9214 15.3445H16.2031L16.7842 14.9224L16.5623 14.2393L17.1433 14.6613L17.7244 14.2393L17.5025 14.9224L18.0836 15.3445H17.3653L17.1433 16.0276Z" fill="#FFDA44"/>
<path d="M20.0955 14.8056L19.4555 14.4796L18.9474 14.9874L19.0599 14.2781L18.4199 13.9521L19.1292 13.84L19.2413 13.1304L19.5673 13.7704L20.2766 13.6579L19.7688 14.166L20.0955 14.8056Z" fill="#FFDA44"/>
<path d="M21.3177 11.8548L20.6345 12.0767V12.795L20.2125 12.2139L19.5293 12.4358L19.9514 11.8548L19.5293 11.2737L20.2125 11.4956L20.6345 10.9146V11.6329L21.3177 11.8548Z" fill="#FFDA44"/>
<path d="M20.0968 8.90441L19.7708 9.54438L20.2785 10.0521L19.5693 9.93968L19.2433 10.5797L19.1311 9.8704L18.4219 9.75793L19.0619 9.43192L18.9494 8.72266L19.4575 9.23042L20.0968 8.90441Z" fill="#FFDA44"/>
<circle cx="6.855" cy="11.855" r="6.855" fill="#F2C94C"/>
<path d="M2.27839 12.1506C2.30971 11.9569 2.47698 11.8145 2.67326 11.8145H5.9138C6.11008 11.8145 6.27736 11.9569 6.30867 12.1506L6.59217 13.9046C6.63148 14.1479 6.44368 14.3685 6.1973 14.3685H2.38976C2.14338 14.3685 1.95558 14.1479 1.99489 13.9046L2.27839 12.1506Z" fill="white"/>
<path d="M7.67682 12.1506C7.70814 11.9569 7.87542 11.8145 8.0717 11.8145H11.3122C11.5085 11.8145 11.6758 11.9569 11.7071 12.1506L11.9906 13.9046C12.0299 14.1479 11.8421 14.3685 11.5957 14.3685H7.7882C7.54182 14.3685 7.35401 14.1479 7.39333 13.9046L7.67682 12.1506Z" fill="white"/>
<path d="M5.07917 8.99194C5.11049 8.79817 5.27777 8.65576 5.47404 8.65576H8.71458C8.91086 8.65576 9.07814 8.79817 9.10946 8.99194L9.39295 10.7459C9.43227 10.9892 9.24446 11.2098 8.99808 11.2098H5.19055C4.94416 11.2098 4.75636 10.9892 4.79567 10.7459L5.07917 8.99194Z" fill="white"/>
</svg>
