<?xml version="1.0" encoding="UTF-8" standalone="no"?><svg xmlns="http://www.w3.org/2000/svg" xmlns:xlink="http://www.w3.org/1999/xlink" contentScriptType="text/ecmascript" fill="none" width="24" zoomAndPan="magnify" contentStyleType="text/css" viewBox="0 0 24 25" height="25" preserveAspectRatio="xMidYMid meet" version="1.0">
<g clip-path="url(#clip0_15240_139002)">
<circle fill="#BD3D44" r="6.85714" cx="17.1429" cy="12.3625"/>
<path fill="white" clip-rule="evenodd" d="M13.4485 6.5824C12.994 6.8732 12.576 7.21613 12.2031 7.60277H22.0752C21.7022 7.21613 21.2843 6.8732 20.8298 6.5824H13.4485ZM10.7767 9.80051C10.9318 9.41569 11.1208 9.04818 11.34 8.70167H22.9383C23.1575 9.04818 23.3465 9.41569 23.5016 9.80051H10.7767ZM10.4384 10.8994C10.3718 11.2062 10.3256 11.5207 10.3015 11.8413H23.9768C23.9527 11.5207 23.9065 11.2062 23.8398 10.8994H10.4384ZM10.4509 13.8821C10.377 13.5555 10.3264 13.2199 10.301 12.8774H23.9772C23.9518 13.2199 23.9012 13.5555 23.8273 13.8821H10.4509ZM10.7997 14.981C10.959 15.3663 11.1524 15.7339 11.3761 16.08H22.9022C23.1259 15.7339 23.3193 15.3663 23.4786 14.981H10.7997ZM13.4139 18.1206C12.9949 17.849 12.6074 17.5328 12.2582 17.1789H22.0201C21.6708 17.5328 21.2833 17.849 20.8643 18.1206H13.4139ZM17.0789 19.2195C17.0989 19.2197 17.119 19.2198 17.1391 19.2198C17.1592 19.2198 17.1793 19.2197 17.1994 19.2195H17.0789Z" fill-rule="evenodd"/>
<path fill="#00418E" clip-rule="evenodd" d="M10.3053 12.8837C10.2923 12.7117 10.2858 12.5379 10.2858 12.3625C10.2858 8.57542 13.3558 5.50537 17.1429 5.50537C17.4256 5.50537 17.7043 5.52248 17.9781 5.55572V12.8837H10.3053Z" fill-rule="evenodd"/>
<path fill="white" clip-rule="evenodd" d="M13.7967 6.38649C13.7572 6.40881 13.7179 6.43151 13.6788 6.45458L13.8638 6.58681L13.7967 6.38649ZM13.0801 6.85199C12.9415 6.9548 12.807 7.06271 12.6767 7.17545L12.7214 7.14395L12.9734 7.32342L12.8776 7.03145L13.1323 6.85199H13.0801ZM12.0093 7.83781C11.9783 7.873 11.9478 7.90851 11.9176 7.94433L12.0831 8.0627L12.0093 7.83781ZM10.798 9.80377C10.7784 9.85241 10.7594 9.90131 10.7409 9.95049L10.7874 9.98324L10.6887 10.2779L10.9435 10.0957L11.1983 10.2779L11.0997 9.98592L11.3544 9.80645H11.0421L10.9435 9.51449L10.8476 9.80377H10.798ZM15.3842 5.82074L15.4828 6.1127H15.7951L15.543 6.29217L15.6389 6.58681L15.3842 6.40467L15.1321 6.58413L15.228 6.29217L14.976 6.1127H15.2883L15.3842 5.82074ZM17.1621 5.82074L17.2579 6.1127H17.573L17.3182 6.29217L17.4168 6.58681L17.1621 6.40467L16.9073 6.58413L17.0059 6.29217L16.7511 6.1127H17.0662L17.1621 5.82074ZM14.4966 6.56003L14.5952 6.85199H14.9075L14.6527 7.03145L14.7513 7.32342L14.4966 7.14395L14.2445 7.32342L14.3404 7.03145L14.0857 6.85199H14.4034L14.4966 6.56003ZM16.2745 6.56003L16.3704 6.85199H16.6854L16.4306 7.03145L16.5265 7.32342L16.2745 7.14395L16.0197 7.32342L16.1156 7.03145L15.8636 6.85199H16.1759L16.2745 6.56003ZM13.609 7.29663L13.7049 7.59127H14.0199L13.7651 7.77074L13.8638 8.0627L13.609 7.88056L13.3542 8.0627L13.4528 7.76806L13.1981 7.5886H13.5104L13.609 7.29663ZM15.3842 7.29663L15.4828 7.59127H15.7951L15.543 7.77074L15.6389 8.0627L15.3842 7.88056L15.1321 8.0627L15.228 7.76806L14.976 7.5886H15.2883L15.3842 7.29663ZM17.1621 7.29663L17.2579 7.59127H17.573L17.3182 7.77074L17.4168 8.0627L17.1621 7.88056L16.9073 8.0627L17.0059 7.76806L16.7511 7.5886H17.0662L17.1621 7.29663ZM12.7214 8.03592L12.8173 8.32788H13.1323L12.8776 8.50735L12.9734 8.80199L12.7214 8.61985L12.4666 8.79931L12.5625 8.50735L12.3105 8.32788H12.6228L12.7214 8.03592ZM14.4966 8.03592L14.5952 8.32788H14.9075L14.6555 8.50735L14.7513 8.80199L14.4966 8.61985L14.2445 8.79931L14.3404 8.50735L14.0857 8.32788H14.4034L14.4966 8.03592ZM16.2745 8.03592L16.3704 8.32788H16.6854L16.4306 8.50735L16.5265 8.80199L16.2745 8.61985L16.0197 8.79931L16.1156 8.50735L15.8636 8.32788H16.1759L16.2745 8.03592ZM11.8311 8.7752L11.9297 9.06717H12.2393L11.9872 9.24663L12.0831 9.54127L11.8284 9.35913L11.5763 9.53859L11.6722 9.24663L11.4174 9.06717H11.7325L11.8311 8.7752ZM13.609 8.7752L13.7049 9.06717H14.0199L13.7651 9.24663L13.8638 9.54127L13.609 9.35913L13.3542 9.53859L13.4528 9.24663L13.1981 9.06717H13.5104L13.609 8.7752ZM15.3842 8.7752L15.4828 9.06717H15.7951L15.543 9.24663L15.6389 9.54127L15.3842 9.35913L15.1321 9.53859L15.228 9.24663L14.976 9.06717H15.2883L15.3842 8.7752ZM17.1621 8.7752L17.2579 9.06717H17.573L17.3182 9.24663L17.4168 9.54127L17.1621 9.35913L16.9073 9.53859L17.0059 9.24663L16.7511 9.06717H17.0662L17.1621 8.7752ZM12.7214 9.51449L12.8173 9.80645H13.1323L12.8776 9.98592L12.9734 10.2779L12.7214 10.0957L12.4666 10.2779L12.5625 9.98324L12.3105 9.80377H12.6228L12.7214 9.51449ZM14.4966 9.51449L14.5952 9.80645H14.9075L14.6555 9.98592L14.7513 10.2779L14.4966 10.0957L14.2445 10.2779L14.3404 9.98324L14.0857 9.80377H14.4034L14.4966 9.51449ZM16.2745 9.51449L16.3704 9.80645H16.6854L16.4306 9.98592L16.5265 10.2779L16.2745 10.0957L16.0197 10.2779L16.1156 9.98324L15.8636 9.80377H16.1759L16.2745 9.51449ZM11.8311 10.2511L11.9297 10.5457H12.2393L11.9872 10.7252L12.0831 11.0145L11.8284 10.835L11.5763 11.0145L11.6722 10.7225L11.4174 10.5431H11.7325L11.8311 10.2511ZM13.609 10.2511L13.7049 10.5457H14.0199L13.7651 10.7252L13.8638 11.0145L13.609 10.835L13.3542 11.0145L13.4528 10.7225L13.1981 10.5431H13.5104L13.609 10.2511ZM15.3842 10.2511L15.4828 10.5457H15.7951L15.543 10.7252L15.6389 11.0145L15.3842 10.835L15.1321 11.0145L15.228 10.7225L14.976 10.5431H15.2883L15.3842 10.2511ZM17.1621 10.2511L17.2579 10.5457H17.573L17.3182 10.7252L17.4168 11.0145L17.1621 10.835L16.9073 11.0145L17.0059 10.7225L16.7511 10.5431H17.0662L17.1621 10.2511ZM10.9435 10.9904L11.0421 11.2823H11.3544L11.0997 11.4618L11.1983 11.7565L10.9435 11.5743L10.6887 11.7538L10.7874 11.4618L10.5326 11.2823H10.8476L10.9435 10.9904ZM12.7214 10.9904L12.8173 11.2823H13.1323L12.8776 11.4618L12.9734 11.7565L12.7214 11.5743L12.4666 11.7538L12.5625 11.4618L12.3105 11.2823H12.6228L12.7214 10.9904ZM14.4966 10.9904L14.5952 11.2823H14.9075L14.6555 11.4618L14.7513 11.7565L14.4966 11.5743L14.2445 11.7538L14.3404 11.4618L14.0857 11.2823H14.4034L14.4966 10.9904ZM16.2745 10.9904L16.3704 11.2823H16.6854L16.4306 11.4618L16.5265 11.7565L16.2745 11.5743L16.0197 11.7538L16.1156 11.4618L15.8636 11.2823H16.1759L16.2745 10.9904ZM11.8311 11.7297L11.9297 12.0216H12.2393L11.9927 12.2011L12.0886 12.4931L11.8338 12.3136L11.5818 12.4931L11.6777 12.1984L11.4229 12.019H11.738L11.8311 11.7297ZM13.609 11.7297L13.7049 12.0216H14.0199L13.7651 12.2011L13.8638 12.4931L13.609 12.3136L13.3542 12.4931L13.4528 12.1984L13.1981 12.019H13.5104L13.609 11.7297ZM15.3842 11.7297L15.4828 12.0216H15.7951L15.543 12.2011L15.6389 12.4931L15.3842 12.3136L15.1321 12.4931L15.228 12.1984L14.976 12.019H15.2883L15.3842 11.7297ZM17.1621 11.7297L17.2579 12.0216H17.573L17.3182 12.2011L17.4168 12.4931L17.1621 12.3136L16.9073 12.4931L17.0059 12.1984L16.7511 12.019H17.0662L17.1621 11.7297Z" fill-rule="evenodd"/>
<rect rx="6.35423" fill="white" x="0.5" width="12.7085" height="12.71" y="5.96252"/>
<rect rx="6.35423" x="0.5" width="12.7085" height="12.71" y="5.96252" stroke="#EEEEEE"/>
<g clip-path="url(#clip1_15240_139002)">
<path fill="#23292F" d="M9.27731 8.89001H10.268L8.20633 11.3552C7.45973 12.2475 6.24926 12.2475 5.50212 11.3552L3.4397 8.89001H4.43115L5.99745 10.7627C6.22566 11.0343 6.53321 11.1866 6.85363 11.1866C7.17404 11.1866 7.48159 11.0343 7.7098 10.7627L9.27731 8.89001Z"/>
<path fill="#23292F" d="M4.41844 15.745H3.42712L5.50214 13.2645C6.24874 12.3723 7.45921 12.3723 8.20634 13.2645L10.2814 15.745H9.2907L7.71102 13.8571C7.48281 13.5855 7.17526 13.4332 6.85484 13.4332C6.53442 13.4332 6.22687 13.5855 5.99867 13.8571L4.41844 15.745Z"/>
</g>
</g>
<defs>
<clipPath id="clip0_15240_139002">
<rect fill="white" width="24" height="24" transform="translate(0 0.362549)"/>
</clipPath>
<clipPath id="clip1_15240_139002">
<rect fill="white" width="6.85423" height="6.855" transform="translate(3.42712 8.89001)"/>
</clipPath>
</defs>
<metadata symbolName="XRPUSD" fileName="xrpusd.svg" id="grimlock-metadata-id" lastUpdate="2025-02-10T09:58:22.675080285" symbolId="1458"/></svg>