<?xml version="1.0" encoding="UTF-8" standalone="no"?><svg xmlns="http://www.w3.org/2000/svg" xmlns:xlink="http://www.w3.org/1999/xlink" contentScriptType="text/ecmascript" fill="none" width="24" zoomAndPan="magnify" contentStyleType="text/css" viewBox="0 0 24 25" height="25" preserveAspectRatio="xMidYMid meet" version="1.0">
<g clip-path="url(#clip0_15240_139070)">
<circle fill="#BD3D44" r="6.85714" cx="17.1429" cy="12.5593"/>
<path fill="white" clip-rule="evenodd" d="M13.4485 6.77917C12.994 7.06998 12.576 7.41291 12.2031 7.79955H22.0752C21.7022 7.41291 21.2843 7.06998 20.8298 6.77917H13.4485ZM10.7767 9.99729C10.9318 9.61247 11.1208 9.24496 11.34 8.89845H22.9383C23.1575 9.24496 23.3465 9.61247 23.5016 9.99729H10.7767ZM10.4384 11.0962C10.3718 11.403 10.3256 11.7175 10.3015 12.0381H23.9768C23.9527 11.7175 23.9065 11.403 23.8398 11.0962H10.4384ZM10.4509 14.0789C10.377 13.7522 10.3264 13.4167 10.301 13.0742H23.9772C23.9518 13.4167 23.9012 13.7522 23.8273 14.0789H10.4509ZM10.7997 15.1778C10.959 15.5631 11.1524 15.9306 11.3761 16.2768H22.9022C23.1259 15.9306 23.3193 15.5631 23.4786 15.1778H10.7997ZM13.4139 18.3174C12.9949 18.0457 12.6074 17.7296 12.2582 17.3757H22.0201C21.6708 17.7296 21.2833 18.0457 20.8643 18.3174H13.4139ZM17.0789 19.4163C17.0989 19.4165 17.119 19.4165 17.1391 19.4165C17.1592 19.4165 17.1793 19.4165 17.1994 19.4163H17.0789Z" fill-rule="evenodd"/>
<path fill="#00418E" clip-rule="evenodd" d="M10.3053 13.0805C10.2923 12.9084 10.2858 12.7346 10.2858 12.5593C10.2858 8.7722 13.3558 5.70215 17.1429 5.70215C17.4256 5.70215 17.7043 5.71926 17.9781 5.7525V13.0805H10.3053Z" fill-rule="evenodd"/>
<path fill="white" clip-rule="evenodd" d="M13.7967 6.58321C13.7572 6.60552 13.7179 6.62822 13.6788 6.6513L13.8638 6.78353L13.7967 6.58321ZM13.0801 7.04871C12.9415 7.15151 12.807 7.25943 12.6767 7.37216L12.7214 7.34067L12.9734 7.52013L12.8776 7.22817L13.1323 7.04871H13.0801ZM12.0093 8.03452C11.9783 8.06971 11.9478 8.10522 11.9176 8.14105L12.0831 8.25942L12.0093 8.03452ZM10.798 10.0005C10.7784 10.0491 10.7594 10.098 10.7409 10.1472L10.7874 10.18L10.6887 10.4746L10.9435 10.2925L11.1983 10.4746L11.0997 10.1826L11.3544 10.0032H11.0421L10.9435 9.7112L10.8476 10.0005H10.798ZM15.3842 6.01746L15.4828 6.30942H15.7951L15.543 6.48888L15.6389 6.78353L15.3842 6.60138L15.1321 6.78085L15.228 6.48888L14.976 6.30942H15.2883L15.3842 6.01746ZM17.1621 6.01746L17.2579 6.30942H17.573L17.3182 6.48888L17.4168 6.78353L17.1621 6.60138L16.9073 6.78085L17.0059 6.48888L16.7511 6.30942H17.0662L17.1621 6.01746ZM14.4966 6.75674L14.5952 7.04871H14.9075L14.6527 7.22817L14.7513 7.52013L14.4966 7.34067L14.2445 7.52013L14.3404 7.22817L14.0857 7.04871H14.4034L14.4966 6.75674ZM16.2745 6.75674L16.3704 7.04871H16.6854L16.4306 7.22817L16.5265 7.52013L16.2745 7.34067L16.0197 7.52013L16.1156 7.22817L15.8636 7.04871H16.1759L16.2745 6.75674ZM13.609 7.49335L13.7049 7.78799H14.0199L13.7651 7.96746L13.8638 8.25942L13.609 8.07728L13.3542 8.25942L13.4528 7.96478L13.1981 7.78531H13.5104L13.609 7.49335ZM15.3842 7.49335L15.4828 7.78799H15.7951L15.543 7.96746L15.6389 8.25942L15.3842 8.07728L15.1321 8.25942L15.228 7.96478L14.976 7.78531H15.2883L15.3842 7.49335ZM17.1621 7.49335L17.2579 7.78799H17.573L17.3182 7.96746L17.4168 8.25942L17.1621 8.07728L16.9073 8.25942L17.0059 7.96478L16.7511 7.78531H17.0662L17.1621 7.49335ZM12.7214 8.23263L12.8173 8.5246H13.1323L12.8776 8.70406L12.9734 8.9987L12.7214 8.81656L12.4666 8.99603L12.5625 8.70406L12.3105 8.5246H12.6228L12.7214 8.23263ZM14.4966 8.23263L14.5952 8.5246H14.9075L14.6555 8.70406L14.7513 8.9987L14.4966 8.81656L14.2445 8.99603L14.3404 8.70406L14.0857 8.5246H14.4034L14.4966 8.23263ZM16.2745 8.23263L16.3704 8.5246H16.6854L16.4306 8.70406L16.5265 8.9987L16.2745 8.81656L16.0197 8.99603L16.1156 8.70406L15.8636 8.5246H16.1759L16.2745 8.23263ZM11.8311 8.97192L11.9297 9.26388H12.2393L11.9872 9.44335L12.0831 9.73799L11.8284 9.55585L11.5763 9.73531L11.6722 9.44335L11.4174 9.26388H11.7325L11.8311 8.97192ZM13.609 8.97192L13.7049 9.26388H14.0199L13.7651 9.44335L13.8638 9.73799L13.609 9.55585L13.3542 9.73531L13.4528 9.44335L13.1981 9.26388H13.5104L13.609 8.97192ZM15.3842 8.97192L15.4828 9.26388H15.7951L15.543 9.44335L15.6389 9.73799L15.3842 9.55585L15.1321 9.73531L15.228 9.44335L14.976 9.26388H15.2883L15.3842 8.97192ZM17.1621 8.97192L17.2579 9.26388H17.573L17.3182 9.44335L17.4168 9.73799L17.1621 9.55585L16.9073 9.73531L17.0059 9.44335L16.7511 9.26388H17.0662L17.1621 8.97192ZM12.7214 9.7112L12.8173 10.0032H13.1323L12.8776 10.1826L12.9734 10.4746L12.7214 10.2925L12.4666 10.4746L12.5625 10.18L12.3105 10.0005H12.6228L12.7214 9.7112ZM14.4966 9.7112L14.5952 10.0032H14.9075L14.6555 10.1826L14.7513 10.4746L14.4966 10.2925L14.2445 10.4746L14.3404 10.18L14.0857 10.0005H14.4034L14.4966 9.7112ZM16.2745 9.7112L16.3704 10.0032H16.6854L16.4306 10.1826L16.5265 10.4746L16.2745 10.2925L16.0197 10.4746L16.1156 10.18L15.8636 10.0005H16.1759L16.2745 9.7112ZM11.8311 10.4478L11.9297 10.7425H12.2393L11.9872 10.9219L12.0831 11.2112L11.8284 11.0317L11.5763 11.2112L11.6722 10.9192L11.4174 10.7398H11.7325L11.8311 10.4478ZM13.609 10.4478L13.7049 10.7425H14.0199L13.7651 10.9219L13.8638 11.2112L13.609 11.0317L13.3542 11.2112L13.4528 10.9192L13.1981 10.7398H13.5104L13.609 10.4478ZM15.3842 10.4478L15.4828 10.7425H15.7951L15.543 10.9219L15.6389 11.2112L15.3842 11.0317L15.1321 11.2112L15.228 10.9192L14.976 10.7398H15.2883L15.3842 10.4478ZM17.1621 10.4478L17.2579 10.7425H17.573L17.3182 10.9219L17.4168 11.2112L17.1621 11.0317L16.9073 11.2112L17.0059 10.9192L16.7511 10.7398H17.0662L17.1621 10.4478ZM10.9435 11.1871L11.0421 11.4791H11.3544L11.0997 11.6585L11.1983 11.9532L10.9435 11.771L10.6887 11.9505L10.7874 11.6585L10.5326 11.4791H10.8476L10.9435 11.1871ZM12.7214 11.1871L12.8173 11.4791H13.1323L12.8776 11.6585L12.9734 11.9532L12.7214 11.771L12.4666 11.9505L12.5625 11.6585L12.3105 11.4791H12.6228L12.7214 11.1871ZM14.4966 11.1871L14.5952 11.4791H14.9075L14.6555 11.6585L14.7513 11.9532L14.4966 11.771L14.2445 11.9505L14.3404 11.6585L14.0857 11.4791H14.4034L14.4966 11.1871ZM16.2745 11.1871L16.3704 11.4791H16.6854L16.4306 11.6585L16.5265 11.9532L16.2745 11.771L16.0197 11.9505L16.1156 11.6585L15.8636 11.4791H16.1759L16.2745 11.1871ZM11.8311 11.9264L11.9297 12.2183H12.2393L11.9927 12.3978L12.0886 12.6898L11.8338 12.5103L11.5818 12.6898L11.6777 12.3951L11.4229 12.2157H11.738L11.8311 11.9264ZM13.609 11.9264L13.7049 12.2183H14.0199L13.7651 12.3978L13.8638 12.6898L13.609 12.5103L13.3542 12.6898L13.4528 12.3951L13.1981 12.2157H13.5104L13.609 11.9264ZM15.3842 11.9264L15.4828 12.2183H15.7951L15.543 12.3978L15.6389 12.6898L15.3842 12.5103L15.1321 12.6898L15.228 12.3951L14.976 12.2157H15.2883L15.3842 11.9264ZM17.1621 11.9264L17.2579 12.2183H17.573L17.3182 12.3978L17.4168 12.6898L17.1621 12.5103L16.9073 12.6898L17.0059 12.3951L16.7511 12.2157H17.0662L17.1621 11.9264Z" fill-rule="evenodd"/>
<g clip-path="url(#clip1_15240_139070)">
<path fill="#2C7DF7" d="M13.5034 14.1726C12.5878 17.8449 8.86833 20.0798 5.19554 19.1641C1.52428 18.2485 -0.71064 14.5288 0.205297 10.8567C1.12043 7.18398 4.83993 4.94889 8.51159 5.86443C12.1841 6.77996 14.4189 10.5001 13.5033 14.1726L13.5033 14.1726H13.5034Z"/>
<g clip-path="url(#clip2_15240_139070)">
<path fill="white" d="M7.48142 16.6832C6.91452 16.6832 6.50074 16.5428 6.24008 16.2621C5.99862 16.0244 5.85849 15.6981 5.85034 15.3545C5.8474 15.2501 5.87093 15.1467 5.91861 15.0545C5.96308 14.9749 6.02733 14.9088 6.10478 14.863C6.1948 14.8168 6.29403 14.7928 6.39463 14.7928C6.49523 14.7928 6.59446 14.8168 6.68448 14.863C6.76179 14.9086 6.82574 14.9748 6.8696 15.0545C6.91866 15.1463 6.94307 15.2498 6.94032 15.3545C6.94538 15.4795 6.91051 15.6028 6.84103 15.7055C6.78311 15.7893 6.70033 15.8516 6.60509 15.883C6.69822 16.0049 6.83 16.0894 6.97747 16.1217C7.14247 16.1709 7.31335 16.1963 7.48516 16.1969C7.71263 16.199 7.93541 16.1305 8.12445 16.0004C8.32056 15.858 8.46681 15.6543 8.54153 15.4197C8.63624 15.1405 8.68245 14.8463 8.67807 14.5506C8.68571 14.2424 8.63512 13.9355 8.52911 13.647C8.44937 13.4163 8.29801 13.219 8.09837 13.0855C7.91281 12.9647 7.69741 12.9014 7.47783 12.903C7.28648 12.9197 7.10198 12.984 6.94032 13.0906L6.54175 13.2961V13.0906L8.33297 10.6201H5.85034V13.1838C5.84332 13.3688 5.89093 13.5516 5.98688 13.7083C6.03331 13.7766 6.0961 13.8314 6.16917 13.8673C6.24224 13.9033 6.32311 13.9193 6.40396 13.9137C6.55333 13.9106 6.69778 13.8583 6.81604 13.7644C6.95009 13.6634 7.06675 13.5401 7.16115 13.3994C7.16964 13.3748 7.18531 13.3534 7.20603 13.3382C7.22266 13.3234 7.2439 13.3153 7.26588 13.3152C7.30901 13.3193 7.34982 13.3371 7.38257 13.3662C7.42406 13.4139 7.44664 13.4758 7.44586 13.5398C7.44107 13.5828 7.4336 13.6254 7.42352 13.6674C7.33533 13.8869 7.1875 14.0756 6.99772 14.2109C6.82146 14.3336 6.61328 14.3986 6.40046 14.3975C5.86296 14.3975 5.49059 14.2886 5.28336 14.0708C5.17684 13.9504 5.09475 13.8093 5.04189 13.6559C4.98903 13.5025 4.96646 13.3398 4.9755 13.1774V10.6201H3.71277V10.1437H4.98139V9.05764L4.69094 8.75881V8.51526H5.53376L5.85034 8.68375V10.1437L9.12985 10.1335L9.45636 10.4704L7.44541 12.548C7.5669 12.4977 7.69484 12.4659 7.82523 12.4535C8.0833 12.4651 8.33508 12.539 8.56023 12.6692C8.82094 12.7966 9.04066 12.9982 9.19334 13.2501C9.33014 13.4633 9.42697 13.701 9.47885 13.9508C9.5215 14.1478 9.54438 14.3488 9.54712 14.5507C9.54845 14.9359 9.46351 15.3162 9.29887 15.6622C9.14273 15.9973 8.87994 16.2675 8.55404 16.428C8.22044 16.597 7.85332 16.6844 7.48142 16.6832Z"/>
</g>
</g>
</g>
<defs>
<clipPath id="clip0_15240_139070">
<rect fill="white" width="24" height="24" transform="translate(0 0.559326)"/>
</clipPath>
<clipPath id="clip1_15240_139070">
<rect fill="white" width="13.7085" height="13.71" transform="translate(0 5.6593)"/>
</clipPath>
<clipPath id="clip2_15240_139070">
<rect fill="white" width="5.83426" height="8.16796" transform="translate(3.71277 8.51526)"/>
</clipPath>
</defs>
<metadata symbolName="XTZUSD" fileName="xtzusd.svg" id="grimlock-metadata-id" lastUpdate="2025-02-10T09:58:22.675086395" symbolId="1459"/></svg>