<?xml version="1.0" encoding="UTF-8" standalone="no"?><svg xmlns="http://www.w3.org/2000/svg" xmlns:xlink="http://www.w3.org/1999/xlink" contentScriptType="text/ecmascript" fill="none" width="24" zoomAndPan="magnify" contentStyleType="text/css" viewBox="0 0 24 25" height="25" preserveAspectRatio="xMidYMid meet" version="1.0">
<g clip-path="url(#clip0_15240_139138)">
<circle fill="#BD3D44" r="6.85714" cx="17.1429" cy="12.7783"/>
<path fill="white" clip-rule="evenodd" d="M13.4485 6.99817C12.994 7.28897 12.576 7.63191 12.2031 8.01854H22.0752C21.7022 7.63191 21.2843 7.28897 20.8298 6.99817H13.4485ZM10.7767 10.2163C10.9318 9.83146 11.1208 9.46395 11.34 9.11744H22.9383C23.1575 9.46395 23.3465 9.83146 23.5016 10.2163H10.7767ZM10.4384 11.3152C10.3718 11.622 10.3256 11.9365 10.3015 12.2571H23.9768C23.9527 11.9365 23.9065 11.622 23.8398 11.3152H10.4384ZM10.4509 14.2979C10.377 13.9712 10.3264 13.6357 10.301 13.2932H23.9772C23.9518 13.6357 23.9012 13.9712 23.8273 14.2979H10.4509ZM10.7997 15.3968C10.959 15.7821 11.1524 16.1496 11.3761 16.4958H22.9022C23.1259 16.1496 23.3193 15.7821 23.4786 15.3968H10.7997ZM13.4139 18.5364C12.9949 18.2647 12.6074 17.9486 12.2582 17.5947H22.0201C21.6708 17.9486 21.2833 18.2647 20.8643 18.5364H13.4139ZM17.0789 19.6353C17.0989 19.6354 17.119 19.6355 17.1391 19.6355C17.1592 19.6355 17.1793 19.6354 17.1994 19.6353H17.0789Z" fill-rule="evenodd"/>
<path fill="#00418E" clip-rule="evenodd" d="M10.3053 13.2995C10.2923 13.1274 10.2858 12.9536 10.2858 12.7783C10.2858 8.99119 13.3558 5.92114 17.1429 5.92114C17.4256 5.92114 17.7043 5.93825 17.9781 5.97149V13.2995H10.3053Z" fill-rule="evenodd"/>
<path fill="white" clip-rule="evenodd" d="M13.7967 6.8022C13.7572 6.82452 13.7179 6.84722 13.6788 6.87029L13.8638 7.00252L13.7967 6.8022ZM13.0801 7.2677C12.9415 7.37051 12.807 7.47842 12.6767 7.59116L12.7214 7.55966L12.9734 7.73913L12.8776 7.44716L13.1323 7.2677H13.0801ZM12.0093 8.25352C11.9783 8.28871 11.9478 8.32422 11.9176 8.36004L12.0831 8.47841L12.0093 8.25352ZM10.798 10.2195C10.7784 10.2681 10.7594 10.317 10.7409 10.3662L10.7874 10.3989L10.6887 10.6936L10.9435 10.5114L11.1983 10.6936L11.0997 10.4016L11.3544 10.2222H11.0421L10.9435 9.9302L10.8476 10.2195H10.798ZM15.3842 6.23645L15.4828 6.52841H15.7951L15.543 6.70788L15.6389 7.00252L15.3842 6.82038L15.1321 6.99984L15.228 6.70788L14.976 6.52841H15.2883L15.3842 6.23645ZM17.1621 6.23645L17.2579 6.52841H17.573L17.3182 6.70788L17.4168 7.00252L17.1621 6.82038L16.9073 6.99984L17.0059 6.70788L16.7511 6.52841H17.0662L17.1621 6.23645ZM14.4966 6.97574L14.5952 7.2677H14.9075L14.6527 7.44716L14.7513 7.73913L14.4966 7.55966L14.2445 7.73913L14.3404 7.44716L14.0857 7.2677H14.4034L14.4966 6.97574ZM16.2745 6.97574L16.3704 7.2677H16.6854L16.4306 7.44716L16.5265 7.73913L16.2745 7.55966L16.0197 7.73913L16.1156 7.44716L15.8636 7.2677H16.1759L16.2745 6.97574ZM13.609 7.71234L13.7049 8.00698H14.0199L13.7651 8.18645L13.8638 8.47841L13.609 8.29627L13.3542 8.47841L13.4528 8.18377L13.1981 8.00431H13.5104L13.609 7.71234ZM15.3842 7.71234L15.4828 8.00698H15.7951L15.543 8.18645L15.6389 8.47841L15.3842 8.29627L15.1321 8.47841L15.228 8.18377L14.976 8.00431H15.2883L15.3842 7.71234ZM17.1621 7.71234L17.2579 8.00698H17.573L17.3182 8.18645L17.4168 8.47841L17.1621 8.29627L16.9073 8.47841L17.0059 8.18377L16.7511 8.00431H17.0662L17.1621 7.71234ZM12.7214 8.45163L12.8173 8.74359H13.1323L12.8776 8.92306L12.9734 9.2177L12.7214 9.03556L12.4666 9.21502L12.5625 8.92306L12.3105 8.74359H12.6228L12.7214 8.45163ZM14.4966 8.45163L14.5952 8.74359H14.9075L14.6555 8.92306L14.7513 9.2177L14.4966 9.03556L14.2445 9.21502L14.3404 8.92306L14.0857 8.74359H14.4034L14.4966 8.45163ZM16.2745 8.45163L16.3704 8.74359H16.6854L16.4306 8.92306L16.5265 9.2177L16.2745 9.03556L16.0197 9.21502L16.1156 8.92306L15.8636 8.74359H16.1759L16.2745 8.45163ZM11.8311 9.19091L11.9297 9.48288H12.2393L11.9872 9.66234L12.0831 9.95698L11.8284 9.77484L11.5763 9.95431L11.6722 9.66234L11.4174 9.48288H11.7325L11.8311 9.19091ZM13.609 9.19091L13.7049 9.48288H14.0199L13.7651 9.66234L13.8638 9.95698L13.609 9.77484L13.3542 9.95431L13.4528 9.66234L13.1981 9.48288H13.5104L13.609 9.19091ZM15.3842 9.19091L15.4828 9.48288H15.7951L15.543 9.66234L15.6389 9.95698L15.3842 9.77484L15.1321 9.95431L15.228 9.66234L14.976 9.48288H15.2883L15.3842 9.19091ZM17.1621 9.19091L17.2579 9.48288H17.573L17.3182 9.66234L17.4168 9.95698L17.1621 9.77484L16.9073 9.95431L17.0059 9.66234L16.7511 9.48288H17.0662L17.1621 9.19091ZM12.7214 9.9302L12.8173 10.2222H13.1323L12.8776 10.4016L12.9734 10.6936L12.7214 10.5114L12.4666 10.6936L12.5625 10.3989L12.3105 10.2195H12.6228L12.7214 9.9302ZM14.4966 9.9302L14.5952 10.2222H14.9075L14.6555 10.4016L14.7513 10.6936L14.4966 10.5114L14.2445 10.6936L14.3404 10.3989L14.0857 10.2195H14.4034L14.4966 9.9302ZM16.2745 9.9302L16.3704 10.2222H16.6854L16.4306 10.4016L16.5265 10.6936L16.2745 10.5114L16.0197 10.6936L16.1156 10.3989L15.8636 10.2195H16.1759L16.2745 9.9302ZM11.8311 10.6668L11.9297 10.9614H12.2393L11.9872 11.1409L12.0831 11.4302L11.8284 11.2507L11.5763 11.4302L11.6722 11.1382L11.4174 10.9588H11.7325L11.8311 10.6668ZM13.609 10.6668L13.7049 10.9614H14.0199L13.7651 11.1409L13.8638 11.4302L13.609 11.2507L13.3542 11.4302L13.4528 11.1382L13.1981 10.9588H13.5104L13.609 10.6668ZM15.3842 10.6668L15.4828 10.9614H15.7951L15.543 11.1409L15.6389 11.4302L15.3842 11.2507L15.1321 11.4302L15.228 11.1382L14.976 10.9588H15.2883L15.3842 10.6668ZM17.1621 10.6668L17.2579 10.9614H17.573L17.3182 11.1409L17.4168 11.4302L17.1621 11.2507L16.9073 11.4302L17.0059 11.1382L16.7511 10.9588H17.0662L17.1621 10.6668ZM10.9435 11.4061L11.0421 11.6981H11.3544L11.0997 11.8775L11.1983 12.1722L10.9435 11.99L10.6887 12.1695L10.7874 11.8775L10.5326 11.6981H10.8476L10.9435 11.4061ZM12.7214 11.4061L12.8173 11.6981H13.1323L12.8776 11.8775L12.9734 12.1722L12.7214 11.99L12.4666 12.1695L12.5625 11.8775L12.3105 11.6981H12.6228L12.7214 11.4061ZM14.4966 11.4061L14.5952 11.6981H14.9075L14.6555 11.8775L14.7513 12.1722L14.4966 11.99L14.2445 12.1695L14.3404 11.8775L14.0857 11.6981H14.4034L14.4966 11.4061ZM16.2745 11.4061L16.3704 11.6981H16.6854L16.4306 11.8775L16.5265 12.1722L16.2745 11.99L16.0197 12.1695L16.1156 11.8775L15.8636 11.6981H16.1759L16.2745 11.4061ZM11.8311 12.1454L11.9297 12.4373H12.2393L11.9927 12.6168L12.0886 12.9088L11.8338 12.7293L11.5818 12.9088L11.6777 12.6141L11.4229 12.4347H11.738L11.8311 12.1454ZM13.609 12.1454L13.7049 12.4373H14.0199L13.7651 12.6168L13.8638 12.9088L13.609 12.7293L13.3542 12.9088L13.4528 12.6141L13.1981 12.4347H13.5104L13.609 12.1454ZM15.3842 12.1454L15.4828 12.4373H15.7951L15.543 12.6168L15.6389 12.9088L15.3842 12.7293L15.1321 12.9088L15.228 12.6141L14.976 12.4347H15.2883L15.3842 12.1454ZM17.1621 12.1454L17.2579 12.4373H17.573L17.3182 12.6168L17.4168 12.9088L17.1621 12.7293L16.9073 12.9088L17.0059 12.6141L16.7511 12.4347H17.0662L17.1621 12.1454Z" fill-rule="evenodd"/>
<g clip-path="url(#clip1_15240_139138)">
<path fill="#F7CA2C" d="M13.5034 14.3916C12.5878 18.0639 8.86833 20.2988 5.19554 19.3831C1.52428 18.4675 -0.71064 14.7478 0.205297 11.0757C1.12043 7.40298 4.83993 5.16789 8.51159 6.08342C12.1841 6.99896 14.4189 10.7191 13.5033 14.3916L13.5033 14.3916H13.5034Z"/>
<path fill="white" d="M6.43544 14.3909H9.27862V15.8125H7.60107V17.0154H6.14219V15.8498H4.39257C4.39257 15.3751 4.3205 14.9029 4.42983 14.4655C4.4671 14.2468 4.72062 14.028 4.90449 13.8094C5.45127 13.1533 5.99805 12.4972 6.5821 11.841C6.80077 11.585 7.01949 11.3663 7.27548 11.0756H4.54169V9.65398H6.14465V8.45129H7.56627V9.61655H9.31588C9.31588 10.0912 9.38795 10.5635 9.27862 11.0008C9.24135 11.2196 8.98783 11.4382 8.80391 11.657C8.25718 12.3131 7.7104 12.9692 7.12636 13.6253C6.90758 13.8814 6.68896 14.1349 6.43544 14.3909Z"/>
</g>
</g>
<defs>
<clipPath id="clip0_15240_139138">
<rect fill="white" width="24" height="24" transform="translate(0 0.77832)"/>
</clipPath>
<clipPath id="clip1_15240_139138">
<rect fill="white" width="13.7085" height="13.71" transform="translate(0 5.8783)"/>
</clipPath>
</defs>
<metadata symbolName="ZECUSD" fileName="zecusd.svg" id="grimlock-metadata-id" lastUpdate="2025-02-10T09:58:22.675092376" symbolId="1460"/></svg>