<?xml version="1.0" encoding="UTF-8" standalone="no"?><svg xmlns="http://www.w3.org/2000/svg" xmlns:xlink="http://www.w3.org/1999/xlink" contentScriptType="text/ecmascript" fill="none" width="24" zoomAndPan="magnify" contentStyleType="text/css" viewBox="0 0 24 25" height="25" preserveAspectRatio="xMidYMid meet" version="1.0">
<g clip-path="url(#clip0_15240_139199)">
<circle fill="#BD3D44" r="6.85714" cx="17.1429" cy="12.1613"/>
<path fill="white" clip-rule="evenodd" d="M13.4485 6.38123C12.994 6.67203 12.576 7.01496 12.2031 7.4016H22.0752C21.7022 7.01496 21.2843 6.67203 20.8298 6.38123H13.4485ZM10.7767 9.59934C10.9318 9.21452 11.1208 8.84701 11.34 8.5005H22.9383C23.1575 8.84701 23.3465 9.21452 23.5016 9.59934H10.7767ZM10.4384 10.6982C10.3718 11.005 10.3256 11.3195 10.3015 11.6401H23.9768C23.9527 11.3195 23.9065 11.005 23.8398 10.6982H10.4384ZM10.4509 13.681C10.377 13.3543 10.3264 13.0188 10.301 12.6763H23.9772C23.9518 13.0188 23.9012 13.3543 23.8273 13.681H10.4509ZM10.7997 14.7799C10.959 15.1651 11.1524 15.5327 11.3761 15.8788H22.9022C23.1259 15.5327 23.3193 15.1651 23.4786 14.7799H10.7997ZM13.4139 17.9194C12.9949 17.6478 12.6074 17.3317 12.2582 16.9777H22.0201C21.6708 17.3317 21.2833 17.6478 20.8643 17.9194H13.4139ZM17.0789 19.0183C17.0989 19.0185 17.119 19.0186 17.1391 19.0186C17.1592 19.0186 17.1793 19.0185 17.1994 19.0183H17.0789Z" fill-rule="evenodd"/>
<path fill="#00418E" clip-rule="evenodd" d="M10.3053 12.6825C10.2923 12.5105 10.2858 12.3367 10.2858 12.1613C10.2858 8.37425 13.3558 5.3042 17.1429 5.3042C17.4256 5.3042 17.7043 5.32131 17.9781 5.35455V12.6825H10.3053Z" fill-rule="evenodd"/>
<path fill="white" clip-rule="evenodd" d="M13.7967 6.18526C13.7572 6.20757 13.7179 6.23027 13.6788 6.25335L13.8638 6.38558L13.7967 6.18526ZM13.0801 6.65076C12.9415 6.75357 12.807 6.86148 12.6767 6.97422L12.7214 6.94272L12.9734 7.12218L12.8776 6.83022L13.1323 6.65076H13.0801ZM12.0093 7.63657C11.9783 7.67176 11.9478 7.70728 11.9176 7.7431L12.0831 7.86147L12.0093 7.63657ZM10.798 9.60254C10.7784 9.65117 10.7594 9.70008 10.7409 9.74926L10.7874 9.782L10.6887 10.0766L10.9435 9.8945L11.1983 10.0766L11.0997 9.78468L11.3544 9.60522H11.0421L10.9435 9.31325L10.8476 9.60254H10.798ZM15.3842 5.61951L15.4828 5.91147H15.7951L15.543 6.09094L15.6389 6.38558L15.3842 6.20344L15.1321 6.3829L15.228 6.09094L14.976 5.91147H15.2883L15.3842 5.61951ZM17.1621 5.61951L17.2579 5.91147H17.573L17.3182 6.09094L17.4168 6.38558L17.1621 6.20344L16.9073 6.3829L17.0059 6.09094L16.7511 5.91147H17.0662L17.1621 5.61951ZM14.4966 6.35879L14.5952 6.65076H14.9075L14.6527 6.83022L14.7513 7.12218L14.4966 6.94272L14.2445 7.12218L14.3404 6.83022L14.0857 6.65076H14.4034L14.4966 6.35879ZM16.2745 6.35879L16.3704 6.65076H16.6854L16.4306 6.83022L16.5265 7.12218L16.2745 6.94272L16.0197 7.12218L16.1156 6.83022L15.8636 6.65076H16.1759L16.2745 6.35879ZM13.609 7.0954L13.7049 7.39004H14.0199L13.7651 7.56951L13.8638 7.86147L13.609 7.67933L13.3542 7.86147L13.4528 7.56683L13.1981 7.38736H13.5104L13.609 7.0954ZM15.3842 7.0954L15.4828 7.39004H15.7951L15.543 7.56951L15.6389 7.86147L15.3842 7.67933L15.1321 7.86147L15.228 7.56683L14.976 7.38736H15.2883L15.3842 7.0954ZM17.1621 7.0954L17.2579 7.39004H17.573L17.3182 7.56951L17.4168 7.86147L17.1621 7.67933L16.9073 7.86147L17.0059 7.56683L16.7511 7.38736H17.0662L17.1621 7.0954ZM12.7214 7.83468L12.8173 8.12665H13.1323L12.8776 8.30611L12.9734 8.60075L12.7214 8.41861L12.4666 8.59808L12.5625 8.30611L12.3105 8.12665H12.6228L12.7214 7.83468ZM14.4966 7.83468L14.5952 8.12665H14.9075L14.6555 8.30611L14.7513 8.60075L14.4966 8.41861L14.2445 8.59808L14.3404 8.30611L14.0857 8.12665H14.4034L14.4966 7.83468ZM16.2745 7.83468L16.3704 8.12665H16.6854L16.4306 8.30611L16.5265 8.60075L16.2745 8.41861L16.0197 8.59808L16.1156 8.30611L15.8636 8.12665H16.1759L16.2745 7.83468ZM11.8311 8.57397L11.9297 8.86593H12.2393L11.9872 9.0454L12.0831 9.34004L11.8284 9.1579L11.5763 9.33736L11.6722 9.0454L11.4174 8.86593H11.7325L11.8311 8.57397ZM13.609 8.57397L13.7049 8.86593H14.0199L13.7651 9.0454L13.8638 9.34004L13.609 9.1579L13.3542 9.33736L13.4528 9.0454L13.1981 8.86593H13.5104L13.609 8.57397ZM15.3842 8.57397L15.4828 8.86593H15.7951L15.543 9.0454L15.6389 9.34004L15.3842 9.1579L15.1321 9.33736L15.228 9.0454L14.976 8.86593H15.2883L15.3842 8.57397ZM17.1621 8.57397L17.2579 8.86593H17.573L17.3182 9.0454L17.4168 9.34004L17.1621 9.1579L16.9073 9.33736L17.0059 9.0454L16.7511 8.86593H17.0662L17.1621 8.57397ZM12.7214 9.31325L12.8173 9.60522H13.1323L12.8776 9.78468L12.9734 10.0766L12.7214 9.8945L12.4666 10.0766L12.5625 9.782L12.3105 9.60254H12.6228L12.7214 9.31325ZM14.4966 9.31325L14.5952 9.60522H14.9075L14.6555 9.78468L14.7513 10.0766L14.4966 9.8945L14.2445 10.0766L14.3404 9.782L14.0857 9.60254H14.4034L14.4966 9.31325ZM16.2745 9.31325L16.3704 9.60522H16.6854L16.4306 9.78468L16.5265 10.0766L16.2745 9.8945L16.0197 10.0766L16.1156 9.782L15.8636 9.60254H16.1759L16.2745 9.31325ZM11.8311 10.0499L11.9297 10.3445H12.2393L11.9872 10.524L12.0831 10.8133L11.8284 10.6338L11.5763 10.8133L11.6722 10.5213L11.4174 10.3418H11.7325L11.8311 10.0499ZM13.609 10.0499L13.7049 10.3445H14.0199L13.7651 10.524L13.8638 10.8133L13.609 10.6338L13.3542 10.8133L13.4528 10.5213L13.1981 10.3418H13.5104L13.609 10.0499ZM15.3842 10.0499L15.4828 10.3445H15.7951L15.543 10.524L15.6389 10.8133L15.3842 10.6338L15.1321 10.8133L15.228 10.5213L14.976 10.3418H15.2883L15.3842 10.0499ZM17.1621 10.0499L17.2579 10.3445H17.573L17.3182 10.524L17.4168 10.8133L17.1621 10.6338L16.9073 10.8133L17.0059 10.5213L16.7511 10.3418H17.0662L17.1621 10.0499ZM10.9435 10.7891L11.0421 11.0811H11.3544L11.0997 11.2606L11.1983 11.5552L10.9435 11.3731L10.6887 11.5525L10.7874 11.2606L10.5326 11.0811H10.8476L10.9435 10.7891ZM12.7214 10.7891L12.8173 11.0811H13.1323L12.8776 11.2606L12.9734 11.5552L12.7214 11.3731L12.4666 11.5525L12.5625 11.2606L12.3105 11.0811H12.6228L12.7214 10.7891ZM14.4966 10.7891L14.5952 11.0811H14.9075L14.6555 11.2606L14.7513 11.5552L14.4966 11.3731L14.2445 11.5525L14.3404 11.2606L14.0857 11.0811H14.4034L14.4966 10.7891ZM16.2745 10.7891L16.3704 11.0811H16.6854L16.4306 11.2606L16.5265 11.5552L16.2745 11.3731L16.0197 11.5525L16.1156 11.2606L15.8636 11.0811H16.1759L16.2745 10.7891ZM11.8311 11.5284L11.9297 11.8204H12.2393L11.9927 11.9999L12.0886 12.2918L11.8338 12.1124L11.5818 12.2918L11.6777 11.9972L11.4229 11.8177H11.738L11.8311 11.5284ZM13.609 11.5284L13.7049 11.8204H14.0199L13.7651 11.9999L13.8638 12.2918L13.609 12.1124L13.3542 12.2918L13.4528 11.9972L13.1981 11.8177H13.5104L13.609 11.5284ZM15.3842 11.5284L15.4828 11.8204H15.7951L15.543 11.9999L15.6389 12.2918L15.3842 12.1124L15.1321 12.2918L15.228 11.9972L14.976 11.8177H15.2883L15.3842 11.5284ZM17.1621 11.5284L17.2579 11.8204H17.573L17.3182 11.9999L17.4168 12.2918L17.1621 12.1124L16.9073 12.2918L17.0059 11.9972L16.7511 11.8177H17.0662L17.1621 11.5284Z" fill-rule="evenodd"/>
<rect rx="6.35423" fill="white" x="0.5" width="12.7085" height="12.71" y="5.76135"/>
<rect rx="6.35423" x="0.5" width="12.7085" height="12.71" y="5.76135" stroke="#EEEEEE"/>
<path fill="#231815" d="M9.91154 14.0679C10.3166 14.615 10.7344 15.1749 11.1521 15.7347C10.3166 16.7272 9.27859 17.3634 8.02536 17.6306C6.63287 17.9233 5.31634 17.707 4.03779 16.9944C5.1771 16.1419 6.29108 15.3021 7.41773 14.4623C7.67091 14.7041 7.91143 14.9458 8.15195 15.1749C8.41778 15.4294 8.31651 15.4421 8.6583 15.2512C9.12668 14.984 9.51911 14.615 9.82293 14.1697C9.83559 14.1442 9.8609 14.1188 9.87356 14.0933C9.8609 14.0933 9.87356 14.0933 9.91154 14.0679ZM4.93658 15.1876C4.6201 15.4294 4.32895 15.6457 4.03779 15.8747C3.82259 16.0401 3.60739 16.1928 3.39219 16.3582C3.30357 16.4346 3.24028 16.4346 3.13901 16.3455C2.17693 15.4803 1.5693 14.4114 1.34144 13.139C1.11358 11.8539 1.31612 10.6324 1.92375 9.47448C1.93641 9.44903 1.96173 9.41086 1.97438 9.38541C1.97438 9.37269 1.98704 9.37269 2.01236 9.35997C2.84785 10.467 3.696 11.574 4.53149 12.681C4.50617 12.7191 4.49351 12.7446 4.4682 12.77C4.21502 13.0372 3.96184 13.3044 3.696 13.5589C3.62005 13.6353 3.60739 13.6989 3.65802 13.788C3.92386 14.2969 4.29097 14.7168 4.74669 15.0604C4.80999 15.0985 4.86062 15.1367 4.93658 15.1876ZM9.65836 7.28594C9.25327 7.57859 8.84819 7.87125 8.4431 8.15118C7.74686 8.64742 7.05062 9.15638 6.36704 9.65262C6.27842 9.71624 6.21513 9.72896 6.13918 9.6399C5.91131 9.39814 5.67079 9.18183 5.44293 8.94007C5.37964 8.87645 5.31634 8.86373 5.22773 8.9019C4.6834 9.18183 4.25299 9.57627 3.89854 10.0725C3.87323 10.098 3.84791 10.1361 3.82259 10.1743C3.62005 9.9071 3.43016 9.66534 3.24028 9.41086C3.03774 9.14366 2.84785 8.87645 2.65797 8.62197C2.59467 8.5329 2.58201 8.46928 2.67063 8.38021C3.64536 7.29866 4.84796 6.66246 6.29108 6.50977C7.43039 6.38253 8.51906 6.61156 9.53177 7.1587C9.56975 7.18414 9.60772 7.19687 9.6457 7.22232C9.6457 7.26049 9.6457 7.27321 9.65836 7.28594ZM11.7218 14.9204C11.4559 14.5768 11.2154 14.2587 10.9749 13.9406C10.4179 13.2026 9.8609 12.4519 9.29125 11.7139C9.2153 11.6121 9.2153 11.5485 9.30391 11.4594C9.54443 11.2177 9.77229 10.9759 10.0128 10.7342C10.0761 10.6705 10.1014 10.6069 10.0508 10.5179C9.77229 9.98345 9.39252 9.5381 8.89882 9.18183C8.86085 9.15638 8.82287 9.11821 8.77223 9.09276C8.81021 9.05459 8.84819 9.02914 8.87351 9.00369C9.35455 8.63469 9.83558 8.27842 10.3166 7.90942C10.3926 7.8458 10.4559 7.82035 10.5445 7.90942C11.7471 9.00369 12.3927 10.3652 12.456 12.0066C12.4813 12.9609 12.2661 13.8643 11.8357 14.7168C11.7977 14.7677 11.7597 14.8313 11.7218 14.9204Z"/>
</g>
<defs>
<clipPath id="clip0_15240_139199">
<rect fill="white" width="24" height="24" transform="translate(0 0.161377)"/>
</clipPath>
</defs>
<metadata symbolName="ZRXUSD" fileName="zrxusd.svg" id="grimlock-metadata-id" lastUpdate="2025-02-10T09:58:22.675098276" symbolId="1461"/></svg>